0
SECTION
2
HEADER
9
$INSUNITS
70
4
9
$ACADVER
1
AC1014
9
$HANDSEED
5
FFFF
0
ENDSEC
0
SECTION
2
TABLES
0
TABLE
2
VPORT
5
8
100
AcDbSymbolTable
0
ENDTAB
0
TABLE
2
LTYPE
5
5
100
AcDbSymbolTable
0
LTYPE
5
14
100
AcDbSymbolTableRecord
100
AcDbLinetypeTableRecord
2
BYBLOCK
70
0
0
LTYPE
5
15
100
AcDbSymbolTableRecord
100
AcDbLinetypeTableRecord
2
BYLAYER
70
0
0
ENDTAB
0
TABLE
2
LAYER
5
2
100
AcDbSymbolTable
70
2
0
LAYER
5
50
100
AcDbSymbolTableRecord
100
AcDbLayerTableRecord
2
0
70
0
6
CONTINUOUS
0
ENDTAB
0
TABLE
2
STYLE
5
3
100
AcDbSymbolTable
70
1
0
STYLE
5
11
100
AcDbSymbolTableRecord
100
AcDbTextStyleTableRecord
2
STANDARD
70
0
0
ENDTAB
0
TABLE
2
VIEW
5
6
100
AcDbSymbolTable
70
0
0
ENDTAB
0
TABLE
2
UCS
5
7
100
AcDbSymbolTable
70
0
0
ENDTAB
0
TABLE
2
APPID
5
9
100
AcDbSymbolTable
70
2
0
APPID
5
12
100
AcDbSymbolTableRecord
100
AcDbRegAppTableRecord
2
ACAD
70
0
0
ENDTAB
0
TABLE
2
DIMSTYLE
5
A
100
AcDbSymbolTable
70
1
0
ENDTAB
0
TABLE
2
BLOCK_RECORD
5
1
100
AcDbSymbolTable
70
1
0
BLOCK_RECORD
5
1F
100
AcDbSymbolTableRecord
100
AcDbBlockTableRecord
2
*MODEL_SPACE
0
BLOCK_RECORD
5
1B
100
AcDbSymbolTableRecord
100
AcDbBlockTableRecord
2
*PAPER_SPACE
0
ENDTAB
0
ENDSEC
0
SECTION
2
BLOCKS
0
BLOCK
5
20
100
AcDbEntity
100
AcDbBlockBegin
2
*MODEL_SPACE
0
ENDBLK
5
21
100
AcDbEntity
100
AcDbBlockEnd
0
BLOCK
5
1C
100
AcDbEntity
100
AcDbBlockBegin
2
*PAPER_SPACE
0
ENDBLK
5
1D
100
AcDbEntity
100
AcDbBlockEnd
0
ENDSEC
0
SECTION
2
ENTITIES
0
LINE
5
100
100
AcDbEntity
8
0
100
AcDbLine
10
-152.0000001794495
20
13.499999999999943
30
0
11
151.99425348187583
21
13.499999999999943
31
0
0
ARC
5
101
100
AcDbEntity
8
0
100
AcDbCircle
10
151.9942534818758
20
8.4999999999999325
30
0
40
5.0000000000000178
100
AcDbArc
50
0
51
89.999999999999673
0
LINE
5
102
100
AcDbEntity
8
0
100
AcDbLine
10
156.99425348187583
20
8.4999999999999432
30
0
11
156.9942534818187
21
-286.89851005303689
31
0
0
ARC
5
103
100
AcDbEntity
8
0
100
AcDbCircle
10
151.99425348181865
20
-286.89851005303689
30
7.016901591810307e-111
40
5.0000000000000355
100
AcDbArc
50
-90
51
0
0
LINE
5
104
100
AcDbEntity
8
0
100
AcDbLine
10
151.99425348181865
20
-291.89851005303694
30
0
11
-152.00000017944947
21
-291.89851005303694
31
0
0
ARC
5
105
100
AcDbEntity
8
0
100
AcDbCircle
10
-152.00000017944947
20
-286.89851005303689
30
0
40
5.0000000000000355
100
AcDbArc
50
180
51
270
0
LINE
5
106
100
AcDbEntity
8
0
100
AcDbLine
10
-157.0000001794495
20
-286.89851005303689
30
0
11
-157.0000001794495
21
8.4999999999999432
31
0
0
CIRCLE
5
107
100
AcDbEntity
8
0
100
AcDbCircle
10
-171.99999999999386
20
28.500000000000032
30
0
40
2.6000000000000156
0
CIRCLE
5
108
100
AcDbEntity
8
0
100
AcDbCircle
10
-147.95135768569591
20
28.500000000000032
30
0
40
2.5999999999999979
0
CIRCLE
5
109
100
AcDbEntity
8
0
100
AcDbCircle
10
147.94561116752024
20
28.499999999999943
30
0
40
2.5999999999999979
0
CIRCLE
5
110
100
AcDbEntity
8
0
100
AcDbCircle
10
171.99425348181816
20
28.499999999999929
30
0
40
2.6000000000000156
0
LWPOLYLINE
5
111
100
AcDbEntity
8
0
100
AcDbPolyline
90
4
70
1
43
0.0
10
-187.50000017944953
20
303.40480601532045
10
187.4942534818187
20
303.40480601532045
10
187.49425348182274
20
-322.398510053037
10
-187.50000017944953
20
-322.398510053037
0
CIRCLE
5
112
100
AcDbEntity
8
0
100
AcDbCircle
10
-173.27500017944953
20
-55.705505026521607
30
0
40
2.1000000000000085
0
CIRCLE
5
113
100
AcDbEntity
8
0
100
AcDbCircle
10
172.86925348186341
20
-55.705505026521536
30
0
40
2.1000000000000085
0
CIRCLE
5
114
100
AcDbEntity
8
0
100
AcDbCircle
10
172.86925348183109
20
-222.69300502652158
30
0
40
2.1000000000000085
0
CIRCLE
5
115
100
AcDbEntity
8
0
100
AcDbCircle
10
171.99425348187583
20
-142.22425500000008
30
0
40
2.6000000000000156
0
CIRCLE
5
116
100
AcDbEntity
8
0
100
AcDbCircle
10
-173.27500017944953
20
-195.70550502652156
30
0
40
2.1000000000000085
0
CIRCLE
5
117
100
AcDbEntity
8
0
100
AcDbCircle
10
-173.27500017944953
20
-82.693005026521561
30
0
40
2.1000000000000085
0
CIRCLE
5
118
100
AcDbEntity
8
0
100
AcDbCircle
10
172.86925348185818
20
-82.693005026521561
30
0
40
2.1000000000000085
0
CIRCLE
5
119
100
AcDbEntity
8
0
100
AcDbCircle
10
172.86925348183632
20
-195.70550502652156
30
0
40
2.1000000000000085
0
CIRCLE
5
120
100
AcDbEntity
8
0
100
AcDbCircle
10
-171.11978637727137
20
-142.22425500000008
30
0
40
2.6000000000000156
0
CIRCLE
5
121
100
AcDbEntity
8
0
100
AcDbCircle
10
-173.27500017944953
20
-222.69300502652158
30
0
40
2.1000000000000085
0
LWPOLYLINE
5
122
100
AcDbEntity
8
0
100
AcDbPolyline
90
8
70
1
43
0.0
10
14.059355125250663
20
254.71313050857566
10
14.059355125250658
20
211.71272750091538
42
-0.41421356237309503
10
3.8593551252506941
20
201.51272750091545
10
-52.140644874749356
20
201.51272750091545
42
-0.41421356237309476
10
-62.340644874749344
20
211.71272750091543
10
-62.340644874749344
20
254.71313050857574
42
-0.41421356237309503
10
-52.140644874749384
20
264.9131305085757
10
3.8593551252506315
20
264.9131305085757
42
-0.41421356237309492
0
LWPOLYLINE
5
123
100
AcDbEntity
8
0
100
AcDbPolyline
90
8
70
1
43
0.0
10
-71.857802162274822
20
206.5127275009155
10
-167.02348758722408
20
206.51272750091547
10
-168.14064487474946
20
207.62988478844079
10
-168.14064487474946
20
245.79557021339014
10
-167.02348758722408
20
246.91272750091545
10
-71.857802162274808
20
246.91272750091545
10
-70.740644874749435
20
245.79557021339011
10
-70.740644874749421
20
207.62988478844079
0
CIRCLE
5
124
100
AcDbEntity
8
0
100
AcDbCircle
10
171.99425348181816
20
28.499999999999929
30
0
40
2.6000000000000156
0
CIRCLE
5
125
100
AcDbEntity
8
0
100
AcDbCircle
10
147.94561116752024
20
28.499999999999943
30
0
40
2.5999999999999979
0
CIRCLE
5
126
100
AcDbEntity
8
0
100
AcDbCircle
10
-147.95135768569591
20
28.500000000000032
30
0
40
2.5999999999999979
0
CIRCLE
5
127
100
AcDbEntity
8
0
100
AcDbCircle
10
-171.99999999999386
20
28.500000000000032
30
0
40
2.6000000000000156
0
LWPOLYLINE
5
128
100
AcDbEntity
8
0
100
AcDbPolyline
90
8
70
1
43
0.0
10
-157.0000001794495
20
8.4999999999999432
10
-157.0000001794495
20
-286.89851005303689
42
0.41421356237309503
10
-152.00000017944947
20
-291.89851005303694
10
151.99425348181865
20
-291.89851005303694
42
0.41421356237309503
10
156.9942534818187
20
-286.89851005303689
10
156.99425348187583
20
8.4999999999999432
42
0.41421356237309337
10
151.99425348187583
20
13.499999999999947
10
-152.0000001794495
20
13.499999999999943
42
0.41421356237309648
0
CIRCLE
5
129
100
AcDbEntity
8
0
100
AcDbCircle
10
161.9942534818187
20
-296.89851005303694
30
0
40
2.6000000000000156
0
CIRCLE
5
130
100
AcDbEntity
8
0
100
AcDbCircle
10
-162.0000001794495
20
-296.89851005303694
30
0
40
2.5999999999999979
0
LWPOLYLINE
5
131
100
AcDbEntity
8
0
100
AcDbPolyline
90
4
70
1
43
0.0
10
187.49425348182274
20
-322.398510053037
10
187.4942534818187
20
303.40480601532045
10
-187.50000017944953
20
303.40480601532045
10
-187.50000017944953
20
-322.398510053037
0
CIRCLE
5
132
100
AcDbEntity
8
0
100
AcDbCircle
10
-179.44064487474944
20
258.21272750091543
30
0
40
1.4999999999999858
0
CIRCLE
5
133
100
AcDbEntity
8
0
100
AcDbCircle
10
-42.025174820911452
20
269.9131305085757
30
0
40
1.7499999999999982
0
CIRCLE
5
134
100
AcDbEntity
8
0
100
AcDbCircle
10
-42.022053438525276
20
196.51272750091545
30
0
40
1.7499999999999893
0
CIRCLE
5
135
100
AcDbEntity
8
0
100
AcDbCircle
10
-6.2561149285873139
20
269.9131305085757
30
0
40
1.7499999999999905
0
CIRCLE
5
136
100
AcDbEntity
8
0
100
AcDbCircle
10
-6.2592363109777089
20
196.51272750091545
30
0
40
1.7500000000000004
0
CIRCLE
5
137
100
AcDbEntity
8
0
100
AcDbCircle
10
-179.44064487474944
20
208.21272750091549
30
0
40
1.4999999999999858
0
CIRCLE
5
138
100
AcDbEntity
8
0
100
AcDbCircle
10
166.99425348187583
20
282.90480601532045
30
0
40
2.5999999999999801
0
CIRCLE
5
139
100
AcDbEntity
8
0
100
AcDbCircle
10
-167.0000001794495
20
282.90480601532045
30
0
40
2.5999999999999979
0
CIRCLE
5
140
100
AcDbEntity
8
0
100
AcDbCircle
10
0
20
-301.898510053037
30
0
40
2.5999999999999988
0
CIRCLE
5
141
100
AcDbEntity
8
0
100
AcDbCircle
10
-173.27500017944953
20
-55.705505026521607
30
0
40
2.1000000000000085
0
CIRCLE
5
142
100
AcDbEntity
8
0
100
AcDbCircle
10
172.86925348186341
20
-55.705505026521536
30
0
40
2.1000000000000085
0
CIRCLE
5
143
100
AcDbEntity
8
0
100
AcDbCircle
10
172.86925348183109
20
-222.69300502652158
30
0
40
2.1000000000000085
0
CIRCLE
5
144
100
AcDbEntity
8
0
100
AcDbCircle
10
171.99425348184957
20
-142.22425500000008
30
0
40
2.6000000000000156
0
CIRCLE
5
145
100
AcDbEntity
8
0
100
AcDbCircle
10
-173.27500017944953
20
-195.70550502652156
30
0
40
2.1000000000000085
0
CIRCLE
5
146
100
AcDbEntity
8
0
100
AcDbCircle
10
-173.27500017944953
20
-82.693005026521561
30
0
40
2.1000000000000085
0
CIRCLE
5
147
100
AcDbEntity
8
0
100
AcDbCircle
10
172.86925348185818
20
-82.693005026521561
30
0
40
2.1000000000000085
0
CIRCLE
5
148
100
AcDbEntity
8
0
100
AcDbCircle
10
172.86925348183632
20
-195.70550502652156
30
0
40
2.1000000000000085
0
CIRCLE
5
149
100
AcDbEntity
8
0
100
AcDbCircle
10
-171.11978637727137
20
-142.22425500000008
30
0
40
2.6000000000000156
0
CIRCLE
5
150
100
AcDbEntity
8
0
100
AcDbCircle
10
-173.27500017944953
20
-222.69300502652158
30
0
40
2.1000000000000085
0
CIRCLE
5
151
100
AcDbEntity
8
0
100
AcDbCircle
10
-179.44064487474944
20
258.21272750091543
30
0
40
1.4999999999999858
0
CIRCLE
5
152
100
AcDbEntity
8
0
100
AcDbCircle
10
-42.025174820911452
20
269.9131305085757
30
0
40
1.749999999999998
0
CIRCLE
5
153
100
AcDbEntity
8
0
100
AcDbCircle
10
-42.022053438525276
20
196.51272750091545
30
0
40
1.7499999999999893
0
CIRCLE
5
154
100
AcDbEntity
8
0
100
AcDbCircle
10
-6.2561149285873139
20
269.9131305085757
30
0
40
1.7499999999999905
0
CIRCLE
5
155
100
AcDbEntity
8
0
100
AcDbCircle
10
-6.2592363109777089
20
196.51272750091545
30
0
40
1.7500000000000004
0
CIRCLE
5
156
100
AcDbEntity
8
0
100
AcDbCircle
10
-179.44064487474944
20
208.21272750091549
30
0
40
1.4999999999999858
0
LWPOLYLINE
5
157
100
AcDbEntity
8
0
100
AcDbPolyline
90
8
70
1
43
0.0
10
14.059355125250658
20
211.71272750091538
10
14.059355125250663
20
254.71313050857566
42
0.41421356237309659
10
3.859355125250632
20
264.9131305085757
10
-52.140644874749384
20
264.9131305085757
42
0.41421356237309476
10
-62.340644874749344
20
254.71313050857574
10
-62.340644874749351
20
211.71272750091543
42
0.41421356237309381
10
-52.140644874749356
20
201.51272750091545
10
3.8593551252506981
20
201.51272750091545
42
0.41421356237309481
0
LWPOLYLINE
5
158
100
AcDbEntity
8
0
100
AcDbPolyline
90
8
70
1
43
0.0
10
-167.02348758722408
20
206.51272750091545
10
-71.857802162274822
20
206.51272750091547
10
-70.740644874749421
20
207.62988478844079
10
-70.740644874749435
20
245.79557021339011
10
-71.857802162274794
20
246.91272750091545
10
-167.02348758722408
20
246.91272750091545
10
-168.14064487474946
20
245.79557021339011
10
-168.14064487474946
20
207.62988478844079
0
CIRCLE
5
159
100
AcDbEntity
8
0
100
AcDbCircle
10
2.2233524062011101e-64
20
-301.898510053037
30
0
40
2.5999999999999988
0
ARC
5
160
100
AcDbEntity
8
0
100
AcDbCircle
10
-152.00000017944953
20
8.4999999999999503
30
0
40
4.9999999999999929
100
AcDbArc
50
89.999999999999673
51
180
0
CIRCLE
5
161
100
AcDbEntity
8
0
100
AcDbCircle
10
-167.0000001794495
20
282.90480601532045
30
0
40
2.6000000000000156
0
CIRCLE
5
162
100
AcDbEntity
8
0
100
AcDbCircle
10
166.99425348187583
20
282.90480601532045
30
0
40
2.5999999999999801
0
CIRCLE
5
163
100
AcDbEntity
8
0
100
AcDbCircle
10
-162.0000001794495
20
-296.89851005303694
30
0
40
2.5999999999999979
0
CIRCLE
5
164
100
AcDbEntity
8
0
100
AcDbCircle
10
161.9942534818187
20
-296.89851005303694
30
0
40
2.6000000000000156
0
ENDSEC
0
SECTION
2
OBJECTS
0
DICTIONARY
5
C
100
AcDbDictionary
3
ACAD_GROUP
350
D
3
ACAD_MLINESTYLE
350
17
0
DICTIONARY
5
D
100
AcDbDictionary
0
DICTIONARY
5
1A
330
C
100
AcDbDictionary
0
DICTIONARY
5
17
100
AcDbDictionary
0
ENDSEC
0
EOF
