0
SECTION
2
HEADER
9
$INSUNITS
70
4
9
$ACADVER
1
AC1014
9
$HANDSEED
5
FFFF
0
ENDSEC
0
SECTION
2
TABLES
0
TABLE
2
VPORT
5
8
100
AcDbSymbolTable
0
ENDTAB
0
TABLE
2
LTYPE
5
5
100
AcDbSymbolTable
0
LTYPE
5
14
100
AcDbSymbolTableRecord
100
AcDbLinetypeTableRecord
2
BYBLOCK
70
0
0
LTYPE
5
15
100
AcDbSymbolTableRecord
100
AcDbLinetypeTableRecord
2
BYLAYER
70
0
0
ENDTAB
0
TABLE
2
LAYER
5
2
100
AcDbSymbolTable
70
2
0
LAYER
5
50
100
AcDbSymbolTableRecord
100
AcDbLayerTableRecord
2
0
70
0
6
CONTINUOUS
0
ENDTAB
0
TABLE
2
STYLE
5
3
100
AcDbSymbolTable
70
1
0
STYLE
5
11
100
AcDbSymbolTableRecord
100
AcDbTextStyleTableRecord
2
STANDARD
70
0
0
ENDTAB
0
TABLE
2
VIEW
5
6
100
AcDbSymbolTable
70
0
0
ENDTAB
0
TABLE
2
UCS
5
7
100
AcDbSymbolTable
70
0
0
ENDTAB
0
TABLE
2
APPID
5
9
100
AcDbSymbolTable
70
2
0
APPID
5
12
100
AcDbSymbolTableRecord
100
AcDbRegAppTableRecord
2
ACAD
70
0
0
ENDTAB
0
TABLE
2
DIMSTYLE
5
A
100
AcDbSymbolTable
70
1
0
ENDTAB
0
TABLE
2
BLOCK_RECORD
5
1
100
AcDbSymbolTable
70
1
0
BLOCK_RECORD
5
1F
100
AcDbSymbolTableRecord
100
AcDbBlockTableRecord
2
*MODEL_SPACE
0
BLOCK_RECORD
5
1B
100
AcDbSymbolTableRecord
100
AcDbBlockTableRecord
2
*PAPER_SPACE
0
ENDTAB
0
ENDSEC
0
SECTION
2
BLOCKS
0
BLOCK
5
20
100
AcDbEntity
100
AcDbBlockBegin
2
*MODEL_SPACE
0
ENDBLK
5
21
100
AcDbEntity
100
AcDbBlockEnd
0
BLOCK
5
1C
100
AcDbEntity
100
AcDbBlockBegin
2
*PAPER_SPACE
0
ENDBLK
5
1D
100
AcDbEntity
100
AcDbBlockEnd
0
ENDSEC
0
SECTION
2
ENTITIES
0
LINE
5
100
100
AcDbEntity
8
0
100
AcDbLine
10
18.466974963956972
20
139.9500000000001
30
0
11
52.002873348819207
21
139.9500000000001
31
0
0
ARC
5
101
100
AcDbEntity
8
0
100
AcDbCircle
10
52.002873348819207
20
137.9500000000001
30
0
40
1.9999999999999929
100
AcDbArc
50
-90
51
90
0
LINE
5
102
100
AcDbEntity
8
0
100
AcDbLine
10
52.002873348819207
20
135.9500000000001
30
0
11
18.466974963956972
21
135.9500000000001
31
0
0
SPLINE
5
103
100
AcDbEntity
8
0
100
AcDbSpline
70
1064
71
3
72
14
73
10
74
0
42
0.000000001
43
0.0000000001
44
0.0000000001
40
0
40
0
40
0
40
0
40
0.11756281913290793
40
0.11756281913290793
40
0.23512563826581587
40
0.23512563826581587
40
0.31158886482848586
40
0.31158886482848586
40
0.38805209139115587
40
0.38805209139115587
40
0.38805209139115587
40
0.38805209139115587
10
15.002873348819215
20
137.9500000000001
30
0
10
15.27997157090017
20
137.67290177791915
30
0
10
15.584424020782182
20
137.367318025288
30
0
10
16.232586271120933
20
136.8078775365536
30
0
10
16.578391462457962
20
136.55645310556321
30
0
10
17.147898663404831
20
136.2499378216497
30
0
10
17.404756282970467
20
136.13916226171364
30
0
10
17.936775400678783
20
135.98890865626285
30
0
10
18.212097542081406
20
135.9500000000001
30
0
10
18.466974963956972
20
135.9500000000001
30
0
0
SPLINE
5
104
100
AcDbEntity
8
0
100
AcDbSpline
70
1064
71
3
72
14
73
10
74
0
42
0.000000001
43
0.0000000001
44
0.0000000001
40
1.0110644800770188
40
1.0110644800770188
40
1.0110644800770188
40
1.0110644800770188
40
1.0875277066396887
40
1.0875277066396887
40
1.1639909332023588
40
1.1639909332023588
40
1.2815537523352667
40
1.2815537523352667
40
1.3991165714681746
40
1.3991165714681746
40
1.3991165714681746
40
1.3991165714681746
10
18.466974963956972
20
139.95000000000007
30
0
10
18.212097542081406
20
139.95000000000007
30
0
10
17.93677540067878
20
139.91109134373733
30
0
10
17.404756282970467
20
139.76083773828654
30
0
10
17.147898663404828
20
139.65006217835051
30
0
10
16.578391462457962
20
139.34354689443697
30
0
10
16.23258627112093
20
139.0921224634466
30
0
10
15.584424020782176
20
138.5326819747122
30
0
10
15.27997157090017
20
138.22709822208108
30
0
10
15.002873348819215
20
137.9500000000001
30
0
0
LWPOLYLINE
5
105
100
AcDbEntity
8
0
100
AcDbPolyline
90
8
70
1
43
0.0
10
5.0000000000000604
20
153.45000000000005
10
5.0000000000000453
20
170.4500000000001
42
0.41421356237309481
10
3.5000000000000462
20
171.95000000000007
10
-3.4999999999999289
20
171.95000000000007
42
0.41421356237309503
10
-4.9999999999999289
20
170.4500000000001
10
-4.9999999999999387
20
153.45000000000007
42
0.41421356237309503
10
-3.4999999999999378
20
151.95000000000007
10
3.5000000000000608
20
151.95000000000007
42
0.41421356237309503
0
CIRCLE
5
106
100
AcDbEntity
8
0
100
AcDbCircle
10
167.00287334864731
20
1.5749997094274182
30
0
40
2.7499999999999858
0
CIRCLE
5
107
100
AcDbEntity
8
0
100
AcDbCircle
10
61.502873348647299
20
1.574999709427396
30
0
40
2.7500000000000036
0
CIRCLE
5
108
100
AcDbEntity
8
0
100
AcDbCircle
10
19.002873348819215
20
159.95000000000007
30
0
40
1.749999999999998
0
LWPOLYLINE
5
109
100
AcDbEntity
8
0
100
AcDbPolyline
90
4
70
1
43
0.0
10
69.002873348819222
20
159.95000000000007
10
81.002873348819236
20
159.95000000000007
42
0.99999999999999989
10
81.002873348819236
20
163.95000000000007
10
69.002873348819222
20
163.95000000000007
42
0.99999999999999989
0
LWPOLYLINE
5
110
100
AcDbEntity
8
0
100
AcDbPolyline
90
4
70
1
43
0.0
10
58.002873348819207
20
147.9500000000001
10
91.002873348819207
20
147.9500000000001
42
0.99999999999999989
10
91.002873348819207
20
151.9500000000001
10
58.002873348819215
20
151.9500000000001
42
0.99999999999999989
0
LWPOLYLINE
5
111
100
AcDbEntity
8
0
100
AcDbPolyline
90
4
70
1
43
0.0
10
38.332873348819206
20
145.9500000000001
10
17.002873348819215
20
145.9500000000001
42
0.99999999999999989
10
17.002873348819215
20
141.9500000000001
10
38.332873348819206
20
141.95000000000007
42
0.99999999999999989
0
CIRCLE
5
112
100
AcDbEntity
8
0
100
AcDbCircle
10
91.002873348819207
20
127.95000000000007
30
0
40
1.749999999999998
0
LWPOLYLINE
5
113
100
AcDbEntity
8
0
100
AcDbPolyline
90
4
70
1
43
0.0
10
91.002873348819207
20
139.95000000000007
42
-0.99999999999999989
10
91.002873348819207
20
135.9500000000001
10
58.002873348819215
20
135.95000000000013
42
-0.99999999999999989
10
58.002873348819215
20
139.9500000000001
0
CIRCLE
5
114
100
AcDbEntity
8
0
100
AcDbCircle
10
-61.497126651352701
20
-123.42500029057263
30
0
40
2.7500000000000036
0
CIRCLE
5
115
100
AcDbEntity
8
0
100
AcDbCircle
10
-61.497126651352701
20
21.574999709427402
30
0
40
2.7500000000000036
0
LWPOLYLINE
5
116
100
AcDbEntity
8
0
100
AcDbPolyline
90
4
70
1
43
0.0
10
45.002873348819207
20
133.95000000000005
42
-0.99999999999999989
10
45.002873348819207
20
129.95000000000005
10
25.002873348819215
20
129.95000000000007
42
-0.99999999999999989
10
25.002873348819215
20
133.95000000000007
0
LWPOLYLINE
5
117
100
AcDbEntity
8
0
100
AcDbPolyline
90
4
70
1
43
0.0
10
81.002873348819236
20
127.95000000000005
42
-0.99999999999999989
10
81.002873348819236
20
123.95000000000007
10
69.002873348819222
20
123.9500000000001
42
-0.99999999999999989
10
69.002873348819222
20
127.95000000000009
0
CIRCLE
5
118
100
AcDbEntity
8
0
100
AcDbCircle
10
19.002873348819215
20
127.95000000000007
30
0
40
1.749999999999998
0
LWPOLYLINE
5
119
100
AcDbEntity
8
0
100
AcDbPolyline
90
4
70
1
43
0.0
10
52.002873348819207
20
151.9500000000001
10
19.002873348819215
20
151.9500000000001
42
0.99999999999999989
10
19.002873348819207
20
147.9500000000001
10
52.002873348819207
20
147.9500000000001
42
0.99999999999999989
0
LWPOLYLINE
5
120
100
AcDbEntity
8
0
100
AcDbPolyline
90
4
70
1
43
0.0
10
65.002873348819207
20
153.95000000000007
10
85.002873348819207
20
153.95000000000007
42
0.99999999999999989
10
85.002873348819207
20
157.9500000000001
10
65.002873348819222
20
157.9500000000001
42
0.99999999999999989
0
CIRCLE
5
121
100
AcDbEntity
8
0
100
AcDbCircle
10
59.002873348819222
20
159.95000000000007
30
0
40
1.7500000000000004
0
CIRCLE
5
122
100
AcDbEntity
8
0
100
AcDbCircle
10
-166.99712665135274
20
-123.38894165079336
30
0
40
2.7500000000000213
0
CIRCLE
5
123
100
AcDbEntity
8
0
100
AcDbCircle
10
61.502873348647299
20
-123.42500029057263
30
0
40
2.7499999999999947
0
CIRCLE
5
124
100
AcDbEntity
8
0
100
AcDbCircle
10
167.00287334864731
20
-123.42500029057263
30
0
40
2.7500000000000213
0
CIRCLE
5
125
100
AcDbEntity
8
0
100
AcDbCircle
10
11.000000000000023
20
161.95000000000007
30
0
40
1.6000000000000014
0
CIRCLE
5
126
100
AcDbEntity
8
0
100
AcDbCircle
10
-166.99712665135274
20
1.6110583492066795
30
0
40
2.7500000000000213
0
CIRCLE
5
127
100
AcDbEntity
8
0
100
AcDbCircle
10
167.00287334864731
20
21.574999709427416
30
0
40
2.7499999999999858
0
CIRCLE
5
128
100
AcDbEntity
8
0
100
AcDbCircle
10
61.502873348647299
20
21.574999709427395
30
0
40
2.7500000000000036
0
CIRCLE
5
129
100
AcDbEntity
8
0
100
AcDbCircle
10
-166.99712665135274
20
21.611058349206679
30
0
40
2.7499999999999858
0
CIRCLE
5
130
100
AcDbEntity
8
0
100
AcDbCircle
10
91.002873348819207
20
159.95000000000007
30
0
40
1.749999999999998
0
LWPOLYLINE
5
131
100
AcDbEntity
8
0
100
AcDbPolyline
90
4
70
1
43
0.0
10
45.002873348819207
20
157.95000000000005
42
-0.99999999999999989
10
45.002873348819207
20
153.95000000000007
10
25.002873348819215
20
153.9500000000001
42
-0.99999999999999989
10
25.002873348819215
20
157.9500000000001
0
LWPOLYLINE
5
132
100
AcDbEntity
8
0
100
AcDbPolyline
90
4
70
1
43
0.0
10
93.002873348819222
20
145.95000000000005
42
-0.99999999999999989
10
93.002873348819222
20
141.95000000000007
10
71.662873348819204
20
141.9500000000001
42
-0.99999999999999989
10
71.662873348819204
20
145.9500000000001
0
CIRCLE
5
133
100
AcDbEntity
8
0
100
AcDbCircle
10
59.002873348819222
20
127.95000000000007
30
0
40
1.7500000000000004
0
CIRCLE
5
134
100
AcDbEntity
8
0
100
AcDbCircle
10
-61.497126651352701
20
-103.42500029057263
30
0
40
2.7499999999999947
0
CIRCLE
5
135
100
AcDbEntity
8
0
100
AcDbCircle
10
-61.497126651352701
20
1.5749997094274049
30
0
40
2.7500000000000036
0
LWPOLYLINE
5
136
100
AcDbEntity
8
0
100
AcDbPolyline
90
4
70
1
43
0.0
10
41.002873348819207
20
127.95000000000005
42
-0.99999999999999989
10
41.002873348819207
20
123.95000000000007
10
29.002873348819218
20
123.9500000000001
42
-0.99999999999999989
10
29.002873348819218
20
127.95000000000009
0
LWPOLYLINE
5
137
100
AcDbEntity
8
0
100
AcDbPolyline
90
4
70
1
43
0.0
10
85.002873348819207
20
133.95000000000005
42
-0.99999999999999989
10
85.002873348819207
20
129.95000000000005
10
65.002873348819222
20
129.95000000000007
42
-0.99999999999999989
10
65.002873348819222
20
133.95000000000007
0
CIRCLE
5
138
100
AcDbEntity
8
0
100
AcDbCircle
10
51.002873348819207
20
127.95000000000007
30
0
40
1.7500000000000004
0
LWPOLYLINE
5
139
100
AcDbEntity
8
0
100
AcDbPolyline
90
4
70
1
43
0.0
10
44.332873348819213
20
141.9500000000001
10
65.662873348819218
20
141.9500000000001
42
0.99999999999999989
10
65.662873348819218
20
145.9500000000001
10
44.332873348819213
20
145.9500000000001
42
0.99999999999999989
0
LWPOLYLINE
5
140
100
AcDbEntity
8
0
100
AcDbPolyline
90
4
70
1
43
0.0
10
29.002873348819218
20
159.95000000000007
10
41.002873348819207
20
159.95000000000007
42
0.99999999999999989
10
41.002873348819207
20
163.95000000000007
10
29.002873348819218
20
163.95000000000007
42
0.99999999999999989
0
CIRCLE
5
141
100
AcDbEntity
8
0
100
AcDbCircle
10
51.002873348819207
20
159.95000000000007
30
0
40
1.7500000000000004
0
CIRCLE
5
142
100
AcDbEntity
8
0
100
AcDbCircle
10
-166.99712665135274
20
-103.38894165079336
30
0
40
2.7499999999999858
0
CIRCLE
5
143
100
AcDbEntity
8
0
100
AcDbCircle
10
61.502873348647299
20
-103.42500029057263
30
0
40
2.7500000000000036
0
CIRCLE
5
144
100
AcDbEntity
8
0
100
AcDbCircle
10
167.00287334864731
20
-103.42500029057263
30
0
40
2.7499999999999858
0
CIRCLE
5
145
100
AcDbEntity
8
0
100
AcDbCircle
10
-10.999999999999934
20
161.95000000000007
30
0
40
1.6000000000000003
0
CIRCLE
5
146
100
AcDbEntity
8
0
100
AcDbCircle
10
-161.99425348215871
20
-22.500000581145265
30
0
40
2.5999999999999979
0
CIRCLE
5
147
100
AcDbEntity
8
0
100
AcDbCircle
10
161.80000017945332
20
-156.80000058114527
30
0
40
2.6000000000000156
0
CIRCLE
5
148
100
AcDbEntity
8
0
100
AcDbCircle
10
-161.79425348215872
20
-156.80000058114527
30
0
40
2.5999999999999979
0
CIRCLE
5
149
100
AcDbEntity
8
0
100
AcDbCircle
10
162.00000017945331
20
-22.500000581145265
30
0
40
2.6000000000000156
0
CIRCLE
5
150
100
AcDbEntity
8
0
100
AcDbCircle
10
0
20
-156.80000058114527
30
0
40
2.6000000000000001
0
CIRCLE
5
151
100
AcDbEntity
8
0
100
AcDbCircle
10
-166.99425348215871
20
159.15000000000006
30
0
40
2.6000000000000156
0
CIRCLE
5
152
100
AcDbEntity
8
0
100
AcDbCircle
10
167.00000017945331
20
159.15000000000006
30
0
40
2.6000000000000156
0
LWPOLYLINE
5
153
100
AcDbEntity
8
0
100
AcDbPolyline
90
10
70
1
43
0.0
10
-181.79425348215872
20
173.95000000000007
10
-60.999999999999936
20
173.95000000000007
10
-60.999999999999936
20
173.45000000000005
42
0.41421356237309503
10
-59.499999999999929
20
171.95000000000007
10
-42.499999999999936
20
171.95000000000007
42
0.41421356237309503
10
-40.999999999999936
20
173.45000000000005
10
-40.999999999999943
20
173.95000000000007
10
181.80000017945332
20
173.95000000000007
10
181.80000017945332
20
-176.80000058114527
10
-181.79425348215872
20
-176.80000058114527
0
LWPOLYLINE
5
154
100
AcDbEntity
8
0
100
AcDbPolyline
90
4
70
1
43
0.0
10
19.002873348819218
20
139.9500000000001
10
52.002873348819222
20
139.9500000000001
42
-0.99999999999999989
10
52.002873348819207
20
135.9500000000001
10
19.002873348819215
20
135.9500000000001
42
-0.99999999999999989
0
LWPOLYLINE
5
155
100
AcDbEntity
8
0
100
AcDbPolyline
90
4
70
1
43
0.0
10
44.332873348819177
20
141.95000000000007
42
-0.99999999999999989
10
44.332873348819234
20
145.9500000000001
10
65.662873348819232
20
145.95000000000007
42
-0.99999999999999989
10
65.662873348819218
20
141.9500000000001
0
LWPOLYLINE
5
156
100
AcDbEntity
8
0
100
AcDbPolyline
90
4
70
1
43
0.0
10
17.002873348819215
20
145.9500000000001
10
38.332873348819263
20
145.95000000000005
42
-0.99999999999999989
10
38.33287334881917
20
141.9500000000001
10
17.002873348819204
20
141.95000000000007
42
-0.99999999999999989
0
LWPOLYLINE
5
157
100
AcDbEntity
8
0
100
AcDbPolyline
90
4
70
1
43
0.0
10
19.002873348819215
20
151.9500000000001
10
52.002873348819243
20
151.9500000000001
42
-0.99999999999999989
10
52.002873348819193
20
147.9500000000001
10
19.002873348819197
20
147.95000000000007
42
-0.99999999999999989
0
LWPOLYLINE
5
158
100
AcDbEntity
8
0
100
AcDbPolyline
90
4
70
1
43
0.0
10
81.002873348819236
20
159.95000000000007
10
69.002873348819236
20
159.95000000000007
42
-0.99999999999999989
10
69.002873348819222
20
163.95000000000007
10
81.002873348819193
20
163.95000000000007
42
-0.99999999999999989
0
LWPOLYLINE
5
159
100
AcDbEntity
8
0
100
AcDbPolyline
90
4
70
1
43
0.0
10
41.00287334881925
20
127.95000000000009
42
-0.99999999999999989
10
41.002873348819193
20
123.95000000000007
10
29.0028733488192
20
123.95000000000009
42
-0.99999999999999989
10
29.002873348819218
20
127.95000000000007
0
LWPOLYLINE
5
160
100
AcDbEntity
8
0
100
AcDbPolyline
90
4
70
1
43
0.0
10
45.002873348819243
20
133.95000000000007
42
-0.99999999999999989
10
45.002873348819172
20
129.95000000000007
10
25.002873348819197
20
129.95000000000005
42
-0.99999999999999989
10
25.002873348819215
20
133.95000000000007
0
LWPOLYLINE
5
161
100
AcDbEntity
8
0
100
AcDbPolyline
90
4
70
1
43
0.0
10
45.002873348819243
20
157.9500000000001
42
-0.99999999999999989
10
45.002873348819172
20
153.95000000000007
10
25.002873348819197
20
153.95000000000007
42
-0.99999999999999989
10
25.002873348819215
20
157.9500000000001
0
LWPOLYLINE
5
162
100
AcDbEntity
8
0
100
AcDbPolyline
90
4
70
1
43
0.0
10
93.002873348819222
20
141.9500000000001
10
71.662873348819232
20
141.95000000000005
42
-0.99999999999999989
10
71.662873348819204
20
145.9500000000001
10
93.002873348819222
20
145.9500000000001
42
-0.99999999999999989
0
LWPOLYLINE
5
163
100
AcDbEntity
8
0
100
AcDbPolyline
90
4
70
1
43
0.0
10
65.002873348819179
20
153.95000000000007
42
-0.99999999999999989
10
65.002873348819236
20
157.9500000000001
10
85.002873348819207
20
157.9500000000001
42
-0.99999999999999989
10
85.002873348819207
20
153.95000000000007
0
LWPOLYLINE
5
164
100
AcDbEntity
8
0
100
AcDbPolyline
90
4
70
1
43
0.0
10
85.002873348819207
20
129.95000000000007
10
65.002873348819179
20
129.95000000000005
42
-0.99999999999999989
10
65.002873348819236
20
133.95000000000007
10
85.002873348819207
20
133.95000000000007
42
-0.99999999999999989
0
LWPOLYLINE
5
165
100
AcDbEntity
8
0
100
AcDbPolyline
90
4
70
1
43
0.0
10
29.002873348819236
20
159.95000000000007
42
-0.99999999999999989
10
29.002873348819218
20
163.95000000000007
10
41.002873348819193
20
163.95000000000007
42
-0.99999999999999989
10
41.002873348819207
20
159.95000000000007
0
LWPOLYLINE
5
166
100
AcDbEntity
8
0
100
AcDbPolyline
90
4
70
1
43
0.0
10
58.002873348819165
20
147.95000000000013
42
-0.99999999999999989
10
58.002873348819236
20
151.95000000000007
10
91.002873348819207
20
151.9500000000001
42
-0.99999999999999989
10
91.002873348819207
20
147.9500000000001
0
LWPOLYLINE
5
167
100
AcDbEntity
8
0
100
AcDbPolyline
90
4
70
1
43
0.0
10
58.002873348819215
20
139.9500000000001
10
91.002873348819207
20
139.9500000000001
42
-0.99999999999999989
10
91.002873348819207
20
135.9500000000001
10
58.002873348819193
20
135.9500000000001
42
-0.99999999999999989
0
LWPOLYLINE
5
168
100
AcDbEntity
8
0
100
AcDbPolyline
90
4
70
1
43
0.0
10
69.002873348819179
20
123.9500000000001
42
-0.99999999999999989
10
69.00287334881925
20
127.95000000000005
10
81.002873348819236
20
127.95000000000005
42
-0.99999999999999989
10
81.002873348819236
20
123.95000000000007
0
LWPOLYLINE
5
169
100
AcDbEntity
8
0
100
AcDbPolyline
90
8
70
1
43
0.0
10
5.0000000000000453
20
170.4500000000001
10
5.0000000000000524
20
153.45000000000005
42
-0.41421356237308915
10
3.5000000000000608
20
151.95000000000007
10
-3.4999999999999378
20
151.95000000000007
42
-0.41421356237309437
10
-4.9999999999999387
20
153.45000000000007
10
-4.9999999999999387
20
170.4500000000001
42
-0.41421356237309959
10
-3.4999999999999294
20
171.95000000000007
10
3.5000000000000457
20
171.95000000000007
42
-0.41421356237309992
0
CIRCLE
5
170
100
AcDbEntity
8
0
100
AcDbCircle
10
167.00287334864731
20
1.5749997094274182
30
0
40
2.7499999999999858
0
CIRCLE
5
171
100
AcDbEntity
8
0
100
AcDbCircle
10
61.502873348647299
20
1.574999709427396
30
0
40
2.7500000000000036
0
CIRCLE
5
172
100
AcDbEntity
8
0
100
AcDbCircle
10
19.002873348819215
20
159.95000000000007
30
0
40
1.7499999999999982
0
CIRCLE
5
173
100
AcDbEntity
8
0
100
AcDbCircle
10
91.002873348819207
20
127.95000000000007
30
0
40
1.7499999999999982
0
CIRCLE
5
174
100
AcDbEntity
8
0
100
AcDbCircle
10
-61.497126651352701
20
-123.42500029057263
30
0
40
2.7500000000000036
0
CIRCLE
5
175
100
AcDbEntity
8
0
100
AcDbCircle
10
-61.497126651352701
20
21.574999709427402
30
0
40
2.7500000000000036
0
CIRCLE
5
176
100
AcDbEntity
8
0
100
AcDbCircle
10
19.002873348819215
20
127.95000000000007
30
0
40
1.7499999999999982
0
CIRCLE
5
177
100
AcDbEntity
8
0
100
AcDbCircle
10
59.002873348819222
20
159.95000000000007
30
0
40
1.7500000000000004
0
CIRCLE
5
178
100
AcDbEntity
8
0
100
AcDbCircle
10
-166.99712665135274
20
-123.38894165079336
30
0
40
2.7500000000000213
0
CIRCLE
5
179
100
AcDbEntity
8
0
100
AcDbCircle
10
61.502873348647299
20
-123.42500029057263
30
0
40
2.7499999999999947
0
CIRCLE
5
180
100
AcDbEntity
8
0
100
AcDbCircle
10
167.00287334864731
20
-123.42500029057263
30
0
40
2.7500000000000213
0
CIRCLE
5
181
100
AcDbEntity
8
0
100
AcDbCircle
10
11.000000000000023
20
161.95000000000007
30
0
40
1.6000000000000014
0
CIRCLE
5
182
100
AcDbEntity
8
0
100
AcDbCircle
10
-166.99712665135274
20
1.6110583492066795
30
0
40
2.7500000000000213
0
CIRCLE
5
183
100
AcDbEntity
8
0
100
AcDbCircle
10
167.00287334864731
20
21.574999709427416
30
0
40
2.7499999999999858
0
CIRCLE
5
184
100
AcDbEntity
8
0
100
AcDbCircle
10
61.502873348647299
20
21.574999709427395
30
0
40
2.7500000000000036
0
CIRCLE
5
185
100
AcDbEntity
8
0
100
AcDbCircle
10
-166.99712665135274
20
21.611058349206679
30
0
40
2.7499999999999858
0
CIRCLE
5
186
100
AcDbEntity
8
0
100
AcDbCircle
10
91.002873348819207
20
159.95000000000007
30
0
40
1.7499999999999982
0
CIRCLE
5
187
100
AcDbEntity
8
0
100
AcDbCircle
10
59.002873348819222
20
127.95000000000007
30
0
40
1.7500000000000004
0
CIRCLE
5
188
100
AcDbEntity
8
0
100
AcDbCircle
10
-61.497126651352701
20
-103.42500029057263
30
0
40
2.7499999999999947
0
CIRCLE
5
189
100
AcDbEntity
8
0
100
AcDbCircle
10
-61.497126651352701
20
1.5749997094274049
30
0
40
2.7500000000000036
0
CIRCLE
5
190
100
AcDbEntity
8
0
100
AcDbCircle
10
51.002873348819207
20
127.95000000000007
30
0
40
1.7500000000000004
0
CIRCLE
5
191
100
AcDbEntity
8
0
100
AcDbCircle
10
51.002873348819207
20
159.95000000000007
30
0
40
1.7500000000000004
0
CIRCLE
5
192
100
AcDbEntity
8
0
100
AcDbCircle
10
-166.99712665135274
20
-103.38894165079336
30
0
40
2.7499999999999858
0
CIRCLE
5
193
100
AcDbEntity
8
0
100
AcDbCircle
10
61.502873348647299
20
-103.42500029057263
30
0
40
2.7500000000000036
0
CIRCLE
5
194
100
AcDbEntity
8
0
100
AcDbCircle
10
167.00287334864731
20
-103.42500029057263
30
0
40
2.7499999999999858
0
CIRCLE
5
195
100
AcDbEntity
8
0
100
AcDbCircle
10
-10.999999999999934
20
161.95000000000007
30
0
40
1.6000000000000003
0
CIRCLE
5
196
100
AcDbEntity
8
0
100
AcDbCircle
10
167.00000017945331
20
159.15000000000006
30
0
40
2.6000000000000156
0
CIRCLE
5
197
100
AcDbEntity
8
0
100
AcDbCircle
10
-166.99425348215871
20
159.15000000000006
30
0
40
2.6000000000000156
0
CIRCLE
5
198
100
AcDbEntity
8
0
100
AcDbCircle
10
0
20
-156.80000058114527
30
0
40
2.6000000000000001
0
CIRCLE
5
199
100
AcDbEntity
8
0
100
AcDbCircle
10
162.00000017945331
20
-22.500000581145265
30
0
40
2.6000000000000156
0
CIRCLE
5
200
100
AcDbEntity
8
0
100
AcDbCircle
10
-161.79425348215872
20
-156.80000058114527
30
0
40
2.5999999999999979
0
CIRCLE
5
201
100
AcDbEntity
8
0
100
AcDbCircle
10
161.80000017945332
20
-156.80000058114527
30
0
40
2.6000000000000156
0
CIRCLE
5
202
100
AcDbEntity
8
0
100
AcDbCircle
10
-161.99425348215871
20
-22.500000581145265
30
0
40
2.5999999999999979
0
LWPOLYLINE
5
203
100
AcDbEntity
8
0
100
AcDbPolyline
90
10
70
1
43
0.0
10
-181.79425348215872
20
173.95000000000007
10
-181.79425348215872
20
-176.80000058114527
10
181.80000017945332
20
-176.80000058114527
10
181.80000017945332
20
173.95000000000007
10
-40.999999999999936
20
173.95000000000007
10
-40.999999999999929
20
173.45000000000005
42
-0.41421356237310025
10
-42.499999999999936
20
171.95000000000007
10
-59.499999999999929
20
171.95000000000007
42
-0.41421356237310025
10
-60.999999999999936
20
173.45000000000005
10
-60.999999999999943
20
173.95000000000007
0
CIRCLE
5
204
100
AcDbEntity
8
0
100
AcDbCircle
10
50
20
98.45000000000006
30
0
40
2.5999999999999979
0
CIRCLE
5
205
100
AcDbEntity
8
0
100
AcDbCircle
10
-50
20
98.45000000000006
30
0
40
2.6000000000000068
0
CIRCLE
5
206
100
AcDbEntity
8
0
100
AcDbCircle
10
50
20
98.45000000000006
30
0
40
2.5999999999999979
0
CIRCLE
5
207
100
AcDbEntity
8
0
100
AcDbCircle
10
-50
20
98.45000000000006
30
0
40
2.6000000000000068
0
CIRCLE
5
208
100
AcDbEntity
8
0
100
AcDbCircle
10
-50.999999999999936
20
158.95000000000007
30
0
40
2.5999999999999979
0
CIRCLE
5
209
100
AcDbEntity
8
0
100
AcDbCircle
10
-50.999999999999936
20
158.95000000000007
30
0
40
2.5999999999999979
0
ENDSEC
0
SECTION
2
OBJECTS
0
DICTIONARY
5
C
100
AcDbDictionary
3
ACAD_GROUP
350
D
3
ACAD_MLINESTYLE
350
17
0
DICTIONARY
5
D
100
AcDbDictionary
0
DICTIONARY
5
1A
330
C
100
AcDbDictionary
0
DICTIONARY
5
17
100
AcDbDictionary
0
ENDSEC
0
EOF
