0
SECTION
2
HEADER
9
$INSUNITS
70
4
9
$ACADVER
1
AC1014
9
$HANDSEED
5
FFFF
0
ENDSEC
0
SECTION
2
TABLES
0
TABLE
2
VPORT
5
8
100
AcDbSymbolTable
0
ENDTAB
0
TABLE
2
LTYPE
5
5
100
AcDbSymbolTable
0
LTYPE
5
14
100
AcDbSymbolTableRecord
100
AcDbLinetypeTableRecord
2
BYBLOCK
70
0
0
LTYPE
5
15
100
AcDbSymbolTableRecord
100
AcDbLinetypeTableRecord
2
BYLAYER
70
0
0
ENDTAB
0
TABLE
2
LAYER
5
2
100
AcDbSymbolTable
70
2
0
LAYER
5
50
100
AcDbSymbolTableRecord
100
AcDbLayerTableRecord
2
0
70
0
6
CONTINUOUS
0
ENDTAB
0
TABLE
2
STYLE
5
3
100
AcDbSymbolTable
70
1
0
STYLE
5
11
100
AcDbSymbolTableRecord
100
AcDbTextStyleTableRecord
2
STANDARD
70
0
0
ENDTAB
0
TABLE
2
VIEW
5
6
100
AcDbSymbolTable
70
0
0
ENDTAB
0
TABLE
2
UCS
5
7
100
AcDbSymbolTable
70
0
0
ENDTAB
0
TABLE
2
APPID
5
9
100
AcDbSymbolTable
70
2
0
APPID
5
12
100
AcDbSymbolTableRecord
100
AcDbRegAppTableRecord
2
ACAD
70
0
0
ENDTAB
0
TABLE
2
DIMSTYLE
5
A
100
AcDbSymbolTable
70
1
0
ENDTAB
0
TABLE
2
BLOCK_RECORD
5
1
100
AcDbSymbolTable
70
1
0
BLOCK_RECORD
5
1F
100
AcDbSymbolTableRecord
100
AcDbBlockTableRecord
2
*MODEL_SPACE
0
BLOCK_RECORD
5
1B
100
AcDbSymbolTableRecord
100
AcDbBlockTableRecord
2
*PAPER_SPACE
0
ENDTAB
0
ENDSEC
0
SECTION
2
BLOCKS
0
BLOCK
5
20
100
AcDbEntity
100
AcDbBlockBegin
2
*MODEL_SPACE
0
ENDBLK
5
21
100
AcDbEntity
100
AcDbBlockEnd
0
BLOCK
5
1C
100
AcDbEntity
100
AcDbBlockBegin
2
*PAPER_SPACE
0
ENDBLK
5
1D
100
AcDbEntity
100
AcDbBlockEnd
0
ENDSEC
0
SECTION
2
ENTITIES
0
CIRCLE
5
100
100
AcDbEntity
8
0
100
AcDbCircle
10
-67.192837304714047
20
-290.3985100530374
30
0
40
0.49999999999998934
0
CIRCLE
5
101
100
AcDbEntity
8
0
100
AcDbCircle
10
-65.192837304714033
20
-290.3985100530374
30
0
40
0.49999999999999822
0
CIRCLE
5
102
100
AcDbEntity
8
0
100
AcDbCircle
10
-69.192837304714047
20
-290.3985100530374
30
0
40
0.50000000000000711
0
LWPOLYLINE
5
103
100
AcDbEntity
8
0
100
AcDbPolyline
90
6
70
1
43
0.0
10
-69.81673879559014
20
-292.3985100530374
10
-71.192837304714047
20
-290.3985100530374
10
-69.816738795590169
20
-288.3985100530374
10
-70.816738795590183
20
-288.3985100530374
10
-72.192837304714104
20
-290.39851005303763
10
-70.81673879559014
20
-292.3985100530374
0
LWPOLYLINE
5
104
100
AcDbEntity
8
0
100
AcDbPolyline
90
6
70
1
43
0.0
10
-63.568935813837939
20
-292.3985100530374
10
-62.192837304713976
20
-290.39851005303768
10
-63.568935813837882
20
-288.3985100530374
10
-64.568935813837896
20
-288.3985100530374
10
-63.19283730471404
20
-290.3985100530374
10
-64.568935813837939
20
-292.3985100530374
0
LWPOLYLINE
5
105
100
AcDbEntity
8
0
100
AcDbPolyline
90
8
70
1
43
0.0
10
-75.442837304714672
20
-314.39851005303728
10
-58.942837304711837
20
-314.39851005303734
42
0.41421356237309503
10
-57.942837304714665
20
-313.39851005304018
10
-57.942837304714665
20
-296.39851005303734
42
0.41421356237311324
10
-58.942837304714644
20
-295.39851005303734
10
-75.442837304713478
20
-295.39851005303734
42
0.41421356237311585
10
-76.442837304714658
20
-296.39851005303854
10
-76.442837304714672
20
-313.39851005303734
42
0.4142135623730846
0
LWPOLYLINE
5
106
100
AcDbEntity
8
0
100
AcDbPolyline
90
8
70
1
43
0.0
10
-127.60912239673317
20
-286.44851005300472
10
-127.60912239673318
20
-310.44851005300319
42
0.41421356237309365
10
-123.9091223967332
20
-314.14851005300318
10
-103.90912239674762
20
-314.14851005300318
42
0.41421356237309503
10
-100.2091223967476
20
-310.44851005300313
10
-100.2091223967476
20
-286.4485100529937
42
0.41421356237310203
10
-103.90912239673321
20
-282.74851005300474
10
-123.90912239673315
20
-282.74851005300474
42
0.41421356237309503
0
CIRCLE
5
107
100
AcDbEntity
8
0
100
AcDbCircle
10
-80.692837304714672
20
-304.8985100530374
30
0
40
1.749999999999998
0
CIRCLE
5
108
100
AcDbEntity
8
0
100
AcDbCircle
10
-95.692837304714672
20
-297.94851005298915
30
0
40
1.7499999999999893
0
CIRCLE
5
109
100
AcDbEntity
8
0
100
AcDbCircle
10
-131.99425348182535
20
-297.94851005300927
30
0
40
1.7499999999999893
0
CIRCLE
5
110
100
AcDbEntity
8
0
100
AcDbCircle
10
-53.692837304714665
20
-304.89851005303734
30
0
40
1.749999999999998
0
LWPOLYLINE
5
111
100
AcDbEntity
8
0
100
AcDbPolyline
90
4
70
1
43
0.0
10
43.002873537017628
20
136.65480614118553
10
13.636221325485369
20
136.65480605522657
42
0.99999999999999989
10
13.636221337193746
20
132.65480605522657
10
43.002873548726008
20
132.65480614118553
42
0.99999999999999989
0
LWPOLYLINE
5
112
100
AcDbEntity
8
0
100
AcDbPolyline
90
4
70
1
43
0.0
10
-12.997126436638515
20
129.65480601532047
10
-35.99712643663851
20
129.65480601532045
42
0.99999999999999989
10
-35.99712643663851
20
125.65480601532045
10
-12.997126436638514
20
125.65480601532045
42
0.99999999999999989
0
LWPOLYLINE
5
113
100
AcDbEntity
8
0
100
AcDbPolyline
90
4
70
1
43
0.0
10
-86.363778557527354
20
132.65480601532047
42
-0.99999999999999989
10
-86.363778557527354
20
136.65480601532045
10
-56.997126436638517
20
136.65480601532045
42
-0.99999999999999989
10
-56.997126436638517
20
132.65480601532045
0
CIRCLE
5
114
100
AcDbEntity
8
0
100
AcDbCircle
10
-153.57061116751629
20
7.9999999999999289
30
0
40
2.5999999999999979
0
LWPOLYLINE
5
115
100
AcDbEntity
8
0
100
AcDbPolyline
90
4
70
1
43
0.0
10
80.866226962297091
20
150.65480625201519
42
-0.99999999999999989
10
80.866226974005485
20
146.65480625201519
10
19.13952007338553
20
146.65480607133526
42
-0.99999999999999989
10
19.139520061677153
20
150.65480607133526
0
LWPOLYLINE
5
116
100
AcDbEntity
8
0
100
AcDbPolyline
90
4
70
1
43
0.0
10
-42.997126436638517
20
118.65480601532045
42
-0.99999999999999989
10
-42.997126436638517
20
122.65480601532045
10
-13.630474295657116
20
122.65480601532045
42
-0.99999999999999989
10
-13.630474295657118
20
118.65480601532045
0
LWPOLYLINE
5
117
100
AcDbEntity
8
0
100
AcDbPolyline
90
4
70
1
43
0.0
10
43.002873577996958
20
122.65480614118552
10
13.636221325485547
20
122.65480605522654
42
0.99999999999999989
10
13.636221337193923
20
118.65480605522654
10
43.002873589705331
20
118.65480614118552
42
0.99999999999999989
0
LWPOLYLINE
5
118
100
AcDbEntity
8
0
100
AcDbPolyline
90
4
70
1
43
0.0
10
-24.849382565499837
20
101.65480601532046
42
-0.99999999999999989
10
-24.849382565499837
20
97.654806015320474
10
-75.144870398817545
20
97.654806015320474
42
-0.99999999999999989
10
-75.144870398817545
20
101.65480601532046
0
LWPOLYLINE
5
119
100
AcDbEntity
8
0
100
AcDbPolyline
90
4
70
1
43
0.0
10
-34.792475999092105
20
94.654806015320474
42
-0.99999999999999989
10
-34.792475999092105
20
90.654806015320474
10
-65.201776965225264
20
90.654806015320474
42
-0.99999999999999989
10
-65.201776965225264
20
94.654806015320474
0
LWPOLYLINE
5
120
100
AcDbEntity
8
0
100
AcDbPolyline
90
4
70
1
43
0.0
10
-86.997126436638524
20
125.65480601532046
42
-0.99999999999999989
10
-86.997126436638524
20
129.65480601532045
10
-63.997126436638524
20
129.65480601532045
42
-0.99999999999999989
10
-63.997126436638524
20
125.65480601532045
0
LWPOLYLINE
5
121
100
AcDbEntity
8
0
100
AcDbPolyline
90
4
70
1
43
0.0
10
-13.63047418452382
20
136.65480601532045
10
-42.997126436638517
20
136.65480601532045
42
0.99999999999999989
10
-42.997126436638524
20
132.65480601532045
10
-13.63047418452382
20
132.65480601532045
42
0.99999999999999989
0
LWPOLYLINE
5
122
100
AcDbEntity
8
0
100
AcDbPolyline
90
4
70
1
43
0.0
10
-24.849382561162223
20
157.65480601532039
42
-0.99999999999999989
10
-24.849382561162223
20
153.65480601532042
10
-75.144870403155167
20
153.65480601532042
42
-0.99999999999999989
10
-75.144870403155167
20
157.65480601532039
0
LWPOLYLINE
5
123
100
AcDbEntity
8
0
100
AcDbPolyline
90
4
70
1
43
0.0
10
86.369525698488886
20
136.65480626812382
42
-0.99999999999999989
10
86.36952571019728
20
132.65480626812382
10
57.002873548726008
20
132.65480618216489
42
-0.99999999999999989
10
57.002873537017635
20
136.65480618216486
0
LWPOLYLINE
5
124
100
AcDbEntity
8
0
100
AcDbPolyline
90
4
70
1
43
0.0
10
87.00287355639253
20
129.65480626997771
10
64.002873557507286
20
129.65480620265456
42
0.99999999999999989
10
64.002873569215666
20
125.65480620265453
10
87.002873568100924
20
125.6548062699777
42
0.99999999999999989
0
LWPOLYLINE
5
125
100
AcDbEntity
8
0
100
AcDbPolyline
90
4
70
1
43
0.0
10
57.002873589705338
20
118.65480618216486
42
-0.99999999999999989
10
57.002873577996958
20
122.65480618216485
10
86.369525698488673
20
122.65480626812379
42
-0.99999999999999989
10
86.369525710197067
20
118.65480626812382
0
LWPOLYLINE
5
126
100
AcDbEntity
8
0
100
AcDbPolyline
90
8
70
1
43
0.0
10
2.0028735178413131
20
161.40480601532045
10
-1.9971264821586951
20
161.40480601532045
42
0.41421356237309503
10
-3.9971264821586949
20
159.40480601532047
10
-3.9971264821586949
20
143.40480601532045
42
0.41421356237309498
10
-1.9971264821586958
20
141.40480601532045
10
2.0028735178413122
20
141.40480601532045
42
0.41421356237309509
10
4.0028735178413122
20
143.40480601532045
10
4.0028735178413122
20
159.40480601532045
42
0.41421356237309498
0
LWPOLYLINE
5
127
100
AcDbEntity
8
0
100
AcDbPolyline
90
4
70
1
43
0.0
10
34.79822298960066
20
160.65480611716981
10
65.207524057790337
20
160.65480620618072
42
0.99999999999999989
10
65.207524046081957
20
164.65480620618069
10
34.79822297789228
20
164.65480611716976
42
0.99999999999999989
0
LWPOLYLINE
5
128
100
AcDbEntity
8
0
100
AcDbPolyline
90
4
70
1
43
0.0
10
84.403422958389683
20
143.65480626236891
42
-0.99999999999999989
10
84.403422970098077
20
139.65480626236894
10
15.602324077292913
20
139.65480606098157
42
-0.99999999999999989
10
15.602324065584536
20
143.65480606098154
0
CIRCLE
5
129
100
AcDbEntity
8
0
100
AcDbCircle
10
153.57635768569961
20
8.0000000000000213
30
0
40
2.5999999999999979
0
LWPOLYLINE
5
130
100
AcDbEntity
8
0
100
AcDbPolyline
90
4
70
1
43
0.0
10
13.002873563361476
20
125.65480605337274
42
-0.99999999999999989
10
13.002873551653096
20
129.65480605337274
10
36.002873557507286
20
129.65480612069587
42
-0.99999999999999989
10
36.002873569215666
20
125.65480612069587
0
LWPOLYLINE
5
131
100
AcDbEntity
8
0
100
AcDbPolyline
90
4
70
1
43
0.0
10
19.139520074313872
20
104.6548060713352
42
-0.99999999999999989
10
19.139520062605495
20
108.65480607133519
10
80.866226961368724
20
108.65480625201512
42
-0.99999999999999989
10
80.866226973077119
20
104.65480625201513
0
LWPOLYLINE
5
132
100
AcDbEntity
8
0
100
AcDbPolyline
90
4
70
1
43
0.0
10
-65.20177701625353
20
160.65480601532042
42
-0.99999999999999989
10
-65.20177701625353
20
164.65480601532039
10
-34.792475948063853
20
164.65480601532039
42
-0.99999999999999989
10
-34.792475948063853
20
160.65480601532042
0
LWPOLYLINE
5
133
100
AcDbEntity
8
0
100
AcDbPolyline
90
4
70
1
43
0.0
10
-56.99712643663851
20
122.65480601532045
10
-86.36377866866026
20
122.65480601532045
42
0.99999999999999989
10
-86.36377866866026
20
118.65480601532045
10
-56.997126436638517
20
118.65480601532045
42
0.99999999999999989
0
LWPOLYLINE
5
134
100
AcDbEntity
8
0
100
AcDbPolyline
90
4
70
1
43
0.0
10
-19.133773032777064
20
108.65480601532045
10
-80.860479931540311
20
108.65480601532045
42
0.99999999999999989
10
-80.860479931540311
20
104.65480601532047
10
-19.133773032777064
20
104.65480601532047
42
0.99999999999999989
0
CIRCLE
5
135
100
AcDbEntity
8
0
100
AcDbCircle
10
-171.99425348181683
20
46.250000000000199
30
0
40
2.5499999999999901
0
CIRCLE
5
136
100
AcDbEntity
8
0
100
AcDbCircle
10
162.00000017945331
20
278.40480601532028
30
0
40
2.5499999999999901
0
CIRCLE
5
137
100
AcDbEntity
8
0
100
AcDbCircle
10
14.252873668005122
20
91.904806057031522
30
0
40
1.4999999999999969
0
CIRCLE
5
138
100
AcDbEntity
8
0
100
AcDbCircle
10
-85.747126436638524
20
91.904806015320418
30
0
40
1.5000000000000036
0
CIRCLE
5
139
100
AcDbEntity
8
0
100
AcDbCircle
10
-14.247126436638506
20
91.904806015320418
30
0
40
1.4999999999999969
0
CIRCLE
5
140
100
AcDbEntity
8
0
100
AcDbCircle
10
172.00000000000017
20
46.250000000000227
30
0
40
2.5499999999999901
0
CIRCLE
5
141
100
AcDbEntity
8
0
100
AcDbCircle
10
-161.99425348215871
20
-296.89851005305832
30
0
40
2.5500000000000078
0
CIRCLE
5
142
100
AcDbEntity
8
0
100
AcDbCircle
10
-14.247126436638506
20
163.40480601532045
30
0
40
1.5000000000000147
0
CIRCLE
5
143
100
AcDbEntity
8
0
100
AcDbCircle
10
-161.99425348215871
20
278.40480601532045
30
0
40
2.5500000000000078
0
CIRCLE
5
144
100
AcDbEntity
8
0
100
AcDbCircle
10
162.00000017945331
20
-296.89851005305832
30
0
40
2.5499999999999901
0
LWPOLYLINE
5
145
100
AcDbEntity
8
0
100
AcDbPolyline
90
4
70
1
43
0.0
10
75.150617432983594
20
157.65480623528506
10
24.85512959099065
20
157.65480608806541
42
0.99999999999999989
10
24.855129602699026
20
153.65480608806541
10
75.15061744469196
20
153.65480623528504
42
0.99999999999999989
0
CIRCLE
5
146
100
AcDbEntity
8
0
100
AcDbCircle
10
0.002873517841308626
20
282.90480601532045
30
0
40
2.5499999999999998
0
CIRCLE
5
147
100
AcDbEntity
8
0
100
AcDbCircle
10
-0.016044601525684217
20
-301.89851005305832
30
0
40
2.5499999999999998
0
LWPOLYLINE
5
148
100
AcDbEntity
8
0
100
AcDbPolyline
90
4
70
1
43
0.0
10
65.207523995053691
20
94.654806206180581
42
-0.99999999999999989
10
65.207524006762071
20
90.654806206180595
10
34.798223040628912
20
90.654806117169713
42
-0.99999999999999989
10
34.798223028920532
20
94.654806117169699
0
CIRCLE
5
149
100
AcDbEntity
8
0
100
AcDbCircle
10
14.252873458717836
20
163.40480605703152
30
0
40
1.5000000000000147
0
CIRCLE
5
150
100
AcDbEntity
8
0
100
AcDbCircle
10
-140.57061116751635
20
46.250000000000036
30
0
40
4.0000000000000036
0
LWPOLYLINE
5
151
100
AcDbEntity
8
0
100
AcDbPolyline
90
4
70
1
43
0.0
10
-84.39767592856127
20
139.65480601532045
42
-0.99999999999999989
10
-84.39767592856127
20
143.65480601532042
10
-15.596577035756107
20
143.65480601532042
42
-0.99999999999999989
10
-15.596577035756107
20
139.65480601532045
0
LWPOLYLINE
5
152
100
AcDbEntity
8
0
100
AcDbPolyline
90
4
70
1
43
0.0
10
15.602324077341958
20
111.65480606098151
42
-0.99999999999999989
10
15.602324065633582
20
115.6548060609815
10
84.403422958340656
20
115.65480626236882
42
-0.99999999999999989
10
84.40342297004905
20
111.65480626236884
0
CIRCLE
5
153
100
AcDbEntity
8
0
100
AcDbCircle
10
-85.747126436638524
20
163.40480601532045
30
0
40
1.4999999999999858
0
LWPOLYLINE
5
154
100
AcDbEntity
8
0
100
AcDbPolyline
90
4
70
1
43
0.0
10
-15.596577035805153
20
115.65480601532045
10
-84.397675928512243
20
115.65480601532045
42
0.99999999999999989
10
-84.397675928512243
20
111.65480601532046
10
-15.596577035805153
20
111.65480601532046
42
0.99999999999999989
0
LWPOLYLINE
5
155
100
AcDbEntity
8
0
100
AcDbPolyline
90
4
70
1
43
0.0
10
-19.133773031848726
20
150.65480601532042
42
-0.99999999999999989
10
-19.133773031848726
20
146.65480601532042
10
-80.860479932468664
20
146.65480601532042
42
-0.99999999999999989
10
-80.860479932468664
20
150.65480601532042
0
CIRCLE
5
156
100
AcDbEntity
8
0
100
AcDbCircle
10
85.752873668005151
20
91.904806266318815
30
0
40
1.5000000000000036
0
LWPOLYLINE
5
157
100
AcDbEntity
8
0
100
AcDbPolyline
90
4
70
1
43
0.0
10
24.855129607036641
20
97.654806088065342
42
-0.99999999999999989
10
24.855129595328265
20
101.65480608806533
10
75.150617428645972
20
101.65480623528495
42
-0.99999999999999989
10
75.150617440354353
20
97.654806235284966
0
CIRCLE
5
158
100
AcDbEntity
8
0
100
AcDbCircle
10
85.752873458717843
20
163.40480626631884
30
0
40
1.4999999999999858
0
CIRCLE
5
159
100
AcDbEntity
8
0
100
AcDbCircle
10
140.57635768569961
20
46.250000000000114
30
0
40
4.0000000000000036
0
LWPOLYLINE
5
160
100
AcDbEntity
8
0
100
AcDbPolyline
90
4
70
1
43
0.0
10
-181.99425348181489
20
-316.898510053037
10
-181.99425348215871
20
303.40480601532045
10
182.00000017945331
20
303.40480601532045
10
182.00000017945331
20
-316.898510053037
0
ENDSEC
0
SECTION
2
OBJECTS
0
DICTIONARY
5
C
100
AcDbDictionary
3
ACAD_GROUP
350
D
3
ACAD_MLINESTYLE
350
17
0
DICTIONARY
5
D
100
AcDbDictionary
0
DICTIONARY
5
1A
330
C
100
AcDbDictionary
0
DICTIONARY
5
17
100
AcDbDictionary
0
ENDSEC
0
EOF
