G04 MADE WITH FRITZING*
G04 WWW.FRITZING.ORG*
G04 DOUBLE SIDED*
G04 HOLES PLATED*
G04 CONTOUR ON CENTER OF CONTOUR VECTOR*
%ASAXBY*%
%FSLAX23Y23*%
%MOIN*%
%OFA0B0*%
%SFA1.0B1.0*%
%ADD10R,0.974299X0.748130X0.958299X0.732130*%
%ADD11C,0.008000*%
%ADD12R,0.001000X0.001000*%
%LNSILK1*%
G90*
G70*
G54D11*
X4Y744D02*
X970Y744D01*
X970Y4D01*
X4Y4D01*
X4Y744D01*
D02*
G54D12*
X68Y356D02*
X71Y356D01*
X65Y355D02*
X74Y355D01*
X63Y354D02*
X76Y354D01*
X61Y353D02*
X78Y353D01*
X59Y352D02*
X68Y352D01*
X71Y352D02*
X80Y352D01*
X57Y351D02*
X65Y351D01*
X73Y351D02*
X82Y351D01*
X56Y350D02*
X63Y350D01*
X75Y350D02*
X83Y350D01*
X55Y349D02*
X61Y349D01*
X77Y349D02*
X84Y349D01*
X54Y348D02*
X59Y348D01*
X79Y348D02*
X84Y348D01*
X54Y347D02*
X58Y347D01*
X81Y347D02*
X85Y347D01*
X54Y346D02*
X57Y346D01*
X82Y346D02*
X85Y346D01*
X54Y345D02*
X57Y345D01*
X82Y345D02*
X85Y345D01*
X54Y344D02*
X57Y344D01*
X82Y344D02*
X85Y344D01*
X54Y343D02*
X57Y343D01*
X82Y343D02*
X85Y343D01*
X54Y342D02*
X57Y342D01*
X82Y342D02*
X85Y342D01*
X54Y341D02*
X57Y341D01*
X82Y341D02*
X85Y341D01*
X54Y340D02*
X57Y340D01*
X82Y340D02*
X85Y340D01*
X54Y339D02*
X57Y339D01*
X82Y339D02*
X85Y339D01*
X54Y338D02*
X57Y338D01*
X82Y338D02*
X85Y338D01*
X54Y337D02*
X57Y337D01*
X82Y337D02*
X85Y337D01*
X54Y336D02*
X56Y336D01*
X83Y336D02*
X84Y336D01*
X58Y326D02*
X63Y326D01*
X56Y325D02*
X65Y325D01*
X55Y324D02*
X66Y324D01*
X54Y323D02*
X67Y323D01*
X54Y322D02*
X58Y322D01*
X63Y322D02*
X67Y322D01*
X74Y322D02*
X75Y322D01*
X54Y321D02*
X57Y321D01*
X64Y321D02*
X67Y321D01*
X73Y321D02*
X76Y321D01*
X54Y320D02*
X57Y320D01*
X64Y320D02*
X67Y320D01*
X73Y320D02*
X76Y320D01*
X54Y319D02*
X57Y319D01*
X64Y319D02*
X67Y319D01*
X73Y319D02*
X76Y319D01*
X54Y318D02*
X57Y318D01*
X64Y318D02*
X67Y318D01*
X73Y318D02*
X76Y318D01*
X54Y317D02*
X57Y317D01*
X64Y317D02*
X67Y317D01*
X73Y317D02*
X76Y317D01*
X54Y316D02*
X57Y316D01*
X64Y316D02*
X67Y316D01*
X73Y316D02*
X76Y316D01*
X54Y315D02*
X57Y315D01*
X64Y315D02*
X67Y315D01*
X73Y315D02*
X76Y315D01*
X54Y314D02*
X57Y314D01*
X64Y314D02*
X67Y314D01*
X73Y314D02*
X76Y314D01*
X54Y313D02*
X58Y313D01*
X64Y313D02*
X67Y313D01*
X73Y313D02*
X76Y313D01*
X54Y312D02*
X58Y312D01*
X64Y312D02*
X67Y312D01*
X73Y312D02*
X76Y312D01*
X55Y311D02*
X59Y311D01*
X64Y311D02*
X67Y311D01*
X72Y311D02*
X76Y311D01*
X55Y310D02*
X76Y310D01*
X54Y309D02*
X75Y309D01*
X54Y308D02*
X74Y308D01*
X54Y307D02*
X73Y307D01*
X54Y306D02*
X67Y306D01*
X55Y296D02*
X75Y296D01*
X54Y295D02*
X76Y295D01*
X54Y294D02*
X76Y294D01*
X54Y293D02*
X76Y293D01*
X67Y292D02*
X72Y292D01*
X68Y291D02*
X73Y291D01*
X69Y290D02*
X73Y290D01*
X70Y289D02*
X74Y289D01*
X71Y288D02*
X75Y288D01*
X71Y287D02*
X76Y287D01*
X72Y286D02*
X76Y286D01*
X73Y285D02*
X76Y285D01*
X73Y284D02*
X76Y284D01*
X73Y283D02*
X76Y283D01*
X73Y282D02*
X76Y282D01*
X73Y281D02*
X76Y281D01*
X72Y280D02*
X76Y280D01*
X68Y279D02*
X75Y279D01*
X68Y278D02*
X75Y278D01*
X68Y277D02*
X74Y277D01*
X69Y276D02*
X72Y276D01*
X905Y276D02*
X934Y276D01*
X904Y275D02*
X935Y275D01*
X904Y274D02*
X935Y274D01*
X904Y273D02*
X935Y273D01*
X905Y272D02*
X933Y272D01*
X918Y271D02*
X921Y271D01*
X918Y270D02*
X921Y270D01*
X918Y269D02*
X921Y269D01*
X918Y268D02*
X921Y268D01*
X918Y267D02*
X921Y267D01*
X74Y266D02*
X75Y266D01*
X918Y266D02*
X921Y266D01*
X73Y265D02*
X76Y265D01*
X918Y265D02*
X921Y265D01*
X73Y264D02*
X76Y264D01*
X918Y264D02*
X921Y264D01*
X73Y263D02*
X76Y263D01*
X918Y263D02*
X921Y263D01*
X58Y262D02*
X82Y262D01*
X918Y262D02*
X921Y262D01*
X56Y261D02*
X83Y261D01*
X918Y261D02*
X921Y261D01*
X55Y260D02*
X83Y260D01*
X918Y260D02*
X921Y260D01*
X54Y259D02*
X83Y259D01*
X904Y259D02*
X934Y259D01*
X54Y258D02*
X81Y258D01*
X904Y258D02*
X935Y258D01*
X54Y257D02*
X57Y257D01*
X73Y257D02*
X76Y257D01*
X904Y257D02*
X935Y257D01*
X54Y256D02*
X57Y256D01*
X73Y256D02*
X76Y256D01*
X904Y256D02*
X934Y256D01*
X54Y255D02*
X57Y255D01*
X73Y255D02*
X76Y255D01*
X54Y254D02*
X57Y254D01*
X73Y254D02*
X76Y254D01*
X54Y253D02*
X57Y253D01*
X73Y253D02*
X76Y253D01*
X54Y252D02*
X57Y252D01*
X73Y252D02*
X76Y252D01*
X54Y251D02*
X57Y251D01*
X73Y251D02*
X76Y251D01*
X54Y250D02*
X58Y250D01*
X73Y250D02*
X76Y250D01*
X54Y249D02*
X60Y249D01*
X73Y249D02*
X76Y249D01*
X55Y248D02*
X60Y248D01*
X74Y248D02*
X75Y248D01*
X56Y247D02*
X60Y247D01*
X58Y246D02*
X59Y246D01*
X896Y246D02*
X896Y246D01*
X921Y246D02*
X925Y246D01*
X895Y245D02*
X898Y245D01*
X918Y245D02*
X926Y245D01*
X895Y244D02*
X898Y244D01*
X916Y244D02*
X926Y244D01*
X895Y243D02*
X898Y243D01*
X914Y243D02*
X926Y243D01*
X895Y242D02*
X898Y242D01*
X912Y242D02*
X924Y242D01*
X895Y241D02*
X898Y241D01*
X909Y241D02*
X919Y241D01*
X895Y240D02*
X898Y240D01*
X907Y240D02*
X916Y240D01*
X895Y239D02*
X900Y239D01*
X906Y239D02*
X914Y239D01*
X895Y238D02*
X902Y238D01*
X905Y238D02*
X912Y238D01*
X895Y237D02*
X910Y237D01*
X897Y236D02*
X908Y236D01*
X899Y235D02*
X909Y235D01*
X901Y234D02*
X911Y234D01*
X904Y233D02*
X913Y233D01*
X906Y232D02*
X916Y232D01*
X908Y231D02*
X918Y231D01*
X911Y230D02*
X920Y230D01*
X913Y229D02*
X925Y229D01*
X915Y228D02*
X926Y228D01*
X917Y227D02*
X926Y227D01*
X920Y226D02*
X925Y226D01*
X910Y216D02*
X920Y216D01*
X907Y215D02*
X922Y215D01*
X906Y214D02*
X923Y214D01*
X905Y213D02*
X924Y213D01*
X905Y212D02*
X925Y212D01*
X904Y211D02*
X908Y211D01*
X921Y211D02*
X926Y211D01*
X904Y210D02*
X907Y210D01*
X922Y210D02*
X926Y210D01*
X904Y209D02*
X907Y209D01*
X923Y209D02*
X926Y209D01*
X903Y208D02*
X907Y208D01*
X923Y208D02*
X926Y208D01*
X903Y207D02*
X907Y207D01*
X923Y207D02*
X926Y207D01*
X55Y206D02*
X85Y206D01*
X903Y206D02*
X907Y206D01*
X923Y206D02*
X926Y206D01*
X54Y205D02*
X85Y205D01*
X904Y205D02*
X907Y205D01*
X923Y205D02*
X926Y205D01*
X54Y204D02*
X85Y204D01*
X904Y204D02*
X907Y204D01*
X922Y204D02*
X926Y204D01*
X54Y203D02*
X85Y203D01*
X904Y203D02*
X908Y203D01*
X922Y203D02*
X926Y203D01*
X71Y202D02*
X75Y202D01*
X81Y202D02*
X85Y202D01*
X904Y202D02*
X909Y202D01*
X921Y202D02*
X925Y202D01*
X71Y201D02*
X74Y201D01*
X82Y201D02*
X85Y201D01*
X905Y201D02*
X910Y201D01*
X920Y201D02*
X924Y201D01*
X71Y200D02*
X74Y200D01*
X82Y200D02*
X85Y200D01*
X906Y200D02*
X911Y200D01*
X919Y200D02*
X924Y200D01*
X71Y199D02*
X74Y199D01*
X82Y199D02*
X85Y199D01*
X904Y199D02*
X934Y199D01*
X69Y198D02*
X74Y198D01*
X82Y198D02*
X85Y198D01*
X904Y198D02*
X935Y198D01*
X67Y197D02*
X74Y197D01*
X82Y197D02*
X85Y197D01*
X904Y197D02*
X935Y197D01*
X66Y196D02*
X74Y196D01*
X82Y196D02*
X85Y196D01*
X904Y196D02*
X934Y196D01*
X64Y195D02*
X74Y195D01*
X82Y195D02*
X85Y195D01*
X62Y194D02*
X74Y194D01*
X82Y194D02*
X85Y194D01*
X60Y193D02*
X68Y193D01*
X71Y193D02*
X74Y193D01*
X82Y193D02*
X85Y193D01*
X59Y192D02*
X66Y192D01*
X71Y192D02*
X74Y192D01*
X82Y192D02*
X85Y192D01*
X57Y191D02*
X64Y191D01*
X71Y191D02*
X75Y191D01*
X82Y191D02*
X85Y191D01*
X55Y190D02*
X63Y190D01*
X72Y190D02*
X76Y190D01*
X80Y190D02*
X85Y190D01*
X54Y189D02*
X61Y189D01*
X72Y189D02*
X84Y189D01*
X54Y188D02*
X59Y188D01*
X73Y188D02*
X84Y188D01*
X54Y187D02*
X58Y187D01*
X74Y187D02*
X82Y187D01*
X54Y186D02*
X56Y186D01*
X75Y186D02*
X81Y186D01*
X905Y186D02*
X925Y186D01*
X904Y185D02*
X926Y185D01*
X904Y184D02*
X926Y184D01*
X904Y183D02*
X926Y183D01*
X905Y182D02*
X924Y182D01*
X918Y181D02*
X922Y181D01*
X919Y180D02*
X923Y180D01*
X920Y179D02*
X924Y179D01*
X920Y178D02*
X925Y178D01*
X921Y177D02*
X926Y177D01*
X59Y176D02*
X71Y176D01*
X922Y176D02*
X926Y176D01*
X57Y175D02*
X72Y175D01*
X923Y175D02*
X926Y175D01*
X56Y174D02*
X73Y174D01*
X923Y174D02*
X926Y174D01*
X55Y173D02*
X74Y173D01*
X923Y173D02*
X926Y173D01*
X55Y172D02*
X60Y172D01*
X62Y172D02*
X66Y172D01*
X70Y172D02*
X75Y172D01*
X923Y172D02*
X926Y172D01*
X54Y171D02*
X58Y171D01*
X62Y171D02*
X66Y171D01*
X72Y171D02*
X76Y171D01*
X923Y171D02*
X926Y171D01*
X54Y170D02*
X57Y170D01*
X62Y170D02*
X66Y170D01*
X72Y170D02*
X76Y170D01*
X922Y170D02*
X926Y170D01*
X54Y169D02*
X57Y169D01*
X62Y169D02*
X66Y169D01*
X73Y169D02*
X76Y169D01*
X918Y169D02*
X925Y169D01*
X54Y168D02*
X57Y168D01*
X62Y168D02*
X66Y168D01*
X73Y168D02*
X76Y168D01*
X918Y168D02*
X925Y168D01*
X54Y167D02*
X57Y167D01*
X62Y167D02*
X66Y167D01*
X73Y167D02*
X76Y167D01*
X918Y167D02*
X924Y167D01*
X54Y166D02*
X57Y166D01*
X62Y166D02*
X66Y166D01*
X73Y166D02*
X76Y166D01*
X918Y166D02*
X922Y166D01*
X54Y165D02*
X57Y165D01*
X62Y165D02*
X66Y165D01*
X73Y165D02*
X76Y165D01*
X54Y164D02*
X57Y164D01*
X62Y164D02*
X66Y164D01*
X73Y164D02*
X76Y164D01*
X54Y163D02*
X57Y163D01*
X62Y163D02*
X66Y163D01*
X73Y163D02*
X76Y163D01*
X54Y162D02*
X57Y162D01*
X62Y162D02*
X66Y162D01*
X72Y162D02*
X76Y162D01*
X54Y161D02*
X57Y161D01*
X62Y161D02*
X66Y161D01*
X72Y161D02*
X76Y161D01*
X54Y160D02*
X57Y160D01*
X62Y160D02*
X66Y160D01*
X70Y160D02*
X75Y160D01*
X54Y159D02*
X57Y159D01*
X62Y159D02*
X74Y159D01*
X54Y158D02*
X57Y158D01*
X62Y158D02*
X74Y158D01*
X54Y157D02*
X57Y157D01*
X63Y157D02*
X73Y157D01*
X54Y156D02*
X56Y156D01*
X63Y156D02*
X71Y156D01*
X908Y156D02*
X912Y156D01*
X906Y155D02*
X915Y155D01*
X905Y154D02*
X916Y154D01*
X904Y153D02*
X916Y153D01*
X904Y152D02*
X917Y152D01*
X904Y151D02*
X907Y151D01*
X914Y151D02*
X917Y151D01*
X923Y151D02*
X926Y151D01*
X903Y150D02*
X907Y150D01*
X914Y150D02*
X917Y150D01*
X923Y150D02*
X926Y150D01*
X903Y149D02*
X907Y149D01*
X914Y149D02*
X917Y149D01*
X923Y149D02*
X926Y149D01*
X903Y148D02*
X907Y148D01*
X914Y148D02*
X917Y148D01*
X923Y148D02*
X926Y148D01*
X903Y147D02*
X907Y147D01*
X914Y147D02*
X917Y147D01*
X923Y147D02*
X926Y147D01*
X70Y146D02*
X75Y146D01*
X903Y146D02*
X907Y146D01*
X914Y146D02*
X917Y146D01*
X923Y146D02*
X926Y146D01*
X68Y145D02*
X76Y145D01*
X903Y145D02*
X907Y145D01*
X914Y145D02*
X917Y145D01*
X923Y145D02*
X926Y145D01*
X66Y144D02*
X76Y144D01*
X903Y144D02*
X907Y144D01*
X914Y144D02*
X917Y144D01*
X923Y144D02*
X926Y144D01*
X63Y143D02*
X76Y143D01*
X904Y143D02*
X907Y143D01*
X914Y143D02*
X917Y143D01*
X923Y143D02*
X926Y143D01*
X61Y142D02*
X71Y142D01*
X904Y142D02*
X908Y142D01*
X914Y142D02*
X917Y142D01*
X923Y142D02*
X926Y142D01*
X59Y141D02*
X68Y141D01*
X905Y141D02*
X909Y141D01*
X914Y141D02*
X917Y141D01*
X922Y141D02*
X926Y141D01*
X57Y140D02*
X66Y140D01*
X905Y140D02*
X909Y140D01*
X913Y140D02*
X926Y140D01*
X54Y139D02*
X64Y139D01*
X904Y139D02*
X925Y139D01*
X54Y138D02*
X61Y138D01*
X904Y138D02*
X924Y138D01*
X54Y137D02*
X59Y137D01*
X904Y137D02*
X923Y137D01*
X54Y136D02*
X57Y136D01*
X904Y136D02*
X920Y136D01*
X54Y135D02*
X59Y135D01*
X54Y134D02*
X61Y134D01*
X54Y133D02*
X64Y133D01*
X57Y132D02*
X66Y132D01*
X59Y131D02*
X68Y131D01*
X61Y130D02*
X71Y130D01*
X63Y129D02*
X76Y129D01*
X66Y128D02*
X76Y128D01*
X68Y127D02*
X76Y127D01*
X70Y126D02*
X75Y126D01*
X56Y116D02*
X82Y116D01*
X55Y115D02*
X84Y115D01*
X54Y114D02*
X85Y114D01*
X54Y113D02*
X85Y113D01*
X54Y112D02*
X57Y112D01*
X82Y112D02*
X85Y112D01*
X54Y111D02*
X57Y111D01*
X82Y111D02*
X85Y111D01*
X54Y110D02*
X57Y110D01*
X82Y110D02*
X85Y110D01*
X54Y109D02*
X57Y109D01*
X82Y109D02*
X85Y109D01*
X54Y108D02*
X57Y108D01*
X82Y108D02*
X85Y108D01*
X54Y107D02*
X57Y107D01*
X82Y107D02*
X85Y107D01*
X54Y106D02*
X57Y106D01*
X82Y106D02*
X85Y106D01*
X54Y105D02*
X57Y105D01*
X82Y105D02*
X85Y105D01*
X54Y104D02*
X57Y104D01*
X82Y104D02*
X85Y104D01*
X54Y103D02*
X57Y103D01*
X82Y103D02*
X85Y103D01*
X54Y102D02*
X57Y102D01*
X82Y102D02*
X85Y102D01*
X54Y101D02*
X57Y101D01*
X82Y101D02*
X85Y101D01*
X54Y100D02*
X57Y100D01*
X82Y100D02*
X85Y100D01*
X54Y99D02*
X85Y99D01*
X54Y98D02*
X85Y98D01*
X55Y97D02*
X84Y97D01*
X56Y96D02*
X82Y96D01*
X60Y80D02*
X64Y80D01*
X59Y79D02*
X65Y79D01*
X59Y78D02*
X66Y78D01*
X59Y77D02*
X66Y77D01*
X59Y76D02*
X66Y76D01*
X59Y75D02*
X66Y75D01*
X59Y74D02*
X66Y74D01*
X59Y73D02*
X65Y73D01*
X60Y72D02*
X64Y72D01*
X55Y56D02*
X56Y56D01*
X83Y56D02*
X84Y56D01*
X54Y55D02*
X57Y55D01*
X82Y55D02*
X85Y55D01*
X54Y54D02*
X57Y54D01*
X82Y54D02*
X85Y54D01*
X54Y53D02*
X57Y53D01*
X82Y53D02*
X85Y53D01*
X54Y52D02*
X57Y52D01*
X69Y52D02*
X70Y52D01*
X82Y52D02*
X85Y52D01*
X54Y51D02*
X57Y51D01*
X68Y51D02*
X71Y51D01*
X82Y51D02*
X85Y51D01*
X54Y50D02*
X57Y50D01*
X68Y50D02*
X71Y50D01*
X82Y50D02*
X85Y50D01*
X54Y49D02*
X57Y49D01*
X68Y49D02*
X71Y49D01*
X82Y49D02*
X85Y49D01*
X54Y48D02*
X57Y48D01*
X68Y48D02*
X71Y48D01*
X82Y48D02*
X85Y48D01*
X54Y47D02*
X57Y47D01*
X68Y47D02*
X71Y47D01*
X82Y47D02*
X85Y47D01*
X54Y46D02*
X57Y46D01*
X68Y46D02*
X71Y46D01*
X82Y46D02*
X85Y46D01*
X54Y45D02*
X57Y45D01*
X68Y45D02*
X71Y45D01*
X82Y45D02*
X85Y45D01*
X54Y44D02*
X57Y44D01*
X68Y44D02*
X71Y44D01*
X82Y44D02*
X85Y44D01*
X54Y43D02*
X57Y43D01*
X68Y43D02*
X71Y43D01*
X82Y43D02*
X85Y43D01*
X54Y42D02*
X57Y42D01*
X68Y42D02*
X71Y42D01*
X82Y42D02*
X85Y42D01*
X54Y41D02*
X57Y41D01*
X67Y41D02*
X71Y41D01*
X82Y41D02*
X85Y41D01*
X54Y40D02*
X57Y40D01*
X66Y40D02*
X72Y40D01*
X82Y40D02*
X85Y40D01*
X54Y39D02*
X85Y39D01*
X54Y38D02*
X85Y38D01*
X55Y37D02*
X68Y37D01*
X70Y37D02*
X84Y37D01*
X56Y36D02*
X67Y36D01*
X72Y36D02*
X82Y36D01*
D02*
G04 End of Silk1*
M02*