G04*
G04 #@! TF.GenerationSoftware,Altium Limited,Altium Designer,18.0.7 (293)*
G04*
G04 Layer_Physical_Order=2*
G04 Layer_Color=16711680*
%FSLAX25Y25*%
%MOIN*%
G70*
G01*
G75*
%ADD11C,0.01000*%
%ADD19C,0.02000*%
%ADD20C,0.15748*%
%ADD21C,0.05000*%
%ADD22R,0.09055X0.04331*%
%ADD23R,0.09055X0.03347*%
D11*
X391600Y377360D02*
X391613Y377373D01*
X391600Y377360D02*
X391613Y377373D01*
X391600Y376545D02*
Y377360D01*
Y376200D02*
Y376545D01*
Y379373D02*
Y381400D01*
Y379373D02*
Y381400D01*
Y379373D02*
X391613Y379386D01*
Y381239D01*
X371987Y375716D02*
Y376061D01*
D19*
X372047Y332053D02*
Y376260D01*
X372126Y331974D02*
X373268Y330832D01*
X380500Y323600D01*
X372047Y376260D02*
Y381299D01*
X431102Y387402D02*
X431900Y388200D01*
X431102Y376260D02*
Y387402D01*
X431313Y387613D02*
X431900Y388200D01*
X431300Y381226D02*
X431313Y381239D01*
X431400Y375900D02*
Y376987D01*
X431313Y377074D02*
X431400Y376987D01*
X431300Y377061D02*
X431313Y377074D01*
X431300Y376200D02*
Y377061D01*
X411513Y372540D02*
Y381239D01*
Y379886D02*
Y381239D01*
X411500Y361400D02*
Y372527D01*
Y361400D02*
X414900Y358000D01*
X417100D01*
X391600Y373027D02*
Y377360D01*
X391613Y377373D02*
Y381239D01*
X391600Y348000D02*
Y373027D01*
Y348000D02*
X395700Y343900D01*
D20*
X324803Y354331D02*
D03*
D21*
X431900Y388200D02*
D03*
X417100Y358000D02*
D03*
X395700Y343900D02*
D03*
X380500Y323600D02*
D03*
D22*
X431102Y381299D02*
D03*
X411417D02*
D03*
X391732D02*
D03*
X372047D02*
D03*
D23*
X431102Y376260D02*
D03*
X411417D02*
D03*
X391732D02*
D03*
X372047D02*
D03*
M02*
