G04*
G04 #@! TF.GenerationSoftware,Altium Limited,Altium Designer,18.0.7 (293)*
G04*
G04 Layer_Physical_Order=1*
G04 Layer_Color=255*
%FSLAX25Y25*%
%MOIN*%
G70*
G01*
G75*
%ADD11C,0.01000*%
%ADD13R,0.09055X0.13386*%
%ADD14R,0.33071X0.09843*%
%ADD19C,0.02000*%
%ADD20C,0.15748*%
%ADD21C,0.05000*%
G36*
X460236Y297598D02*
D01*
D02*
G37*
G36*
X449536Y313848D02*
D01*
D02*
G37*
G36*
X460236Y318858D02*
D01*
D02*
G37*
G36*
X449536Y335108D02*
D01*
D02*
G37*
G36*
X460236Y340118D02*
D01*
D02*
G37*
G36*
X449536Y356368D02*
D01*
D02*
G37*
G36*
X460236Y361378D02*
D01*
D02*
G37*
G36*
X449536Y377628D02*
D01*
D02*
G37*
D11*
X380500Y323600D02*
X380700Y323400D01*
X395700Y343900D02*
X396000D01*
D13*
X467917Y386221D02*
D03*
Y364961D02*
D03*
Y343701D02*
D03*
Y322441D02*
D03*
D14*
X455905Y386221D02*
D03*
Y364961D02*
D03*
Y343701D02*
D03*
Y322441D02*
D03*
D19*
X436850Y387835D02*
X438465Y386221D01*
X455905D01*
X380500Y323600D02*
X382368Y321732D01*
X467917D01*
X396000Y343900D02*
X467228D01*
X431260Y363760D02*
X432697Y365197D01*
X467917D01*
X436485Y388200D02*
X437756Y386929D01*
X467917D01*
X431900Y388200D02*
X436485D01*
X417100Y358000D02*
X425500D01*
X431400Y363900D01*
D20*
X324803Y354331D02*
D03*
D21*
X431900Y388200D02*
D03*
X417100Y358000D02*
D03*
X395700Y343900D02*
D03*
X380500Y323600D02*
D03*
M02*
