0
SECTION
2
HEADER
9
$INSUNITS
70
4
9
$ACADVER
1
AC1014
9
$HANDSEED
5
FFFF
0
ENDSEC
0
SECTION
2
TABLES
0
TABLE
2
VPORT
5
8
100
AcDbSymbolTable
0
ENDTAB
0
TABLE
2
LTYPE
5
5
100
AcDbSymbolTable
0
LTYPE
5
14
100
AcDbSymbolTableRecord
100
AcDbLinetypeTableRecord
2
BYBLOCK
70
0
0
LTYPE
5
15
100
AcDbSymbolTableRecord
100
AcDbLinetypeTableRecord
2
BYLAYER
70
0
0
ENDTAB
0
TABLE
2
LAYER
5
2
100
AcDbSymbolTable
70
2
0
LAYER
5
50
100
AcDbSymbolTableRecord
100
AcDbLayerTableRecord
2
0
70
0
6
CONTINUOUS
0
ENDTAB
0
TABLE
2
STYLE
5
3
100
AcDbSymbolTable
70
1
0
STYLE
5
11
100
AcDbSymbolTableRecord
100
AcDbTextStyleTableRecord
2
STANDARD
70
0
0
ENDTAB
0
TABLE
2
VIEW
5
6
100
AcDbSymbolTable
70
0
0
ENDTAB
0
TABLE
2
UCS
5
7
100
AcDbSymbolTable
70
0
0
ENDTAB
0
TABLE
2
APPID
5
9
100
AcDbSymbolTable
70
2
0
APPID
5
12
100
AcDbSymbolTableRecord
100
AcDbRegAppTableRecord
2
ACAD
70
0
0
ENDTAB
0
TABLE
2
DIMSTYLE
5
A
100
AcDbSymbolTable
70
1
0
ENDTAB
0
TABLE
2
BLOCK_RECORD
5
1
100
AcDbSymbolTable
70
1
0
BLOCK_RECORD
5
1F
100
AcDbSymbolTableRecord
100
AcDbBlockTableRecord
2
*MODEL_SPACE
0
BLOCK_RECORD
5
1B
100
AcDbSymbolTableRecord
100
AcDbBlockTableRecord
2
*PAPER_SPACE
0
ENDTAB
0
ENDSEC
0
SECTION
2
BLOCKS
0
BLOCK
5
20
100
AcDbEntity
100
AcDbBlockBegin
2
*MODEL_SPACE
0
ENDBLK
5
21
100
AcDbEntity
100
AcDbBlockEnd
0
BLOCK
5
1C
100
AcDbEntity
100
AcDbBlockBegin
2
*PAPER_SPACE
0
ENDBLK
5
1D
100
AcDbEntity
100
AcDbBlockEnd
0
ENDSEC
0
SECTION
2
ENTITIES
0
LWPOLYLINE
5
100
100
AcDbEntity
8
0
100
AcDbPolyline
90
8
70
1
43
0.0
10
127.6091223967365
20
-280.39851005300477
10
127.60912239673652
20
-304.39851005299414
42
-0.41421356237309503
10
123.90912239673652
20
-308.09851005299413
10
103.90912239674762
20
-308.09851005299413
42
-0.41421356237309503
10
100.2091223967476
20
-304.39851005299408
10
100.2091223967476
20
-280.39851005299374
42
-0.41421356237309503
10
103.90912239673656
20
-276.69851005300478
10
123.90912239673648
20
-276.69851005300478
42
-0.41421356237309503
0
CIRCLE
5
101
100
AcDbEntity
8
0
100
AcDbCircle
10
131.99425348182871
20
-291.89851005300926
30
0
40
1.7499999999999893
0
CIRCLE
5
102
100
AcDbEntity
8
0
100
AcDbCircle
10
95.692837304718012
20
-291.89851005298914
30
0
40
1.7499999999999893
0
CIRCLE
5
103
100
AcDbEntity
8
0
100
AcDbCircle
10
-153.57635768569961
20
13.500000000000016
30
0
40
1.5499999999999936
0
CIRCLE
5
104
100
AcDbEntity
8
0
100
AcDbCircle
10
140.57061116751635
20
46.250000000000036
30
0
40
4.0000000000000036
0
CIRCLE
5
105
100
AcDbEntity
8
0
100
AcDbCircle
10
153.57061116751629
20
13.499999999999925
30
0
40
1.5499999999999936
0
CIRCLE
5
106
100
AcDbEntity
8
0
100
AcDbCircle
10
175.11712648215871
20
92.90480601532056
30
0
40
1.9999999999999929
0
CIRCLE
5
107
100
AcDbEntity
8
0
100
AcDbCircle
10
-140.57635768569961
20
46.250000000000114
30
0
40
4.0000000000000036
0
CIRCLE
5
108
100
AcDbEntity
8
0
100
AcDbCircle
10
161.99425348215871
20
277.90480601532045
30
0
40
2.5500000000000078
0
CIRCLE
5
109
100
AcDbEntity
8
0
100
AcDbCircle
10
-52.002873517841302
20
277.90480601532045
30
0
40
2.0000000000000018
0
CIRCLE
5
110
100
AcDbEntity
8
0
100
AcDbCircle
10
175.11712648215871
20
277.90480601532056
30
0
40
1.9999999999999929
0
CIRCLE
5
111
100
AcDbEntity
8
0
100
AcDbCircle
10
-71.122873517841313
20
92.904806015320389
30
0
40
2.0000000000000018
0
CIRCLE
5
112
100
AcDbEntity
8
0
100
AcDbCircle
10
-52.002873517841302
20
92.904806015320418
30
0
40
2.0000000000000018
0
CIRCLE
5
113
100
AcDbEntity
8
0
100
AcDbCircle
10
171.99425348181683
20
46.250000000000199
30
0
40
2.5499999999999901
0
CIRCLE
5
114
100
AcDbEntity
8
0
100
AcDbCircle
10
-175.1228735178413
20
92.904806015320275
30
0
40
1.9999999999999929
0
CIRCLE
5
115
100
AcDbEntity
8
0
100
AcDbCircle
10
51.997126482158691
20
92.904806015320503
30
0
40
2.0000000000000107
0
CIRCLE
5
116
100
AcDbEntity
8
0
100
AcDbCircle
10
71.117126482158696
20
92.90480601532046
30
0
40
1.9999999999999929
0
CIRCLE
5
117
100
AcDbEntity
8
0
100
AcDbCircle
10
0.016044601525684217
20
-296.89851005305832
30
0
40
2.5499999999999998
0
CIRCLE
5
118
100
AcDbEntity
8
0
100
AcDbCircle
10
-0.002873517841308626
20
277.90480601532045
30
0
40
2.5499999999999998
0
CIRCLE
5
119
100
AcDbEntity
8
0
100
AcDbCircle
10
-162.00000017945331
20
-296.89851005305832
30
0
40
2.5499999999999901
0
CIRCLE
5
120
100
AcDbEntity
8
0
100
AcDbCircle
10
-71.122873517841313
20
277.90480601532039
30
0
40
2.0000000000000018
0
CIRCLE
5
121
100
AcDbEntity
8
0
100
AcDbCircle
10
51.997126482158691
20
277.9048060153205
30
0
40
2.0000000000000107
0
CIRCLE
5
122
100
AcDbEntity
8
0
100
AcDbCircle
10
-175.1228735178413
20
277.90480601532028
30
0
40
1.9999999999999929
0
CIRCLE
5
123
100
AcDbEntity
8
0
100
AcDbCircle
10
-172.00000000000017
20
46.250000000000227
30
0
40
2.5499999999999901
0
CIRCLE
5
124
100
AcDbEntity
8
0
100
AcDbCircle
10
71.117126482158696
20
277.90480601532045
30
0
40
1.9999999999999929
0
CIRCLE
5
125
100
AcDbEntity
8
0
100
AcDbCircle
10
-161.98054184125243
20
277.90480601532045
30
0
40
2.5499999999999901
0
CIRCLE
5
126
100
AcDbEntity
8
0
100
AcDbCircle
10
161.99425348215871
20
-296.89851005305832
30
0
40
2.5500000000000078
0
LWPOLYLINE
5
127
100
AcDbEntity
8
0
100
AcDbPolyline
90
4
70
1
43
0.0
10
181.99425348181489
20
-316.89851005303973
10
-182.00000017945331
20
-316.89851005305798
10
-182.00000017945331
20
303.4048060153205
10
181.99425348215871
20
303.40480601532045
0
ENDSEC
0
SECTION
2
OBJECTS
0
DICTIONARY
5
C
100
AcDbDictionary
3
ACAD_GROUP
350
D
3
ACAD_MLINESTYLE
350
17
0
DICTIONARY
5
D
100
AcDbDictionary
0
DICTIONARY
5
1A
330
C
100
AcDbDictionary
0
DICTIONARY
5
17
100
AcDbDictionary
0
ENDSEC
0
EOF
