0
SECTION
2
HEADER
9
$INSUNITS
70
4
9
$ACADVER
1
AC1014
9
$HANDSEED
5
FFFF
0
ENDSEC
0
SECTION
2
TABLES
0
TABLE
2
VPORT
5
8
100
AcDbSymbolTable
0
ENDTAB
0
TABLE
2
LTYPE
5
5
100
AcDbSymbolTable
0
LTYPE
5
14
100
AcDbSymbolTableRecord
100
AcDbLinetypeTableRecord
2
BYBLOCK
70
0
0
LTYPE
5
15
100
AcDbSymbolTableRecord
100
AcDbLinetypeTableRecord
2
BYLAYER
70
0
0
ENDTAB
0
TABLE
2
LAYER
5
2
100
AcDbSymbolTable
70
2
0
LAYER
5
50
100
AcDbSymbolTableRecord
100
AcDbLayerTableRecord
2
0
70
0
6
CONTINUOUS
0
ENDTAB
0
TABLE
2
STYLE
5
3
100
AcDbSymbolTable
70
1
0
STYLE
5
11
100
AcDbSymbolTableRecord
100
AcDbTextStyleTableRecord
2
STANDARD
70
0
0
ENDTAB
0
TABLE
2
VIEW
5
6
100
AcDbSymbolTable
70
0
0
ENDTAB
0
TABLE
2
UCS
5
7
100
AcDbSymbolTable
70
0
0
ENDTAB
0
TABLE
2
APPID
5
9
100
AcDbSymbolTable
70
2
0
APPID
5
12
100
AcDbSymbolTableRecord
100
AcDbRegAppTableRecord
2
ACAD
70
0
0
ENDTAB
0
TABLE
2
DIMSTYLE
5
A
100
AcDbSymbolTable
70
1
0
ENDTAB
0
TABLE
2
BLOCK_RECORD
5
1
100
AcDbSymbolTable
70
1
0
BLOCK_RECORD
5
1F
100
AcDbSymbolTableRecord
100
AcDbBlockTableRecord
2
*MODEL_SPACE
0
BLOCK_RECORD
5
1B
100
AcDbSymbolTableRecord
100
AcDbBlockTableRecord
2
*PAPER_SPACE
0
ENDTAB
0
ENDSEC
0
SECTION
2
BLOCKS
0
BLOCK
5
20
100
AcDbEntity
100
AcDbBlockBegin
2
*MODEL_SPACE
0
ENDBLK
5
21
100
AcDbEntity
100
AcDbBlockEnd
0
BLOCK
5
1C
100
AcDbEntity
100
AcDbBlockBegin
2
*PAPER_SPACE
0
ENDBLK
5
1D
100
AcDbEntity
100
AcDbBlockEnd
0
ENDSEC
0
SECTION
2
ENTITIES
0
LINE
5
100
100
AcDbEntity
8
0
100
AcDbLine
10
-174.14983011004182
20
251.40480601532047
30
0
11
-116.15017690942733
21
251.40480601532047
31
8.4703294725430034e-21
0
ARC
5
101
100
AcDbEntity
8
0
100
AcDbCircle
10
-116.15017690942734
20
246.40480601532047
30
0
40
4.9999999999989164
100
AcDbArc
50
0
51
89.999999999999844
0
LINE
5
102
100
AcDbEntity
8
0
100
AcDbLine
10
-111.15017690942842
20
246.40480601532047
30
-5.2939559203382233e-22
11
-111.15017690942736
21
138.40480601532047
31
0
0
ARC
5
103
100
AcDbEntity
8
0
100
AcDbCircle
10
-116.15017690942736
20
138.40480601532047
30
0
40
5.0000000000010836
100
AcDbArc
50
-90
51
0
0
LINE
5
104
100
AcDbEntity
8
0
100
AcDbLine
10
-116.15017690942736
20
133.40480601531939
30
-5.8774717541139996e-38
11
-174.14983011004182
21
133.40480601532045
31
8.4703294725430034e-21
0
LINE
5
105
100
AcDbEntity
8
0
100
AcDbLine
10
-174.14983011004182
20
133.40480601532045
30
0
11
-174.14983011004182
21
-316.898510053037
31
0
0
LINE
5
106
100
AcDbEntity
8
0
100
AcDbLine
10
-174.14983011004182
20
-316.898510053037
30
0
11
182.50017047094809
21
-316.898510053037
31
-6.7762635780344027e-20
0
LINE
5
107
100
AcDbEntity
8
0
100
AcDbLine
10
182.50017047094809
20
-316.898510053037
30
-6.7762635780344027e-20
11
182.50017047094812
21
303.40480601532045
31
0
0
LINE
5
108
100
AcDbEntity
8
0
100
AcDbLine
10
182.50017047094812
20
303.40480601532045
30
0
11
-174.14983011004182
21
303.40480601532045
31
-3.5527136788005009e-14
0
LINE
5
109
100
AcDbEntity
8
0
100
AcDbLine
10
-174.14983011004182
20
303.40480601532045
30
-3.5527136788005009e-14
11
-174.14983011004182
21
251.40480601532039
31
0
0
CIRCLE
5
110
100
AcDbEntity
8
0
100
AcDbCircle
10
157.00017047095918
20
-296.898510053037
30
0
40
2.5500000000000078
0
CIRCLE
5
111
100
AcDbEntity
8
0
100
AcDbCircle
10
-154.14983011005057
20
-296.898510053037
30
0
40
2.5500000000000078
0
CIRCLE
5
112
100
AcDbEntity
8
0
100
AcDbCircle
10
157.00017047095918
20
277.90480601532045
30
0
40
2.5500000000000078
0
CIRCLE
5
113
100
AcDbEntity
8
0
100
AcDbCircle
10
-159.14983011004838
20
282.90480601532045
30
-3.5527136788005009e-14
40
2.5500000000000078
0
LWPOLYLINE
5
114
100
AcDbEntity
8
0
100
AcDbPolyline
90
4
70
1
43
0.0
10
-123.14983011006403
20
87.404806015320474
42
-0.99999999999999989
10
-123.14983011006406
20
83.404806015320489
10
-164.14983011004611
20
83.404806015320474
42
-0.99999999999999989
10
-164.1498301100462
20
87.404806015320446
0
CIRCLE
5
115
100
AcDbEntity
8
0
100
AcDbCircle
10
163.75017047095628
20
45.750000000000085
30
-3.5527136788005009e-14
40
2.5499999999999901
0
LWPOLYLINE
5
116
100
AcDbEntity
8
0
100
AcDbPolyline
90
4
70
1
43
0.0
10
-123.14983011006403
20
99.40480601532046
42
-0.99999999999999989
10
-123.14983011006406
20
95.404806015320474
10
-164.14983011004611
20
95.40480601532046
42
-0.99999999999999989
10
-164.1498301100462
20
99.404806015320446
0
CIRCLE
5
117
100
AcDbEntity
8
0
100
AcDbCircle
10
40.400162915330242
20
-286.898510053037
30
0
40
2.5499999999999989
0
CIRCLE
5
118
100
AcDbEntity
8
0
100
AcDbCircle
10
2.2501629153469671
20
25.001489946963027
30
0
40
2.5499999999999998
0
CIRCLE
5
119
100
AcDbEntity
8
0
100
AcDbCircle
10
34.500170471012567
20
277.90480601532045
30
0
40
2.5499999999999989
0
CIRCLE
5
120
100
AcDbEntity
8
0
100
AcDbCircle
10
-148.14983011005739
20
26.400000000000038
30
0
40
2.5500000000000078
0
LWPOLYLINE
5
121
100
AcDbEntity
8
0
100
AcDbPolyline
90
4
70
1
43
0.0
10
-123.14983011006403
20
105.40480601532042
42
-0.99999999999999989
10
-123.14983011006406
20
101.40480601532047
10
-164.14983011004611
20
101.40480601532046
42
-0.99999999999999989
10
-164.1498301100462
20
105.40480601532045
0
CIRCLE
5
122
100
AcDbEntity
8
0
100
AcDbCircle
10
-15.899837084645231
20
-286.898510053037
30
0
40
2.5499999999999989
0
LWPOLYLINE
5
123
100
AcDbEntity
8
0
100
AcDbPolyline
90
4
70
1
43
0.0
10
-164.14983011004611
20
89.40480601532046
42
-0.99999999999999989
10
-164.1498301100462
20
93.404806015320446
10
-123.14983011006403
20
93.404806015320432
42
-0.99999999999999989
10
-123.14983011006406
20
89.404806015320474
0
CIRCLE
5
124
100
AcDbEntity
8
0
100
AcDbCircle
10
57.250162915323003
20
25.001489946963016
30
0
40
2.5499999999999989
0
CIRCLE
5
125
100
AcDbEntity
8
0
100
AcDbCircle
10
-149.15017690942736
20
261.40480601532045
30
0
40
2.7499999999999862
0
CIRCLE
5
126
100
AcDbEntity
8
0
100
AcDbCircle
10
-149.15017690942736
20
123.40480601532047
30
0
40
2.750000000000004
0
LINE
5
127
100
AcDbEntity
8
0
100
AcDbLine
10
-174.14982497548891
20
133.40480601532045
30
0
11
-174.14982497548891
21
-316.898510053037
31
0
0
LWPOLYLINE
5
128
100
AcDbEntity
8
0
100
AcDbPolyline
90
4
70
1
43
0.0
10
-123.14982497551114
20
105.40480601532002
42
-0.99999999999999989
10
-123.14982497551114
20
101.40480601532089
10
-164.14982497549329
20
101.40480601532047
42
-0.99999999999999989
10
-164.14982497549329
20
105.40480601532046
0
LWPOLYLINE
5
129
100
AcDbEntity
8
0
100
AcDbPolyline
90
4
70
1
43
0.0
10
-123.14982497551114
20
99.40480601532002
42
-0.99999999999999989
10
-123.14982497551114
20
95.404806015320887
10
-164.14982497549329
20
95.404806015320474
42
-0.99999999999999989
10
-164.14982497549329
20
99.40480601532046
0
LWPOLYLINE
5
130
100
AcDbEntity
8
0
100
AcDbPolyline
90
4
70
1
43
0.0
10
-123.14982497551114
20
93.40480601532002
42
-0.99999999999999989
10
-123.14982497551114
20
89.404806015320887
10
-164.14982497549323
20
89.404806015320901
42
-0.99999999999999989
10
-164.14982497549332
20
93.404806015320048
0
LWPOLYLINE
5
131
100
AcDbEntity
8
0
100
AcDbPolyline
90
4
70
1
43
0.0
10
-123.14982497551114
20
87.40480601532002
42
-0.99999999999999989
10
-123.14982497551114
20
83.404806015320901
10
-164.14982497549329
20
83.404806015320489
42
-0.99999999999999989
10
-164.14982497549329
20
87.404806015320474
0
CIRCLE
5
132
100
AcDbEntity
8
0
100
AcDbCircle
10
157.00017560551208
20
-296.898510053037
30
-3.5527136788005009e-14
40
2.5499999999988971
0
CIRCLE
5
133
100
AcDbEntity
8
0
100
AcDbCircle
10
-154.14982497549767
20
-296.898510053037
30
-3.5527136788005009e-14
40
2.5499999999988971
0
CIRCLE
5
134
100
AcDbEntity
8
0
100
AcDbCircle
10
157.00017560551208
20
277.90480601532045
30
-3.5527136788005009e-14
40
2.5499999999988971
0
CIRCLE
5
135
100
AcDbEntity
8
0
100
AcDbCircle
10
-159.14982497549548
20
282.90480601532045
30
-3.5527136788005009e-14
40
2.5499999999988971
0
CIRCLE
5
136
100
AcDbEntity
8
0
100
AcDbCircle
10
163.75017560550918
20
45.750000000000085
30
-3.5527136788005009e-14
40
2.5499999999988794
0
CIRCLE
5
137
100
AcDbEntity
8
0
100
AcDbCircle
10
40.400168049883135
20
-286.898510053037
30
0
40
2.5499999999988883
0
CIRCLE
5
138
100
AcDbEntity
8
0
100
AcDbCircle
10
2.2501680498998677
20
25.001489946963027
30
0
40
2.5499999999988892
0
CIRCLE
5
139
100
AcDbEntity
8
0
100
AcDbCircle
10
34.500175605565467
20
277.90480601532045
30
0
40
2.5499999999988883
0
CIRCLE
5
140
100
AcDbEntity
8
0
100
AcDbCircle
10
-148.14982497550452
20
26.400000000000038
30
0
40
2.5499999999988971
0
CIRCLE
5
141
100
AcDbEntity
8
0
100
AcDbCircle
10
-15.899831950092331
20
-286.898510053037
30
0
40
2.5499999999988883
0
CIRCLE
5
142
100
AcDbEntity
8
0
100
AcDbCircle
10
57.25016804987591
20
25.001489946963016
30
0
40
2.5499999999988883
0
LINE
5
143
100
AcDbEntity
8
0
100
AcDbLine
10
182.50017560550103
20
303.40480601532045
30
0
11
-174.14982497548891
21
303.40480601532045
31
-2.9253129866374517e-15
0
LINE
5
144
100
AcDbEntity
8
0
100
AcDbLine
10
182.50017560550103
20
-316.898510053037
30
0
11
182.50017560550103
21
303.40480601532045
31
0
0
LINE
5
145
100
AcDbEntity
8
0
100
AcDbLine
10
-174.14982497548891
20
-316.898510053037
30
0
11
182.50017560550103
21
-316.898510053037
31
0
0
CIRCLE
5
146
100
AcDbEntity
8
0
100
AcDbCircle
10
-91.149824974834829
20
-53.285193984679573
30
-3.5527136788005009e-14
40
2.5999999999999979
0
CIRCLE
5
147
100
AcDbEntity
8
0
100
AcDbCircle
10
-41.149824974834843
20
-53.285193984679573
30
-3.5527136788005009e-14
40
2.6000000000000068
0
CIRCLE
5
148
100
AcDbEntity
8
0
100
AcDbCircle
10
-160.14983011004796
20
-139.19951005303699
30
0
40
2.5500000000000078
0
CIRCLE
5
149
100
AcDbEntity
8
0
100
AcDbCircle
10
-160.14982497549508
20
-139.19951005303699
30
0
40
2.5499999999988971
0
ARC
5
150
100
AcDbEntity
8
0
100
AcDbCircle
10
-116.15017691008141
20
246.40480601532047
30
0
40
5.0000000000000178
100
AcDbArc
50
0
51
89.999999999999844
0
LINE
5
151
100
AcDbEntity
8
0
100
AcDbLine
10
-116.1501769100814
20
251.40480601532047
30
-3.7433921305746345e-22
11
-174.14982497548894
21
251.40480601532047
31
-6.8499215631276367e-15
0
ARC
5
152
100
AcDbEntity
8
0
100
AcDbCircle
10
-116.15017691008143
20
138.40480601532047
30
0
40
5.0000000000000178
100
AcDbArc
50
-89.999999999999844
51
0
0
LINE
5
153
100
AcDbEntity
8
0
100
AcDbLine
10
-111.15017691008141
20
138.40480601532047
30
0
11
-111.1501769100814
21
246.40480601532047
31
3.7433921305746514e-22
0
LINE
5
154
100
AcDbEntity
8
0
100
AcDbLine
10
-174.14982497548891
20
133.40480601532045
30
0
11
-116.15017691008141
21
133.40480601532047
31
0
0
CIRCLE
5
155
100
AcDbEntity
8
0
100
AcDbCircle
10
-149.15017691008143
20
261.40480601532045
30
0
40
2.7499999999999862
0
CIRCLE
5
156
100
AcDbEntity
8
0
100
AcDbCircle
10
-91.149824975488869
20
-53.285193984679573
30
-3.5527136788005009e-14
40
2.5999999999999979
0
CIRCLE
5
157
100
AcDbEntity
8
0
100
AcDbCircle
10
-149.15017691008143
20
123.40480601532047
30
0
40
2.7500000000000044
0
CIRCLE
5
158
100
AcDbEntity
8
0
100
AcDbCircle
10
-41.149824975488883
20
-53.285193984679573
30
-3.5527136788005009e-14
40
2.6000000000000068
0
LINE
5
159
100
AcDbEntity
8
0
100
AcDbLine
10
-174.14982497548891
20
303.40480601532045
30
-2.9253129866374517e-15
11
-174.14982497548894
21
251.40480601532047
31
-6.8499215631276367e-15
0
LWPOLYLINE
5
160
100
AcDbEntity
8
0
100
AcDbPolyline
90
4
70
1
43
0.0
10
-164.1498301100462
20
77.404806015320474
10
-123.14983011006404
20
77.404806015320474
42
0.99999999999999989
10
-123.14983011006404
20
81.404806015320474
10
-164.1498301100462
20
81.404806015320474
42
0.99999999999999989
0
LWPOLYLINE
5
161
100
AcDbEntity
8
0
100
AcDbPolyline
90
4
70
1
43
0.0
10
-123.14982497551114
20
81.404806015320474
10
-164.14982497549329
20
81.404806015320474
42
0.99999999999999989
10
-164.14982497549329
20
77.404806015320474
10
-123.14982497551114
20
77.404806015320474
42
0.99999999999999989
0
LWPOLYLINE
5
162
100
AcDbEntity
8
0
100
AcDbPolyline
90
8
70
1
43
0.0
10
76.995832712503486
20
238.27480601532045
10
76.995832712503486
20
227.27480601532045
42
0.41421356237309503
10
78.995832712503486
20
225.27480601532045
10
80.9958327125035
20
225.27480601532045
42
0.41421356237309503
10
82.995832712503486
20
227.27480601532045
10
82.995832712503486
20
238.27480601532045
42
0.41421356237309503
10
80.9958327125035
20
240.27480601532045
10
78.995832712503486
20
240.27480601532045
42
0.41421356237309503
0
LWPOLYLINE
5
163
100
AcDbEntity
8
0
100
AcDbPolyline
90
4
70
1
43
0.0
10
-3.7446513783949253
20
201.40480601532047
10
18.25534862160508
20
201.40480601532047
42
0.99999999999999989
10
18.255348621605087
20
205.40480601532045
10
-3.7446513783949218
20
205.40480601532045
42
0.99999999999999989
0
LWPOLYLINE
5
164
100
AcDbEntity
8
0
100
AcDbPolyline
90
4
70
1
43
0.0
10
157.48631680340196
20
226.40480601532045
10
97.986316803401877
20
226.40480601532045
42
0.99999999999999989
10
97.986316803401905
20
222.40480601532045
10
157.48631680340191
20
222.40480601532045
42
0.99999999999999989
0
LWPOLYLINE
5
165
100
AcDbEntity
8
0
100
AcDbPolyline
90
4
70
1
43
0.0
10
114.98631680340189
20
236.40480601532045
10
140.48631680340191
20
236.40480601532045
42
0.99999999999999989
10
140.48631680340191
20
240.40480601532042
10
114.98631680340188
20
240.40480601532042
42
0.99999999999999989
0
LWPOLYLINE
5
166
100
AcDbEntity
8
0
100
AcDbPolyline
90
4
70
1
43
0.0
10
68.25534862160508
20
198.40480601532047
10
39.255348621605094
20
198.40480601532047
42
0.99999999999999989
10
39.255348621605073
20
194.40480601532047
10
68.25534862160508
20
194.40480601532047
42
0.99999999999999989
0
LWPOLYLINE
5
167
100
AcDbEntity
8
0
100
AcDbPolyline
90
4
70
1
43
0.0
10
163.73631680340191
20
191.40480601532047
10
93.736316803401905
20
191.40480601532047
42
0.99999999999999989
10
93.736316803401934
20
187.4048060153205
10
163.73631680340193
20
187.4048060153205
42
0.99999999999999989
0
CIRCLE
5
168
100
AcDbEntity
8
0
100
AcDbCircle
10
161.60631680340191
20
237.27480601532048
30
0
40
1.4999999999999858
0
CIRCLE
5
169
100
AcDbEntity
8
0
100
AcDbCircle
10
66.125348621605085
20
169.53480601532047
30
0
40
1.5000000000000036
0
LWPOLYLINE
5
170
100
AcDbEntity
8
0
100
AcDbPolyline
90
4
70
1
43
0.0
10
134.73631680340193
20
208.40480601532047
10
163.08631680340198
20
208.40480601532047
42
0.99999999999999989
10
163.08631680340193
20
212.40480601532045
10
134.73631680340188
20
212.40480601532045
42
0.99999999999999989
0
LWPOLYLINE
5
171
100
AcDbEntity
8
0
100
AcDbPolyline
90
4
70
1
43
0.0
10
113.73631680340191
20
205.40480601532045
10
91.736316803401905
20
205.40480601532045
42
0.99999999999999989
10
91.736316803401877
20
201.40480601532047
10
113.73631680340188
20
201.40480601532047
42
0.99999999999999989
0
LWPOLYLINE
5
172
100
AcDbEntity
8
0
100
AcDbPolyline
90
4
70
1
43
0.0
10
45.005348621605094
20
240.40480601532042
10
19.505348621605076
20
240.40480601532042
42
0.99999999999999989
10
19.505348621605076
20
236.40480601532045
10
45.005348621605094
20
236.40480601532045
42
0.99999999999999989
0
LWPOLYLINE
5
173
100
AcDbEntity
8
0
100
AcDbPolyline
90
4
70
1
43
0.0
10
2.5053486216050747
20
222.40480601532045
10
62.005348621605094
20
222.40480601532045
42
0.99999999999999989
10
62.005348621605094
20
226.40480601532045
10
2.5053486216050769
20
226.40480601532045
42
0.99999999999999989
0
LWPOLYLINE
5
174
100
AcDbEntity
8
0
100
AcDbPolyline
90
4
70
1
43
0.0
10
134.73631680340193
20
194.40480601532047
10
163.73631680340193
20
194.40480601532047
42
0.99999999999999989
10
163.73631680340191
20
198.40480601532047
10
134.73631680340193
20
198.40480601532047
42
0.99999999999999989
0
LWPOLYLINE
5
175
100
AcDbEntity
8
0
100
AcDbPolyline
90
4
70
1
43
0.0
10
151.48631680340196
20
233.40480601532045
10
103.98631680340189
20
233.40480601532045
42
0.99999999999999989
10
103.98631680340188
20
229.40480601532045
10
151.48631680340191
20
229.40480601532045
42
0.99999999999999989
0
CIRCLE
5
176
100
AcDbEntity
8
0
100
AcDbCircle
10
161.60631680340191
20
169.53480601532047
30
0
40
1.4999999999999858
0
LWPOLYLINE
5
177
100
AcDbEntity
8
0
100
AcDbPolyline
90
4
70
1
43
0.0
10
-0.14465137839492215
20
180.4048060153205
10
62.655348621605086
20
180.4048060153205
42
0.99999999999999989
10
62.655348621605086
20
184.40480601532047
10
-0.14465137839492012
20
184.40480601532047
42
0.99999999999999989
0
LWPOLYLINE
5
178
100
AcDbEntity
8
0
100
AcDbPolyline
90
4
70
1
43
0.0
10
-3.0946513783949303
20
208.40480601532047
10
25.255348621605091
20
208.40480601532047
42
0.99999999999999989
10
25.255348621605094
20
212.40480601532045
10
-3.0946513783949303
20
212.40480601532045
42
0.99999999999999989
0
LWPOLYLINE
5
179
100
AcDbEntity
8
0
100
AcDbPolyline
90
4
70
1
43
0.0
10
5.8553486216050921
20
173.4048060153205
10
56.655348621605086
20
173.4048060153205
42
0.99999999999999989
10
56.655348621605071
20
177.4048060153205
10
5.8553486216050965
20
177.4048060153205
42
0.99999999999999989
0
CIRCLE
5
180
100
AcDbEntity
8
0
100
AcDbCircle
10
66.125348621605085
20
237.27480601532045
30
0
40
1.5000000000000036
0
CIRCLE
5
181
100
AcDbEntity
8
0
100
AcDbCircle
10
-1.6146513783949152
20
237.27480601532048
30
0
40
1.5000000000000002
0
LWPOLYLINE
5
182
100
AcDbEntity
8
0
100
AcDbPolyline
90
4
70
1
43
0.0
10
161.08631680340187
20
219.40480601532045
10
94.386316803401911
20
219.40480601532045
42
0.99999999999999989
10
94.386316803401911
20
215.40480601532045
10
161.08631680340187
20
215.40480601532045
42
0.99999999999999989
0
LWPOLYLINE
5
183
100
AcDbEntity
8
0
100
AcDbPolyline
90
4
70
1
43
0.0
10
25.255348621605087
20
198.40480601532047
10
-3.7446513783949218
20
198.40480601532047
42
0.99999999999999989
10
-3.7446513783949165
20
194.40480601532047
10
25.255348621605091
20
194.40480601532047
42
0.99999999999999989
0
LWPOLYLINE
5
184
100
AcDbEntity
8
0
100
AcDbPolyline
90
4
70
1
43
0.0
10
46.255348621605101
20
201.40480601532047
10
68.25534862160508
20
201.40480601532047
42
0.99999999999999989
10
68.25534862160508
20
205.40480601532045
10
46.255348621605108
20
205.40480601532045
42
0.99999999999999989
0
LWPOLYLINE
5
185
100
AcDbEntity
8
0
100
AcDbPolyline
90
4
70
1
43
0.0
10
97.336316803401928
20
180.4048060153205
10
160.13631680340194
20
180.4048060153205
42
0.99999999999999989
10
160.13631680340188
20
184.40480601532047
10
97.336316803401886
20
184.40480601532047
42
0.99999999999999989
0
LWPOLYLINE
5
186
100
AcDbEntity
8
0
100
AcDbPolyline
90
4
70
1
43
0.0
10
16.855348621605096
20
166.4048060153205
10
45.655348621605086
20
166.4048060153205
42
0.99999999999999989
10
45.655348621605086
20
170.4048060153205
10
16.855348621605099
20
170.4048060153205
42
0.99999999999999989
0
LWPOLYLINE
5
187
100
AcDbEntity
8
0
100
AcDbPolyline
90
4
70
1
43
0.0
10
-1.0946513783949463
20
215.40480601532045
10
65.605348621605074
20
215.40480601532045
42
0.99999999999999989
10
65.605348621605103
20
219.40480601532045
10
-1.0946513783949301
20
219.40480601532045
42
0.99999999999999989
0
LWPOLYLINE
5
188
100
AcDbEntity
8
0
100
AcDbPolyline
90
4
70
1
43
0.0
10
91.736316803401863
20
194.40480601532047
10
120.73631680340191
20
194.40480601532047
42
0.99999999999999989
10
120.73631680340192
20
198.40480601532047
10
91.736316803401905
20
198.40480601532047
42
0.99999999999999989
0
LWPOLYLINE
5
189
100
AcDbEntity
8
0
100
AcDbPolyline
90
4
70
1
43
0.0
10
120.73631680340192
20
212.40480601532045
10
92.386316803401897
20
212.40480601532045
42
0.99999999999999989
10
92.38631680340184
20
208.40480601532047
10
120.73631680340191
20
208.40480601532047
42
0.99999999999999989
0
LWPOLYLINE
5
190
100
AcDbEntity
8
0
100
AcDbPolyline
90
4
70
1
43
0.0
10
56.005348621605087
20
233.40480601532045
10
8.5053486216050747
20
233.40480601532045
42
0.99999999999999989
10
8.5053486216050622
20
229.40480601532045
10
56.00534862160508
20
229.40480601532045
42
0.99999999999999989
0
LWPOLYLINE
5
191
100
AcDbEntity
8
0
100
AcDbPolyline
90
4
70
1
43
0.0
10
103.33631680340187
20
173.4048060153205
10
154.13631680340191
20
173.4048060153205
42
0.99999999999999989
10
154.13631680340191
20
177.4048060153205
10
103.33631680340189
20
177.4048060153205
42
0.99999999999999989
0
LWPOLYLINE
5
192
100
AcDbEntity
8
0
100
AcDbPolyline
90
4
70
1
43
0.0
10
141.73631680340191
20
201.40480601532047
10
163.73631680340193
20
201.40480601532047
42
0.99999999999999989
10
163.73631680340191
20
205.40480601532045
10
141.73631680340191
20
205.40480601532045
42
0.99999999999999989
0
LWPOLYLINE
5
193
100
AcDbEntity
8
0
100
AcDbPolyline
90
4
70
1
43
0.0
10
143.13631680340191
20
170.4048060153205
10
114.3363168034019
20
170.4048060153205
42
0.99999999999999989
10
114.33631680340191
20
166.4048060153205
10
143.13631680340191
20
166.4048060153205
42
0.99999999999999989
0
LWPOLYLINE
5
194
100
AcDbEntity
8
0
100
AcDbPolyline
90
4
70
1
43
0.0
10
66.255348621605094
20
191.40480601532047
10
-3.7446513783949262
20
191.40480601532047
42
0.99999999999999989
10
-3.7446513783949342
20
187.4048060153205
10
66.25534862160508
20
187.4048060153205
42
0.99999999999999989
0
CIRCLE
5
195
100
AcDbEntity
8
0
100
AcDbCircle
10
93.866316803401887
20
237.27480601532045
30
0
40
1.5000000000000036
0
CIRCLE
5
196
100
AcDbEntity
8
0
100
AcDbCircle
10
-1.6146513783949152
20
169.53480601532047
30
0
40
1.5000000000000002
0
CIRCLE
5
197
100
AcDbEntity
8
0
100
AcDbCircle
10
93.866316803401887
20
169.53480601532047
30
0
40
1.5000000000000036
0
LWPOLYLINE
5
198
100
AcDbEntity
8
0
100
AcDbPolyline
90
8
70
1
43
0.0
10
82.995832711849459
20
238.27480601532045
10
82.995832711849445
20
227.27480601532045
42
-0.41421356237309764
10
80.995832711849431
20
225.27480601532045
10
78.995832711849459
20
225.27480601532045
42
-0.41421356237309892
10
76.995832711849445
20
227.27480601532045
10
76.995832711849431
20
238.27480601532045
42
-0.41421356237309892
10
78.995832711849459
20
240.27480601532045
10
80.995832711849431
20
240.27480601532048
42
-0.41421356237309764
0
LWPOLYLINE
5
199
100
AcDbEntity
8
0
100
AcDbPolyline
90
4
70
1
43
0.0
10
18.255348620951033
20
201.40480601532047
10
-3.7446513790490177
20
201.40480601532047
42
-0.99999999999999989
10
-3.7446513790489622
20
205.40480601532045
10
18.255348620951047
20
205.40480601532039
42
-0.99999999999999989
0
LWPOLYLINE
5
200
100
AcDbEntity
8
0
100
AcDbPolyline
90
4
70
1
43
0.0
10
97.986316802747879
20
226.40480601532045
10
157.48631680274795
20
226.40480601532045
42
-0.99999999999999989
10
157.48631680274787
20
222.40480601532045
10
97.986316802747837
20
222.40480601532045
42
-0.99999999999999989
0
LWPOLYLINE
5
201
100
AcDbEntity
8
0
100
AcDbPolyline
90
4
70
1
43
0.0
10
140.48631680274787
20
236.40480601532045
10
114.98631680274787
20
236.40480601532045
42
-0.99999999999999989
10
114.98631680274784
20
240.40480601532042
10
140.48631680274784
20
240.40480601532042
42
-0.99999999999999989
0
LWPOLYLINE
5
202
100
AcDbEntity
8
0
100
AcDbPolyline
90
4
70
1
43
0.0
10
39.255348620951047
20
198.40480601532047
10
68.255348620950997
20
198.40480601532047
42
-0.99999999999999989
10
68.25534862095104
20
194.40480601532047
10
39.255348620951061
20
194.40480601532047
42
-0.99999999999999989
0
LWPOLYLINE
5
203
100
AcDbEntity
8
0
100
AcDbPolyline
90
4
70
1
43
0.0
10
163.73631680274792
20
187.4048060153205
10
93.736316802747908
20
187.40480601532042
42
-0.99999999999999989
10
93.736316802747865
20
191.40480601532047
10
163.73631680274792
20
191.40480601532047
42
-0.99999999999999989
0
CIRCLE
5
204
100
AcDbEntity
8
0
100
AcDbCircle
10
161.60631680274781
20
237.27480601532048
30
0
40
1.4999999999999858
0
CIRCLE
5
205
100
AcDbEntity
8
0
100
AcDbCircle
10
66.125348620951044
20
169.53480601532047
30
0
40
1.5000000000000036
0
LWPOLYLINE
5
206
100
AcDbEntity
8
0
100
AcDbPolyline
90
4
70
1
43
0.0
10
134.73631680274789
20
212.40480601532045
10
163.08631680274794
20
212.40480601532045
42
-0.99999999999999989
10
163.08631680274794
20
208.40480601532047
10
134.73631680274781
20
208.40480601532047
42
-0.99999999999999989
0
LWPOLYLINE
5
207
100
AcDbEntity
8
0
100
AcDbPolyline
90
4
70
1
43
0.0
10
113.73631680274787
20
201.40480601532047
10
91.736316802747922
20
201.40480601532039
42
-0.99999999999999989
10
91.736316802747837
20
205.40480601532045
10
113.73631680274781
20
205.40480601532053
42
-0.99999999999999989
0
LWPOLYLINE
5
208
100
AcDbEntity
8
0
100
AcDbPolyline
90
4
70
1
43
0.0
10
45.005348620951068
20
236.40480601532045
10
19.505348620951061
20
236.40480601532045
42
-0.99999999999999989
10
19.505348620951033
20
240.40480601532042
10
45.005348620950997
20
240.40480601532042
42
-0.99999999999999989
0
LWPOLYLINE
5
209
100
AcDbEntity
8
0
100
AcDbPolyline
90
4
70
1
43
0.0
10
62.005348620951047
20
222.40480601532045
10
2.505348620951052
20
222.40480601532045
42
-0.99999999999999989
10
2.5053486209510289
20
226.40480601532045
10
62.005348620951033
20
226.40480601532045
42
-0.99999999999999989
0
LWPOLYLINE
5
210
100
AcDbEntity
8
0
100
AcDbPolyline
90
4
70
1
43
0.0
10
134.73631680274792
20
198.40480601532047
10
163.73631680274792
20
198.40480601532047
42
-0.99999999999999989
10
163.73631680274792
20
194.40480601532047
10
134.73631680274781
20
194.40480601532047
42
-0.99999999999999989
0
LWPOLYLINE
5
211
100
AcDbEntity
8
0
100
AcDbPolyline
90
4
70
1
43
0.0
10
103.98631680274787
20
233.40480601532045
10
151.48631680274792
20
233.40480601532045
42
-0.99999999999999989
10
151.48631680274789
20
229.40480601532045
10
103.98631680274782
20
229.40480601532045
42
-0.99999999999999989
0
CIRCLE
5
212
100
AcDbEntity
8
0
100
AcDbCircle
10
161.60631680274781
20
169.53480601532047
30
0
40
1.4999999999999858
0
LWPOLYLINE
5
213
100
AcDbEntity
8
0
100
AcDbPolyline
90
4
70
1
43
0.0
10
62.655348620951045
20
180.4048060153205
10
-0.14465137904893927
20
180.4048060153205
42
-0.99999999999999989
10
-0.14465137904895897
20
184.40480601532047
10
62.655348620951024
20
184.40480601532047
42
-0.99999999999999989
0
LWPOLYLINE
5
214
100
AcDbEntity
8
0
100
AcDbPolyline
90
4
70
1
43
0.0
10
67.605348620951034
20
208.40480601532047
10
39.255348620951061
20
208.40480601532047
42
-0.99999999999999989
10
39.255348620951047
20
212.40480601532045
10
67.60534862095102
20
212.40480601532045
42
-0.99999999999999989
0
LINE
5
215
100
AcDbEntity
8
0
100
AcDbLine
10
25.255348620951054
20
212.40480601532045
30
3.5527136788005009e-14
11
-3.0946513790489716
21
212.40480601532045
31
2.1919624488165191e-14
0
LWPOLYLINE
5
216
100
AcDbEntity
8
0
100
AcDbPolyline
90
4
70
1
43
0.0
10
56.655348620951045
20
173.4048060153205
10
5.8553486209510215
20
173.4048060153205
42
-0.99999999999999989
10
5.8553486209510375
20
177.4048060153205
10
56.655348620950996
20
177.40480601532056
42
-0.99999999999999989
0
CIRCLE
5
217
100
AcDbEntity
8
0
100
AcDbCircle
10
66.125348620951044
20
237.27480601532045
30
0
40
1.5000000000000036
0
CIRCLE
5
218
100
AcDbEntity
8
0
100
AcDbCircle
10
-1.6146513790489581
20
237.27480601532048
30
0
40
1.5000000000000002
0
LWPOLYLINE
5
219
100
AcDbEntity
8
0
100
AcDbPolyline
90
4
70
1
43
0.0
10
161.08631680274789
20
215.40480601532045
10
94.386316802747928
20
215.40480601532039
42
-0.99999999999999989
10
94.386316802747842
20
219.40480601532045
10
161.08631680274783
20
219.40480601532045
42
-0.99999999999999989
0
LWPOLYLINE
5
220
100
AcDbEntity
8
0
100
AcDbPolyline
90
4
70
1
43
0.0
10
-3.7446513790489577
20
198.40480601532047
10
25.255348620951033
20
198.40480601532047
42
-0.99999999999999989
10
25.25534862095104
20
194.40480601532047
10
-3.7446513790489533
20
194.40480601532047
42
-0.99999999999999989
0
LWPOLYLINE
5
221
100
AcDbEntity
8
0
100
AcDbPolyline
90
4
70
1
43
0.0
10
68.25534862095104
20
201.40480601532047
10
46.255348620951018
20
201.40480601532047
42
-0.99999999999999989
10
46.255348620951054
20
205.40480601532045
10
68.255348620951082
20
205.40480601532045
42
-0.99999999999999989
0
LWPOLYLINE
5
222
100
AcDbEntity
8
0
100
AcDbPolyline
90
4
70
1
43
0.0
10
97.336316802747859
20
184.40480601532047
10
160.13631680274779
20
184.40480601532047
42
-0.99999999999999989
10
160.13631680274784
20
180.4048060153205
10
97.336316802747859
20
180.4048060153205
42
-0.99999999999999989
0
LWPOLYLINE
5
223
100
AcDbEntity
8
0
100
AcDbPolyline
90
4
70
1
43
0.0
10
45.655348620951045
20
166.4048060153205
10
16.855348620951073
20
166.4048060153205
42
-0.99999999999999989
10
16.855348620951062
20
170.4048060153205
10
45.655348620951024
20
170.4048060153205
42
-0.99999999999999989
0
LWPOLYLINE
5
224
100
AcDbEntity
8
0
100
AcDbPolyline
90
4
70
1
43
0.0
10
65.605348620951062
20
215.40480601532045
10
-1.0946513790489962
20
215.40480601532045
42
-0.99999999999999989
10
-1.094651379048992
20
219.40480601532045
10
65.605348620951048
20
219.40480601532045
42
-0.99999999999999989
0
LWPOLYLINE
5
225
100
AcDbEntity
8
0
100
AcDbPolyline
90
4
70
1
43
0.0
10
91.736316802747865
20
198.40480601532047
10
120.73631680274784
20
198.40480601532047
42
-0.99999999999999989
10
120.73631680274787
20
194.40480601532047
10
91.736316802747893
20
194.40480601532047
42
-0.99999999999999989
0
LWPOLYLINE
5
226
100
AcDbEntity
8
0
100
AcDbPolyline
90
4
70
1
43
0.0
10
92.386316802747857
20
212.40480601532045
10
120.73631680274784
20
212.40480601532045
42
-0.99999999999999989
10
120.73631680274787
20
208.40480601532047
10
92.386316802747857
20
208.40480601532047
42
-0.99999999999999989
0
LWPOLYLINE
5
227
100
AcDbEntity
8
0
100
AcDbPolyline
90
4
70
1
43
0.0
10
56.005348620951054
20
229.40480601532045
10
8.5053486209510609
20
229.40480601532039
42
-0.99999999999999989
10
8.5053486209510254
20
233.40480601532045
10
56.005348620951054
20
233.40480601532045
42
-0.99999999999999989
0
LWPOLYLINE
5
228
100
AcDbEntity
8
0
100
AcDbPolyline
90
4
70
1
43
0.0
10
103.33631680274785
20
177.4048060153205
10
154.13631680274779
20
177.40480601532056
42
-0.99999999999999989
10
154.13631680274787
20
173.4048060153205
10
103.3363168027478
20
173.4048060153205
42
-0.99999999999999989
0
LWPOLYLINE
5
229
100
AcDbEntity
8
0
100
AcDbPolyline
90
4
70
1
43
0.0
10
141.73631680274787
20
205.40480601532045
10
163.73631680274792
20
205.40480601532053
42
-0.99999999999999989
10
163.73631680274792
20
201.40480601532047
10
141.73631680274787
20
201.40480601532047
42
-0.99999999999999989
0
LWPOLYLINE
5
230
100
AcDbEntity
8
0
100
AcDbPolyline
90
4
70
1
43
0.0
10
143.13631680274784
20
166.4048060153205
10
114.33631680274789
20
166.4048060153205
42
-0.99999999999999989
10
114.33631680274786
20
170.4048060153205
10
143.1363168027479
20
170.4048060153205
42
-0.99999999999999989
0
LWPOLYLINE
5
231
100
AcDbEntity
8
0
100
AcDbPolyline
90
4
70
1
43
0.0
10
-3.7446513790489799
20
191.40480601532047
10
66.255348620951068
20
191.40480601532047
42
-0.99999999999999989
10
66.255348620951054
20
187.4048060153205
10
-3.7446513790489466
20
187.40480601532056
42
-0.99999999999999989
0
CIRCLE
5
232
100
AcDbEntity
8
0
100
AcDbCircle
10
93.866316802747832
20
237.27480601532045
30
0
40
1.5000000000000036
0
CIRCLE
5
233
100
AcDbEntity
8
0
100
AcDbCircle
10
-1.6146513790489581
20
169.53480601532047
30
0
40
1.5000000000000002
0
CIRCLE
5
234
100
AcDbEntity
8
0
100
AcDbCircle
10
93.866316802747832
20
169.53480601532047
30
0
40
1.5000000000000036
0
LWPOLYLINE
5
235
100
AcDbEntity
8
0
100
AcDbPolyline
90
4
70
1
43
0.0
10
67.605348621605089
20
212.40480601532087
42
-0.99999999999999989
10
67.605348621605089
20
208.40480601532005
10
39.255348621605087
20
208.40480601532005
42
-0.99999999999999989
10
39.255348621605087
20
212.40480601532087
0
ARC
5
236
100
AcDbEntity
8
0
100
AcDbCircle
10
-3.0946513790489605
20
210.40480601532045
30
-2.7036370068912613e-36
40
1.9999999999999929
100
AcDbArc
50
89.999999999999929
51
269.99999999999972
0
LINE
5
237
100
AcDbEntity
8
0
100
AcDbLine
10
-3.0946513790489707
20
208.40480601532047
30
-3.5527136788005009e-14
11
25.255348620951047
21
208.40480601532047
31
-2.1919632958494664e-14
0
ARC
5
238
100
AcDbEntity
8
0
100
AcDbCircle
10
25.255348620951047
20
210.40480601532045
30
2.6154749305795897e-36
40
1.9999999999999929
100
AcDbArc
50
-90
51
89.999999999999801
0
ENDSEC
0
SECTION
2
OBJECTS
0
DICTIONARY
5
C
100
AcDbDictionary
3
ACAD_GROUP
350
D
3
ACAD_MLINESTYLE
350
17
0
DICTIONARY
5
D
100
AcDbDictionary
0
DICTIONARY
5
1A
330
C
100
AcDbDictionary
0
DICTIONARY
5
17
100
AcDbDictionary
0
ENDSEC
0
EOF
