0
SECTION
2
HEADER
9
$INSUNITS
70
4
9
$ACADVER
1
AC1014
9
$HANDSEED
5
FFFF
0
ENDSEC
0
SECTION
2
TABLES
0
TABLE
2
VPORT
5
8
100
AcDbSymbolTable
0
ENDTAB
0
TABLE
2
LTYPE
5
5
100
AcDbSymbolTable
0
LTYPE
5
14
100
AcDbSymbolTableRecord
100
AcDbLinetypeTableRecord
2
BYBLOCK
70
0
0
LTYPE
5
15
100
AcDbSymbolTableRecord
100
AcDbLinetypeTableRecord
2
BYLAYER
70
0
0
ENDTAB
0
TABLE
2
LAYER
5
2
100
AcDbSymbolTable
70
2
0
LAYER
5
50
100
AcDbSymbolTableRecord
100
AcDbLayerTableRecord
2
0
70
0
6
CONTINUOUS
0
ENDTAB
0
TABLE
2
STYLE
5
3
100
AcDbSymbolTable
70
1
0
STYLE
5
11
100
AcDbSymbolTableRecord
100
AcDbTextStyleTableRecord
2
STANDARD
70
0
0
ENDTAB
0
TABLE
2
VIEW
5
6
100
AcDbSymbolTable
70
0
0
ENDTAB
0
TABLE
2
UCS
5
7
100
AcDbSymbolTable
70
0
0
ENDTAB
0
TABLE
2
APPID
5
9
100
AcDbSymbolTable
70
2
0
APPID
5
12
100
AcDbSymbolTableRecord
100
AcDbRegAppTableRecord
2
ACAD
70
0
0
ENDTAB
0
TABLE
2
DIMSTYLE
5
A
100
AcDbSymbolTable
70
1
0
ENDTAB
0
TABLE
2
BLOCK_RECORD
5
1
100
AcDbSymbolTable
70
1
0
BLOCK_RECORD
5
1F
100
AcDbSymbolTableRecord
100
AcDbBlockTableRecord
2
*MODEL_SPACE
0
BLOCK_RECORD
5
1B
100
AcDbSymbolTableRecord
100
AcDbBlockTableRecord
2
*PAPER_SPACE
0
ENDTAB
0
ENDSEC
0
SECTION
2
BLOCKS
0
BLOCK
5
20
100
AcDbEntity
100
AcDbBlockBegin
2
*MODEL_SPACE
0
ENDBLK
5
21
100
AcDbEntity
100
AcDbBlockEnd
0
BLOCK
5
1C
100
AcDbEntity
100
AcDbBlockBegin
2
*PAPER_SPACE
0
ENDBLK
5
1D
100
AcDbEntity
100
AcDbBlockEnd
0
ENDSEC
0
SECTION
2
ENTITIES
0
CIRCLE
5
100
100
AcDbEntity
8
0
100
AcDbCircle
10
57.249993025465628
20
25.001489946963016
30
0
40
2.5499999999999989
0
LWPOLYLINE
5
101
100
AcDbEntity
8
0
100
AcDbPolyline
90
4
70
1
43
0.0
10
-164.15000000000006
20
89.404806015320474
42
-0.99999999999999989
10
-164.15000000000006
20
93.404806015320474
10
-123.15000000000005
20
93.404806015320446
42
-0.99999999999999989
10
-123.15000000000005
20
89.40480601532046
0
CIRCLE
5
102
100
AcDbEntity
8
0
100
AcDbCircle
10
-15.900006974534499
20
-286.898510053037
30
0
40
2.5499999999999989
0
LWPOLYLINE
5
103
100
AcDbEntity
8
0
100
AcDbPolyline
90
4
70
1
43
0.0
10
-164.15000000000006
20
101.40480601532046
10
-123.15000000000005
20
101.40480601532046
42
0.99999999999999989
10
-123.15000000000005
20
105.40480601532046
10
-164.15000000000006
20
105.40480601532046
42
0.99999999999999989
0
CIRCLE
5
104
100
AcDbEntity
8
0
100
AcDbCircle
10
-148.1500000000043
20
26.400000000000038
30
0
40
2.5500000000000078
0
CIRCLE
5
105
100
AcDbEntity
8
0
100
AcDbCircle
10
34.500000581145258
20
277.90480601532045
30
0
40
2.5499999999999989
0
CIRCLE
5
106
100
AcDbEntity
8
0
100
AcDbCircle
10
2.2499930254656064
20
25.001489946963027
30
0
40
2.5499999999999998
0
CIRCLE
5
107
100
AcDbEntity
8
0
100
AcDbCircle
10
40.399993025465506
20
-286.898510053037
30
0
40
2.5499999999999989
0
LWPOLYLINE
5
108
100
AcDbEntity
8
0
100
AcDbPolyline
90
4
70
1
43
0.0
10
-164.15000000000006
20
95.40480601532046
10
-123.15000000000005
20
95.40480601532046
42
0.99999999999999989
10
-123.15000000000005
20
99.40480601532046
10
-164.15000000000006
20
99.40480601532046
42
0.99999999999999989
0
CIRCLE
5
109
100
AcDbEntity
8
0
100
AcDbCircle
10
163.75000058114526
20
45.750000000000085
30
0
40
2.5499999999999901
0
LWPOLYLINE
5
110
100
AcDbEntity
8
0
100
AcDbPolyline
90
4
70
1
43
0.0
10
-164.15000000000006
20
83.404806015320474
10
-123.15000000000005
20
83.404806015320474
42
0.99999999999999989
10
-123.15000000000005
20
87.404806015320474
10
-164.15000000000006
20
87.404806015320474
42
0.99999999999999989
0
CIRCLE
5
111
100
AcDbEntity
8
0
100
AcDbCircle
10
-159.15000000000006
20
282.90480601532045
30
0
40
2.5500000000000078
0
CIRCLE
5
112
100
AcDbEntity
8
0
100
AcDbCircle
10
157.00000058114526
20
277.90480601532045
30
0
40
2.5500000000000078
0
CIRCLE
5
113
100
AcDbEntity
8
0
100
AcDbCircle
10
-154.15000000000006
20
-296.898510053037
30
0
40
2.5500000000000078
0
CIRCLE
5
114
100
AcDbEntity
8
0
100
AcDbCircle
10
157.00000058114526
20
-296.898510053037
30
0
40
2.5500000000000078
0
LINE
5
115
100
AcDbEntity
8
0
100
AcDbLine
10
-174.15000000000006
20
303.40480601532045
30
0
11
-174.15000000000006
21
-316.898510053037
31
0
0
LINE
5
116
100
AcDbEntity
8
0
100
AcDbLine
10
-174.15000000000006
20
-316.898510053037
30
0
11
182.50000058114523
21
-316.898510053037
31
0
0
LINE
5
117
100
AcDbEntity
8
0
100
AcDbLine
10
182.50000058114523
20
-316.898510053037
30
0
11
182.50000058114526
21
303.4048060153205
31
0
0
LINE
5
118
100
AcDbEntity
8
0
100
AcDbLine
10
182.50000058114526
20
303.4048060153205
30
0
11
-174.15000000000006
21
303.40480601532045
31
0
0
LWPOLYLINE
5
119
100
AcDbEntity
8
0
100
AcDbPolyline
90
4
70
1
43
0.0
10
-123.15000000000006
20
105.40480601532045
42
-0.99999999999999989
10
-123.15000000000006
20
101.40480601532046
10
-164.15000000000006
20
101.40480601532045
42
-0.99999999999999989
10
-164.15000000000006
20
105.40480601532046
0
LWPOLYLINE
5
120
100
AcDbEntity
8
0
100
AcDbPolyline
90
4
70
1
43
0.0
10
-123.15000000000003
20
99.404806015320446
42
-0.99999999999999989
10
-123.15000000000006
20
95.40480601532046
10
-164.15000000000006
20
95.404806015320474
42
-0.99999999999999989
10
-164.15000000000006
20
99.40480601532046
0
LWPOLYLINE
5
121
100
AcDbEntity
8
0
100
AcDbPolyline
90
4
70
1
43
0.0
10
-123.15000000000009
20
93.404806015320446
42
-0.99999999999999989
10
-123.15000000000005
20
89.40480601532046
10
-164.15000000000009
20
89.40480601532046
42
-0.99999999999999989
10
-164.15000000000003
20
93.404806015320446
0
LWPOLYLINE
5
122
100
AcDbEntity
8
0
100
AcDbPolyline
90
4
70
1
43
0.0
10
-123.15000000000003
20
87.404806015320446
42
-0.99999999999999989
10
-123.15000000000006
20
83.404806015320474
10
-164.15000000000006
20
83.404806015320489
42
-0.99999999999999989
10
-164.15000000000006
20
87.404806015320474
0
CIRCLE
5
123
100
AcDbEntity
8
0
100
AcDbCircle
10
157.00000058114526
20
-296.898510053037
30
0
40
2.5500000000000078
0
CIRCLE
5
124
100
AcDbEntity
8
0
100
AcDbCircle
10
-154.15000000000006
20
-296.898510053037
30
0
40
2.5500000000000078
0
CIRCLE
5
125
100
AcDbEntity
8
0
100
AcDbCircle
10
157.00000058114526
20
277.90480601532045
30
0
40
2.5500000000000078
0
CIRCLE
5
126
100
AcDbEntity
8
0
100
AcDbCircle
10
-159.15000000000006
20
282.90480601532045
30
0
40
2.5500000000000078
0
CIRCLE
5
127
100
AcDbEntity
8
0
100
AcDbCircle
10
163.75000058114526
20
45.750000000000085
30
0
40
2.5499999999999901
0
CIRCLE
5
128
100
AcDbEntity
8
0
100
AcDbCircle
10
40.399993025465506
20
-286.898510053037
30
0
40
2.5499999999999989
0
CIRCLE
5
129
100
AcDbEntity
8
0
100
AcDbCircle
10
2.2499930254656064
20
25.001489946963027
30
0
40
2.5499999999999998
0
CIRCLE
5
130
100
AcDbEntity
8
0
100
AcDbCircle
10
34.500000581145258
20
277.90480601532045
30
0
40
2.5499999999999989
0
CIRCLE
5
131
100
AcDbEntity
8
0
100
AcDbCircle
10
-148.1500000000043
20
26.400000000000038
30
0
40
2.5500000000000078
0
CIRCLE
5
132
100
AcDbEntity
8
0
100
AcDbCircle
10
-15.900006974534499
20
-286.898510053037
30
0
40
2.5499999999999989
0
CIRCLE
5
133
100
AcDbEntity
8
0
100
AcDbCircle
10
57.249993025465628
20
25.001489946963016
30
0
40
2.5499999999999989
0
LINE
5
134
100
AcDbEntity
8
0
100
AcDbLine
10
-174.15000000000006
20
303.40480601532045
30
0
11
182.50000058114523
21
303.40480601532045
31
0
0
LINE
5
135
100
AcDbEntity
8
0
100
AcDbLine
10
182.50000058114526
20
303.40480601532045
30
0
11
182.50000058114526
21
-316.898510053037
31
0
0
LINE
5
136
100
AcDbEntity
8
0
100
AcDbLine
10
182.50000058114526
20
-316.898510053037
30
0
11
-174.15000000000003
21
-316.898510053037
31
0
0
LINE
5
137
100
AcDbEntity
8
0
100
AcDbLine
10
-174.15000000000003
20
-316.898510053037
30
0
11
-174.15000000000006
21
303.40480601532045
31
0
0
CIRCLE
5
138
100
AcDbEntity
8
0
100
AcDbCircle
10
-160.15000000000009
20
-139.19951005303699
30
0
40
2.5500000000000078
0
CIRCLE
5
139
100
AcDbEntity
8
0
100
AcDbCircle
10
-160.15000000000009
20
-139.19951005303699
30
0
40
2.5500000000000078
0
LWPOLYLINE
5
140
100
AcDbEntity
8
0
100
AcDbPolyline
90
4
70
1
43
0.0
10
-164.15000000000006
20
77.404806015320474
10
-123.15000000000005
20
77.404806015320474
42
0.99999999999999989
10
-123.15000000000005
20
81.404806015320474
10
-164.15000000000006
20
81.404806015320474
42
0.99999999999999989
0
LWPOLYLINE
5
141
100
AcDbEntity
8
0
100
AcDbPolyline
90
4
70
1
43
0.0
10
-164.15000000000006
20
77.404806015320474
10
-123.15000000000005
20
77.404806015320474
42
0.99999999999999989
10
-123.15000000000005
20
81.404806015320474
10
-164.15000000000006
20
81.404806015320474
42
0.99999999999999989
0
ENDSEC
0
SECTION
2
OBJECTS
0
DICTIONARY
5
C
100
AcDbDictionary
3
ACAD_GROUP
350
D
3
ACAD_MLINESTYLE
350
17
0
DICTIONARY
5
D
100
AcDbDictionary
0
DICTIONARY
5
1A
330
C
100
AcDbDictionary
0
DICTIONARY
5
17
100
AcDbDictionary
0
ENDSEC
0
EOF
