G04*
G04 #@! TF.GenerationSoftware,Altium Limited,Altium Designer,18.0.7 (293)*
G04*
G04 Layer_Color=32896*
%FSLAX25Y25*%
%MOIN*%
G70*
G01*
G75*
%ADD10C,0.00787*%
%ADD16C,0.00500*%
D10*
X240724Y245768D02*
Y270768D01*
X198724D02*
X240724D01*
X198724Y245768D02*
X240724D01*
X198724Y253518D02*
Y263018D01*
Y270768D01*
Y245768D02*
Y253518D01*
X240724Y218209D02*
Y243209D01*
X198724D02*
X240724D01*
X198724Y218209D02*
X240724D01*
X198724Y225959D02*
Y235459D01*
Y243209D01*
Y218209D02*
Y225959D01*
D16*
X234334Y205499D02*
X236000D01*
Y203000D01*
X234334D01*
X236000Y204250D02*
X235167D01*
X233501Y205499D02*
X232668D01*
X233084D01*
Y203000D01*
X233501D01*
X232668D01*
X231418D02*
Y205499D01*
X230169D01*
X229752Y205083D01*
Y204250D01*
X230169Y203833D01*
X231418D01*
X226420Y203000D02*
Y205499D01*
X225170D01*
X224754Y205083D01*
Y204250D01*
X225170Y203833D01*
X226420D01*
X222254Y205083D02*
X222671Y205499D01*
X223504D01*
X223921Y205083D01*
Y203416D01*
X223504Y203000D01*
X222671D01*
X222254Y203416D01*
X221421Y205499D02*
Y203000D01*
X220172D01*
X219755Y203416D01*
Y203833D01*
X220172Y204250D01*
X221421D01*
X220172D01*
X219755Y204666D01*
Y205083D01*
X220172Y205499D01*
X221421D01*
X216423Y203000D02*
Y205499D01*
X215173D01*
X214757Y205083D01*
Y204250D01*
X215173Y203833D01*
X216423D01*
X215590D02*
X214757Y203000D01*
X212258Y205499D02*
X213924D01*
Y203000D01*
X212258D01*
X213924Y204250D02*
X213091D01*
X211425Y205499D02*
Y203833D01*
X210592Y203000D01*
X209758Y203833D01*
Y205499D01*
X208925Y205083D02*
X208509Y205499D01*
X207676D01*
X207259Y205083D01*
Y203416D01*
X207676Y203000D01*
X208509D01*
X208925Y203416D01*
Y205083D01*
X206426Y203000D02*
Y203416D01*
X206010D01*
Y203000D01*
X206426D01*
X204344D02*
X203510D01*
X203927D01*
Y205499D01*
X204344Y205083D01*
X237000Y209499D02*
Y207000D01*
Y208250D01*
X235334D01*
Y209499D01*
Y207000D01*
X234501Y209499D02*
Y209083D01*
X233668Y208250D01*
X232835Y209083D01*
Y209499D01*
X233668Y208250D02*
Y207000D01*
X232002Y209499D02*
Y207000D01*
X230752D01*
X230335Y207417D01*
Y209083D01*
X230752Y209499D01*
X232002D01*
X229502Y207000D02*
Y209499D01*
X228253D01*
X227836Y209083D01*
Y208250D01*
X228253Y207833D01*
X229502D01*
X228669D02*
X227836Y207000D01*
X227003D02*
Y208666D01*
X226170Y209499D01*
X225337Y208666D01*
Y207000D01*
Y208250D01*
X227003D01*
X222005Y207000D02*
Y209499D01*
X220755D01*
X220339Y209083D01*
Y208250D01*
X220755Y207833D01*
X222005D01*
X221172D02*
X220339Y207000D01*
X217840Y209499D02*
X219506D01*
Y207000D01*
X217840D01*
X219506Y208250D02*
X218673D01*
X215340Y209083D02*
X215757Y209499D01*
X216590D01*
X217006Y209083D01*
Y208666D01*
X216590Y208250D01*
X215757D01*
X215340Y207833D01*
Y207417D01*
X215757Y207000D01*
X216590D01*
X217006Y207417D01*
X212841Y209499D02*
X214507D01*
Y207000D01*
X212841D01*
X214507Y208250D02*
X213674D01*
X212008Y207000D02*
Y208666D01*
X211175Y209499D01*
X210342Y208666D01*
Y207000D01*
Y208250D01*
X212008D01*
X209509Y207000D02*
Y209499D01*
X208259D01*
X207843Y209083D01*
Y208250D01*
X208259Y207833D01*
X209509D01*
X208676D02*
X207843Y207000D01*
X205344Y209083D02*
X205760Y209499D01*
X206593D01*
X207010Y209083D01*
Y207417D01*
X206593Y207000D01*
X205760D01*
X205344Y207417D01*
X204510Y209499D02*
Y207000D01*
Y208250D01*
X202844D01*
Y209499D01*
Y207000D01*
X238501Y214834D02*
Y216500D01*
X241000D01*
Y214834D01*
X239750Y216500D02*
Y215667D01*
X238917Y214001D02*
X238501Y213584D01*
Y212751D01*
X238917Y212335D01*
X240583D01*
X241000Y212751D01*
Y213584D01*
X240583Y214001D01*
X238917D01*
X239750Y211502D02*
Y209836D01*
X241000Y209002D02*
Y208169D01*
Y208586D01*
X238501D01*
X238917Y209002D01*
X238834Y275499D02*
X240500D01*
Y273000D01*
X238834D01*
X240500Y274250D02*
X239667D01*
X238001Y275083D02*
X237584Y275499D01*
X236751D01*
X236335Y275083D01*
Y273416D01*
X236751Y273000D01*
X237584D01*
X238001Y273416D01*
Y275083D01*
X235502Y274250D02*
X233836D01*
X231336Y273000D02*
X233002D01*
X231336Y274666D01*
Y275083D01*
X231753Y275499D01*
X232586D01*
X233002Y275083D01*
M02*
