G04*
G04 #@! TF.GenerationSoftware,Altium Limited,Altium Designer,18.0.7 (293)*
G04*
G04 Layer_Color=65535*
%FSLAX25Y25*%
%MOIN*%
G70*
G01*
G75*
%ADD10C,0.00300*%
%ADD11C,0.00500*%
D10*
X190705Y235362D02*
X204894D01*
X190705Y201095D02*
X204894D01*
Y235362D01*
X190705Y201095D02*
Y235362D01*
X169707Y201095D02*
Y235362D01*
X183896Y201095D02*
Y235362D01*
X169707Y201095D02*
X183896D01*
X169707Y235362D02*
X183896D01*
X148710D02*
X162899D01*
X148710Y201095D02*
X162899D01*
Y235362D01*
X148710Y201095D02*
Y235362D01*
X127713Y201095D02*
Y235362D01*
X141902Y201095D02*
Y235362D01*
X127713Y201095D02*
X141902D01*
X127713Y235362D02*
X141902D01*
D11*
X141051Y240507D02*
Y237508D01*
Y239007D01*
X143051D01*
Y240507D01*
Y237508D01*
X146050Y240507D02*
X144050D01*
Y237508D01*
X146050D01*
X144050Y239007D02*
X145050D01*
X147049Y237508D02*
Y239507D01*
X148049Y240507D01*
X149049Y239507D01*
Y237508D01*
Y239007D01*
X147049D01*
X150048Y240507D02*
X152048D01*
X151048D01*
Y237508D01*
X179437Y240704D02*
X181436D01*
X180437D01*
Y237705D01*
X184435Y240704D02*
X182436D01*
Y237705D01*
X184435D01*
X182436Y239204D02*
X183436D01*
X185435Y237705D02*
Y240704D01*
X186435Y239704D01*
X187434Y240704D01*
Y237705D01*
X188434D02*
Y240704D01*
X189934D01*
X190433Y240204D01*
Y239204D01*
X189934Y238704D01*
X188434D01*
X188779Y217685D02*
X185781D01*
X187280Y216185D01*
Y218184D01*
X165283Y216555D02*
X164783Y217055D01*
Y218055D01*
X165283Y218554D01*
X165783D01*
X166283Y218055D01*
Y217555D01*
Y218055D01*
X166782Y218554D01*
X167282D01*
X167782Y218055D01*
Y217055D01*
X167282Y216555D01*
X147178Y218358D02*
Y216358D01*
X145179Y218358D01*
X144679D01*
X144179Y217858D01*
Y216858D01*
X144679Y216358D01*
X125591Y217169D02*
Y218169D01*
Y217669D01*
X122591D01*
X123091Y217169D01*
M02*
