G04*
G04 #@! TF.GenerationSoftware,Altium Limited,Altium Designer,18.0.7 (293)*
G04*
G04 Layer_Color=32896*
%FSLAX25Y25*%
%MOIN*%
G70*
G01*
G75*
%ADD11C,0.00500*%
%ADD23C,0.00400*%
D11*
X190248Y249641D02*
X188249D01*
X189248D01*
Y246642D01*
X185250Y249641D02*
X187249D01*
Y246642D01*
X185250D01*
X187249Y248141D02*
X186249D01*
X184250Y246642D02*
Y249641D01*
X183250Y248641D01*
X182251Y249641D01*
Y246642D01*
X181251D02*
Y249641D01*
X179751D01*
X179252Y249141D01*
Y248141D01*
X179751Y247641D01*
X181251D01*
X190091Y237195D02*
Y234196D01*
Y235696D01*
X188091D01*
Y237195D01*
Y234196D01*
X187092Y237195D02*
Y236696D01*
X186092Y235696D01*
X185092Y236696D01*
Y237195D01*
X186092Y235696D02*
Y234196D01*
X184092Y237195D02*
Y234196D01*
X182593D01*
X182093Y234696D01*
Y236696D01*
X182593Y237195D01*
X184092D01*
X181094Y234196D02*
Y237195D01*
X179594D01*
X179094Y236696D01*
Y235696D01*
X179594Y235196D01*
X181094D01*
X180094D02*
X179094Y234196D01*
X178094D02*
Y236196D01*
X177095Y237195D01*
X176095Y236196D01*
Y234196D01*
Y235696D01*
X178094D01*
X172096Y234196D02*
Y237195D01*
X170597D01*
X170097Y236696D01*
Y235696D01*
X170597Y235196D01*
X172096D01*
X171097D02*
X170097Y234196D01*
X167098Y237195D02*
X169097D01*
Y234196D01*
X167098D01*
X169097Y235696D02*
X168098D01*
X164099Y236696D02*
X164599Y237195D01*
X165598D01*
X166098Y236696D01*
Y236196D01*
X165598Y235696D01*
X164599D01*
X164099Y235196D01*
Y234696D01*
X164599Y234196D01*
X165598D01*
X166098Y234696D01*
X161100Y237195D02*
X163099D01*
Y234196D01*
X161100D01*
X163099Y235696D02*
X162100D01*
X160100Y234196D02*
Y236196D01*
X159101Y237195D01*
X158101Y236196D01*
Y234196D01*
Y235696D01*
X160100D01*
X157101Y234196D02*
Y237195D01*
X155602D01*
X155102Y236696D01*
Y235696D01*
X155602Y235196D01*
X157101D01*
X156102D02*
X155102Y234196D01*
X152103Y236696D02*
X152603Y237195D01*
X153602D01*
X154102Y236696D01*
Y234696D01*
X153602Y234196D01*
X152603D01*
X152103Y234696D01*
X151103Y237195D02*
Y234196D01*
Y235696D01*
X149104D01*
Y237195D01*
Y234196D01*
X190091Y232397D02*
X188091D01*
X189091D01*
Y229398D01*
X185592Y232397D02*
X186592D01*
X187092Y231897D01*
Y229897D01*
X186592Y229398D01*
X185592D01*
X185092Y229897D01*
Y231897D01*
X185592Y232397D01*
X182593D02*
X183593D01*
X184092Y231897D01*
Y229897D01*
X183593Y229398D01*
X182593D01*
X182093Y229897D01*
Y231897D01*
X182593Y232397D01*
X181094D02*
Y229398D01*
X179094D01*
X175095D02*
Y232397D01*
X173596D01*
X173096Y231897D01*
Y230897D01*
X173596Y230397D01*
X175095D01*
X170097Y231897D02*
X170597Y232397D01*
X171597D01*
X172096Y231897D01*
Y229897D01*
X171597Y229398D01*
X170597D01*
X170097Y229897D01*
X169097Y232397D02*
Y229398D01*
X167598D01*
X167098Y229897D01*
Y230397D01*
X167598Y230897D01*
X169097D01*
X167598D01*
X167098Y231397D01*
Y231897D01*
X167598Y232397D01*
X169097D01*
X163099Y229398D02*
Y232397D01*
X161600D01*
X161100Y231897D01*
Y230897D01*
X161600Y230397D01*
X163099D01*
X162100D02*
X161100Y229398D01*
X158101Y232397D02*
X160100D01*
Y229398D01*
X158101D01*
X160100Y230897D02*
X159101D01*
X157101Y232397D02*
Y230397D01*
X156102Y229398D01*
X155102Y230397D01*
Y232397D01*
X154102Y231897D02*
X153602Y232397D01*
X152603D01*
X152103Y231897D01*
Y229897D01*
X152603Y229398D01*
X153602D01*
X154102Y229897D01*
Y231897D01*
X151103Y229398D02*
Y229897D01*
X150603D01*
Y229398D01*
X151103D01*
X147104D02*
Y232397D01*
X148604Y230897D01*
X146605D01*
X152847Y249641D02*
Y246642D01*
Y248141D01*
X150847D01*
Y249641D01*
Y246642D01*
X147848Y249641D02*
X149847D01*
Y246642D01*
X147848D01*
X149847Y248141D02*
X148848D01*
X146848Y246642D02*
Y248641D01*
X145849Y249641D01*
X144849Y248641D01*
Y246642D01*
Y248141D01*
X146848D01*
X143849Y249641D02*
X141850D01*
X142850D01*
Y246642D01*
X194064Y254456D02*
X195063D01*
X194563D01*
Y251957D01*
X195063Y251457D01*
X195563D01*
X196063Y251957D01*
X191564Y251457D02*
Y254456D01*
X193064Y252956D01*
X191065D01*
X176505Y254456D02*
X177504D01*
X177004D01*
Y251957D01*
X177504Y251457D01*
X178004D01*
X178504Y251957D01*
X175505Y253956D02*
X175005Y254456D01*
X174005D01*
X173506Y253956D01*
Y253456D01*
X174005Y252956D01*
X174505D01*
X174005D01*
X173506Y252456D01*
Y251957D01*
X174005Y251457D01*
X175005D01*
X175505Y251957D01*
X156662Y254456D02*
X157662D01*
X157162D01*
Y251957D01*
X157662Y251457D01*
X158162D01*
X158661Y251957D01*
X153663Y251457D02*
X155662D01*
X153663Y253456D01*
Y253956D01*
X154163Y254456D01*
X155163D01*
X155662Y253956D01*
X136387Y254456D02*
X137386D01*
X136886D01*
Y251957D01*
X137386Y251457D01*
X137886D01*
X138386Y251957D01*
X135387Y251457D02*
X134387D01*
X134887D01*
Y254456D01*
X135387Y253956D01*
D23*
X188701Y275374D02*
X203130D01*
X188701Y256146D02*
Y275374D01*
X203130Y256146D02*
Y275374D01*
X188701Y256146D02*
X203130D01*
X169016Y275374D02*
X183445D01*
X169016Y256146D02*
Y275374D01*
X183445Y256146D02*
Y275374D01*
X169016Y256146D02*
X183445D01*
X149331D02*
X163760D01*
Y275374D01*
X149331Y256146D02*
Y275374D01*
X163760D01*
X129547Y256122D02*
X143976D01*
Y275350D01*
X129547Y256122D02*
Y275350D01*
X143976D01*
M02*
