0
SECTION
2
HEADER
9
$INSUNITS
70
4
9
$ACADVER
1
AC1014
9
$HANDSEED
5
FFFF
0
ENDSEC
0
SECTION
2
TABLES
0
TABLE
2
VPORT
5
8
100
AcDbSymbolTable
0
ENDTAB
0
TABLE
2
LTYPE
5
5
100
AcDbSymbolTable
0
LTYPE
5
14
100
AcDbSymbolTableRecord
100
AcDbLinetypeTableRecord
2
BYBLOCK
70
0
0
LTYPE
5
15
100
AcDbSymbolTableRecord
100
AcDbLinetypeTableRecord
2
BYLAYER
70
0
0
ENDTAB
0
TABLE
2
LAYER
5
2
100
AcDbSymbolTable
70
2
0
LAYER
5
50
100
AcDbSymbolTableRecord
100
AcDbLayerTableRecord
2
0
70
0
6
CONTINUOUS
0
ENDTAB
0
TABLE
2
STYLE
5
3
100
AcDbSymbolTable
70
1
0
STYLE
5
11
100
AcDbSymbolTableRecord
100
AcDbTextStyleTableRecord
2
STANDARD
70
0
0
ENDTAB
0
TABLE
2
VIEW
5
6
100
AcDbSymbolTable
70
0
0
ENDTAB
0
TABLE
2
UCS
5
7
100
AcDbSymbolTable
70
0
0
ENDTAB
0
TABLE
2
APPID
5
9
100
AcDbSymbolTable
70
2
0
APPID
5
12
100
AcDbSymbolTableRecord
100
AcDbRegAppTableRecord
2
ACAD
70
0
0
ENDTAB
0
TABLE
2
DIMSTYLE
5
A
100
AcDbSymbolTable
70
1
0
ENDTAB
0
TABLE
2
BLOCK_RECORD
5
1
100
AcDbSymbolTable
70
1
0
BLOCK_RECORD
5
1F
100
AcDbSymbolTableRecord
100
AcDbBlockTableRecord
2
*MODEL_SPACE
0
BLOCK_RECORD
5
1B
100
AcDbSymbolTableRecord
100
AcDbBlockTableRecord
2
*PAPER_SPACE
0
ENDTAB
0
ENDSEC
0
SECTION
2
BLOCKS
0
BLOCK
5
20
100
AcDbEntity
100
AcDbBlockBegin
2
*MODEL_SPACE
0
ENDBLK
5
21
100
AcDbEntity
100
AcDbBlockEnd
0
BLOCK
5
1C
100
AcDbEntity
100
AcDbBlockBegin
2
*PAPER_SPACE
0
ENDBLK
5
1D
100
AcDbEntity
100
AcDbBlockEnd
0
ENDSEC
0
SECTION
2
ENTITIES
0
SPLINE
5
100
100
AcDbEntity
8
0
100
AcDbSpline
70
1064
71
3
72
9
73
5
74
0
42
0.000000001
43
0.0000000001
44
0.0000000001
40
0
40
0
40
0
40
0
40
0.041776290619904233
40
0.097238116310696815
40
0.097238116310696815
40
0.097238116310696815
40
0.097238116310696815
10
-111.71043945312499
20
148.33214843750005
30
0
10
-111.6385222369653
20
148.45392759247653
30
0
10
-111.47112837489878
20
148.73737965248725
30
0
10
-111.46572095537103
20
149.06855086734365
30
0
10
-111.46263671874999
20
149.25744140625005
30
0
0
SPLINE
5
101
100
AcDbEntity
8
0
100
AcDbSpline
70
1064
71
3
72
9
73
5
74
0
42
0.000000001
43
0.0000000001
44
0.0000000001
40
0
40
0
40
0
40
0
40
0.058425152131952943
40
0.10112464251573181
40
0.10112464251573181
40
0.10112464251573181
40
0.10112464251573181
10
-111.46263671874999
20
149.25744140625005
30
0
10
-111.4647338338966
20
149.45625374395092
30
0
10
-111.46836360655058
20
149.80036626816499
30
0
10
-111.63599544593025
20
150.0983962644633
30
0
10
-111.70677734374999
20
150.22423828125005
30
0
0
SPLINE
5
102
100
AcDbEntity
8
0
100
AcDbSpline
70
1064
71
3
72
9
73
5
74
0
42
0.000000001
43
0.0000000001
44
0.0000000001
40
0
40
0
40
0
40
0
40
0.035427530342892859
40
0.071553125127178027
40
0.071553125127178027
40
0.071553125127178027
40
0.071553125127178027
10
-111.70677734374999
20
150.22423828125005
30
0
10
-111.7948850942719
20
150.30826108349135
30
0
10
-111.97283667138585
20
150.47796227417888
30
0
10
-112.2178441143808
20
150.50079598284049
30
0
10
-112.34154296874999
20
150.51232421875005
30
0
0
SPLINE
5
103
100
AcDbEntity
8
0
100
AcDbSpline
70
1064
71
3
72
9
73
5
74
0
42
0.000000001
43
0.0000000001
44
0.0000000001
40
0
40
0
40
0
40
0
40
0.027182649420884764
40
0.053770028669211253
40
0.053770028669211253
40
0.053770028669211253
40
0.053770028669211253
10
-112.34154296874999
20
150.51232421875005
30
0
10
-112.43382237951558
20
150.50503834735883
30
0
10
-112.61636038328469
20
150.49062615715914
30
0
10
-112.76409760269772
20
150.38262266208281
30
0
10
-112.83714843749999
20
150.32921875000005
30
0
0
SPLINE
5
104
100
AcDbEntity
8
0
100
AcDbSpline
70
1064
71
3
72
9
73
5
74
0
42
0.000000001
43
0.0000000001
44
0.0000000001
40
0
40
0
40
0
40
0
40
0.029541267835312822
40
0.065638802939472052
40
0.065638802939472052
40
0.065638802939472052
40
0.065638802939472052
10
-112.83714843749999
20
150.32921875000005
30
0
10
-112.90258088021034
20
150.25392147775003
30
0
10
-113.04796757237452
20
150.08661576688309
30
0
10
-113.10411962655797
20
149.87140197816132
30
0
10
-113.13499999999999
20
149.75304687500005
30
0
0
LINE
5
105
100
AcDbEntity
8
0
100
AcDbLine
10
-113.13499999999999
20
149.75304687500005
30
0
11
-113.83568359374999
21
149.97521484375005
31
0
0
SPLINE
5
106
100
AcDbEntity
8
0
100
AcDbSpline
70
1064
71
3
72
9
73
5
74
0
42
0.000000001
43
0.0000000001
44
0.0000000001
40
0
40
0
40
0
40
0
40
0.055380265083548201
40
0.10362169349915265
40
0.10362169349915265
40
0.10362169349915265
40
0.10362169349915265
10
-113.83568359374999
20
149.97521484375005
30
0
10
-113.77792074505055
20
150.15408710028163
30
0
10
-113.66984101313632
20
150.4887739443019
30
0
10
-113.41734519870967
20
150.73223299215522
30
0
10
-113.29979492187499
20
150.84557617187505
30
0
0
SPLINE
5
107
100
AcDbEntity
8
0
100
AcDbSpline
70
1064
71
3
72
9
73
5
74
0
42
0.000000001
43
0.0000000001
44
0.0000000001
40
0
40
0
40
0
40
0
40
0.04756289625190762
40
0.10062328549726592
40
0.10062328549726592
40
0.10062328549726592
40
0.10062328549726592
10
-113.29979492187499
20
150.84557617187505
30
0
10
-113.16173357229017
20
150.92846603832729
30
0
10
-112.86965323887577
20
151.10382648426562
30
0
10
-112.52867230112597
20
151.12096340626221
30
0
10
-112.34886718749999
20
151.13000000000005
30
0
0
SPLINE
5
108
100
AcDbEntity
8
0
100
AcDbSpline
70
1064
71
3
72
9
73
5
74
0
42
0.000000001
43
0.0000000001
44
0.0000000001
40
0
40
0
40
0
40
0
40
0.066073093850136141
40
0.12982308741049675
40
0.12982308741049675
40
0.12982308741049675
40
0.12982308741049675
10
-112.34886718749999
20
151.13000000000005
30
0
10
-112.12324205917642
20
151.11119811676744
30
0
10
-111.67992468065634
20
151.07425541606801
30
0
10
-111.34262442850795
20
150.78498601105647
30
0
10
-111.17699218749999
20
150.64293945312505
30
0
0
SPLINE
5
109
100
AcDbEntity
8
0
100
AcDbSpline
70
1064
71
3
72
9
73
5
74
0
42
0.000000001
43
0.0000000001
44
0.0000000001
40
0
40
0
40
0
40
0
40
0.06714356144526458
40
0.14354120215777466
40
0.14354120215777466
40
0.14354120215777466
40
0.14354120215777466
10
-111.17699218749999
20
150.64293945312505
30
0
10
-111.04327109181253
20
150.45758969036891
30
0
10
-110.75739875475332
20
150.06134428436133
30
0
10
-110.731690593651
20
149.57173793925597
30
0
10
-110.71800781249999
20
149.31115234375005
30
0
0
SPLINE
5
110
100
AcDbEntity
8
0
100
AcDbSpline
70
1064
71
3
72
9
73
5
74
0
42
0.000000001
43
0.0000000001
44
0.0000000001
40
0
40
0
40
0
40
0
40
0.080210071112439288
40
0.14897129456372576
40
0.14897129456372576
40
0.14897129456372576
40
0.14897129456372576
10
-110.71800781249999
20
149.31115234375005
30
0
10
-110.73058552724865
20
149.03753252063055
30
0
10
-110.75394566672705
20
148.52934821530476
30
0
10
-111.04506197717853
20
148.11463402919446
30
0
10
-111.17943359374999
20
147.92321289062505
30
0
0
SPLINE
5
111
100
AcDbEntity
8
0
100
AcDbSpline
70
1064
71
3
72
9
73
5
74
0
42
0.000000001
43
0.0000000001
44
0.0000000001
40
0
40
0
40
0
40
0
40
0.065015513936841546
40
0.13406284786825901
40
0.13406284786825901
40
0.13406284786825901
40
0.13406284786825901
10
-111.17943359374999
20
147.92321289062505
30
0
10
-111.34891772125158
20
147.77905350833569
30
0
10
-111.69839622915669
20
147.48179495931592
30
0
10
-112.15674559426695
20
147.44683420753069
30
0
10
-112.39281249999999
20
147.42882812500005
30
0
0
SPLINE
5
112
100
AcDbEntity
8
0
100
AcDbSpline
70
1064
71
3
72
9
73
5
74
0
42
0.000000001
43
0.0000000001
44
0.0000000001
40
0
40
0
40
0
40
0
40
0.060295382526448678
40
0.11573526494937947
40
0.11573526494937947
40
0.11573526494937947
40
0.11573526494937947
10
-112.39281249999999
20
147.42882812500005
30
0
10
-112.59829416661546
20
147.4421098742479
30
0
10
-112.99271035789759
20
147.46760381265221
30
0
10
-113.30845703345537
20
147.70384614811044
30
0
10
-113.45970703124999
20
147.81701171875005
30
0
0
SPLINE
5
113
100
AcDbEntity
8
0
100
AcDbSpline
70
1064
71
3
72
9
73
5
74
0
42
0.000000001
43
0.0000000001
44
0.0000000001
40
0
40
0
40
0
40
0
40
0.035182095669930601
40
0.076097689952355593
40
0.076097689952355593
40
0.076097689952355593
40
0.076097689952355593
10
-113.45970703124999
20
147.81701171875005
30
0
10
-113.53726535039695
20
147.9065782761416
30
0
10
-113.70502138684913
20
148.10030772814545
30
0
10
-113.78364451640195
20
148.34475757656747
30
0
10
-113.82591796874999
20
148.47619140625005
30
0
0
LINE
5
114
100
AcDbEntity
8
0
100
AcDbLine
10
-113.82591796874999
20
148.47619140625005
30
0
11
-113.11058593749999
21
148.64708984375005
31
0
0
SPLINE
5
115
100
AcDbEntity
8
0
100
AcDbSpline
70
1064
71
3
72
9
73
5
74
0
42
0.000000001
43
0.0000000001
44
0.0000000001
40
0
40
0
40
0
40
0
40
0.026759879178615841
40
0.052083677374020879
40
0.052083677374020879
40
0.052083677374020879
40
0.052083677374020879
10
-113.11058593749999
20
148.64708984375005
30
0
10
-113.08464870150718
20
148.55998931928849
30
0
10
-113.03416616298722
20
148.39046255928767
30
0
10
-112.907352097228
20
148.2674480568233
30
0
10
-112.84569335937499
20
148.20763671875005
30
0
0
SPLINE
5
116
100
AcDbEntity
8
0
100
AcDbSpline
70
1064
71
3
72
9
73
5
74
0
42
0.000000001
43
0.0000000001
44
0.0000000001
40
0
40
0
40
0
40
0
40
0.025371415868157665
40
0.052316087085472973
40
0.052316087085472973
40
0.052316087085472973
40
0.052316087085472973
10
-112.84569335937499
20
148.20763671875005
30
0
10
-112.77357751420793
20
148.16065143705941
30
0
10
-112.62487399464057
20
148.06376736478546
30
0
10
-112.44752997228218
20
148.05237261384599
30
0
10
-112.35619140624999
20
148.04650390625005
30
0
0
SPLINE
5
117
100
AcDbEntity
8
0
100
AcDbSpline
70
1064
71
3
72
9
73
5
74
0
42
0.000000001
43
0.0000000001
44
0.0000000001
40
0
40
0
40
0
40
0
40
0.036741909373206295
40
0.072423066415180468
40
0.072423066415180468
40
0.072423066415180468
40
0.072423066415180468
10
-112.35619140624999
20
148.04650390625005
30
0
10
-112.23042338906312
20
148.05769292737548
30
0
10
-111.98251832324004
20
148.07974793850346
30
0
10
-111.80024250227436
20
148.24884048195344
30
0
10
-111.71043945312499
20
148.33214843750005
30
0
0
SPLINE
5
118
100
AcDbEntity
8
0
100
AcDbSpline
70
1064
71
3
72
9
73
5
74
0
42
0.000000001
43
0.0000000001
44
0.0000000001
40
0
40
0
40
0
40
0
40
0.06862027245316317
40
0.14734036966315484
40
0.14734036966315484
40
0.14734036966315484
40
0.14734036966315484
10
-105.36278320312499
20
147.91955078125005
30
0
10
-105.50110813738243
20
148.1079405620311
30
0
10
-105.79811726046678
20
148.51244813608633
30
0
10
-105.82387502197579
20
149.01551919529726
30
0
10
-105.83763671874999
20
149.28429687500005
30
0
0
SPLINE
5
119
100
AcDbEntity
8
0
100
AcDbSpline
70
1064
71
3
72
9
73
5
74
0
42
0.000000001
43
0.0000000001
44
0.0000000001
40
0
40
0
40
0
40
0
40
0.078133087931642337
40
0.14637610418978894
40
0.14637610418978894
40
0.14637610418978894
40
0.14637610418978894
10
-105.83763671874999
20
149.28429687500005
30
0
10
-105.82388657974668
20
149.55101500543722
30
0
10
-105.79812679176629
20
150.05069013518931
30
0
10
-105.50370822806141
20
150.45295524629725
30
0
10
-105.36644531249999
20
150.64049804687505
30
0
0
SPLINE
5
120
100
AcDbEntity
8
0
100
AcDbSpline
70
1064
71
3
72
9
73
5
74
0
42
0.000000001
43
0.0000000001
44
0.0000000001
40
0
40
0
40
0
40
0
40
0.066171969140086037
40
0.1381428554419592
40
0.1381428554419592
40
0.1381428554419592
40
0.1381428554419592
10
-105.36644531249999
20
150.64049804687505
30
0
10
-105.19103994059859
20
150.78320046533864
30
0
10
-104.82485771496428
20
151.08111089208293
30
0
10
-104.3526793481131
20
151.11325386812834
30
0
10
-104.10667968749999
20
151.13000000000005
30
0
0
SPLINE
5
121
100
AcDbEntity
8
0
100
AcDbSpline
70
1064
71
3
72
9
73
5
74
0
42
0.000000001
43
0.0000000001
44
0.0000000001
40
0
40
0
40
0
40
0
40
0.072682499245721122
40
0.13895662507353201
40
0.13895662507353201
40
0.13895662507353201
40
0.13895662507353201
10
-104.10667968749999
20
151.13000000000005
30
0
10
-103.85823029762054
20
151.11372100095772
30
0
10
-103.38323715515152
20
151.08259831269064
30
0
10
-103.01349409831269
20
150.78491625948664
30
0
10
-102.83714843749999
20
150.64293945312505
30
0
0
SPLINE
5
122
100
AcDbEntity
8
0
100
AcDbSpline
70
1064
71
3
72
9
73
5
74
0
42
0.000000001
43
0.0000000001
44
0.0000000001
40
0
40
0
40
0
40
0
40
0.067825775659855911
40
0.14499360411267453
40
0.14499360411267453
40
0.14499360411267453
40
0.14499360411267453
10
-102.83714843749999
20
150.64293945312505
30
0
10
-102.69987074961449
20
150.45709178679326
30
0
10
-102.40640729066942
20
150.0597985351464
30
0
10
-102.38000743884642
20
149.56482125042561
30
0
10
-102.36595703124999
20
149.30138671875005
30
0
0
SPLINE
5
123
100
AcDbEntity
8
0
100
AcDbSpline
70
1064
71
3
72
9
73
5
74
0
42
0.000000001
43
0.0000000001
44
0.0000000001
40
0
40
0
40
0
40
0
40
0.050458948996568213
40
0.093738039645020477
40
0.093738039645020477
40
0.093738039645020477
40
0.093738039645020477
10
-102.36595703124999
20
149.30138671875005
30
0
10
-102.37042465041499
20
149.13203556020306
30
0
10
-102.37872418638901
20
148.8174304023571
30
0
10
-102.48189638447283
20
148.52050785974691
30
0
10
-102.52953124999999
20
148.38341796875005
30
0
0
SPLINE
5
124
100
AcDbEntity
8
0
100
AcDbSpline
70
1064
71
3
72
9
73
5
74
0
42
0.000000001
43
0.0000000001
44
0.0000000001
40
0
40
0
40
0
40
0
40
0.029685761375713941
40
0.059551308629591765
40
0.059551308629591765
40
0.059551308629591765
40
0.059551308629591765
10
-102.52953124999999
20
148.38341796875005
30
0
10
-102.5740400138281
20
148.29450318614442
30
0
10
-102.663327099913
20
148.11613512633065
30
0
10
-102.79616415667456
20
147.96732500342824
30
0
10
-102.86278320312499
20
147.89269531250005
30
0
0
SPLINE
5
125
100
AcDbEntity
8
0
100
AcDbSpline
70
1064
71
3
72
9
73
5
74
0
42
0.000000001
43
0.0000000001
44
0.0000000001
40
0
40
0
40
0
40
0
40
0.02911231399192532
40
0.056675904758588705
40
0.056675904758588705
40
0.056675904758588705
40
0.056675904758588705
10
-102.86278320312499
20
147.89269531250005
30
0
10
-102.9336485257208
20
147.82545845287797
30
0
10
-103.07160926203466
20
147.69456161474733
30
0
10
-103.24237835519888
20
147.61104628452961
30
0
10
-103.32542968749999
20
147.57042968750005
30
0
0
SPLINE
5
126
100
AcDbEntity
8
0
100
AcDbSpline
70
1064
71
3
72
9
73
5
74
0
42
0.000000001
43
0.0000000001
44
0.0000000001
40
0
40
0
40
0
40
0
40
0.037544113279858203
40
0.078833843869777417
40
0.078833843869777417
40
0.078833843869777417
40
0.078833843869777417
10
-103.32542968749999
20
147.57042968750005
30
0
10
-103.44435812701795
20
147.52915466191718
30
0
10
-103.69407999320632
20
147.44248677610867
30
0
10
-103.95844906702855
20
147.43352297384246
30
0
10
-104.09691406249999
20
147.42882812500005
30
0
0
SPLINE
5
127
100
AcDbEntity
8
0
100
AcDbSpline
70
1064
71
3
72
9
73
5
74
0
42
0.000000001
43
0.0000000001
44
0.0000000001
40
0
40
0
40
0
40
0
40
0.072246735913634369
40
0.13874888015347159
40
0.13874888015347159
40
0.13874888015347159
40
0.13874888015347159
10
-104.09691406249999
20
147.42882812500005
30
0
10
-104.34380564250397
20
147.44566930613001
30
0
10
-104.81795758600248
20
147.47801256693887
30
0
10
-105.18625754688266
20
147.77649065230639
30
0
10
-105.36278320312499
20
147.91955078125005
30
0
0
SPLINE
5
128
100
AcDbEntity
8
0
100
AcDbSpline
70
1064
71
3
72
9
73
5
74
0
42
0.000000001
43
0.0000000001
44
0.0000000001
40
0
40
0
40
0
40
0
40
0.013975451515355763
40
0.026532238997924722
40
0.026532238997924722
40
0.026532238997924722
40
0.026532238997924722
10
88.902630429999036
20
118.76403320312507
30
0
10
88.936183718500104
20
118.73108406925348
30
0
10
88.999884262893886
20
118.66853050569274
30
0
10
89.081357250206196
20
118.63226881908963
30
0
10
89.119915586249036
20
118.61510742187507
30
0
0
SPLINE
5
129
100
AcDbEntity
8
0
100
AcDbSpline
70
1064
71
3
72
9
73
5
74
0
42
0.000000001
43
0.0000000001
44
0.0000000001
40
0
40
0
40
0
40
0
40
0.015136134228649132
40
0.03670506811711003
40
0.03670506811711003
40
0.03670506811711003
40
0.03670506811711003
10
89.119915586249036
20
118.61510742187507
30
0
10
89.169156067083591
20
118.60344588630973
30
0
10
89.288564046416354
20
118.57516670677745
30
0
10
89.41146503070928
20
118.57495098371157
30
0
10
89.483685117499036
20
118.57482421875007
30
0
0
LINE
5
130
100
AcDbEntity
8
0
100
AcDbLine
10
89.48368511749905
20
118.57482421875005
30
0
11
89.630169492499036
21
118.57482421875007
31
0
0
LINE
5
131
100
AcDbEntity
8
0
100
AcDbLine
10
89.630169492499036
20
118.57482421875007
30
0
11
89.630169492499036
21
120.06896484375007
31
0
0
LINE
5
132
100
AcDbEntity
8
0
100
AcDbLine
10
89.630169492499036
20
120.06896484375007
30
0
11
90.352825742499036
21
120.06896484375007
31
0
0
LINE
5
133
100
AcDbEntity
8
0
100
AcDbLine
10
90.352825742499036
20
120.06896484375007
30
0
11
90.352825742499036
21
116.48986328125007
31
0
0
LINE
5
134
100
AcDbEntity
8
0
100
AcDbLine
10
90.352825742499036
20
116.48986328125007
30
0
11
88.831829648749036
21
116.48986328125007
31
0
0
SPLINE
5
135
100
AcDbEntity
8
0
100
AcDbSpline
70
1064
71
3
72
9
73
5
74
0
42
0.000000001
43
0.0000000001
44
0.0000000001
40
0
40
0
40
0
40
0
40
0.049588669939185412
40
0.084196868347716253
40
0.084196868347716253
40
0.084196868347716253
40
0.084196868347716253
10
88.831829648749036
20
116.48986328125007
30
0
10
88.665712262008952
20
116.49009338768899
30
0
10
88.383660661133717
20
116.49048408664433
30
0
10
88.110407235261761
20
116.55838776612946
30
0
10
87.998089414374036
20
116.58629882812507
30
0
0
SPLINE
5
136
100
AcDbEntity
8
0
100
AcDbSpline
70
1064
71
3
72
9
73
5
74
0
42
0.000000001
43
0.0000000001
44
0.0000000001
40
0
40
0
40
0
40
0
40
0.026969839524929231
40
0.054699455147401821
40
0.054699455147401821
40
0.054699455147401821
40
0.054699455147401821
10
87.998089414374036
20
116.58629882812507
30
0
10
87.915392653266395
20
116.62525769213197
30
0
10
87.747669453769362
20
116.70427294294092
30
0
10
87.637619117260186
20
116.85361048505469
30
0
10
87.581829648749036
20
116.92931640625007
30
0
0
SPLINE
5
137
100
AcDbEntity
8
0
100
AcDbSpline
70
1064
71
3
72
9
73
5
74
0
42
0.000000001
43
0.0000000001
44
0.0000000001
40
0
40
0
40
0
40
0
40
0.028909860849385384
40
0.059131632794557576
40
0.059131632794557576
40
0.059131632794557576
40
0.059131632794557576
10
87.581829648749036
20
116.92931640625007
30
0
10
87.53626300223047
20
117.01558593620351
30
0
10
87.443061923759274
20
117.19203985250365
30
0
10
87.43149263359814
20
117.39139314800664
30
0
10
87.425579648749036
20
117.49328125000007
30
0
0
SPLINE
5
138
100
AcDbEntity
8
0
100
AcDbSpline
70
1064
71
3
72
9
73
5
74
0
42
0.000000001
43
0.0000000001
44
0.0000000001
40
0
40
0
40
0
40
0
40
0.03724721355785246
40
0.071899772341554036
40
0.071899772341554036
40
0.071899772341554036
40
0.071899772341554036
10
87.425579648749036
20
117.49328125000007
30
0
10
87.433942675746593
20
117.61999687557613
30
0
10
87.450086158165163
20
117.86460106903843
30
0
10
87.593349408128887
20
118.06296275826077
30
0
10
87.662396054999036
20
118.15856445312507
30
0
0
SPLINE
5
139
100
AcDbEntity
8
0
100
AcDbSpline
70
1064
71
3
72
9
73
5
74
0
42
0.000000001
43
0.0000000001
44
0.0000000001
40
0
40
0
40
0
40
0
40
0.036473613046216234
40
0.079356978545879406
40
0.079356978545879406
40
0.079356978545879406
40
0.079356978545879406
10
87.662396054999036
20
118.15856445312507
30
0
10
87.756613389600602
20
118.23864607971655
30
0
10
87.961605502423467
20
118.4128826138182
30
0
10
88.226992542522154
20
118.46254056182673
30
0
10
88.370403867499036
20
118.48937500000007
30
0
0
SPLINE
5
140
100
AcDbEntity
8
0
100
AcDbSpline
70
1064
71
3
72
9
73
5
74
0
42
0.000000001
43
0.0000000001
44
0.0000000001
40
0
40
0
40
0
40
0
40
0.025756203160038554
40
0.049111323842956606
40
0.049111323842956606
40
0.049111323842956606
40
0.049111323842956606
10
88.370403867499036
20
118.48937500000007
30
0
10
88.297074970868564
20
118.53460261556562
30
0
10
88.157253151360123
20
118.62084157170686
30
0
10
88.039458687386016
20
118.73525711827709
30
0
10
87.983440976874036
20
118.78966796875007
30
0
0
SPLINE
5
141
100
AcDbEntity
8
0
100
AcDbSpline
70
1064
71
3
72
9
73
5
74
0
42
0.000000001
43
0.0000000001
44
0.0000000001
40
0
40
0
40
0
40
0
40
0.028921021089771959
40
0.071259373881732091
40
0.071259373881732091
40
0.071259373881732091
40
0.071259373881732091
10
87.983440976874036
20
118.78966796875007
30
0
10
87.922341739971614
20
118.86435270337253
30
0
10
87.77179749214568
20
119.04837066771761
30
0
10
87.646505531488259
20
119.25058070787394
30
0
10
87.572064023749036
20
119.37072265625007
30
0
0
LINE
5
142
100
AcDbEntity
8
0
100
AcDbLine
10
87.572064023749036
20
119.37072265625008
30
0
11
87.135052304999036
21
120.06896484375007
31
0
0
LINE
5
143
100
AcDbEntity
8
0
100
AcDbLine
10
87.135052304999036
20
120.06896484375007
30
0
11
87.999310117499036
21
120.06896484375007
31
0
0
LINE
5
144
100
AcDbEntity
8
0
100
AcDbLine
10
87.999310117499036
20
120.06896484375007
30
0
11
88.521771054999036
21
119.29015625000007
31
0
0
SPLINE
5
145
100
AcDbEntity
8
0
100
AcDbSpline
70
1064
71
3
72
9
73
5
74
0
42
0.000000001
43
0.0000000001
44
0.0000000001
40
0
40
0
40
0
40
0
40
0.041317791737656165
40
0.064981827086416311
40
0.064981827086416311
40
0.064981827086416311
40
0.064981827086416311
10
88.521771054999036
20
119.29015625000007
30
0
10
88.597629393788708
20
119.17506136534286
30
0
10
88.716934256100615
20
118.99404791862203
30
0
10
88.853058789512431
20
118.82543568947614
30
0
10
88.902630429999036
20
118.76403320312507
30
0
0
SPLINE
5
146
100
AcDbEntity
8
0
100
AcDbSpline
70
1064
71
3
72
9
73
5
74
0
42
0.000000001
43
0.0000000001
44
0.0000000001
40
0
40
0
40
0
40
0
40
0.041776290619904233
40
0.097238116310696815
40
0.097238116310696815
40
0.097238116310696815
40
0.097238116310696815
10
103.65971050812404
20
117.33214843750007
30
0
10
103.73162772428373
20
117.45392759247653
30
0
10
103.89902158635024
20
117.73737965248728
30
0
10
103.904429005878
20
118.06855086734366
30
0
10
103.90751324249904
20
118.25744140625007
30
0
0
SPLINE
5
147
100
AcDbEntity
8
0
100
AcDbSpline
70
1064
71
3
72
9
73
5
74
0
42
0.000000001
43
0.0000000001
44
0.0000000001
40
0
40
0
40
0
40
0
40
0.058425152131952943
40
0.10112464251573181
40
0.10112464251573181
40
0.10112464251573181
40
0.10112464251573181
10
103.90751324249904
20
118.25744140625007
30
0
10
103.90541612735242
20
118.45625374395095
30
0
10
103.90178635469844
20
118.80036626816502
30
0
10
103.73415451531878
20
119.09839626446333
30
0
10
103.66337261749904
20
119.22423828125007
30
0
0
SPLINE
5
148
100
AcDbEntity
8
0
100
AcDbSpline
70
1064
71
3
72
9
73
5
74
0
42
0.000000001
43
0.0000000001
44
0.0000000001
40
0
40
0
40
0
40
0
40
0.035427530342892859
40
0.071553125127178027
40
0.071553125127178027
40
0.071553125127178027
40
0.071553125127178027
10
103.66337261749904
20
119.22423828125007
30
0
10
103.57526486697711
20
119.30826108349137
30
0
10
103.39731328986318
20
119.47796227417889
30
0
10
103.15230584686823
20
119.50079598284051
30
0
10
103.02860699249904
20
119.51232421875007
30
0
0
SPLINE
5
149
100
AcDbEntity
8
0
100
AcDbSpline
70
1064
71
3
72
9
73
5
74
0
42
0.000000001
43
0.0000000001
44
0.0000000001
40
0
40
0
40
0
40
0
40
0.027182649420884764
40
0.053770028669211253
40
0.053770028669211253
40
0.053770028669211253
40
0.053770028669211253
10
103.02860699249904
20
119.51232421875007
30
0
10
102.93632758173345
20
119.50503834735885
30
0
10
102.75378957796434
20
119.49062615715916
30
0
10
102.60605235855131
20
119.38262266208284
30
0
10
102.53300152374904
20
119.32921875000007
30
0
0
SPLINE
5
150
100
AcDbEntity
8
0
100
AcDbSpline
70
1064
71
3
72
9
73
5
74
0
42
0.000000001
43
0.0000000001
44
0.0000000001
40
0
40
0
40
0
40
0
40
0.029541267835312822
40
0.065638802939472052
40
0.065638802939472052
40
0.065638802939472052
40
0.065638802939472052
10
102.53300152374904
20
119.32921875000007
30
0
10
102.46756908103869
20
119.25392147775005
30
0
10
102.32218238887452
20
119.0866157668831
30
0
10
102.26603033469105
20
118.87140197816134
30
0
10
102.23514996124904
20
118.75304687500007
30
0
0
LINE
5
151
100
AcDbEntity
8
0
100
AcDbLine
10
102.23514996124904
20
118.75304687500007
30
0
11
101.53446636749904
21
118.97521484375007
31
0
0
SPLINE
5
152
100
AcDbEntity
8
0
100
AcDbSpline
70
1064
71
3
72
9
73
5
74
0
42
0.000000001
43
0.0000000001
44
0.0000000001
40
0
40
0
40
0
40
0
40
0.055380265083548201
40
0.10362169349915265
40
0.10362169349915265
40
0.10362169349915265
40
0.10362169349915265
10
101.53446636749904
20
118.97521484375007
30
0
10
101.59222921619846
20
119.15408710028166
30
0
10
101.70030894811271
20
119.48877394430191
30
0
10
101.95280476253936
20
119.73223299215525
30
0
10
102.07035503937404
20
119.84557617187507
30
0
0
SPLINE
5
153
100
AcDbEntity
8
0
100
AcDbSpline
70
1064
71
3
72
9
73
5
74
0
42
0.000000001
43
0.0000000001
44
0.0000000001
40
0
40
0
40
0
40
0
40
0.04756289625190762
40
0.10062328549726592
40
0.10062328549726592
40
0.10062328549726592
40
0.10062328549726592
10
102.07035503937404
20
119.84557617187507
30
0
10
102.20841638895885
20
119.92846603832731
30
0
10
102.50049672237326
20
120.10382648426565
30
0
10
102.84147766012308
20
120.12096340626223
30
0
10
103.02128277374904
20
120.13000000000007
30
0
0
SPLINE
5
154
100
AcDbEntity
8
0
100
AcDbSpline
70
1064
71
3
72
9
73
5
74
0
42
0.000000001
43
0.0000000001
44
0.0000000001
40
0
40
0
40
0
40
0
40
0.066073093850136141
40
0.12982308741049675
40
0.12982308741049675
40
0.12982308741049675
40
0.12982308741049675
10
103.02128277374904
20
120.13000000000007
30
0
10
103.24690790207259
20
120.11119811676747
30
0
10
103.69022528059268
20
120.07425541606804
30
0
10
104.02752553274109
20
119.7849860110565
30
0
10
104.19315777374904
20
119.64293945312507
30
0
0
SPLINE
5
155
100
AcDbEntity
8
0
100
AcDbSpline
70
1064
71
3
72
9
73
5
74
0
42
0.000000001
43
0.0000000001
44
0.0000000001
40
0
40
0
40
0
40
0
40
0.06714356144526458
40
0.14354120215777466
40
0.14354120215777466
40
0.14354120215777466
40
0.14354120215777466
10
104.19315777374904
20
119.64293945312507
30
0
10
104.32687886943651
20
119.45758969036893
30
0
10
104.61275120649572
20
119.06134428436134
30
0
10
104.63845936759803
20
118.571737939256
30
0
10
104.65214214874904
20
118.31115234375007
30
0
0
SPLINE
5
156
100
AcDbEntity
8
0
100
AcDbSpline
70
1064
71
3
72
9
73
5
74
0
42
0.000000001
43
0.0000000001
44
0.0000000001
40
0
40
0
40
0
40
0
40
0.080210071112439288
40
0.14897129456372576
40
0.14897129456372576
40
0.14897129456372576
40
0.14897129456372576
10
104.65214214874904
20
118.31115234375007
30
0
10
104.63956443400038
20
118.03753252063058
30
0
10
104.61620429452198
20
117.52934821530476
30
0
10
104.32508798407049
20
117.11463402919449
30
0
10
104.19071636749904
20
116.92321289062507
30
0
0
SPLINE
5
157
100
AcDbEntity
8
0
100
AcDbSpline
70
1064
71
3
72
9
73
5
74
0
42
0.000000001
43
0.0000000001
44
0.0000000001
40
0
40
0
40
0
40
0
40
0.065015513936841546
40
0.13406284786825901
40
0.13406284786825901
40
0.13406284786825901
40
0.13406284786825901
10
104.19071636749904
20
116.92321289062507
30
0
10
104.02123223999745
20
116.77905350833571
30
0
10
103.67175373209234
20
116.48179495931595
30
0
10
103.21340436698208
20
116.44683420753071
30
0
10
102.97733746124904
20
116.42882812500007
30
0
0
SPLINE
5
158
100
AcDbEntity
8
0
100
AcDbSpline
70
1064
71
3
72
9
73
5
74
0
42
0.000000001
43
0.0000000001
44
0.0000000001
40
0
40
0
40
0
40
0
40
0.060295382526448678
40
0.11573526494937947
40
0.11573526494937947
40
0.11573526494937947
40
0.11573526494937947
10
102.97733746124904
20
116.42882812500007
30
0
10
102.77185579463357
20
116.44210987424793
30
0
10
102.37743960335143
20
116.46760381265224
30
0
10
102.06169292779366
20
116.70384614811047
30
0
10
101.91044292999904
20
116.81701171875007
30
0
0
SPLINE
5
159
100
AcDbEntity
8
0
100
AcDbSpline
70
1064
71
3
72
9
73
5
74
0
42
0.000000001
43
0.0000000001
44
0.0000000001
40
0
40
0
40
0
40
0
40
0.035182095669930601
40
0.076097689952355593
40
0.076097689952355593
40
0.076097689952355593
40
0.076097689952355593
10
101.91044292999904
20
116.81701171875007
30
0
10
101.83288461085209
20
116.90657827614163
30
0
10
101.6651285743999
20
117.10030772814548
30
0
10
101.58650544484708
20
117.3447575765675
30
0
10
101.54423199249904
20
117.47619140625007
30
0
0
LINE
5
160
100
AcDbEntity
8
0
100
AcDbLine
10
101.54423199249904
20
117.47619140625007
30
0
11
102.25956402374904
21
117.64708984375007
31
0
0
SPLINE
5
161
100
AcDbEntity
8
0
100
AcDbSpline
70
1064
71
3
72
9
73
5
74
0
42
0.000000001
43
0.0000000001
44
0.0000000001
40
0
40
0
40
0
40
0
40
0.026759879178615841
40
0.052083677374020879
40
0.052083677374020879
40
0.052083677374020879
40
0.052083677374020879
10
102.25956402374904
20
117.64708984375007
30
0
10
102.28550125974184
20
117.5599893192885
30
0
10
102.33598379826179
20
117.39046255928768
30
0
10
102.46279786402101
20
117.26744805682331
30
0
10
102.52445660187404
20
117.20763671875007
30
0
0
SPLINE
5
162
100
AcDbEntity
8
0
100
AcDbSpline
70
1064
71
3
72
9
73
5
74
0
42
0.000000001
43
0.0000000001
44
0.0000000001
40
0
40
0
40
0
40
0
40
0.025371415868157665
40
0.052316087085472973
40
0.052316087085472973
40
0.052316087085472973
40
0.052316087085472973
10
102.52445660187404
20
117.20763671875007
30
0
10
102.5965724470411
20
117.16065143705944
30
0
10
102.74527596660846
20
117.06376736478549
30
0
10
102.92261998896684
20
117.05237261384599
30
0
10
103.01395855499904
20
117.04650390625007
30
0
0
SPLINE
5
163
100
AcDbEntity
8
0
100
AcDbSpline
70
1064
71
3
72
9
73
5
74
0
42
0.000000001
43
0.0000000001
44
0.0000000001
40
0
40
0
40
0
40
0
40
0.036741909373206295
40
0.072423066415180468
40
0.072423066415180468
40
0.072423066415180468
40
0.072423066415180468
10
103.01395855499904
20
117.04650390625007
30
0
10
103.13972657218591
20
117.05769292737551
30
0
10
103.38763163800898
20
117.07974793850347
30
0
10
103.56990745897465
20
117.24884048195347
30
0
10
103.65971050812404
20
117.33214843750007
30
0
0
SPLINE
5
164
100
AcDbEntity
8
0
100
AcDbSpline
70
1064
71
3
72
9
73
5
74
0
42
0.000000001
43
0.0000000001
44
0.0000000001
40
0
40
0
40
0
40
0
40
0.06862027245316317
40
0.14734036966315484
40
0.14734036966315484
40
0.14734036966315484
40
0.14734036966315484
10
118.89652691437404
20
116.91955078125007
30
0
10
118.7582019801166
20
117.10794056203112
30
0
10
118.46119285703224
20
117.51244813608635
30
0
10
118.43543509552322
20
118.01551919529727
30
0
10
118.42167339874904
20
118.28429687500007
30
0
0
SPLINE
5
165
100
AcDbEntity
8
0
100
AcDbSpline
70
1064
71
3
72
9
73
5
74
0
42
0.000000001
43
0.0000000001
44
0.0000000001
40
0
40
0
40
0
40
0
40
0.078133087931642337
40
0.14637610418978894
40
0.14637610418978894
40
0.14637610418978894
40
0.14637610418978894
10
118.42167339874904
20
118.28429687500007
30
0
10
118.43542353775234
20
118.55101500543724
30
0
10
118.46118332573272
20
119.05069013518933
30
0
10
118.7556018894376
20
119.45295524629726
30
0
10
118.89286480499904
20
119.64049804687507
30
0
0
SPLINE
5
166
100
AcDbEntity
8
0
100
AcDbSpline
70
1064
71
3
72
9
73
5
74
0
42
0.000000001
43
0.0000000001
44
0.0000000001
40
0
40
0
40
0
40
0
40
0.066171969140086037
40
0.1381428554419592
40
0.1381428554419592
40
0.1381428554419592
40
0.1381428554419592
10
118.89286480499904
20
119.64049804687507
30
0
10
119.06827017690046
20
119.78320046533867
30
0
10
119.43445240253475
20
120.08111089208296
30
0
10
119.90663076938591
20
120.11325386812835
30
0
10
120.15263042999904
20
120.13000000000007
30
0
0
SPLINE
5
167
100
AcDbEntity
8
0
100
AcDbSpline
70
1064
71
3
72
9
73
5
74
0
42
0.000000001
43
0.0000000001
44
0.0000000001
40
0
40
0
40
0
40
0
40
0.072682499245721122
40
0.13895662507353201
40
0.13895662507353201
40
0.13895662507353201
40
0.13895662507353201
10
120.15263042999904
20
120.13000000000007
30
0
10
120.40107981987848
20
120.11372100095775
30
0
10
120.87607296234751
20
120.08259831269066
30
0
10
121.24581601918634
20
119.78491625948665
30
0
10
121.42216167999904
20
119.64293945312507
30
0
0
SPLINE
5
168
100
AcDbEntity
8
0
100
AcDbSpline
70
1064
71
3
72
9
73
5
74
0
42
0.000000001
43
0.0000000001
44
0.0000000001
40
0
40
0
40
0
40
0
40
0.067825775659855911
40
0.14499360411267453
40
0.14499360411267453
40
0.14499360411267453
40
0.14499360411267453
10
121.42216167999904
20
119.64293945312507
30
0
10
121.55943936788454
20
119.45709178679328
30
0
10
121.85290282682959
20
119.0597985351464
30
0
10
121.87930267865261
20
118.56482125042562
30
0
10
121.89335308624904
20
118.30138671875007
30
0
0
SPLINE
5
169
100
AcDbEntity
8
0
100
AcDbSpline
70
1064
71
3
72
9
73
5
74
0
42
0.000000001
43
0.0000000001
44
0.0000000001
40
0
40
0
40
0
40
0
40
0.050458948996568213
40
0.093738039645020477
40
0.093738039645020477
40
0.093738039645020477
40
0.093738039645020477
10
121.89335308624904
20
118.30138671875007
30
0
10
121.88888546708404
20
118.13203556020309
30
0
10
121.88058593111002
20
117.81743040235712
30
0
10
121.77741373302621
20
117.52050785974694
30
0
10
121.72977886749904
20
117.38341796875007
30
0
0
SPLINE
5
170
100
AcDbEntity
8
0
100
AcDbSpline
70
1064
71
3
72
9
73
5
74
0
42
0.000000001
43
0.0000000001
44
0.0000000001
40
0
40
0
40
0
40
0
40
0.029685761375713941
40
0.059551308629591765
40
0.059551308629591765
40
0.059551308629591765
40
0.059551308629591765
10
121.72977886749904
20
117.38341796875007
30
0
10
121.68527010367093
20
117.29450318614445
30
0
10
121.59598301758604
20
117.11613512633066
30
0
10
121.46314596082446
20
116.96732500342827
30
0
10
121.39652691437404
20
116.89269531250007
30
0
0
SPLINE
5
171
100
AcDbEntity
8
0
100
AcDbSpline
70
1064
71
3
72
9
73
5
74
0
42
0.000000001
43
0.0000000001
44
0.0000000001
40
0
40
0
40
0
40
0
40
0.02911231399192532
40
0.056675904758588705
40
0.056675904758588705
40
0.056675904758588705
40
0.056675904758588705
10
121.39652691437404
20
116.89269531250007
30
0
10
121.32566159177824
20
116.82545845287798
30
0
10
121.18770085546437
20
116.69456161474736
30
0
10
121.01693176230016
20
116.61104628452962
30
0
10
120.93388042999904
20
116.57042968750007
30
0
0
SPLINE
5
172
100
AcDbEntity
8
0
100
AcDbSpline
70
1064
71
3
72
9
73
5
74
0
42
0.000000001
43
0.0000000001
44
0.0000000001
40
0
40
0
40
0
40
0
40
0.037544113279858203
40
0.078833843869777417
40
0.078833843869777417
40
0.078833843869777417
40
0.078833843869777417
10
120.93388042999904
20
116.57042968750007
30
0
10
120.81495199048108
20
116.5291546619172
30
0
10
120.56523012429268
20
116.44248677610868
30
0
10
120.30086105047047
20
116.43352297384247
30
0
10
120.16239605499904
20
116.42882812500007
30
0
0
SPLINE
5
173
100
AcDbEntity
8
0
100
AcDbSpline
70
1064
71
3
72
9
73
5
74
0
42
0.000000001
43
0.0000000001
44
0.0000000001
40
0
40
0
40
0
40
0
40
0.072246735913634369
40
0.13874888015347159
40
0.13874888015347159
40
0.13874888015347159
40
0.13874888015347159
10
120.16239605499904
20
116.42882812500007
30
0
10
119.91550447499506
20
116.44566930613003
30
0
10
119.44135253149655
20
116.4780125669389
30
0
10
119.07305257061637
20
116.77649065230642
30
0
10
118.89652691437404
20
116.91955078125007
30
0
0
LWPOLYLINE
5
174
100
AcDbEntity
8
0
100
AcDbPolyline
90
10
70
1
43
0.0
10
113.62186871124904
20
120.06896484375007
10
113.62186871124904
20
116.48986328125007
10
114.29325542999904
20
116.48986328125007
10
114.29325542999904
20
118.88000000000007
10
115.75809917999904
20
116.48986328125007
10
116.46122417999904
20
116.48986328125007
10
116.46122417999904
20
120.06896484375007
10
115.78983746124904
20
120.06896484375007
10
115.78983746124904
20
117.73498046875007
10
114.34696636749904
20
120.06896484375007
0
SPLINE
5
175
100
AcDbEntity
8
0
100
AcDbSpline
70
1064
71
3
72
9
73
5
74
0
42
0.000000001
43
0.0000000001
44
0.0000000001
40
0
40
0
40
0
40
0
40
0.06862027245316317
40
0.14734036966315484
40
0.14734036966315484
40
0.14734036966315484
40
0.14734036966315484
10
98.064007383124036
20
116.91955078125007
30
0
10
97.925682448866596
20
117.10794056203112
30
0
10
97.628673325782245
20
117.51244813608635
30
0
10
97.602915564273218
20
118.01551919529727
30
0
10
97.589153867499036
20
118.28429687500007
30
0
0
SPLINE
5
176
100
AcDbEntity
8
0
100
AcDbSpline
70
1064
71
3
72
9
73
5
74
0
42
0.000000001
43
0.0000000001
44
0.0000000001
40
0
40
0
40
0
40
0
40
0.078133087931642337
40
0.14637610418978894
40
0.14637610418978894
40
0.14637610418978894
40
0.14637610418978894
10
97.589153867499036
20
118.28429687500007
30
0
10
97.602904006502342
20
118.55101500543724
30
0
10
97.628663794482719
20
119.05069013518934
30
0
10
97.923082358187628
20
119.45295524629726
30
0
10
98.060345273749036
20
119.64049804687507
30
0
0
SPLINE
5
177
100
AcDbEntity
8
0
100
AcDbSpline
70
1064
71
3
72
9
73
5
74
0
42
0.000000001
43
0.0000000001
44
0.0000000001
40
0
40
0
40
0
40
0
40
0.066171969140086037
40
0.1381428554419592
40
0.1381428554419592
40
0.1381428554419592
40
0.1381428554419592
10
98.060345273749036
20
119.64049804687507
30
0
10
98.235750645650455
20
119.78320046533867
30
0
10
98.601932871284745
20
120.08111089208296
30
0
10
99.074111238135913
20
120.11325386812835
30
0
10
99.320110898749036
20
120.13000000000007
30
0
0
SPLINE
5
178
100
AcDbEntity
8
0
100
AcDbSpline
70
1064
71
3
72
9
73
5
74
0
42
0.000000001
43
0.0000000001
44
0.0000000001
40
0
40
0
40
0
40
0
40
0.072682499245721122
40
0.13895662507353201
40
0.13895662507353201
40
0.13895662507353201
40
0.13895662507353201
10
99.320110898749036
20
120.13000000000007
30
0
10
99.568560288628476
20
120.11372100095775
30
0
10
100.04355343109751
20
120.08259831269066
30
0
10
100.41329648793634
20
119.78491625948665
30
0
10
100.58964214874904
20
119.64293945312507
30
0
0
SPLINE
5
179
100
AcDbEntity
8
0
100
AcDbSpline
70
1064
71
3
72
9
73
5
74
0
42
0.000000001
43
0.0000000001
44
0.0000000001
40
0
40
0
40
0
40
0
40
0.067825775659855911
40
0.14499360411267453
40
0.14499360411267453
40
0.14499360411267453
40
0.14499360411267453
10
100.58964214874904
20
119.64293945312507
30
0
10
100.72691983663454
20
119.45709178679328
30
0
10
101.02038329557959
20
119.0597985351464
30
0
10
101.04678314740261
20
118.56482125042562
30
0
10
101.06083355499904
20
118.30138671875007
30
0
0
SPLINE
5
180
100
AcDbEntity
8
0
100
AcDbSpline
70
1064
71
3
72
9
73
5
74
0
42
0.000000001
43
0.0000000001
44
0.0000000001
40
0
40
0
40
0
40
0
40
0.050458948996568213
40
0.093738039645020477
40
0.093738039645020477
40
0.093738039645020477
40
0.093738039645020477
10
101.06083355499904
20
118.30138671875007
30
0
10
101.05636593583404
20
118.13203556020309
30
0
10
101.04806639986002
20
117.81743040235712
30
0
10
100.94489420177621
20
117.52050785974694
30
0
10
100.89725933624904
20
117.38341796875007
30
0
0
SPLINE
5
181
100
AcDbEntity
8
0
100
AcDbSpline
70
1064
71
3
72
9
73
5
74
0
42
0.000000001
43
0.0000000001
44
0.0000000001
40
0
40
0
40
0
40
0
40
0.029685761375713941
40
0.059551308629591765
40
0.059551308629591765
40
0.059551308629591765
40
0.059551308629591765
10
100.89725933624904
20
117.38341796875007
30
0
10
100.85275057242093
20
117.29450318614445
30
0
10
100.76346348633604
20
117.11613512633066
30
0
10
100.63062642957448
20
116.96732500342827
30
0
10
100.56400738312404
20
116.89269531250007
30
0
0
SPLINE
5
182
100
AcDbEntity
8
0
100
AcDbSpline
70
1064
71
3
72
9
73
5
74
0
42
0.000000001
43
0.0000000001
44
0.0000000001
40
0
40
0
40
0
40
0
40
0.02911231399192532
40
0.056675904758588705
40
0.056675904758588705
40
0.056675904758588705
40
0.056675904758588705
10
100.56400738312404
20
116.89269531250007
30
0
10
100.49314206052824
20
116.82545845287798
30
0
10
100.35518132421437
20
116.69456161474736
30
0
10
100.18441223105015
20
116.61104628452962
30
0
10
100.10136089874904
20
116.57042968750007
30
0
0
SPLINE
5
183
100
AcDbEntity
8
0
100
AcDbSpline
70
1064
71
3
72
9
73
5
74
0
42
0.000000001
43
0.0000000001
44
0.0000000001
40
0
40
0
40
0
40
0
40
0.037544113279858203
40
0.078833843869777417
40
0.078833843869777417
40
0.078833843869777417
40
0.078833843869777417
10
100.10136089874904
20
116.57042968750007
30
0
10
99.982432459231077
20
116.5291546619172
30
0
10
99.732710593042697
20
116.44248677610868
30
0
10
99.468341519220473
20
116.43352297384247
30
0
10
99.329876523749036
20
116.42882812500007
30
0
0
SPLINE
5
184
100
AcDbEntity
8
0
100
AcDbSpline
70
1064
71
3
72
9
73
5
74
0
42
0.000000001
43
0.0000000001
44
0.0000000001
40
0
40
0
40
0
40
0
40
0.072246735913634369
40
0.13874888015347159
40
0.13874888015347159
40
0.13874888015347159
40
0.13874888015347159
10
99.329876523749036
20
116.42882812500007
30
0
10
99.08298494374506
20
116.44566930613004
30
0
10
98.608833000246548
20
116.47801256693893
30
0
10
98.240533039366369
20
116.77649065230642
30
0
10
98.064007383124036
20
116.91955078125007
30
0
0
SPLINE
5
185
100
AcDbEntity
8
0
100
AcDbSpline
70
1064
71
3
72
9
73
5
74
0
42
0.000000001
43
0.0000000001
44
0.0000000001
40
0
40
0
40
0
40
0
40
0.038915835658941231
40
0.074461675226031601
40
0.074461675226031601
40
0.074461675226031601
40
0.074461675226031601
10
-92.900624999999991
20
150.07531250000005
30
0
10
-92.853120757202419
20
150.19729297792014
30
0
10
-92.762225998316836
20
150.43069078570213
30
0
10
-92.596457352359522
20
150.61814941669263
30
0
10
-92.517324218749991
20
150.70763671875005
30
0
0
SPLINE
5
186
100
AcDbEntity
8
0
100
AcDbSpline
70
1064
71
3
72
9
73
5
74
0
42
0.000000001
43
0.0000000001
44
0.0000000001
40
0
40
0
40
0
40
0
40
0.027454492564217874
40
0.058654205387870542
40
0.058654205387870542
40
0.058654205387870542
40
0.058654205387870542
10
-92.517324218749991
20
150.70763671875005
30
0
10
-92.446131160186425
20
150.76624944945871
30
0
10
-92.294033201376607
20
150.89147059996031
30
0
10
-92.108305279752116
20
150.95792983620694
30
0
10
-92.009511718749991
20
150.99328125000005
30
0
0
SPLINE
5
187
100
AcDbEntity
8
0
100
AcDbSpline
70
1064
71
3
72
9
73
5
74
0
42
0.000000001
43
0.0000000001
44
0.0000000001
40
0
40
0
40
0
40
0
40
0.028524582905942061
40
0.064584998278915992
40
0.064584998278915992
40
0.064584998278915992
40
0.064584998278915992
10
-92.009511718749991
20
150.99328125000005
30
0
10
-91.916722387878153
20
151.0152787378392
30
0
10
-91.70662996358503
20
151.06508517037909
30
0
10
-91.490523985082774
20
151.06757478902037
30
0
10
-91.369863281249991
20
151.06896484375005
30
0
0
LINE
5
188
100
AcDbEntity
8
0
100
AcDbLine
10
-91.369863281249991
20
151.06896484375005
30
0
11
-90.009999999999991
21
151.06896484375005
31
0
0
LINE
5
189
100
AcDbEntity
8
0
100
AcDbLine
10
-90.009999999999991
20
151.06896484375005
30
0
11
-90.009999999999991
21
147.48986328125005
31
0
0
LINE
5
190
100
AcDbEntity
8
0
100
AcDbLine
10
-90.009999999999991
20
147.48986328125005
30
0
11
-91.330800781249991
21
147.48986328125005
31
0
0
SPLINE
5
191
100
AcDbEntity
8
0
100
AcDbSpline
70
1064
71
3
72
9
73
5
74
0
42
0.000000001
43
0.0000000001
44
0.0000000001
40
0
40
0
40
0
40
0
40
0.039404752556152563
40
0.068605913037322427
40
0.068605913037322427
40
0.068605913037322427
40
0.068605913037322427
10
-91.330800781249991
20
147.48986328125005
30
0
10
-91.462576822695056
20
147.49057302982615
30
0
10
-91.69200639789409
20
147.49180874242251
30
0
10
-91.91643022069924
20
147.53839419920604
30
0
10
-92.011953124999991
20
147.55822265625005
30
0
0
SPLINE
5
192
100
AcDbEntity
8
0
100
AcDbSpline
70
1064
71
3
72
9
73
5
74
0
42
0.000000001
43
0.0000000001
44
0.0000000001
40
0
40
0
40
0
40
0
40
0.031946642714802173
40
0.063794246838205726
40
0.063794246838205726
40
0.063794246838205726
40
0.063794246838205726
10
-92.011953124999991
20
147.55822265625005
30
0
10
-92.113111443698955
20
147.59508748918381
30
0
10
-92.315114477646205
20
147.66870286945459
30
0
10
-92.472789024998349
20
147.81485158693658
30
0
10
-92.551503906249991
20
147.88781250000005
30
0
0
SPLINE
5
193
100
AcDbEntity
8
0
100
AcDbSpline
70
1064
71
3
72
9
73
5
74
0
42
0.000000001
43
0.0000000001
44
0.0000000001
40
0
40
0
40
0
40
0
40
0.032934575402533021
40
0.067705241116677861
40
0.067705241116677861
40
0.067705241116677861
40
0.067705241116677861
10
-92.551503906249991
20
147.88781250000005
30
0
10
-92.62239307305579
20
147.97265119444631
30
0
10
-92.768123451312874
20
148.14705830895451
30
0
10
-92.850827391856939
20
148.35886906903724
30
0
10
-92.893300781249991
20
148.46764648437505
30
0
0
SPLINE
5
194
100
AcDbEntity
8
0
100
AcDbSpline
70
1064
71
3
72
9
73
5
74
0
42
0.000000001
43
0.0000000001
44
0.0000000001
40
0
40
0
40
0
40
0
40
0.039295088213575122
40
0.085682861012686046
40
0.085682861012686046
40
0.085682861012686046
40
0.085682861012686046
10
-92.893300781249991
20
148.46764648437505
30
0
10
-92.927418667983588
20
148.59461071448467
30
0
10
-93.001812651556094
20
148.87145596351272
30
0
10
-93.007441100150658
20
149.15829967293291
30
0
10
-93.010488281249991
20
149.31359375000005
30
0
0
SPLINE
5
195
100
AcDbEntity
8
0
100
AcDbSpline
70
1064
71
3
72
9
73
5
74
0
42
0.000000001
43
0.0000000001
44
0.0000000001
40
0
40
0
40
0
40
0
40
0.041229281930182458
40
0.077219380041545063
40
0.077219380041545063
40
0.077219380041545063
40
0.077219380041545063
10
-93.010488281249991
20
149.31359375000005
30
0
10
-93.007288617032344
20
149.45161237797444
30
0
10
-93.00129588381796
20
149.71011100776909
30
0
10
-92.932628989813225
20
149.95921234875601
30
0
10
-92.900624999999991
20
150.07531250000005
30
0
0
LWPOLYLINE
5
196
100
AcDbEntity
8
0
100
AcDbPolyline
90
8
70
1
43
0.0
10
-108.98949218749999
20
147.48986328125005
10
-106.14525390624999
20
147.48986328125005
10
-106.14525390624999
20
148.09533203125005
10
-107.20726562499999
20
148.09533203125005
10
-107.20726562499999
20
151.06896484375005
10
-107.92992187499999
20
151.06896484375005
10
-107.92992187499999
20
148.09533203125005
10
-108.98949218749999
20
148.09533203125005
0
LWPOLYLINE
5
197
100
AcDbEntity
8
0
100
AcDbPolyline
90
12
70
1
43
0.0
10
-122.40257812499999
20
149.49181640625005
10
-124.19945312499999
20
149.49181640625005
10
-124.19945312499999
20
148.88878906250005
10
-122.40257812499999
20
148.88878906250005
10
-122.40257812499999
20
148.09533203125005
10
-124.33373046874999
20
148.09533203125005
10
-124.33373046874999
20
147.48986328125005
10
-121.67992187499999
20
147.48986328125005
10
-121.67992187499999
20
151.06896484375005
10
-124.40208984374999
20
151.06896484375005
10
-124.40208984374999
20
150.46593750000005
10
-122.40257812499999
20
150.46593750000005
0
LWPOLYLINE
5
198
100
AcDbEntity
8
0
100
AcDbPolyline
90
7
70
1
43
0.0
10
-119.66820312499999
20
150.13878906250005
10
-118.76244140624999
20
147.48986328125005
10
-117.97874999999999
20
147.48986328125005
10
-119.25804687499999
20
151.06896484375005
10
-120.02953124999999
20
151.06896484375005
10
-121.31126953124999
20
147.48986328125005
10
-120.54466796874999
20
147.48986328125005
0
LWPOLYLINE
5
199
100
AcDbEntity
8
0
100
AcDbPolyline
90
10
70
1
43
0.0
10
-101.74828124999999
20
151.06896484375005
10
-101.74828124999999
20
147.48986328125005
10
-101.07689453124999
20
147.48986328125005
10
-101.07689453124999
20
149.88000000000005
10
-99.612050781249991
20
147.48986328125005
10
-98.908925781249991
20
147.48986328125005
10
-98.908925781249991
20
151.06896484375005
10
-99.580312499999991
20
151.06896484375005
10
-99.580312499999991
20
148.73498046875005
10
-101.02318359374999
20
151.06896484375005
0
LWPOLYLINE
5
200
100
AcDbEntity
8
0
100
AcDbPolyline
90
12
70
1
43
0.0
10
92.967571836249036
20
118.49181640625007
10
91.170696836249036
20
118.49181640625007
10
91.170696836249036
20
117.88878906250007
10
92.967571836249036
20
117.88878906250007
10
92.967571836249036
20
117.09533203125007
10
91.036419492499036
20
117.09533203125007
10
91.036419492499036
20
116.48986328125007
10
93.690228086249036
20
116.48986328125007
10
93.690228086249036
20
120.06896484375007
10
90.968060117499036
20
120.06896484375007
10
90.968060117499036
20
119.46593750000007
10
92.967571836249036
20
119.46593750000007
0
LWPOLYLINE
5
201
100
AcDbEntity
8
0
100
AcDbPolyline
90
8
70
1
43
0.0
10
106.38065777374904
20
116.48986328125007
10
109.22489605499904
20
116.48986328125007
10
109.22489605499904
20
117.09533203125007
10
108.16288433624904
20
117.09533203125007
10
108.16288433624904
20
120.06896484375007
10
107.44022808624904
20
120.06896484375007
10
107.44022808624904
20
117.09533203125007
10
106.38065777374904
20
117.09533203125007
0
SPLINE
5
202
100
AcDbEntity
8
0
100
AcDbSpline
70
1064
71
3
72
9
73
5
74
0
42
0.000000001
43
0.0000000001
44
0.0000000001
40
0
40
0
40
0
40
0
40
0.038915835658941231
40
0.074461675226031601
40
0.074461675226031601
40
0.074461675226031601
40
0.074461675226031601
10
122.46952496124904
20
119.07531250000007
30
0
10
122.51702920404661
20
119.19729297792016
30
0
10
122.60792396293219
20
119.43069078570215
30
0
10
122.77369260888949
20
119.61814941669263
30
0
10
122.85282574249904
20
119.70763671875007
30
0
0
SPLINE
5
203
100
AcDbEntity
8
0
100
AcDbSpline
70
1064
71
3
72
9
73
5
74
0
42
0.000000001
43
0.0000000001
44
0.0000000001
40
0
40
0
40
0
40
0
40
0.027454492564217874
40
0.058654205387870542
40
0.058654205387870542
40
0.058654205387870542
40
0.058654205387870542
10
122.85282574249904
20
119.70763671875007
30
0
10
122.9240188010626
20
119.76624944945871
30
0
10
123.07611675987243
20
119.89147059996034
30
0
10
123.26184468149691
20
119.95792983620696
30
0
10
123.36063824249904
20
119.99328125000007
30
0
0
SPLINE
5
204
100
AcDbEntity
8
0
100
AcDbSpline
70
1064
71
3
72
9
73
5
74
0
42
0.000000001
43
0.0000000001
44
0.0000000001
40
0
40
0
40
0
40
0
40
0.028524582905942061
40
0.064584998278915992
40
0.064584998278915992
40
0.064584998278915992
40
0.064584998278915992
10
123.36063824249904
20
119.99328125000007
30
0
10
123.45342757337087
20
120.01527873783922
30
0
10
123.663519997664
20
120.06508517037912
30
0
10
123.87962597616624
20
120.06757478902038
30
0
10
124.00028667999904
20
120.06896484375007
30
0
0
LINE
5
205
100
AcDbEntity
8
0
100
AcDbLine
10
124.00028667999904
20
120.06896484375008
30
0
11
125.36014996124904
21
120.06896484375007
31
0
0
LINE
5
206
100
AcDbEntity
8
0
100
AcDbLine
10
125.36014996124904
20
120.06896484375007
30
0
11
125.36014996124904
21
116.48986328125007
31
0
0
LINE
5
207
100
AcDbEntity
8
0
100
AcDbLine
10
125.36014996124904
20
116.48986328125007
30
0
11
124.03934917999904
21
116.48986328125007
31
0
0
SPLINE
5
208
100
AcDbEntity
8
0
100
AcDbSpline
70
1064
71
3
72
9
73
5
74
0
42
0.000000001
43
0.0000000001
44
0.0000000001
40
0
40
0
40
0
40
0
40
0.039404752556152563
40
0.068605913037322427
40
0.068605913037322427
40
0.068605913037322427
40
0.068605913037322427
10
124.03934917999904
20
116.48986328125007
30
0
10
123.90757313855397
20
116.49057302982618
30
0
10
123.67814356335494
20
116.49180874242253
30
0
10
123.45371974054979
20
116.53839419920607
30
0
10
123.35819683624904
20
116.55822265625007
30
0
0
SPLINE
5
209
100
AcDbEntity
8
0
100
AcDbSpline
70
1064
71
3
72
9
73
5
74
0
42
0.000000001
43
0.0000000001
44
0.0000000001
40
0
40
0
40
0
40
0
40
0.031946642714802173
40
0.063794246838205726
40
0.063794246838205726
40
0.063794246838205726
40
0.063794246838205726
10
123.35819683624904
20
116.55822265625007
30
0
10
123.25703851755007
20
116.59508748918383
30
0
10
123.05503548360281
20
116.66870286945461
30
0
10
122.89736093625068
20
116.81485158693661
30
0
10
122.81864605499904
20
116.88781250000007
30
0
0
SPLINE
5
210
100
AcDbEntity
8
0
100
AcDbSpline
70
1064
71
3
72
9
73
5
74
0
42
0.000000001
43
0.0000000001
44
0.0000000001
40
0
40
0
40
0
40
0
40
0.032934575402533021
40
0.067705241116677861
40
0.067705241116677861
40
0.067705241116677861
40
0.067705241116677861
10
122.81864605499904
20
116.88781250000007
30
0
10
122.74775688819324
20
116.97265119444634
30
0
10
122.60202650993617
20
117.14705830895453
30
0
10
122.5193225693921
20
117.35886906903727
30
0
10
122.47684917999904
20
117.46764648437507
30
0
0
SPLINE
5
211
100
AcDbEntity
8
0
100
AcDbSpline
70
1064
71
3
72
9
73
5
74
0
42
0.000000001
43
0.0000000001
44
0.0000000001
40
0
40
0
40
0
40
0
40
0.039295088213575122
40
0.085682861012686046
40
0.085682861012686046
40
0.085682861012686046
40
0.085682861012686046
10
122.47684917999904
20
117.46764648437507
30
0
10
122.44273129326544
20
117.5946107144847
30
0
10
122.36833730969293
20
117.87145596351274
30
0
10
122.36270886109837
20
118.15829967293294
30
0
10
122.35966167999904
20
118.31359375000007
30
0
0
SPLINE
5
212
100
AcDbEntity
8
0
100
AcDbSpline
70
1064
71
3
72
9
73
5
74
0
42
0.000000001
43
0.0000000001
44
0.0000000001
40
0
40
0
40
0
40
0
40
0.041229281930182458
40
0.077219380041545063
40
0.077219380041545063
40
0.077219380041545063
40
0.077219380041545063
10
122.35966167999904
20
118.31359375000007
30
0
10
122.36286134421668
20
118.45161237797447
30
0
10
122.36885407743105
20
118.7101110077691
30
0
10
122.43752097143582
20
118.95921234875604
30
0
10
122.46952496124904
20
119.07531250000007
30
0
0
SPLINE
5
213
100
AcDbEntity
8
0
100
AcDbSpline
70
1064
71
3
72
9
73
5
74
0
42
0.000000001
43
0.0000000001
44
0.0000000001
40
0
40
0
40
0
40
0
40
0.06862027245316317
40
0.14734036966315484
40
0.14734036966315484
40
0.14734036966315484
40
0.14734036966315484
10
110.00736675812404
20
116.91955078125007
30
0
10
109.8690418238666
20
117.10794056203112
30
0
10
109.57203270078224
20
117.51244813608635
30
0
10
109.54627493927322
20
118.01551919529727
30
0
10
109.53251324249904
20
118.28429687500007
30
0
0
SPLINE
5
214
100
AcDbEntity
8
0
100
AcDbSpline
70
1064
71
3
72
9
73
5
74
0
42
0.000000001
43
0.0000000001
44
0.0000000001
40
0
40
0
40
0
40
0
40
0.078133087931642337
40
0.14637610418978894
40
0.14637610418978894
40
0.14637610418978894
40
0.14637610418978894
10
109.53251324249904
20
118.28429687500007
30
0
10
109.54626338150234
20
118.55101500543724
30
0
10
109.57202316948272
20
119.05069013518934
30
0
10
109.86644173318763
20
119.45295524629726
30
0
10
110.00370464874904
20
119.64049804687507
30
0
0
SPLINE
5
215
100
AcDbEntity
8
0
100
AcDbSpline
70
1064
71
3
72
9
73
5
74
0
42
0.000000001
43
0.0000000001
44
0.0000000001
40
0
40
0
40
0
40
0
40
0.066171969140086037
40
0.1381428554419592
40
0.1381428554419592
40
0.1381428554419592
40
0.1381428554419592
10
110.00370464874904
20
119.64049804687507
30
0
10
110.17911002065046
20
119.78320046533867
30
0
10
110.54529224628475
20
120.08111089208296
30
0
10
111.01747061313591
20
120.11325386812835
30
0
10
111.26347027374904
20
120.13000000000007
30
0
0
SPLINE
5
216
100
AcDbEntity
8
0
100
AcDbSpline
70
1064
71
3
72
9
73
5
74
0
42
0.000000001
43
0.0000000001
44
0.0000000001
40
0
40
0
40
0
40
0
40
0.072682499245721122
40
0.13895662507353201
40
0.13895662507353201
40
0.13895662507353201
40
0.13895662507353201
10
111.26347027374904
20
120.13000000000007
30
0
10
111.51191966362848
20
120.11372100095775
30
0
10
111.98691280609751
20
120.08259831269066
30
0
10
112.35665586293634
20
119.78491625948665
30
0
10
112.53300152374904
20
119.64293945312507
30
0
0
SPLINE
5
217
100
AcDbEntity
8
0
100
AcDbSpline
70
1064
71
3
72
9
73
5
74
0
42
0.000000001
43
0.0000000001
44
0.0000000001
40
0
40
0
40
0
40
0
40
0.067825775659855911
40
0.14499360411267453
40
0.14499360411267453
40
0.14499360411267453
40
0.14499360411267453
10
112.53300152374904
20
119.64293945312507
30
0
10
112.67027921163454
20
119.45709178679328
30
0
10
112.96374267057959
20
119.0597985351464
30
0
10
112.99014252240261
20
118.56482125042562
30
0
10
113.00419292999904
20
118.30138671875007
30
0
0
SPLINE
5
218
100
AcDbEntity
8
0
100
AcDbSpline
70
1064
71
3
72
9
73
5
74
0
42
0.000000001
43
0.0000000001
44
0.0000000001
40
0
40
0
40
0
40
0
40
0.050458948996568213
40
0.093738039645020477
40
0.093738039645020477
40
0.093738039645020477
40
0.093738039645020477
10
113.00419292999904
20
118.30138671875007
30
0
10
112.99972531083404
20
118.13203556020309
30
0
10
112.99142577486002
20
117.81743040235712
30
0
10
112.88825357677621
20
117.52050785974694
30
0
10
112.84061871124904
20
117.38341796875007
30
0
0
SPLINE
5
219
100
AcDbEntity
8
0
100
AcDbSpline
70
1064
71
3
72
9
73
5
74
0
42
0.000000001
43
0.0000000001
44
0.0000000001
40
0
40
0
40
0
40
0
40
0.029685761375713941
40
0.059551308629591765
40
0.059551308629591765
40
0.059551308629591765
40
0.059551308629591765
10
112.84061871124904
20
117.38341796875007
30
0
10
112.79610994742093
20
117.29450318614445
30
0
10
112.70682286133604
20
117.11613512633066
30
0
10
112.57398580457446
20
116.96732500342827
30
0
10
112.50736675812404
20
116.89269531250007
30
0
0
SPLINE
5
220
100
AcDbEntity
8
0
100
AcDbSpline
70
1064
71
3
72
9
73
5
74
0
42
0.000000001
43
0.0000000001
44
0.0000000001
40
0
40
0
40
0
40
0
40
0.02911231399192532
40
0.056675904758588705
40
0.056675904758588705
40
0.056675904758588705
40
0.056675904758588705
10
112.50736675812404
20
116.89269531250007
30
0
10
112.43650143552824
20
116.82545845287798
30
0
10
112.29854069921437
20
116.69456161474736
30
0
10
112.12777160605015
20
116.61104628452962
30
0
10
112.04472027374904
20
116.57042968750007
30
0
0
SPLINE
5
221
100
AcDbEntity
8
0
100
AcDbSpline
70
1064
71
3
72
9
73
5
74
0
42
0.000000001
43
0.0000000001
44
0.0000000001
40
0
40
0
40
0
40
0
40
0.037544113279858203
40
0.078833843869777417
40
0.078833843869777417
40
0.078833843869777417
40
0.078833843869777417
10
112.04472027374904
20
116.57042968750007
30
0
10
111.92579183423108
20
116.5291546619172
30
0
10
111.6760699680427
20
116.44248677610868
30
0
10
111.41170089422047
20
116.43352297384247
30
0
10
111.27323589874904
20
116.42882812500007
30
0
0
SPLINE
5
222
100
AcDbEntity
8
0
100
AcDbSpline
70
1064
71
3
72
9
73
5
74
0
42
0.000000001
43
0.0000000001
44
0.0000000001
40
0
40
0
40
0
40
0
40
0.072246735913634369
40
0.13874888015347159
40
0.13874888015347159
40
0.13874888015347159
40
0.13874888015347159
10
111.27323589874904
20
116.42882812500007
30
0
10
111.02634431874506
20
116.44566930613004
30
0
10
110.55219237524655
20
116.4780125669389
30
0
10
110.18389241436637
20
116.77649065230642
30
0
10
110.00736675812404
20
116.91955078125007
30
0
0
LWPOLYLINE
5
223
100
AcDbEntity
8
0
100
AcDbPolyline
90
7
70
1
43
0.0
10
95.701946836249036
20
119.13878906250007
10
96.607708554999036
20
116.48986328125007
10
97.391399961249036
20
116.48986328125007
10
96.112103086249036
20
120.06896484375007
10
95.340618711249036
20
120.06896484375007
10
94.058880429999036
20
116.48986328125007
10
94.825481992499036
20
116.48986328125007
0
SPLINE
5
224
100
AcDbEntity
8
0
100
AcDbSpline
70
1064
71
3
72
9
73
5
74
0
42
0.000000001
43
0.0000000001
44
0.0000000001
40
0
40
0
40
0
40
0
40
0.06862027245316317
40
0.14734036966315484
40
0.14734036966315484
40
0.14734036966315484
40
0.14734036966315484
10
-96.473623046874991
20
147.91955078125005
30
0
10
-96.611947981132431
20
148.1079405620311
30
0
10
-96.908957104216782
20
148.51244813608633
30
0
10
-96.934714865725795
20
149.01551919529726
30
0
10
-96.948476562499991
20
149.28429687500005
30
0
0
SPLINE
5
225
100
AcDbEntity
8
0
100
AcDbSpline
70
1064
71
3
72
9
73
5
74
0
42
0.000000001
43
0.0000000001
44
0.0000000001
40
0
40
0
40
0
40
0
40
0.078133087931642337
40
0.14637610418978894
40
0.14637610418978894
40
0.14637610418978894
40
0.14637610418978894
10
-96.948476562499991
20
149.28429687500005
30
0
10
-96.934726423496684
20
149.55101500543722
30
0
10
-96.908966635516293
20
150.05069013518931
30
0
10
-96.614548071811427
20
150.45295524629725
30
0
10
-96.477285156249991
20
150.64049804687505
30
0
0
SPLINE
5
226
100
AcDbEntity
8
0
100
AcDbSpline
70
1064
71
3
72
9
73
5
74
0
42
0.000000001
43
0.0000000001
44
0.0000000001
40
0
40
0
40
0
40
0
40
0.066171969140086037
40
0.1381428554419592
40
0.1381428554419592
40
0.1381428554419592
40
0.1381428554419592
10
-96.477285156249991
20
150.64049804687505
30
0
10
-96.301879784348586
20
150.78320046533864
30
0
10
-95.935697558714281
20
151.08111089208293
30
0
10
-95.463519191863099
20
151.11325386812834
30
0
10
-95.217519531249991
20
151.13000000000005
30
0
0
SPLINE
5
227
100
AcDbEntity
8
0
100
AcDbSpline
70
1064
71
3
72
9
73
5
74
0
42
0.000000001
43
0.0000000001
44
0.0000000001
40
0
40
0
40
0
40
0
40
0.072682499245721122
40
0.13895662507353201
40
0.13895662507353201
40
0.13895662507353201
40
0.13895662507353201
10
-95.217519531249991
20
151.13000000000005
30
0
10
-94.969070141370537
20
151.11372100095772
30
0
10
-94.494076998901519
20
151.08259831269064
30
0
10
-94.124333942062691
20
150.78491625948664
30
0
10
-93.947988281249991
20
150.64293945312505
30
0
0
SPLINE
5
228
100
AcDbEntity
8
0
100
AcDbSpline
70
1064
71
3
72
9
73
5
74
0
42
0.000000001
43
0.0000000001
44
0.0000000001
40
0
40
0
40
0
40
0
40
0.067825775659855911
40
0.14499360411267453
40
0.14499360411267453
40
0.14499360411267453
40
0.14499360411267453
10
-93.947988281249991
20
150.64293945312505
30
0
10
-93.81071059336449
20
150.45709178679326
30
0
10
-93.517247134419421
20
150.0597985351464
30
0
10
-93.49084728259642
20
149.56482125042561
30
0
10
-93.476796874999991
20
149.30138671875005
30
0
0
SPLINE
5
229
100
AcDbEntity
8
0
100
AcDbSpline
70
1064
71
3
72
9
73
5
74
0
42
0.000000001
43
0.0000000001
44
0.0000000001
40
0
40
0
40
0
40
0
40
0.050458948996568213
40
0.093738039645020477
40
0.093738039645020477
40
0.093738039645020477
40
0.093738039645020477
10
-93.476796874999991
20
149.30138671875005
30
0
10
-93.481264494164989
20
149.13203556020306
30
0
10
-93.489564030139007
20
148.8174304023571
30
0
10
-93.592736228222833
20
148.52050785974691
30
0
10
-93.640371093749991
20
148.38341796875005
30
0
0
SPLINE
5
230
100
AcDbEntity
8
0
100
AcDbSpline
70
1064
71
3
72
9
73
5
74
0
42
0.000000001
43
0.0000000001
44
0.0000000001
40
0
40
0
40
0
40
0
40
0.029685761375713941
40
0.059551308629591765
40
0.059551308629591765
40
0.059551308629591765
40
0.059551308629591765
10
-93.640371093749991
20
148.38341796875005
30
0
10
-93.684879857578096
20
148.29450318614442
30
0
10
-93.774166943663005
20
148.11613512633065
30
0
10
-93.907004000424564
20
147.96732500342824
30
0
10
-93.973623046874991
20
147.89269531250005
30
0
0
SPLINE
5
231
100
AcDbEntity
8
0
100
AcDbSpline
70
1064
71
3
72
9
73
5
74
0
42
0.000000001
43
0.0000000001
44
0.0000000001
40
0
40
0
40
0
40
0
40
0.02911231399192532
40
0.056675904758588705
40
0.056675904758588705
40
0.056675904758588705
40
0.056675904758588705
10
-93.973623046874991
20
147.89269531250005
30
0
10
-94.044488369470798
20
147.82545845287797
30
0
10
-94.182449105784656
20
147.69456161474733
30
0
10
-94.353218198948866
20
147.61104628452961
30
0
10
-94.436269531249991
20
147.57042968750005
30
0
0
SPLINE
5
232
100
AcDbEntity
8
0
100
AcDbSpline
70
1064
71
3
72
9
73
5
74
0
42
0.000000001
43
0.0000000001
44
0.0000000001
40
0
40
0
40
0
40
0
40
0.037544113279858203
40
0.078833843869777417
40
0.078833843869777417
40
0.078833843869777417
40
0.078833843869777417
10
-94.436269531249991
20
147.57042968750005
30
0
10
-94.555197970767949
20
147.52915466191718
30
0
10
-94.804919836956344
20
147.44248677610867
30
0
10
-95.069288910778553
20
147.43352297384246
30
0
10
-95.207753906249991
20
147.42882812500005
30
0
0
SPLINE
5
233
100
AcDbEntity
8
0
100
AcDbSpline
70
1064
71
3
72
9
73
5
74
0
42
0.000000001
43
0.0000000001
44
0.0000000001
40
0
40
0
40
0
40
0
40
0.072246735913634369
40
0.13874888015347159
40
0.13874888015347159
40
0.13874888015347159
40
0.13874888015347159
10
-95.207753906249991
20
147.42882812500005
30
0
10
-95.454645486253966
20
147.44566930613001
30
0
10
-95.928797429752478
20
147.47801256693887
30
0
10
-96.297097390632658
20
147.77649065230639
30
0
10
-96.473623046874991
20
147.91955078125005
30
0
0
SPLINE
5
234
100
AcDbEntity
8
0
100
AcDbSpline
70
1064
71
3
72
9
73
5
74
0
42
0.000000001
43
0.0000000001
44
0.0000000001
40
0
40
0
40
0
40
0
40
0.06862027245316317
40
0.14734036966315484
40
0.14734036966315484
40
0.14734036966315484
40
0.14734036966315484
10
-117.30614257812499
20
147.91955078125005
30
0
10
-117.44446751238243
20
148.1079405620311
30
0
10
-117.74147663546678
20
148.51244813608633
30
0
10
-117.76723439697579
20
149.01551919529726
30
0
10
-117.78099609374999
20
149.28429687500005
30
0
0
SPLINE
5
235
100
AcDbEntity
8
0
100
AcDbSpline
70
1064
71
3
72
9
73
5
74
0
42
0.000000001
43
0.0000000001
44
0.0000000001
40
0
40
0
40
0
40
0
40
0.078133087931642337
40
0.14637610418978894
40
0.14637610418978894
40
0.14637610418978894
40
0.14637610418978894
10
-117.78099609374999
20
149.28429687500005
30
0
10
-117.76724595474668
20
149.55101500543722
30
0
10
-117.74148616676629
20
150.05069013518931
30
0
10
-117.44706760306141
20
150.45295524629725
30
0
10
-117.30980468749999
20
150.64049804687505
30
0
0
SPLINE
5
236
100
AcDbEntity
8
0
100
AcDbSpline
70
1064
71
3
72
9
73
5
74
0
42
0.000000001
43
0.0000000001
44
0.0000000001
40
0
40
0
40
0
40
0
40
0.066171969140086037
40
0.1381428554419592
40
0.1381428554419592
40
0.1381428554419592
40
0.1381428554419592
10
-117.30980468749999
20
150.64049804687505
30
0
10
-117.13439931559859
20
150.78320046533864
30
0
10
-116.76821708996428
20
151.08111089208293
30
0
10
-116.2960387231131
20
151.11325386812834
30
0
10
-116.05003906249999
20
151.13000000000005
30
0
0
SPLINE
5
237
100
AcDbEntity
8
0
100
AcDbSpline
70
1064
71
3
72
9
73
5
74
0
42
0.000000001
43
0.0000000001
44
0.0000000001
40
0
40
0
40
0
40
0
40
0.072682499245721122
40
0.13895662507353201
40
0.13895662507353201
40
0.13895662507353201
40
0.13895662507353201
10
-116.05003906249999
20
151.13000000000005
30
0
10
-115.80158967262054
20
151.11372100095772
30
0
10
-115.32659653015152
20
151.08259831269064
30
0
10
-114.95685347331269
20
150.78491625948664
30
0
10
-114.78050781249999
20
150.64293945312505
30
0
0
SPLINE
5
238
100
AcDbEntity
8
0
100
AcDbSpline
70
1064
71
3
72
9
73
5
74
0
42
0.000000001
43
0.0000000001
44
0.0000000001
40
0
40
0
40
0
40
0
40
0.067825775659855911
40
0.14499360411267453
40
0.14499360411267453
40
0.14499360411267453
40
0.14499360411267453
10
-114.78050781249999
20
150.64293945312505
30
0
10
-114.64323012461449
20
150.45709178679326
30
0
10
-114.34976666566942
20
150.0597985351464
30
0
10
-114.32336681384642
20
149.56482125042561
30
0
10
-114.30931640624999
20
149.30138671875005
30
0
0
SPLINE
5
239
100
AcDbEntity
8
0
100
AcDbSpline
70
1064
71
3
72
9
73
5
74
0
42
0.000000001
43
0.0000000001
44
0.0000000001
40
0
40
0
40
0
40
0
40
0.050458948996568213
40
0.093738039645020477
40
0.093738039645020477
40
0.093738039645020477
40
0.093738039645020477
10
-114.30931640624999
20
149.30138671875005
30
0
10
-114.31378402541499
20
149.13203556020306
30
0
10
-114.32208356138901
20
148.8174304023571
30
0
10
-114.42525575947283
20
148.52050785974691
30
0
10
-114.47289062499999
20
148.38341796875005
30
0
0
SPLINE
5
240
100
AcDbEntity
8
0
100
AcDbSpline
70
1064
71
3
72
9
73
5
74
0
42
0.000000001
43
0.0000000001
44
0.0000000001
40
0
40
0
40
0
40
0
40
0.029685761375713941
40
0.059551308629591765
40
0.059551308629591765
40
0.059551308629591765
40
0.059551308629591765
10
-114.47289062499999
20
148.38341796875005
30
0
10
-114.5173993888281
20
148.29450318614442
30
0
10
-114.606686474913
20
148.11613512633065
30
0
10
-114.73952353167455
20
147.96732500342824
30
0
10
-114.80614257812499
20
147.89269531250005
30
0
0
SPLINE
5
241
100
AcDbEntity
8
0
100
AcDbSpline
70
1064
71
3
72
9
73
5
74
0
42
0.000000001
43
0.0000000001
44
0.0000000001
40
0
40
0
40
0
40
0
40
0.02911231399192532
40
0.056675904758588705
40
0.056675904758588705
40
0.056675904758588705
40
0.056675904758588705
10
-114.80614257812499
20
147.89269531250005
30
0
10
-114.8770079007208
20
147.82545845287797
30
0
10
-115.01496863703466
20
147.69456161474733
30
0
10
-115.18573773019888
20
147.61104628452961
30
0
10
-115.26878906249999
20
147.57042968750005
30
0
0
SPLINE
5
242
100
AcDbEntity
8
0
100
AcDbSpline
70
1064
71
3
72
9
73
5
74
0
42
0.000000001
43
0.0000000001
44
0.0000000001
40
0
40
0
40
0
40
0
40
0.037544113279858203
40
0.078833843869777417
40
0.078833843869777417
40
0.078833843869777417
40
0.078833843869777417
10
-115.26878906249999
20
147.57042968750005
30
0
10
-115.38771750201795
20
147.52915466191718
30
0
10
-115.63743936820632
20
147.44248677610867
30
0
10
-115.90180844202855
20
147.43352297384246
30
0
10
-116.04027343749999
20
147.42882812500005
30
0
0
SPLINE
5
243
100
AcDbEntity
8
0
100
AcDbSpline
70
1064
71
3
72
9
73
5
74
0
42
0.000000001
43
0.0000000001
44
0.0000000001
40
0
40
0
40
0
40
0
40
0.072246735913634369
40
0.13874888015347159
40
0.13874888015347159
40
0.13874888015347159
40
0.13874888015347159
10
-116.04027343749999
20
147.42882812500005
30
0
10
-116.28716501750397
20
147.44566930613001
30
0
10
-116.76131696100248
20
147.4780125669389
30
0
10
-117.12961692188266
20
147.77649065230639
30
0
10
-117.30614257812499
20
147.91955078125005
30
0
0
SPLINE
5
244
100
AcDbEntity
8
0
100
AcDbSpline
70
1064
71
3
72
9
73
5
74
0
42
0.000000001
43
0.0000000001
44
0.0000000001
40
0
40
0
40
0
40
0
40
0.013975451515355763
40
0.026532238997924722
40
0.026532238997924722
40
0.026532238997924722
40
0.026532238997924722
10
-126.46751953124999
20
149.76403320312505
30
0
10
-126.43396624274892
20
149.73108406925346
30
0
10
-126.37026569835514
20
149.66853050569273
30
0
10
-126.28879271104283
20
149.6322688190896
30
0
10
-126.25023437499999
20
149.61510742187505
30
0
0
SPLINE
5
245
100
AcDbEntity
8
0
100
AcDbSpline
70
1064
71
3
72
9
73
5
74
0
42
0.000000001
43
0.0000000001
44
0.0000000001
40
0
40
0
40
0
40
0
40
0.015136134228649132
40
0.03670506811711003
40
0.03670506811711003
40
0.03670506811711003
40
0.03670506811711003
10
-126.25023437499999
20
149.61510742187505
30
0
10
-126.20099389416544
20
149.60344588630971
30
0
10
-126.08158591483267
20
149.57516670677742
30
0
10
-125.95868493053973
20
149.57495098371155
30
0
10
-125.88646484374999
20
149.57482421875005
30
0
0
LINE
5
246
100
AcDbEntity
8
0
100
AcDbLine
10
-125.88646484374998
20
149.57482421875002
30
0
11
-125.73998046874999
21
149.57482421875005
31
0
0
LINE
5
247
100
AcDbEntity
8
0
100
AcDbLine
10
-125.73998046874999
20
149.57482421875005
30
0
11
-125.73998046874999
21
151.06896484375005
31
0
0
LINE
5
248
100
AcDbEntity
8
0
100
AcDbLine
10
-125.73998046874999
20
151.06896484375005
30
0
11
-125.01732421874999
21
151.06896484375005
31
0
0
LINE
5
249
100
AcDbEntity
8
0
100
AcDbLine
10
-125.01732421874999
20
151.06896484375005
30
0
11
-125.01732421874999
21
147.48986328125005
31
0
0
LINE
5
250
100
AcDbEntity
8
0
100
AcDbLine
10
-125.01732421874999
20
147.48986328125005
30
0
11
-126.53832031249999
21
147.48986328125005
31
0
0
SPLINE
5
251
100
AcDbEntity
8
0
100
AcDbSpline
70
1064
71
3
72
9
73
5
74
0
42
0.000000001
43
0.0000000001
44
0.0000000001
40
0
40
0
40
0
40
0
40
0.049588669939185412
40
0.084196868347716253
40
0.084196868347716253
40
0.084196868347716253
40
0.084196868347716253
10
-126.53832031249999
20
147.48986328125005
30
0
10
-126.70443769924007
20
147.49009338768897
30
0
10
-126.98648930011531
20
147.4904840866443
30
0
10
-127.25974272598727
20
147.55838776612944
30
0
10
-127.37206054687499
20
147.58629882812505
30
0
0
SPLINE
5
252
100
AcDbEntity
8
0
100
AcDbSpline
70
1064
71
3
72
9
73
5
74
0
42
0.000000001
43
0.0000000001
44
0.0000000001
40
0
40
0
40
0
40
0
40
0.026969839524929231
40
0.054699455147401821
40
0.054699455147401821
40
0.054699455147401821
40
0.054699455147401821
10
-127.37206054687499
20
147.58629882812505
30
0
10
-127.45475730798263
20
147.62525769213195
30
0
10
-127.62248050747968
20
147.70427294294089
30
0
10
-127.73253084398885
20
147.85361048505467
30
0
10
-127.78832031249999
20
147.92931640625005
30
0
0
SPLINE
5
253
100
AcDbEntity
8
0
100
AcDbSpline
70
1064
71
3
72
9
73
5
74
0
42
0.000000001
43
0.0000000001
44
0.0000000001
40
0
40
0
40
0
40
0
40
0.028909860849385384
40
0.059131632794557576
40
0.059131632794557576
40
0.059131632794557576
40
0.059131632794557576
10
-127.78832031249999
20
147.92931640625005
30
0
10
-127.83388695901856
20
148.01558593620348
30
0
10
-127.92708803748977
20
148.19203985250363
30
0
10
-127.93865732765087
20
148.39139314800661
30
0
10
-127.94457031249999
20
148.49328125000005
30
0
0
SPLINE
5
254
100
AcDbEntity
8
0
100
AcDbSpline
70
1064
71
3
72
9
73
5
74
0
42
0.000000001
43
0.0000000001
44
0.0000000001
40
0
40
0
40
0
40
0
40
0.03724721355785246
40
0.071899772341554036
40
0.071899772341554036
40
0.071899772341554036
40
0.071899772341554036
10
-127.94457031249999
20
148.49328125000005
30
0
10
-127.93620728550243
20
148.61999687557611
30
0
10
-127.92006380308386
20
148.8646010690384
30
0
10
-127.77680055312015
20
149.06296275826074
30
0
10
-127.70775390624999
20
149.15856445312505
30
0
0
SPLINE
5
255
100
AcDbEntity
8
0
100
AcDbSpline
70
1064
71
3
72
9
73
5
74
0
42
0.000000001
43
0.0000000001
44
0.0000000001
40
0
40
0
40
0
40
0
40
0.036473613046216234
40
0.079356978545879406
40
0.079356978545879406
40
0.079356978545879406
40
0.079356978545879406
10
-127.70775390624999
20
149.15856445312505
30
0
10
-127.61353657164844
20
149.23864607971652
30
0
10
-127.40854445882556
20
149.41288261381817
30
0
10
-127.14315741872687
20
149.4625405618267
30
0
10
-126.99974609374999
20
149.48937500000005
30
0
0
SPLINE
5
256
100
AcDbEntity
8
0
100
AcDbSpline
70
1064
71
3
72
9
73
5
74
0
42
0.000000001
43
0.0000000001
44
0.0000000001
40
0
40
0
40
0
40
0
40
0.025756203160038554
40
0.049111323842956606
40
0.049111323842956606
40
0.049111323842956606
40
0.049111323842956606
10
-126.99974609374999
20
149.48937500000005
30
0
10
-127.07307499038046
20
149.5346026155656
30
0
10
-127.2128968098889
20
149.62084157170685
30
0
10
-127.33069127386301
20
149.73525711827708
30
0
10
-127.38670898437499
20
149.78966796875005
30
0
0
SPLINE
5
257
100
AcDbEntity
8
0
100
AcDbSpline
70
1064
71
3
72
9
73
5
74
0
42
0.000000001
43
0.0000000001
44
0.0000000001
40
0
40
0
40
0
40
0
40
0.028921021089771959
40
0.071259373881732091
40
0.071259373881732091
40
0.071259373881732091
40
0.071259373881732091
10
-127.38670898437499
20
149.78966796875005
30
0
10
-127.4478082212774
20
149.8643527033725
30
0
10
-127.59835246910335
20
150.04837066771759
30
0
10
-127.72364442976077
20
150.25058070787392
30
0
10
-127.79808593749999
20
150.37072265625005
30
0
0
LINE
5
258
100
AcDbEntity
8
0
100
AcDbLine
10
-127.79808593749999
20
150.37072265625005
30
0
11
-128.23509765624999
21
151.06896484375005
31
0
0
LINE
5
259
100
AcDbEntity
8
0
100
AcDbLine
10
-128.23509765624999
20
151.06896484375005
30
0
11
-127.37083984374999
21
151.06896484375005
31
0
0
LINE
5
260
100
AcDbEntity
8
0
100
AcDbLine
10
-127.37083984374999
20
151.06896484375005
30
0
11
-126.84837890624999
21
150.29015625000005
31
0
0
SPLINE
5
261
100
AcDbEntity
8
0
100
AcDbSpline
70
1064
71
3
72
9
73
5
74
0
42
0.000000001
43
0.0000000001
44
0.0000000001
40
0
40
0
40
0
40
0
40
0.041317791737656165
40
0.064981827086416311
40
0.064981827086416311
40
0.064981827086416311
40
0.064981827086416311
10
-126.84837890624999
20
150.29015625000005
30
0
10
-126.7725205674603
20
150.17506136534283
30
0
10
-126.65321570514841
20
149.99404791862202
30
0
10
-126.5170911717366
20
149.82543568947614
30
0
10
-126.46751953124999
20
149.76403320312505
30
0
0
CIRCLE
5
262
100
AcDbEntity
8
0
100
AcDbCircle
10
-75
20
171.15000000000006
30
0
40
0.99999999999999645
0
CIRCLE
5
263
100
AcDbEntity
8
0
100
AcDbCircle
10
-140
20
171.15000000000006
30
0
40
0.99999999999999645
0
CIRCLE
5
264
100
AcDbEntity
8
0
100
AcDbCircle
10
-155
20
171.15000000000006
30
0
40
0.99999999999999645
0
CIRCLE
5
265
100
AcDbEntity
8
0
100
AcDbCircle
10
-95
20
156.15000000000006
30
0
40
0.99999999999999645
0
CIRCLE
5
266
100
AcDbEntity
8
0
100
AcDbCircle
10
-150
20
156.15000000000006
30
0
40
0.99999999999999645
0
CIRCLE
5
267
100
AcDbEntity
8
0
100
AcDbCircle
10
-155
20
166.15000000000006
30
0
40
0.99999999999999645
0
CIRCLE
5
268
100
AcDbEntity
8
0
100
AcDbCircle
10
-60
20
171.15000000000006
30
0
40
0.99999999999999645
0
CIRCLE
5
269
100
AcDbEntity
8
0
100
AcDbCircle
10
-150
20
161.15000000000006
30
0
40
0.99999999999999645
0
CIRCLE
5
270
100
AcDbEntity
8
0
100
AcDbCircle
10
-150
20
166.15000000000006
30
0
40
0.99999999999999645
0
CIRCLE
5
271
100
AcDbEntity
8
0
100
AcDbCircle
10
-90
20
166.15000000000006
30
0
40
0.99999999999999645
0
CIRCLE
5
272
100
AcDbEntity
8
0
100
AcDbCircle
10
-75
20
166.15000000000006
30
0
40
0.99999999999999645
0
CIRCLE
5
273
100
AcDbEntity
8
0
100
AcDbCircle
10
-51.49999999999995
20
136.90000000000006
30
0
40
2.5499999999999989
0
CIRCLE
5
274
100
AcDbEntity
8
0
100
AcDbCircle
10
-51.499999999999943
20
-3.0999999999999339
30
0
40
2.5499999999999989
0
CIRCLE
5
275
100
AcDbEntity
8
0
100
AcDbCircle
10
-115
20
166.15000000000006
30
0
40
0.99999999999999645
0
CIRCLE
5
276
100
AcDbEntity
8
0
100
AcDbCircle
10
51.500000000000064
20
-3.0999999999999339
30
0
40
2.5499999999999989
0
CIRCLE
5
277
100
AcDbEntity
8
0
100
AcDbCircle
10
-70
20
166.15000000000006
30
0
40
0.99999999999999645
0
CIRCLE
5
278
100
AcDbEntity
8
0
100
AcDbCircle
10
-55
20
171.15000000000006
30
0
40
0.99999999999999645
0
CIRCLE
5
279
100
AcDbEntity
8
0
100
AcDbCircle
10
-10.999999999999934
20
162.15000000000006
30
0
40
1.6000000000000003
0
CIRCLE
5
280
100
AcDbEntity
8
0
100
AcDbCircle
10
51.500000000000064
20
11.900000000000066
30
0
40
2.5499999999999989
0
CIRCLE
5
281
100
AcDbEntity
8
0
100
AcDbCircle
10
-65
20
166.15000000000006
30
0
40
0.99999999999999645
0
CIRCLE
5
282
100
AcDbEntity
8
0
100
AcDbCircle
10
-65
20
171.15000000000006
30
0
40
0.99999999999999645
0
CIRCLE
5
283
100
AcDbEntity
8
0
100
AcDbCircle
10
-60
20
166.15000000000006
30
0
40
0.99999999999999645
0
CIRCLE
5
284
100
AcDbEntity
8
0
100
AcDbCircle
10
-85
20
171.15000000000006
30
0
40
0.99999999999999645
0
CIRCLE
5
285
100
AcDbEntity
8
0
100
AcDbCircle
10
-70
20
171.15000000000006
30
0
40
0.99999999999999645
0
CIRCLE
5
286
100
AcDbEntity
8
0
100
AcDbCircle
10
-80
20
166.15000000000006
30
0
40
0.99999999999999645
0
CIRCLE
5
287
100
AcDbEntity
8
0
100
AcDbCircle
10
-155
20
161.15000000000006
30
0
40
0.99999999999999645
0
CIRCLE
5
288
100
AcDbEntity
8
0
100
AcDbCircle
10
-150
20
171.15000000000006
30
0
40
0.99999999999999645
0
CIRCLE
5
289
100
AcDbEntity
8
0
100
AcDbCircle
10
11.000000000000041
20
162.15000000000006
30
0
40
1.6000000000000014
0
CIRCLE
5
290
100
AcDbEntity
8
0
100
AcDbCircle
10
-50
20
171.15000000000006
30
0
40
0.99999999999999645
0
CIRCLE
5
291
100
AcDbEntity
8
0
100
AcDbCircle
10
142.00000017945334
20
128.15000000000009
30
0
40
1.7500000000000071
0
CIRCLE
5
292
100
AcDbEntity
8
0
100
AcDbCircle
10
-120
20
156.15000000000006
30
0
40
0.99999999999999645
0
CIRCLE
5
293
100
AcDbEntity
8
0
100
AcDbCircle
10
51.500000000000092
20
121.90000000000006
30
0
40
2.5499999999999989
0
CIRCLE
5
294
100
AcDbEntity
8
0
100
AcDbCircle
10
-110
20
156.15000000000006
30
0
40
0.99999999999999645
0
CIRCLE
5
295
100
AcDbEntity
8
0
100
AcDbCircle
10
-50
20
166.15000000000006
30
0
40
0.99999999999999645
0
CIRCLE
5
296
100
AcDbEntity
8
0
100
AcDbCircle
10
69.800000179453349
20
160.15000000000009
30
0
40
1.749999999999998
0
CIRCLE
5
297
100
AcDbEntity
8
0
100
AcDbCircle
10
-166.99425348215871
20
159.15000000000006
30
0
40
2.5499999999999901
0
CIRCLE
5
298
100
AcDbEntity
8
0
100
AcDbCircle
10
51.500000000000071
20
136.90000000000006
30
0
40
2.5499999999999989
0
CIRCLE
5
299
100
AcDbEntity
8
0
100
AcDbCircle
10
-155
20
156.15000000000006
30
0
40
0.99999999999999645
0
CIRCLE
5
300
100
AcDbEntity
8
0
100
AcDbCircle
10
-29.999999999999932
20
157.90000000000006
30
0
40
1.9999999999999973
0
CIRCLE
5
301
100
AcDbEntity
8
0
100
AcDbCircle
10
172.00000017945331
20
-167.00000058114526
30
0
40
2.5499999999999901
0
CIRCLE
5
302
100
AcDbEntity
8
0
100
AcDbCircle
10
-166.99425348215871
20
-34.500000581145258
30
0
40
2.5499999999999901
0
CIRCLE
5
303
100
AcDbEntity
8
0
100
AcDbCircle
10
-51.499999999999943
20
11.900000000000066
30
0
40
2.5499999999999989
0
CIRCLE
5
304
100
AcDbEntity
8
0
100
AcDbCircle
10
0.0028731794532887989
20
-162.00000058114526
30
0
40
2.5499999999999998
0
CIRCLE
5
305
100
AcDbEntity
8
0
100
AcDbCircle
10
-171.99425348181944
20
-167.00000058114526
30
0
40
2.5499999999999901
0
CIRCLE
5
306
100
AcDbEntity
8
0
100
AcDbCircle
10
167.00000017945331
20
-34.500000581145258
30
0
40
2.5499999999999901
0
CIRCLE
5
307
100
AcDbEntity
8
0
100
AcDbCircle
10
30.000000000000043
20
157.90000000000006
30
0
40
2.0000000000000018
0
CIRCLE
5
308
100
AcDbEntity
8
0
100
AcDbCircle
10
167.00000017945331
20
159.15000000000006
30
0
40
2.5499999999999901
0
CIRCLE
5
309
100
AcDbEntity
8
0
100
AcDbCircle
10
-145
20
156.15000000000006
30
0
40
0.99999999999999645
0
CIRCLE
5
310
100
AcDbEntity
8
0
100
AcDbCircle
10
-140
20
161.15000000000006
30
0
40
0.99999999999999645
0
CIRCLE
5
311
100
AcDbEntity
8
0
100
AcDbCircle
10
-140
20
166.15000000000006
30
0
40
0.99999999999999645
0
CIRCLE
5
312
100
AcDbEntity
8
0
100
AcDbCircle
10
-90
20
171.15000000000006
30
0
40
0.99999999999999645
0
CIRCLE
5
313
100
AcDbEntity
8
0
100
AcDbCircle
10
-55
20
166.15000000000006
30
0
40
0.99999999999999645
0
CIRCLE
5
314
100
AcDbEntity
8
0
100
AcDbCircle
10
-105
20
166.15000000000006
30
0
40
0.99999999999999645
0
CIRCLE
5
315
100
AcDbEntity
8
0
100
AcDbCircle
10
-95
20
161.15000000000006
30
0
40
0.99999999999999645
0
CIRCLE
5
316
100
AcDbEntity
8
0
100
AcDbCircle
10
-51.499999999999957
20
121.90000000000006
30
0
40
2.5499999999999989
0
CIRCLE
5
317
100
AcDbEntity
8
0
100
AcDbCircle
10
-85
20
166.15000000000006
30
0
40
0.99999999999999645
0
CIRCLE
5
318
100
AcDbEntity
8
0
100
AcDbCircle
10
-80
20
171.15000000000006
30
0
40
0.99999999999999645
0
LWPOLYLINE
5
319
100
AcDbEntity
8
0
100
AcDbPolyline
90
4
70
1
43
0.0
10
120.22063322165808
20
124.15000000000006
42
-0.99999999999999989
10
120.22063322165808
20
128.15000000000009
10
132.00000017945337
20
128.15000000000009
42
-0.99999999999999989
10
132.00000017945331
20
124.15000000000009
0
LWPOLYLINE
5
320
100
AcDbEntity
8
0
100
AcDbPolyline
90
8
70
1
43
0.0
10
5.0000000000000533
20
149.15000000000003
10
5.00000000000004
20
170.15000000000009
42
0.41421356237309781
10
3.0000000000000391
20
172.15000000000006
10
-2.9999999999999272
20
172.15000000000006
42
0.41421356237309781
10
-4.9999999999999334
20
170.15000000000009
10
-4.9999999999999387
20
149.15000000000006
42
0.41421356237309559
10
-2.9999999999999369
20
147.15000000000006
10
3.0000000000000582
20
147.15000000000006
42
0.41421356237309115
0
LWPOLYLINE
5
321
100
AcDbEntity
8
0
100
AcDbPolyline
90
4
70
1
43
0.0
10
136.00000017945337
20
134.15000000000006
10
116.22063322165815
20
134.15000000000006
42
0.99999999999999989
10
116.22063322165808
20
130.15000000000009
10
136.00000017945334
20
130.15000000000009
42
0.99999999999999989
0
LWPOLYLINE
5
322
100
AcDbEntity
8
0
100
AcDbPolyline
90
4
70
1
43
0.0
10
142.00000017945337
20
140.15000000000012
10
109.29456904458996
20
140.15000000000012
42
0.99999999999999989
10
109.29456904458993
20
136.15000000000012
10
142.00000017945334
20
136.15000000000012
42
0.99999999999999989
0
LWPOLYLINE
5
323
100
AcDbEntity
8
0
100
AcDbPolyline
90
4
70
1
43
0.0
10
144.00000017945337
20
146.15000000000009
10
122.46000017945337
20
146.15000000000009
42
0.99999999999999989
10
122.46000017945332
20
142.15000000000009
10
144.00000017945334
20
142.15000000000009
42
0.99999999999999989
0
LWPOLYLINE
5
324
100
AcDbEntity
8
0
100
AcDbPolyline
90
4
70
1
43
0.0
10
120.22061862972623
20
160.15000000000012
10
131.80000017945332
20
160.15000000000003
42
0.99999999999999989
10
131.80000017945338
20
164.15000000000003
10
120.22061862972627
20
164.15000000000006
42
0.99999999999999989
0
LWPOLYLINE
5
325
100
AcDbEntity
8
0
100
AcDbPolyline
90
4
70
1
43
0.0
10
116.22061862972629
20
154.15000000000009
42
-0.99999999999999989
10
116.22061862972629
20
158.15000000000009
10
135.80000017945335
20
158.15000000000003
42
-0.99999999999999989
10
135.80000017945332
20
154.15000000000009
0
LWPOLYLINE
5
326
100
AcDbEntity
8
0
100
AcDbPolyline
90
4
70
1
43
0.0
10
108.80000017945333
20
148.15000000000009
42
-0.99999999999999989
10
108.80000017945333
20
152.15000000000009
10
141.80000017945335
20
152.15000000000015
42
-0.99999999999999989
10
141.80000017945329
20
148.15000000000012
0
LWPOLYLINE
5
327
100
AcDbEntity
8
0
100
AcDbPolyline
90
4
70
1
43
0.0
10
95.130000179453333
20
142.15000000000009
42
-0.99999999999999989
10
95.130000179453333
20
146.15000000000012
10
116.46000017945335
20
146.15000000000006
42
-0.99999999999999989
10
116.46000017945332
20
142.15000000000009
0
LWPOLYLINE
5
328
100
AcDbEntity
8
0
100
AcDbPolyline
90
4
70
1
43
0.0
10
79.80000017945332
20
124.15000000000003
42
-0.99999999999999989
10
79.800000179453349
20
128.15000000000009
10
92.294569044590006
20
128.15000000000009
42
-0.99999999999999989
10
92.294569044589934
20
124.15000000000009
0
LWPOLYLINE
5
329
100
AcDbEntity
8
0
100
AcDbPolyline
90
4
70
1
43
0.0
10
75.800000179453377
20
130.15000000000006
42
-0.99999999999999989
10
75.800000179453349
20
134.15000000000009
10
96.294569044589977
20
134.15000000000009
42
-0.99999999999999989
10
96.294569044589934
20
130.15000000000009
0
LWPOLYLINE
5
330
100
AcDbEntity
8
0
100
AcDbPolyline
90
4
70
1
43
0.0
10
69.80000017945332
20
136.15000000000009
42
-0.99999999999999989
10
69.800000179453349
20
140.15000000000012
10
103.29456904458999
20
140.15000000000012
42
-0.99999999999999989
10
103.29456904458992
20
136.15000000000012
0
LWPOLYLINE
5
331
100
AcDbEntity
8
0
100
AcDbPolyline
90
4
70
1
43
0.0
10
67.800000179453377
20
142.15000000000009
42
-0.99999999999999989
10
67.800000179453349
20
146.15000000000012
10
89.130000179453361
20
146.15000000000012
42
-0.99999999999999989
10
89.130000179453333
20
142.15000000000009
0
LWPOLYLINE
5
332
100
AcDbEntity
8
0
100
AcDbPolyline
90
4
70
1
43
0.0
10
69.800000179453306
20
148.15000000000012
42
-0.99999999999999989
10
69.800000179453349
20
152.15000000000009
10
102.80000017945338
20
152.15000000000009
42
-0.99999999999999989
10
102.80000017945329
20
148.15000000000012
0
LWPOLYLINE
5
333
100
AcDbEntity
8
0
100
AcDbPolyline
90
4
70
1
43
0.0
10
95.800000179453349
20
158.15000000000009
42
-0.99999999999999989
10
95.800000179453349
20
154.15000000000009
10
75.800000179453292
20
154.15000000000015
42
-0.99999999999999989
10
75.800000179453377
20
158.15000000000009
0
CIRCLE
5
334
100
AcDbEntity
8
0
100
AcDbCircle
10
-135
20
156.15000000000006
30
0
40
0.99999999999999645
0
LWPOLYLINE
5
335
100
AcDbEntity
8
0
100
AcDbPolyline
90
4
70
1
43
0.0
10
91.800000179453349
20
164.14999999999998
42
-0.99999999999999989
10
91.800000179453349
20
160.15000000000009
10
79.800000179453292
20
160.15000000000009
42
-0.99999999999999989
10
79.800000179453406
20
164.15000000000006
0
CIRCLE
5
336
100
AcDbEntity
8
0
100
AcDbCircle
10
-130
20
161.15000000000006
30
0
40
0.99999999999999645
0
CIRCLE
5
337
100
AcDbEntity
8
0
100
AcDbCircle
10
-135
20
166.15000000000006
30
0
40
0.99999999999999645
0
CIRCLE
5
338
100
AcDbEntity
8
0
100
AcDbCircle
10
-135
20
171.15000000000006
30
0
40
0.99999999999999645
0
CIRCLE
5
339
100
AcDbEntity
8
0
100
AcDbCircle
10
-100
20
171.15000000000006
30
0
40
0.99999999999999645
0
CIRCLE
5
340
100
AcDbEntity
8
0
100
AcDbCircle
10
-120
20
171.15000000000006
30
0
40
0.99999999999999645
0
CIRCLE
5
341
100
AcDbEntity
8
0
100
AcDbCircle
10
-110
20
171.15000000000006
30
0
40
0.99999999999999645
0
CIRCLE
5
342
100
AcDbEntity
8
0
100
AcDbCircle
10
-90
20
161.15000000000006
30
0
40
0.99999999999999645
0
CIRCLE
5
343
100
AcDbEntity
8
0
100
AcDbCircle
10
-100
20
156.15000000000006
30
0
40
0.99999999999999645
0
CIRCLE
5
344
100
AcDbEntity
8
0
100
AcDbCircle
10
-120
20
161.15000000000006
30
0
40
0.99999999999999645
0
CIRCLE
5
345
100
AcDbEntity
8
0
100
AcDbCircle
10
-125
20
156.15000000000006
30
0
40
0.99999999999999645
0
CIRCLE
5
346
100
AcDbEntity
8
0
100
AcDbCircle
10
-105
20
161.15000000000006
30
0
40
0.99999999999999645
0
CIRCLE
5
347
100
AcDbEntity
8
0
100
AcDbCircle
10
-125
20
161.15000000000006
30
0
40
0.99999999999999645
0
CIRCLE
5
348
100
AcDbEntity
8
0
100
AcDbCircle
10
110.22061862972629
20
160.15000000000009
30
0
40
1.7500000000000071
0
CIRCLE
5
349
100
AcDbEntity
8
0
100
AcDbCircle
10
102.29456904458996
20
128.15000000000009
30
0
40
1.7500000000000071
0
CIRCLE
5
350
100
AcDbEntity
8
0
100
AcDbCircle
10
-110
20
161.15000000000006
30
0
40
0.99999999999999645
0
CIRCLE
5
351
100
AcDbEntity
8
0
100
AcDbCircle
10
-115
20
161.15000000000006
30
0
40
0.99999999999999645
0
CIRCLE
5
352
100
AcDbEntity
8
0
100
AcDbCircle
10
-100
20
161.15000000000006
30
0
40
0.99999999999999645
0
CIRCLE
5
353
100
AcDbEntity
8
0
100
AcDbCircle
10
-105
20
156.15000000000006
30
0
40
0.99999999999999645
0
CIRCLE
5
354
100
AcDbEntity
8
0
100
AcDbCircle
10
-120
20
166.15000000000006
30
0
40
0.99999999999999645
0
CIRCLE
5
355
100
AcDbEntity
8
0
100
AcDbCircle
10
-115
20
171.15000000000006
30
0
40
0.99999999999999645
0
CIRCLE
5
356
100
AcDbEntity
8
0
100
AcDbCircle
10
-100
20
166.15000000000006
30
0
40
0.99999999999999645
0
CIRCLE
5
357
100
AcDbEntity
8
0
100
AcDbCircle
10
-125
20
171.15000000000006
30
0
40
0.99999999999999645
0
CIRCLE
5
358
100
AcDbEntity
8
0
100
AcDbCircle
10
-130
20
171.15000000000006
30
0
40
0.99999999999999645
0
CIRCLE
5
359
100
AcDbEntity
8
0
100
AcDbCircle
10
-145
20
166.15000000000006
30
0
40
0.99999999999999645
0
CIRCLE
5
360
100
AcDbEntity
8
0
100
AcDbCircle
10
-135
20
161.15000000000006
30
0
40
0.99999999999999645
0
CIRCLE
5
361
100
AcDbEntity
8
0
100
AcDbCircle
10
-130
20
156.15000000000006
30
0
40
0.99999999999999645
0
CIRCLE
5
362
100
AcDbEntity
8
0
100
AcDbCircle
10
-140
20
156.15000000000006
30
0
40
0.99999999999999645
0
CIRCLE
5
363
100
AcDbEntity
8
0
100
AcDbCircle
10
-145
20
161.15000000000006
30
0
40
0.99999999999999645
0
CIRCLE
5
364
100
AcDbEntity
8
0
100
AcDbCircle
10
-145
20
171.15000000000006
30
0
40
0.99999999999999645
0
CIRCLE
5
365
100
AcDbEntity
8
0
100
AcDbCircle
10
-130
20
166.15000000000006
30
0
40
0.99999999999999645
0
CIRCLE
5
366
100
AcDbEntity
8
0
100
AcDbCircle
10
-95
20
171.15000000000006
30
0
40
0.99999999999999645
0
CIRCLE
5
367
100
AcDbEntity
8
0
100
AcDbCircle
10
-110
20
166.15000000000006
30
0
40
0.99999999999999645
0
CIRCLE
5
368
100
AcDbEntity
8
0
100
AcDbCircle
10
-105
20
171.15000000000006
30
0
40
0.99999999999999645
0
CIRCLE
5
369
100
AcDbEntity
8
0
100
AcDbCircle
10
-95
20
166.15000000000006
30
0
40
0.99999999999999645
0
CIRCLE
5
370
100
AcDbEntity
8
0
100
AcDbCircle
10
-125
20
166.15000000000006
30
0
40
0.99999999999999645
0
CIRCLE
5
371
100
AcDbEntity
8
0
100
AcDbCircle
10
-90
20
156.15000000000006
30
0
40
0.99999999999999645
0
CIRCLE
5
372
100
AcDbEntity
8
0
100
AcDbCircle
10
-115
20
156.15000000000006
30
0
40
0.99999999999999645
0
LWPOLYLINE
5
373
100
AcDbEntity
8
0
100
AcDbPolyline
90
4
70
1
43
0.0
10
-181.99425348181944
20
-177.00000058114526
10
-181.99425348181944
20
174.15000000000006
10
182.00000017945331
20
174.15000000000006
10
182.00000017945331
20
-177.00000058114526
0
SPLINE
5
374
100
AcDbEntity
8
0
100
AcDbSpline
70
1064
71
3
72
9
73
5
74
0
42
0.000000001
43
0.0000000001
44
0.0000000001
40
0
40
0
40
0
40
0
40
0.014742548939651318
40
0.03111118332041525
40
0.03111118332041525
40
0.03111118332041525
40
0.03111118332041525
10
-127.10350585937499
20
148.24791992187505
30
0
10
-127.06665830038997
20
148.21408756090855
30
0
10
-126.98889894092062
20
148.14269117019623
30
0
10
-126.88562495929936
20
148.11965772736548
30
0
10
-126.83128906249999
20
148.10753906250005
30
0
0
SPLINE
5
375
100
AcDbEntity
8
0
100
AcDbSpline
70
1064
71
3
72
9
73
5
74
0
42
0.000000001
43
0.0000000001
44
0.0000000001
40
0
40
0
40
0
40
0
40
0.017601950711008677
40
0.052759525233719448
40
0.052759525233719448
40
0.052759525233719448
40
0.052759525233719448
10
-126.83128906249999
20
148.10753906250005
30
0
10
-126.77270819189751
20
148.10406318905879
30
0
10
-126.59711976016575
20
148.09364471695059
30
0
10
-126.42118419458913
20
148.09465728335243
30
0
10
-126.30394531249999
20
148.09533203125005
30
0
0
LINE
5
376
100
AcDbEntity
8
0
100
AcDbLine
10
-126.30394531249999
20
148.09533203125005
30
0
11
-125.73998046874999
21
148.09533203125005
31
0
0
LINE
5
377
100
AcDbEntity
8
0
100
AcDbLine
10
-125.73998046874999
20
148.09533203125005
30
0
11
-125.73998046874999
21
149.00353515625005
31
0
0
LINE
5
378
100
AcDbEntity
8
0
100
AcDbLine
10
-125.73998046874999
20
149.00353515625005
30
0
11
-126.27464843749999
21
149.00353515625005
31
0
0
SPLINE
5
379
100
AcDbEntity
8
0
100
AcDbSpline
70
1064
71
3
72
9
73
5
74
0
42
0.000000001
43
0.0000000001
44
0.0000000001
40
0
40
0
40
0
40
0
40
0.042250614285941068
40
0.06519366376007743
40
0.06519366376007743
40
0.06519366376007743
40
0.06519366376007743
10
-126.27464843749999
20
149.00353515625005
30
0
10
-126.41589411760997
20
149.00524227623345
30
0
10
-126.63383943112267
20
149.00787640139529
30
0
10
-126.84851393478299
20
148.97215941709058
30
0
10
-126.92406249999999
20
148.95958984375005
30
0
0
SPLINE
5
380
100
AcDbEntity
8
0
100
AcDbSpline
70
1064
71
3
72
9
73
5
74
0
42
0.000000001
43
0.0000000001
44
0.0000000001
40
0
40
0
40
0
40
0
40
0.012994182651393902
40
0.025643194194935191
40
0.025643194194935191
40
0.025643194194935191
40
0.025643194194935191
10
-126.92406249999999
20
148.95958984375005
30
0
10
-126.96468467301408
20
148.94254314692847
30
0
10
-127.04484995152113
20
148.90890257339601
30
0
10
-127.09966206311891
20
148.84148011451398
30
0
10
-127.12669921874999
20
148.80822265625005
30
0
0
SPLINE
5
381
100
AcDbEntity
8
0
100
AcDbSpline
70
1064
71
3
72
9
73
5
74
0
42
0.000000001
43
0.0000000001
44
0.0000000001
40
0
40
0
40
0
40
0
40
0.013274830781537005
40
0.028158400995290801
40
0.028158400995290801
40
0.028158400995290801
40
0.028158400995290801
10
-127.12669921874999
20
148.80822265625005
30
0
10
-127.14804267799369
20
148.76879512816728
30
0
10
-127.19331615031898
20
148.68516196068828
30
0
10
-127.19765044561173
20
148.58997863027096
30
0
10
-127.19994140624999
20
148.53966796875005
30
0
0
SPLINE
5
382
100
AcDbEntity
8
0
100
AcDbSpline
70
1064
71
3
72
9
73
5
74
0
42
0.000000001
43
0.0000000001
44
0.0000000001
40
0
40
0
40
0
40
0
40
0.016503944622649779
40
0.03124775695667651
40
0.03124775695667651
40
0.03124775695667651
40
0.03124775695667651
10
-127.19994140624999
20
148.53966796875005
30
0
10
-127.19690966029282
20
148.48353263956653
30
0
10
-127.19116950162224
20
148.37724876846079
30
0
10
-127.13160875540015
20
148.28937969967441
30
0
10
-127.10350585937499
20
148.24791992187505
30
0
0
SPLINE
5
383
100
AcDbEntity
8
0
100
AcDbSpline
70
1064
71
3
72
9
73
5
74
0
42
0.000000001
43
0.0000000001
44
0.0000000001
40
0
40
0
40
0
40
0
40
0.054132721463045812
40
0.097259501635637624
40
0.097259501635637624
40
0.097259501635637624
40
0.097259501635637624
10
-117.03392578124999
20
149.26720703125005
30
0
10
-117.02874696986477
20
149.08269244975983
30
0
10
-117.01944227206319
20
148.75117768835077
30
0
10
-116.84257626464074
20
148.47271439465274
30
0
10
-116.76415039062499
20
148.34923828125005
30
0
0
SPLINE
5
384
100
AcDbEntity
8
0
100
AcDbSpline
70
1064
71
3
72
9
73
5
74
0
42
0.000000001
43
0.0000000001
44
0.0000000001
40
0
40
0
40
0
40
0
40
0.038751039971732133
40
0.079709052098357006
40
0.079709052098357006
40
0.079709052098357006
40
0.079709052098357006
10
-116.76415039062499
20
148.34923828125005
30
0
10
-116.66488855183161
20
148.26095957425804
30
0
10
-116.46071165527519
20
148.07937445912475
30
0
10
-116.18782090847236
20
148.057661155429
30
0
10
-116.04759765624999
20
148.04650390625005
30
0
0
SPLINE
5
385
100
AcDbEntity
8
0
100
AcDbSpline
70
1064
71
3
72
9
73
5
74
0
42
0.000000001
43
0.0000000001
44
0.0000000001
40
0
40
0
40
0
40
0
40
0.041064970668656608
40
0.080199561528842528
40
0.080199561528842528
40
0.080199561528842528
40
0.080199561528842528
10
-116.04759765624999
20
148.04650390625005
30
0
10
-115.90705397803708
20
148.05799580866091
30
0
10
-115.63257329085302
20
148.08043940278691
30
0
10
-115.42746735884037
20
148.26354919424961
30
0
10
-115.32738281249999
20
148.35290039062505
30
0
0
SPLINE
5
386
100
AcDbEntity
8
0
100
AcDbSpline
70
1064
71
3
72
9
73
5
74
0
42
0.000000001
43
0.0000000001
44
0.0000000001
40
0
40
0
40
0
40
0
40
0.043552176655469628
40
0.097968852269891119
40
0.097968852269891119
40
0.097968852269891119
40
0.097968852269891119
10
-115.32738281249999
20
148.35290039062505
30
0
10
-115.24788246706709
20
148.47742680254572
30
0
10
-115.06904966936943
20
148.75754390782075
30
0
10
-115.0593390588717
20
149.09148531962094
30
0
10
-115.05394531249999
20
149.27697265625005
30
0
0
SPLINE
5
387
100
AcDbEntity
8
0
100
AcDbSpline
70
1064
71
3
72
9
73
5
74
0
42
0.000000001
43
0.0000000001
44
0.0000000001
40
0
40
0
40
0
40
0
40
0.053895295799269813
40
0.097976677700870693
40
0.097976677700870693
40
0.097976677700870693
40
0.097976677700870693
10
-115.05394531249999
20
149.27697265625005
30
0
10
-115.06017396994503
20
149.46067478074016
30
0
10
-115.07149709479205
20
149.79462830260533
30
0
10
-115.25303156868372
20
150.07324782870566
30
0
10
-115.33470703124999
20
150.19860351562505
30
0
0
SPLINE
5
388
100
AcDbEntity
8
0
100
AcDbSpline
70
1064
71
3
72
9
73
5
74
0
42
0.000000001
43
0.0000000001
44
0.0000000001
40
0
40
0
40
0
40
0
40
0.039606796440296653
40
0.079807992578268844
40
0.079807992578268844
40
0.079807992578268844
40
0.079807992578268844
10
-115.33470703124999
20
150.19860351562505
30
0
10
-115.43513040718597
20
150.29010394789614
30
0
10
-115.63748426464738
20
150.47447800679299
30
0
10
-115.91021610179578
20
150.49964633127959
30
0
10
-116.04759765624999
20
150.51232421875005
30
0
0
SPLINE
5
389
100
AcDbEntity
8
0
100
AcDbSpline
70
1064
71
3
72
9
73
5
74
0
42
0.000000001
43
0.0000000001
44
0.0000000001
40
0
40
0
40
0
40
0
40
0.040099517028413897
40
0.079376600406916048
40
0.079376600406916048
40
0.079376600406916048
40
0.079376600406916048
10
-116.04759765624999
20
150.51232421875005
30
0
10
-116.18469113760344
20
150.49990022551572
30
0
10
-116.45606633845875
20
150.47530705284177
30
0
10
-116.65726778753223
20
150.29183196060725
30
0
10
-116.75682617187499
20
150.20104492187505
30
0
0
SPLINE
5
390
100
AcDbEntity
8
0
100
AcDbSpline
70
1064
71
3
72
9
73
5
74
0
42
0.000000001
43
0.0000000001
44
0.0000000001
40
0
40
0
40
0
40
0
40
0.044112269822414896
40
0.099024867568756891
40
0.099024867568756891
40
0.099024867568756891
40
0.099024867568756891
10
-116.75682617187499
20
150.20104492187505
30
0
10
-116.83739921620509
20
150.07494601442397
30
0
10
-117.01827258945293
20
149.79187448667952
30
0
10
-117.02834197211789
20
149.4543664915648
30
0
10
-117.03392578124999
20
149.26720703125005
30
0
0
SPLINE
5
391
100
AcDbEntity
8
0
100
AcDbSpline
70
1064
71
3
72
9
73
5
74
0
42
0.000000001
43
0.0000000001
44
0.0000000001
40
0
40
0
40
0
40
0
40
0.054132721463045812
40
0.097259501635637624
40
0.097259501635637624
40
0.097259501635637624
40
0.097259501635637624
10
-105.09056640624999
20
149.26720703125005
30
0
10
-105.08538759486477
20
149.08269244975983
30
0
10
-105.07608289706319
20
148.75117768835077
30
0
10
-104.89921688964075
20
148.47271439465274
30
0
10
-104.82079101562499
20
148.34923828125005
30
0
0
SPLINE
5
392
100
AcDbEntity
8
0
100
AcDbSpline
70
1064
71
3
72
9
73
5
74
0
42
0.000000001
43
0.0000000001
44
0.0000000001
40
0
40
0
40
0
40
0
40
0.038751039971732133
40
0.079709052098357006
40
0.079709052098357006
40
0.079709052098357006
40
0.079709052098357006
10
-104.82079101562499
20
148.34923828125005
30
0
10
-104.72152917683161
20
148.26095957425804
30
0
10
-104.51735228027519
20
148.07937445912475
30
0
10
-104.24446153347236
20
148.057661155429
30
0
10
-104.10423828124999
20
148.04650390625005
30
0
0
SPLINE
5
393
100
AcDbEntity
8
0
100
AcDbSpline
70
1064
71
3
72
9
73
5
74
0
42
0.000000001
43
0.0000000001
44
0.0000000001
40
0
40
0
40
0
40
0
40
0.041064970668656608
40
0.080199561528842528
40
0.080199561528842528
40
0.080199561528842528
40
0.080199561528842528
10
-104.10423828124999
20
148.04650390625005
30
0
10
-103.96369460303708
20
148.05799580866091
30
0
10
-103.68921391585302
20
148.08043940278688
30
0
10
-103.48410798384037
20
148.26354919424961
30
0
10
-103.38402343749999
20
148.35290039062505
30
0
0
SPLINE
5
394
100
AcDbEntity
8
0
100
AcDbSpline
70
1064
71
3
72
9
73
5
74
0
42
0.000000001
43
0.0000000001
44
0.0000000001
40
0
40
0
40
0
40
0
40
0.043552176655469628
40
0.097968852269891119
40
0.097968852269891119
40
0.097968852269891119
40
0.097968852269891119
10
-103.38402343749999
20
148.35290039062505
30
0
10
-103.30452309206709
20
148.47742680254572
30
0
10
-103.12569029436942
20
148.75754390782075
30
0
10
-103.1159796838717
20
149.09148531962094
30
0
10
-103.11058593749999
20
149.27697265625005
30
0
0
SPLINE
5
395
100
AcDbEntity
8
0
100
AcDbSpline
70
1064
71
3
72
9
73
5
74
0
42
0.000000001
43
0.0000000001
44
0.0000000001
40
0
40
0
40
0
40
0
40
0.053895295799269813
40
0.097976677700870693
40
0.097976677700870693
40
0.097976677700870693
40
0.097976677700870693
10
-103.11058593749999
20
149.27697265625005
30
0
10
-103.11681459494503
20
149.46067478074016
30
0
10
-103.12813771979205
20
149.79462830260533
30
0
10
-103.30967219368372
20
150.07324782870566
30
0
10
-103.39134765624999
20
150.19860351562505
30
0
0
SPLINE
5
396
100
AcDbEntity
8
0
100
AcDbSpline
70
1064
71
3
72
9
73
5
74
0
42
0.000000001
43
0.0000000001
44
0.0000000001
40
0
40
0
40
0
40
0
40
0.039606796440296653
40
0.079807992578268844
40
0.079807992578268844
40
0.079807992578268844
40
0.079807992578268844
10
-103.39134765624999
20
150.19860351562505
30
0
10
-103.49177103218597
20
150.29010394789614
30
0
10
-103.69412488964738
20
150.47447800679299
30
0
10
-103.96685672679578
20
150.49964633127959
30
0
10
-104.10423828124999
20
150.51232421875005
30
0
0
SPLINE
5
397
100
AcDbEntity
8
0
100
AcDbSpline
70
1064
71
3
72
9
73
5
74
0
42
0.000000001
43
0.0000000001
44
0.0000000001
40
0
40
0
40
0
40
0
40
0.040099517028413897
40
0.079376600406916048
40
0.079376600406916048
40
0.079376600406916048
40
0.079376600406916048
10
-104.10423828124999
20
150.51232421875005
30
0
10
-104.24133176260344
20
150.49990022551572
30
0
10
-104.51270696345875
20
150.47530705284177
30
0
10
-104.71390841253223
20
150.29183196060725
30
0
10
-104.81346679687499
20
150.20104492187505
30
0
0
SPLINE
5
398
100
AcDbEntity
8
0
100
AcDbSpline
70
1064
71
3
72
9
73
5
74
0
42
0.000000001
43
0.0000000001
44
0.0000000001
40
0
40
0
40
0
40
0
40
0.044112269822414896
40
0.099024867568756891
40
0.099024867568756891
40
0.099024867568756891
40
0.099024867568756891
10
-104.81346679687499
20
150.20104492187505
30
0
10
-104.89403984120509
20
150.07494601442397
30
0
10
-105.07491321445293
20
149.79187448667952
30
0
10
-105.08498259711789
20
149.4543664915648
30
0
10
-105.09056640624999
20
149.26720703125005
30
0
0
SPLINE
5
399
100
AcDbEntity
8
0
100
AcDbSpline
70
1064
71
3
72
9
73
5
74
0
42
0.000000001
43
0.0000000001
44
0.0000000001
40
0
40
0
40
0
40
0
40
0.054132721463045812
40
0.097259501635637624
40
0.097259501635637624
40
0.097259501635637624
40
0.097259501635637624
10
-96.201406249999991
20
149.26720703125005
30
0
10
-96.196227438614784
20
149.08269244975983
30
0
10
-96.186922740813188
20
148.75117768835077
30
0
10
-96.010056733390755
20
148.47271439465274
30
0
10
-95.931630859374991
20
148.34923828125005
30
0
0
SPLINE
5
400
100
AcDbEntity
8
0
100
AcDbSpline
70
1064
71
3
72
9
73
5
74
0
42
0.000000001
43
0.0000000001
44
0.0000000001
40
0
40
0
40
0
40
0
40
0.038751039971732133
40
0.079709052098357006
40
0.079709052098357006
40
0.079709052098357006
40
0.079709052098357006
10
-95.931630859374991
20
148.34923828125005
30
0
10
-95.832369020581609
20
148.26095957425804
30
0
10
-95.62819212402519
20
148.07937445912475
30
0
10
-95.355301377222361
20
148.057661155429
30
0
10
-95.215078124999991
20
148.04650390625005
30
0
0
SPLINE
5
401
100
AcDbEntity
8
0
100
AcDbSpline
70
1064
71
3
72
9
73
5
74
0
42
0.000000001
43
0.0000000001
44
0.0000000001
40
0
40
0
40
0
40
0
40
0.041064970668656608
40
0.080199561528842528
40
0.080199561528842528
40
0.080199561528842528
40
0.080199561528842528
10
-95.215078124999991
20
148.04650390625005
30
0
10
-95.074534446787084
20
148.05799580866091
30
0
10
-94.800053759603017
20
148.08043940278688
30
0
10
-94.594947827590374
20
148.26354919424961
30
0
10
-94.494863281249991
20
148.35290039062505
30
0
0
SPLINE
5
402
100
AcDbEntity
8
0
100
AcDbSpline
70
1064
71
3
72
9
73
5
74
0
42
0.000000001
43
0.0000000001
44
0.0000000001
40
0
40
0
40
0
40
0
40
0.043552176655469628
40
0.097968852269891119
40
0.097968852269891119
40
0.097968852269891119
40
0.097968852269891119
10
-94.494863281249991
20
148.35290039062505
30
0
10
-94.415362935817086
20
148.47742680254572
30
0
10
-94.23653013811942
20
148.75754390782075
30
0
10
-94.2268195276217
20
149.09148531962094
30
0
10
-94.221425781249991
20
149.27697265625005
30
0
0
SPLINE
5
403
100
AcDbEntity
8
0
100
AcDbSpline
70
1064
71
3
72
9
73
5
74
0
42
0.000000001
43
0.0000000001
44
0.0000000001
40
0
40
0
40
0
40
0
40
0.053895295799269813
40
0.097976677700870693
40
0.097976677700870693
40
0.097976677700870693
40
0.097976677700870693
10
-94.221425781249991
20
149.27697265625005
30
0
10
-94.227654438695026
20
149.46067478074016
30
0
10
-94.238977563542051
20
149.79462830260533
30
0
10
-94.420512037433724
20
150.07324782870566
30
0
10
-94.502187499999991
20
150.19860351562505
30
0
0
SPLINE
5
404
100
AcDbEntity
8
0
100
AcDbSpline
70
1064
71
3
72
9
73
5
74
0
42
0.000000001
43
0.0000000001
44
0.0000000001
40
0
40
0
40
0
40
0
40
0.039606796440296653
40
0.079807992578268844
40
0.079807992578268844
40
0.079807992578268844
40
0.079807992578268844
10
-94.502187499999991
20
150.19860351562505
30
0
10
-94.602610875935952
20
150.29010394789614
30
0
10
-94.804964733397384
20
150.47447800679299
30
0
10
-95.077696570545783
20
150.49964633127959
30
0
10
-95.215078124999991
20
150.51232421875005
30
0
0
SPLINE
5
405
100
AcDbEntity
8
0
100
AcDbSpline
70
1064
71
3
72
9
73
5
74
0
42
0.000000001
43
0.0000000001
44
0.0000000001
40
0
40
0
40
0
40
0
40
0.040099517028413897
40
0.079376600406916048
40
0.079376600406916048
40
0.079376600406916048
40
0.079376600406916048
10
-95.215078124999991
20
150.51232421875005
30
0
10
-95.352171606353465
20
150.49990022551572
30
0
10
-95.623546807208754
20
150.47530705284177
30
0
10
-95.824748256282234
20
150.29183196060725
30
0
10
-95.924306640624991
20
150.20104492187505
30
0
0
SPLINE
5
406
100
AcDbEntity
8
0
100
AcDbSpline
70
1064
71
3
72
9
73
5
74
0
42
0.000000001
43
0.0000000001
44
0.0000000001
40
0
40
0
40
0
40
0
40
0.044112269822414896
40
0.099024867568756891
40
0.099024867568756891
40
0.099024867568756891
40
0.099024867568756891
10
-95.924306640624991
20
150.20104492187505
30
0
10
-96.004879684955085
20
150.07494601442397
30
0
10
-96.185753058202934
20
149.79187448667952
30
0
10
-96.195822440867886
20
149.4543664915648
30
0
10
-96.201406249999991
20
149.26720703125005
30
0
0
SPLINE
5
407
100
AcDbEntity
8
0
100
AcDbSpline
70
1064
71
3
72
9
73
5
74
0
42
0.000000001
43
0.0000000001
44
0.0000000001
40
0
40
0
40
0
40
0
40
0.021640556693399645
40
0.040590965258170186
40
0.040590965258170186
40
0.040590965258170186
40
0.040590965258170186
10
-92.190175781249991
20
148.64464843750005
30
0
10
-92.164960293512337
20
148.57627030423151
30
0
10
-92.117663867582621
20
148.44801415670054
30
0
10
-92.027289895114137
20
148.3457241438997
30
0
10
-91.985097656249991
20
148.29796875000005
30
0
0
SPLINE
5
408
100
AcDbEntity
8
0
100
AcDbSpline
70
1064
71
3
72
9
73
5
74
0
42
0.000000001
43
0.0000000001
44
0.0000000001
40
0
40
0
40
0
40
0
40
0.01823572767351227
40
0.037808323376485153
40
0.037808323376485153
40
0.037808323376485153
40
0.037808323376485153
10
-91.985097656249991
20
148.29796875000005
30
0
10
-91.937082577175147
20
148.25958859602463
30
0
10
-91.837532415585116
20
148.18001462460313
30
0
10
-91.714379002860582
20
148.14673822843213
30
0
10
-91.650624999999991
20
148.12951171875005
30
0
0
SPLINE
5
409
100
AcDbEntity
8
0
100
AcDbSpline
70
1064
71
3
72
9
73
5
74
0
42
0.000000001
43
0.0000000001
44
0.0000000001
40
0
40
0
40
0
40
0
40
0.022546109134305714
40
0.059482264028839889
40
0.059482264028839889
40
0.059482264028839889
40
0.059482264028839889
10
-91.650624999999991
20
148.12951171875005
30
0
10
-91.576047210425344
20
148.11967687089034
30
0
10
-91.379292384848071
20
148.09373008718634
30
0
10
-91.180688506537152
20
148.09471835541166
30
0
10
-91.057363281249991
20
148.09533203125005
30
0
0
LINE
5
410
100
AcDbEntity
8
0
100
AcDbLine
10
-91.057363281249991
20
148.09533203125005
30
0
11
-90.732656249999991
21
148.09533203125005
31
0
0
LINE
5
411
100
AcDbEntity
8
0
100
AcDbLine
10
-90.732656249999991
20
148.09533203125005
30
0
11
-90.732656249999991
21
150.46593750000005
31
0
0
LINE
5
412
100
AcDbEntity
8
0
100
AcDbLine
10
-90.732656249999991
20
150.46593750000005
30
0
11
-91.272207031249991
21
150.46593750000005
31
0
0
SPLINE
5
413
100
AcDbEntity
8
0
100
AcDbSpline
70
1064
71
3
72
9
73
5
74
0
42
0.000000001
43
0.0000000001
44
0.0000000001
40
0
40
0
40
0
40
0
40
0.026076016024821753
40
0.043900476272030482
40
0.043900476272030482
40
0.043900476272030482
40
0.043900476272030482
10
-91.272207031249991
20
150.46593750000005
30
0
10
-91.359334901980446
20
150.46595584620448
30
0
10
-91.50601969531678
20
150.46598673309728
30
0
10
-91.650540464096167
20
150.44164218126406
30
0
10
-91.709218749999991
20
150.43175781250005
30
0
0
SPLINE
5
414
100
AcDbEntity
8
0
100
AcDbSpline
70
1064
71
3
72
9
73
5
74
0
42
0.000000001
43
0.0000000001
44
0.0000000001
40
0
40
0
40
0
40
0
40
0.017137868704818881
40
0.033009268643522174
40
0.033009268643522174
40
0.033009268643522174
40
0.033009268643522174
10
-91.709218749999991
20
150.43175781250005
30
0
10
-91.764511877486967
20
150.41528332310284
30
0
10
-91.871012033999691
20
150.38355179010748
30
0
10
-91.958770892535767
20
150.31553542138201
30
0
10
-92.000966796874991
20
150.28283203125005
30
0
0
SPLINE
5
415
100
AcDbEntity
8
0
100
AcDbSpline
70
1064
71
3
72
9
73
5
74
0
42
0.000000001
43
0.0000000001
44
0.0000000001
40
0
40
0
40
0
40
0
40
0.01742577761402276
40
0.03972562994551216
40
0.03972562994551216
40
0.03972562994551216
40
0.03972562994551216
10
-92.000966796874991
20
150.28283203125005
30
0
10
-92.038964830022536
20
150.2381986860216
30
0
10
-92.125589130923828
20
150.13644783191057
30
0
10
-92.166955119161031
20
150.00894586092249
30
0
10
-92.190175781249991
20
149.93737304687505
30
0
0
SPLINE
5
416
100
AcDbEntity
8
0
100
AcDbSpline
70
1064
71
3
72
9
73
5
74
0
42
0.000000001
43
0.0000000001
44
0.0000000001
40
0
40
0
40
0
40
0
40
0.028938018894074768
40
0.066123021004916183
40
0.066123021004916183
40
0.066123021004916183
40
0.066123021004916183
10
-92.190175781249991
20
149.93737304687505
30
0
10
-92.211453670905627
20
149.84302499955683
30
0
10
-92.260073389822423
20
149.62744085962552
30
0
10
-92.262214110901098
20
149.4062465189474
30
0
10
-92.263417968749991
20
149.28185546875005
30
0
0
SPLINE
5
417
100
AcDbEntity
8
0
100
AcDbSpline
70
1064
71
3
72
9
73
5
74
0
42
0.000000001
43
0.0000000001
44
0.0000000001
40
0
40
0
40
0
40
0
40
0.036727800674194441
40
0.064318729386370732
40
0.064318729386370732
40
0.064318729386370732
40
0.064318729386370732
10
-92.263417968749991
20
149.28185546875005
30
0
10
-92.26253098282136
20
149.15892540636926
30
0
10
-92.260977668795874
20
148.94364691785159
30
0
10
-92.211430237771538
20
148.73440664057793
30
0
10
-92.190175781249991
20
148.64464843750005
30
0
0
SPLINE
5
418
100
AcDbEntity
8
0
100
AcDbSpline
70
1064
71
3
72
9
73
5
74
0
42
0.000000001
43
0.0000000001
44
0.0000000001
40
0
40
0
40
0
40
0
40
0.014742548939651318
40
0.03111118332041525
40
0.03111118332041525
40
0.03111118332041525
40
0.03111118332041525
10
88.266644101874036
20
117.24791992187507
30
0
10
88.303491660859066
20
117.21408756090858
30
0
10
88.381251020328406
20
117.14269117019626
30
0
10
88.484525001949663
20
117.11965772736549
30
0
10
88.538860898749036
20
117.10753906250007
30
0
0
SPLINE
5
419
100
AcDbEntity
8
0
100
AcDbSpline
70
1064
71
3
72
9
73
5
74
0
42
0.000000001
43
0.0000000001
44
0.0000000001
40
0
40
0
40
0
40
0
40
0.017601950711008677
40
0.052759525233719448
40
0.052759525233719448
40
0.052759525233719448
40
0.052759525233719448
10
88.538860898749036
20
117.10753906250007
30
0
10
88.597441769351519
20
117.10406318905882
30
0
10
88.773030201083273
20
117.09364471695062
30
0
10
88.948965766659882
20
117.09465728335245
30
0
10
89.066204648749036
20
117.09533203125007
30
0
0
LINE
5
420
100
AcDbEntity
8
0
100
AcDbLine
10
89.066204648749036
20
117.09533203125007
30
0
11
89.630169492499036
21
117.09533203125007
31
0
0
LINE
5
421
100
AcDbEntity
8
0
100
AcDbLine
10
89.630169492499036
20
117.09533203125007
30
0
11
89.630169492499036
21
118.00353515625007
31
0
0
LINE
5
422
100
AcDbEntity
8
0
100
AcDbLine
10
89.630169492499036
20
118.00353515625007
30
0
11
89.095501523749036
21
118.00353515625007
31
0
0
SPLINE
5
423
100
AcDbEntity
8
0
100
AcDbSpline
70
1064
71
3
72
9
73
5
74
0
42
0.000000001
43
0.0000000001
44
0.0000000001
40
0
40
0
40
0
40
0
40
0.042250614285941068
40
0.06519366376007743
40
0.06519366376007743
40
0.06519366376007743
40
0.06519366376007743
10
89.095501523749036
20
118.00353515625007
30
0
10
88.954255843639061
20
118.00524227623345
30
0
10
88.73631053012636
20
118.00787640139532
30
0
10
88.521636026466041
20
117.97215941709061
30
0
10
88.446087461249036
20
117.95958984375007
30
0
0
SPLINE
5
424
100
AcDbEntity
8
0
100
AcDbSpline
70
1064
71
3
72
9
73
5
74
0
42
0.000000001
43
0.0000000001
44
0.0000000001
40
0
40
0
40
0
40
0
40
0.012994182651393902
40
0.025643194194935191
40
0.025643194194935191
40
0.025643194194935191
40
0.025643194194935191
10
88.446087461249036
20
117.95958984375007
30
0
10
88.40546528823495
20
117.94254314692849
30
0
10
88.325300009727897
20
117.90890257339603
30
0
10
88.270487898130114
20
117.84148011451401
30
0
10
88.243450742499036
20
117.80822265625007
30
0
0
SPLINE
5
425
100
AcDbEntity
8
0
100
AcDbSpline
70
1064
71
3
72
9
73
5
74
0
42
0.000000001
43
0.0000000001
44
0.0000000001
40
0
40
0
40
0
40
0
40
0.013274830781537005
40
0.028158400995290801
40
0.028158400995290801
40
0.028158400995290801
40
0.028158400995290801
10
88.243450742499036
20
117.80822265625007
30
0
10
88.222107283255326
20
117.76879512816731
30
0
10
88.176833810930049
20
117.68516196068829
30
0
10
88.172499515637298
20
117.58997863027099
30
0
10
88.170208554999036
20
117.53966796875007
30
0
0
SPLINE
5
426
100
AcDbEntity
8
0
100
AcDbSpline
70
1064
71
3
72
9
73
5
74
0
42
0.000000001
43
0.0000000001
44
0.0000000001
40
0
40
0
40
0
40
0
40
0.016503944622649779
40
0.03124775695667651
40
0.03124775695667651
40
0.03124775695667651
40
0.03124775695667651
10
88.170208554999036
20
117.53966796875007
30
0
10
88.173240300956209
20
117.48353263956656
30
0
10
88.178980459626786
20
117.37724876846082
30
0
10
88.238541205848861
20
117.28937969967444
30
0
10
88.266644101874036
20
117.24791992187507
30
0
0
SPLINE
5
427
100
AcDbEntity
8
0
100
AcDbSpline
70
1064
71
3
72
9
73
5
74
0
42
0.000000001
43
0.0000000001
44
0.0000000001
40
0
40
0
40
0
40
0
40
0.054132721463045812
40
0.097259501635637624
40
0.097259501635637624
40
0.097259501635637624
40
0.097259501635637624
10
98.336224179999036
20
118.26720703125007
30
0
10
98.341402991384257
20
118.08269244975986
30
0
10
98.350707689185839
20
117.75117768835077
30
0
10
98.527573696608286
20
117.47271439465277
30
0
10
98.605999570624036
20
117.34923828125007
30
0
0
SPLINE
5
428
100
AcDbEntity
8
0
100
AcDbSpline
70
1064
71
3
72
9
73
5
74
0
42
0.000000001
43
0.0000000001
44
0.0000000001
40
0
40
0
40
0
40
0
40
0.038751039971732133
40
0.079709052098357006
40
0.079709052098357006
40
0.079709052098357006
40
0.079709052098357006
10
98.605999570624036
20
117.34923828125007
30
0
10
98.705261409417417
20
117.26095957425807
30
0
10
98.909438305973822
20
117.07937445912478
30
0
10
99.182329052776652
20
117.05766115542902
30
0
10
99.322552304999036
20
117.04650390625007
30
0
0
SPLINE
5
429
100
AcDbEntity
8
0
100
AcDbSpline
70
1064
71
3
72
9
73
5
74
0
42
0.000000001
43
0.0000000001
44
0.0000000001
40
0
40
0
40
0
40
0
40
0.041064970668656608
40
0.080199561528842528
40
0.080199561528842528
40
0.080199561528842528
40
0.080199561528842528
10
99.322552304999036
20
117.04650390625007
30
0
10
99.463095983211943
20
117.05799580866093
30
0
10
99.73757667039601
20
117.08043940278692
30
0
10
99.942682602408652
20
117.26354919424963
30
0
10
100.04276714874904
20
117.35290039062507
30
0
0
SPLINE
5
430
100
AcDbEntity
8
0
100
AcDbSpline
70
1064
71
3
72
9
73
5
74
0
42
0.000000001
43
0.0000000001
44
0.0000000001
40
0
40
0
40
0
40
0
40
0.043552176655469628
40
0.097968852269891119
40
0.097968852269891119
40
0.097968852269891119
40
0.097968852269891119
10
100.04276714874904
20
117.35290039062507
30
0
10
100.12226749418193
20
117.47742680254575
30
0
10
100.30110029187959
20
117.75754390782078
30
0
10
100.31081090237733
20
118.09148531962096
30
0
10
100.31620464874904
20
118.27697265625007
30
0
0
SPLINE
5
431
100
AcDbEntity
8
0
100
AcDbSpline
70
1064
71
3
72
9
73
5
74
0
42
0.000000001
43
0.0000000001
44
0.0000000001
40
0
40
0
40
0
40
0
40
0.053895295799269813
40
0.097976677700870693
40
0.097976677700870693
40
0.097976677700870693
40
0.097976677700870693
10
100.31620464874904
20
118.27697265625007
30
0
10
100.309975991304
20
118.46067478074018
30
0
10
100.29865286645699
20
118.79462830260536
30
0
10
100.11711839256532
20
119.07324782870569
30
0
10
100.03544292999904
20
119.19860351562507
30
0
0
SPLINE
5
432
100
AcDbEntity
8
0
100
AcDbSpline
70
1064
71
3
72
9
73
5
74
0
42
0.000000001
43
0.0000000001
44
0.0000000001
40
0
40
0
40
0
40
0
40
0.039606796440296653
40
0.079807992578268844
40
0.079807992578268844
40
0.079807992578268844
40
0.079807992578268844
10
100.03544292999904
20
119.19860351562507
30
0
10
99.935019554063047
20
119.29010394789616
30
0
10
99.732665696601657
20
119.47447800679302
30
0
10
99.459933859453258
20
119.49964633127962
30
0
10
99.322552304999036
20
119.51232421875007
30
0
0
SPLINE
5
433
100
AcDbEntity
8
0
100
AcDbSpline
70
1064
71
3
72
9
73
5
74
0
42
0.000000001
43
0.0000000001
44
0.0000000001
40
0
40
0
40
0
40
0
40
0.040099517028413897
40
0.079376600406916048
40
0.079376600406916048
40
0.079376600406916048
40
0.079376600406916048
10
99.322552304999036
20
119.51232421875007
30
0
10
99.185458823645575
20
119.49990022551573
30
0
10
98.914083622790258
20
119.47530705284179
30
0
10
98.712882173716793
20
119.29183196060727
30
0
10
98.613323789374036
20
119.20104492187507
30
0
0
SPLINE
5
434
100
AcDbEntity
8
0
100
AcDbSpline
70
1064
71
3
72
9
73
5
74
0
42
0.000000001
43
0.0000000001
44
0.0000000001
40
0
40
0
40
0
40
0
40
0.044112269822414896
40
0.099024867568756891
40
0.099024867568756891
40
0.099024867568756891
40
0.099024867568756891
10
98.613323789374036
20
119.20104492187507
30
0
10
98.532750745043941
20
119.074946014424
30
0
10
98.351877371796093
20
118.79187448667955
30
0
10
98.341807989131127
20
118.45436649156483
30
0
10
98.336224179999036
20
118.26720703125007
30
0
0
SPLINE
5
435
100
AcDbEntity
8
0
100
AcDbSpline
70
1064
71
3
72
9
73
5
74
0
42
0.000000001
43
0.0000000001
44
0.0000000001
40
0
40
0
40
0
40
0
40
0.054132721463045812
40
0.097259501635637624
40
0.097259501635637624
40
0.097259501635637624
40
0.097259501635637624
10
110.27958355499904
20
118.26720703125007
30
0
10
110.28476236638426
20
118.08269244975986
30
0
10
110.29406706418584
20
117.75117768835077
30
0
10
110.47093307160827
20
117.47271439465277
30
0
10
110.54935894562404
20
117.34923828125007
30
0
0
SPLINE
5
436
100
AcDbEntity
8
0
100
AcDbSpline
70
1064
71
3
72
9
73
5
74
0
42
0.000000001
43
0.0000000001
44
0.0000000001
40
0
40
0
40
0
40
0
40
0.038751039971732133
40
0.079709052098357006
40
0.079709052098357006
40
0.079709052098357006
40
0.079709052098357006
10
110.54935894562404
20
117.34923828125007
30
0
10
110.64862078441742
20
117.26095957425807
30
0
10
110.85279768097382
20
117.07937445912478
30
0
10
111.12568842777665
20
117.05766115542902
30
0
10
111.26591167999904
20
117.04650390625007
30
0
0
SPLINE
5
437
100
AcDbEntity
8
0
100
AcDbSpline
70
1064
71
3
72
9
73
5
74
0
42
0.000000001
43
0.0000000001
44
0.0000000001
40
0
40
0
40
0
40
0
40
0.041064970668656608
40
0.080199561528842528
40
0.080199561528842528
40
0.080199561528842528
40
0.080199561528842528
10
111.26591167999904
20
117.04650390625007
30
0
10
111.40645535821194
20
117.05799580866092
30
0
10
111.68093604539601
20
117.08043940278691
30
0
10
111.88604197740865
20
117.26354919424963
30
0
10
111.98612652374904
20
117.35290039062507
30
0
0
SPLINE
5
438
100
AcDbEntity
8
0
100
AcDbSpline
70
1064
71
3
72
9
73
5
74
0
42
0.000000001
43
0.0000000001
44
0.0000000001
40
0
40
0
40
0
40
0
40
0.043552176655469628
40
0.097968852269891119
40
0.097968852269891119
40
0.097968852269891119
40
0.097968852269891119
10
111.98612652374904
20
117.35290039062507
30
0
10
112.06562686918193
20
117.47742680254575
30
0
10
112.24445966687961
20
117.75754390782078
30
0
10
112.25417027737733
20
118.09148531962096
30
0
10
112.25956402374904
20
118.27697265625007
30
0
0
SPLINE
5
439
100
AcDbEntity
8
0
100
AcDbSpline
70
1064
71
3
72
9
73
5
74
0
42
0.000000001
43
0.0000000001
44
0.0000000001
40
0
40
0
40
0
40
0
40
0.053895295799269813
40
0.097976677700870693
40
0.097976677700870693
40
0.097976677700870693
40
0.097976677700870693
10
112.25956402374904
20
118.27697265625007
30
0
10
112.253335366304
20
118.46067478074018
30
0
10
112.24201224145699
20
118.79462830260536
30
0
10
112.06047776756532
20
119.07324782870569
30
0
10
111.97880230499904
20
119.19860351562507
30
0
0
SPLINE
5
440
100
AcDbEntity
8
0
100
AcDbSpline
70
1064
71
3
72
9
73
5
74
0
42
0.000000001
43
0.0000000001
44
0.0000000001
40
0
40
0
40
0
40
0
40
0.039606796440296653
40
0.079807992578268844
40
0.079807992578268844
40
0.079807992578268844
40
0.079807992578268844
10
111.97880230499904
20
119.19860351562507
30
0
10
111.87837892906305
20
119.29010394789616
30
0
10
111.67602507160166
20
119.47447800679302
30
0
10
111.40329323445326
20
119.49964633127962
30
0
10
111.26591167999904
20
119.51232421875007
30
0
0
SPLINE
5
441
100
AcDbEntity
8
0
100
AcDbSpline
70
1064
71
3
72
9
73
5
74
0
42
0.000000001
43
0.0000000001
44
0.0000000001
40
0
40
0
40
0
40
0
40
0.040099517028413897
40
0.079376600406916048
40
0.079376600406916048
40
0.079376600406916048
40
0.079376600406916048
10
111.26591167999904
20
119.51232421875007
30
0
10
111.12881819864558
20
119.49990022551573
30
0
10
110.85744299779026
20
119.47530705284179
30
0
10
110.65624154871679
20
119.29183196060727
30
0
10
110.55668316437404
20
119.20104492187507
30
0
0
SPLINE
5
442
100
AcDbEntity
8
0
100
AcDbSpline
70
1064
71
3
72
9
73
5
74
0
42
0.000000001
43
0.0000000001
44
0.0000000001
40
0
40
0
40
0
40
0
40
0.044112269822414896
40
0.099024867568756891
40
0.099024867568756891
40
0.099024867568756891
40
0.099024867568756891
10
110.55668316437404
20
119.20104492187507
30
0
10
110.47611012004394
20
119.074946014424
30
0
10
110.29523674679609
20
118.79187448667955
30
0
10
110.28516736413113
20
118.45436649156483
30
0
10
110.27958355499904
20
118.26720703125007
30
0
0
SPLINE
5
443
100
AcDbEntity
8
0
100
AcDbSpline
70
1064
71
3
72
9
73
5
74
0
42
0.000000001
43
0.0000000001
44
0.0000000001
40
0
40
0
40
0
40
0
40
0.021640556693399645
40
0.040590965258170186
40
0.040590965258170186
40
0.040590965258170186
40
0.040590965258170186
10
123.17997417999904
20
117.64464843750007
30
0
10
123.20518966773669
20
117.57627030423154
30
0
10
123.25248609366641
20
117.44801415670055
30
0
10
123.34286006613489
20
117.34572414389973
30
0
10
123.38505230499904
20
117.29796875000007
30
0
0
SPLINE
5
444
100
AcDbEntity
8
0
100
AcDbSpline
70
1064
71
3
72
9
73
5
74
0
42
0.000000001
43
0.0000000001
44
0.0000000001
40
0
40
0
40
0
40
0
40
0.01823572767351227
40
0.037808323376485153
40
0.037808323376485153
40
0.037808323376485153
40
0.037808323376485153
10
123.38505230499904
20
117.29796875000007
30
0
10
123.43306738407389
20
117.25958859602464
30
0
10
123.53261754566391
20
117.18001462460316
30
0
10
123.65577095838844
20
117.14673822843213
30
0
10
123.71952496124904
20
117.12951171875007
30
0
0
SPLINE
5
445
100
AcDbEntity
8
0
100
AcDbSpline
70
1064
71
3
72
9
73
5
74
0
42
0.000000001
43
0.0000000001
44
0.0000000001
40
0
40
0
40
0
40
0
40
0.022546109134305714
40
0.059482264028839889
40
0.059482264028839889
40
0.059482264028839889
40
0.059482264028839889
10
123.71952496124904
20
117.12951171875007
30
0
10
123.79410275082367
20
117.11967687089036
30
0
10
123.99085757640096
20
117.09373008718636
30
0
10
124.18946145471187
20
117.09471835541167
30
0
10
124.31278667999904
20
117.09533203125007
30
0
0
LINE
5
446
100
AcDbEntity
8
0
100
AcDbLine
10
124.31278667999904
20
117.09533203125007
30
0
11
124.63749371124904
21
117.09533203125007
31
0
0
LINE
5
447
100
AcDbEntity
8
0
100
AcDbLine
10
124.63749371124904
20
117.09533203125007
30
0
11
124.63749371124904
21
119.46593750000007
31
0
0
LINE
5
448
100
AcDbEntity
8
0
100
AcDbLine
10
124.63749371124904
20
119.46593750000007
30
0
11
124.09794292999904
21
119.46593750000007
31
0
0
SPLINE
5
449
100
AcDbEntity
8
0
100
AcDbSpline
70
1064
71
3
72
9
73
5
74
0
42
0.000000001
43
0.0000000001
44
0.0000000001
40
0
40
0
40
0
40
0
40
0.026076016024821753
40
0.043900476272030482
40
0.043900476272030482
40
0.043900476272030482
40
0.043900476272030482
10
124.09794292999904
20
119.46593750000007
30
0
10
124.01081505926857
20
119.46595584620451
30
0
10
123.86413026593225
20
119.46598673309731
30
0
10
123.71960949715286
20
119.44164218126406
30
0
10
123.66093121124904
20
119.43175781250007
30
0
0
SPLINE
5
450
100
AcDbEntity
8
0
100
AcDbSpline
70
1064
71
3
72
9
73
5
74
0
42
0.000000001
43
0.0000000001
44
0.0000000001
40
0
40
0
40
0
40
0
40
0.017137868704818881
40
0.033009268643522174
40
0.033009268643522174
40
0.033009268643522174
40
0.033009268643522174
10
123.66093121124904
20
119.43175781250007
30
0
10
123.60563808376206
20
119.41528332310286
30
0
10
123.49913792724934
20
119.38355179010749
30
0
10
123.41137906871326
20
119.31553542138204
30
0
10
123.36918316437404
20
119.28283203125007
30
0
0
SPLINE
5
451
100
AcDbEntity
8
0
100
AcDbSpline
70
1064
71
3
72
9
73
5
74
0
42
0.000000001
43
0.0000000001
44
0.0000000001
40
0
40
0
40
0
40
0
40
0.01742577761402276
40
0.03972562994551216
40
0.03972562994551216
40
0.03972562994551216
40
0.03972562994551216
10
123.36918316437404
20
119.28283203125007
30
0
10
123.33118513122649
20
119.23819868602163
30
0
10
123.24456083032518
20
119.1364478319106
30
0
10
123.20319484208798
20
119.00894586092252
30
0
10
123.17997417999904
20
118.93737304687507
30
0
0
SPLINE
5
452
100
AcDbEntity
8
0
100
AcDbSpline
70
1064
71
3
72
9
73
5
74
0
42
0.000000001
43
0.0000000001
44
0.0000000001
40
0
40
0
40
0
40
0
40
0.028938018894074768
40
0.066123021004916183
40
0.066123021004916183
40
0.066123021004916183
40
0.066123021004916183
10
123.17997417999904
20
118.93737304687507
30
0
10
123.1586962903434
20
118.84302499955686
30
0
10
123.1100765714266
20
118.62744085962554
30
0
10
123.10793585034793
20
118.40624651894741
30
0
10
123.10673199249904
20
118.28185546875007
30
0
0
SPLINE
5
453
100
AcDbEntity
8
0
100
AcDbSpline
70
1064
71
3
72
9
73
5
74
0
42
0.000000001
43
0.0000000001
44
0.0000000001
40
0
40
0
40
0
40
0
40
0.036727800674194441
40
0.064318729386370732
40
0.064318729386370732
40
0.064318729386370732
40
0.064318729386370732
10
123.10673199249904
20
118.28185546875007
30
0
10
123.10761897842767
20
118.15892540636929
30
0
10
123.10917229245317
20
117.94364691785162
30
0
10
123.15871972347749
20
117.73440664057796
30
0
10
123.17997417999904
20
117.64464843750007
30
0
0
SPLINE
5
454
100
AcDbEntity
8
0
100
AcDbSpline
70
1064
71
3
72
9
73
5
74
0
42
0.000000001
43
0.0000000001
44
0.0000000001
40
0
40
0
40
0
40
0
40
0.054132721463045812
40
0.097259501635637624
40
0.097259501635637624
40
0.097259501635637624
40
0.097259501635637624
10
119.16874371124904
20
118.26720703125007
30
0
10
119.17392252263424
20
118.08269244975986
30
0
10
119.18322722043584
20
117.75117768835077
30
0
10
119.36009322785827
20
117.47271439465277
30
0
10
119.43851910187404
20
117.34923828125007
30
0
0
SPLINE
5
455
100
AcDbEntity
8
0
100
AcDbSpline
70
1064
71
3
72
9
73
5
74
0
42
0.000000001
43
0.0000000001
44
0.0000000001
40
0
40
0
40
0
40
0
40
0.038751039971732133
40
0.079709052098357006
40
0.079709052098357006
40
0.079709052098357006
40
0.079709052098357006
10
119.43851910187404
20
117.34923828125007
30
0
10
119.53778094066742
20
117.26095957425807
30
0
10
119.74195783722382
20
117.07937445912478
30
0
10
120.01484858402665
20
117.05766115542902
30
0
10
120.15507183624904
20
117.04650390625007
30
0
0
SPLINE
5
456
100
AcDbEntity
8
0
100
AcDbSpline
70
1064
71
3
72
9
73
5
74
0
42
0.000000001
43
0.0000000001
44
0.0000000001
40
0
40
0
40
0
40
0
40
0.041064970668656608
40
0.080199561528842528
40
0.080199561528842528
40
0.080199561528842528
40
0.080199561528842528
10
120.15507183624904
20
117.04650390625007
30
0
10
120.29561551446194
20
117.05799580866092
30
0
10
120.57009620164601
20
117.08043940278691
30
0
10
120.77520213365865
20
117.26354919424963
30
0
10
120.87528667999904
20
117.35290039062507
30
0
0
SPLINE
5
457
100
AcDbEntity
8
0
100
AcDbSpline
70
1064
71
3
72
9
73
5
74
0
42
0.000000001
43
0.0000000001
44
0.0000000001
40
0
40
0
40
0
40
0
40
0.043552176655469628
40
0.097968852269891119
40
0.097968852269891119
40
0.097968852269891119
40
0.097968852269891119
10
120.87528667999904
20
117.35290039062507
30
0
10
120.95478702543193
20
117.47742680254575
30
0
10
121.13361982312961
20
117.75754390782078
30
0
10
121.14333043362733
20
118.09148531962096
30
0
10
121.14872417999904
20
118.27697265625007
30
0
0
SPLINE
5
458
100
AcDbEntity
8
0
100
AcDbSpline
70
1064
71
3
72
9
73
5
74
0
42
0.000000001
43
0.0000000001
44
0.0000000001
40
0
40
0
40
0
40
0
40
0.053895295799269813
40
0.097976677700870693
40
0.097976677700870693
40
0.097976677700870693
40
0.097976677700870693
10
121.14872417999904
20
118.27697265625007
30
0
10
121.142495522554
20
118.46067478074018
30
0
10
121.13117239770699
20
118.79462830260536
30
0
10
120.94963792381532
20
119.07324782870569
30
0
10
120.86796246124904
20
119.19860351562507
30
0
0
SPLINE
5
459
100
AcDbEntity
8
0
100
AcDbSpline
70
1064
71
3
72
9
73
5
74
0
42
0.000000001
43
0.0000000001
44
0.0000000001
40
0
40
0
40
0
40
0
40
0.039606796440296653
40
0.079807992578268844
40
0.079807992578268844
40
0.079807992578268844
40
0.079807992578268844
10
120.86796246124904
20
119.19860351562507
30
0
10
120.76753908531308
20
119.29010394789616
30
0
10
120.56518522785166
20
119.47447800679302
30
0
10
120.29245339070326
20
119.49964633127962
30
0
10
120.15507183624904
20
119.51232421875007
30
0
0
SPLINE
5
460
100
AcDbEntity
8
0
100
AcDbSpline
70
1064
71
3
72
9
73
5
74
0
42
0.000000001
43
0.0000000001
44
0.0000000001
40
0
40
0
40
0
40
0
40
0.040099517028413897
40
0.079376600406916048
40
0.079376600406916048
40
0.079376600406916048
40
0.079376600406916048
10
120.15507183624904
20
119.51232421875007
30
0
10
120.01797835489556
20
119.49990022551573
30
0
10
119.74660315404026
20
119.47530705284179
30
0
10
119.54540170496679
20
119.29183196060727
30
0
10
119.44584332062404
20
119.20104492187507
30
0
0
SPLINE
5
461
100
AcDbEntity
8
0
100
AcDbSpline
70
1064
71
3
72
9
73
5
74
0
42
0.000000001
43
0.0000000001
44
0.0000000001
40
0
40
0
40
0
40
0
40
0.044112269822414896
40
0.099024867568756891
40
0.099024867568756891
40
0.099024867568756891
40
0.099024867568756891
10
119.44584332062404
20
119.20104492187507
30
0
10
119.36527027629394
20
119.074946014424
30
0
10
119.18439690304609
20
118.79187448667955
30
0
10
119.17432752038113
20
118.45436649156483
30
0
10
119.16874371124904
20
118.26720703125007
30
0
0
ENDSEC
0
SECTION
2
OBJECTS
0
DICTIONARY
5
C
100
AcDbDictionary
3
ACAD_GROUP
350
D
3
ACAD_MLINESTYLE
350
17
0
DICTIONARY
5
D
100
AcDbDictionary
0
DICTIONARY
5
1A
330
C
100
AcDbDictionary
0
DICTIONARY
5
17
100
AcDbDictionary
0
ENDSEC
0
EOF
