0
SECTION
2
HEADER
9
$INSUNITS
70
4
9
$ACADVER
1
AC1014
9
$HANDSEED
5
FFFF
0
ENDSEC
0
SECTION
2
TABLES
0
TABLE
2
VPORT
5
8
100
AcDbSymbolTable
0
ENDTAB
0
TABLE
2
LTYPE
5
5
100
AcDbSymbolTable
0
LTYPE
5
14
100
AcDbSymbolTableRecord
100
AcDbLinetypeTableRecord
2
BYBLOCK
70
0
0
LTYPE
5
15
100
AcDbSymbolTableRecord
100
AcDbLinetypeTableRecord
2
BYLAYER
70
0
0
ENDTAB
0
TABLE
2
LAYER
5
2
100
AcDbSymbolTable
70
2
0
LAYER
5
50
100
AcDbSymbolTableRecord
100
AcDbLayerTableRecord
2
0
70
0
6
CONTINUOUS
0
ENDTAB
0
TABLE
2
STYLE
5
3
100
AcDbSymbolTable
70
1
0
STYLE
5
11
100
AcDbSymbolTableRecord
100
AcDbTextStyleTableRecord
2
STANDARD
70
0
0
ENDTAB
0
TABLE
2
VIEW
5
6
100
AcDbSymbolTable
70
0
0
ENDTAB
0
TABLE
2
UCS
5
7
100
AcDbSymbolTable
70
0
0
ENDTAB
0
TABLE
2
APPID
5
9
100
AcDbSymbolTable
70
2
0
APPID
5
12
100
AcDbSymbolTableRecord
100
AcDbRegAppTableRecord
2
ACAD
70
0
0
ENDTAB
0
TABLE
2
DIMSTYLE
5
A
100
AcDbSymbolTable
70
1
0
ENDTAB
0
TABLE
2
BLOCK_RECORD
5
1
100
AcDbSymbolTable
70
1
0
BLOCK_RECORD
5
1F
100
AcDbSymbolTableRecord
100
AcDbBlockTableRecord
2
*MODEL_SPACE
0
BLOCK_RECORD
5
1B
100
AcDbSymbolTableRecord
100
AcDbBlockTableRecord
2
*PAPER_SPACE
0
ENDTAB
0
ENDSEC
0
SECTION
2
BLOCKS
0
BLOCK
5
20
100
AcDbEntity
100
AcDbBlockBegin
2
*MODEL_SPACE
0
ENDBLK
5
21
100
AcDbEntity
100
AcDbBlockEnd
0
BLOCK
5
1C
100
AcDbEntity
100
AcDbBlockBegin
2
*PAPER_SPACE
0
ENDBLK
5
1D
100
AcDbEntity
100
AcDbBlockEnd
0
ENDSEC
0
SECTION
2
ENTITIES
0
LINE
5
100
100
AcDbEntity
8
0
100
AcDbLine
10
-105.9971269818182
20
103.74999950000556
30
0
11
-105.9971269818182
21
-119.25000049999453
31
0
0
ARC
5
101
100
AcDbEntity
8
0
100
AcDbCircle
10
-101.99712698181816
20
-119.25000049999451
30
0
40
4.0000000000000391
100
AcDbArc
50
180
51
269.99999999999937
0
LINE
5
102
100
AcDbEntity
8
0
100
AcDbLine
10
-101.9971269818182
20
-123.25000049999454
30
0
11
-79.537864707793887
21
-123.25000049999451
31
0
0
ARC
5
103
100
AcDbEntity
8
0
100
AcDbCircle
10
-79.537864707793872
20
-120.25000049999456
30
0
40
2.9999999999999538
100
AcDbArc
50
269.99999999999972
51
315.00000000000057
0
LINE
5
104
100
AcDbEntity
8
0
100
AcDbLine
10
-77.416544364234227
20
-122.37132084355416
30
0
11
-76.146175501246404
21
-121.10095198056629
31
0
0
ARC
5
105
100
AcDbEntity
8
0
100
AcDbCircle
10
-74.997126981818212
20
-122.25000049999448
30
0
40
1.6250000000000662
100
AcDbArc
50
90.101339037023706
51
135
0
LINE
5
106
100
AcDbEntity
8
0
100
AcDbLine
10
-75.00000111758709
20
-120.62500049999441
30
0
11
75.002873018181816
21
-120.62500049999443
31
0
0
ARC
5
107
100
AcDbEntity
8
0
100
AcDbCircle
10
75.002873018181816
20
-122.25000049999451
30
0
40
1.6250000000000848
100
AcDbArc
50
44.999999999999638
51
90
0
LINE
5
108
100
AcDbEntity
8
0
100
AcDbLine
10
76.151921537610022
20
-121.10095198056632
30
0
11
77.422290400597873
21
-122.37132084355417
31
0
0
ARC
5
109
100
AcDbEntity
8
0
100
AcDbCircle
10
79.543610744157519
20
-120.25000049999456
30
0
40
2.9999999999999876
100
AcDbArc
50
224.99999999999963
51
270.00000000000023
0
LINE
5
110
100
AcDbEntity
8
0
100
AcDbLine
10
79.543610744157533
20
-123.25000049999454
30
0
11
102.00287301818182
21
-123.25000049999454
31
0
0
ARC
5
111
100
AcDbEntity
8
0
100
AcDbCircle
10
102.0028730181818
20
-119.25000049999453
30
0
40
4.0000000000000213
100
AcDbArc
50
270.00000000000023
51
360
0
LINE
5
112
100
AcDbEntity
8
0
100
AcDbLine
10
106.00287301818183
20
-119.25000049999454
30
0
11
106.00287301818186
21
103.74999950000557
31
0
0
ARC
5
113
100
AcDbEntity
8
0
100
AcDbCircle
10
96.002873018181916
20
103.7499995000056
30
0
40
9.9999999999999112
100
AcDbArc
50
0
51
90.000000000000242
0
LINE
5
114
100
AcDbEntity
8
0
100
AcDbLine
10
96.002873018181873
20
113.74999950000552
30
0
11
-95.997126981818212
21
113.74999950000552
31
0
0
ARC
5
115
100
AcDbEntity
8
0
100
AcDbCircle
10
-95.997126981818184
20
103.74999950000552
30
0
40
10
100
AcDbArc
50
90.000000000000171
51
180
0
LINE
5
116
100
AcDbEntity
8
0
100
AcDbLine
10
77.422290400597888
20
-122.37132084355417
30
0
11
76.151921537610036
21
-121.10095198056632
31
0
0
ARC
5
117
100
AcDbEntity
8
0
100
AcDbCircle
10
79.543610744157519
20
-120.25000049999456
30
0
40
2.9999999999999813
100
AcDbArc
50
224.99999999999977
51
270.00000000000023
0
LINE
5
118
100
AcDbEntity
8
0
100
AcDbLine
10
102.00287301818182
20
-123.25000049999454
30
0
11
79.543610744157533
21
-123.25000049999454
31
0
0
ARC
5
119
100
AcDbEntity
8
0
100
AcDbCircle
10
102.0028730181818
20
-119.25000049999453
30
0
40
4.0000000000000213
100
AcDbArc
50
270.00000000000023
51
360
0
LINE
5
120
100
AcDbEntity
8
0
100
AcDbLine
10
106.00287301818183
20
103.74999950000559
30
0
11
106.00287301818183
21
-119.25000049999454
31
0
0
ARC
5
121
100
AcDbEntity
8
0
100
AcDbCircle
10
96.002873018181916
20
103.7499995000056
30
0
40
9.9999999999999112
100
AcDbArc
50
0
51
90.000000000000242
0
LINE
5
122
100
AcDbEntity
8
0
100
AcDbLine
10
-95.997126981818212
20
113.74999950000552
30
0
11
96.002873018181873
21
113.74999950000552
31
0
0
ARC
5
123
100
AcDbEntity
8
0
100
AcDbCircle
10
-95.997126981818184
20
103.74999950000552
30
0
40
10
100
AcDbArc
50
90.000000000000171
51
180
0
LINE
5
124
100
AcDbEntity
8
0
100
AcDbLine
10
-105.9971269818182
20
-119.25000049999453
30
0
11
-105.99712698181818
21
103.74999950000556
31
0
0
ARC
5
125
100
AcDbEntity
8
0
100
AcDbCircle
10
-101.99712698181816
20
-119.25000049999451
30
0
40
4.0000000000000391
100
AcDbArc
50
180
51
269.99999999999937
0
LINE
5
126
100
AcDbEntity
8
0
100
AcDbLine
10
-79.537864707793887
20
-123.25000049999453
30
0
11
-101.9971269818182
21
-123.25000049999454
31
0
0
ARC
5
127
100
AcDbEntity
8
0
100
AcDbCircle
10
-79.53786470779383
20
-120.25000049999461
30
0
40
2.9999999999999183
100
AcDbArc
50
269.99999999999886
51
315.0000000000008
0
LINE
5
128
100
AcDbEntity
8
0
100
AcDbLine
10
-76.146175501246404
20
-121.10095198056629
30
0
11
-77.416544364234227
21
-122.37132084355416
31
0
0
ARC
5
129
100
AcDbEntity
8
0
100
AcDbCircle
10
-74.997126981818184
20
-122.25000049999453
30
0
40
1.6250000000001195
100
AcDbArc
50
90.101339037024701
51
134.99999999999966
0
LINE
5
130
100
AcDbEntity
8
0
100
AcDbLine
10
75.002873018181816
20
-120.62500049999443
30
0
11
-75.00000111758709
21
-120.62500049999441
31
0
0
ARC
5
131
100
AcDbEntity
8
0
100
AcDbCircle
10
75.002873018181816
20
-122.25000049999453
30
0
40
1.6250000000001097
100
AcDbArc
50
44.999999999999638
51
90
0
CIRCLE
5
132
100
AcDbEntity
8
0
100
AcDbCircle
10
90.502873018181816
20
-120.2500004999945
30
0
40
1.9999999999999929
0
CIRCLE
5
133
100
AcDbEntity
8
0
100
AcDbCircle
10
-90.497126981818198
20
-120.2500004999945
30
0
40
1.9999999999999929
0
CIRCLE
5
134
100
AcDbEntity
8
0
100
AcDbCircle
10
90.502873018181816
20
-120.2500004999945
30
0
40
1.9999999999999929
0
CIRCLE
5
135
100
AcDbEntity
8
0
100
AcDbCircle
10
-90.497126981818198
20
-120.2500004999945
30
0
40
1.9999999999999929
0
CIRCLE
5
136
100
AcDbEntity
8
0
100
AcDbCircle
10
94.002873018181816
20
101.74999950000552
30
0
40
1.9999999999999929
0
CIRCLE
5
137
100
AcDbEntity
8
0
100
AcDbCircle
10
-93.997126981818184
20
101.74999950000552
30
0
40
1.9999999999999929
0
CIRCLE
5
138
100
AcDbEntity
8
0
100
AcDbCircle
10
94.002873018181816
20
101.74999950000552
30
0
40
1.9999999999999929
0
CIRCLE
5
139
100
AcDbEntity
8
0
100
AcDbCircle
10
-93.997126981818184
20
101.74999950000552
30
0
40
1.9999999999999929
0
ENDSEC
0
SECTION
2
OBJECTS
0
DICTIONARY
5
C
100
AcDbDictionary
3
ACAD_GROUP
350
D
3
ACAD_MLINESTYLE
350
17
0
DICTIONARY
5
D
100
AcDbDictionary
0
DICTIONARY
5
1A
330
C
100
AcDbDictionary
0
DICTIONARY
5
17
100
AcDbDictionary
0
ENDSEC
0
EOF
