0
SECTION
2
HEADER
9
$INSUNITS
70
4
9
$ACADVER
1
AC1014
9
$HANDSEED
5
FFFF
0
ENDSEC
0
SECTION
2
TABLES
0
TABLE
2
VPORT
5
8
100
AcDbSymbolTable
0
ENDTAB
0
TABLE
2
LTYPE
5
5
100
AcDbSymbolTable
0
LTYPE
5
14
100
AcDbSymbolTableRecord
100
AcDbLinetypeTableRecord
2
BYBLOCK
70
0
0
LTYPE
5
15
100
AcDbSymbolTableRecord
100
AcDbLinetypeTableRecord
2
BYLAYER
70
0
0
ENDTAB
0
TABLE
2
LAYER
5
2
100
AcDbSymbolTable
70
2
0
LAYER
5
50
100
AcDbSymbolTableRecord
100
AcDbLayerTableRecord
2
0
70
0
6
CONTINUOUS
0
ENDTAB
0
TABLE
2
STYLE
5
3
100
AcDbSymbolTable
70
1
0
STYLE
5
11
100
AcDbSymbolTableRecord
100
AcDbTextStyleTableRecord
2
STANDARD
70
0
0
ENDTAB
0
TABLE
2
VIEW
5
6
100
AcDbSymbolTable
70
0
0
ENDTAB
0
TABLE
2
UCS
5
7
100
AcDbSymbolTable
70
0
0
ENDTAB
0
TABLE
2
APPID
5
9
100
AcDbSymbolTable
70
2
0
APPID
5
12
100
AcDbSymbolTableRecord
100
AcDbRegAppTableRecord
2
ACAD
70
0
0
ENDTAB
0
TABLE
2
DIMSTYLE
5
A
100
AcDbSymbolTable
70
1
0
ENDTAB
0
TABLE
2
BLOCK_RECORD
5
1
100
AcDbSymbolTable
70
1
0
BLOCK_RECORD
5
1F
100
AcDbSymbolTableRecord
100
AcDbBlockTableRecord
2
*MODEL_SPACE
0
BLOCK_RECORD
5
1B
100
AcDbSymbolTableRecord
100
AcDbBlockTableRecord
2
*PAPER_SPACE
0
ENDTAB
0
ENDSEC
0
SECTION
2
BLOCKS
0
BLOCK
5
20
100
AcDbEntity
100
AcDbBlockBegin
2
*MODEL_SPACE
0
ENDBLK
5
21
100
AcDbEntity
100
AcDbBlockEnd
0
BLOCK
5
1C
100
AcDbEntity
100
AcDbBlockBegin
2
*PAPER_SPACE
0
ENDBLK
5
1D
100
AcDbEntity
100
AcDbBlockEnd
0
ENDSEC
0
SECTION
2
ENTITIES
0
LWPOLYLINE
5
100
100
AcDbEntity
8
0
100
AcDbPolyline
90
28
70
1
43
0.0
10
106.00287301818183
20
103.74999950000557
10
106.00287301818183
20
93.999999500005515
10
101.00287301818183
20
93.999999500005515
10
101.00287301818183
20
93.749999500005515
10
106.00287301818183
20
93.749999500005515
10
106.00287301818182
20
-120.25000049999454
42
-0.41421356237309115
10
102.00287301818182
20
-124.25000049999454
10
82.872037868903675
20
-124.25000049999454
42
-0.19891236737965443
10
79.336503962970951
20
-122.78553440592729
10
77.651921537610022
20
-121.10095198056632
42
0.41421356237309165
10
75.353824498753582
20
-121.10095198056632
10
73.669242073392624
20
-122.78553440592728
42
-0.19891236737965512
10
70.133708167459858
20
-124.25000049999454
10
-67.127962131096297
20
-124.25000049999453
42
-0.19891236737965903
10
-70.663496037029034
20
-122.78553440592725
10
-72.348078462389964
20
-121.10095198056632
42
0.4142135623730962
10
-74.646175501246418
20
-121.10095198056629
10
-76.330757926607376
20
-122.78553440592728
42
-0.19891236737965315
10
-79.866291832540114
20
-124.25000049999454
10
-101.9971269818182
20
-124.25000049999453
42
-0.41421356237309243
10
-105.9971269818182
20
-120.25000049999454
10
-105.99712698181817
20
93.749999500005515
10
-100.99712698181817
20
93.749999500005515
10
-100.99712698181817
20
93.999999500005515
10
-105.99712698181817
20
93.999999500005515
10
-105.99712698181818
20
103.74999950000556
42
-0.41421356237309293
10
-95.997126981818212
20
113.74999950000552
10
96.002873018181873
20
113.74999950000552
42
-0.41421356237309709
0
LWPOLYLINE
5
101
100
AcDbEntity
8
0
100
AcDbPolyline
90
20
70
1
43
0.0
10
-105.9971269818182
20
103.74999950000554
10
-105.9971269818182
20
-120.25000049999451
42
0.41421356237309115
10
-101.99712698181821
20
-124.25000049999453
10
-79.866291832540099
20
-124.25000049999454
42
0.19891236737965232
10
-76.33075792660739
20
-122.78553440592728
10
-74.646175501246418
20
-121.10095198056632
42
-0.41421356237309503
10
-72.348078462389992
20
-121.10095198056632
10
-70.663496037029034
20
-122.78553440592725
42
0.19891236737965995
10
-67.127962131096282
20
-124.25000049999453
10
70.133708167459858
20
-124.25000049999454
42
0.19891236737965509
10
73.669242073392624
20
-122.78553440592728
10
75.353824498753582
20
-121.10095198056629
42
-0.4142135623730962
10
77.651921537610022
20
-121.10095198056632
10
79.336503962970951
20
-122.78553440592729
42
0.19891236737965445
10
82.872037868903675
20
-124.25000049999454
10
102.00287301818182
20
-124.25000049999454
42
0.41421356237309115
10
106.00287301818183
20
-120.25000049999454
10
106.00287301818183
20
103.74999950000552
42
0.41421356237309398
10
96.002873018181859
20
113.74999950000552
10
-95.997126981818241
20
113.74999950000552
42
0.41421356237309293
0
LWPOLYLINE
5
102
100
AcDbEntity
8
0
100
AcDbPolyline
90
6
70
1
43
0.0
10
37.416270477779527
20
99.14166925113058
10
31.089475559021867
20
110.09999949916636
42
-0.57735026918979937
10
31.176078100079721
20
110.24999950033872
10
43.829667937669718
20
110.24999950018092
42
-0.57735026918957466
10
43.916270477740802
20
110.09999950070875
10
37.589475558582841
20
99.14166925112832
42
-0.5773502691895771
0
LWPOLYLINE
5
103
100
AcDbEntity
8
0
100
AcDbPolyline
90
6
70
1
43
0.0
10
38.246768134697291
20
101.79581176721548
10
38.253738528004398
20
103.4668700703608
10
37.914200020341347
20
107.08249730253203
10
37.141821589533571
20
107.08571908206812
10
36.776989676411581
20
103.47302995137277
10
36.770019283104475
20
101.80197164822744
0
LWPOLYLINE
5
104
100
AcDbEntity
8
0
100
AcDbPolyline
90
4
70
1
43
0.0
10
36.847465612776432
20
107.55815493542713
10
38.212486827747171
20
107.55246109774177
10
38.218180664189418
20
108.91748201469187
10
36.853159449218673
20
108.92317585237723
0
LWPOLYLINE
5
105
100
AcDbEntity
8
0
100
AcDbPolyline
90
4
70
1
43
0.0
10
-71.201711578900742
20
111.99999950000552
10
-21.201711578900753
20
111.99999950000552
10
-21.201711578900763
20
104.49999950000552
10
-71.201711578900756
20
104.49999950000552
0
LWPOLYLINE
5
106
100
AcDbEntity
8
0
100
AcDbPolyline
90
3
70
1
43
0.0
10
-11.845007094049008
20
99.954608994214809
10
-12.425085457467587
20
98.360858875005519
10
-13.016882094049008
20
99.954608994214809
0
LINE
5
107
100
AcDbEntity
8
0
100
AcDbLine
10
-39.272742422723326
20
99.304218309610164
30
0
11
-39.747350367211851
21
99.304218309610164
31
0
0
SPLINE
5
108
100
AcDbEntity
8
0
100
AcDbSpline
70
1064
71
3
72
9
73
5
74
0
42
0.000000001
43
0.0000000001
44
0.0000000001
40
0
40
0
40
0
40
0
40
0.042806644717625228
40
0.069078685015398933
40
0.069078685015398933
40
0.069078685015398933
40
0.069078685015398933
10
-39.747350367211851
20
99.304218309610164
30
0
10
-39.890720066648989
20
99.305367605981075
30
0
10
-40.122081117567625
20
99.307222268557851
30
0
10
-40.347259278075796
20
99.256229247993971
30
0
10
-40.432899149560484
20
99.236835556714809
30
0
0
SPLINE
5
109
100
AcDbEntity
8
0
100
AcDbSpline
70
1064
71
3
72
9
73
5
74
0
42
0.000000001
43
0.0000000001
44
0.0000000001
40
0
40
0
40
0
40
0
40
0.017674725014515384
40
0.034748142617996768
40
0.034748142617996768
40
0.034748142617996768
40
0.034748142617996768
10
-40.432899149560484
20
99.236835556714809
30
0
10
-40.487109099466963
20
99.211627442844986
30
0
10
-40.593684736096009
20
99.162068814059523
30
0
10
-40.667584680565511
20
99.070761586960558
30
0
10
-40.703895243310484
20
99.025897997110164
30
0
0
SPLINE
5
110
100
AcDbEntity
8
0
100
AcDbSpline
70
1064
71
3
72
9
73
5
74
0
42
0.000000001
43
0.0000000001
44
0.0000000001
40
0
40
0
40
0
40
0
40
0.017183657238869936
40
0.035222410385446587
40
0.035222410385446587
40
0.035222410385446587
40
0.035222410385446587
10
-40.703895243310484
20
99.025897997110164
30
0
10
-40.73251546929724
20
98.975357113704305
30
0
10
-40.791180125546845
20
98.871760323345995
30
0
10
-40.79836051379641
20
98.75282490969461
30
0
10
-40.802037867211851
20
98.691913502900874
30
0
0
SPLINE
5
111
100
AcDbEntity
8
0
100
AcDbSpline
70
1064
71
3
72
9
73
5
74
0
42
0.000000001
43
0.0000000001
44
0.0000000001
40
0
40
0
40
0
40
0
40
0.021662019888225921
40
0.041797079094735359
40
0.041797079094735359
40
0.041797079094735359
40
0.041797079094735359
10
-40.802037867211851
20
98.691913502900874
30
0
10
-40.797185778934249
20
98.61821383373632
30
0
10
-40.787823627179272
20
98.476009601756985
30
0
10
-40.704489053192525
20
98.360729160368606
30
0
10
-40.664343985223326
20
98.30519469329623
30
0
0
SPLINE
5
112
100
AcDbEntity
8
0
100
AcDbSpline
70
1064
71
3
72
9
73
5
74
0
42
0.000000001
43
0.0000000001
44
0.0000000001
40
0
40
0
40
0
40
0
40
0.019914670607721303
40
0.040297722985445428
40
0.040297722985445428
40
0.040297722985445428
40
0.040297722985445428
10
-40.664343985223326
20
98.30519469329623
30
0
10
-40.614993230737859
20
98.259103432504489
30
0
10
-40.515131019981183
20
98.165836870580264
30
0
10
-40.382697864685298
20
98.13192036494732
30
0
10
-40.315711649560484
20
98.11476500579623
30
0
0
SPLINE
5
113
100
AcDbEntity
8
0
100
AcDbSpline
70
1064
71
3
72
9
73
5
74
0
42
0.000000001
43
0.0000000001
44
0.0000000001
40
0
40
0
40
0
40
0
40
0.023467397545260688
40
0.062512448978184851
40
0.062512448978184851
40
0.062512448978184851
40
0.062512448978184851
10
-40.315711649560484
20
98.11476500579623
30
0
10
-40.237892549600041
20
98.106341445619321
30
0
10
-40.030598046388796
20
98.083902767672285
30
0
10
-39.821985456814744
20
98.08486630736185
30
0
10
-39.691686781549009
20
98.08546813079623
30
0
0
LINE
5
114
100
AcDbEntity
8
0
100
AcDbLine
10
-39.691686781549002
20
98.08546813079623
30
0
11
-39.272742422723326
21
98.08546813079623
31
0
0
LINE
5
115
100
AcDbEntity
8
0
100
AcDbLine
10
-39.272742422723326
20
98.08546813079623
30
0
11
-39.272742422723326
21
99.304218309610164
31
0
0
SPLINE
5
116
100
AcDbEntity
8
0
100
AcDbSpline
70
1064
71
3
72
9
73
5
74
0
42
0.000000001
43
0.0000000001
44
0.0000000001
40
0
40
0
40
0
40
0
40
0.050700641962933404
40
0.078232445468043477
40
0.078232445468043477
40
0.078232445468043477
40
0.078232445468043477
10
-43.919227274560484
20
99.175312238424098
30
0
10
-44.088721769341433
20
99.177360719583319
30
0
10
-44.350256304343539
20
99.180521580755396
30
0
10
-44.607865872584888
20
99.137661186979471
30
0
10
-44.698524626397642
20
99.122577625005519
30
0
0
SPLINE
5
117
100
AcDbEntity
8
0
100
AcDbSpline
70
1064
71
3
72
9
73
5
74
0
42
0.000000001
43
0.0000000001
44
0.0000000001
40
0
40
0
40
0
40
0
40
0.015592852599915481
40
0.030771732257428422
40
0.030771732257428422
40
0.030771732257428422
40
0.030771732257428422
10
-44.698524626397642
20
99.122577625005519
30
0
10
-44.747270471587214
20
99.102121395063492
30
0
10
-44.843468013840905
20
99.061752025396274
30
0
10
-44.909242784683428
20
98.98084582429891
30
0
10
-44.941687735223326
20
98.940936940400874
30
0
0
SPLINE
5
118
100
AcDbEntity
8
0
100
AcDbSpline
70
1064
71
3
72
9
73
5
74
0
42
0.000000001
43
0.0000000001
44
0.0000000001
40
0
40
0
40
0
40
0
40
0.01592977523301926
40
0.033790083150268324
40
0.033790083150268324
40
0.033790083150268324
40
0.033790083150268324
10
-44.941687735223326
20
98.940936940400874
30
0
10
-44.967299885284156
20
98.893623986777456
30
0
10
-45.021628127054882
20
98.793264213106198
30
0
10
-45.026829230749811
20
98.679044196394273
30
0
10
-45.029578360223326
20
98.618671315400874
30
0
0
SPLINE
5
119
100
AcDbEntity
8
0
100
AcDbSpline
70
1064
71
3
72
9
73
5
74
0
42
0.000000001
43
0.0000000001
44
0.0000000001
40
0
40
0
40
0
40
0
40
0.019804704874849293
40
0.037497274463244919
40
0.037497274463244919
40
0.037497274463244919
40
0.037497274463244919
10
-45.029578360223326
20
98.618671315400874
30
0
10
-45.02594060680056
20
98.551308987324234
30
0
10
-45.019053059655306
20
98.423768399351047
30
0
10
-44.947580480844564
20
98.318325412447436
30
0
10
-44.9138571344848
20
98.26857359954623
30
0
0
SPLINE
5
120
100
AcDbEntity
8
0
100
AcDbSpline
70
1064
71
3
72
9
73
5
74
0
42
0.000000001
43
0.0000000001
44
0.0000000001
40
0
40
0
40
0
40
0
40
0.017691132110108695
40
0.037333585129768095
40
0.037333585129768095
40
0.037333585129768095
40
0.037333585129768095
10
-44.9138571344848
20
98.26857359954623
30
0
10
-44.869639730726867
20
98.227974779767493
30
0
10
-44.776327770975527
20
98.1422991155452
30
0
10
-44.652398449300144
20
98.114658974709513
30
0
10
-44.587195070886168
20
98.10011656829623
30
0
0
SPLINE
5
121
100
AcDbEntity
8
0
100
AcDbSpline
70
1064
71
3
72
9
73
5
74
0
42
0.000000001
43
0.0000000001
44
0.0000000001
40
0
40
0
40
0
40
0
40
0.021122197995695945
40
0.063311239741029479
40
0.063311239741029479
40
0.063311239741029479
40
0.063311239741029479
10
-44.587195070886168
20
98.10011656829623
30
0
10
-44.516898503051969
20
98.095945521502898
30
0
10
-44.306193023440969
20
98.083443312047336
30
0
10
-44.095070978696754
20
98.084658415774427
30
0
10
-43.9543844782348
20
98.08546813079623
30
0
0
LINE
5
122
100
AcDbEntity
8
0
100
AcDbLine
10
-43.954384478234807
20
98.08546813079623
30
0
11
-43.277626188897642
21
98.08546813079623
31
0
0
LINE
5
123
100
AcDbEntity
8
0
100
AcDbLine
10
-43.277626188897642
20
98.08546813079623
30
0
11
-43.277626188897642
21
99.175312238424098
31
0
0
LINE
5
124
100
AcDbEntity
8
0
100
AcDbLine
10
-43.277626188897642
20
99.175312238424098
30
0
11
-43.919227274560484
21
99.175312238424098
31
0
0
LWPOLYLINE
5
125
100
AcDbEntity
8
0
100
AcDbPolyline
90
3
70
1
43
0.0
10
-75.178990515374693
20
99.954608994214809
10
-75.759072455071959
20
98.360858875005519
10
-76.350865515374693
20
99.954608994214809
0
SPLINE
5
126
100
AcDbEntity
8
0
100
AcDbSpline
70
1064
71
3
72
9
73
5
74
0
42
0.000000001
43
0.0000000001
44
0.0000000001
40
0
40
0
40
0
40
0
40
0.05070111863885856
40
0.078232214307233233
40
0.078232214307233233
40
0.078232214307233233
40
0.078232214307233233
10
-67.919225844049009
20
99.175312238424098
30
0
10
-68.088721969953752
20
99.177361075431719
30
0
10
-68.350255790153582
20
99.18052244662357
30
0
10
-68.607864442980784
20
99.137661158490076
30
0
10
-68.698520811700376
20
99.122577625005519
30
0
0
SPLINE
5
127
100
AcDbEntity
8
0
100
AcDbSpline
70
1064
71
3
72
9
73
5
74
0
42
0.000000001
43
0.0000000001
44
0.0000000001
40
0
40
0
40
0
40
0
40
0.015592852599915481
40
0.030772061288453764
40
0.030772061288453764
40
0.030772061288453764
40
0.030772061288453764
10
-68.698520811700376
20
99.122577625005519
30
0
10
-68.747266412334497
20
99.10212115135856
30
0
10
-68.843464500570406
20
99.061750869091355
30
0
10
-68.909242024123685
20
98.980845735892132
30
0
10
-68.941688688897642
20
98.940936940400874
30
0
0
SPLINE
5
128
100
AcDbEntity
8
0
100
AcDbSpline
70
1064
71
3
72
9
73
5
74
0
42
0.000000001
43
0.0000000001
44
0.0000000001
40
0
40
0
40
0
40
0
40
0.01592977523301926
40
0.033790083150268324
40
0.033790083150268324
40
0.033790083150268324
40
0.033790083150268324
10
-68.941688688897642
20
98.940936940400874
30
0
10
-68.967300838958479
20
98.89362398677747
30
0
10
-69.021629080729213
20
98.793264213106198
30
0
10
-69.026830184424142
20
98.679044196394287
30
0
10
-69.029579313897642
20
98.618671315400874
30
0
0
SPLINE
5
129
100
AcDbEntity
8
0
100
AcDbSpline
70
1064
71
3
72
9
73
5
74
0
42
0.000000001
43
0.0000000001
44
0.0000000001
40
0
40
0
40
0
40
0
40
0.019804704874849293
40
0.037497391421527804
40
0.037497391421527804
40
0.037497391421527804
40
0.037497391421527804
10
-69.029579313897642
20
98.618671315400874
30
0
10
-69.025941720135194
20
98.551308893307578
30
0
10
-69.019054453801004
20
98.423767729513557
30
0
10
-68.947580035851885
20
98.318325315732949
30
0
10
-68.913855703973326
20
98.26857359954623
30
0
0
SPLINE
5
130
100
AcDbEntity
8
0
100
AcDbSpline
70
1064
71
3
72
9
73
5
74
0
42
0.000000001
43
0.0000000001
44
0.0000000001
40
0
40
0
40
0
40
0
40
0.017691132110108695
40
0.037333585129768095
40
0.037333585129768095
40
0.037333585129768095
40
0.037333585129768095
10
-68.913855703973326
20
98.26857359954623
30
0
10
-68.869638300215399
20
98.227974779767493
30
0
10
-68.776326340464053
20
98.1422991155452
30
0
10
-68.652397018788662
20
98.114658974709513
30
0
10
-68.587193640374693
20
98.10011656829623
30
0
0
SPLINE
5
131
100
AcDbEntity
8
0
100
AcDbSpline
70
1064
71
3
72
9
73
5
74
0
42
0.000000001
43
0.0000000001
44
0.0000000001
40
0
40
0
40
0
40
0
40
0.021122436091554852
40
0.063311239427291513
40
0.063311239427291513
40
0.063311239427291513
40
0.063311239427291513
10
-68.587193640374693
20
98.10011656829623
30
0
10
-68.516896277796761
20
98.095945517488801
30
0
10
-68.306190792217961
20
98.083443436990692
30
0
10
-68.095068751309356
20
98.08465846848199
30
0
10
-67.954383047723326
20
98.08546813079623
30
0
0
LINE
5
132
100
AcDbEntity
8
0
100
AcDbLine
10
-67.95438304772334
20
98.08546813079623
30
0
11
-67.277622374200376
21
98.08546813079623
31
0
0
LINE
5
133
100
AcDbEntity
8
0
100
AcDbLine
10
-67.277622374200376
20
98.08546813079623
30
0
11
-67.277622374200376
21
99.175312238424098
31
0
0
LINE
5
134
100
AcDbEntity
8
0
100
AcDbLine
10
-67.277622374200376
20
99.175312238424098
30
0
11
-67.919225844049009
21
99.175312238424098
31
0
0
LINE
5
135
100
AcDbEntity
8
0
100
AcDbLine
10
73.731154506600461
20
104.19971176657887
30
0
11
72.867873018181882
21
104.19971176657887
31
0
0
SPLINE
5
136
100
AcDbEntity
8
0
100
AcDbSpline
70
1064
71
3
72
9
73
5
74
0
42
0.000000001
43
0.0000000001
44
0.0000000001
40
0
40
0
40
0
40
0
40
0.041721697908161201
40
0.07024074164214178
40
0.07024074164214178
40
0.07024074164214178
40
0.07024074164214178
10
72.867873018181882
20
104.19971176657887
30
0
10
72.728468180448729
20
104.19974107356094
30
0
10
72.493772574041898
20
104.19979041345502
30
0
10
72.26253944517903
20
104.16083893255761
30
0
10
72.168654506600461
20
104.145023908951
30
0
0
SPLINE
5
137
100
AcDbEntity
8
0
100
AcDbSpline
70
1064
71
3
72
9
73
5
74
0
42
0.000000001
43
0.0000000001
44
0.0000000001
40
0
40
0
40
0
40
0
40
0.027420551081006658
40
0.052814758388443378
40
0.052814758388443378
40
0.052814758388443378
40
0.052814758388443378
10
72.168654506600461
20
104.145023908951
30
0
10
72.080185555737515
20
104.11866493514047
30
0
10
71.909785396714369
20
104.06789488208585
30
0
10
71.769371611632693
20
103.95906852484063
30
0
10
71.701858346856199
20
103.90674301657887
30
0
0
SPLINE
5
138
100
AcDbEntity
8
0
100
AcDbSpline
70
1064
71
3
72
9
73
5
74
0
42
0.000000001
43
0.0000000001
44
0.0000000001
40
0
40
0
40
0
40
0
40
0.027881244182436416
40
0.063561041046382022
40
0.063561041046382022
40
0.063561041046382022
40
0.063561041046382022
10
71.701858346856199
20
103.90674301657887
30
0
10
71.641061489117519
20
103.83532966572946
30
0
10
71.502462524704939
20
103.67252821774181
30
0
10
71.436277009370741
20
103.46852491615681
30
0
10
71.399123971856199
20
103.354008283951
30
0
0
SPLINE
5
139
100
AcDbEntity
8
0
100
AcDbSpline
70
1064
71
3
72
9
73
5
74
0
42
0.000000001
43
0.0000000001
44
0.0000000001
40
0
40
0
40
0
40
0
40
0.046300818526338133
40
0.10579682785691816
40
0.10579682785691816
40
0.10579682785691816
40
0.10579682785691816
10
71.399123971856199
20
103.354008283951
30
0
10
71.365079348762507
20
103.20305144804122
30
0
10
71.287287783871534
20
102.85811684664779
30
0
10
71.283862639468865
20
102.50420591951129
30
0
10
71.281936471856199
20
102.30518021855565
30
0
0
SPLINE
5
140
100
AcDbEntity
8
0
100
AcDbSpline
70
1064
71
3
72
9
73
5
74
0
42
0.000000001
43
0.0000000001
44
0.0000000001
40
0
40
0
40
0
40
0
40
0.058764487031763624
40
0.10290996128896691
40
0.10290996128896691
40
0.10290996128896691
40
0.10290996128896691
10
71.281936471856199
20
102.30518021855565
30
0
10
71.28335564395725
20
102.10849209799426
30
0
10
71.285840936577983
20
101.76404653409385
30
0
10
71.365116841830172
20
101.42926211328336
30
0
10
71.399123971856199
20
101.28564902816029
30
0
0
SPLINE
5
141
100
AcDbEntity
8
0
100
AcDbSpline
70
1064
71
3
72
9
73
5
74
0
42
0.000000001
43
0.0000000001
44
0.0000000001
40
0
40
0
40
0
40
0
40
0.034624894945802218
40
0.064945514478146962
40
0.064945514478146962
40
0.064945514478146962
40
0.064945514478146962
10
71.399123971856199
20
101.28564902816029
30
0
10
71.439468873700491
20
101.17624406195836
30
0
10
71.51514333887792
20
100.9710344338116
30
0
10
71.659741354913223
20
100.80737028610972
30
0
10
71.727248733437619
20
100.73096164736958
30
0
0
SPLINE
5
142
100
AcDbEntity
8
0
100
AcDbSpline
70
1064
71
3
72
9
73
5
74
0
42
0.000000001
43
0.0000000001
44
0.0000000001
40
0
40
0
40
0
40
0
40
0.02917716768902422
40
0.060493253231077806
40
0.060493253231077806
40
0.060493253231077806
40
0.060493253231077806
10
71.727248733437619
20
100.73096164736958
30
0
10
71.80407285966065
20
100.66955338705574
30
0
10
71.963352930001889
20
100.54223515379753
30
0
10
72.160398117031491
20
100.48899279017886
30
0
10
72.262404268181882
20
100.46143033776494
30
0
0
SPLINE
5
143
100
AcDbEntity
8
0
100
AcDbSpline
70
1064
71
3
72
9
73
5
74
0
42
0.000000001
43
0.0000000001
44
0.0000000001
40
0
40
0
40
0
40
0
40
0.036073847032035852
40
0.09517169472539963
40
0.09517169472539963
40
0.09517169472539963
40
0.09517169472539963
10
72.262404268181882
20
100.46143033776494
30
0
10
72.381728969138933
20
100.44569453010752
30
0
10
72.696536924126349
20
100.40417959322542
30
0
10
73.014303372410637
20
100.40576086876641
30
0
10
73.211623733437619
20
100.40674277816029
30
0
0
LINE
5
144
100
AcDbEntity
8
0
100
AcDbLine
10
73.211623733437619
20
100.40674277816029
30
0
11
73.731154506600461
21
100.40674277816029
31
0
0
LINE
5
145
100
AcDbEntity
8
0
100
AcDbLine
10
73.731154506600461
20
100.40674277816029
30
0
11
73.731154506600461
21
104.19971176657887
31
0
0
SPLINE
5
146
100
AcDbEntity
8
0
100
AcDbSpline
70
1064
71
3
72
9
73
5
74
0
42
0.000000001
43
0.0000000001
44
0.0000000001
40
0
40
0
40
0
40
0
40
0.067601054823862139
40
0.10430988593709822
40
0.10430988593709822
40
0.10430988593709822
40
0.10430988593709822
10
67.090529506600461
20
101.85986795697423
30
0
10
66.864536178791937
20
101.86259929024376
30
0
10
66.515823598675027
20
101.86681379640119
30
0
10
66.172344314250935
20
101.80966662348267
30
0
10
66.051466768181882
20
101.78955533776494
30
0
0
SPLINE
5
147
100
AcDbEntity
8
0
100
AcDbSpline
70
1064
71
3
72
9
73
5
74
0
42
0.000000001
43
0.0000000001
44
0.0000000001
40
0
40
0
40
0
40
0
40
0.020790602091979131
40
0.041029053464227846
40
0.041029053464227846
40
0.041029053464227846
40
0.041029053464227846
10
66.051466768181882
20
101.78955533776494
30
0
10
65.986471669141181
20
101.76228058328127
30
0
10
65.858207591859724
20
101.70845542925333
30
0
10
65.770508120496487
20
101.60057986731887
30
0
10
65.72724849501904
20
101.54736795697423
30
0
0
SPLINE
5
148
100
AcDbEntity
8
0
100
AcDbSpline
70
1064
71
3
72
9
73
5
74
0
42
0.000000001
43
0.0000000001
44
0.0000000001
40
0
40
0
40
0
40
0
40
0.021239718398045681
40
0.045053442570423929
40
0.045053442570423929
40
0.045053442570423929
40
0.045053442570423929
10
65.72724849501904
20
101.54736795697423
30
0
10
65.693098960744919
20
101.48428395207974
30
0
10
65.620661367534282
20
101.35047089776506
30
0
10
65.613726520394081
20
101.19817755899184
30
0
10
65.61006099501904
20
101.11768045697423
30
0
0
SPLINE
5
149
100
AcDbEntity
8
0
100
AcDbSpline
70
1064
71
3
72
9
73
5
74
0
42
0.000000001
43
0.0000000001
44
0.0000000001
40
0
40
0
40
0
40
0
40
0.026406304430666411
40
0.049996466530313602
40
0.049996466530313602
40
0.049996466530313602
40
0.049996466530313602
10
65.61006099501904
20
101.11768045697423
30
0
10
65.614911537797539
20
101.02786389276561
30
0
10
65.624095329505892
20
100.85780939467732
30
0
10
65.719393284894764
20
100.71721906458953
30
0
10
65.764358346856199
20
100.65088340316029
30
0
0
SPLINE
5
150
100
AcDbEntity
8
0
100
AcDbSpline
70
1064
71
3
72
9
73
5
74
0
42
0.000000001
43
0.0000000001
44
0.0000000001
40
0
40
0
40
0
40
0
40
0.02358791321633252
40
0.049777780899527384
40
0.049777780899527384
40
0.049777780899527384
40
0.049777780899527384
10
65.764358346856199
20
100.65088340316029
30
0
10
65.823313795289749
20
100.5967517173232
30
0
10
65.947727997090652
20
100.48251714419214
30
0
10
66.112966117115846
20
100.44566385783708
30
0
10
66.199903791344724
20
100.42627402816029
30
0
0
SPLINE
5
151
100
AcDbEntity
8
0
100
AcDbSpline
70
1064
71
3
72
9
73
5
74
0
42
0.000000001
43
0.0000000001
44
0.0000000001
40
0
40
0
40
0
40
0
40
0.028163168756785921
40
0.084415264152163466
40
0.084415264152163466
40
0.084415264152163466
40
0.084415264152163466
10
66.199903791344724
20
100.42627402816029
30
0
10
66.293633343262783
20
100.4207126299855
30
0
10
66.574574914587927
20
100.40404309609771
30
0
10
66.856071898274536
20
100.40566319030559
30
0
10
67.043654029763303
20
100.40674277816029
30
0
0
LINE
5
152
100
AcDbEntity
8
0
100
AcDbLine
10
67.043654029763303
20
100.40674277816029
30
0
11
67.945998018181882
21
100.40674277816029
31
0
0
LINE
5
153
100
AcDbEntity
8
0
100
AcDbLine
10
67.945998018181882
20
100.40674277816029
30
0
11
67.945998018181882
21
101.85986795697423
31
0
0
LINE
5
154
100
AcDbEntity
8
0
100
AcDbLine
10
67.945998018181882
20
101.85986795697423
30
0
11
67.090529506600461
21
101.85986795697423
31
0
0
LWPOLYLINE
5
155
100
AcDbEntity
8
0
100
AcDbPolyline
90
3
70
1
43
0.0
10
61.856155698693357
20
102.89893039736958
10
61.082716291344724
20
100.77393033776494
10
60.293655698693357
20
102.89893039736958
0
SPLINE
5
156
100
AcDbEntity
8
0
100
AcDbSpline
70
1064
71
3
72
9
73
5
74
0
42
0.000000001
43
0.0000000001
44
0.0000000001
40
0
40
0
40
0
40
0
40
0.043095735990140271
40
0.06649761196573814
40
0.06649761196573814
40
0.06649761196573814
40
0.06649761196573814
10
67.139309947884627
20
108.05851497003344
30
0
10
66.995238987932652
20
108.06025628365686
30
0
10
66.772934516961087
20
108.06294316659273
30
0
10
66.553966267363862
20
108.02651186103631
30
0
10
66.476906841195174
20
108.01369093605784
30
0
0
SPLINE
5
157
100
AcDbEntity
8
0
100
AcDbSpline
70
1064
71
3
72
9
73
5
74
0
42
0.000000001
43
0.0000000001
44
0.0000000001
40
0
40
0
40
0
40
0
40
0.013254027108660558
40
0.026155992561059636
40
0.026155992561059636
40
0.026155992561059636
40
0.026155992561059636
10
66.476906841195174
20
108.01369093605784
30
0
10
66.435472364837622
20
107.99630330649605
30
0
10
66.353704020281327
20
107.96198990833078
30
0
10
66.297795963652845
20
107.89321903480784
30
0
10
66.270218198693343
20
107.8592964286497
30
0
0
SPLINE
5
158
100
AcDbEntity
8
0
100
AcDbSpline
70
1064
71
3
72
9
73
5
74
0
42
0.000000001
43
0.0000000001
44
0.0000000001
40
0
40
0
40
0
40
0
40
0.013540358523918524
40
0.028721602410552525
40
0.028721602410552525
40
0.028721602410552525
40
0.028721602410552525
10
66.270218198693343
20
107.8592964286497
30
0
10
66.248447739984783
20
107.81908031544886
30
0
10
66.202268574328457
20
107.73377450823467
30
0
10
66.197846887425783
20
107.63668746485232
30
0
10
66.195509736931868
20
107.58537061759738
30
0
0
SPLINE
5
159
100
AcDbEntity
8
0
100
AcDbSpline
70
1064
71
3
72
9
73
5
74
0
42
0.000000001
43
0.0000000001
44
0.0000000001
40
0
40
0
40
0
40
0
40
0.016834006311666663
40
0.031872738548025061
40
0.031872738548025061
40
0.031872738548025061
40
0.031872738548025061
10
66.195509736931868
20
107.58537061759738
30
0
10
66.198601848908098
20
107.5281125843896
30
0
10
66.204456312471592
20
107.41970283994625
30
0
10
66.265208819281085
20
107.33007655641703
30
0
10
66.2938740901118
20
107.28778757402209
30
0
0
SPLINE
5
160
100
AcDbEntity
8
0
100
AcDbSpline
70
1064
71
3
72
9
73
5
74
0
42
0.000000001
43
0.0000000001
44
0.0000000001
40
0
40
0
40
0
40
0
40
0.015037528324033855
40
0.031733496875961331
40
0.031733496875961331
40
0.031733496875961331
40
0.031733496875961331
10
66.2938740901118
20
107.28778757402209
30
0
10
66.331459122714904
20
107.25327852475672
30
0
10
66.410774319268043
20
107.18045453510516
30
0
10
66.516113948871293
20
107.156960154155
30
0
10
66.571536367333479
20
107.14459903785495
30
0
0
SPLINE
5
161
100
AcDbEntity
8
0
100
AcDbSpline
70
1064
71
3
72
9
73
5
74
0
42
0.000000001
43
0.0000000001
44
0.0000000001
40
0
40
0
40
0
40
0
40
0.017953855771506842
40
0.053814672432057238
40
0.053814672432057238
40
0.053814672432057238
40
0.053814672432057238
10
66.571536367333479
20
107.14459903785495
30
0
10
66.631288410641417
20
107.14105369698301
30
0
10
66.81038847018776
20
107.13042693468124
30
0
10
66.989842601767322
20
107.13145970921816
30
0
10
67.109426563180037
20
107.13214792558459
30
0
0
LINE
5
162
100
AcDbEntity
8
0
100
AcDbLine
10
67.109426563180023
20
107.13214792558459
30
0
11
67.684670989907332
21
107.13214792558459
31
0
0
LINE
5
163
100
AcDbEntity
8
0
100
AcDbLine
10
67.684670989907332
20
107.13214792558459
30
0
11
67.684670989907332
21
108.05851497003344
31
0
0
LINE
5
164
100
AcDbEntity
8
0
100
AcDbLine
10
67.684670989907332
20
108.05851497003344
30
0
11
67.139309947884627
21
108.05851497003344
31
0
0
LWPOLYLINE
5
165
100
AcDbEntity
8
0
100
AcDbPolyline
90
3
70
1
43
0.0
10
71.16850764075572
20
108.72091748067645
10
70.675441329873152
20
107.36622996875552
10
70.17241389075572
20
108.72091748067645
0
SPLINE
5
166
100
AcDbEntity
8
0
100
AcDbSpline
70
1064
71
3
72
9
73
5
74
0
42
0.000000001
43
0.0000000001
44
0.0000000001
40
0
40
0
40
0
40
0
40
0.043095631717280904
40
0.066497537186084976
40
0.066497537186084976
40
0.066497537186084976
40
0.066497537186084976
10
84.71040234485919
20
108.05851497003344
30
0
10
84.566331735635515
20
108.06025625195727
30
0
10
84.344027517956931
20
108.06294308945951
30
0
10
84.125059508618719
20
108.02651186357421
30
0
10
84.047999983227797
20
108.01369093605784
30
0
0
SPLINE
5
167
100
AcDbEntity
8
0
100
AcDbSpline
70
1064
71
3
72
9
73
5
74
0
42
0.000000001
43
0.0000000001
44
0.0000000001
40
0
40
0
40
0
40
0
40
0.013254066794369268
40
0.026156063092883323
40
0.026156063092883323
40
0.026156063092883323
40
0.026156063092883323
10
84.047999983227797
20
108.01369093605784
30
0
10
84.006565362890825
20
107.99630331226285
30
0
10
83.924796758538832
20
107.96198993569151
30
0
10
83.86888836792707
20
107.89321903689958
30
0
10
83.841310446656294
20
107.8592964286497
30
0
0
SPLINE
5
168
100
AcDbEntity
8
0
100
AcDbSpline
70
1064
71
3
72
9
73
5
74
0
42
0.000000001
43
0.0000000001
44
0.0000000001
40
0
40
0
40
0
40
0
40
0.013540333859296542
40
0.028721566746316894
40
0.028721566746316894
40
0.028721566746316894
40
0.028721566746316894
10
83.841310446656294
20
107.8592964286497
30
0
10
83.819540171164405
20
107.81908030336035
30
0
10
83.773361367368011
20
107.73377442104027
30
0
10
83.768940299508586
20
107.63668745206357
30
0
10
83.766603475010939
20
107.58537061759738
30
0
0
SPLINE
5
169
100
AcDbEntity
8
0
100
AcDbSpline
70
1064
71
3
72
9
73
5
74
0
42
0.000000001
43
0.0000000001
44
0.0000000001
40
0
40
0
40
0
40
0
40
0.016834015018595438
40
0.031872718015446035
40
0.031872718015446035
40
0.031872718015446035
40
0.031872718015446035
10
83.766603475010939
20
107.58537061759738
30
0
10
83.769695873047311
20
107.52811261414647
30
0
10
83.775550871423889
20
107.41970305195332
30
0
10
83.836302845832989
20
107.33007658702759
30
0
10
83.864967828190871
20
107.28778757402209
30
0
0
SPLINE
5
170
100
AcDbEntity
8
0
100
AcDbSpline
70
1064
71
3
72
9
73
5
74
0
42
0.000000001
43
0.0000000001
44
0.0000000001
40
0
40
0
40
0
40
0
40
0.015037410800883912
40
0.031733407745637543
40
0.031733407745637543
40
0.031733407745637543
40
0.031733407745637543
10
83.864967828190871
20
107.28778757402209
30
0
10
83.902552342624773
20
107.25327850889852
30
0
10
83.981866842790112
20
107.18045412117729
30
0
10
84.087206323354877
20
107.15696004797742
30
0
10
84.142628913319655
20
107.14459903785495
30
0
0
SPLINE
5
171
100
AcDbEntity
8
0
100
AcDbSpline
70
1064
71
3
72
9
73
5
74
0
42
0.000000001
43
0.0000000001
44
0.0000000001
40
0
40
0
40
0
40
0
40
0.017953974819439441
40
0.05381471697699089
40
0.05381471697699089
40
0.05381471697699089
40
0.05381471697699089
10
84.142628913319655
20
107.14459903785495
30
0
10
84.202381354009447
20
107.14105369522733
30
0
10
84.381481565341133
20
107.1304269893301
30
0
10
84.560935844123804
20
107.13145973227186
30
0
10
84.680519556201048
20
107.13214792558459
30
0
0
LINE
5
172
100
AcDbEntity
8
0
100
AcDbLine
10
84.680519556201048
20
107.13214792558459
30
0
11
85.255763684905119
21
107.13214792558459
31
0
0
LINE
5
173
100
AcDbEntity
8
0
100
AcDbLine
10
85.255763684905119
20
107.13214792558459
30
0
11
85.255763684905119
21
108.05851497003344
31
0
0
LINE
5
174
100
AcDbEntity
8
0
100
AcDbLine
10
85.255763684905119
20
108.05851497003344
30
0
11
84.71040234485919
21
108.05851497003344
31
0
0
LWPOLYLINE
5
175
100
AcDbEntity
8
0
100
AcDbPolyline
90
8
70
1
43
0.0
10
101.66942064026628
20
102.41654712208998
10
101.74013131838493
20
102.48725780020862
42
0.41421356237305829
10
101.74013131838493
20
102.77010051268323
10
95.022974030859544
20
109.48725780020858
42
0.41421356237313184
10
94.740131318384968
20
109.48725780020858
10
94.669420640266267
20
109.41654712208988
42
0.41421356237316864
10
94.669420640266267
20
109.13370440961528
10
101.38657792779165
20
102.41654712208997
42
0.41421356237313184
0
LWPOLYLINE
5
176
100
AcDbEntity
8
0
100
AcDbPolyline
90
12
70
1
43
0.0
10
79.605422323144026
20
106.51456989595202
10
82.312306766903944
20
106.51456989595202
10
82.312306766903944
20
110.1652533585718
10
79.535695617592879
20
110.1652533585718
10
79.535695617592879
20
109.55016531297473
10
81.575197284615584
20
109.55016531297473
10
81.575197284615584
20
108.55656184503344
10
79.742384856141157
20
108.55656184503344
10
79.742384856141157
20
107.94147409745959
10
81.575197284615584
20
107.94147409745959
10
81.575197284615584
20
107.13214792558459
10
79.605422323144026
20
107.13214792558459
0
LWPOLYLINE
5
177
100
AcDbEntity
8
0
100
AcDbPolyline
90
12
70
1
43
0.0
10
72.802102868950911
20
106.51456989595202
10
75.508987014687605
20
106.51456989595202
10
75.508987014687605
20
110.1652533585718
10
72.732376163399763
20
110.1652533585718
10
72.732376163399763
20
109.55016531297473
10
74.771877830422468
20
109.55016531297473
10
74.771877830422468
20
108.55656184503344
10
72.939064805901594
20
108.55656184503344
10
72.939064805901594
20
107.94147409745959
10
74.771877830422468
20
107.94147409745959
10
74.771877830422468
20
107.13214792558459
10
72.802102868950911
20
107.13214792558459
0
LWPOLYLINE
5
178
100
AcDbEntity
8
0
100
AcDbPolyline
90
8
70
1
43
0.0
10
-13.295202406549006
20
100.67824186631945
10
-13.670202644967585
20
101.65382774421481
10
-14.613561781549006
20
101.65382774421481
10
-12.893835457467587
20
97.358905690400874
10
-11.976843031549008
20
97.358905690400874
10
-10.303991588258295
20
101.65382774421481
10
-11.223913582467587
20
101.65382774421481
10
-11.578405650758297
20
100.67824186631945
0
LWPOLYLINE
5
179
100
AcDbEntity
8
0
100
AcDbPolyline
90
8
70
1
43
0.0
10
-19.098913820886168
20
98.08546813079623
10
-20.373327883386168
20
98.08546813079623
10
-20.373327883386168
20
101.65382774421481
10
-21.240515860223326
20
101.65382774421481
10
-21.240515860223326
20
98.08546813079623
10
-22.511999758386168
20
98.08546813079623
10
-22.511999758386168
20
97.358905690400874
10
-19.098913820886164
20
97.358905690400874
0
LWPOLYLINE
5
180
100
AcDbEntity
8
0
100
AcDbPolyline
90
6
70
1
43
0.0
10
-25.629187973641905
20
97.394062000005519
10
-24.761999996804747
20
97.394062000005519
10
-24.761999996804747
20
101.65382774421481
10
-27.785437258386168
20
101.65382774421481
10
-27.785437258386168
20
100.93019487211016
10
-25.629187973641905
20
100.93019487211016
0
SPLINE
5
181
100
AcDbEntity
8
0
100
AcDbSpline
70
1064
71
3
72
9
73
5
74
0
42
0.000000001
43
0.0000000001
44
0.0000000001
40
0
40
0
40
0
40
0
40
0.038604702769311765
40
0.070677794333220148
40
0.070677794333220148
40
0.070677794333220148
40
0.070677794333220148
10
-33.360631617211851
20
100.17433555671481
30
0
10
-33.388359115197616
20
100.30266753830685
30
0
10
-33.439122837216757
20
100.53761874245252
30
0
10
-33.597737051541131
20
100.71697039976254
30
0
10
-33.669715078973326
20
100.79835893461016
30
0
0
SPLINE
5
182
100
AcDbEntity
8
0
100
AcDbSpline
70
1064
71
3
72
9
73
5
74
0
42
0.000000001
43
0.0000000001
44
0.0000000001
40
0
40
0
40
0
40
0
40
0.031170355158825255
40
0.06700390353712761
40
0.06700390353712761
40
0.06700390353712761
40
0.06700390353712761
10
-33.669715078973326
20
100.79835893461016
30
0
10
-33.758178535598127
20
100.85638917147779
30
0
10
-33.948339888718657
20
100.98113116987665
30
0
10
-34.176247239567033
20
100.99184688358267
30
0
10
-34.298131617211851
20
100.99757762500552
30
0
0
SPLINE
5
183
100
AcDbEntity
8
0
100
AcDbSpline
70
1064
71
3
72
9
73
5
74
0
42
0.000000001
43
0.0000000001
44
0.0000000001
40
0
40
0
40
0
40
0
40
0.036997322488091622
40
0.066558814792987558
40
0.066558814792987558
40
0.066558814792987558
40
0.066558814792987558
10
-34.298131617211851
20
100.99757762500552
30
0
10
-34.423982685501684
20
100.99411520716322
30
0
10
-34.650390905947866
20
100.98788625835276
30
0
10
-34.843647531298345
20
100.87186249169976
30
0
10
-34.929480703973326
20
100.82033159086016
30
0
0
SPLINE
5
184
100
AcDbEntity
8
0
100
AcDbSpline
70
1064
71
3
72
9
73
5
74
0
42
0.000000001
43
0.0000000001
44
0.0000000001
40
0
40
0
40
0
40
0
40
0.024968228417058497
40
0.04782264903894972
40
0.04782264903894972
40
0.04782264903894972
40
0.04782264903894972
10
-34.929480703973326
20
100.82033159086016
30
0
10
-34.991395207013468
20
100.7606467436479
30
0
10
-35.109982537273822
20
100.64632996259729
30
0
10
-35.131567570760787
20
100.48356586918246
30
0
10
-35.141883047723326
20
100.4057809884241
30
0
0
SPLINE
5
185
100
AcDbEntity
8
0
100
AcDbSpline
70
1064
71
3
72
9
73
5
74
0
42
0.000000001
43
0.0000000001
44
0.0000000001
40
0
40
0
40
0
40
0
40
0.014275001462794085
40
0.027870173330543611
40
0.027870173330543611
40
0.027870173330543611
40
0.027870173330543611
10
-35.141883047723326
20
100.4057809884241
30
0
10
-35.138537439586564
20
100.35735047336055
30
0
10
-35.132005553834347
20
100.26279588765166
30
0
10
-35.078586527761459
20
100.18463206345442
30
0
10
-35.052528532647642
20
100.14650346586016
30
0
0
SPLINE
5
186
100
AcDbEntity
8
0
100
AcDbSpline
70
1064
71
3
72
9
73
5
74
0
42
0.000000001
43
0.0000000001
44
0.0000000001
40
0
40
0
40
0
40
0
40
0.015825832955155984
40
0.036623241485006008
40
0.036623241485006008
40
0.036623241485006008
40
0.036623241485006008
10
-35.052528532647642
20
100.14650346586016
30
0
10
-35.013175696772116
20
100.11069431460749
30
0
10
-34.922107604781445
20
100.02782681578981
30
0
10
-34.806286672110708
20
99.984865034862679
30
0
10
-34.740514906549009
20
99.96046813079623
30
0
0
SPLINE
5
187
100
AcDbEntity
8
0
100
AcDbSpline
70
1064
71
3
72
9
73
5
74
0
42
0.000000001
43
0.0000000001
44
0.0000000001
40
0
40
0
40
0
40
0
40
0.026027088688512161
40
0.071929985414096745
40
0.071929985414096745
40
0.071929985414096745
40
0.071929985414096745
10
-34.740514906549009
20
99.96046813079623
30
0
10
-34.657404188145442
20
99.935544138503019
30
0
10
-34.427714543096442
20
99.86666273484056
30
0
10
-34.194810578759991
20
99.809467845622663
30
0
10
-34.046180399560484
20
99.772968309610164
30
0
0
SPLINE
5
188
100
AcDbEntity
8
0
100
AcDbSpline
70
1064
71
3
72
9
73
5
74
0
42
0.000000001
43
0.0000000001
44
0.0000000001
40
0
40
0
40
0
40
0
40
0.062375045728828994
40
0.107355987756905
40
0.107355987756905
40
0.107355987756905
40
0.107355987756905
10
-34.046180399560484
20
99.772968309610164
30
0
10
-33.842710531911521
20
99.721283356358711
30
0
10
-33.49251105125407
20
99.632326480357307
30
0
10
-33.193108952833434
20
99.432069166690781
30
0
10
-33.067662867211851
20
99.348163622110164
30
0
0
SPLINE
5
189
100
AcDbEntity
8
0
100
AcDbSpline
70
1064
71
3
72
9
73
5
74
0
42
0.000000001
43
0.0000000001
44
0.0000000001
40
0
40
0
40
0
40
0
40
0.04926289075580146
40
0.097384407253127303
40
0.097384407253127303
40
0.097384407253127303
40
0.097384407253127303
10
-33.067662867211851
20
99.348163622110164
30
0
10
-32.952311003014856
20
99.224547325794362
30
0
10
-32.724279867447663
20
98.980178805010311
30
0
10
-32.689393700200185
20
98.648032324166834
30
0
10
-32.672155054711851
20
98.48390551158694
30
0
0
SPLINE
5
190
100
AcDbEntity
8
0
100
AcDbSpline
70
1064
71
3
72
9
73
5
74
0
42
0.000000001
43
0.0000000001
44
0.0000000001
40
0
40
0
40
0
40
0
40
0.032089291074635269
40
0.064836925561834735
40
0.064836925561834735
40
0.064836925561834735
40
0.064836925561834735
10
-32.672155054711851
20
98.48390551158694
30
0
10
-32.680216325683844
20
98.375827306180213
30
0
10
-32.696504252541715
20
98.157453564531778
30
0
10
-32.803931609511579
20
97.966554587539235
30
0
10
-32.858190687799009
20
97.870135920732295
30
0
0
SPLINE
5
191
100
AcDbEntity
8
0
100
AcDbSpline
70
1064
71
3
72
9
73
5
74
0
42
0.000000001
43
0.0000000001
44
0.0000000001
40
0
40
0
40
0
40
0
40
0.033889233924357061
40
0.069832857945109988
40
0.069832857945109988
40
0.069832857945109988
40
0.069832857945109988
10
-32.858190687799009
20
97.870135920732295
30
0
10
-32.928668185406416
20
97.779916174534108
30
0
10
-33.073895577968031
20
97.594007495271441
30
0
10
-33.285440687642904
20
97.489083041987158
30
0
10
-33.394324930810484
20
97.435077446191585
30
0
0
SPLINE
5
192
100
AcDbEntity
8
0
100
AcDbSpline
70
1064
71
3
72
9
73
5
74
0
42
0.000000001
43
0.0000000001
44
0.0000000001
40
0
40
0
40
0
40
0
40
0.040227581404800539
40
0.086265407933546229
40
0.086265407933546229
40
0.086265407933546229
40
0.086265407933546229
10
-33.394324930810484
20
97.435077446191585
30
0
10
-33.5219746255597
20
97.391551299089912
30
0
10
-33.795711017497496
20
97.298212333524972
30
0
10
-34.085098532459426
20
97.290030145105504
30
0
10
-34.239537867211851
20
97.285663502900874
30
0
0
SPLINE
5
193
100
AcDbEntity
8
0
100
AcDbSpline
70
1064
71
3
72
9
73
5
74
0
42
0.000000001
43
0.0000000001
44
0.0000000001
40
0
40
0
40
0
40
0
40
0.071414082683653693
40
0.12880985701698527
40
0.12880985701698527
40
0.12880985701698527
40
0.12880985701698527
10
-34.239537867211851
20
97.285663502900874
30
0
10
-34.482741267187194
20
97.292826322330058
30
0
10
-34.921408179925393
20
97.305745927425264
30
0
10
-35.291788458999385
20
97.537077590631526
30
0
10
-35.456824453973326
20
97.640155571191585
30
0
0
SPLINE
5
194
100
AcDbEntity
8
0
100
AcDbSpline
70
1064
71
3
72
9
73
5
74
0
42
0.000000001
43
0.0000000001
44
0.0000000001
40
0
40
0
40
0
40
0
40
0.05180421464250029
40
0.10633348067304373
40
0.10633348067304373
40
0.10633348067304373
40
0.10633348067304373
10
-35.456824453973326
20
97.640155571191585
30
0
10
-35.576942441463039
20
97.770621380358705
30
0
10
-35.823496969687511
20
98.038415877260135
30
0
10
-35.864828051005574
20
98.400673765033773
30
0
10
-35.886023195886168
20
98.58644457408694
30
0
0
LINE
5
195
100
AcDbEntity
8
0
100
AcDbLine
10
-35.886023195886175
20
98.58644457408694
30
0
11
-35.018835219049009
21
98.624530750005519
31
0
0
SPLINE
5
196
100
AcDbEntity
8
0
100
AcDbSpline
70
1064
71
3
72
9
73
5
74
0
42
0.000000001
43
0.0000000001
44
0.0000000001
40
0
40
0
40
0
40
0
40
0.029770322407900562
40
0.054174740110479624
40
0.054174740110479624
40
0.054174740110479624
40
0.054174740110479624
10
-35.018835219049009
20
98.624530750005519
30
0
10
-34.998541332610593
20
98.525019761221955
30
0
10
-34.961611399216885
20
98.343933984533933
30
0
10
-34.836448872976725
20
98.2091661844767
30
0
10
-34.780066164636168
20
98.148456531255519
30
0
0
SPLINE
5
197
100
AcDbEntity
8
0
100
AcDbSpline
70
1064
71
3
72
9
73
5
74
0
42
0.000000001
43
0.0000000001
44
0.0000000001
40
0
40
0
40
0
40
0
40
0.025341008169246303
40
0.057588911365762718
40
0.057588911365762718
40
0.057588911365762718
40
0.057588911365762718
10
-34.780066164636168
20
98.148456531255519
30
0
10
-34.705453266933972
20
98.106314333535721
30
0
10
-34.535891127818743
20
98.010543744100801
30
0
10
-34.340283576906565
20
98.005988005004724
30
0
10
-34.230749758386168
20
98.003436940400874
30
0
0
SPLINE
5
198
100
AcDbEntity
8
0
100
AcDbSpline
70
1064
71
3
72
9
73
5
74
0
42
0.000000001
43
0.0000000001
44
0.0000000001
40
0
40
0
40
0
40
0
40
0.033914295450969488
40
0.061937058773234466
40
0.061937058773234466
40
0.061937058773234466
40
0.061937058773234466
10
-34.230749758386168
20
98.003436940400874
30
0
10
-34.115849332894882
20
98.007056838815657
30
0
10
-33.906008783000175
20
98.013667793219597
30
0
10
-33.722140966983872
20
98.113529122322205
30
0
10
-33.638951929711851
20
98.15871031829623
30
0
0
SPLINE
5
199
100
AcDbEntity
8
0
100
AcDbSpline
70
1064
71
3
72
9
73
5
74
0
42
0.000000001
43
0.0000000001
44
0.0000000001
40
0
40
0
40
0
40
0
40
0.015564926328205117
40
0.030969099888803076
40
0.030969099888803076
40
0.030969099888803076
40
0.030969099888803076
10
-33.638951929711851
20
98.15871031829623
30
0
10
-33.598791225852139
20
98.194575260944447
30
0
10
-33.518884593259727
20
98.265934737241224
30
0
10
-33.507113195452177
20
98.37237024674495
30
0
10
-33.501258047723326
20
98.42531176158694
30
0
0
SPLINE
5
200
100
AcDbEntity
8
0
100
AcDbSpline
70
1064
71
3
72
9
73
5
74
0
42
0.000000001
43
0.0000000001
44
0.0000000001
40
0
40
0
40
0
40
0
40
0.014498454964135613
40
0.029860588302070876
40
0.029860588302070876
40
0.029860588302070876
40
0.029860588302070876
10
-33.501258047723326
20
98.42531176158694
30
0
10
-33.507224616999579
20
98.47475216837816
30
0
10
-33.51951318631091
20
98.576578165446946
30
0
10
-33.592575861987903
20
98.648865165110578
30
0
10
-33.630163820886168
20
98.68605406829623
30
0
0
SPLINE
5
201
100
AcDbEntity
8
0
100
AcDbSpline
70
1064
71
3
72
9
73
5
74
0
42
0.000000001
43
0.0000000001
44
0.0000000001
40
0
40
0
40
0
40
0
40
0.031444745917613336
40
0.085047666032350311
40
0.085047666032350311
40
0.085047666032350311
40
0.085047666032350311
10
-33.630163820886168
20
98.68605406829623
30
0
10
-33.722605892225758
20
98.736299374813555
30
0
10
-33.972631204283516
20
98.872196356127205
30
0
10
-34.251363443368
20
98.934129091351735
30
0
10
-34.427039774560484
20
98.973163383691585
30
0
0
SPLINE
5
202
100
AcDbEntity
8
0
100
AcDbSpline
70
1064
71
3
72
9
73
5
74
0
42
0.000000001
43
0.0000000001
44
0.0000000001
40
0
40
0
40
0
40
0
40
0.057101174464504724
40
0.098740494840579701
40
0.098740494840579701
40
0.098740494840579701
40
0.098740494840579701
10
-34.427039774560484
20
98.973163383691585
30
0
10
-34.612594092384924
20
99.017705681403584
30
0
10
-34.933458336134954
20
99.094729114961027
30
0
10
-35.235641480022878
20
99.226624685301744
30
0
10
-35.363073500299009
20
99.282245653360164
30
0
0
SPLINE
5
203
100
AcDbEntity
8
0
100
AcDbSpline
70
1064
71
3
72
9
73
5
74
0
42
0.000000001
43
0.0000000001
44
0.0000000001
40
0
40
0
40
0
40
0
40
0.032977136938299505
40
0.065077522444353247
40
0.065077522444353247
40
0.065077522444353247
40
0.065077522444353247
10
-35.363073500299009
20
99.282245653360164
30
0
10
-35.458256145539679
20
99.3397143333749
30
0
10
-35.646090848823711
20
99.453123794011304
30
0
10
-35.774395694326557
20
99.631019434036546
30
0
10
-35.837683828973326
20
99.71876891204623
30
0
0
SPLINE
5
204
100
AcDbEntity
8
0
100
AcDbSpline
70
1064
71
3
72
9
73
5
74
0
42
0.000000001
43
0.0000000001
44
0.0000000001
40
0
40
0
40
0
40
0
40
0.033508384898755461
40
0.071215968179360559
40
0.071215968179360559
40
0.071215968179360559
40
0.071215968179360559
10
-35.837683828973326
20
99.71876891204623
30
0
10
-35.887625156511461
20
99.820078299864406
30
0
10
-35.993766350828565
20
100.03539294904638
30
0
10
-36.003772792437189
20
100.27564300708617
30
0
10
-36.009071024560484
20
100.40285112211016
30
0
0
SPLINE
5
205
100
AcDbEntity
8
0
100
AcDbSpline
70
1064
71
3
72
9
73
5
74
0
42
0.000000001
43
0.0000000001
44
0.0000000001
40
0
40
0
40
0
40
0
40
0.036108032924976913
40
0.072877929146397624
40
0.072877929146397624
40
0.072877929146397624
40
0.072877929146397624
10
-36.009071024560484
20
100.40285112211016
30
0
10
-36.00021987996854
20
100.52442360415941
30
0
10
-35.982355348555913
20
100.76979700213279
30
0
10
-35.863805930209836
20
100.98545099332667
30
0
10
-35.803992899560484
20
101.09425725290087
30
0
0
SPLINE
5
206
100
AcDbEntity
8
0
100
AcDbSpline
70
1064
71
3
72
9
73
5
74
0
42
0.000000001
43
0.0000000001
44
0.0000000001
40
0
40
0
40
0
40
0
40
0.037440842253735694
40
0.076147565460653599
40
0.076147565460653599
40
0.076147565460653599
40
0.076147565460653599
10
-35.803992899560484
20
101.09425725290087
30
0
10
-35.727544215750044
20
101.19519866593399
30
0
10
-35.572062105722033
20
101.40049433755748
30
0
10
-35.341241986359549
20
101.51503761343841
30
0
10
-35.223913344049009
20
101.57326133796481
30
0
0
SPLINE
5
207
100
AcDbEntity
8
0
100
AcDbSpline
70
1064
71
3
72
9
73
5
74
0
42
0.000000001
43
0.0000000001
44
0.0000000001
40
0
40
0
40
0
40
0
40
0.043724122633968132
40
0.09521615975387128
40
0.09521615975387128
40
0.09521615975387128
40
0.09521615975387128
10
-35.223913344049009
20
101.57326133796481
30
0
10
-35.084667556130746
20
101.61889618934552
30
0
10
-34.781437933927222
20
101.7182732617178
30
0
10
-34.462060132040534
20
101.7258837933848
30
0
10
-34.289343508386168
20
101.72999950000552
30
0
0
SPLINE
5
208
100
AcDbEntity
8
0
100
AcDbSpline
70
1064
71
3
72
9
73
5
74
0
42
0.000000001
43
0.0000000001
44
0.0000000001
40
0
40
0
40
0
40
0
40
0.072609478520916843
40
0.13275017776413661
40
0.13275017776413661
40
0.13275017776413661
40
0.13275017776413661
10
-34.289343508386168
20
101.72999950000552
30
0
10
-34.042164028779723
20
101.72112312144023
30
0
10
-33.590251681716808
20
101.70489465022067
30
0
10
-33.210436293224006
20
101.46308390957458
30
0
10
-33.038365992211851
20
101.35353477546481
30
0
0
SPLINE
5
209
100
AcDbEntity
8
0
100
AcDbSpline
70
1064
71
3
72
9
73
5
74
0
42
0.000000001
43
0.0000000001
44
0.0000000001
40
0
40
0
40
0
40
0
40
0.057920074627476066
40
0.12369619400300691
40
0.12369619400300691
40
0.12369619400300691
40
0.12369619400300691
10
-33.038365992211851
20
101.35353477546481
30
0
10
-32.906825984827037
20
101.20687675802819
30
0
10
-32.625904415280061
20
100.89366862261721
30
0
10
-32.554729967814637
20
100.47760880350418
30
0
10
-32.516882570886168
20
100.25636674711016
30
0
0
LINE
5
210
100
AcDbEntity
8
0
100
AcDbLine
10
-32.516882570886168
20
100.25636674711016
30
0
11
-33.360631617211851
21
100.17433555671481
31
0
0
SPLINE
5
211
100
AcDbEntity
8
0
100
AcDbSpline
70
1064
71
3
72
9
73
5
74
0
42
0.000000001
43
0.0000000001
44
0.0000000001
40
0
40
0
40
0
40
0
40
0.063047485121974334
40
0.10976943734762033
40
0.10976943734762033
40
0.10976943734762033
40
0.10976943734762033
10
72.774123256600461
20
99.437992658951003
30
0
10
72.563281992927358
20
99.439128312901829
30
0
10
72.196194759578049
20
99.441105554261441
30
0
10
71.837116708886754
20
99.515642208070261
30
0
10
71.68427974501904
20
99.547367778160293
30
0
0
SPLINE
5
212
100
AcDbEntity
8
0
100
AcDbSpline
70
1064
71
3
72
9
73
5
74
0
42
0.000000001
43
0.0000000001
44
0.0000000001
40
0
40
0
40
0
40
0
40
0.051114652565261459
40
0.10207081540451249
40
0.10207081540451249
40
0.10207081540451249
40
0.10207081540451249
10
71.68427974501904
20
99.547367778160293
30
0
10
71.522426352241212
20
99.606351523304852
30
0
10
71.199221420823022
20
99.724136124400047
30
0
10
70.946942069690735
20
99.957974090314607
30
0
10
70.820998256600461
20
100.07471152816029
30
0
0
SPLINE
5
213
100
AcDbEntity
8
0
100
AcDbSpline
70
1064
71
3
72
9
73
5
74
0
42
0.000000001
43
0.0000000001
44
0.0000000001
40
0
40
0
40
0
40
0
40
0.052695354025300026
40
0.10832838759125821
40
0.10832838759125821
40
0.10832838759125821
40
0.10832838759125821
10
70.820998256600461
20
100.07471152816029
30
0
10
70.707575488950766
20
100.21045350677198
30
0
10
70.474406820423937
20
100.48950485661948
30
0
10
70.342080597725356
20
100.82840211738338
30
0
10
70.274123256600461
20
101.00244590316029
30
0
0
SPLINE
5
214
100
AcDbEntity
8
0
100
AcDbSpline
70
1064
71
3
72
9
73
5
74
0
42
0.000000001
43
0.0000000001
44
0.0000000001
40
0
40
0
40
0
40
0
40
0.06287211981112506
40
0.13709256524981747
40
0.13709256524981747
40
0.13709256524981747
40
0.13709256524981747
10
70.274123256600461
20
101.00244590316029
30
0
10
70.219535060011552
20
101.20558868981716
30
0
10
70.100505577226201
20
101.6485412388715
30
0
10
70.091499517593746
20
102.10749106890673
30
0
10
70.086623733437619
20
102.35596158776494
30
0
0
SPLINE
5
215
100
AcDbEntity
8
0
100
AcDbSpline
70
1064
71
3
72
9
73
5
74
0
42
0.000000001
43
0.0000000001
44
0.0000000001
40
0
40
0
40
0
40
0
40
0.065966845141068015
40
0.12355102532785242
40
0.12355102532785242
40
0.12355102532785242
40
0.12355102532785242
10
70.086623733437619
20
102.35596158776494
30
0
10
70.091743205004519
20
102.57679137090105
30
0
10
70.101331596868278
20
102.99038923314606
30
0
10
70.211198599294065
20
103.38895144485237
30
0
10
70.262404983437619
20
103.57471176657887
30
0
0
SPLINE
5
216
100
AcDbEntity
8
0
100
AcDbSpline
70
1064
71
3
72
9
73
5
74
0
42
0.000000001
43
0.0000000001
44
0.0000000001
40
0
40
0
40
0
40
0
40
0.062265338737027276
40
0.11913862984785106
40
0.11913862984785106
40
0.11913862984785106
40
0.11913862984785106
10
70.262404983437619
20
103.57471176657887
30
0
10
70.33841155748695
20
103.76988063977234
30
0
10
70.48384269582715
20
104.14331717144242
30
0
10
70.749072554786636
20
104.44325076749917
30
0
10
70.875685518181882
20
104.58643027816029
30
0
0
SPLINE
5
217
100
AcDbEntity
8
0
100
AcDbSpline
70
1064
71
3
72
9
73
5
74
0
42
0.000000001
43
0.0000000001
44
0.0000000001
40
0
40
0
40
0
40
0
40
0.043927252740854558
40
0.093846783883825807
40
0.093846783883825807
40
0.093846783883825807
40
0.093846783883825807
10
70.875685518181882
20
104.58643027816029
30
0
10
70.989594650351492
20
104.6802106963991
30
0
10
71.232951679123133
20
104.88056446527493
30
0
10
71.530116552739315
20
104.98689920902665
30
0
10
71.688186233437619
20
105.043461408951
30
0
0
SPLINE
5
218
100
AcDbEntity
8
0
100
AcDbSpline
70
1064
71
3
72
9
73
5
74
0
42
0.000000001
43
0.0000000001
44
0.0000000001
40
0
40
0
40
0
40
0
40
0.045639272043314617
40
0.10333593538909563
40
0.10333593538909563
40
0.10333593538909563
40
0.10333593538909563
10
71.688186233437619
20
105.043461408951
30
0
10
71.836648916043671
20
105.07865759613409
30
0
10
72.17279648130085
20
105.15834841419189
30
0
10
72.518565876060109
20
105.16233148605218
30
0
10
72.711623018181882
20
105.16455539736958
30
0
0
LINE
5
219
100
AcDbEntity
8
0
100
AcDbLine
10
72.711623018181896
20
105.16455539736958
30
0
11
74.88740474501904
21
105.16455539736958
31
0
0
LINE
5
220
100
AcDbEntity
8
0
100
AcDbLine
10
74.88740474501904
20
105.16455539736958
30
0
11
74.88740474501904
21
99.437992658951003
31
0
0
LINE
5
221
100
AcDbEntity
8
0
100
AcDbLine
10
74.88740474501904
20
99.437992658951003
30
0
11
72.774123256600461
21
99.437992658951003
31
0
0
LWPOLYLINE
5
222
100
AcDbEntity
8
0
100
AcDbPolyline
90
8
70
1
43
0.0
10
59.922561948693357
20
103.86377402816029
10
59.422560041344724
20
105.16455539736958
10
58.164747064507566
20
105.16455539736958
10
60.457716291344724
20
99.437992658951003
10
61.680374448693357
20
99.437992658951003
10
63.91084224501904
20
105.16455539736958
10
62.684278791344724
20
105.16455539736958
10
62.21162349501904
20
103.86377402816029
0
LWPOLYLINE
5
223
100
AcDbEntity
8
0
100
AcDbPolyline
90
12
70
1
43
0.0
10
84.836623077786527
20
99.437992658951003
10
85.992873018181882
20
99.437992658951003
10
85.992873018181882
20
105.16455539736958
10
84.836623077786527
20
105.16455539736958
10
84.836623077786527
20
102.66064920697423
10
82.570998077786527
20
102.66064920697423
10
82.570998077786527
20
105.16455539736958
10
81.414747541344724
20
105.16455539736958
10
81.414747541344724
20
99.437992658951003
10
82.570998077786527
20
99.437992658951003
10
82.570998077786527
20
101.69189908776494
10
84.836623077786527
20
101.69189908776494
0
LINE
5
224
100
AcDbEntity
8
0
100
AcDbLine
10
-66.410436781549009
20
97.358905690400874
30
0
11
-68.235631140374693
21
97.358905690400874
31
0
0
SPLINE
5
225
100
AcDbEntity
8
0
100
AcDbSpline
70
1064
71
3
72
9
73
5
74
0
42
0.000000001
43
0.0000000001
44
0.0000000001
40
0
40
0
40
0
40
0
40
0.059506213490158076
40
0.10103642556097447
40
0.10103642556097447
40
0.10103642556097447
40
0.10103642556097447
10
-68.235631140374693
20
97.358905690400874
30
0
10
-68.434971335987257
20
97.359182014257385
30
0
10
-68.773433820054549
20
97.359651188367437
30
0
10
-69.101338670932776
20
97.441135098694062
30
0
10
-69.236121328973326
20
97.474628406255519
30
0
0
SPLINE
5
226
100
AcDbEntity
8
0
100
AcDbSpline
70
1064
71
3
72
9
73
5
74
0
42
0.000000001
43
0.0000000001
44
0.0000000001
40
0
40
0
40
0
40
0
40
0.032363556162672565
40
0.065639220227134823
40
0.065639220227134823
40
0.065639220227134823
40
0.065639220227134823
10
-69.236121328973326
20
97.474628406255519
30
0
10
-69.33535626976942
20
97.521379289431906
30
0
10
-69.536622907477664
20
97.616198644301363
30
0
10
-69.668684001398276
20
97.79540244972091
30
0
10
-69.735632094049009
20
97.886249440400874
30
0
0
SPLINE
5
227
100
AcDbEntity
8
0
100
AcDbSpline
70
1064
71
3
72
9
73
5
74
0
42
0.000000001
43
0.0000000001
44
0.0000000001
40
0
40
0
40
0
40
0
40
0.03469200672235688
40
0.070958105448797937
40
0.070958105448797937
40
0.070958105448797937
40
0.070958105448797937
10
-69.735632094049009
20
97.886249440400874
30
0
10
-69.790313802884427
20
97.989772797057682
30
0
10
-69.90215831198752
20
98.201516710197581
30
0
10
-69.916039461234305
20
98.440741584221911
30
0
10
-69.923134001397642
20
98.563007431714809
30
0
0
SPLINE
5
228
100
AcDbEntity
8
0
100
AcDbSpline
70
1064
71
3
72
9
73
5
74
0
42
0.000000001
43
0.0000000001
44
0.0000000001
40
0
40
0
40
0
40
0
40
0.044696641110957044
40
0.08627980941321392
40
0.08627980941321392
40
0.08627980941321392
40
0.08627980941321392
10
-69.923134001397642
20
98.563007431714809
30
0
10
-69.913098875340893
20
98.715066265112199
30
0
10
-69.893727648732096
20
99.00859183748247
30
0
10
-69.721810198906724
20
99.24662533632933
30
0
10
-69.638953360223326
20
99.361347275464809
30
0
0
SPLINE
5
229
100
AcDbEntity
8
0
100
AcDbSpline
70
1064
71
3
72
9
73
5
74
0
42
0.000000001
43
0.0000000001
44
0.0000000001
40
0
40
0
40
0
40
0
40
0.04376857087412505
40
0.095228330954387319
40
0.095228330954387319
40
0.095228330954387319
40
0.095228330954387319
10
-69.638953360223326
20
99.361347275464809
30
0
10
-69.525891577162156
20
99.457445222363404
30
0
10
-69.279900340057168
20
99.666527833664915
30
0
10
-68.961436430816846
20
99.726118237728315
30
0
10
-68.789343985223326
20
99.758319872110164
30
0
0
SPLINE
5
230
100
AcDbEntity
8
0
100
AcDbSpline
70
1064
71
3
72
9
73
5
74
0
42
0.000000001
43
0.0000000001
44
0.0000000001
40
0
40
0
40
0
40
0
40
0.030907523003243564
40
0.058933451851138893
40
0.058933451851138893
40
0.058933451851138893
40
0.058933451851138893
10
-68.789343985223326
20
99.758319872110164
30
0
10
-68.877339144514636
20
99.812592815070076
30
0
10
-69.045125430160468
20
99.916078683879803
30
0
10
-69.186477342792841
20
100.05337826572909
30
0
10
-69.253697546624693
20
100.11867137500552
30
0
0
SPLINE
5
231
100
AcDbEntity
8
0
100
AcDbSpline
70
1064
71
3
72
9
73
5
74
0
42
0.000000001
43
0.0000000001
44
0.0000000001
40
0
40
0
40
0
40
0
40
0.034705043415911289
40
0.085511405558655301
40
0.085511405558655301
40
0.085511405558655301
40
0.085511405558655301
10
-69.253697546624693
20
100.11867137500552
30
0
10
-69.327015360901513
20
100.20829326112528
30
0
10
-69.507666607354793
20
100.42911688491603
30
0
10
-69.658020441749528
20
100.67176722085483
30
0
10
-69.747352751397642
20
100.8159372384241
30
0
0
LINE
5
232
100
AcDbEntity
8
0
100
AcDbLine
10
-69.747352751397642
20
100.8159372384241
30
0
11
-70.271763952874693
21
101.65382774421481
31
0
0
LINE
5
233
100
AcDbEntity
8
0
100
AcDbLine
10
-70.271763952874693
20
101.65382774421481
30
0
11
-69.234657438897642
21
101.65382774421481
31
0
0
LINE
5
234
100
AcDbEntity
8
0
100
AcDbLine
10
-69.234657438897642
20
101.65382774421481
30
0
11
-68.607702406549009
21
100.71925731250552
31
0
0
SPLINE
5
235
100
AcDbEntity
8
0
100
AcDbSpline
70
1064
71
3
72
9
73
5
74
0
42
0.000000001
43
0.0000000001
44
0.0000000001
40
0
40
0
40
0
40
0
40
0.049581241891165181
40
0.077978079628461858
40
0.077978079628461858
40
0.077978079628461858
40
0.077978079628461858
10
-68.607702406549009
20
100.71925731250552
30
0
10
-68.516673170300479
20
100.58114335811588
30
0
10
-68.373508441827411
20
100.36392691652617
30
0
10
-68.210159080205827
20
100.1615926465182
30
0
10
-68.150673063897642
20
100.08790971586016
30
0
0
SPLINE
5
236
100
AcDbEntity
8
0
100
AcDbSpline
70
1064
71
3
72
9
73
5
74
0
42
0.000000001
43
0.0000000001
44
0.0000000001
40
0
40
0
40
0
40
0
40
0.016770633396263109
40
0.03183885775929797
40
0.03183885775929797
40
0.03183885775929797
40
0.03183885775929797
10
-68.150673063897642
20
100.08790971586016
30
0
10
-68.110408811961804
20
100.04837061909041
30
0
10
-68.03396758521275
20
99.973306091219669
30
0
10
-67.936199299393508
20
99.929792207679185
30
0
10
-67.889928969049009
20
99.90919859954623
30
0
0
SPLINE
5
237
100
AcDbEntity
8
0
100
AcDbSpline
70
1064
71
3
72
9
73
5
74
0
42
0.000000001
43
0.0000000001
44
0.0000000001
40
0
40
0
40
0
40
0
40
0.018162986091540489
40
0.044046277781645729
40
0.044046277781645729
40
0.044046277781645729
40
0.044046277781645729
10
-67.889928969049009
20
99.90919859954623
30
0
10
-67.830841663259719
20
99.895204798096756
30
0
10
-67.687551574777146
20
99.861269030995572
30
0
10
-67.540069676189546
20
99.861010725110887
30
0
10
-67.453403624200376
20
99.860858934610164
30
0
0
LINE
5
238
100
AcDbEntity
8
0
100
AcDbLine
10
-67.453403624200362
20
99.860858934610164
30
0
11
-67.277622374200376
21
99.860858934610164
31
0
0
LINE
5
239
100
AcDbEntity
8
0
100
AcDbLine
10
-67.277622374200376
20
99.860858934610164
30
0
11
-67.277622374200376
21
101.65382774421481
31
0
0
LINE
5
240
100
AcDbEntity
8
0
100
AcDbLine
10
-67.277622374200376
20
101.65382774421481
30
0
11
-66.410436781549009
21
101.65382774421481
31
0
0
LINE
5
241
100
AcDbEntity
8
0
100
AcDbLine
10
-66.410436781549009
20
101.65382774421481
30
0
11
-66.410436781549009
21
97.358905690400874
31
0
0
SPLINE
5
242
100
AcDbEntity
8
0
100
AcDbSpline
70
1064
71
3
72
9
73
5
74
0
42
0.000000001
43
0.0000000001
44
0.0000000001
40
0
40
0
40
0
40
0
40
0.038604631525583917
40
0.0706777230894923
40
0.0706777230894923
40
0.0706777230894923
40
0.0706777230894923
10
-58.696570547723326
20
100.17433555671481
30
0
10
-58.724297082093535
20
100.3026675853653
30
0
10
-58.775059082428896
20
100.53761907242875
30
0
10
-58.933673453968929
20
100.71697044633089
30
0
10
-59.005651625299009
20
100.79835893461016
30
0
0
SPLINE
5
243
100
AcDbEntity
8
0
100
AcDbSpline
70
1064
71
3
72
9
73
5
74
0
42
0.000000001
43
0.0000000001
44
0.0000000001
40
0
40
0
40
0
40
0
40
0.03117056440134219
40
0.067004112779644548
40
0.067004112779644548
40
0.067004112779644548
40
0.067004112779644548
10
-59.005651625299009
20
100.79835893461016
30
0
10
-59.094115891073137
20
100.85638917845904
30
0
10
-59.284278300857522
20
100.98113074404041
30
0
10
-59.512186237449399
20
100.99184674686128
30
0
10
-59.634070547723326
20
100.99757762500552
30
0
0
SPLINE
5
244
100
AcDbEntity
8
0
100
AcDbSpline
70
1064
71
3
72
9
73
5
74
0
42
0.000000001
43
0.0000000001
44
0.0000000001
40
0
40
0
40
0
40
0
40
0.036997085785731659
40
0.066558578090627596
40
0.066558578090627596
40
0.066558578090627596
40
0.066558578090627596
10
-59.634070547723326
20
100.99757762500552
30
0
10
-59.759920786569403
20
100.99411507641958
30
0
10
-59.986328158178935
20
100.98788587469848
30
0
10
-60.179584083353348
20
100.87186250060626
30
0
10
-60.265417250299009
20
100.82033159086016
30
0
0
SPLINE
5
245
100
AcDbEntity
8
0
100
AcDbSpline
70
1064
71
3
72
9
73
5
74
0
42
0.000000001
43
0.0000000001
44
0.0000000001
40
0
40
0
40
0
40
0
40
0.024968228417058497
40
0.04782264903894972
40
0.04782264903894972
40
0.04782264903894972
40
0.04782264903894972
10
-60.265417250299009
20
100.82033159086016
30
0
10
-60.327331753339152
20
100.76064674364792
30
0
10
-60.445919083599492
20
100.64632996259729
30
0
10
-60.467504117086477
20
100.48356586918246
30
0
10
-60.477819594049009
20
100.4057809884241
30
0
0
SPLINE
5
246
100
AcDbEntity
8
0
100
AcDbSpline
70
1064
71
3
72
9
73
5
74
0
42
0.000000001
43
0.0000000001
44
0.0000000001
40
0
40
0
40
0
40
0
40
0.01427503877233261
40
0.027870093113789657
40
0.027870093113789657
40
0.027870093113789657
40
0.027870093113789657
10
-60.477819594049009
20
100.4057809884241
30
0
10
-60.474472864092647
20
100.3573505848575
30
0
10
-60.467938824010673
20
100.2627967361103
30
0
10
-60.414521898948898
20
100.18463219385524
30
0
10
-60.388465078973326
20
100.14650346586016
30
0
0
SPLINE
5
247
100
AcDbEntity
8
0
100
AcDbSpline
70
1064
71
3
72
9
73
5
74
0
42
0.000000001
43
0.0000000001
44
0.0000000001
40
0
40
0
40
0
40
0
40
0.015825832955155984
40
0.036622807388629178
40
0.036622807388629178
40
0.036622807388629178
40
0.036622807388629178
10
-60.388465078973326
20
100.14650346586016
30
0
10
-60.349112216611076
20
100.11069438361329
30
0
10
-60.258045142759862
20
100.02782802671396
30
0
10
-60.142226240537184
20
99.984865333098085
30
0
10
-60.076456221246275
20
99.96046813079623
30
0
0
SPLINE
5
248
100
AcDbEntity
8
0
100
AcDbSpline
70
1064
71
3
72
9
73
5
74
0
42
0.000000001
43
0.0000000001
44
0.0000000001
40
0
40
0
40
0
40
0
40
0.026027546256400136
40
0.071930212067420424
40
0.071930212067420424
40
0.071930212067420424
40
0.071930212067420424
10
-60.076456221246275
20
99.96046813079623
30
0
10
-59.993343890052486
20
99.935544219484868
30
0
10
-59.763653102096725
20
99.866664033526632
30
0
10
-59.530748622237233
20
99.809468169244383
30
0
10
-59.382119330071959
20
99.772968309610164
30
0
0
SPLINE
5
249
100
AcDbEntity
8
0
100
AcDbSpline
70
1064
71
3
72
9
73
5
74
0
42
0.000000001
43
0.0000000001
44
0.0000000001
40
0
40
0
40
0
40
0
40
0.062375045728828994
40
0.107355987756905
40
0.107355987756905
40
0.107355987756905
40
0.107355987756905
10
-59.382119330071959
20
99.772968309610164
30
0
10
-59.178649462422996
20
99.721283356358711
30
0
10
-58.82844998176553
20
99.632326480357307
30
0
10
-58.529047883344909
20
99.432069166690781
30
0
10
-58.403601797723326
20
99.348163622110164
30
0
0
SPLINE
5
250
100
AcDbEntity
8
0
100
AcDbSpline
70
1064
71
3
72
9
73
5
74
0
42
0.000000001
43
0.0000000001
44
0.0000000001
40
0
40
0
40
0
40
0
40
0.04926289075580146
40
0.097384407253127303
40
0.097384407253127303
40
0.097384407253127303
40
0.097384407253127303
10
-58.403601797723326
20
99.348163622110164
30
0
10
-58.28824993352633
20
99.224547325794376
30
0
10
-58.060218797959138
20
98.980178805010311
30
0
10
-58.025332630711652
20
98.648032324166834
30
0
10
-58.008093985223326
20
98.48390551158694
30
0
0
SPLINE
5
251
100
AcDbEntity
8
0
100
AcDbSpline
70
1064
71
3
72
9
73
5
74
0
42
0.000000001
43
0.0000000001
44
0.0000000001
40
0
40
0
40
0
40
0
40
0.032089325630474903
40
0.064836960117674369
40
0.064836960117674369
40
0.064836960117674369
40
0.064836960117674369
10
-58.008093985223326
20
98.48390551158694
30
0
10
-58.016156231396643
20
98.375827330747526
30
0
10
-58.032446119804305
20
98.157453757511036
30
0
10
-58.139873128853594
20
97.966554618156621
30
0
10
-58.194132002496275
20
97.870135920732295
30
0
0
SPLINE
5
252
100
AcDbEntity
8
0
100
AcDbSpline
70
1064
71
3
72
9
73
5
74
0
42
0.000000001
43
0.0000000001
44
0.0000000001
40
0
40
0
40
0
40
0
40
0.033889233924357061
40
0.069832652926368186
40
0.069832652926368186
40
0.069832652926368186
40
0.069832652926368186
10
-58.194132002496275
20
97.870135920732295
30
0
10
-58.264609532192182
20
97.779916235675429
30
0
10
-58.409836564510101
20
97.594008228201247
30
0
10
-58.621380515788118
20
97.489083192348986
30
0
10
-58.730263861321959
20
97.435077446191585
30
0
0
SPLINE
5
253
100
AcDbEntity
8
0
100
AcDbSpline
70
1064
71
3
72
9
73
5
74
0
42
0.000000001
43
0.0000000001
44
0.0000000001
40
0
40
0
40
0
40
0
40
0.040227581404800539
40
0.086265407933546229
40
0.086265407933546229
40
0.086265407933546229
40
0.086265407933546229
10
-58.730263861321959
20
97.435077446191585
30
0
10
-58.857913556071182
20
97.391551299089912
30
0
10
-59.131649948008977
20
97.298212333524972
30
0
10
-59.421037462970901
20
97.290030145105504
30
0
10
-59.575476797723326
20
97.285663502900874
30
0
0
SPLINE
5
254
100
AcDbEntity
8
0
100
AcDbSpline
70
1064
71
3
72
9
73
5
74
0
42
0.000000001
43
0.0000000001
44
0.0000000001
40
0
40
0
40
0
40
0
40
0.071413846108046325
40
0.12880962044137792
40
0.12880962044137792
40
0.12880962044137792
40
0.12880962044137792
10
-59.575476797723326
20
97.285663502900874
30
0
10
-59.818679366072033
20
97.292826456623288
30
0
10
-60.25734542631993
20
97.30574632301483
30
0
10
-60.627725011433938
20
97.537077581606184
30
0
10
-60.792761000299009
20
97.640155571191585
30
0
0
SPLINE
5
255
100
AcDbEntity
8
0
100
AcDbSpline
70
1064
71
3
72
9
73
5
74
0
42
0.000000001
43
0.0000000001
44
0.0000000001
40
0
40
0
40
0
40
0
40
0.051804071214871385
40
0.1063334400443709
40
0.1063334400443709
40
0.1063334400443709
40
0.1063334400443709
10
-60.792761000299009
20
97.640155571191585
30
0
10
-60.912877635092869
20
97.770621589350114
30
0
10
-61.159429975182277
20
98.038417154338546
30
0
10
-61.200764941285712
20
98.400673919518979
30
0
10
-61.221962126397642
20
98.58644457408694
30
0
0
LINE
5
256
100
AcDbEntity
8
0
100
AcDbLine
10
-61.221962126397642
20
98.58644457408694
30
0
11
-60.354776533746275
21
98.624530750005519
31
0
0
SPLINE
5
257
100
AcDbEntity
8
0
100
AcDbSpline
70
1064
71
3
72
9
73
5
74
0
42
0.000000001
43
0.0000000001
44
0.0000000001
40
0
40
0
40
0
40
0
40
0.029770392504713292
40
0.054174810207292354
40
0.054174810207292354
40
0.054174810207292354
40
0.054174810207292354
10
-60.354776533746275
20
98.624530750005519
30
0
10
-60.334481683425174
20
98.52501980666139
30
0
10
-60.297550035172407
20
98.343934304736464
30
0
10
-60.172387661711362
20
98.209166229766055
30
0
10
-60.116005095147642
20
98.148456531255519
30
0
0
SPLINE
5
258
100
AcDbEntity
8
0
100
AcDbSpline
70
1064
71
3
72
9
73
5
74
0
42
0.000000001
43
0.0000000001
44
0.0000000001
40
0
40
0
40
0
40
0
40
0.025341008169246303
40
0.057588911365762718
40
0.057588911365762718
40
0.057588911365762718
40
0.057588911365762718
10
-60.116005095147642
20
98.148456531255519
30
0
10
-60.041392197445447
20
98.106314333535721
30
0
10
-59.871830058330232
20
98.010543744100801
30
0
10
-59.676222507418039
20
98.005988005004724
30
0
10
-59.566688688897642
20
98.003436940400874
30
0
0
SPLINE
5
259
100
AcDbEntity
8
0
100
AcDbSpline
70
1064
71
3
72
9
73
5
74
0
42
0.000000001
43
0.0000000001
44
0.0000000001
40
0
40
0
40
0
40
0
40
0.033914769154335223
40
0.061937098765431187
40
0.061937098765431187
40
0.061937098765431187
40
0.061937098765431187
10
-59.566688688897642
20
98.003436940400874
30
0
10
-59.451786506453033
20
98.007056335929377
30
0
10
-59.241945543359677
20
98.013666283863827
30
0
10
-59.058078298050425
20
98.113529153694174
30
0
10
-58.974890860223326
20
98.15871031829623
30
0
0
SPLINE
5
260
100
AcDbEntity
8
0
100
AcDbSpline
70
1064
71
3
72
9
73
5
74
0
42
0.000000001
43
0.0000000001
44
0.0000000001
40
0
40
0
40
0
40
0
40
0.015565084516464154
40
0.030969258077062113
40
0.030969258077062113
40
0.030969258077062113
40
0.030969258077062113
10
-58.974890860223326
20
98.15871031829623
30
0
10
-58.934729162529891
20
98.194575116856782
30
0
10
-58.854820956482861
20
98.265933945736194
30
0
10
-58.84304966098248
20
98.372370164418612
30
0
10
-58.837194594049009
20
98.42531176158694
30
0
0
SPLINE
5
261
100
AcDbEntity
8
0
100
AcDbSpline
70
1064
71
3
72
9
73
5
74
0
42
0.000000001
43
0.0000000001
44
0.0000000001
40
0
40
0
40
0
40
0
40
0.014498401970525114
40
0.029860835401541663
40
0.029860835401541663
40
0.029860835401541663
40
0.029860835401541663
10
-58.837194594049009
20
98.42531176158694
30
0
10
-58.843160039695178
20
98.474752352118628
30
0
10
-58.855446441389603
20
98.576579942429859
30
0
10
-58.92851258509377
20
98.648865492272066
30
0
10
-58.966102751397642
20
98.68605406829623
30
0
0
SPLINE
5
262
100
AcDbEntity
8
0
100
AcDbSpline
70
1064
71
3
72
9
73
5
74
0
42
0.000000001
43
0.0000000001
44
0.0000000001
40
0
40
0
40
0
40
0
40
0.03144453266964374
40
0.085047682127697269
40
0.085047682127697269
40
0.085047682127697269
40
0.085047682127697269
10
-58.966102751397642
20
98.68605406829623
30
0
10
-59.058544010178586
20
98.736299409885163
30
0
10
-59.308568867437046
20
98.872197433390483
30
0
10
-59.587301443252649
20
98.9341294099154
30
0
10
-59.762978705071959
20
98.973163383691585
30
0
0
SPLINE
5
263
100
AcDbEntity
8
0
100
AcDbSpline
70
1064
71
3
72
9
73
5
74
0
42
0.000000001
43
0.0000000001
44
0.0000000001
40
0
40
0
40
0
40
0
40
0.05710094464565018
40
0.098740706616956553
40
0.098740706616956553
40
0.098740706616956553
40
0.098740706616956553
10
-59.762978705071959
20
98.973163383691585
30
0
10
-59.948532100944277
20
99.01770602292703
30
0
10
-60.269396730020176
20
99.094730522258615
30
0
10
-60.571581170010774
20
99.226624771740319
30
0
10
-60.699014814996275
20
99.282245653360164
30
0
0
SPLINE
5
264
100
AcDbEntity
8
0
100
AcDbSpline
70
1064
71
3
72
9
73
5
74
0
42
0.000000001
43
0.0000000001
44
0.0000000001
40
0
40
0
40
0
40
0
40
0.032977136938299505
40
0.065077218895623484
40
0.065077218895623484
40
0.065077218895623484
40
0.065077218895623484
10
-60.699014814996275
20
99.282245653360164
30
0
10
-60.79419773006709
20
99.3397141045171
30
0
10
-60.982032089695615
20
99.453122584535535
30
0
10
-61.110333994467766
20
99.631019316102424
30
0
10
-61.173620375299009
20
99.71876891204623
30
0
0
SPLINE
5
265
100
AcDbEntity
8
0
100
AcDbSpline
70
1064
71
3
72
9
73
5
74
0
42
0.000000001
43
0.0000000001
44
0.0000000001
40
0
40
0
40
0
40
0
40
0.033508567820407578
40
0.071216124010837795
40
0.071216124010837795
40
0.071216124010837795
40
0.071216124010837795
10
-61.173620375299009
20
99.71876891204623
30
0
10
-61.223563837136723
20
99.820078132571609
30
0
10
-61.329709220336269
20
100.03539172195104
30
0
10
-61.339713096631868
20
100.27564282402844
30
0
10
-61.345009955071959
20
100.40285112211016
30
0
0
SPLINE
5
266
100
AcDbEntity
8
0
100
AcDbSpline
70
1064
71
3
72
9
73
5
74
0
42
0.000000001
43
0.0000000001
44
0.0000000001
40
0
40
0
40
0
40
0
40
0.036108032924976913
40
0.072877929146397624
40
0.072877929146397624
40
0.072877929146397624
40
0.072877929146397624
10
-61.345009955071959
20
100.40285112211016
30
0
10
-61.336158810480015
20
100.52442360415941
30
0
10
-61.318294279067388
20
100.76979700213279
30
0
10
-61.199744860721317
20
100.98545099332667
30
0
10
-61.139931830071959
20
101.09425725290087
30
0
0
SPLINE
5
267
100
AcDbEntity
8
0
100
AcDbSpline
70
1064
71
3
72
9
73
5
74
0
42
0.000000001
43
0.0000000001
44
0.0000000001
40
0
40
0
40
0
40
0
40
0.037440842253735694
40
0.076147360641266107
40
0.076147360641266107
40
0.076147360641266107
40
0.076147360641266107
10
-61.139931830071959
20
101.09425725290087
30
0
10
-61.063483113077872
20
101.19519860250281
30
0
10
-60.90800135377183
20
101.40049359292171
30
0
10
-60.677182402193111
20
101.5150374629261
30
0
10
-60.559854658746275
20
101.57326133796481
30
0
0
SPLINE
5
268
100
AcDbEntity
8
0
100
AcDbSpline
70
1064
71
3
72
9
73
5
74
0
42
0.000000001
43
0.0000000001
44
0.0000000001
40
0
40
0
40
0
40
0
40
0.043724122633968132
40
0.095216397481111659
40
0.095216397481111659
40
0.095216397481111659
40
0.095216397481111659
10
-60.559854658746275
20
101.57326133796481
30
0
10
-60.420608868891357
20
101.61889618499777
30
0
10
-60.117378485393701
20
101.71827349601793
30
0
10
-59.797999869130216
20
101.72588386995716
30
0
10
-59.625282438897642
20
101.72999950000552
30
0
0
SPLINE
5
269
100
AcDbEntity
8
0
100
AcDbSpline
70
1064
71
3
72
9
73
5
74
0
42
0.000000001
43
0.0000000001
44
0.0000000001
40
0
40
0
40
0
40
0
40
0.072609714928145261
40
0.13275020366139445
40
0.13275020366139445
40
0.13275020366139445
40
0.13275020366139445
10
-59.625282438897642
20
101.72999950000552
30
0
10
-59.378102057658175
20
101.721123400247
30
0
10
-58.926189445370518
20
101.70489548843346
30
0
10
-58.546374422315417
20
101.46308389231055
30
0
10
-58.374304922723326
20
101.35353477546481
30
0
0
SPLINE
5
270
100
AcDbEntity
8
0
100
AcDbSpline
70
1064
71
3
72
9
73
5
74
0
42
0.000000001
43
0.0000000001
44
0.0000000001
40
0
40
0
40
0
40
0
40
0.057919931118950933
40
0.12369611314818532
40
0.12369611314818532
40
0.12369611314818532
40
0.12369611314818532
10
-58.374304922723326
20
101.35353477546481
30
0
10
-58.242766047186549
20
101.20687659471628
30
0
10
-57.961846382445124
20
100.89366753922342
30
0
10
-57.890669992200905
20
100.47760865939166
30
0
10
-57.852821501397642
20
100.25636674711016
30
0
0
LINE
5
271
100
AcDbEntity
8
0
100
AcDbLine
10
-57.852821501397642
20
100.25636674711016
30
0
11
-58.696570547723326
21
100.17433555671481
31
0
0
LWPOLYLINE
5
272
100
AcDbEntity
8
0
100
AcDbPolyline
90
10
70
1
43
0.0
10
-49.260049017571959
20
97.358905690400874
10
-48.416299971246275
20
97.358905690400874
10
-48.416299971246275
20
101.65382774421481
10
-49.221964033746275
20
101.65382774421481
10
-49.221964033746275
20
98.853046315400874
10
-50.953407438897642
20
101.65382774421481
10
-51.823525580071959
20
101.65382774421481
10
-51.823525580071959
20
97.358905690400874
10
-51.017861517571959
20
97.358905690400874
10
-51.017861517571959
20
100.22706987211016
0
LWPOLYLINE
5
273
100
AcDbEntity
8
0
100
AcDbPolyline
90
12
70
1
43
0.0
10
-85.925092848443541
20
97.358905690400888
10
-82.740521582269224
20
97.358905690400874
10
-82.740521582269224
20
101.65382774421481
10
-86.007127913140806
20
101.65382774421482
10
-86.007127913140806
20
100.93019487211018
10
-83.607707174920591
20
100.93019487211018
10
-83.607707174920591
20
99.761249738424112
10
-85.763960035943541
20
99.761249738424112
10
-85.763960035943541
20
99.037616568296244
10
-83.607707174920591
20
99.037616568296244
10
-83.607707174920591
20
98.085468130796244
10
-85.925092848443541
20
98.085468130796244
0
LINE
5
274
100
AcDbEntity
8
0
100
AcDbLine
10
68.421780174172468
20
106.51456989595202
30
0
11
66.8703642539149
21
106.51456989595202
31
0
0
SPLINE
5
275
100
AcDbEntity
8
0
100
AcDbSpline
70
1064
71
3
72
9
73
5
74
0
42
0.000000001
43
0.0000000001
44
0.0000000001
40
0
40
0
40
0
40
0
40
0.05058035259972956
40
0.085880702473843676
40
0.085880702473843676
40
0.085880702473843676
40
0.085880702473843676
10
66.8703642539149
20
106.51456989595202
30
0
10
66.700924827664252
20
106.51480462368741
30
0
10
66.413232547851081
20
106.51520316940267
30
0
10
66.134514363304646
20
106.58446472493145
30
0
10
66.019950216210432
20
106.61293395110873
30
0
0
SPLINE
5
276
100
AcDbEntity
8
0
100
AcDbSpline
70
1064
71
3
72
9
73
5
74
0
42
0.000000001
43
0.0000000001
44
0.0000000001
40
0
40
0
40
0
40
0
40
0.027509339783334905
40
0.055793502084868593
40
0.055793502084868593
40
0.055793502084868593
40
0.055793502084868593
10
66.019950216210432
20
106.61293395110873
30
0
10
65.93559905022903
20
106.65267191487385
30
0
10
65.764520900331178
20
106.73326709387993
30
0
10
65.65226983832045
20
106.88559191905409
30
0
10
65.595364873803206
20
106.96281202384738
30
0
0
SPLINE
5
277
100
AcDbEntity
8
0
100
AcDbSpline
70
1064
71
3
72
9
73
5
74
0
42
0.000000001
43
0.0000000001
44
0.0000000001
40
0
40
0
40
0
40
0
40
0.029488062918715384
40
0.06031426952525773
40
0.06031426952525773
40
0.06031426952525773
40
0.06031426952525773
10
65.595364873803206
20
106.96281202384738
30
0
10
65.548886993329376
20
107.0508069876206
30
0
10
65.453822104951016
20
107.23079005319237
30
0
10
65.442020781264162
20
107.43413033754548
30
0
10
65.435989206231184
20
107.53805615255145
30
0
0
SPLINE
5
278
100
AcDbEntity
8
0
100
AcDbSpline
70
1064
71
3
72
9
73
5
74
0
42
0.000000001
43
0.0000000001
44
0.0000000001
40
0
40
0
40
0
40
0
40
0.037992136517949839
40
0.073337743458506577
40
0.073337743458506577
40
0.073337743458506577
40
0.073337743458506577
10
65.435989206231184
20
107.53805615255145
30
0
10
65.444518846349254
20
107.66730612940208
30
0
10
65.460983952450263
20
107.91680253873957
30
0
10
65.607112832398329
20
108.11913124986425
30
0
10
65.677540605462141
20
108.21664490052966
30
0
0
SPLINE
5
279
100
AcDbEntity
8
0
100
AcDbSpline
70
1064
71
3
72
9
73
5
74
0
42
0.000000001
43
0.0000000001
44
0.0000000001
40
0
40
0
40
0
40
0
40
0.037203061468621082
40
0.080944297442801127
40
0.080944297442801127
40
0.080944297442801127
40
0.080944297442801127
10
65.677540605462141
20
108.21664490052966
30
0
10
65.773642229185626
20
108.29832811340295
30
0
10
65.982734656215342
20
108.47604978516577
30
0
10
66.253430175641356
20
108.52670055287645
30
0
10
66.399710481560774
20
108.55407156297473
30
0
0
SPLINE
5
280
100
AcDbEntity
8
0
100
AcDbSpline
70
1064
71
3
72
9
73
5
74
0
42
0.000000001
43
0.0000000001
44
0.0000000001
40
0
40
0
40
0
40
0
40
0.026271222966357182
40
0.050093536455168314
40
0.050093536455168314
40
0.050093536455168314
40
0.050093536455168314
10
66.399710481560774
20
108.55407156297473
30
0
10
66.324915554594128
20
108.60020390241614
30
0
10
66.182297816338732
20
108.68816828955296
30
0
10
66.06214702807452
20
108.80487157321637
30
0
10
66.005008523858137
20
108.86037059375552
30
0
0
SPLINE
5
281
100
AcDbEntity
8
0
100
AcDbSpline
70
1064
71
3
72
9
73
5
74
0
42
0.000000001
43
0.0000000001
44
0.0000000001
40
0
40
0
40
0
40
0
40
0.029499480053711731
40
0.072684583960474697
40
0.072684583960474697
40
0.072684583960474697
40
0.072684583960474697
10
66.005008523858137
20
108.86037059375552
30
0
10
65.942687033844038
20
108.93654897700452
30
0
10
65.789131392686187
20
109.124247000263
30
0
10
65.66133386820357
20
109.33050152577741
30
0
10
65.585403745568343
20
109.45304639884738
30
0
0
LINE
5
282
100
AcDbEntity
8
0
100
AcDbLine
10
65.585403745568343
20
109.45304639884738
30
0
11
65.139651601708479
21
110.1652533585718
31
0
0
LINE
5
283
100
AcDbEntity
8
0
100
AcDbLine
10
65.139651601708479
20
110.1652533585718
30
0
11
66.021194761193343
21
110.1652533585718
31
0
0
LINE
5
284
100
AcDbEntity
8
0
100
AcDbLine
10
66.021194761193343
20
110.1652533585718
30
0
11
66.554104392922468
21
109.37086858102587
31
0
0
SPLINE
5
285
100
AcDbEntity
8
0
100
AcDbSpline
70
1064
71
3
72
9
73
5
74
0
42
0.000000001
43
0.0000000001
44
0.0000000001
40
0
40
0
40
0
40
0
40
0.042144156387857595
40
0.066281494470712035
40
0.066281494470712035
40
0.066281494470712035
40
0.066281494470712035
10
66.554104392922468
20
109.37086858102587
30
0
10
66.631479746506358
20
109.25347165205515
30
0
10
66.75317049820967
20
109.06883765851072
30
0
10
66.892017979217513
20
108.89685341163863
30
0
10
66.942581241524763
20
108.83422293016223
30
0
0
SPLINE
5
286
100
AcDbEntity
8
0
100
AcDbSpline
70
1064
71
3
72
9
73
5
74
0
42
0.000000001
43
0.0000000001
44
0.0000000001
40
0
40
0
40
0
40
0
40
0.014254913710371877
40
0.027062842157594455
40
0.027062842157594455
40
0.027062842157594455
40
0.027062842157594455
10
66.942581241524763
20
108.83422293016223
30
0
10
66.976805369464842
20
108.80061478984462
30
0
10
67.041779608610881
20
108.73680999838074
30
0
10
67.124882015925508
20
108.69982327215442
30
0
10
67.164211576378889
20
108.6823187048128
30
0
0
SPLINE
5
287
100
AcDbEntity
8
0
100
AcDbSpline
70
1064
71
3
72
9
73
5
74
0
42
0.000000001
43
0.0000000001
44
0.0000000001
40
0
40
0
40
0
40
0
40
0.015438816440587956
40
0.037439162571656803
40
0.037439162571656803
40
0.037439162571656803
40
0.037439162571656803
10
67.164211576378889
20
108.6823187048128
30
0
10
67.214436741805955
20
108.67042400504377
30
0
10
67.336232874355929
20
108.64157933290797
30
0
10
67.461591851711262
20
108.64135926389653
30
0
10
67.535256450570174
20
108.64122994491366
30
0
0
LINE
5
288
100
AcDbEntity
8
0
100
AcDbLine
10
67.535256450570174
20
108.64122994491366
30
0
11
67.684670989907332
21
108.64122994491366
31
0
0
LINE
5
289
100
AcDbEntity
8
0
100
AcDbLine
10
67.684670989907332
20
108.64122994491366
30
0
11
67.684670989907332
21
110.1652533585718
31
0
0
LINE
5
290
100
AcDbEntity
8
0
100
AcDbLine
10
67.684670989907332
20
110.1652533585718
30
0
11
68.421780174172468
21
110.1652533585718
31
0
0
LINE
5
291
100
AcDbEntity
8
0
100
AcDbLine
10
68.421780174172468
20
110.1652533585718
30
0
11
68.421780174172468
21
106.51456989595202
31
0
0
LWPOLYLINE
5
292
100
AcDbEntity
8
0
100
AcDbPolyline
90
12
70
1
43
0.0
10
60.31855613509471
20
106.51456989595202
10
61.055665319359846
20
106.51456989595202
10
61.055665319359846
20
110.1652533585718
10
60.31855613509471
20
110.1652533585718
10
60.31855613509471
20
108.56901325532702
10
58.874221151269026
20
108.56901325532702
10
58.874221151269026
20
110.1652533585718
10
58.137109582818098
20
110.1652533585718
10
58.137109582818098
20
106.51456989595202
10
58.874221151269026
20
106.51456989595202
10
58.874221151269026
20
107.95143507668284
10
60.31855613509471
20
107.95143507668284
0
SPLINE
5
293
100
AcDbEntity
8
0
100
AcDbSpline
70
1064
71
3
72
9
73
5
74
0
42
0.000000001
43
0.0000000001
44
0.0000000001
40
0
40
0
40
0
40
0
40
0.032813914058348062
40
0.060076123167503201
40
0.060076123167503201
40
0.060076123167503201
40
0.060076123167503201
10
78.380226796067305
20
108.90768505880145
30
0
10
78.356659150612444
20
109.01676718754736
30
0
10
78.313511211339005
20
109.21647610950835
30
0
10
78.178688569151802
20
109.36892469018332
30
0
10
78.117506807244368
20
109.43810500451831
30
0
0
SPLINE
5
294
100
AcDbEntity
8
0
100
AcDbSpline
70
1064
71
3
72
9
73
5
74
0
42
0.000000001
43
0.0000000001
44
0.0000000001
40
0
40
0
40
0
40
0
40
0.026494829952048705
40
0.056953391430515393
40
0.056953391430515393
40
0.056953391430515393
40
0.056953391430515393
10
78.117506807244368
20
109.43810500451831
30
0
10
78.042312794039347
20
109.48743077574471
30
0
10
77.880675445354825
20
109.59346164898881
30
0
10
77.686953922872576
20
109.6025698554128
30
0
10
77.583352034485884
20
109.60744090625552
30
0
0
SPLINE
5
295
100
AcDbEntity
8
0
100
AcDbSpline
70
1064
71
3
72
9
73
5
74
0
42
0.000000001
43
0.0000000001
44
0.0000000001
40
0
40
0
40
0
40
0
40
0.031447703121712217
40
0.05657489838785236
40
0.05657489838785236
40
0.05657489838785236
40
0.05657489838785236
10
77.583352034485884
20
109.60744090625552
30
0
10
77.476378686781302
20
109.60449779833417
30
0
10
77.283931999874724
20
109.59920310221753
30
0
10
77.119664298347786
20
109.50058278588899
30
0
10
77.046706383622237
20
109.45678152391223
30
0
0
SPLINE
5
296
100
AcDbEntity
8
0
100
AcDbSpline
70
1064
71
3
72
9
73
5
74
0
42
0.000000001
43
0.0000000001
44
0.0000000001
40
0
40
0
40
0
40
0
40
0.021222955994537655
40
0.040649249627650826
40
0.040649249627650826
40
0.040649249627650826
40
0.040649249627650826
10
77.046706383622237
20
109.45678152391223
30
0
10
76.994079164992101
20
109.40604948941825
30
0
10
76.893279966809914
20
109.30888021974653
30
0
10
76.874932684594413
20
109.17053074146949
30
0
10
76.866164510644026
20
109.10441346713809
30
0
0
SPLINE
5
297
100
AcDbEntity
8
0
100
AcDbSpline
70
1064
71
3
72
9
73
5
74
0
42
0.000000001
43
0.0000000001
44
0.0000000001
40
0
40
0
40
0
40
0
40
0.012133745168458313
40
0.023689605476038191
40
0.023689605476038191
40
0.023689605476038191
40
0.023689605476038191
10
76.866164510644026
20
109.10441346713809
30
0
10
76.869008641340514
20
109.06324761359255
30
0
10
76.874561447435127
20
108.98287648200549
30
0
10
76.919967242731445
20
108.91643723729925
30
0
10
76.942116325295515
20
108.8840279752901
30
0
0
SPLINE
5
298
100
AcDbEntity
8
0
100
AcDbSpline
70
1064
71
3
72
9
73
5
74
0
42
0.000000001
43
0.0000000001
44
0.0000000001
40
0
40
0
40
0
40
0
40
0.013451975380189796
40
0.031129623163096899
40
0.031129623163096899
40
0.031129623163096899
40
0.031129623163096899
10
76.942116325295515
20
108.8840279752901
30
0
10
76.975566379012307
20
108.85359029382238
30
0
10
77.052974160216138
20
108.78315353436741
30
0
10
77.15142123731431
20
108.74663557751597
30
0
10
77.207326596177168
20
108.72589804479388
30
0
0
SPLINE
5
299
100
AcDbEntity
8
0
100
AcDbSpline
70
1064
71
3
72
9
73
5
74
0
42
0.000000001
43
0.0000000001
44
0.0000000001
40
0
40
0
40
0
40
0
40
0.022123226980044163
40
0.061140607634867922
40
0.061140607634867922
40
0.061140607634867922
40
0.061140607634867922
10
77.207326596177168
20
108.72589804479388
30
0
10
77.277971387475588
20
108.70471258471315
30
0
10
77.473208071080535
20
108.64616362603147
30
0
10
77.671176769331055
20
108.59754765454954
30
0
10
77.79751211921031
20
108.56652297326831
30
0
0
SPLINE
5
300
100
AcDbEntity
8
0
100
AcDbSpline
70
1064
71
3
72
9
73
5
74
0
42
0.000000001
43
0.0000000001
44
0.0000000001
40
0
40
0
40
0
40
0
40
0.053018794225424819
40
0.091252444663172352
40
0.091252444663172352
40
0.091252444663172352
40
0.091252444663172352
10
77.79751211921031
20
108.56652297326831
30
0
10
77.970461645034732
20
108.52259100517767
30
0
10
78.268130938827312
20
108.44697820511871
30
0
10
78.522621727466671
20
108.27675877434133
30
0
10
78.629250233567305
20
108.20543892928866
30
0
0
SPLINE
5
301
100
AcDbEntity
8
0
100
AcDbSpline
70
1064
71
3
72
9
73
5
74
0
42
0.000000001
43
0.0000000001
44
0.0000000001
40
0
40
0
40
0
40
0
40
0.041873462020857441
40
0.082776742704193523
40
0.082776742704193523
40
0.082776742704193523
40
0.082776742704193523
10
78.629250233567305
20
108.20543892928866
30
0
10
78.72729950854432
20
108.10036517791046
30
0
10
78.921126319498256
20
107.89265216678027
30
0
10
78.950779124640661
20
107.61032755036162
30
0
10
78.965431754983015
20
107.47081972905902
30
0
0
SPLINE
5
302
100
AcDbEntity
8
0
100
AcDbSpline
70
1064
71
3
72
9
73
5
74
0
42
0.000000001
43
0.0000000001
44
0.0000000001
40
0
40
0
40
0
40
0
40
0.027275918100696853
40
0.055111334740873111
40
0.055111334740873111
40
0.055111334740873111
40
0.055111334740873111
10
78.965431754983015
20
107.47081972905902
30
0
10
78.958579333580929
20
107.37895325233708
30
0
10
78.944733930163849
20
107.19333588351392
30
0
10
78.853421532101194
20
107.03107158537034
30
0
10
78.8073018244868
20
106.94911577054766
30
0
0
SPLINE
5
303
100
AcDbEntity
8
0
100
AcDbSpline
70
1064
71
3
72
9
73
5
74
0
42
0.000000001
43
0.0000000001
44
0.0000000001
40
0
40
0
40
0
40
0
40
0.028805852950666035
40
0.059357804289514995
40
0.059357804289514995
40
0.059357804289514995
40
0.059357804289514995
10
78.8073018244868
20
106.94911577054766
30
0
10
78.747395881416907
20
106.8724290539279
30
0
10
78.6239527307971
20
106.71440717120434
30
0
10
78.444140160912511
20
106.62522093077457
30
0
10
78.351589148438521
20
106.57931603738574
30
0
0
SPLINE
5
304
100
AcDbEntity
8
0
100
AcDbSpline
70
1064
71
3
72
9
73
5
74
0
42
0.000000001
43
0.0000000001
44
0.0000000001
40
0
40
0
40
0
40
0
40
0.034193435858240501
40
0.07332576693431736
40
0.07332576693431736
40
0.07332576693431736
40
0.07332576693431736
10
78.351589148438521
20
106.57931603738574
30
0
10
78.243086948567381
20
106.54231877203466
30
0
10
78.010410505854907
20
106.46298036136469
30
0
10
77.7644305275101
20
106.45602562480713
30
0
10
77.633156483567305
20
106.45231403657702
30
0
0
SPLINE
5
305
100
AcDbEntity
8
0
100
AcDbSpline
70
1064
71
3
72
9
73
5
74
0
42
0.000000001
43
0.0000000001
44
0.0000000001
40
0
40
0
40
0
40
0
40
0.060701805325400066
40
0.1094882735805848
40
0.1094882735805848
40
0.1094882735805848
40
0.1094882735805848
10
77.633156483567305
20
106.45231403657702
30
0
10
77.426434186811008
20
106.45840257337352
30
0
10
77.053567724913719
20
106.46938451005406
30
0
10
76.738744745618931
20
106.66601614995912
30
0
10
76.598463957703657
20
106.75363250324038
30
0
0
SPLINE
5
306
100
AcDbEntity
8
0
100
AcDbSpline
70
1064
71
3
72
9
73
5
74
0
42
0.000000001
43
0.0000000001
44
0.0000000001
40
0
40
0
40
0
40
0
40
0.044033601609161449
40
0.09038347987066922
40
0.09038347987066922
40
0.09038347987066922
40
0.09038347987066922
10
76.598463957703657
20
106.75363250324038
30
0
10
76.496363452527333
20
106.86452837101601
30
0
10
76.286791702383027
20
107.09215350424503
30
0
10
76.251660531230883
20
107.40007287039573
30
0
10
76.233644788659163
20
107.55797811099795
30
0
0
LINE
5
307
100
AcDbEntity
8
0
100
AcDbLine
10
76.233644788659163
20
107.55797811099795
30
0
11
76.9707539729243
21
107.59035118171481
31
0
0
SPLINE
5
308
100
AcDbEntity
8
0
100
AcDbSpline
70
1064
71
3
72
9
73
5
74
0
42
0.000000001
43
0.0000000001
44
0.0000000001
40
0
40
0
40
0
40
0
40
0.025304740967697588
40
0.046048599073890847
40
0.046048599073890847
40
0.046048599073890847
40
0.046048599073890847
10
76.9707539729243
20
107.59035118171481
30
0
10
76.988003360148809
20
107.50576678629056
30
0
10
77.019393134799557
20
107.3518433409658
30
0
10
77.12578240929659
20
107.23729124043325
30
0
10
77.173708384430952
20
107.18568809577731
30
0
0
SPLINE
5
309
100
AcDbEntity
8
0
100
AcDbSpline
70
1064
71
3
72
9
73
5
74
0
42
0.000000001
43
0.0000000001
44
0.0000000001
40
0
40
0
40
0
40
0
40
0.021539851827344744
40
0.048950570046964605
40
0.048950570046964605
40
0.048950570046964605
40
0.048950570046964605
10
77.173708384430952
20
107.18568809577731
30
0
10
77.23712935169894
20
107.14986727903344
30
0
10
77.381257200190319
20
107.06846238297314
30
0
10
77.547523589652698
20
107.06458995247922
30
0
10
77.640627329743452
20
107.06242151805667
30
0
0
SPLINE
5
310
100
AcDbEntity
8
0
100
AcDbSpline
70
1064
71
3
72
9
73
5
74
0
42
0.000000001
43
0.0000000001
44
0.0000000001
40
0
40
0
40
0
40
0
40
0.02882710504218575
40
0.052646423201359732
40
0.052646423201359732
40
0.052646423201359732
40
0.052646423201359732
10
77.640627329743452
20
107.06242151805667
30
0
10
77.738292522424203
20
107.06549850754696
30
0
10
77.916656706354189
20
107.07111795808336
30
0
10
78.072944160735474
20
107.15599986337807
30
0
10
78.143654768860884
20
107.19440378495959
30
0
0
SPLINE
5
311
100
AcDbEntity
8
0
100
AcDbSpline
70
1064
71
3
72
9
73
5
74
0
42
0.000000001
43
0.0000000001
44
0.0000000001
40
0
40
0
40
0
40
0
40
0.01323023305773038
40
0.026323809395356043
40
0.026323809395356043
40
0.026323809395356043
40
0.026323809395356043
10
78.143654768860884
20
107.19440378495959
30
0
10
78.177791575328797
20
107.22488898953891
30
0
10
78.245712584951704
20
107.28554451323399
30
0
10
78.255718604267415
20
107.37601491293424
30
0
10
78.260695641434737
20
107.4210152799776
30
0
0
SPLINE
5
312
100
AcDbEntity
8
0
100
AcDbSpline
70
1064
71
3
72
9
73
5
74
0
42
0.000000001
43
0.0000000001
44
0.0000000001
40
0
40
0
40
0
40
0
40
0.01232366304495537
40
0.025381536350456937
40
0.025381536350456937
40
0.025381536350456937
40
0.025381536350456937
10
78.260695641434737
20
107.4210152799776
30
0
10
78.255624291643144
20
107.46303962885777
30
0
10
78.24517945485951
20
107.5495920228023
30
0
10
78.183075325157859
20
107.61103549225362
30
0
10
78.151125018990584
20
107.64264591285495
30
0
0
SPLINE
5
313
100
AcDbEntity
8
0
100
AcDbSpline
70
1064
71
3
72
9
73
5
74
0
42
0.000000001
43
0.0000000001
44
0.0000000001
40
0
40
0
40
0
40
0
40
0.026727985382751372
40
0.072290433078787311
40
0.072290433078787311
40
0.072290433078787311
40
0.072290433078787311
10
78.151125018990584
20
107.64264591285495
30
0
10
78.072549463215495
20
107.68535446746239
30
0
10
77.860028359396992
20
107.80086709830709
30
0
10
77.623106199191
20
107.85350983151282
30
0
10
77.473781412041731
20
107.88668893524913
30
0
0
SPLINE
5
314
100
AcDbEntity
8
0
100
AcDbSpline
70
1064
71
3
72
9
73
5
74
0
42
0.000000001
43
0.0000000001
44
0.0000000001
40
0
40
0
40
0
40
0
40
0.048535920237837073
40
0.083929501409035087
40
0.083929501409035087
40
0.083929501409035087
40
0.083929501409035087
10
77.473781412041731
20
107.88668893524913
30
0
10
77.316060577253594
20
107.92455007132622
30
0
10
77.043325848814987
20
107.9900204746514
30
0
10
76.786469623715192
20
108.10213105958177
30
0
10
76.678151791489668
20
108.14940877506045
30
0
0
SPLINE
5
315
100
AcDbEntity
8
0
100
AcDbSpline
70
1064
71
3
72
9
73
5
74
0
42
0.000000001
43
0.0000000001
44
0.0000000001
40
0
40
0
40
0
40
0
40
0.028030695965529168
40
0.055315876467615724
40
0.055315876467615724
40
0.055315876467615724
40
0.055315876467615724
10
76.678151791489668
20
108.14940877506045
30
0
10
76.597245818269897
20
108.1982569605259
30
0
10
76.437585679056056
20
108.29465414581863
30
0
10
76.32852785124895
20
108.44586646557062
30
0
10
76.274733846581526
20
108.52045364925173
30
0
0
SPLINE
5
316
100
AcDbEntity
8
0
100
AcDbSpline
70
1064
71
3
72
9
73
5
74
0
42
0.000000001
43
0.0000000001
44
0.0000000001
40
0
40
0
40
0
40
0
40
0.028482078195266818
40
0.060533507320927778
40
0.060533507320927778
40
0.060533507320927778
40
0.060533507320927778
10
76.274733846581526
20
108.52045364925173
30
0
10
76.232284136559684
20
108.60656661582362
30
0
10
76.142064953297776
20
108.78958415607013
30
0
10
76.133559051835164
20
108.99379639215077
30
0
10
76.129055326378889
20
109.10192318507937
30
0
0
SPLINE
5
317
100
AcDbEntity
8
0
100
AcDbSpline
70
1064
71
3
72
9
73
5
74
0
42
0.000000001
43
0.0000000001
44
0.0000000001
40
0
40
0
40
0
40
0
40
0.030691841696656175
40
0.061946253841077881
40
0.061946253841077881
40
0.061946253841077881
40
0.061946253841077881
10
76.129055326378889
20
109.10192318507937
30
0
10
76.136578930956418
20
109.20525981051179
30
0
10
76.151764045084334
20
109.41382718464938
30
0
10
76.252530637559289
20
109.59713330728228
30
0
10
76.30337149421031
20
109.68961872407702
30
0
0
SPLINE
5
318
100
AcDbEntity
8
0
100
AcDbSpline
70
1064
71
3
72
9
73
5
74
0
42
0.000000001
43
0.0000000001
44
0.0000000001
40
0
40
0
40
0
40
0
40
0.031824600317398734
40
0.064725299574652728
40
0.064725299574652728
40
0.064725299574652728
40
0.064725299574652728
10
76.30337149421031
20
109.68961872407702
30
0
10
76.368352586896179
20
109.775418642907
30
0
10
76.500512005988156
20
109.94991967023695
30
0
10
76.696708574813044
20
110.04728151872713
30
0
10
76.796437805092879
20
110.09677179405001
30
0
0
SPLINE
5
319
100
AcDbEntity
8
0
100
AcDbSpline
70
1064
71
3
72
9
73
5
74
0
42
0.000000001
43
0.0000000001
44
0.0000000001
40
0
40
0
40
0
40
0
40
0.037165517058795755
40
0.080933758909541381
40
0.080933758909541381
40
0.080933758909541381
40
0.080933758909541381
10
76.796437805092879
20
110.09677179405001
30
0
10
76.91479671390934
20
110.13556162680953
30
0
10
77.172541853733264
20
110.22003258863508
30
0
10
77.444013099929904
20
110.22650128678755
30
0
10
77.590822284615584
20
110.22999950000552
30
0
0
SPLINE
5
320
100
AcDbEntity
8
0
100
AcDbSpline
70
1064
71
3
72
9
73
5
74
0
42
0.000000001
43
0.0000000001
44
0.0000000001
40
0
40
0
40
0
40
0
40
0.061718184062681092
40
0.11283760788092656
40
0.11283760788092656
40
0.11283760788092656
40
0.11283760788092656
10
77.590822284615584
20
110.22999950000552
30
0
10
77.800925368709386
20
110.22245487584227
30
0
10
78.185050886619493
20
110.20866125317059
30
0
10
78.507893393777522
20
110.0031213523678
30
0
10
78.654152458108015
20
109.91000451394824
30
0
0
SPLINE
5
321
100
AcDbEntity
8
0
100
AcDbSpline
70
1064
71
3
72
9
73
5
74
0
42
0.000000001
43
0.0000000001
44
0.0000000001
40
0
40
0
40
0
40
0
40
0.04923208863692518
40
0.10514183950378694
40
0.10514183950378694
40
0.10514183950378694
40
0.10514183950378694
10
78.654152458108015
20
109.91000451394824
30
0
10
78.765961743415843
20
109.78534530675888
30
0
10
79.004745720621543
20
109.51911856891657
30
0
10
79.065244017911965
20
109.16546741212137
30
0
10
79.097414319909163
20
108.97741146632937
30
0
0
LINE
5
322
100
AcDbEntity
8
0
100
AcDbLine
10
79.097414319909163
20
108.97741146632937
30
0
11
78.380226796067305
21
108.90768505880145
31
0
0
LWPOLYLINE
5
323
100
AcDbEntity
8
0
100
AcDbPolyline
90
6
70
1
43
0.0
10
43.829673554144307
20
112.24999950018089
10
31.176078099265077
20
112.24999950035391
42
0.57735037683758639
10
29.357425090951352
20
109.09999891113796
10
35.684219668594267
20
98.141669253930246
42
0.57735178355312744
10
39.321531134758466
20
98.141677510640818
10
45.648321285045682
20
109.09999950023648
42
0.57734937777193718
0
LWPOLYLINE
5
324
100
AcDbEntity
8
0
100
AcDbPolyline
90
4
70
1
43
0.0
10
21.00287301818183
20
110.24999950000552
10
21.00287301818183
20
112.24999950000552
10
5.0028730181818304
20
112.24999950000552
10
5.0028730181818304
20
110.24999950000552
0
LWPOLYLINE
5
325
100
AcDbEntity
8
0
100
AcDbPolyline
90
8
70
1
43
0.0
10
-96.077888166275756
20
110.5479179719883
10
-102.79504545380108
20
103.83076068446303
42
0.41421356237315027
10
-102.79504545380107
20
103.54791797198845
10
-102.72433477568239
20
103.47720729386981
42
0.41421356237305829
10
-102.44149206320778
20
103.47720729386981
10
-95.724334775682252
20
110.19436458139509
42
0.41421356237280077
10
-95.724334775682422
20
110.47720729386974
10
-95.795045453801166
20
110.54791797198831
42
0.41421356237309503
0
LWPOLYLINE
5
326
100
AcDbEntity
8
0
100
AcDbPolyline
90
8
70
1
43
0.0
10
95.800791490164727
20
110.54791797198838
10
95.730080812046182
20
110.47720729386965
42
0.41421356237276391
10
95.730080812045998
20
110.19436458139518
10
102.44723809957144
20
103.47720729386981
42
0.41421356237305829
10
102.73008081204605
20
103.47720729386981
10
102.80079149016476
20
103.54791797198844
42
0.41421356237309503
10
102.80079149016474
20
103.83076068446303
10
96.083634202639487
20
110.54791797198838
42
0.41421356237298468
0
SPLINE
5
327
100
AcDbEntity
8
0
100
AcDbSpline
70
1064
71
3
72
20
73
16
74
0
42
0.000000001
43
0.0000000001
44
0.0000000001
40
-1
40
-1
40
-1
40
-1
40
-0.88025976761500946
40
-0.88025976761500946
40
-0.88025976761500946
40
-0.68399104164372448
40
-0.68399104164372448
40
-0.68399104164372448
40
-0.41737145922833974
40
-0.41737145922833974
40
-0.41737145922833974
40
-0.21742796574842288
40
-0.21742796574842288
40
-0.21742796574842288
40
0
40
0
40
0
40
0
10
11.316170967695792
20
101.02306051091617
30
0
10
10.945068755249732
20
101.37362177403654
30
0
10
10.635595856550193
20
101.74263644609229
30
0
10
10.401420608939169
20
102.14560876541708
30
0
10
10.017579049697405
20
102.80612914474348
30
0
10
9.8760981974196618
20
103.58927439116022
30
0
10
9.9912204984132558
20
104.28363094314088
30
0
10
10.147607409602056
20
105.22687369880822
30
0
10
10.640811492802699
20
105.95987175304275
30
0
10
10.873144114845328
20
106.50922884971983
30
0
10
11.04737511348285
20
106.92120300436565
30
0
10
11.088930110534186
20
107.17673286567234
30
0
10
11.040163300583131
20
107.43075166118892
30
0
10
10.98713197608663
20
107.70698365558779
30
0
10
10.793152456774775
20
108.07248051510504
30
0
10
10.316170967624439
20
108.52306051098356
30
0
0
LINE
5
328
100
AcDbEntity
8
0
100
AcDbLine
10
10.316170967624437
20
108.52306051098356
30
0
11
11.00287301818183
21
109.24999950000553
31
0
0
SPLINE
5
329
100
AcDbEntity
8
0
100
AcDbSpline
70
1064
71
5
72
26
73
20
74
0
42
0.000000001
43
0.0000000001
44
0.0000000001
40
0
40
0
40
0
40
0
40
0
40
0
40
0.066666666666666666
40
0.13333333333333333
40
0.20000000000000001
40
0.26666666666666666
40
0.33333333333333331
40
0.39999999999999997
40
0.46666666666666662
40
0.53333333333333333
40
0.59999999999999998
40
0.66666666666666663
40
0.73333333333333328
40
0.79999999999999993
40
0.86666666666666659
40
0.93333333333333324
40
1
40
1
40
1
40
1
40
1
40
1
10
11.00287301818183
20
109.24999950000553
30
0
10
11.108732464568332
20
109.14999950000238
30
0
10
11.307244015100736
20
108.94999949999689
30
0
10
11.565389555917527
20
108.64999949999132
30
0
10
11.829761781639265
20
108.24999949998762
30
0
10
12.025772768873209
20
107.74999949998821
30
0
10
12.089180179946233
20
107.24999949999417
30
0
10
12.028750706342084
20
106.7499995000049
30
0
10
11.864287078282846
20
106.24999950001822
30
0
10
11.631294080413303
20
105.74999950002949
30
0
10
11.374451955959714
20
105.24999950003374
30
0
10
11.141458958086938
20
104.74999950002699
30
0
10
10.97699533002187
20
104.24999950000779
30
0
10
10.916565856410719
20
103.7499994999793
30
0
10
10.979973267477716
20
103.24999949995096
30
0
10
11.175984254708993
20
102.7499994999358
30
0
10
11.440356480433092
20
102.34999949994481
30
0
10
11.698502021254995
20
102.04999949996818
30
0
10
11.897013571792419
20
101.84999949999175
30
0
10
12.002873018181832
20
101.74999950000553
30
0
0
LINE
5
330
100
AcDbEntity
8
0
100
AcDbLine
10
12.002873018181832
20
101.74999950000553
30
0
11
11.316170967695792
21
101.02306051091617
31
0
0
LWPOLYLINE
5
331
100
AcDbEntity
8
0
100
AcDbPolyline
90
8
70
1
43
0.0
10
-95.017227994495897
20
109.4872578002086
42
-0.41421356237316864
10
-94.734385282021293
20
109.4872578002086
10
-94.663674603902606
20
109.41654712208988
42
-0.41421356237316864
10
-94.663674603902606
20
109.13370440961528
10
-101.38083189142799
20
102.41654712208997
42
-0.41421356237313184
10
-101.66367460390262
20
102.41654712208998
10
-101.73438528202126
20
102.48725780020862
42
-0.41421356237305829
10
-101.73438528202126
20
102.77010051268323
0
LWPOLYLINE
5
332
100
AcDbEntity
8
0
100
AcDbPolyline
90
8
70
1
43
0.0
10
103.79074098382586
20
104.53786746564961
10
103.86145166194451
20
104.6085781437683
42
0.41421356237309503
10
103.86145166194451
20
104.89142085624292
10
97.144294374419204
20
111.60857814376824
42
0.41421356237316864
10
96.861451661944585
20
111.60857814376824
10
96.790740983825913
20
111.53786746564955
42
0.41421356237316864
10
96.790740983825913
20
111.25502475317495
10
103.50789827135125
20
104.53786746564964
42
0.41421356237305823
0
LINE
5
333
100
AcDbEntity
8
0
100
AcDbLine
10
85.992873018181868
20
106.51456989595202
30
0
11
84.4414570979243
21
106.51456989595202
31
0
0
SPLINE
5
334
100
AcDbEntity
8
0
100
AcDbSpline
70
1064
71
3
72
9
73
5
74
0
42
0.000000001
43
0.0000000001
44
0.0000000001
40
0
40
0
40
0
40
0
40
0.050580441900969546
40
0.085880820919326015
40
0.085880820919326015
40
0.085880820919326015
40
0.085880820919326015
10
84.4414570979243
20
106.51456989595202
30
0
10
84.272017373040882
20
106.51480461085845
30
0
10
83.98432469732596
20
106.51520313463736
30
0
10
83.705606115215403
20
106.58446472597326
30
0
10
83.591041868126936
20
106.61293395110873
30
0
0
SPLINE
5
335
100
AcDbEntity
8
0
100
AcDbSpline
70
1064
71
3
72
9
73
5
74
0
42
0.000000001
43
0.0000000001
44
0.0000000001
40
0
40
0
40
0
40
0
40
0.027509236322174023
40
0.055793437785265965
40
0.055793437785265965
40
0.055793437785265965
40
0.055793437785265965
10
83.591041868126936
20
106.61293395110873
30
0
10
83.506691181119947
20
106.6526720177261
30
0
10
83.335613556406855
20
106.73326761556672
30
0
10
83.223362319377898
20
106.88559196454769
30
0
10
83.166457121766157
20
106.96281202384738
30
0
0
SPLINE
5
336
100
AcDbEntity
8
0
100
AcDbSpline
70
1064
71
3
72
9
73
5
74
0
42
0.000000001
43
0.0000000001
44
0.0000000001
40
0
40
0
40
0
40
0
40
0.029488062918715384
40
0.060314261821096775
40
0.060314261821096775
40
0.060314261821096775
40
0.060314261821096775
10
83.166457121766157
20
106.96281202384738
30
0
10
83.119979194760901
20
107.05080698142808
30
0
10
83.024914223351104
20
107.23079001134388
30
0
10
83.01311337936491
20
107.43413033179473
30
0
10
83.007082050240584
20
107.53805615255145
30
0
0
SPLINE
5
337
100
AcDbEntity
8
0
100
AcDbSpline
70
1064
71
3
72
9
73
5
74
0
42
0.000000001
43
0.0000000001
44
0.0000000001
40
0
40
0
40
0
40
0
40
0.037992160202907431
40
0.073337751868222847
40
0.073337751868222847
40
0.073337751868222847
40
0.073337751868222847
10
83.007082050240584
20
107.53805615255145
30
0
10
83.015612319731048
20
107.66730610181688
30
0
10
83.032078632357667
20
107.91680233097529
30
0
10
83.178207103864224
20
108.11913121827827
30
0
10
83.248634641564436
20
108.21664490052966
30
0
0
SPLINE
5
338
100
AcDbEntity
8
0
100
AcDbSpline
70
1064
71
3
72
9
73
5
74
0
42
0.000000001
43
0.0000000001
44
0.0000000001
40
0
40
0
40
0
40
0
40
0.037203085606373129
40
0.080944120862649988
40
0.080944120862649988
40
0.080944120862649988
40
0.080944120862649988
10
83.248634641564436
20
108.21664490052966
30
0
10
83.344736367488096
20
108.29832809804488
30
0
10
83.553828425081889
20
108.476049233385
30
0
10
83.824523185757073
20
108.52670040207963
30
0
10
83.970802729523726
20
108.55407156297473
30
0
0
SPLINE
5
339
100
AcDbEntity
8
0
100
AcDbSpline
70
1064
71
3
72
9
73
5
74
0
42
0.000000001
43
0.0000000001
44
0.0000000001
40
0
40
0
40
0
40
0
40
0.026271321980167742
40
0.050093547148459469
40
0.050093547148459469
40
0.050093547148459469
40
0.050093547148459469
10
83.970802729523726
20
108.55407156297473
30
0
10
83.896007305957482
20
108.60020377774235
30
0
10
83.753389127864551
20
108.68816761440311
30
0
10
83.633238822402305
20
108.8048715030986
30
0
10
83.576100771821089
20
108.86037059375552
30
0
0
SPLINE
5
340
100
AcDbEntity
8
0
100
AcDbSpline
70
1064
71
3
72
9
73
5
74
0
42
0.000000001
43
0.0000000001
44
0.0000000001
40
0
40
0
40
0
40
0
40
0.029499443134261026
40
0.072684579735976529
40
0.072684579735976529
40
0.072684579735976529
40
0.072684579735976529
10
83.576100771821089
20
108.86037059375552
30
0
10
83.513779528050833
20
108.93654901173286
30
0
10
83.360224310365965
20
109.12424734456019
30
0
10
83.232426404601796
20
109.33050159143176
30
0
10
83.156495993531294
20
109.45304639884738
30
0
0
LINE
5
341
100
AcDbEntity
8
0
100
AcDbLine
10
83.156495993531294
20
109.45304639884738
30
0
11
82.710744147694655
21
110.1652533585718
31
0
0
LINE
5
342
100
AcDbEntity
8
0
100
AcDbLine
10
82.710744147694655
20
110.1652533585718
30
0
11
83.592287009156294
21
110.1652533585718
31
0
0
LINE
5
343
100
AcDbEntity
8
0
100
AcDbLine
10
83.592287009156294
20
110.1652533585718
30
0
11
84.125197236931868
21
109.37086858102587
31
0
0
SPLINE
5
344
100
AcDbEntity
8
0
100
AcDbSpline
70
1064
71
3
72
9
73
5
74
0
42
0.000000001
43
0.0000000001
44
0.0000000001
40
0
40
0
40
0
40
0
40
0.042144173293202566
40
0.066281474479736646
40
0.066281474479736646
40
0.066281474479736646
40
0.066281474479736646
10
84.125197236931868
20
109.37086858102587
30
0
10
84.20257277675131
20
109.25347171854443
30
0
10
84.324263735836396
20
109.06883795931917
30
0
10
84.463110755316166
20
108.8968534356067
30
0
10
84.513673787510939
20
108.83422293016223
30
0
0
SPLINE
5
345
100
AcDbEntity
8
0
100
AcDbSpline
70
1064
71
3
72
9
73
5
74
0
42
0.000000001
43
0.0000000001
44
0.0000000001
40
0
40
0
40
0
40
0
40
0.014254958744303393
40
0.027062887191525973
40
0.027062887191525973
40
0.027062887191525973
40
0.027062887191525973
10
84.513673787510939
20
108.83422293016223
30
0
10
84.547898128786045
20
108.80061480420017
30
0
10
84.612872675801356
20
108.73681013538672
30
0
10
84.695975178338742
20
108.69982329639429
30
0
10
84.735304718411513
20
108.6823187048128
30
0
0
SPLINE
5
346
100
AcDbEntity
8
0
100
AcDbSpline
70
1064
71
3
72
9
73
5
74
0
42
0.000000001
43
0.0000000001
44
0.0000000001
40
0
40
0
40
0
40
0
40
0.015438845643188823
40
0.037439162004438843
40
0.037439162004438843
40
0.037439162004438843
40
0.037439162004438843
10
84.735304718411513
20
108.6823187048128
30
0
10
84.785529983260005
20
108.67042400355768
30
0
10
84.907326124683848
20
108.64157938281485
30
0
10
85.032685095909358
20
108.64135928225957
30
0
10
85.106349592602797
20
108.64122994491366
30
0
0
LINE
5
347
100
AcDbEntity
8
0
100
AcDbLine
10
85.106349592602783
20
108.64122994491365
30
0
11
85.255763684905119
21
108.64122994491366
31
0
0
LINE
5
348
100
AcDbEntity
8
0
100
AcDbLine
10
85.255763684905119
20
108.64122994491366
30
0
11
85.255763684905119
21
110.1652533585718
31
0
0
LINE
5
349
100
AcDbEntity
8
0
100
AcDbLine
10
85.255763684905119
20
110.1652533585718
30
0
11
85.992873018181868
21
110.1652533585718
31
0
0
LINE
5
350
100
AcDbEntity
8
0
100
AcDbLine
10
85.992873018181868
20
110.1652533585718
30
0
11
85.992873018181868
21
106.51456989595202
31
0
0
LWPOLYLINE
5
351
100
AcDbEntity
8
0
100
AcDbPolyline
90
10
70
1
43
0.0
10
-7.2600461565490075
20
97.358905690400874
10
-6.4162961789007475
20
97.358905690400874
10
-6.4162961789007475
20
101.65382774421481
10
-7.2219602786536523
20
101.65382774421481
10
-7.2219602786536523
20
98.853046315400874
10
-8.9534057699675866
20
101.65382774421481
10
-9.8235230170722314
20
101.65382774421481
10
-9.8235230170722314
20
97.358905690400874
10
-9.0178589545722314
20
97.358905690400874
10
-9.0178589545722314
20
100.22706987211016
0
LINE
5
352
100
AcDbEntity
8
0
100
AcDbLine
10
-15.934850724839718
20
97.358905690400874
30
0
11
-15.934850724839718
21
99.685077684610164
31
0
0
SPLINE
5
353
100
AcDbEntity
8
0
100
AcDbSpline
70
1064
71
3
72
9
73
5
74
0
42
0.000000001
43
0.0000000001
44
0.0000000001
40
0
40
0
40
0
40
0
40
0.045636971234635636
40
0.071895925826747434
40
0.071895925826747434
40
0.071895925826747434
40
0.071895925826747434
10
-15.934850724839718
20
99.685077684610164
30
0
10
-15.933944693572622
20
99.837374644885273
30
0
10
-15.932517343005447
20
100.07730141178843
30
0
10
-15.957831526193974
20
100.3157582029977
30
0
10
-15.967077168130428
20
100.40285112211016
30
0
0
SPLINE
5
354
100
AcDbEntity
8
0
100
AcDbSpline
70
1064
71
3
72
9
73
5
74
0
42
0.000000001
43
0.0000000001
44
0.0000000001
40
0
40
0
40
0
40
0
40
0.025562750913697908
40
0.050805740537592167
40
0.050805740537592167
40
0.050805740537592167
40
0.050805740537592167
10
-15.967077168130428
20
100.40285112211016
30
0
10
-15.991818883557428
20
100.48623826248985
30
0
10
-16.04099282335299
20
100.65196946382278
30
0
10
-16.168741700044293
20
100.76836135410213
30
0
10
-16.232214125299006
20
100.82619102546481
30
0
0
SPLINE
5
355
100
AcDbEntity
8
0
100
AcDbSpline
70
1064
71
3
72
9
73
5
74
0
42
0.000000001
43
0.0000000001
44
0.0000000001
40
0
40
0
40
0
40
0
40
0.027533034209579605
40
0.060260357870550382
40
0.060260357870550382
40
0.060260357870550382
40
0.060260357870550382
10
-16.232214125299006
20
100.82619102546481
30
0
10
-16.312925129596735
20
100.87266988654484
30
0
10
-16.489573804277875
20
100.97439615400884
30
0
10
-16.693964139210685
20
100.98182464812166
30
0
10
-16.804968269967585
20
100.98585905381945
30
0
0
SPLINE
5
356
100
AcDbEntity
8
0
100
AcDbSpline
70
1064
71
3
72
9
73
5
74
0
42
0.000000001
43
0.0000000001
44
0.0000000001
40
0
40
0
40
0
40
0
40
0.032591960694739491
40
0.058486472001984327
40
0.058486472001984327
40
0.058486472001984327
40
0.058486472001984327
10
-16.804968269967585
20
100.98585905381945
30
0
10
-16.915718020607923
20
100.98301053520063
30
0
10
-17.114459122768686
20
100.97789885118729
30
0
10
-17.285764524354668
20
100.87883840649914
30
0
10
-17.361608894967585
20
100.83498002836016
30
0
0
SPLINE
5
357
100
AcDbEntity
8
0
100
AcDbSpline
70
1064
71
3
72
9
73
5
74
0
42
0.000000001
43
0.0000000001
44
0.0000000001
40
0
40
0
40
0
40
0
40
0.022538516057078285
40
0.044149441456987744
40
0.044149441456987744
40
0.044149441456987744
40
0.044149441456987744
10
-17.361608894967585
20
100.83498002836016
30
0
10
-17.417738625710374
20
100.78261827806897
30
0
10
-17.527688023228368
20
100.68004976720462
30
0
10
-17.567638862773848
20
100.53525233811484
30
0
10
-17.587194594049006
20
100.4643747384241
30
0
0
SPLINE
5
358
100
AcDbEntity
8
0
100
AcDbSpline
70
1064
71
3
72
9
73
5
74
0
42
0.000000001
43
0.0000000001
44
0.0000000001
40
0
40
0
40
0
40
0
40
0.029362894446081055
40
0.073098869247408021
40
0.073098869247408021
40
0.073098869247408021
40
0.073098869247408021
10
-17.587194594049006
20
100.4643747384241
30
0
10
-17.598200651631835
20
100.36705125077791
30
0
10
-17.625600210815421
20
100.12476461547314
30
0
10
-17.625400349507277
20
99.880830992721386
30
0
10
-17.625280769967585
20
99.734882431714809
30
0
0
LINE
5
359
100
AcDbEntity
8
0
100
AcDbLine
10
-17.625280769967585
20
99.734882431714823
30
0
11
-17.625280769967585
21
97.358905690400874
31
0
0
LINE
5
360
100
AcDbEntity
8
0
100
AcDbLine
10
-17.625280769967585
20
97.358905690400874
30
0
11
-18.492467554711848
21
97.358905690400874
31
0
0
LINE
5
361
100
AcDbEntity
8
0
100
AcDbLine
10
-18.492467554711848
20
97.358905690400874
30
0
11
-18.492467554711848
21
99.614765363424098
31
0
0
SPLINE
5
362
100
AcDbEntity
8
0
100
AcDbSpline
70
1064
71
3
72
9
73
5
74
0
42
0.000000001
43
0.0000000001
44
0.0000000001
40
0
40
0
40
0
40
0
40
0.066014631459823586
40
0.10962077647490245
40
0.10962077647490245
40
0.10962077647490245
40
0.10962077647490245
10
-18.492467554711848
20
99.614765363424098
30
0
10
-18.492856308177977
20
99.835198883641581
30
0
10
-18.493501853807356
20
100.20124036736996
30
0
10
-18.442459653334119
20
100.56345361515065
30
0
10
-18.422155531549006
20
100.70753874131945
30
0
0
SPLINE
5
363
100
AcDbEntity
8
0
100
AcDbSpline
70
1064
71
3
72
9
73
5
74
0
42
0.000000001
43
0.0000000001
44
0.0000000001
40
0
40
0
40
0
40
0
40
0.031094423801904813
40
0.060286938851342002
40
0.060286938851342002
40
0.060286938851342002
40
0.060286938851342002
10
-18.422155531549006
20
100.70753874131945
30
0
10
-18.394822118776201
20
100.80859454174134
30
0
10
-18.341827157527494
20
101.00452500501093
30
0
10
-18.221259654349083
20
101.16762417291301
30
0
10
-18.162877710961848
20
101.24660106250552
30
0
0
SPLINE
5
364
100
AcDbEntity
8
0
100
AcDbSpline
70
1064
71
3
72
9
73
5
74
0
42
0.000000001
43
0.0000000001
44
0.0000000001
40
0
40
0
40
0
40
0
40
0.029618570840432731
40
0.061911985886252074
40
0.061911985886252074
40
0.061911985886252074
40
0.061911985886252074
10
-18.162877710961848
20
101.24660106250552
30
0
10
-18.092470515145415
20
101.3169678733087
30
0
10
-17.945297670879516
20
101.46405630038973
30
0
10
-17.756160790439825
20
101.55122940929836
30
0
10
-17.657506617211848
20
101.59669907638339
30
0
0
SPLINE
5
365
100
AcDbEntity
8
0
100
AcDbSpline
70
1064
71
3
72
9
73
5
74
0
42
0.000000001
43
0.0000000001
44
0.0000000001
40
0
40
0
40
0
40
0
40
0.037762421222180424
40
0.084019967203784698
40
0.084019967203784698
40
0.084019967203784698
40
0.084019967203784698
10
-17.657506617211848
20
101.59669907638339
30
0
10
-17.536819048712516
20
101.6346229035541
30
0
10
-17.268293747128766
20
101.71900199292386
30
0
10
-16.986485625888747
20
101.72420525430061
30
0
10
-16.831334980630427
20
101.72706993171481
30
0
0
SPLINE
5
366
100
AcDbEntity
8
0
100
AcDbSpline
70
1064
71
3
72
9
73
5
74
0
42
0.000000001
43
0.0000000001
44
0.0000000001
40
0
40
0
40
0
40
0
40
0.054205946625597523
40
0.094849037947898562
40
0.094849037947898562
40
0.094849037947898562
40
0.094849037947898562
10
-16.831334980630427
20
101.72706993171481
30
0
10
-16.649341460290515
20
101.7253833067881
30
0
10
-16.33089096930987
20
101.72243206690324
30
0
10
-16.02801351134628
20
101.62621115186056
30
0
10
-15.898229631089716
20
101.5849802071741
30
0
0
SPLINE
5
367
100
AcDbEntity
8
0
100
AcDbSpline
70
1064
71
3
72
9
73
5
74
0
42
0.000000001
43
0.0000000001
44
0.0000000001
40
0
40
0
40
0
40
0
40
0.032809003748540157
40
0.062781758922486275
40
0.062781758922486275
40
0.062781758922486275
40
0.062781758922486275
10
-15.898229631089716
20
101.5849802071741
30
0
10
-15.799371697866233
20
101.53593321726996
30
0
10
-15.610201829168581
20
101.44207921549544
30
0
10
-15.465073898393698
20
101.28894668623246
30
0
10
-15.395788105630427
20
101.21583940336016
30
0
0
SPLINE
5
368
100
AcDbEntity
8
0
100
AcDbSpline
70
1064
71
3
72
9
73
5
74
0
42
0.000000001
43
0.0000000001
44
0.0000000001
40
0
40
0
40
0
40
0
40
0.027840431821582499
40
0.05380632852487556
40
0.05380632852487556
40
0.05380632852487556
40
0.05380632852487556
10
-15.395788105630427
20
101.21583940336016
30
0
10
-15.339891702799706
20
101.14078830139061
30
0
10
-15.231862479929067
20
100.99573939286046
30
0
10
-15.178416432669536
20
100.82308490937807
30
0
10
-15.152624400758297
20
100.73976518461016
30
0
0
SPLINE
5
369
100
AcDbEntity
8
0
100
AcDbSpline
70
1064
71
3
72
9
73
5
74
0
42
0.000000001
43
0.0000000001
44
0.0000000001
40
0
40
0
40
0
40
0
40
0.046145214845626899
40
0.10946208872410101
40
0.10946208872410101
40
0.10946208872410101
40
0.10946208872410101
10
-15.152624400758297
20
100.73976518461016
30
0
10
-15.127994633453621
20
100.58771372971792
30
0
10
-15.069569815561287
20
100.22702909748197
30
0
10
-15.068361992857158
20
99.861409257140707
30
0
10
-15.067663344049008
20
99.649921375005519
30
0
0
LINE
5
370
100
AcDbEntity
8
0
100
AcDbLine
10
-15.067663344049008
20
99.649921375005519
30
0
11
-15.067663344049008
21
97.358905690400874
31
0
0
LINE
5
371
100
AcDbEntity
8
0
100
AcDbLine
10
-15.067663344049008
20
97.358905690400874
30
0
11
-15.934850724839718
21
97.358905690400874
31
0
0
LWPOLYLINE
5
372
100
AcDbEntity
8
0
100
AcDbPolyline
90
4
70
1
43
0.0
10
-23.912390621804747
20
97.358905690400874
10
-23.045202644967588
20
97.358905690400874
10
-23.045202644967588
20
101.65382774421481
10
-23.912390621804747
20
101.65382774421481
0
LINE
5
373
100
AcDbEntity
8
0
100
AcDbLine
10
-29.264931830071959
20
97.358905690400874
30
0
11
-29.264931830071959
21
99.685077684610164
31
0
0
SPLINE
5
374
100
AcDbEntity
8
0
100
AcDbSpline
70
1064
71
3
72
9
73
5
74
0
42
0.000000001
43
0.0000000001
44
0.0000000001
40
0
40
0
40
0
40
0
40
0.045636970182412986
40
0.071895935747243581
40
0.071895935747243581
40
0.071895935747243581
40
0.071895935747243581
10
-29.264931830071959
20
99.685077684610164
30
0
10
-29.264025320417552
20
99.837374666051346
30
0
10
-29.262597215974893
20
100.07730150493721
30
0
10
-29.287912736457411
20
100.31575821006282
30
0
10
-29.297158869409117
20
100.40285112211016
30
0
0
SPLINE
5
375
100
AcDbEntity
8
0
100
AcDbSpline
70
1064
71
3
72
9
73
5
74
0
42
0.000000001
43
0.0000000001
44
0.0000000001
40
0
40
0
40
0
40
0
40
0.02556270702346668
40
0.05080569664736094
40
0.05080569664736094
40
0.05080569664736094
40
0.05080569664736094
10
-29.297158869409117
20
100.40285112211016
30
0
10
-29.321900118097464
20
100.48623828600938
30
0
10
-29.371073172202529
20
100.65196967546895
30
0
10
-29.498822119377301
20
100.76836139097881
30
0
10
-29.5622946344848
20
100.82619102546481
30
0
0
SPLINE
5
376
100
AcDbEntity
8
0
100
AcDbSpline
70
1064
71
3
72
9
73
5
74
0
42
0.000000001
43
0.0000000001
44
0.0000000001
40
0
40
0
40
0
40
0
40
0.027533034209579605
40
0.060260239551279821
40
0.060260239551279821
40
0.060260239551279821
40
0.060260239551279821
10
-29.5622946344848
20
100.82619102546481
30
0
10
-29.643005636128279
20
100.87266989018354
30
0
10
-29.819653958156209
20
100.97439596587515
30
0
10
-30.024043869639343
20
100.98182458622617
30
0
10
-30.135047587060484
20
100.98585905381945
30
0
0
SPLINE
5
377
100
AcDbEntity
8
0
100
AcDbSpline
70
1064
71
3
72
9
73
5
74
0
42
0.000000001
43
0.0000000001
44
0.0000000001
40
0
40
0
40
0
40
0
40
0.032592197511221714
40
0.058486494370389309
40
0.058486494370389309
40
0.058486494370389309
40
0.058486494370389309
10
-30.135047587060484
20
100.98585905381945
30
0
10
-30.24579822880532
20
100.98301080781167
30
0
10
-30.444539561993924
20
100.97789964818388
30
0
10
-30.615844641267742
20
100.87883838769514
30
0
10
-30.691688212060484
20
100.83498002836016
30
0
0
SPLINE
5
378
100
AcDbEntity
8
0
100
AcDbSpline
70
1064
71
3
72
9
73
5
74
0
42
0.000000001
43
0.0000000001
44
0.0000000001
40
0
40
0
40
0
40
0
40
0.022538516057078285
40
0.044149483070742908
40
0.044149483070742908
40
0.044149483070742908
40
0.044149483070742908
10
-30.691688212060484
20
100.83498002836016
30
0
10
-30.747817844180361
20
100.78261824000774
30
0
10
-30.857767152145783
20
100.68004955790968
30
0
10
-30.897718905453537
20
100.53525231611097
30
0
10
-30.9172751032348
20
100.4643747384241
30
0
0
SPLINE
5
379
100
AcDbEntity
8
0
100
AcDbSpline
70
1064
71
3
72
9
73
5
74
0
42
0.000000001
43
0.0000000001
44
0.0000000001
40
0
40
0
40
0
40
0
40
0.029362894446081055
40
0.073098871842735974
40
0.073098871842735974
40
0.073098871842735974
40
0.073098871842735974
10
-30.9172751032348
20
100.4643747384241
30
0
10
-30.928281107209781
20
100.36705124960854
30
0
10
-30.955680533909529
20
100.12476460279035
30
0
10
-30.955481534877904
20
99.880830990150315
30
0
10
-30.955362471246275
20
99.734882431714809
30
0
0
LINE
5
380
100
AcDbEntity
8
0
100
AcDbLine
10
-30.955362471246275
20
99.734882431714809
30
0
11
-30.955362471246275
21
97.358905690400874
31
0
0
LINE
5
381
100
AcDbEntity
8
0
100
AcDbLine
10
-30.955362471246275
20
97.358905690400874
30
0
11
-31.822548063897642
21
97.358905690400874
31
0
0
LINE
5
382
100
AcDbEntity
8
0
100
AcDbLine
10
-31.822548063897642
20
97.358905690400874
30
0
11
-31.822548063897642
21
99.614765363424098
31
0
0
SPLINE
5
383
100
AcDbEntity
8
0
100
AcDbSpline
70
1064
71
3
72
9
73
5
74
0
42
0.000000001
43
0.0000000001
44
0.0000000001
40
0
40
0
40
0
40
0
40
0.066014631459823586
40
0.10962077647490245
40
0.10962077647490245
40
0.10962077647490245
40
0.10962077647490245
10
-31.822548063897642
20
99.614765363424098
30
0
10
-31.822936817363772
20
99.835198883641581
30
0
10
-31.82358236299315
20
100.20124036736996
30
0
10
-31.772540162519913
20
100.56345361515065
30
0
10
-31.7522360407348
20
100.70753874131945
30
0
0
SPLINE
5
384
100
AcDbEntity
8
0
100
AcDbSpline
70
1064
71
3
72
9
73
5
74
0
42
0.000000001
43
0.0000000001
44
0.0000000001
40
0
40
0
40
0
40
0
40
0.031094423801904813
40
0.060286938851342002
40
0.060286938851342002
40
0.060286938851342002
40
0.060286938851342002
10
-31.7522360407348
20
100.70753874131945
30
0
10
-31.724902627961988
20
100.80859454174134
30
0
10
-31.671907666713281
20
101.00452500501093
30
0
10
-31.551340163534878
20
101.16762417291304
30
0
10
-31.492958220147642
20
101.24660106250552
30
0
0
SPLINE
5
385
100
AcDbEntity
8
0
100
AcDbSpline
70
1064
71
3
72
9
73
5
74
0
42
0.000000001
43
0.0000000001
44
0.0000000001
40
0
40
0
40
0
40
0
40
0.029618393084331548
40
0.061912018206968622
40
0.061912018206968622
40
0.061912018206968622
40
0.061912018206968622
10
-31.492958220147642
20
101.24660106250552
30
0
10
-31.422551902378881
20
101.31696798315809
30
0
10
-31.275379933421156
20
101.46405759940451
30
0
10
-31.08624228859945
20
101.55122967580532
30
0
10
-30.987587126397642
20
101.59669907638339
30
0
0
SPLINE
5
386
100
AcDbEntity
8
0
100
AcDbSpline
70
1064
71
3
72
9
73
5
74
0
42
0.000000001
43
0.0000000001
44
0.0000000001
40
0
40
0
40
0
40
0
40
0.037762306078373144
40
0.084019852059977418
40
0.084019852059977418
40
0.084019852059977418
40
0.084019852059977418
10
-30.987587126397642
20
101.59669907638339
30
0
10
-30.866899957020895
20
101.63462290068168
30
0
10
-30.598375092688546
20
101.71900212531054
30
0
10
-30.316567337990126
20
101.7242052987752
30
0
10
-30.161416681909117
20
101.72706993171481
30
0
0
SPLINE
5
387
100
AcDbEntity
8
0
100
AcDbSpline
70
1064
71
3
72
9
73
5
74
0
42
0.000000001
43
0.0000000001
44
0.0000000001
40
0
40
0
40
0
40
0
40
0.054205827672557591
40
0.094849091552641374
40
0.094849091552641374
40
0.094849091552641374
40
0.094849091552641374
10
-30.161416681909117
20
101.72706993171481
30
0
10
-29.979423583437246
20
101.72538319158176
30
0
10
-29.660972951833912
20
101.72243174196508
30
0
10
-29.358095214123921
20
101.62621116062083
30
0
10
-29.228310736321959
20
101.5849802071741
30
0
0
SPLINE
5
388
100
AcDbEntity
8
0
100
AcDbSpline
70
1064
71
3
72
9
73
5
74
0
42
0.000000001
43
0.0000000001
44
0.0000000001
40
0
40
0
40
0
40
0
40
0.032808952054620914
40
0.062781707228567046
40
0.062781707228567046
40
0.062781707228567046
40
0.062781707228567046
10
-29.228310736321959
20
101.5849802071741
30
0
10
-29.129453023979124
20
101.53593318229439
30
0
10
-28.940283435652717
20
101.44207904299408
30
0
10
-28.795155607654756
20
101.28894667123438
30
0
10
-28.725869806909117
20
101.21583940336016
30
0
0
SPLINE
5
389
100
AcDbEntity
8
0
100
AcDbSpline
70
1064
71
3
72
9
73
5
74
0
42
0.000000001
43
0.0000000001
44
0.0000000001
40
0
40
0
40
0
40
0
40
0.027840464594264314
40
0.053806402656989868
40
0.053806402656989868
40
0.053806402656989868
40
0.053806402656989868
10
-28.725869806909117
20
101.21583940336016
30
0
10
-28.66997326173335
20
101.14078829153654
30
0
10
-28.561943742086555
20
100.99573933486542
30
0
10
-28.508496788656636
20
100.82308490258785
30
0
10
-28.482704313897642
20
100.73976518461016
30
0
0
SPLINE
5
390
100
AcDbEntity
8
0
100
AcDbSpline
70
1064
71
3
72
9
73
5
74
0
42
0.000000001
43
0.0000000001
44
0.0000000001
40
0
40
0
40
0
40
0
40
0.046145198384421778
40
0.10946207426240595
40
0.10946207426240595
40
0.10946207426240595
40
0.10946207426240595
10
-28.482704313897642
20
100.73976518461016
30
0
10
-28.458075058574359
20
100.58771371706975
30
0
10
-28.3996514420419
20
100.22702897381733
30
0
10
-28.398442911561219
20
99.861409233755182
30
0
10
-28.3977438532348
20
99.649921375005519
30
0
0
LINE
5
391
100
AcDbEntity
8
0
100
AcDbLine
10
-28.3977438532348
20
99.649921375005505
30
0
11
-28.3977438532348
21
97.358905690400874
31
0
0
LINE
5
392
100
AcDbEntity
8
0
100
AcDbLine
10
-28.3977438532348
20
97.358905690400874
30
0
11
-29.264931830071959
21
97.358905690400874
31
0
0
LINE
5
393
100
AcDbEntity
8
0
100
AcDbLine
10
-38.405554445886168
20
97.358905690400874
30
0
11
-39.797156008386168
21
97.358905690400874
31
0
0
SPLINE
5
394
100
AcDbEntity
8
0
100
AcDbSpline
70
1064
71
3
72
9
73
5
74
0
42
0.000000001
43
0.0000000001
44
0.0000000001
40
0
40
0
40
0
40
0
40
0.065352041911818357
40
0.10345285989358011
40
0.10345285989358011
40
0.10345285989358011
40
0.10345285989358011
10
-39.797156008386168
20
97.358905690400874
30
0
10
-40.01546503181558
20
97.357243641646036
30
0
10
-40.361050145205326
20
97.354612603778804
30
0
10
-40.702612441714535
20
97.404855016919669
30
0
10
-40.828406962060484
20
97.423358875005519
30
0
0
SPLINE
5
395
100
AcDbEntity
8
0
100
AcDbSpline
70
1064
71
3
72
9
73
5
74
0
42
0.000000001
43
0.0000000001
44
0.0000000001
40
0
40
0
40
0
40
0
40
0.037221188349992655
40
0.075840085624009596
40
0.075840085624009596
40
0.075840085624009596
40
0.075840085624009596
10
-40.828406962060484
20
97.423358875005519
30
0
10
-40.947183269675776
20
97.466010563269236
30
0
10
-41.189196105347364
20
97.55291557176902
30
0
10
-41.359732061370636
20
97.745633885982116
30
0
10
-41.446571501397642
20
97.84376891204623
30
0
0
SPLINE
5
396
100
AcDbEntity
8
0
100
AcDbSpline
70
1064
71
3
72
9
73
5
74
0
42
0.000000001
43
0.0000000001
44
0.0000000001
40
0
40
0
40
0
40
0
40
0.041533389945763659
40
0.08849330563716265
40
0.08849330563716265
40
0.08849330563716265
40
0.08849330563716265
10
-41.446571501397642
20
97.84376891204623
30
0
10
-41.5191298123423
20
97.96424282381345
30
0
10
-41.673726506600275
20
98.22093111025579
30
0
10
-41.688013430485256
20
98.520973983521117
30
0
10
-41.695594938897642
20
98.680194931714809
30
0
0
SPLINE
5
397
100
AcDbEntity
8
0
100
AcDbSpline
70
1064
71
3
72
9
73
5
74
0
42
0.000000001
43
0.0000000001
44
0.0000000001
40
0
40
0
40
0
40
0
40
0.036577854080494653
40
0.06854791149418217
40
0.06854791149418217
40
0.06854791149418217
40
0.06854791149418217
10
-41.695594938897642
20
98.680194931714809
30
0
10
-41.691395581586846
20
98.803276114124941
30
0
10
-41.683525869693987
20
99.033933658437988
30
0
10
-41.593858366774569
20
99.246223776848566
30
0
10
-41.552038344049009
20
99.34523375579623
30
0
0
SPLINE
5
398
100
AcDbEntity
8
0
100
AcDbSpline
70
1064
71
3
72
9
73
5
74
0
42
0.000000001
43
0.0000000001
44
0.0000000001
40
0
40
0
40
0
40
0
40
0.02905958040403156
40
0.056282587794430967
40
0.056282587794430967
40
0.056282587794430967
40
0.056282587794430967
10
-41.552038344049009
20
99.34523375579623
30
0
10
-41.502228781874841
20
99.429352213114427
30
0
10
-41.405757634766289
20
99.592272819445199
30
0
10
-41.258513409499457
20
99.711099399155486
30
0
10
-41.187293680810484
20
99.768573957174098
30
0
0
SPLINE
5
399
100
AcDbEntity
8
0
100
AcDbSpline
70
1064
71
3
72
9
73
5
74
0
42
0.000000001
43
0.0000000001
44
0.0000000001
40
0
40
0
40
0
40
0
40
0.025704946592502165
40
0.049607233856682031
40
0.049607233856682031
40
0.049607233856682031
40
0.049607233856682031
10
-41.187293680810484
20
99.768573957174098
30
0
10
-41.114744879722551
20
99.815173719557606
30
0
10
-40.974735044314421
20
99.905105254793639
30
0
10
-40.814697278423857
20
99.950374762355366
30
0
10
-40.737586172723326
20
99.972187000005519
30
0
0
SPLINE
5
400
100
AcDbEntity
8
0
100
AcDbSpline
70
1064
71
3
72
9
73
5
74
0
42
0.000000001
43
0.0000000001
44
0.0000000001
40
0
40
0
40
0
40
0
40
0.038291771769300285
40
0.090243304152499537
40
0.090243304152499537
40
0.090243304152499537
40
0.090243304152499537
10
-40.737586172723326
20
99.972187000005519
30
0
10
-40.611062486344352
20
99.990029209435235
30
0
10
-40.312880527536528
20
100.03207845024914
30
0
10
-40.011608391404401
20
100.03311410785878
30
0
10
-39.838171156549009
20
100.03371031829623
30
0
0
LINE
5
401
100
AcDbEntity
8
0
100
AcDbLine
10
-39.838171156549016
20
100.03371031829623
30
0
11
-39.272742422723326
21
100.03371031829623
31
0
0
LINE
5
402
100
AcDbEntity
8
0
100
AcDbLine
10
-39.272742422723326
20
100.03371031829623
30
0
11
-39.272742422723326
21
101.65382774421481
31
0
0
LINE
5
403
100
AcDbEntity
8
0
100
AcDbLine
10
-39.272742422723326
20
101.65382774421481
30
0
11
-38.405554445886168
21
101.65382774421481
31
0
0
LINE
5
404
100
AcDbEntity
8
0
100
AcDbLine
10
-38.405554445886168
20
101.65382774421481
30
0
11
-38.405554445886168
21
97.358905690400874
31
0
0
LWPOLYLINE
5
405
100
AcDbEntity
8
0
100
AcDbPolyline
90
8
70
1
43
0.0
10
-76.629185827874693
20
100.67824186631945
10
-77.004189642571959
20
101.65382774421481
10
-77.947545202874693
20
101.65382774421481
10
-76.227822455071959
20
97.358905690400874
10
-75.310826452874693
20
97.358905690400874
10
-73.637976797723326
20
101.65382774421481
10
-74.557900580071959
20
101.65382774421481
10
-74.912390860223326
20
100.67824186631945
0
LINE
5
406
100
AcDbEntity
8
0
100
AcDbLine
10
69.102248256600461
20
99.437992658951003
30
0
11
66.668654983437619
21
99.437992658951003
31
0
0
SPLINE
5
407
100
AcDbEntity
8
0
100
AcDbSpline
70
1064
71
3
72
9
73
5
74
0
42
0.000000001
43
0.0000000001
44
0.0000000001
40
0
40
0
40
0
40
0
40
0.079341895571468563
40
0.13471496452584464
40
0.13471496452584464
40
0.13471496452584464
40
0.13471496452584464
10
66.668654983437619
20
99.437992658951003
30
0
10
66.402867083352945
20
99.43836080382944
30
0
10
65.951584601715552
20
99.438985878689095
30
0
10
65.514379202302393
20
99.547631752092599
30
0
10
65.334670846856199
20
99.592289414741714
30
0
0
SPLINE
5
408
100
AcDbEntity
8
0
100
AcDbSpline
70
1064
71
3
72
9
73
5
74
0
42
0.000000001
43
0.0000000001
44
0.0000000001
40
0
40
0
40
0
40
0
40
0.043151839332610333
40
0.087519275753687092
40
0.087519275753687092
40
0.087519275753687092
40
0.087519275753687092
10
65.334670846856199
20
99.592289414741714
30
0
10
65.202355729875109
20
99.654623687030806
30
0
10
64.933998149096411
20
99.781048202178937
30
0
10
64.757916818648027
20
100.01998825579066
30
0
10
64.668653314507566
20
100.141117658951
30
0
0
SPLINE
5
409
100
AcDbEntity
8
0
100
AcDbSpline
70
1064
71
3
72
9
73
5
74
0
42
0.000000001
43
0.0000000001
44
0.0000000001
40
0
40
0
40
0
40
0
40
0.046255774376667773
40
0.094610603072991545
40
0.094610603072991545
40
0.094610603072991545
40
0.094610603072991545
10
64.668653314507566
20
100.141117658951
30
0
10
64.595746803511602
20
100.27914897375456
30
0
10
64.446625335625086
20
100.5614753667835
30
0
10
64.428115165629478
20
100.88044067269561
30
0
10
64.41865474501904
20
101.04346164736958
30
0
0
SPLINE
5
410
100
AcDbEntity
8
0
100
AcDbSpline
70
1064
71
3
72
9
73
5
74
0
42
0.000000001
43
0.0000000001
44
0.0000000001
40
0
40
0
40
0
40
0
40
0.059595534113299993
40
0.11503967704802921
40
0.11503967704802921
40
0.11503967704802921
40
0.11503967704802921
10
64.41865474501904
20
101.04346164736958
30
0
10
64.432035335044745
20
101.24620668964438
30
0
10
64.457864430767629
20
101.63757366929154
30
0
10
64.687086405644507
20
101.9549521079374
30
0
10
64.797561471856199
20
102.10791477236958
30
0
0
SPLINE
5
411
100
AcDbEntity
8
0
100
AcDbSpline
70
1064
71
3
72
9
73
5
74
0
42
0.000000001
43
0.0000000001
44
0.0000000001
40
0
40
0
40
0
40
0
40
0.05835769664120409
40
0.12697117157283772
40
0.12697117157283772
40
0.12697117157283772
40
0.12697117157283772
10
64.797561471856199
20
102.10791477236958
30
0
10
64.948308882858157
20
102.2360453426125
30
0
10
65.276296046302406
20
102.5148241422294
30
0
10
65.700915473193859
20
102.59427650460567
30
0
10
65.930373971856199
20
102.63721146855565
30
0
0
SPLINE
5
412
100
AcDbEntity
8
0
100
AcDbSpline
70
1064
71
3
72
9
73
5
74
0
42
0.000000001
43
0.0000000001
44
0.0000000001
40
0
40
0
40
0
40
0
40
0.04120996466164608
40
0.078578216401020612
40
0.078578216401020612
40
0.078578216401020612
40
0.078578216401020612
10
65.930373971856199
20
102.63721146855565
30
0
10
65.813047613250163
20
102.70957568661053
30
0
10
65.589332400878988
20
102.84755811956565
30
0
10
65.4008605965589
20
103.03062276171198
30
0
10
65.311231916344724
20
103.11768003974171
30
0
0
SPLINE
5
413
100
AcDbEntity
8
0
100
AcDbSpline
70
1064
71
3
72
9
73
5
74
0
42
0.000000001
43
0.0000000001
44
0.0000000001
40
0
40
0
40
0
40
0
40
0.046273702173511386
40
0.11401496201694934
40
0.11401496201694934
40
0.11401496201694934
40
0.11401496201694934
10
65.311231916344724
20
103.11768003974171
30
0
10
65.213472714691534
20
103.23717558094339
30
0
10
64.972601309557319
20
103.53160371077442
30
0
10
64.772135325947048
20
103.85514040381942
30
0
10
64.65302974501904
20
104.047367658951
30
0
0
LINE
5
414
100
AcDbEntity
8
0
100
AcDbLine
10
64.65302974501904
20
104.047367658951
30
0
11
63.953810041344724
21
105.16455539736958
31
0
0
LINE
5
415
100
AcDbEntity
8
0
100
AcDbLine
10
63.953810041344724
20
105.16455539736958
30
0
11
65.33662349501904
21
105.16455539736958
31
0
0
LINE
5
416
100
AcDbEntity
8
0
100
AcDbLine
10
65.33662349501904
20
105.16455539736958
30
0
11
66.172559564507566
21
103.91846188578816
31
0
0
SPLINE
5
417
100
AcDbEntity
8
0
100
AcDbSpline
70
1064
71
3
72
9
73
5
74
0
42
0.000000001
43
0.0000000001
44
0.0000000001
40
0
40
0
40
0
40
0
40
0.066108547926058123
40
0.10397101384650655
40
0.10397101384650655
40
0.10397101384650655
40
0.10397101384650655
10
66.172559564507566
20
103.91846188578816
30
0
10
66.293933491201528
20
103.73431014537063
30
0
10
66.484822122230284
20
103.44468885200591
30
0
10
66.702621407931133
20
103.17490893580927
30
0
10
66.78193599501904
20
103.07666489157887
30
0
0
SPLINE
5
418
100
AcDbEntity
8
0
100
AcDbSpline
70
1064
71
3
72
9
73
5
74
0
42
0.000000001
43
0.0000000001
44
0.0000000001
40
0
40
0
40
0
40
0
40
0.022360668383831186
40
0.042451581664807468
40
0.042451581664807468
40
0.042451581664807468
40
0.042451581664807468
10
66.78193599501904
20
103.07666489157887
30
0
10
66.835621003662482
20
103.02394626453949
30
0
10
66.937541639015706
20
102.92386029829726
30
0
10
67.067898476720174
20
102.86584167595885
30
0
10
67.129592006600461
20
102.83838340316029
30
0
0
SPLINE
5
419
100
AcDbEntity
8
0
100
AcDbSpline
70
1064
71
3
72
9
73
5
74
0
42
0.000000001
43
0.0000000001
44
0.0000000001
40
0
40
0
40
0
40
0
40
0.024217857920802319
40
0.05872808041647265
40
0.05872808041647265
40
0.05872808041647265
40
0.05872808041647265
10
67.129592006600461
20
102.83838340316029
30
0
10
67.2083769372489
20
102.81972501250173
30
0
10
67.399429661972064
20
102.77447858853556
30
0
10
67.596071127510697
20
102.77413337403743
30
0
10
67.711623018181882
20
102.77393051657887
30
0
0
LINE
5
420
100
AcDbEntity
8
0
100
AcDbLine
10
67.711623018181882
20
102.77393051657889
30
0
11
67.945998018181882
21
102.77393051657887
31
0
0
LINE
5
421
100
AcDbEntity
8
0
100
AcDbLine
10
67.945998018181882
20
102.77393051657887
30
0
11
67.945998018181882
21
105.16455539736958
31
0
0
LINE
5
422
100
AcDbEntity
8
0
100
AcDbLine
10
67.945998018181882
20
105.16455539736958
30
0
11
69.102248256600461
21
105.16455539736958
31
0
0
LINE
5
423
100
AcDbEntity
8
0
100
AcDbLine
10
69.102248256600461
20
105.16455539736958
30
0
11
69.102248256600461
21
99.437992658951003
31
0
0
LWPOLYLINE
5
424
100
AcDbEntity
8
0
100
AcDbPolyline
90
9
70
1
43
0.0
10
80.813185279763303
20
99.437992658951003
10
78.715529148972593
20
102.75439926657887
10
78.715529148972593
20
105.16455539736958
10
77.563184802926145
20
105.16455539736958
10
77.563184802926145
20
102.76221164736958
10
75.457716291344724
20
99.437992658951003
10
76.789747779763303
20
99.437992658951003
10
78.110059802926145
20
101.70361795697423
10
79.457716648972593
20
99.437992658951003
0
SPLINE
5
425
100
AcDbEntity
8
0
100
AcDbSpline
70
1064
71
3
72
9
73
5
74
0
42
0.000000001
43
0.0000000001
44
0.0000000001
40
0
40
0
40
0
40
0
40
0.066456445419549273
40
0.12434602801890188
40
0.12434602801890188
40
0.12434602801890188
40
0.12434602801890188
10
-81.996379049920591
20
100.34132750579624
30
0
10
-81.927062425206941
20
100.55597413070601
30
0
10
-81.797364742696161
20
100.95759740541909
30
0
10
-81.494371089888276
20
101.24974924856977
30
0
10
-81.353311689996275
20
101.38576121875552
30
0
0
SPLINE
5
426
100
AcDbEntity
8
0
100
AcDbSpline
70
1064
71
3
72
9
73
5
74
0
42
0.000000001
43
0.0000000001
44
0.0000000001
40
0
40
0
40
0
40
0
40
0.057075315719484279
40
0.12074806473808249
40
0.12074806473808249
40
0.12074806473808249
40
0.12074806473808249
10
-81.353311689996275
20
101.38576121875552
30
0
10
-81.187638719887616
20
101.48522915482964
30
0
10
-80.837142357881504
20
101.69566269572269
30
0
10
-80.427964640654096
20
101.71622633432492
30
0
10
-80.212197455071959
20
101.72706993171481
30
0
0
SPLINE
5
427
100
AcDbEntity
8
0
100
AcDbSpline
70
1064
71
3
72
9
73
5
74
0
42
0.000000001
43
0.0000000001
44
0.0000000001
40
0
40
0
40
0
40
0
40
0.07928751856149957
40
0.15578769105803081
40
0.15578769105803081
40
0.15578769105803081
40
0.15578769105803081
10
-80.212197455071959
20
101.72706993171481
30
0
10
-79.941448027493124
20
101.70450761128221
30
0
10
-79.409467345753498
20
101.66017614689943
30
0
10
-79.004706766194474
20
101.31305329091799
30
0
10
-78.805947455071959
20
101.14259721586016
30
0
0
SPLINE
5
428
100
AcDbEntity
8
0
100
AcDbSpline
70
1064
71
3
72
9
73
5
74
0
42
0.000000001
43
0.0000000001
44
0.0000000001
40
0
40
0
40
0
40
0
40
0.080572170829134329
40
0.17224935400798835
40
0.17224935400798835
40
0.17224935400798835
40
0.17224935400798835
10
-78.805947455071959
20
101.14259721586016
30
0
10
-78.645482993919416
20
100.92017742981537
30
0
10
-78.302437752735798
20
100.44468242861875
30
0
10
-78.271587011597532
20
99.857155371846815
30
0
10
-78.255167158746275
20
99.544452744214809
30
0
0
SPLINE
5
429
100
AcDbEntity
8
0
100
AcDbSpline
70
1064
71
3
72
9
73
5
74
0
42
0.000000001
43
0.0000000001
44
0.0000000001
40
0
40
0
40
0
40
0
40
0.096252063802525614
40
0.17876573423621767
40
0.17876573423621767
40
0.17876573423621767
40
0.17876573423621767
10
-78.255167158746275
20
99.544452744214809
30
0
10
-78.270259364825023
20
99.216108757437894
30
0
10
-78.298289613677113
20
98.606286468342404
30
0
10
-78.647632364449706
20
98.108630453379973
30
0
10
-78.808880003594908
20
97.878925221650874
30
0
0
SPLINE
5
430
100
AcDbEntity
8
0
100
AcDbSpline
70
1064
71
3
72
9
73
5
74
0
42
0.000000001
43
0.0000000001
44
0.0000000001
40
0
40
0
40
0
40
0
40
0.078018616724209858
40
0.16087504213344889
40
0.16087504213344889
40
0.16087504213344889
40
0.16087504213344889
10
-78.808880003594908
20
97.878925221650874
30
0
10
-79.012260942005526
20
97.705933956467078
30
0
10
-79.431634143040412
20
97.349224516545291
30
0
10
-79.981651949276397
20
97.307271046805909
30
0
10
-80.264930876397642
20
97.285663502900888
30
0
0
SPLINE
5
431
100
AcDbEntity
8
0
100
AcDbSpline
70
1064
71
3
72
9
73
5
74
0
42
0.000000001
43
0.0000000001
44
0.0000000001
40
0
40
0
40
0
40
0
40
0.07235445951140923
40
0.13888240427319057
40
0.13888240427319057
40
0.13888240427319057
40
0.13888240427319057
10
-80.264930876397642
20
97.285663502900888
30
0
10
-80.511508849666384
20
97.301601662505931
30
0
10
-80.984808519094145
20
97.332194523548466
30
0
10
-81.363704948320432
20
97.615685213127236
30
0
10
-81.545205267571959
20
97.751483934610178
30
0
0
SPLINE
5
432
100
AcDbEntity
8
0
100
AcDbSpline
70
1064
71
3
72
9
73
5
74
0
42
0.000000001
43
0.0000000001
44
0.0000000001
40
0
40
0
40
0
40
0
40
0.042218495860257527
40
0.09131723112103024
40
0.09131723112103024
40
0.09131723112103024
40
0.09131723112103024
10
-81.545205267571959
20
97.751483934610178
30
0
10
-81.638275257773444
20
97.858963719079583
30
0
10
-81.83958261447782
20
98.091438991332723
30
0
10
-81.933930278063741
20
98.384778867305073
30
0
10
-81.984658392571959
20
98.542499559610178
30
0
0
LINE
5
433
100
AcDbEntity
8
0
100
AcDbLine
10
-81.984658392571959
20
98.542499559610178
30
0
11
-81.126260908746275
21
98.747577684610178
31
0
0
SPLINE
5
434
100
AcDbEntity
8
0
100
AcDbSpline
70
1064
71
3
72
9
73
5
74
0
42
0.000000001
43
0.0000000001
44
0.0000000001
40
0
40
0
40
0
40
0
40
0.032111720916232052
40
0.062500399998847503
40
0.062500399998847503
40
0.062500399998847503
40
0.062500399998847503
10
-81.126260908746275
20
98.747577684610178
30
0
10
-81.095137816348483
20
98.643056875539514
30
0
10
-81.034561625831117
20
98.439623606043924
30
0
10
-80.882383247324498
20
98.292007305443079
30
0
10
-80.808391722344908
20
98.220233934610178
30
0
0
SPLINE
5
435
100
AcDbEntity
8
0
100
AcDbSpline
70
1064
71
3
72
9
73
5
74
0
42
0.000000001
43
0.0000000001
44
0.0000000001
40
0
40
0
40
0
40
0
40
0.030446212102588136
40
0.062779628526587611
40
0.062779628526587611
40
0.062779628526587611
40
0.062779628526587611
10
-80.808391722344908
20
98.220233934610178
30
0
10
-80.721850776918899
20
98.163851497402106
30
0
10
-80.543404657320238
20
98.047591765274532
30
0
10
-80.330591042474168
20
98.033917198318278
30
0
10
-80.220985563897642
20
98.026874380796244
30
0
0
SPLINE
5
436
100
AcDbEntity
8
0
100
AcDbSpline
70
1064
71
3
72
9
73
5
74
0
42
0.000000001
43
0.0000000001
44
0.0000000001
40
0
40
0
40
0
40
0
40
0.044089915894139714
40
0.086907311501960197
40
0.086907311501960197
40
0.086907311501960197
40
0.086907311501960197
10
-80.220985563897642
20
98.026874380796244
30
0
10
-80.070065307495426
20
98.040301429895123
30
0
10
-79.772580645320204
20
98.066767997474699
30
0
10
-79.553850670582491
20
98.269678273414641
30
0
10
-79.446087034844908
20
98.369647877900874
30
0
0
SPLINE
5
437
100
AcDbEntity
8
0
100
AcDbSpline
70
1064
71
3
72
9
73
5
74
0
42
0.000000001
43
0.0000000001
44
0.0000000001
40
0
40
0
40
0
40
0
40
0.05013151165557686
40
0.11668574036583204
40
0.11668574036583204
40
0.11668574036583204
40
0.11668574036583204
10
-79.446087034844908
20
98.369647877900874
30
0
10
-79.359786919624582
20
98.515782934118988
30
0
10
-79.158915401779183
20
98.855925823592713
30
0
10
-79.152424227499282
20
99.253330965588944
30
0
10
-79.148721846246275
20
99.479999559610164
30
0
0
SPLINE
5
438
100
AcDbEntity
8
0
100
AcDbSpline
70
1064
71
3
72
9
73
5
74
0
42
0.000000001
43
0.0000000001
44
0.0000000001
40
0
40
0
40
0
40
0
40
0.070110176630492779
40
0.12134958662948321
40
0.12134958662948321
40
0.12134958662948321
40
0.12134958662948321
10
-79.148721846246275
20
99.479999559610164
30
0
10
-79.151238403707509
20
99.718574337311864
30
0
10
-79.155594165200753
20
100.131509406737
30
0
10
-79.356752317352701
20
100.48914548802844
30
0
10
-79.441690596246275
20
100.6401559884241
30
0
0
SPLINE
5
439
100
AcDbEntity
8
0
100
AcDbSpline
70
1064
71
3
72
9
73
5
74
0
42
0.000000001
43
0.0000000001
44
0.0000000001
40
0
40
0
40
0
40
0
40
0.042513029141168932
40
0.085863744070614451
40
0.085863744070614451
40
0.085863744070614451
40
0.085863744070614451
10
-79.441690596246275
20
100.6401559884241
30
0
10
-79.547419904352694
20
100.74098329666154
30
0
10
-79.7609618333897
20
100.94462463591023
30
0
10
-80.054970726067722
20
100.97202514150115
30
0
10
-80.203409346246275
20
100.98585905381945
30
0
0
SPLINE
5
440
100
AcDbEntity
8
0
100
AcDbSpline
70
1064
71
3
72
9
73
5
74
0
42
0.000000001
43
0.0000000001
44
0.0000000001
40
0
40
0
40
0
40
0
40
0.032618991294242054
40
0.064523928053037749
40
0.064523928053037749
40
0.064523928053037749
40
0.064523928053037749
10
-80.203409346246275
20
100.98585905381945
30
0
10
-80.314143941760889
20
100.97711585061847
30
0
10
-80.533189068249214
20
100.95982083958629
30
0
10
-80.710473633121552
20
100.83021718747788
30
0
10
-80.798134955071959
20
100.76613249131947
30
0
0
SPLINE
5
441
100
AcDbEntity
8
0
100
AcDbSpline
70
1064
71
3
72
9
73
5
74
0
42
0.000000001
43
0.0000000001
44
0.0000000001
40
0
40
0
40
0
40
0
40
0.035449473374347104
40
0.078766584333753525
40
0.078766584333753525
40
0.078766584333753525
40
0.078766584333753525
10
-80.798134955071959
20
100.76613249131947
30
0
10
-80.876653394051772
20
100.67577563945954
30
0
10
-81.051116613303265
20
100.47500818328324
30
0
10
-81.118500503018097
20
100.21675211274228
30
0
10
-81.155557783746275
20
100.07472606250553
30
0
0
LINE
5
442
100
AcDbEntity
8
0
100
AcDbLine
10
-81.155557783746275
20
100.07472606250553
30
0
11
-81.996379049920591
21
100.34132750579624
31
0
0
LWPOLYLINE
5
443
100
AcDbEntity
8
0
100
AcDbPolyline
90
10
70
1
43
0.0
10
-73.690710219049009
20
97.358905690400874
10
-70.746374281549009
20
97.358905690400874
10
-70.746374281549009
20
101.65382774421481
10
-71.613559874200376
20
101.65382774421481
10
-71.613559874200376
20
99.82863219329623
10
-73.406529577874693
20
99.82863219329623
10
-73.406529577874693
20
99.102069752900874
10
-71.613559874200376
20
99.102069752900874
10
-71.613559874200376
20
98.08546813079623
10
-73.690710219049009
20
98.08546813079623
0
LINE
5
444
100
AcDbEntity
8
0
100
AcDbLine
10
-62.935829313897642
20
97.358905690400874
30
0
11
-62.935829313897642
21
99.685077684610164
31
0
0
SPLINE
5
445
100
AcDbEntity
8
0
100
AcDbSpline
70
1064
71
3
72
9
73
5
74
0
42
0.000000001
43
0.0000000001
44
0.0000000001
40
0
40
0
40
0
40
0
40
0.045636974391770536
40
0.071895939956601124
40
0.071895939956601124
40
0.071895939956601124
40
0.071895939956601124
10
-62.935829313897642
20
99.685077684610164
30
0
10
-62.934923850673584
20
99.83737466162367
30
0
10
-62.93349739481279
20
100.07730148545158
30
0
10
-62.958812688019464
20
100.3157582085849
30
0
10
-62.968058737420591
20
100.40285112211016
30
0
0
SPLINE
5
446
100
AcDbEntity
8
0
100
AcDbSpline
70
1064
71
3
72
9
73
5
74
0
42
0.000000001
43
0.0000000001
44
0.0000000001
40
0
40
0
40
0
40
0
40
0.025562619244445927
40
0.050805770396380845
40
0.050805770396380845
40
0.050805770396380845
40
0.050805770396380845
10
-62.968058737420591
20
100.40285112211016
30
0
10
-62.992798964180992
20
100.48623842070042
30
0
10
-63.041970227435506
20
100.65197088753557
30
0
10
-63.169720843948589
20
100.76836160216834
30
0
10
-63.233194502496275
20
100.82619102546481
30
0
0
SPLINE
5
447
100
AcDbEntity
8
0
100
AcDbSpline
70
1064
71
3
72
9
73
5
74
0
42
0.000000001
43
0.0000000001
44
0.0000000001
40
0
40
0
40
0
40
0
40
0.027533248896487287
40
0.060260217599665752
40
0.060260217599665752
40
0.060260217599665752
40
0.060260217599665752
10
-63.233194502496275
20
100.82619102546481
30
0
10
-63.313906304677445
20
100.87266990530814
30
0
10
-63.490554937048586
20
100.97439518384965
30
0
10
-63.694944622563924
20
100.98182432894353
30
0
10
-63.805947455071959
20
100.98585905381945
30
0
0
SPLINE
5
448
100
AcDbEntity
8
0
100
AcDbSpline
70
1064
71
3
72
9
73
5
74
0
42
0.000000001
43
0.0000000001
44
0.0000000001
40
0
40
0
40
0
40
0
40
0.0325924343277273
40
0.058486516739236882
40
0.058486516739236882
40
0.058486516739236882
40
0.058486516739236882
10
-63.805947455071959
20
100.98585905381945
30
0
10
-63.916698987924399
20
100.98301108042861
30
0
10
-64.115440552145628
20
100.97790044518973
30
0
10
-64.286745309099288
20
100.87883836889009
30
0
10
-64.362588080071959
20
100.83498002836016
30
0
0
SPLINE
5
449
100
AcDbEntity
8
0
100
AcDbSpline
70
1064
71
3
72
9
73
5
74
0
42
0.000000001
43
0.0000000001
44
0.0000000001
40
0
40
0
40
0
40
0
40
0.022538516057078285
40
0.044149483070742908
40
0.044149483070742908
40
0.044149483070742908
40
0.044149483070742908
10
-64.362588080071959
20
100.83498002836016
30
0
10
-64.418717712191835
20
100.78261824000774
30
0
10
-64.528667020157272
20
100.6800495579097
30
0
10
-64.568618773465005
20
100.53525231611097
30
0
10
-64.588174971246275
20
100.4643747384241
30
0
0
SPLINE
5
450
100
AcDbEntity
8
0
100
AcDbSpline
70
1064
71
3
72
9
73
5
74
0
42
0.000000001
43
0.0000000001
44
0.0000000001
40
0
40
0
40
0
40
0
40
0.029362871253107017
40
0.073098848649761947
40
0.073098848649761947
40
0.073098848649761947
40
0.073098848649761947
10
-64.588174971246275
20
100.4643747384241
30
0
10
-64.599180020513089
20
100.36705123404316
30
0
10
-64.626577083416208
20
100.12476443397232
30
0
10
-64.626378668974013
20
99.880830955927294
30
0
10
-64.626259955071959
20
99.734882431714809
30
0
0
LINE
5
451
100
AcDbEntity
8
0
100
AcDbLine
10
-64.626259955071959
20
99.734882431714809
30
0
11
-64.626259955071959
21
97.358905690400874
31
0
0
LINE
5
452
100
AcDbEntity
8
0
100
AcDbLine
10
-64.626259955071959
20
97.358905690400874
30
0
11
-65.493450316094908
21
97.358905690400874
31
0
0
LINE
5
453
100
AcDbEntity
8
0
100
AcDbLine
10
-65.493450316094908
20
97.358905690400874
30
0
11
-65.493450316094908
21
99.614765363424098
31
0
0
SPLINE
5
454
100
AcDbEntity
8
0
100
AcDbSpline
70
1064
71
3
72
9
73
5
74
0
42
0.000000001
43
0.0000000001
44
0.0000000001
40
0
40
0
40
0
40
0
40
0.066014637808945273
40
0.10962078282402414
40
0.10962078282402414
40
0.10962078282402414
40
0.10962078282402414
10
-65.493450316094908
20
99.614765363424098
30
0
10
-65.493838036545711
20
99.835198877333568
30
0
10
-65.494481866774052
20
100.20124033658293
30
0
10
-65.443439926035339
20
100.56345361235944
30
0
10
-65.423135908746275
20
100.70753874131945
30
0
0
SPLINE
5
455
100
AcDbEntity
8
0
100
AcDbSpline
70
1064
71
3
72
9
73
5
74
0
42
0.000000001
43
0.0000000001
44
0.0000000001
40
0
40
0
40
0
40
0
40
0.031094347145407986
40
0.060286862194845178
40
0.060286862194845178
40
0.060286862194845178
40
0.060286862194845178
10
-65.423135908746275
20
100.70753874131945
30
0
10
-65.395803452540164
20
100.80859459348551
30
0
10
-65.342810282655037
20
101.00452539097182
30
0
10
-65.222242584418737
20
101.16762423117311
30
0
10
-65.163860472344908
20
101.24660106250552
30
0
0
SPLINE
5
456
100
AcDbEntity
8
0
100
AcDbSpline
70
1064
71
3
72
9
73
5
74
0
42
0.000000001
43
0.0000000001
44
0.0000000001
40
0
40
0
40
0
40
0
40
0.029618393084331548
40
0.061912018206968622
40
0.061912018206968622
40
0.061912018206968622
40
0.061912018206968622
10
-65.163860472344908
20
101.24660106250552
30
0
10
-65.09345415457615
20
101.31696798315809
30
0
10
-64.946282185618443
20
101.46405759940451
30
0
10
-64.75714454079673
20
101.55122967580532
30
0
10
-64.658489378594908
20
101.59669907638339
30
0
0
SPLINE
5
457
100
AcDbEntity
8
0
100
AcDbSpline
70
1064
71
3
72
9
73
5
74
0
42
0.000000001
43
0.0000000001
44
0.0000000001
40
0
40
0
40
0
40
0
40
0.037762996941595281
40
0.084020067271177945
40
0.084020067271177945
40
0.084020067271177945
40
0.084020067271177945
10
-64.658489378594908
20
101.59669907638339
30
0
10
-64.537799818098208
20
101.63462292760133
30
0
10
-64.2692738584784
20
101.71900088455857
30
0
10
-63.987465529436292
20
101.72420488195496
30
0
10
-63.832316549920591
20
101.72706993171481
30
0
0
SPLINE
5
458
100
AcDbEntity
8
0
100
AcDbSpline
70
1064
71
3
72
9
73
5
74
0
42
0.000000001
43
0.0000000001
44
0.0000000001
40
0
40
0
40
0
40
0
40
0.054205589766481092
40
0.094849313800916574
40
0.094849313800916574
40
0.094849313800916574
40
0.094849313800916574
10
-63.832316549920591
20
101.72706993171481
30
0
10
-63.650324307650607
20
101.72538291054123
30
0
10
-63.331873030378972
20
101.7224309492883
30
0
10
-63.028994292018169
20
101.62621118199073
30
0
10
-62.899208220147642
20
101.5849802071741
30
0
0
SPLINE
5
459
100
AcDbEntity
8
0
100
AcDbSpline
70
1064
71
3
72
9
73
5
74
0
42
0.000000001
43
0.0000000001
44
0.0000000001
40
0
40
0
40
0
40
0
40
0.032809158830458894
40
0.062781567355796694
40
0.062781567355796694
40
0.062781567355796694
40
0.062781567355796694
10
-62.899208220147642
20
101.5849802071741
30
0
10
-62.800349387785779
20
101.53593357893607
30
0
10
-62.611179269931995
20
101.44208099922767
30
0
10
-62.466053734308737
20
101.2889468413147
30
0
10
-62.396769674920591
20
101.21583940336016
30
0
0
SPLINE
5
460
100
AcDbEntity
8
0
100
AcDbSpline
70
1064
71
3
72
9
73
5
74
0
42
0.000000001
43
0.0000000001
44
0.0000000001
40
0
40
0
40
0
40
0
40
0.027840595685881868
40
0.053806368313765937
40
0.053806368313765937
40
0.053806368313765937
40
0.053806368313765937
10
-62.396769674920591
20
101.21583940336016
30
0
10
-62.340871754759839
20
101.14078855420146
30
0
10
-62.232840155361671
20
100.99574088073726
30
0
10
-62.179397040552615
20
100.82308508358045
30
0
10
-62.153606566094908
20
100.73976518461016
30
0
0
SPLINE
5
461
100
AcDbEntity
8
0
100
AcDbSpline
70
1064
71
3
72
9
73
5
74
0
42
0.000000001
43
0.0000000001
44
0.0000000001
40
0
40
0
40
0
40
0
40
0.046145198384421778
40
0.10946208226100665
40
0.10946208226100665
40
0.10946208226100665
40
0.10946208226100665
10
-62.153606566094908
20
100.73976518461016
30
0
10
-62.128977432965861
20
100.58771371295495
30
0
10
-62.070554102024019
20
100.22702893358579
30
0
10
-62.069343802746751
20
99.861409226147245
30
0
10
-62.068643721246275
20
99.649921375005519
30
0
0
LINE
5
462
100
AcDbEntity
8
0
100
AcDbLine
10
-62.068643721246275
20
99.649921375005519
30
0
11
-62.068643721246275
21
97.358905690400874
31
0
0
LINE
5
463
100
AcDbEntity
8
0
100
AcDbLine
10
-62.068643721246275
20
97.358905690400874
30
0
11
-62.935829313897642
21
97.358905690400874
31
0
0
LWPOLYLINE
5
464
100
AcDbEntity
8
0
100
AcDbPolyline
90
8
70
1
43
0.0
10
-52.432899626397642
20
98.08546813079623
10
-53.707313688897642
20
98.08546813079623
10
-53.707313688897642
20
101.65382774421481
10
-54.574499281549009
20
101.65382774421481
10
-54.574499281549009
20
98.08546813079623
10
-55.845985563897642
20
98.08546813079623
10
-55.845985563897642
20
97.358905690400874
10
-52.432899626397642
20
97.358905690400874
0
LWPOLYLINE
5
465
100
AcDbEntity
8
0
100
AcDbPolyline
90
4
70
1
43
0.0
10
-47.581334265374693
20
97.358905690400874
10
-46.714148672723326
20
97.358905690400874
10
-46.714148672723326
20
101.65382774421481
10
-47.581334265374693
20
101.65382774421481
0
LINE
5
466
100
AcDbEntity
8
0
100
AcDbLine
10
-42.410438212060484
20
97.358905690400874
30
0
11
-44.235632570886168
21
97.358905690400874
31
0
0
SPLINE
5
467
100
AcDbEntity
8
0
100
AcDbSpline
70
1064
71
3
72
9
73
5
74
0
42
0.000000001
43
0.0000000001
44
0.0000000001
40
0
40
0
40
0
40
0
40
0.059506451626796429
40
0.10103643054363605
40
0.10103643054363605
40
0.10103643054363605
40
0.10103643054363605
10
-44.235632570886168
20
97.358905690400874
30
0
10
-44.434973586136309
20
97.359181859849059
30
0
10
-44.773436124083183
20
97.35965076993368
30
0
10
-45.10134089687039
20
97.441135111233052
30
0
10
-45.2361227594848
20
97.474628406255519
30
0
0
SPLINE
5
468
100
AcDbEntity
8
0
100
AcDbSpline
70
1064
71
3
72
9
73
5
74
0
42
0.000000001
43
0.0000000001
44
0.0000000001
40
0
40
0
40
0
40
0
40
0.032363763084623777
40
0.06563927050231419
40
0.06563927050231419
40
0.06563927050231419
40
0.06563927050231419
10
-45.2361227594848
20
97.474628406255519
30
0
10
-45.335358719066789
20
97.521379028378874
30
0
10
-45.536626290378763
20
97.616197320172745
30
0
10
-45.668686331871598
20
97.795402334247711
30
0
10
-45.735633524560484
20
97.886249440400874
30
0
0
SPLINE
5
469
100
AcDbEntity
8
0
100
AcDbSpline
70
1064
71
3
72
9
73
5
74
0
42
0.000000001
43
0.0000000001
44
0.0000000001
40
0
40
0
40
0
40
0
40
0.034691910076795458
40
0.070958008803236508
40
0.070958008803236508
40
0.070958008803236508
40
0.070958008803236508
10
-45.735633524560484
20
97.886249440400874
30
0
10
-45.790314243457829
20
97.989772878265967
30
0
10
-45.902156887010648
20
98.201517258990819
30
0
10
-45.916038341758082
20
98.44074165963535
30
0
10
-45.923133047723326
20
98.563007431714809
30
0
0
SPLINE
5
470
100
AcDbEntity
8
0
100
AcDbSpline
70
1064
71
3
72
9
73
5
74
0
42
0.000000001
43
0.0000000001
44
0.0000000001
40
0
40
0
40
0
40
0
40
0.044696641110957044
40
0.086279687211045952
40
0.086279687211045952
40
0.086279687211045952
40
0.086279687211045952
10
-45.923133047723326
20
98.563007431714809
30
0
10
-45.913097777857885
20
98.715066174762853
30
0
10
-45.893726301085856
20
99.008591156994072
30
0
10
-45.721810640798147
20
99.246625232875886
30
0
10
-45.6389547907348
20
99.361347275464809
30
0
0
SPLINE
5
471
100
AcDbEntity
8
0
100
AcDbSpline
70
1064
71
3
72
9
73
5
74
0
42
0.000000001
43
0.0000000001
44
0.0000000001
40
0
40
0
40
0
40
0
40
0.04376837777184571
40
0.095228367243918477
40
0.095228367243918477
40
0.095228367243918477
40
0.095228367243918477
10
-45.6389547907348
20
99.361347275464809
30
0
10
-45.525893829796203
20
99.457445252962458
30
0
10
-45.27990320237717
20
99.666528932971033
30
0
10
-44.961438819064263
20
99.72611853815647
30
0
10
-44.7893454157348
20
99.758319872110164
30
0
0
SPLINE
5
472
100
AcDbEntity
8
0
100
AcDbSpline
70
1064
71
3
72
9
73
5
74
0
42
0.000000001
43
0.0000000001
44
0.0000000001
40
0
40
0
40
0
40
0
40
0.030907324975421421
40
0.058933607104666809
40
0.058933607104666809
40
0.058933607104666809
40
0.058933607104666809
10
-44.7893454157348
20
99.758319872110164
30
0
10
-44.877339470891485
20
99.812593188070309
30
0
10
-45.045125168239117
20
99.91608070378399
30
0
10
-45.186479389395799
20
100.05337847550406
30
0
10
-45.253701361321959
20
100.11867137500552
30
0
0
SPLINE
5
473
100
AcDbEntity
8
0
100
AcDbSpline
70
1064
71
3
72
9
73
5
74
0
42
0.000000001
43
0.0000000001
44
0.0000000001
40
0
40
0
40
0
40
0
40
0.034705043415911289
40
0.085511143996878494
40
0.085511143996878494
40
0.085511143996878494
40
0.085511143996878494
10
-45.253701361321959
20
100.11867137500552
30
0
10
-45.327019334718592
20
100.20829315640846
30
0
10
-45.507670420658556
20
100.4291158467293
30
0
10
-45.658021381837585
20
100.6717670228789
30
0
10
-45.747351797723326
20
100.8159372384241
30
0
0
LINE
5
474
100
AcDbEntity
8
0
100
AcDbLine
10
-45.747351797723326
20
100.8159372384241
30
0
11
-46.271767767571959
21
101.65382774421481
31
0
0
LINE
5
475
100
AcDbEntity
8
0
100
AcDbLine
10
-46.271767767571959
20
101.65382774421481
30
0
11
-45.234656485223326
21
101.65382774421481
31
0
0
LINE
5
476
100
AcDbEntity
8
0
100
AcDbLine
10
-45.234656485223326
20
101.65382774421481
30
0
11
-44.607703837060484
21
100.71925731250552
31
0
0
SPLINE
5
477
100
AcDbEntity
8
0
100
AcDbSpline
70
1064
71
3
72
9
73
5
74
0
42
0.000000001
43
0.0000000001
44
0.0000000001
40
0
40
0
40
0
40
0
40
0.049581377133770713
40
0.077978214871067389
40
0.077978214871067389
40
0.077978214871067389
40
0.077978214871067389
10
-44.607703837060484
20
100.71925731250552
30
0
10
-44.516673644844374
20
100.58114346868422
30
0
10
-44.373507555100019
20
100.36392741675591
30
0
10
-44.210158068773957
20
100.16159268637595
30
0
10
-44.150672110223326
20
100.08790971586016
30
0
0
SPLINE
5
478
100
AcDbEntity
8
0
100
AcDbSpline
70
1064
71
3
72
9
73
5
74
0
42
0.000000001
43
0.0000000001
44
0.0000000001
40
0
40
0
40
0
40
0
40
0.016770453260661185
40
0.031838677623696049
40
0.031838677623696049
40
0.031838677623696049
40
0.031838677623696049
10
-44.150672110223326
20
100.08790971586016
30
0
10
-44.110408711627329
20
100.04837056166895
30
0
10
-44.03396871635664
20
99.973305543196204
30
0
10
-43.936200811428066
20
99.929792110719063
30
0
10
-43.889930399560484
20
99.90919859954623
30
0
0
SPLINE
5
479
100
AcDbEntity
8
0
100
AcDbSpline
70
1064
71
3
72
9
73
5
74
0
42
0.000000001
43
0.0000000001
44
0.0000000001
40
0
40
0
40
0
40
0
40
0.018163453332970345
40
0.04404603054738955
40
0.04404603054738955
40
0.04404603054738955
40
0.04404603054738955
10
-43.889930399560484
20
99.90919859954623
30
0
10
-43.830841504062462
20
99.895204769359509
30
0
10
-43.687552050872782
20
99.861269996022074
30
0
10
-43.540071054730362
20
99.86101108019227
30
0
10
-43.453407438897642
20
99.860858934610164
30
0
0
LINE
5
480
100
AcDbEntity
8
0
100
AcDbLine
10
-43.453407438897642
20
99.860858934610164
30
0
11
-43.277626188897642
21
99.860858934610164
31
0
0
LINE
5
481
100
AcDbEntity
8
0
100
AcDbLine
10
-43.277626188897642
20
99.860858934610164
30
0
11
-43.277626188897642
21
101.65382774421481
31
0
0
LINE
5
482
100
AcDbEntity
8
0
100
AcDbLine
10
-43.277626188897642
20
101.65382774421481
30
0
11
-42.410438212060484
21
101.65382774421481
31
0
0
LINE
5
483
100
AcDbEntity
8
0
100
AcDbLine
10
-42.410438212060484
20
101.65382774421481
30
0
11
-42.410438212060484
21
97.358905690400874
31
0
0
SPLINE
5
484
100
AcDbEntity
8
0
100
AcDbSpline
70
1064
71
3
72
9
73
5
74
0
42
0.000000001
43
0.0000000001
44
0.0000000001
40
0
40
0
40
0
40
0
40
0.056487806480662643
40
0.10569411606442544
40
0.10569411606442544
40
0.10569411606442544
40
0.10569411606442544
10
61.69067413131053
20
109.04962845393923
30
0
10
61.749591562255013
20
109.23207822162341
30
0
10
61.859831739249586
20
109.57345927574772
30
0
10
62.117378032881803
20
109.82178705198299
30
0
10
62.237279718316145
20
109.93739702054766
30
0
0
SPLINE
5
485
100
AcDbEntity
8
0
100
AcDbSpline
70
1064
71
3
72
9
73
5
74
0
42
0.000000001
43
0.0000000001
44
0.0000000001
40
0
40
0
40
0
40
0
40
0.048514143545153543
40
0.10263576557280621
40
0.10263576557280621
40
0.10263576557280621
40
0.10263576557280621
10
62.237279718316145
20
109.93739702054766
30
0
10
62.378102223211911
20
110.02194476013244
30
0
10
62.676024118636192
20
110.2008126395923
30
0
10
63.023824775099499
20
110.21829203115101
30
0
10
63.207226102746077
20
110.2275092179468
30
0
0
SPLINE
5
486
100
AcDbEntity
8
0
100
AcDbSpline
70
1064
71
3
72
9
73
5
74
0
42
0.000000001
43
0.0000000001
44
0.0000000001
40
0
40
0
40
0
40
0
40
0.067394867685608956
40
0.13241971086954801
40
0.13241971086954801
40
0.13241971086954801
40
0.13241971086954801
10
63.207226102746077
20
110.2275092179468
30
0
10
63.437364907244529
20
110.20833152560422
30
0
10
63.889549398409514
20
110.17065054836728
30
0
10
64.233595714961567
20
109.8755948874755
30
0
10
64.402540033257551
20
109.73070748397616
30
0
0
SPLINE
5
487
100
AcDbEntity
8
0
100
AcDbSpline
70
1064
71
3
72
9
73
5
74
0
42
0.000000001
43
0.0000000001
44
0.0000000001
40
0
40
0
40
0
40
0
40
0.06848647895383346
40
0.14641205242739472
40
0.14641205242739472
40
0.14641205242739472
40
0.14641205242739472
10
64.402540033257551
20
109.73070748397616
30
0
10
64.53893595826122
20
109.54165074434795
30
0
10
64.830526468206699
20
109.13748067023944
30
0
10
64.856747683261972
20
108.63808189941345
30
0
10
64.870703523552962
20
108.37228454896716
30
0
0
SPLINE
5
488
100
AcDbEntity
8
0
100
AcDbSpline
70
1064
71
3
72
9
73
5
74
0
42
0.000000001
43
0.0000000001
44
0.0000000001
40
0
40
0
40
0
40
0
40
0.081814269350759181
40
0.15195072380249375
40
0.15195072380249375
40
0.15195072380249375
40
0.15195072380249375
10
64.870703523552962
20
108.37228454896716
30
0
10
64.857873915261237
20
108.09319239581724
30
0
10
64.834045941467679
20
107.57484449617505
30
0
10
64.537107518922795
20
107.15183593574156
30
0
10
64.40004855910594
20
106.95658631870059
30
0
0
SPLINE
5
489
100
AcDbEntity
8
0
100
AcDbSpline
70
1064
71
3
72
9
73
5
74
0
42
0.000000001
43
0.0000000001
44
0.0000000001
40
0
40
0
40
0
40
0
40
0.066315620722848759
40
0.13674400374253129
40
0.13674400374253129
40
0.13674400374253129
40
0.13674400374253129
10
64.40004855910594
20
106.95658631870059
30
0
10
64.227175557547696
20
106.80954380636949
30
0
10
63.870708316279455
20
106.50633949888741
30
0
10
63.403192107744403
20
106.47068002642671
30
0
10
63.162403409874983
20
106.45231403657702
30
0
0
SPLINE
5
490
100
AcDbEntity
8
0
100
AcDbSpline
70
1064
71
3
72
9
73
5
74
0
42
0.000000001
43
0.0000000001
44
0.0000000001
40
0
40
0
40
0
40
0
40
0.06150128950543874
40
0.11805001169913587
40
0.11805001169913587
40
0.11805001169913587
40
0.11805001169913587
10
63.162403409874983
20
106.45231403657702
30
0
10
62.952812132243437
20
106.46586144333591
30
0
10
62.550507514317474
20
106.4918653131611
30
0
10
62.228445613869908
20
106.73283230092808
30
0
10
62.074170415795393
20
106.84826113530902
30
0
0
SPLINE
5
491
100
AcDbEntity
8
0
100
AcDbSpline
70
1064
71
3
72
9
73
5
74
0
42
0.000000001
43
0.0000000001
44
0.0000000001
40
0
40
0
40
0
40
0
40
0.035885745160794347
40
0.077619648010588571
40
0.077619648010588571
40
0.077619648010588571
40
0.077619648010588571
10
62.074170415795393
20
106.84826113530902
30
0
10
61.995060932250574
20
106.93961905732196
30
0
10
61.823949806104686
20
107.13722313988599
30
0
10
61.743754188718199
20
107.38656198698467
30
0
10
61.700635259545393
20
107.52062447616366
30
0
0
LINE
5
492
100
AcDbEntity
8
0
100
AcDbLine
10
61.700635259545386
20
107.52062447616366
30
0
11
62.430274789727278
21
107.69494094201831
31
0
0
SPLINE
5
493
100
AcDbEntity
8
0
100
AcDbSpline
70
1064
71
3
72
9
73
5
74
0
42
0.000000001
43
0.0000000001
44
0.0000000001
40
0
40
0
40
0
40
0
40
0.02729510658400609
40
0.053125318797818025
40
0.053125318797818025
40
0.053125318797818025
40
0.053125318797818025
10
62.430274789727278
20
107.69494094201831
30
0
10
62.45673101379932
20
107.60609840735739
30
0
10
62.50822358935266
20
107.43318140620406
30
0
10
62.637573460344065
20
107.30770638212888
30
0
10
62.700465028679915
20
107.24669881412295
30
0
0
SPLINE
5
494
100
AcDbEntity
8
0
100
AcDbSpline
70
1064
71
3
72
9
73
5
74
0
42
0.000000001
43
0.0000000001
44
0.0000000001
40
0
40
0
40
0
40
0
40
0.025878774679249025
40
0.053362368233372606
40
0.053362368233372606
40
0.053362368233372606
40
0.053362368233372606
10
62.700465028679915
20
107.24669881412295
30
0
10
62.774022895213733
20
107.19877377960506
30
0
10
62.925700167769698
20
107.09995173832844
30
0
10
63.10659098599173
20
107.0883292103268
30
0
10
63.199756448662825
20
107.08234317847995
30
0
0
SPLINE
5
495
100
AcDbEntity
8
0
100
AcDbSpline
70
1064
71
3
72
9
73
5
74
0
42
0.000000001
43
0.0000000001
44
0.0000000001
40
0
40
0
40
0
40
0
40
0.037476664409357971
40
0.073871530519328127
40
0.073871530519328127
40
0.073871530519328127
40
0.073871530519328127
10
63.199756448662825
20
107.08234317847995
30
0
10
63.328039487578977
20
107.0937561045978
30
0
10
63.580902557805672
20
107.11625251225087
30
0
10
63.766824108279877
20
107.28872663609994
30
0
10
63.858423536217757
20
107.37370081493167
30
0
0
SPLINE
5
496
100
AcDbEntity
8
0
100
AcDbSpline
70
1064
71
3
72
9
73
5
74
0
42
0.000000001
43
0.0000000001
44
0.0000000001
40
0
40
0
40
0
40
0
40
0.042611812723464669
40
0.09918287219612365
40
0.09918287219612365
40
0.09918287219612365
40
0.09918287219612365
10
63.858423536217757
20
107.37370081493167
30
0
10
63.931779016840331
20
107.49791556277044
30
0
10
64.102520574039261
20
107.78703669309452
30
0
10
64.108036733848749
20
108.12483123712946
30
0
10
64.111182992852278
20
108.31749953576831
30
0
0
SPLINE
5
497
100
AcDbEntity
8
0
100
AcDbSpline
70
1064
71
3
72
9
73
5
74
0
42
0.000000001
43
0.0000000001
44
0.0000000001
40
0
40
0
40
0
40
0
40
0.059593657545732308
40
0.10314711835257842
40
0.10314711835257842
40
0.10314711835257842
40
0.10314711835257842
10
64.111182992852278
20
108.31749953576831
30
0
10
64.109043951144784
20
108.52028813467325
30
0
10
64.105341611042675
20
108.87128286252242
30
0
10
63.93435708989594
20
109.17527337270093
30
0
10
63.862159555352278
20
109.30363215753344
30
0
0
SPLINE
5
498
100
AcDbEntity
8
0
100
AcDbSpline
70
1064
71
3
72
9
73
5
74
0
42
0.000000001
43
0.0000000001
44
0.0000000001
40
0
40
0
40
0
40
0
40
0.036136064244526755
40
0.072984262713859299
40
0.072984262713859299
40
0.072984262713859299
40
0.072984262713859299
10
63.862159555352278
20
109.30363215753344
30
0
10
63.77228983065897
20
109.38933556564065
30
0
10
63.590779316601463
20
109.56243134083194
30
0
10
63.340871347454254
20
109.58572141437614
30
0
10
63.21469814101512
20
109.59748007604388
30
0
0
SPLINE
5
499
100
AcDbEntity
8
0
100
AcDbSpline
70
1064
71
3
72
9
73
5
74
0
42
0.000000001
43
0.0000000001
44
0.0000000001
40
0
40
0
40
0
40
0
40
0.027726377613639629
40
0.054845553443408281
40
0.054845553443408281
40
0.054845553443408281
40
0.054845553443408281
10
63.21469814101512
20
109.59748007604388
30
0
10
63.120572889492337
20
109.59004850179488
30
0
10
62.934383709473821
20
109.57534810319532
30
0
10
62.783691276913856
20
109.46518448808982
30
0
10
62.709179227746077
20
109.41071249791888
30
0
0
SPLINE
5
500
100
AcDbEntity
8
0
100
AcDbSpline
70
1064
71
3
72
9
73
5
74
0
42
0.000000001
43
0.0000000001
44
0.0000000001
40
0
40
0
40
0
40
0
40
0.030132074128547615
40
0.066951527846023456
40
0.066951527846023456
40
0.066951527846023456
40
0.066951527846023456
10
62.709179227746077
20
109.41071249791888
30
0
10
62.642438100001172
20
109.33390935975453
30
0
10
62.4941436130825
20
109.16325773379823
30
0
10
62.436869439688387
20
108.94373952728998
30
0
10
62.40537196914012
20
108.82301725694445
30
0
0
LINE
5
501
100
AcDbEntity
8
0
100
AcDbLine
10
62.405371969140113
20
108.82301725694445
30
0
11
61.69067413131053
21
109.04962845393923
31
0
0
LWPOLYLINE
5
502
100
AcDbEntity
8
0
100
AcDbPolyline
90
8
70
1
43
0.0
10
69.9358418635493
20
109.3360052282503
10
69.617091720498152
20
110.1652533585718
10
68.8152363947993
20
110.1652533585718
10
70.277003353035994
20
106.51456989595202
10
71.0564473322993
20
106.51456989595202
10
72.478370969689436
20
110.1652533585718
10
71.69643790046031
20
110.1652533585718
10
71.395118539727278
20
109.3360052282503
0
LWPOLYLINE
5
503
100
AcDbEntity
8
0
100
AcDbPolyline
90
8
70
1
43
0.0
10
-103.50215223498759
20
104.53786746564964
10
-96.784994947462252
20
111.25502475317495
42
0.41421356237316864
10
-96.784994947462252
20
111.53786746564955
10
-96.855705625580924
20
111.60857814376824
42
0.41421356237316864
10
-97.138548338055543
20
111.60857814376824
10
-103.85570562558087
20
104.89142085624292
42
0.41421356237316864
10
-103.85570562558085
20
104.60857814376828
10
-103.7849949474622
20
104.53786746564961
42
0.41421356237305823
0
LINE
5
504
100
AcDbEntity
8
0
100
AcDbLine
10
8.0028730181818322
20
97.999999500005529
30
0
11
7.1858463768414103
21
97.423399580355849
31
0
0
SPLINE
5
505
100
AcDbEntity
8
0
100
AcDbSpline
70
1064
71
3
72
17
73
13
74
0
42
0.000000001
43
0.0000000001
44
0.0000000001
40
-1
40
-1
40
-1
40
-1
40
-0.77892264244763121
40
-0.77892264244763121
40
-0.77892264244763121
40
-0.53382580028607585
40
-0.53382580028607585
40
-0.53382580028607585
40
-0.28460643887186704
40
-0.28460643887186704
40
-0.28460643887186704
40
0
40
0
40
0
40
0
10
7.1858463768414094
20
97.423399580355863
30
0
10
6.5258451593084068
20
98.358603626810165
30
0
10
6.105809469731275
20
99.353602297057876
30
0
10
5.9854077548936786
20
100.36941636427342
30
0
10
5.851924704326005
20
101.49559600950839
30
0
10
6.1205731945167994
20
102.59774782673217
30
0
10
6.4265150691382402
20
103.55026512423628
30
0
10
6.7376028740670506
20
104.5188037252497
30
0
10
7.0262655549642563
20
105.34819734640182
30
0
10
7.0554433632237545
20
106.08760730959557
30
0
10
7.0887641776889687
20
106.93200734054336
30
0
10
6.8426003410126661
20
107.74279680475466
30
0
10
6.1858463767889882
20
108.67339958043016
30
0
0
LINE
5
506
100
AcDbEntity
8
0
100
AcDbLine
10
6.1858463767889882
20
108.67339958043013
30
0
11
7.0028730181818322
21
109.24999950000553
31
0
0
SPLINE
5
507
100
AcDbEntity
8
0
100
AcDbSpline
70
1064
71
5
72
26
73
20
74
0
42
0.000000001
43
0.0000000001
44
0.0000000001
40
0
40
0
40
0
40
0
40
0
40
0
40
0.066666666666666666
40
0.13333333333333333
40
0.20000000000000001
40
0.26666666666666666
40
0.33333333333333331
40
0.39999999999999997
40
0.46666666666666662
40
0.53333333333333333
40
0.59999999999999998
40
0.66666666666666663
40
0.73333333333333328
40
0.79999999999999993
40
0.86666666666666659
40
0.93333333333333324
40
1
40
1
40
1
40
1
40
1
40
1
10
7.0028730181818322
20
109.24999950000553
30
0
10
7.1087324645683196
20
109.09999949999764
30
0
10
7.307244015100717
20
108.79999949998393
30
0
10
7.5653895559175819
20
108.34999949996964
30
0
10
7.8297617816395482
20
107.74999949996149
30
0
10
8.0257727688737663
20
106.99999949996611
30
0
10
8.0891801799467835
20
106.24999949998235
30
0
10
8.0287507063421746
20
105.49999950000543
30
0
10
7.8642870782820982
20
104.74999950002896
30
0
10
7.6312940804116955
20
103.99999950004587
30
0
10
7.3744519559576736
20
103.24999950005002
30
0
10
7.1414589580853001
20
102.49999950003767
30
0
10
6.9769953300216692
20
101.74999950000819
30
0
10
6.9165658564127783
20
100.99999949996783
30
0
10
6.9799732674820696
20
100.24999949992946
30
0
10
7.1759842547145949
20
99.499999499910132
30
0
10
7.4403564804379663
20
98.899999499923382
30
0
10
7.6985020212579833
20
98.449999499955325
30
0
10
7.8970135717935195
20
98.149999499987061
30
0
10
8.0028730181818322
20
97.999999500005529
30
0
0
LINE
5
508
100
AcDbEntity
8
0
100
AcDbLine
10
16.658716018181828
20
97.999999500005529
30
0
11
15.853710686684654
21
97.406731924402578
31
0
0
SPLINE
5
509
100
AcDbEntity
8
0
100
AcDbSpline
70
1064
71
3
72
20
73
16
74
0
42
0.000000001
43
0.0000000001
44
0.0000000001
40
-1
40
-1
40
-1
40
-1
40
-0.97366034979987581
40
-0.97366034979987581
40
-0.97366034979987581
40
-0.73827180043296348
40
-0.73827180043296348
40
-0.73827180043296348
40
-0.47381321339254834
40
-0.47381321339254834
40
-0.47381321339254834
40
-0.24341058829573975
40
-0.24341058829573975
40
-0.24341058829573975
40
0
40
0
40
0
40
0
10
15.853710686687165
20
97.406731924399736
30
0
10
15.770954933869604
20
97.519023283255763
30
0
10
15.691901110927784
20
97.632054580585518
30
0
10
15.616617934967378
20
97.745895792321917
30
0
10
14.943837641895364
20
98.763256216063482
30
0
10
14.582645639266111
20
99.875471126177601
30
0
10
14.588309396060362
20
100.97029637872549
30
0
10
14.594672616035066
20
102.20033046544593
30
0
10
15.051212647468748
20
103.33365227977053
30
0
10
15.357097808190542
20
104.27925768345546
30
0
10
15.623592251790097
20
105.10309165214197
30
0
10
15.747351631465335
20
105.75770390270171
30
0
10
15.629993474611183
20
106.37919222044088
30
0
10
15.506009566054715
20
107.03576823374047
30
0
10
15.107985263228274
20
107.74697190205413
30
0
10
14.303001127048747
20
108.53573110787146
30
0
0
LINE
5
510
100
AcDbEntity
8
0
100
AcDbLine
10
14.303001127048748
20
108.53573110787146
30
0
11
15.002873018181832
21
109.24999950000553
31
0
0
SPLINE
5
511
100
AcDbEntity
8
0
100
AcDbSpline
70
1064
71
5
72
26
73
20
74
0
42
0.000000001
43
0.0000000001
44
0.0000000001
40
0
40
0
40
0
40
0
40
0
40
0
40
0.066666666666666666
40
0.13333333333333333
40
0.20000000000000001
40
0.26666666666666666
40
0.33333333333333331
40
0.39999999999999997
40
0.46666666666666662
40
0.53333333333333333
40
0.59999999999999998
40
0.66666666666666663
40
0.73333333333333328
40
0.79999999999999993
40
0.86666666666666659
40
0.93333333333333324
40
1
40
1
40
1
40
1
40
1
40
1
10
15.002873018181832
20
109.24999950000553
30
0
10
15.151354881903378
20
109.10451037588052
30
0
10
15.431921770065699
20
108.81309853202482
30
0
10
15.803582208310266
20
108.37467999403692
30
0
10
16.200028980637448
20
107.78750135906007
30
0
10
16.528397383397738
20
107.0490846123211
30
0
10
16.691028567184333
20
106.30619567919447
30
0
10
16.697191454038499
20
105.55894344109605
30
0
10
16.568545411983433
20
104.80767185167437
30
0
10
16.345257252261224
20
104.05309157663723
30
0
10
16.078999667547372
20
103.29614364831174
30
0
10
15.825403140768952
20
102.53785490377103
30
0
10
15.637007874157973
20
101.77920781170359
30
0
10
15.556127948362965
20
101.02101211631462
30
0
10
15.606950317354592
20
100.26376771630986
30
0
10
15.800522692583101
20
99.50773984644826
30
0
10
16.071816611579095
20
98.903976102448837
30
0
10
16.340203472705518
20
98.45175535569139
30
0
10
16.547771287133614
20
98.15054050994334
30
0
10
16.658716018181828
20
97.999999500005529
30
0
0
SPLINE
5
512
100
AcDbEntity
8
0
100
AcDbSpline
70
1064
71
3
72
20
73
16
74
0
42
0.000000001
43
0.0000000001
44
0.0000000001
40
-1
40
-1
40
-1
40
-1
40
-0.88025976760162394
40
-0.88025976760162394
40
-0.88025976760162394
40
-0.68399104163206192
40
-0.68399104163206192
40
-0.68399104163206192
40
-0.41737145921804231
40
-0.41737145921804231
40
-0.41737145921804231
40
-0.21742796573713671
40
-0.21742796573713671
40
-0.21742796573713671
40
0
40
0
40
0
40
0
10
19.316170967699421
20
101.02306051091274
30
0
10
18.945068755207867
20
101.37362177407257
30
0
10
18.635595856477241
20
101.74263644617257
30
0
10
18.401420608855958
20
102.14560876555112
30
0
10
18.017579049643651
20
102.80612914488603
30
0
10
17.87609819741289
20
103.58927439130727
30
0
10
17.99122049843395
20
104.28363094327037
30
0
10
18.147607409660633
20
105.22687369891726
30
0
10
18.640811492854517
20
105.959871753127
30
0
10
18.873144114875068
20
106.5092288497801
30
0
10
19.04737511349779
20
106.92120300441209
30
0
10
19.088930110534307
20
107.17673286569746
30
0
10
19.040163300568036
20
107.43075166122375
30
0
10
18.987131976058002
20
107.70698365561749
30
0
10
18.793152456731526
20
108.072480515135
30
0
10
18.316170967615669
20
108.52306051099184
30
0
0
LINE
5
513
100
AcDbEntity
8
0
100
AcDbLine
10
18.316170967615669
20
108.52306051099184
30
0
11
19.00287301818183
21
109.24999950000553
31
0
0
SPLINE
5
514
100
AcDbEntity
8
0
100
AcDbSpline
70
1064
71
5
72
26
73
20
74
0
42
0.000000001
43
0.0000000001
44
0.0000000001
40
0
40
0
40
0
40
0
40
0
40
0
40
0.066666666666666666
40
0.13333333333333333
40
0.20000000000000001
40
0.26666666666666666
40
0.33333333333333331
40
0.39999999999999997
40
0.46666666666666662
40
0.53333333333333333
40
0.59999999999999998
40
0.66666666666666663
40
0.73333333333333328
40
0.79999999999999993
40
0.86666666666666659
40
0.93333333333333324
40
1
40
1
40
1
40
1
40
1
40
1
10
19.00287301818183
20
109.24999950000553
30
0
10
19.108732464565776
20
109.14999950000238
30
0
10
19.307244015093808
20
108.94999949999689
30
0
10
19.565389555906357
20
108.64999949999132
30
0
10
19.829761781626484
20
108.24999949998762
30
0
10
20.025772768863156
20
107.74999949998821
30
0
10
20.089180179941298
20
107.24999949999417
30
0
10
20.028750706342443
20
106.7499995000049
30
0
10
19.864287078287017
20
106.24999950001822
30
0
10
19.631294080419089
20
105.74999950002949
30
0
10
19.374451955964958
20
105.24999950003374
30
0
10
19.141458958089995
20
104.74999950002699
30
0
10
18.976995330021861
20
104.24999950000779
30
0
10
18.916565856407676
20
103.7499994999793
30
0
10
18.979973267472456
20
103.24999949995096
30
0
10
19.175984254703032
20
102.7499994999358
30
0
10
19.440356480428246
20
102.34999949994481
30
0
10
19.698502021252096
20
102.04999949996818
30
0
10
19.897013571791359
20
101.84999949999175
30
0
10
20.00287301818183
20
101.74999950000553
30
0
0
LINE
5
515
100
AcDbEntity
8
0
100
AcDbLine
10
20.00287301818183
20
101.74999950000553
30
0
11
19.316170967699421
21
101.02306051091274
31
0
0
LWPOLYLINE
5
516
100
AcDbEntity
8
0
100
AcDbPolyline
90
4
70
1
43
0.0
10
-20.951711578900756
20
112.24999950000552
10
-71.451711578900742
20
112.24999950000552
10
-71.451711578900756
20
104.24999950000552
10
-20.951711578900767
20
104.24999950000552
0
ENDSEC
0
SECTION
2
OBJECTS
0
DICTIONARY
5
C
100
AcDbDictionary
3
ACAD_GROUP
350
D
3
ACAD_MLINESTYLE
350
17
0
DICTIONARY
5
D
100
AcDbDictionary
0
DICTIONARY
5
1A
330
C
100
AcDbDictionary
0
DICTIONARY
5
17
100
AcDbDictionary
0
ENDSEC
0
EOF
