0
SECTION
2
HEADER
9
$INSUNITS
70
4
9
$ACADVER
1
AC1014
9
$HANDSEED
5
FFFF
0
ENDSEC
0
SECTION
2
TABLES
0
TABLE
2
VPORT
5
8
100
AcDbSymbolTable
0
ENDTAB
0
TABLE
2
LTYPE
5
5
100
AcDbSymbolTable
0
LTYPE
5
14
100
AcDbSymbolTableRecord
100
AcDbLinetypeTableRecord
2
BYBLOCK
70
0
0
LTYPE
5
15
100
AcDbSymbolTableRecord
100
AcDbLinetypeTableRecord
2
BYLAYER
70
0
0
ENDTAB
0
TABLE
2
LAYER
5
2
100
AcDbSymbolTable
70
2
0
LAYER
5
50
100
AcDbSymbolTableRecord
100
AcDbLayerTableRecord
2
0
70
0
6
CONTINUOUS
0
ENDTAB
0
TABLE
2
STYLE
5
3
100
AcDbSymbolTable
70
1
0
STYLE
5
11
100
AcDbSymbolTableRecord
100
AcDbTextStyleTableRecord
2
STANDARD
70
0
0
ENDTAB
0
TABLE
2
VIEW
5
6
100
AcDbSymbolTable
70
0
0
ENDTAB
0
TABLE
2
UCS
5
7
100
AcDbSymbolTable
70
0
0
ENDTAB
0
TABLE
2
APPID
5
9
100
AcDbSymbolTable
70
2
0
APPID
5
12
100
AcDbSymbolTableRecord
100
AcDbRegAppTableRecord
2
ACAD
70
0
0
ENDTAB
0
TABLE
2
DIMSTYLE
5
A
100
AcDbSymbolTable
70
1
0
ENDTAB
0
TABLE
2
BLOCK_RECORD
5
1
100
AcDbSymbolTable
70
1
0
BLOCK_RECORD
5
1F
100
AcDbSymbolTableRecord
100
AcDbBlockTableRecord
2
*MODEL_SPACE
0
BLOCK_RECORD
5
1B
100
AcDbSymbolTableRecord
100
AcDbBlockTableRecord
2
*PAPER_SPACE
0
ENDTAB
0
ENDSEC
0
SECTION
2
BLOCKS
0
BLOCK
5
20
100
AcDbEntity
100
AcDbBlockBegin
2
*MODEL_SPACE
0
ENDBLK
5
21
100
AcDbEntity
100
AcDbBlockEnd
0
BLOCK
5
1C
100
AcDbEntity
100
AcDbBlockBegin
2
*PAPER_SPACE
0
ENDBLK
5
1D
100
AcDbEntity
100
AcDbBlockEnd
0
ENDSEC
0
SECTION
2
ENTITIES
0
LWPOLYLINE
5
100
100
AcDbEntity
8
0
100
AcDbPolyline
90
20
70
1
43
0.0
10
106.00287333248367
20
103.74999991885474
10
106.00287333248369
20
-120.25000008114532
42
-0.41421356237309115
10
102.00287333248367
20
-124.25000008114532
10
82.872038183205575
20
-124.2500000811453
42
-0.19891236737965731
10
79.336504277272837
20
-122.78553398707805
10
77.651921851911851
20
-121.10095156171708
42
0.41421356237309048
10
75.353824813055439
20
-121.10095156171708
10
73.669242387694467
20
-122.78553398707805
42
-0.19891236737965465
10
70.133708481761715
20
-124.25000008114532
10
-67.127961816794496
20
-124.2500000811453
42
-0.19891236737965973
10
-70.663495722727234
20
-122.78553398707803
10
-72.348078148088121
20
-121.1009515617171
42
0.4142135623730962
10
-74.646175186944575
20
-121.10095156171708
10
-76.330757612305533
20
-122.78553398707805
42
-0.19891236737965132
10
-79.86629151823827
20
-124.25000008114532
10
-101.99712666751635
20
-124.2500000811453
42
-0.41421356237309115
10
-105.99712666751635
20
-120.25000008114529
10
-105.99712666751635
20
103.74999991885477
42
-0.41421356237309453
10
-95.997126667516412
20
113.74999991885474
10
96.002873332483688
20
113.74999991885474
42
-0.41421356237309503
0
LWPOLYLINE
5
101
100
AcDbEntity
8
0
100
AcDbPolyline
90
20
70
1
43
0.0
10
-105.99712666751635
20
103.7499999188548
10
-105.99712666751635
20
-120.2500000811453
42
0.41421356237308854
10
-101.99712666751637
20
-124.2500000811453
10
-79.86629151823827
20
-124.25000008114532
42
0.19891236737965101
10
-76.330757612305547
20
-122.78553398707805
10
-74.646175186944561
20
-121.1009515617171
42
-0.41421356237309392
10
-72.348078148088149
20
-121.1009515617171
10
-70.663495722727234
20
-122.78553398707803
42
0.19891236737965931
10
-67.127961816794496
20
-124.2500000811453
10
70.133708481761701
20
-124.25000008114532
42
0.19891236737965509
10
73.669242387694467
20
-122.78553398707805
10
75.353824813055439
20
-121.10095156171708
42
-0.41421356237309503
10
77.651921851911851
20
-121.10095156171708
10
79.336504277272837
20
-122.78553398707805
42
0.19891236737965737
10
82.872038183205575
20
-124.25000008114532
10
102.00287333248367
20
-124.25000008114532
42
0.41421356237309115
10
106.00287333248367
20
-120.2500000811453
10
106.00287333248367
20
103.74999991885475
42
0.41421356237309453
10
96.002873332483716
20
113.74999991885474
10
-95.997126667516397
20
113.74999991885474
42
0.41421356237309453
0
ENDSEC
0
SECTION
2
OBJECTS
0
DICTIONARY
5
C
100
AcDbDictionary
3
ACAD_GROUP
350
D
3
ACAD_MLINESTYLE
350
17
0
DICTIONARY
5
D
100
AcDbDictionary
0
DICTIONARY
5
1A
330
C
100
AcDbDictionary
0
DICTIONARY
5
17
100
AcDbDictionary
0
ENDSEC
0
EOF
