0
SECTION
2
HEADER
9
$INSUNITS
70
4
9
$ACADVER
1
AC1014
9
$HANDSEED
5
FFFF
0
ENDSEC
0
SECTION
2
TABLES
0
TABLE
2
VPORT
5
8
100
AcDbSymbolTable
0
ENDTAB
0
TABLE
2
LTYPE
5
5
100
AcDbSymbolTable
0
LTYPE
5
14
100
AcDbSymbolTableRecord
100
AcDbLinetypeTableRecord
2
BYBLOCK
70
0
0
LTYPE
5
15
100
AcDbSymbolTableRecord
100
AcDbLinetypeTableRecord
2
BYLAYER
70
0
0
ENDTAB
0
TABLE
2
LAYER
5
2
100
AcDbSymbolTable
70
2
0
LAYER
5
50
100
AcDbSymbolTableRecord
100
AcDbLayerTableRecord
2
0
70
0
6
CONTINUOUS
0
ENDTAB
0
TABLE
2
STYLE
5
3
100
AcDbSymbolTable
70
1
0
STYLE
5
11
100
AcDbSymbolTableRecord
100
AcDbTextStyleTableRecord
2
STANDARD
70
0
0
ENDTAB
0
TABLE
2
VIEW
5
6
100
AcDbSymbolTable
70
0
0
ENDTAB
0
TABLE
2
UCS
5
7
100
AcDbSymbolTable
70
0
0
ENDTAB
0
TABLE
2
APPID
5
9
100
AcDbSymbolTable
70
2
0
APPID
5
12
100
AcDbSymbolTableRecord
100
AcDbRegAppTableRecord
2
ACAD
70
0
0
ENDTAB
0
TABLE
2
DIMSTYLE
5
A
100
AcDbSymbolTable
70
1
0
ENDTAB
0
TABLE
2
BLOCK_RECORD
5
1
100
AcDbSymbolTable
70
1
0
BLOCK_RECORD
5
1F
100
AcDbSymbolTableRecord
100
AcDbBlockTableRecord
2
*MODEL_SPACE
0
BLOCK_RECORD
5
1B
100
AcDbSymbolTableRecord
100
AcDbBlockTableRecord
2
*PAPER_SPACE
0
ENDTAB
0
ENDSEC
0
SECTION
2
BLOCKS
0
BLOCK
5
20
100
AcDbEntity
100
AcDbBlockBegin
2
*MODEL_SPACE
0
ENDBLK
5
21
100
AcDbEntity
100
AcDbBlockEnd
0
BLOCK
5
1C
100
AcDbEntity
100
AcDbBlockBegin
2
*PAPER_SPACE
0
ENDBLK
5
1D
100
AcDbEntity
100
AcDbBlockEnd
0
ENDSEC
0
SECTION
2
ENTITIES
0
LWPOLYLINE
5
100
100
AcDbEntity
8
0
100
AcDbPolyline
90
4
70
1
43
0.0
10
-20.951711578900756
20
112.24999950000552
10
-71.451711578900742
20
112.24999950000552
10
-71.451711578900756
20
104.24999950000552
10
-20.951711578900767
20
104.24999950000552
0
SPLINE
5
101
100
AcDbEntity
8
0
100
AcDbSpline
70
1064
71
3
72
20
73
16
74
0
42
0.000000001
43
0.0000000001
44
0.0000000001
40
-1
40
-1
40
-1
40
-1
40
-0.88025976760162394
40
-0.88025976760162394
40
-0.88025976760162394
40
-0.68399104163206192
40
-0.68399104163206192
40
-0.68399104163206192
40
-0.41737145921804231
40
-0.41737145921804231
40
-0.41737145921804231
40
-0.21742796573713671
40
-0.21742796573713671
40
-0.21742796573713671
40
0
40
0
40
0
40
0
10
19.316170967699421
20
101.02306051091274
30
0
10
18.945068755207867
20
101.37362177407257
30
0
10
18.635595856477241
20
101.74263644617257
30
0
10
18.401420608855958
20
102.14560876555112
30
0
10
18.017579049643651
20
102.80612914488603
30
0
10
17.87609819741289
20
103.58927439130727
30
0
10
17.99122049843395
20
104.28363094327037
30
0
10
18.147607409660633
20
105.22687369891726
30
0
10
18.640811492854517
20
105.959871753127
30
0
10
18.873144114875068
20
106.5092288497801
30
0
10
19.04737511349779
20
106.92120300441209
30
0
10
19.088930110534307
20
107.17673286569746
30
0
10
19.040163300568036
20
107.43075166122375
30
0
10
18.987131976058002
20
107.70698365561749
30
0
10
18.793152456731526
20
108.072480515135
30
0
10
18.316170967615669
20
108.52306051099184
30
0
0
LINE
5
102
100
AcDbEntity
8
0
100
AcDbLine
10
18.316170967615669
20
108.52306051099184
30
0
11
19.00287301818183
21
109.24999950000553
31
0
0
SPLINE
5
103
100
AcDbEntity
8
0
100
AcDbSpline
70
1064
71
5
72
26
73
20
74
0
42
0.000000001
43
0.0000000001
44
0.0000000001
40
0
40
0
40
0
40
0
40
0
40
0
40
0.066666666666666666
40
0.13333333333333333
40
0.20000000000000001
40
0.26666666666666666
40
0.33333333333333331
40
0.39999999999999997
40
0.46666666666666662
40
0.53333333333333333
40
0.59999999999999998
40
0.66666666666666663
40
0.73333333333333328
40
0.79999999999999993
40
0.86666666666666659
40
0.93333333333333324
40
1
40
1
40
1
40
1
40
1
40
1
10
19.00287301818183
20
109.24999950000553
30
0
10
19.108732464565776
20
109.14999950000238
30
0
10
19.307244015093808
20
108.94999949999689
30
0
10
19.565389555906357
20
108.64999949999132
30
0
10
19.829761781626484
20
108.24999949998762
30
0
10
20.025772768863156
20
107.74999949998821
30
0
10
20.089180179941298
20
107.24999949999417
30
0
10
20.028750706342443
20
106.7499995000049
30
0
10
19.864287078287017
20
106.24999950001822
30
0
10
19.631294080419089
20
105.74999950002949
30
0
10
19.374451955964958
20
105.24999950003374
30
0
10
19.141458958089995
20
104.74999950002699
30
0
10
18.976995330021861
20
104.24999950000779
30
0
10
18.916565856407676
20
103.7499994999793
30
0
10
18.979973267472456
20
103.24999949995096
30
0
10
19.175984254703032
20
102.7499994999358
30
0
10
19.440356480428246
20
102.34999949994481
30
0
10
19.698502021252096
20
102.04999949996818
30
0
10
19.897013571791359
20
101.84999949999175
30
0
10
20.00287301818183
20
101.74999950000553
30
0
0
LINE
5
104
100
AcDbEntity
8
0
100
AcDbLine
10
20.00287301818183
20
101.74999950000553
30
0
11
19.316170967699421
21
101.02306051091274
31
0
0
LINE
5
105
100
AcDbEntity
8
0
100
AcDbLine
10
16.658716018181828
20
97.999999500005529
30
0
11
15.853710686684654
21
97.406731924402578
31
0
0
SPLINE
5
106
100
AcDbEntity
8
0
100
AcDbSpline
70
1064
71
3
72
20
73
16
74
0
42
0.000000001
43
0.0000000001
44
0.0000000001
40
-1
40
-1
40
-1
40
-1
40
-0.97366034979987581
40
-0.97366034979987581
40
-0.97366034979987581
40
-0.73827180043296348
40
-0.73827180043296348
40
-0.73827180043296348
40
-0.47381321339254834
40
-0.47381321339254834
40
-0.47381321339254834
40
-0.24341058829573975
40
-0.24341058829573975
40
-0.24341058829573975
40
0
40
0
40
0
40
0
10
15.853710686687165
20
97.406731924399736
30
0
10
15.770954933869604
20
97.519023283255763
30
0
10
15.691901110927784
20
97.632054580585518
30
0
10
15.616617934967378
20
97.745895792321917
30
0
10
14.943837641895364
20
98.763256216063482
30
0
10
14.582645639266111
20
99.875471126177601
30
0
10
14.588309396060362
20
100.97029637872549
30
0
10
14.594672616035066
20
102.20033046544593
30
0
10
15.051212647468748
20
103.33365227977053
30
0
10
15.357097808190542
20
104.27925768345546
30
0
10
15.623592251790097
20
105.10309165214197
30
0
10
15.747351631465335
20
105.75770390270171
30
0
10
15.629993474611183
20
106.37919222044088
30
0
10
15.506009566054715
20
107.03576823374047
30
0
10
15.107985263228274
20
107.74697190205413
30
0
10
14.303001127048747
20
108.53573110787146
30
0
0
LINE
5
107
100
AcDbEntity
8
0
100
AcDbLine
10
14.303001127048748
20
108.53573110787146
30
0
11
15.002873018181832
21
109.24999950000553
31
0
0
SPLINE
5
108
100
AcDbEntity
8
0
100
AcDbSpline
70
1064
71
5
72
26
73
20
74
0
42
0.000000001
43
0.0000000001
44
0.0000000001
40
0
40
0
40
0
40
0
40
0
40
0
40
0.066666666666666666
40
0.13333333333333333
40
0.20000000000000001
40
0.26666666666666666
40
0.33333333333333331
40
0.39999999999999997
40
0.46666666666666662
40
0.53333333333333333
40
0.59999999999999998
40
0.66666666666666663
40
0.73333333333333328
40
0.79999999999999993
40
0.86666666666666659
40
0.93333333333333324
40
1
40
1
40
1
40
1
40
1
40
1
10
15.002873018181832
20
109.24999950000553
30
0
10
15.151354881903378
20
109.10451037588052
30
0
10
15.431921770065699
20
108.81309853202482
30
0
10
15.803582208310266
20
108.37467999403692
30
0
10
16.200028980637448
20
107.78750135906007
30
0
10
16.528397383397738
20
107.0490846123211
30
0
10
16.691028567184333
20
106.30619567919447
30
0
10
16.697191454038499
20
105.55894344109605
30
0
10
16.568545411983433
20
104.80767185167437
30
0
10
16.345257252261224
20
104.05309157663723
30
0
10
16.078999667547372
20
103.29614364831174
30
0
10
15.825403140768952
20
102.53785490377103
30
0
10
15.637007874157973
20
101.77920781170359
30
0
10
15.556127948362965
20
101.02101211631462
30
0
10
15.606950317354592
20
100.26376771630986
30
0
10
15.800522692583101
20
99.50773984644826
30
0
10
16.071816611579095
20
98.903976102448837
30
0
10
16.340203472705518
20
98.45175535569139
30
0
10
16.547771287133614
20
98.15054050994334
30
0
10
16.658716018181828
20
97.999999500005529
30
0
0
LINE
5
109
100
AcDbEntity
8
0
100
AcDbLine
10
8.0028730181818322
20
97.999999500005529
30
0
11
7.1858463768414103
21
97.423399580355849
31
0
0
SPLINE
5
110
100
AcDbEntity
8
0
100
AcDbSpline
70
1064
71
3
72
17
73
13
74
0
42
0.000000001
43
0.0000000001
44
0.0000000001
40
-1
40
-1
40
-1
40
-1
40
-0.77892264244763121
40
-0.77892264244763121
40
-0.77892264244763121
40
-0.53382580028607585
40
-0.53382580028607585
40
-0.53382580028607585
40
-0.28460643887186704
40
-0.28460643887186704
40
-0.28460643887186704
40
0
40
0
40
0
40
0
10
7.1858463768414094
20
97.423399580355863
30
0
10
6.5258451593084068
20
98.358603626810165
30
0
10
6.105809469731275
20
99.353602297057876
30
0
10
5.9854077548936786
20
100.36941636427342
30
0
10
5.851924704326005
20
101.49559600950839
30
0
10
6.1205731945167994
20
102.59774782673217
30
0
10
6.4265150691382402
20
103.55026512423628
30
0
10
6.7376028740670506
20
104.5188037252497
30
0
10
7.0262655549642563
20
105.34819734640182
30
0
10
7.0554433632237545
20
106.08760730959557
30
0
10
7.0887641776889687
20
106.93200734054336
30
0
10
6.8426003410126661
20
107.74279680475466
30
0
10
6.1858463767889882
20
108.67339958043016
30
0
0
LINE
5
111
100
AcDbEntity
8
0
100
AcDbLine
10
6.1858463767889882
20
108.67339958043013
30
0
11
7.0028730181818322
21
109.24999950000553
31
0
0
SPLINE
5
112
100
AcDbEntity
8
0
100
AcDbSpline
70
1064
71
5
72
26
73
20
74
0
42
0.000000001
43
0.0000000001
44
0.0000000001
40
0
40
0
40
0
40
0
40
0
40
0
40
0.066666666666666666
40
0.13333333333333333
40
0.20000000000000001
40
0.26666666666666666
40
0.33333333333333331
40
0.39999999999999997
40
0.46666666666666662
40
0.53333333333333333
40
0.59999999999999998
40
0.66666666666666663
40
0.73333333333333328
40
0.79999999999999993
40
0.86666666666666659
40
0.93333333333333324
40
1
40
1
40
1
40
1
40
1
40
1
10
7.0028730181818322
20
109.24999950000553
30
0
10
7.1087324645683196
20
109.09999949999764
30
0
10
7.307244015100717
20
108.79999949998393
30
0
10
7.5653895559175819
20
108.34999949996964
30
0
10
7.8297617816395482
20
107.74999949996149
30
0
10
8.0257727688737663
20
106.99999949996611
30
0
10
8.0891801799467835
20
106.24999949998235
30
0
10
8.0287507063421746
20
105.49999950000543
30
0
10
7.8642870782820982
20
104.74999950002896
30
0
10
7.6312940804116955
20
103.99999950004587
30
0
10
7.3744519559576736
20
103.24999950005002
30
0
10
7.1414589580853001
20
102.49999950003767
30
0
10
6.9769953300216692
20
101.74999950000819
30
0
10
6.9165658564127783
20
100.99999949996783
30
0
10
6.9799732674820696
20
100.24999949992946
30
0
10
7.1759842547145949
20
99.499999499910132
30
0
10
7.4403564804379663
20
98.899999499923382
30
0
10
7.6985020212579833
20
98.449999499955325
30
0
10
7.8970135717935195
20
98.149999499987061
30
0
10
8.0028730181818322
20
97.999999500005529
30
0
0
LWPOLYLINE
5
113
100
AcDbEntity
8
0
100
AcDbPolyline
90
8
70
1
43
0.0
10
-103.50215223498759
20
104.53786746564964
10
-96.784994947462252
20
111.25502475317495
42
0.41421356237316864
10
-96.784994947462252
20
111.53786746564955
10
-96.855705625580924
20
111.60857814376824
42
0.41421356237316864
10
-97.138548338055543
20
111.60857814376824
10
-103.85570562558087
20
104.89142085624292
42
0.41421356237316864
10
-103.85570562558085
20
104.60857814376828
10
-103.7849949474622
20
104.53786746564961
42
0.41421356237305823
0
LINE
5
114
100
AcDbEntity
8
0
100
AcDbLine
10
-105.99712698181817
20
93.999999500005515
30
0
11
-100.99712698181817
21
93.999999500005515
31
0
0
LINE
5
115
100
AcDbEntity
8
0
100
AcDbLine
10
-100.99712698181817
20
93.999999500005515
30
0
11
-100.99712698181817
21
93.749999500005515
31
0
0
LINE
5
116
100
AcDbEntity
8
0
100
AcDbLine
10
-100.99712698181817
20
93.749999500005515
30
0
11
-105.99712698181817
21
93.749999500005515
31
0
0
LINE
5
117
100
AcDbEntity
8
0
100
AcDbLine
10
-105.99712698181817
20
93.749999500005515
30
0
11
-105.9971269818182
21
-120.25000049999454
31
0
0
ARC
5
118
100
AcDbEntity
8
0
100
AcDbCircle
10
-101.99712698181818
20
-120.2500004999945
30
0
40
4.0000000000000213
100
AcDbArc
50
180
51
269.99999999999983
0
LINE
5
119
100
AcDbEntity
8
0
100
AcDbLine
10
-101.9971269818182
20
-124.25000049999453
30
0
11
-81.366291832540085
21
-124.25000049999453
31
0
0
ARC
5
120
100
AcDbEntity
8
0
100
AcDbCircle
10
-81.366291832540128
20
-119.25000049999447
30
0
40
5.0000000000000533
100
AcDbArc
50
270.00000000000051
51
314.99999999999955
0
LINE
5
121
100
AcDbEntity
8
0
100
AcDbLine
10
-77.830757926607376
20
-122.78553440592728
30
0
11
-76.146175501246404
21
-121.10095198056629
31
0
0
ARC
5
122
100
AcDbEntity
8
0
100
AcDbCircle
10
-74.997126981818212
20
-122.25000049999448
30
0
40
1.6250000000000662
100
AcDbArc
50
90.101339037023706
51
135
0
LINE
5
123
100
AcDbEntity
8
0
100
AcDbLine
10
-75.00000111758709
20
-120.62500049999441
30
0
11
75.002873018181816
21
-120.62500049999443
31
0
0
ARC
5
124
100
AcDbEntity
8
0
100
AcDbCircle
10
75.002873018181816
20
-122.25000049999451
30
0
40
1.6250000000000848
100
AcDbArc
50
44.999999999999638
51
90
0
LINE
5
125
100
AcDbEntity
8
0
100
AcDbLine
10
76.151921537610022
20
-121.10095198056632
30
0
11
77.836503962971008
21
-122.78553440592728
31
0
0
ARC
5
126
100
AcDbEntity
8
0
100
AcDbCircle
10
81.372037868903746
20
-119.25000049999457
30
0
40
4.9999999999999716
100
AcDbArc
50
224.99999999999977
51
270
0
LINE
5
127
100
AcDbEntity
8
0
100
AcDbLine
10
81.372037868903746
20
-124.25000049999454
30
0
11
102.00287301818182
21
-124.25000049999454
31
0
0
ARC
5
128
100
AcDbEntity
8
0
100
AcDbCircle
10
102.00287301818179
20
-120.25000049999451
30
0
40
4.0000000000000213
100
AcDbArc
50
270.0000000000004
51
360
0
LINE
5
129
100
AcDbEntity
8
0
100
AcDbLine
10
106.00287301818182
20
-120.25000049999454
30
0
11
106.00287301818183
21
93.749999500005515
31
0
0
LINE
5
130
100
AcDbEntity
8
0
100
AcDbLine
10
106.00287301818183
20
93.749999500005515
30
0
11
101.00287301818183
21
93.749999500005515
31
0
0
LINE
5
131
100
AcDbEntity
8
0
100
AcDbLine
10
101.00287301818183
20
93.749999500005515
30
0
11
101.00287301818183
21
93.999999500005515
31
0
0
LINE
5
132
100
AcDbEntity
8
0
100
AcDbLine
10
101.00287301818183
20
93.999999500005515
30
0
11
106.00287301818183
21
93.999999500005515
31
0
0
LINE
5
133
100
AcDbEntity
8
0
100
AcDbLine
10
106.00287301818183
20
93.999999500005515
30
0
11
106.00287301818183
21
103.74999950000557
31
0
0
ARC
5
134
100
AcDbEntity
8
0
100
AcDbCircle
10
96.002873018181916
20
103.7499995000056
30
0
40
9.9999999999999112
100
AcDbArc
50
0
51
90.000000000000242
0
LINE
5
135
100
AcDbEntity
8
0
100
AcDbLine
10
96.002873018181873
20
113.74999950000552
30
0
11
-95.997126981818212
21
113.74999950000552
31
0
0
ARC
5
136
100
AcDbEntity
8
0
100
AcDbCircle
10
-95.997126981818184
20
103.74999950000552
30
0
40
10
100
AcDbArc
50
90.000000000000171
51
180
0
LINE
5
137
100
AcDbEntity
8
0
100
AcDbLine
10
-105.99712698181818
20
103.74999950000556
30
0
11
-105.99712698181817
21
93.999999500005515
31
0
0
LINE
5
138
100
AcDbEntity
8
0
100
AcDbLine
10
68.6907246760493
20
106.51456989595202
30
0
11
67.139308755791731
21
106.51456989595202
31
0
0
SPLINE
5
139
100
AcDbEntity
8
0
100
AcDbSpline
70
1064
71
3
72
9
73
5
74
0
42
0.000000001
43
0.0000000001
44
0.0000000001
40
0
40
0
40
0
40
0
40
0.050580471668049624
40
0.085880821542163741
40
0.085880821542163741
40
0.085880821542163741
40
0.085880821542163741
10
67.139308755791731
20
106.51456989595202
30
0
10
66.969868928453565
20
106.51480459155721
30
0
10
66.682176246003621
20
106.5152030823328
30
0
10
66.403457673654572
20
106.58446472754065
30
0
10
66.288893525994368
20
106.61293395110873
30
0
0
SPLINE
5
140
100
AcDbEntity
8
0
100
AcDbSpline
70
1064
71
3
72
9
73
5
74
0
42
0.000000001
43
0.0000000001
44
0.0000000001
40
0
40
0
40
0
40
0
40
0.027509339783334905
40
0.055793502084868593
40
0.055793502084868593
40
0.055793502084868593
40
0.055793502084868593
10
66.288893525994368
20
106.61293395110873
30
0
10
66.204542360012965
20
106.65267191487385
30
0
10
66.033464210115113
20
106.73326709387993
30
0
10
65.921213148104385
20
106.88559191905409
30
0
10
65.864308183587141
20
106.96281202384738
30
0
0
SPLINE
5
141
100
AcDbEntity
8
0
100
AcDbSpline
70
1064
71
3
72
9
73
5
74
0
42
0.000000001
43
0.0000000001
44
0.0000000001
40
0
40
0
40
0
40
0
40
0.029487966275505529
40
0.060314172882047878
40
0.060314172882047878
40
0.060314172882047878
40
0.060314172882047878
10
65.864308183587141
20
106.96281202384738
30
0
10
65.817831293049494
20
107.05080706882639
30
0
10
65.722768270231398
20
107.23079060197485
30
0
10
65.710966641039988
20
107.43413041295835
30
0
10
65.704934900200911
20
107.53805615255145
30
0
0
SPLINE
5
142
100
AcDbEntity
8
0
100
AcDbSpline
70
1064
71
3
72
9
73
5
74
0
42
0.000000001
43
0.0000000001
44
0.0000000001
40
0
40
0
40
0
40
0
40
0.037992136517949839
40
0.073337743458506577
40
0.073337743458506577
40
0.073337743458506577
40
0.073337743458506577
10
65.704934900200911
20
107.53805615255145
30
0
10
65.713464540318981
20
107.66730612940208
30
0
10
65.72992964641999
20
107.91680253873957
30
0
10
65.876058526368055
20
108.11913124986425
30
0
10
65.946486299431868
20
108.21664490052966
30
0
0
SPLINE
5
143
100
AcDbEntity
8
0
100
AcDbSpline
70
1064
71
3
72
9
73
5
74
0
42
0.000000001
43
0.0000000001
44
0.0000000001
40
0
40
0
40
0
40
0
40
0.037203061468621082
40
0.080944068050917806
40
0.080944068050917806
40
0.080944068050917806
40
0.080944068050917806
10
65.946486299431868
20
108.21664490052966
30
0
10
66.042587922401893
20
108.29832809802514
30
0
10
66.25167975523533
20
108.47604923267609
30
0
10
66.522374342005975
20
108.5267004018859
30
0
10
66.66865379134471
20
108.55407156297473
30
0
0
SPLINE
5
144
100
AcDbEntity
8
0
100
AcDbSpline
70
1064
71
3
72
9
73
5
74
0
42
0.000000001
43
0.0000000001
44
0.0000000001
40
0
40
0
40
0
40
0
40
0.026271420994146061
40
0.050093557842187483
40
0.050093557842187483
40
0.050093557842187483
40
0.050093557842187483
10
66.66865379134471
20
108.55407156297473
30
0
10
66.593857871177363
20
108.60020365306698
30
0
10
66.451239253246598
20
108.68816693925288
30
0
10
66.331089430588904
20
108.80487143298205
30
0
10
66.273951833642073
20
108.86037059375552
30
0
0
SPLINE
5
145
100
AcDbEntity
8
0
100
AcDbSpline
70
1064
71
3
72
9
73
5
74
0
42
0.000000001
43
0.0000000001
44
0.0000000001
40
0
40
0
40
0
40
0
40
0.029499480053711731
40
0.072684583960474697
40
0.072684583960474697
40
0.072684583960474697
40
0.072684583960474697
10
66.273951833642073
20
108.86037059375552
30
0
10
66.211630343627974
20
108.93654897700451
30
0
10
66.058074702470122
20
109.124247000263
30
0
10
65.930277177987492
20
109.33050152577741
30
0
10
65.854347055352278
20
109.45304639884738
30
0
0
LINE
5
146
100
AcDbEntity
8
0
100
AcDbLine
10
65.854347055352278
20
109.45304639884738
30
0
11
65.408594911492415
21
110.1652533585718
31
0
0
LINE
5
147
100
AcDbEntity
8
0
100
AcDbLine
10
65.408594911492415
20
110.1652533585718
30
0
11
66.290138070977278
21
110.1652533585718
31
0
0
LINE
5
148
100
AcDbEntity
8
0
100
AcDbLine
10
66.290138070977278
20
110.1652533585718
30
0
11
66.8230488947993
21
109.37086858102587
31
0
0
SPLINE
5
149
100
AcDbEntity
8
0
100
AcDbSpline
70
1064
71
3
72
9
73
5
74
0
42
0.000000001
43
0.0000000001
44
0.0000000001
40
0
40
0
40
0
40
0
40
0.042144156387857595
40
0.066281494470712035
40
0.066281494470712035
40
0.066281494470712035
40
0.066281494470712035
10
66.8230488947993
20
109.37086858102587
30
0
10
66.900424248383189
20
109.25347165205515
30
0
10
67.022115000086501
20
109.06883765851072
30
0
10
67.160962481094344
20
108.89685341163863
30
0
10
67.211525743401594
20
108.83422293016223
30
0
0
SPLINE
5
150
100
AcDbEntity
8
0
100
AcDbSpline
70
1064
71
3
72
9
73
5
74
0
42
0.000000001
43
0.0000000001
44
0.0000000001
40
0
40
0
40
0
40
0
40
0.014254913710371877
40
0.027062842157594455
40
0.027062842157594455
40
0.027062842157594455
40
0.027062842157594455
10
67.211525743401594
20
108.83422293016223
30
0
10
67.245749871341673
20
108.80061478984462
30
0
10
67.310724110487712
20
108.73680999838074
30
0
10
67.393826517802339
20
108.69982327215442
30
0
10
67.43315607825572
20
108.6823187048128
30
0
0
SPLINE
5
151
100
AcDbEntity
8
0
100
AcDbSpline
70
1064
71
3
72
9
73
5
74
0
42
0.000000001
43
0.0000000001
44
0.0000000001
40
0
40
0
40
0
40
0
40
0.015438816440587956
40
0.037439162571656803
40
0.037439162571656803
40
0.037439162571656803
40
0.037439162571656803
10
67.43315607825572
20
108.6823187048128
30
0
10
67.483381243682786
20
108.67042400504377
30
0
10
67.60517737623276
20
108.64157933290797
30
0
10
67.730536353588093
20
108.64135926389653
30
0
10
67.804200952447005
20
108.64122994491366
30
0
0
LINE
5
152
100
AcDbEntity
8
0
100
AcDbLine
10
67.804200952447005
20
108.64122994491366
30
0
11
67.953615491784163
21
108.64122994491366
31
0
0
LINE
5
153
100
AcDbEntity
8
0
100
AcDbLine
10
67.953615491784163
20
108.64122994491366
30
0
11
67.953615491784163
21
110.1652533585718
31
0
0
LINE
5
154
100
AcDbEntity
8
0
100
AcDbLine
10
67.953615491784163
20
110.1652533585718
30
0
11
68.6907246760493
21
110.1652533585718
31
0
0
LINE
5
155
100
AcDbEntity
8
0
100
AcDbLine
10
68.6907246760493
20
110.1652533585718
30
0
11
68.6907246760493
21
106.51456989595202
31
0
0
LWPOLYLINE
5
156
100
AcDbEntity
8
0
100
AcDbPolyline
90
10
70
1
43
0.0
10
-7.2600461565490075
20
97.358905690400874
10
-6.4162961789007475
20
97.358905690400874
10
-6.4162961789007475
20
101.65382774421481
10
-7.2219602786536523
20
101.65382774421481
10
-7.2219602786536523
20
98.853046315400874
10
-8.9534057699675866
20
101.65382774421481
10
-9.8235230170722314
20
101.65382774421481
10
-9.8235230170722314
20
97.358905690400874
10
-9.0178589545722314
20
97.358905690400874
10
-9.0178589545722314
20
100.22706987211016
0
LINE
5
157
100
AcDbEntity
8
0
100
AcDbLine
10
-15.609655531549008
20
97.358905690400874
30
0
11
-15.609655531549008
21
99.685077684610164
31
0
0
SPLINE
5
158
100
AcDbEntity
8
0
100
AcDbSpline
70
1064
71
3
72
9
73
5
74
0
42
0.000000001
43
0.0000000001
44
0.0000000001
40
0
40
0
40
0
40
0
40
0.045636971234635636
40
0.071895931313039757
40
0.071895931313039757
40
0.071895931313039757
40
0.071895931313039757
10
-15.609655531549008
20
99.685077684610164
30
0
10
-15.60874939189201
20
99.837374654914797
30
0
10
-15.607321870459781
20
100.07730145592686
30
0
10
-15.632636693885917
20
100.31575820634549
30
0
10
-15.641882570886166
20
100.40285112211016
30
0
0
SPLINE
5
159
100
AcDbEntity
8
0
100
AcDbSpline
70
1064
71
3
72
9
73
5
74
0
42
0.000000001
43
0.0000000001
44
0.0000000001
40
0
40
0
40
0
40
0
40
0.02556270702346668
40
0.050805737029256892
40
0.050805737029256892
40
0.050805737029256892
40
0.050805737029256892
10
-15.641882570886166
20
100.40285112211016
30
0
10
-15.666623797461474
20
100.48623830792287
30
0
10
-15.715796846701233
20
100.65196987266373
30
0
10
-15.843546175968065
20
100.76836142533764
30
0
10
-15.907018932008295
20
100.82619102546481
30
0
0
SPLINE
5
160
100
AcDbEntity
8
0
100
AcDbSpline
70
1064
71
3
72
9
73
5
74
0
42
0.000000001
43
0.0000000001
44
0.0000000001
40
0
40
0
40
0
40
0
40
0.027533087881269912
40
0.060260293222970135
40
0.060260293222970135
40
0.060260293222970135
40
0.060260293222970135
10
-15.907018932008295
20
100.82619102546481
30
0
10
-15.987730135113305
20
100.87266989214548
30
0
10
-16.164378711054372
20
100.9743958644348
30
0
10
-16.368768777769986
20
100.98182455285261
30
0
10
-16.479772480630427
20
100.98585905381945
30
0
0
SPLINE
5
161
100
AcDbEntity
8
0
100
AcDbSpline
70
1064
71
3
72
9
73
5
74
0
42
0.000000001
43
0.0000000001
44
0.0000000001
40
0
40
0
40
0
40
0
40
0.032592079102977685
40
0.058486483186131498
40
0.058486483186131498
40
0.058486483186131498
40
0.058486483186131498
10
-16.479772480630427
20
100.98585905381945
30
0
10
-16.590522676822626
20
100.98301067150541
30
0
10
-16.78926389449671
20
100.97789924968444
30
0
10
-16.960569134927614
20
100.87883839709727
30
0
10
-17.036413105630427
20
100.83498002836016
30
0
0
SPLINE
5
162
100
AcDbEntity
8
0
100
AcDbSpline
70
1064
71
3
72
9
73
5
74
0
42
0.000000001
43
0.0000000001
44
0.0000000001
40
0
40
0
40
0
40
0
40
0.022538595471779794
40
0.044149479258511537
40
0.044149479258511537
40
0.044149479258511537
40
0.044149479258511537
10
-17.036413105630427
20
100.83498002836016
30
0
10
-17.092543420690937
20
100.78261838577623
30
0
10
-17.202493669527005
20
100.68005035947239
30
0
10
-17.242443581753168
20
100.53525240038134
30
0
10
-17.261998804711848
20
100.4643747384241
30
0
0
SPLINE
5
163
100
AcDbEntity
8
0
100
AcDbSpline
70
1064
71
3
72
9
73
5
74
0
42
0.000000001
43
0.0000000001
44
0.0000000001
40
0
40
0
40
0
40
0
40
0.029362894446081055
40
0.073098871842735974
40
0.073098871842735974
40
0.073098871842735974
40
0.073098871842735974
10
-17.261998804711848
20
100.4643747384241
30
0
10
-17.273004808686835
20
100.36705124960854
30
0
10
-17.300404235386587
20
100.12476460279035
30
0
10
-17.300205236354952
20
99.880830990150315
30
0
10
-17.300086172723322
20
99.734882431714809
30
0
0
LINE
5
164
100
AcDbEntity
8
0
100
AcDbLine
10
-17.300086172723326
20
99.734882431714809
30
0
11
-17.300086172723322
21
97.358905690400874
31
0
0
LINE
5
165
100
AcDbEntity
8
0
100
AcDbLine
10
-17.300086172723322
20
97.358905690400874
30
0
11
-18.167272957467585
21
97.358905690400874
31
0
0
LINE
5
166
100
AcDbEntity
8
0
100
AcDbLine
10
-18.167272957467585
20
97.358905690400874
30
0
11
-18.167272957467585
21
99.614765363424098
31
0
0
SPLINE
5
167
100
AcDbEntity
8
0
100
AcDbSpline
70
1064
71
3
72
9
73
5
74
0
42
0.000000001
43
0.0000000001
44
0.0000000001
40
0
40
0
40
0
40
0
40
0.066014628285585408
40
0.10962080213354422
40
0.10962080213354422
40
0.10962080213354422
40
0.10962080213354422
10
-18.167272957467585
20
99.614765363424098
30
0
10
-18.167662582766479
20
99.835198930162306
30
0
10
-18.168309576302683
20
100.2012405944199
30
0
10
-18.117264869618158
20
100.56345363573553
30
0
10
-18.096959742211848
20
100.70753874131945
30
0
0
SPLINE
5
168
100
AcDbEntity
8
0
100
AcDbSpline
70
1064
71
3
72
9
73
5
74
0
42
0.000000001
43
0.0000000001
44
0.0000000001
40
0
40
0
40
0
40
0
40
0.031094385473451509
40
0.060286900522888695
40
0.060286900522888695
40
0.060286900522888695
40
0.060286900522888695
10
-18.096959742211848
20
100.70753874131945
30
0
10
-18.069626807722329
20
100.80859456761358
30
0
10
-18.016632742154609
20
101.00452519799228
30
0
10
-17.896065141447934
20
101.16762420204317
30
0
10
-17.837683113717585
20
101.24660106250552
30
0
0
SPLINE
5
169
100
AcDbEntity
8
0
100
AcDbSpline
70
1064
71
3
72
9
73
5
74
0
42
0.000000001
43
0.0000000001
44
0.0000000001
40
0
40
0
40
0
40
0
40
0.029618570840432731
40
0.061911985886252074
40
0.061911985886252074
40
0.061911985886252074
40
0.061911985886252074
10
-17.837683113717585
20
101.24660106250552
30
0
10
-17.767275917901152
20
101.3169678733087
30
0
10
-17.620103073635253
20
101.46405630038973
30
0
10
-17.430966193195566
20
101.55122940929836
30
0
10
-17.332312019967585
20
101.59669907638339
30
0
0
SPLINE
5
170
100
AcDbEntity
8
0
100
AcDbSpline
70
1064
71
3
72
9
73
5
74
0
42
0.000000001
43
0.0000000001
44
0.0000000001
40
0
40
0
40
0
40
0
40
0.037762421222180424
40
0.084019967203784698
40
0.084019967203784698
40
0.084019967203784698
40
0.084019967203784698
10
-17.332312019967585
20
101.59669907638339
30
0
10
-17.211624451468253
20
101.6346229035541
30
0
10
-16.943099149884503
20
101.71900199292386
30
0
10
-16.661291028644484
20
101.72420525430061
30
0
10
-16.506140383386164
20
101.72706993171481
30
0
0
SPLINE
5
171
100
AcDbEntity
8
0
100
AcDbSpline
70
1064
71
3
72
9
73
5
74
0
42
0.000000001
43
0.0000000001
44
0.0000000001
40
0
40
0
40
0
40
0
40
0.054205887149077418
40
0.094849093509894261
40
0.094849093509894261
40
0.094849093509894261
40
0.094849093509894261
10
-16.506140383386164
20
101.72706993171481
30
0
10
-16.324147077097201
20
101.72538323652645
30
0
10
-16.0056964247003
20
101.72243186873123
30
0
10
-15.702818716572708
20
101.62621115720324
30
0
10
-15.573034437799006
20
101.5849802071741
30
0
0
SPLINE
5
172
100
AcDbEntity
8
0
100
AcDbSpline
70
1064
71
3
72
9
73
5
74
0
42
0.000000001
43
0.0000000001
44
0.0000000001
40
0
40
0
40
0
40
0
40
0.032809003748540157
40
0.062781758922486275
40
0.062781758922486275
40
0.062781758922486275
40
0.062781758922486275
10
-15.573034437799006
20
101.5849802071741
30
0
10
-15.474176504575523
20
101.53593321726996
30
0
10
-15.28500663587787
20
101.44207921549544
30
0
10
-15.139878705102987
20
101.28894668623246
30
0
10
-15.070592912339716
20
101.21583940336016
30
0
0
SPLINE
5
173
100
AcDbEntity
8
0
100
AcDbSpline
70
1064
71
3
72
9
73
5
74
0
42
0.000000001
43
0.0000000001
44
0.0000000001
40
0
40
0
40
0
40
0
40
0.027840431821582499
40
0.05380632852487556
40
0.05380632852487556
40
0.05380632852487556
40
0.05380632852487556
10
-15.070592912339716
20
101.21583940336016
30
0
10
-15.014696509508996
20
101.14078830139061
30
0
10
-14.906667286638356
20
100.99573939286046
30
0
10
-14.853221239378826
20
100.82308490937807
30
0
10
-14.827429207467587
20
100.73976518461016
30
0
0
SPLINE
5
174
100
AcDbEntity
8
0
100
AcDbSpline
70
1064
71
3
72
9
73
5
74
0
42
0.000000001
43
0.0000000001
44
0.0000000001
40
0
40
0
40
0
40
0
40
0.046145214845626899
40
0.10946208872410101
40
0.10946208872410101
40
0.10946208872410101
40
0.10946208872410101
10
-14.827429207467587
20
100.73976518461016
30
0
10
-14.802799440162911
20
100.58771372971792
30
0
10
-14.74437462227058
20
100.22702909748197
30
0
10
-14.743166799566447
20
99.861409257140707
30
0
10
-14.742468150758297
20
99.649921375005519
30
0
0
LINE
5
175
100
AcDbEntity
8
0
100
AcDbLine
10
-14.742468150758297
20
99.649921375005519
30
0
11
-14.742468150758297
21
97.358905690400874
31
0
0
LINE
5
176
100
AcDbEntity
8
0
100
AcDbLine
10
-14.742468150758297
20
97.358905690400874
30
0
11
-15.609655531549008
21
97.358905690400874
31
0
0
LWPOLYLINE
5
177
100
AcDbEntity
8
0
100
AcDbPolyline
90
4
70
1
43
0.0
10
-23.593055161141905
20
97.358905690400874
10
-22.725867184304747
20
97.358905690400874
10
-22.725867184304747
20
101.65382774421481
10
-23.593055161141905
20
101.65382774421481
0
LINE
5
178
100
AcDbEntity
8
0
100
AcDbLine
10
-28.623330744409117
20
97.358905690400874
30
0
11
-28.623330744409117
21
99.685077684610164
31
0
0
SPLINE
5
179
100
AcDbEntity
8
0
100
AcDbSpline
70
1064
71
3
72
9
73
5
74
0
42
0.000000001
43
0.0000000001
44
0.0000000001
40
0
40
0
40
0
40
0
40
0.045636970182412986
40
0.071895935747243581
40
0.071895935747243581
40
0.071895935747243581
40
0.071895935747243581
10
-28.623330744409117
20
99.685077684610164
30
0
10
-28.62242423475471
20
99.837374666051346
30
0
10
-28.620996130312051
20
100.07730150493721
30
0
10
-28.646311650794569
20
100.31575821006282
30
0
10
-28.655557783746275
20
100.40285112211016
30
0
0
SPLINE
5
180
100
AcDbEntity
8
0
100
AcDbSpline
70
1064
71
3
72
9
73
5
74
0
42
0.000000001
43
0.0000000001
44
0.0000000001
40
0
40
0
40
0
40
0
40
0.02556270702346668
40
0.05080569664736094
40
0.05080569664736094
40
0.05080569664736094
40
0.05080569664736094
10
-28.655557783746275
20
100.40285112211016
30
0
10
-28.680299032434622
20
100.48623828600938
30
0
10
-28.729472086539687
20
100.65196967546895
30
0
10
-28.85722103371446
20
100.76836139097881
30
0
10
-28.920693548821959
20
100.82619102546481
30
0
0
SPLINE
5
181
100
AcDbEntity
8
0
100
AcDbSpline
70
1064
71
3
72
9
73
5
74
0
42
0.000000001
43
0.0000000001
44
0.0000000001
40
0
40
0
40
0
40
0
40
0.027533034209579605
40
0.060260239551279821
40
0.060260239551279821
40
0.060260239551279821
40
0.060260239551279821
10
-28.920693548821959
20
100.82619102546481
30
0
10
-29.001404550465438
20
100.87266989018354
30
0
10
-29.178052872493367
20
100.97439596587515
30
0
10
-29.382442783976501
20
100.98182458622617
30
0
10
-29.493446501397642
20
100.98585905381945
30
0
0
SPLINE
5
182
100
AcDbEntity
8
0
100
AcDbSpline
70
1064
71
3
72
9
73
5
74
0
42
0.000000001
43
0.0000000001
44
0.0000000001
40
0
40
0
40
0
40
0
40
0.032591960694739491
40
0.058486472001984327
40
0.058486472001984327
40
0.058486472001984327
40
0.058486472001984327
10
-29.493446501397642
20
100.98585905381945
30
0
10
-29.60419625203798
20
100.98301053520063
30
0
10
-29.80293735419874
20
100.97789885118729
30
0
10
-29.974242755784726
20
100.87883840649914
30
0
10
-30.050087126397642
20
100.83498002836016
30
0
0
SPLINE
5
183
100
AcDbEntity
8
0
100
AcDbSpline
70
1064
71
3
72
9
73
5
74
0
42
0.000000001
43
0.0000000001
44
0.0000000001
40
0
40
0
40
0
40
0
40
0.022538516057078285
40
0.044149483070742908
40
0.044149483070742908
40
0.044149483070742908
40
0.044149483070742908
10
-30.050087126397642
20
100.83498002836016
30
0
10
-30.106216758517519
20
100.78261824000774
30
0
10
-30.216166066482948
20
100.68004955790968
30
0
10
-30.256117819790695
20
100.53525231611097
30
0
10
-30.275674017571959
20
100.4643747384241
30
0
0
SPLINE
5
184
100
AcDbEntity
8
0
100
AcDbSpline
70
1064
71
3
72
9
73
5
74
0
42
0.000000001
43
0.0000000001
44
0.0000000001
40
0
40
0
40
0
40
0
40
0.029362871253107017
40
0.073098848649761947
40
0.073098848649761947
40
0.073098848649761947
40
0.073098848649761947
10
-30.275674017571959
20
100.4643747384241
30
0
10
-30.286679066838758
20
100.36705123404316
30
0
10
-30.314076129741885
20
100.12476443397232
30
0
10
-30.313877715299693
20
99.880830955927294
30
0
10
-30.313759001397642
20
99.734882431714809
30
0
0
LINE
5
185
100
AcDbEntity
8
0
100
AcDbLine
10
-30.313759001397642
20
99.734882431714809
30
0
11
-30.313759001397642
21
97.358905690400874
31
0
0
LINE
5
186
100
AcDbEntity
8
0
100
AcDbLine
10
-30.313759001397642
20
97.358905690400874
30
0
11
-31.1809469782348
21
97.358905690400874
31
0
0
LINE
5
187
100
AcDbEntity
8
0
100
AcDbLine
10
-31.1809469782348
20
97.358905690400874
30
0
11
-31.1809469782348
21
99.614765363424098
31
0
0
SPLINE
5
188
100
AcDbEntity
8
0
100
AcDbSpline
70
1064
71
3
72
9
73
5
74
0
42
0.000000001
43
0.0000000001
44
0.0000000001
40
0
40
0
40
0
40
0
40
0.066014631459823586
40
0.10962077647490245
40
0.10962077647490245
40
0.10962077647490245
40
0.10962077647490245
10
-31.1809469782348
20
99.614765363424098
30
0
10
-31.18133573170093
20
99.835198883641581
30
0
10
-31.181981277330308
20
100.20124036736996
30
0
10
-31.130939076857072
20
100.56345361515065
30
0
10
-31.110634955071959
20
100.70753874131945
30
0
0
SPLINE
5
189
100
AcDbEntity
8
0
100
AcDbSpline
70
1064
71
3
72
9
73
5
74
0
42
0.000000001
43
0.0000000001
44
0.0000000001
40
0
40
0
40
0
40
0
40
0.031094423801904813
40
0.060286938851342002
40
0.060286938851342002
40
0.060286938851342002
40
0.060286938851342002
10
-31.110634955071959
20
100.70753874131945
30
0
10
-31.083301542299147
20
100.80859454174134
30
0
10
-31.030306581050446
20
101.00452500501093
30
0
10
-30.909739077872036
20
101.16762417291304
30
0
10
-30.8513571344848
20
101.24660106250552
30
0
0
SPLINE
5
190
100
AcDbEntity
8
0
100
AcDbSpline
70
1064
71
3
72
9
73
5
74
0
42
0.000000001
43
0.0000000001
44
0.0000000001
40
0
40
0
40
0
40
0
40
0.029618570840432731
40
0.061911985886252074
40
0.061911985886252074
40
0.061911985886252074
40
0.061911985886252074
10
-30.8513571344848
20
101.24660106250552
30
0
10
-30.780949938668371
20
101.3169678733087
30
0
10
-30.633777094402468
20
101.46405630038976
30
0
10
-30.444640213962771
20
101.55122940929837
30
0
10
-30.3459860407348
20
101.59669907638339
30
0
0
SPLINE
5
191
100
AcDbEntity
8
0
100
AcDbSpline
70
1064
71
3
72
9
73
5
74
0
42
0.000000001
43
0.0000000001
44
0.0000000001
40
0
40
0
40
0
40
0
40
0.037762306078373144
40
0.084019852059977418
40
0.084019852059977418
40
0.084019852059977418
40
0.084019852059977418
10
-30.3459860407348
20
101.59669907638339
30
0
10
-30.225298871358053
20
101.63462290068168
30
0
10
-29.956774007025704
20
101.71900212531054
30
0
10
-29.674966252327284
20
101.7242052987752
30
0
10
-29.519815596246275
20
101.72706993171481
30
0
0
SPLINE
5
192
100
AcDbEntity
8
0
100
AcDbSpline
70
1064
71
3
72
9
73
5
74
0
42
0.000000001
43
0.0000000001
44
0.0000000001
40
0
40
0
40
0
40
0
40
0.054205827672557591
40
0.094849091552641374
40
0.094849091552641374
40
0.094849091552641374
40
0.094849091552641374
10
-29.519815596246275
20
101.72706993171481
30
0
10
-29.337822497774397
20
101.72538319158176
30
0
10
-29.01937186617107
20
101.72243174196508
30
0
10
-28.716494128461079
20
101.62621116062083
30
0
10
-28.586709650659117
20
101.5849802071741
30
0
0
SPLINE
5
193
100
AcDbEntity
8
0
100
AcDbSpline
70
1064
71
3
72
9
73
5
74
0
42
0.000000001
43
0.0000000001
44
0.0000000001
40
0
40
0
40
0
40
0
40
0.032808952054620914
40
0.062781707228567046
40
0.062781707228567046
40
0.062781707228567046
40
0.062781707228567046
10
-28.586709650659117
20
101.5849802071741
30
0
10
-28.487851938316282
20
101.53593318229439
30
0
10
-28.298682349989875
20
101.44207904299408
30
0
10
-28.153554521991914
20
101.28894667123438
30
0
10
-28.084268721246275
20
101.21583940336016
30
0
0
SPLINE
5
194
100
AcDbEntity
8
0
100
AcDbSpline
70
1064
71
3
72
9
73
5
74
0
42
0.000000001
43
0.0000000001
44
0.0000000001
40
0
40
0
40
0
40
0
40
0.027840464594264314
40
0.053806402656989868
40
0.053806402656989868
40
0.053806402656989868
40
0.053806402656989868
10
-28.084268721246275
20
101.21583940336016
30
0
10
-28.028372176070508
20
101.14078829153654
30
0
10
-27.920342656423713
20
100.99573933486542
30
0
10
-27.866895702993794
20
100.82308490258785
30
0
10
-27.8411032282348
20
100.73976518461016
30
0
0
SPLINE
5
195
100
AcDbEntity
8
0
100
AcDbSpline
70
1064
71
3
72
9
73
5
74
0
42
0.000000001
43
0.0000000001
44
0.0000000001
40
0
40
0
40
0
40
0
40
0.046145231307134119
40
0.10946209918741433
40
0.10946209918741433
40
0.10946209918741433
40
0.10946209918741433
10
-27.8411032282348
20
100.73976518461016
30
0
10
-27.81647288785144
20
100.58771374442341
30
0
10
-27.7580467258041
20
100.22702924126135
30
0
10
-27.756840495275039
20
99.861409284330009
30
0
10
-27.756142767571959
20
99.649921375005519
30
0
0
LINE
5
196
100
AcDbEntity
8
0
100
AcDbLine
10
-27.756142767571959
20
99.649921375005519
30
0
11
-27.756142767571959
21
97.358905690400874
31
0
0
LINE
5
197
100
AcDbEntity
8
0
100
AcDbLine
10
-27.756142767571959
20
97.358905690400874
30
0
11
-28.623330744409117
21
97.358905690400874
31
0
0
LINE
5
198
100
AcDbEntity
8
0
100
AcDbLine
10
-65.692663344049009
20
97.358905690400874
30
0
11
-67.517857702874693
21
97.358905690400874
31
0
0
SPLINE
5
199
100
AcDbEntity
8
0
100
AcDbSpline
70
1064
71
3
72
9
73
5
74
0
42
0.000000001
43
0.0000000001
44
0.0000000001
40
0
40
0
40
0
40
0
40
0.059506213490158076
40
0.10103642556097447
40
0.10103642556097447
40
0.10103642556097447
40
0.10103642556097447
10
-67.517857702874693
20
97.358905690400874
30
0
10
-67.717197898487242
20
97.359182014257385
30
0
10
-68.055660382554549
20
97.359651188367437
30
0
10
-68.38356523343279
20
97.441135098694062
30
0
10
-68.518347891473326
20
97.474628406255519
30
0
0
SPLINE
5
200
100
AcDbEntity
8
0
100
AcDbSpline
70
1064
71
3
72
9
73
5
74
0
42
0.000000001
43
0.0000000001
44
0.0000000001
40
0
40
0
40
0
40
0
40
0.032363556162672565
40
0.065639220227134823
40
0.065639220227134823
40
0.065639220227134823
40
0.065639220227134823
10
-68.518347891473326
20
97.474628406255519
30
0
10
-68.61758283226942
20
97.521379289431906
30
0
10
-68.81884946997765
20
97.616198644301363
30
0
10
-68.950910563898276
20
97.79540244972091
30
0
10
-69.017858656549009
20
97.886249440400874
30
0
0
SPLINE
5
201
100
AcDbEntity
8
0
100
AcDbSpline
70
1064
71
3
72
9
73
5
74
0
42
0.000000001
43
0.0000000001
44
0.0000000001
40
0
40
0
40
0
40
0
40
0.03469200672235688
40
0.070958105448797937
40
0.070958105448797937
40
0.070958105448797937
40
0.070958105448797937
10
-69.017858656549009
20
97.886249440400874
30
0
10
-69.072540365384427
20
97.989772797057682
30
0
10
-69.18438487448752
20
98.201516710197581
30
0
10
-69.198266023734305
20
98.440741584221911
30
0
10
-69.205360563897642
20
98.563007431714809
30
0
0
SPLINE
5
202
100
AcDbEntity
8
0
100
AcDbSpline
70
1064
71
3
72
9
73
5
74
0
42
0.000000001
43
0.0000000001
44
0.0000000001
40
0
40
0
40
0
40
0
40
0.044696641110957044
40
0.08627980941321392
40
0.08627980941321392
40
0.08627980941321392
40
0.08627980941321392
10
-69.205360563897642
20
98.563007431714809
30
0
10
-69.195325437840921
20
98.715066265112199
30
0
10
-69.17595421123211
20
99.00859183748247
30
0
10
-69.004036761406724
20
99.24662533632933
30
0
10
-68.921179922723326
20
99.361347275464809
30
0
0
SPLINE
5
203
100
AcDbEntity
8
0
100
AcDbSpline
70
1064
71
3
72
9
73
5
74
0
42
0.000000001
43
0.0000000001
44
0.0000000001
40
0
40
0
40
0
40
0
40
0.04376857087412505
40
0.095228330954387319
40
0.095228330954387319
40
0.095228330954387319
40
0.095228330954387319
10
-68.921179922723326
20
99.361347275464809
30
0
10
-68.808118139662156
20
99.457445222363404
30
0
10
-68.562126902557168
20
99.666527833664915
30
0
10
-68.243662993316846
20
99.726118237728315
30
0
10
-68.071570547723326
20
99.758319872110164
30
0
0
SPLINE
5
204
100
AcDbEntity
8
0
100
AcDbSpline
70
1064
71
3
72
9
73
5
74
0
42
0.000000001
43
0.0000000001
44
0.0000000001
40
0
40
0
40
0
40
0
40
0.030907523003243564
40
0.058933451851138893
40
0.058933451851138893
40
0.058933451851138893
40
0.058933451851138893
10
-68.071570547723326
20
99.758319872110164
30
0
10
-68.159565707014622
20
99.812592815070076
30
0
10
-68.327351992660482
20
99.916078683879803
30
0
10
-68.468703905292841
20
100.05337826572909
30
0
10
-68.535924109124693
20
100.11867137500552
30
0
0
SPLINE
5
205
100
AcDbEntity
8
0
100
AcDbSpline
70
1064
71
3
72
9
73
5
74
0
42
0.000000001
43
0.0000000001
44
0.0000000001
40
0
40
0
40
0
40
0
40
0.034705043415911289
40
0.085511405558655301
40
0.085511405558655301
40
0.085511405558655301
40
0.085511405558655301
10
-68.535924109124693
20
100.11867137500552
30
0
10
-68.609241923401513
20
100.20829326112528
30
0
10
-68.789893169854764
20
100.42911688491603
30
0
10
-68.940247004249528
20
100.67176722085483
30
0
10
-69.029579313897642
20
100.8159372384241
30
0
0
LINE
5
206
100
AcDbEntity
8
0
100
AcDbLine
10
-69.029579313897642
20
100.8159372384241
30
0
11
-69.553990515374693
21
101.65382774421481
31
0
0
LINE
5
207
100
AcDbEntity
8
0
100
AcDbLine
10
-69.553990515374693
20
101.65382774421481
30
0
11
-68.516884001397642
21
101.65382774421481
31
0
0
LINE
5
208
100
AcDbEntity
8
0
100
AcDbLine
10
-68.516884001397642
20
101.65382774421481
30
0
11
-67.889928969049009
21
100.71925731250552
31
0
0
SPLINE
5
209
100
AcDbEntity
8
0
100
AcDbSpline
70
1064
71
3
72
9
73
5
74
0
42
0.000000001
43
0.0000000001
44
0.0000000001
40
0
40
0
40
0
40
0
40
0.049581241891165181
40
0.077978079628461858
40
0.077978079628461858
40
0.077978079628461858
40
0.077978079628461858
10
-67.889928969049009
20
100.71925731250552
30
0
10
-67.798899732800479
20
100.58114335811588
30
0
10
-67.655735004327397
20
100.36392691652617
30
0
10
-67.492385642705827
20
100.1615926465182
30
0
10
-67.432899626397642
20
100.08790971586016
30
0
0
SPLINE
5
210
100
AcDbEntity
8
0
100
AcDbSpline
70
1064
71
3
72
9
73
5
74
0
42
0.000000001
43
0.0000000001
44
0.0000000001
40
0
40
0
40
0
40
0
40
0.016770633396263109
40
0.03183885775929797
40
0.03183885775929797
40
0.03183885775929797
40
0.03183885775929797
10
-67.432899626397642
20
100.08790971586016
30
0
10
-67.392635374461804
20
100.04837061909041
30
0
10
-67.31619414771275
20
99.973306091219669
30
0
10
-67.218425861893508
20
99.929792207679185
30
0
10
-67.172155531549009
20
99.90919859954623
30
0
0
SPLINE
5
211
100
AcDbEntity
8
0
100
AcDbSpline
70
1064
71
3
72
9
73
5
74
0
42
0.000000001
43
0.0000000001
44
0.0000000001
40
0
40
0
40
0
40
0
40
0.018162986091540489
40
0.044046277781645729
40
0.044046277781645729
40
0.044046277781645729
40
0.044046277781645729
10
-67.172155531549009
20
99.90919859954623
30
0
10
-67.113068225759719
20
99.895204798096756
30
0
10
-66.96977813727716
20
99.861269030995572
30
0
10
-66.822296238689546
20
99.861010725110887
30
0
10
-66.735630186700376
20
99.860858934610164
30
0
0
LINE
5
212
100
AcDbEntity
8
0
100
AcDbLine
10
-66.735630186700362
20
99.860858934610164
30
0
11
-66.559848936700376
21
99.860858934610164
31
0
0
LINE
5
213
100
AcDbEntity
8
0
100
AcDbLine
10
-66.559848936700376
20
99.860858934610164
30
0
11
-66.559848936700376
21
101.65382774421481
31
0
0
LINE
5
214
100
AcDbEntity
8
0
100
AcDbLine
10
-66.559848936700376
20
101.65382774421481
30
0
11
-65.692663344049009
21
101.65382774421481
31
0
0
LINE
5
215
100
AcDbEntity
8
0
100
AcDbLine
10
-65.692663344049009
20
101.65382774421481
30
0
11
-65.692663344049009
21
97.358905690400874
31
0
0
LWPOLYLINE
5
216
100
AcDbEntity
8
0
100
AcDbPolyline
90
8
70
1
43
0.0
10
59.90693599501904
20
103.86377402816029
10
59.406934087670408
20
105.16455539736958
10
58.149121110833249
20
105.16455539736958
10
60.442090337670408
20
99.437992658951003
10
61.66474849501904
20
99.437992658951003
10
63.895216291344724
20
105.16455539736958
10
62.668652837670408
20
105.16455539736958
10
62.195997541344724
20
103.86377402816029
0
SPLINE
5
217
100
AcDbEntity
8
0
100
AcDbSpline
70
1064
71
3
72
9
73
5
74
0
42
0.000000001
43
0.0000000001
44
0.0000000001
40
0
40
0
40
0
40
0
40
0.063047604219096859
40
0.10976943908721505
40
0.10976943908721505
40
0.10976943908721505
40
0.10976943908721505
10
72.766310279763303
20
99.437992658951003
30
0
10
72.555468610450902
20
99.43912825132243
30
0
10
72.188381358472085
20
99.441105381765169
30
0
10
71.829303334398006
20
99.515642212819955
30
0
10
71.676466768181882
20
99.547367778160293
30
0
0
SPLINE
5
218
100
AcDbEntity
8
0
100
AcDbSpline
70
1064
71
3
72
9
73
5
74
0
42
0.000000001
43
0.0000000001
44
0.0000000001
40
0
40
0
40
0
40
0
40
0.051114652565261459
40
0.10207081540451249
40
0.10207081540451249
40
0.10207081540451249
40
0.10207081540451249
10
71.676466768181882
20
99.547367778160293
30
0
10
71.514613375404053
20
99.606351523304852
30
0
10
71.191408443985864
20
99.724136124400047
30
0
10
70.939129092853577
20
99.957974090314607
30
0
10
70.813185279763303
20
100.07471152816029
30
0
0
SPLINE
5
219
100
AcDbEntity
8
0
100
AcDbSpline
70
1064
71
3
72
9
73
5
74
0
42
0.000000001
43
0.0000000001
44
0.0000000001
40
0
40
0
40
0
40
0
40
0.052695282446793806
40
0.10832836539716378
40
0.10832836539716378
40
0.10832836539716378
40
0.10832836539716378
10
70.813185279763303
20
100.07471152816029
30
0
10
70.699763067092292
20
100.21045359955028
30
0
10
70.466595270510368
20
100.48950546200403
30
0
10
70.334268154106596
20
100.82840219716081
30
0
10
70.266310279763303
20
101.00244590316029
30
0
0
SPLINE
5
220
100
AcDbEntity
8
0
100
AcDbSpline
70
1064
71
3
72
9
73
5
74
0
42
0.000000001
43
0.0000000001
44
0.0000000001
40
0
40
0
40
0
40
0
40
0.062872146474390447
40
0.13709258438426586
40
0.13709258438426586
40
0.13709258438426586
40
0.13709258438426586
10
70.266310279763303
20
101.00244590316029
30
0
10
70.211721516906834
20
101.20558866429361
30
0
10
70.09269083324179
20
101.64854103166772
30
0
10
70.083685919311009
20
102.10749103498046
30
0
10
70.078810756600461
20
102.35596158776494
30
0
0
SPLINE
5
221
100
AcDbEntity
8
0
100
AcDbSpline
70
1064
71
3
72
9
73
5
74
0
42
0.000000001
43
0.0000000001
44
0.0000000001
40
0
40
0
40
0
40
0
40
0.065966845141068015
40
0.12355102532785242
40
0.12355102532785242
40
0.12355102532785242
40
0.12355102532785242
10
70.078810756600461
20
102.35596158776494
30
0
10
70.083930228167361
20
102.57679137090105
30
0
10
70.093518620031119
20
102.99038923314606
30
0
10
70.203385622456906
20
103.38895144485237
30
0
10
70.254592006600461
20
103.57471176657887
30
0
0
SPLINE
5
222
100
AcDbEntity
8
0
100
AcDbSpline
70
1064
71
3
72
9
73
5
74
0
42
0.000000001
43
0.0000000001
44
0.0000000001
40
0
40
0
40
0
40
0
40
0.062265388657084419
40
0.11913860587406773
40
0.11913860587406773
40
0.11913860587406773
40
0.11913860587406773
10
70.254592006600461
20
103.57471176657887
30
0
10
70.330599113959579
20
103.76988055706659
30
0
10
70.476031126873806
20
104.14331655594697
30
0
10
70.741260126971369
20
104.44325067503654
30
0
10
70.867872541344724
20
104.58643027816029
30
0
0
SPLINE
5
223
100
AcDbEntity
8
0
100
AcDbSpline
70
1064
71
3
72
9
73
5
74
0
42
0.000000001
43
0.0000000001
44
0.0000000001
40
0
40
0
40
0
40
0
40
0.043927252740854558
40
0.093846783883825807
40
0.093846783883825807
40
0.093846783883825807
40
0.093846783883825807
10
70.867872541344724
20
104.58643027816029
30
0
10
70.981781673514334
20
104.6802106963991
30
0
10
71.225138702285989
20
104.88056446527493
30
0
10
71.522303575902157
20
104.98689920902665
30
0
10
71.680373256600461
20
105.043461408951
30
0
0
SPLINE
5
224
100
AcDbEntity
8
0
100
AcDbSpline
70
1064
71
3
72
9
73
5
74
0
42
0.000000001
43
0.0000000001
44
0.0000000001
40
0
40
0
40
0
40
0
40
0.045639272043314617
40
0.10333593538909563
40
0.10333593538909563
40
0.10333593538909563
40
0.10333593538909563
10
71.680373256600461
20
105.043461408951
30
0
10
71.828835939206513
20
105.07865759613409
30
0
10
72.164983504463692
20
105.15834841419189
30
0
10
72.51075289922295
20
105.16233148605218
30
0
10
72.703810041344724
20
105.16455539736958
30
0
0
LINE
5
225
100
AcDbEntity
8
0
100
AcDbLine
10
72.703810041344738
20
105.16455539736958
30
0
11
74.879591768181882
21
105.16455539736958
31
0
0
LINE
5
226
100
AcDbEntity
8
0
100
AcDbLine
10
74.879591768181882
20
105.16455539736958
30
0
11
74.879591768181882
21
99.437992658951003
31
0
0
LINE
5
227
100
AcDbEntity
8
0
100
AcDbLine
10
74.879591768181882
20
99.437992658951003
30
0
11
72.766310279763303
21
99.437992658951003
31
0
0
LWPOLYLINE
5
228
100
AcDbEntity
8
0
100
AcDbPolyline
90
9
70
1
43
0.0
10
80.809279387391172
20
99.437992658951003
10
78.711623256600461
20
102.75439926657887
10
78.711623256600461
20
105.16455539736958
10
77.559279506600461
20
105.16455539736958
10
77.559279506600461
20
102.76221164736958
10
75.45381099501904
20
99.437992658951003
10
76.785841887391172
20
99.437992658951003
10
78.106154506600461
20
101.70361795697423
10
79.453810756600461
20
99.437992658951003
0
SPLINE
5
229
100
AcDbEntity
8
0
100
AcDbSpline
70
1064
71
3
72
9
73
5
74
0
42
0.000000001
43
0.0000000001
44
0.0000000001
40
0
40
0
40
0
40
0
40
0.066456445419549273
40
0.12434602801890188
40
0.12434602801890188
40
0.12434602801890188
40
0.12434602801890188
10
-80.956339987420591
20
100.34132750579624
30
0
10
-80.887023362706941
20
100.55597413070601
30
0
10
-80.757325680196146
20
100.95759740541909
30
0
10
-80.454332027388276
20
101.24974924856977
30
0
10
-80.313272627496275
20
101.38576121875552
30
0
0
SPLINE
5
230
100
AcDbEntity
8
0
100
AcDbSpline
70
1064
71
3
72
9
73
5
74
0
42
0.000000001
43
0.0000000001
44
0.0000000001
40
0
40
0
40
0
40
0
40
0.057075315719484279
40
0.12074806473808249
40
0.12074806473808249
40
0.12074806473808249
40
0.12074806473808249
10
-80.313272627496275
20
101.38576121875552
30
0
10
-80.147599657387616
20
101.48522915482964
30
0
10
-79.79710329538149
20
101.69566269572269
30
0
10
-79.387925578154096
20
101.71622633432492
30
0
10
-79.172158392571959
20
101.72706993171481
30
0
0
SPLINE
5
231
100
AcDbEntity
8
0
100
AcDbSpline
70
1064
71
3
72
9
73
5
74
0
42
0.000000001
43
0.0000000001
44
0.0000000001
40
0
40
0
40
0
40
0
40
0.07928751856149957
40
0.15578769105803081
40
0.15578769105803081
40
0.15578769105803081
40
0.15578769105803081
10
-79.172158392571959
20
101.72706993171481
30
0
10
-78.901408964993124
20
101.70450761128221
30
0
10
-78.369428283253484
20
101.66017614689943
30
0
10
-77.964667703694474
20
101.31305329091799
30
0
10
-77.765908392571959
20
101.14259721586016
30
0
0
SPLINE
5
232
100
AcDbEntity
8
0
100
AcDbSpline
70
1064
71
3
72
9
73
5
74
0
42
0.000000001
43
0.0000000001
44
0.0000000001
40
0
40
0
40
0
40
0
40
0.080572170829134329
40
0.17224935400798835
40
0.17224935400798835
40
0.17224935400798835
40
0.17224935400798835
10
-77.765908392571959
20
101.14259721586016
30
0
10
-77.605443931419416
20
100.92017742981537
30
0
10
-77.262398690235798
20
100.44468242861875
30
0
10
-77.231547949097532
20
99.857155371846815
30
0
10
-77.215128096246275
20
99.544452744214809
30
0
0
SPLINE
5
233
100
AcDbEntity
8
0
100
AcDbSpline
70
1064
71
3
72
9
73
5
74
0
42
0.000000001
43
0.0000000001
44
0.0000000001
40
0
40
0
40
0
40
0
40
0.096252063802525614
40
0.17876573423621767
40
0.17876573423621767
40
0.17876573423621767
40
0.17876573423621767
10
-77.215128096246275
20
99.544452744214809
30
0
10
-77.230220302325009
20
99.216108757437894
30
0
10
-77.258250551177113
20
98.606286468342404
30
0
10
-77.607593301949692
20
98.108630453379973
30
0
10
-77.768840941094908
20
97.878925221650874
30
0
0
SPLINE
5
234
100
AcDbEntity
8
0
100
AcDbSpline
70
1064
71
3
72
9
73
5
74
0
42
0.000000001
43
0.0000000001
44
0.0000000001
40
0
40
0
40
0
40
0
40
0.078018616724209858
40
0.16087504213344889
40
0.16087504213344889
40
0.16087504213344889
40
0.16087504213344889
10
-77.768840941094908
20
97.878925221650874
30
0
10
-77.972221879505511
20
97.705933956467078
30
0
10
-78.391595080540412
20
97.349224516545291
30
0
10
-78.941612886776397
20
97.307271046805909
30
0
10
-79.224891813897642
20
97.285663502900888
30
0
0
SPLINE
5
235
100
AcDbEntity
8
0
100
AcDbSpline
70
1064
71
3
72
9
73
5
74
0
42
0.000000001
43
0.0000000001
44
0.0000000001
40
0
40
0
40
0
40
0
40
0.07235445951140923
40
0.13888240427319057
40
0.13888240427319057
40
0.13888240427319057
40
0.13888240427319057
10
-79.224891813897642
20
97.285663502900888
30
0
10
-79.471469787166384
20
97.301601662505931
30
0
10
-79.94476945659413
20
97.332194523548466
30
0
10
-80.323665885820432
20
97.615685213127236
30
0
10
-80.505166205071959
20
97.751483934610178
30
0
0
SPLINE
5
236
100
AcDbEntity
8
0
100
AcDbSpline
70
1064
71
3
72
9
73
5
74
0
42
0.000000001
43
0.0000000001
44
0.0000000001
40
0
40
0
40
0
40
0
40
0.042218495860257527
40
0.09131723112103024
40
0.09131723112103024
40
0.09131723112103024
40
0.09131723112103024
10
-80.505166205071959
20
97.751483934610178
30
0
10
-80.598236195273444
20
97.858963719079583
30
0
10
-80.799543551977791
20
98.091438991332723
30
0
10
-80.893891215563769
20
98.384778867305073
30
0
10
-80.944619330071959
20
98.542499559610178
30
0
0
LINE
5
237
100
AcDbEntity
8
0
100
AcDbLine
10
-80.944619330071959
20
98.542499559610178
30
0
11
-80.086221846246275
21
98.747577684610178
31
0
0
SPLINE
5
238
100
AcDbEntity
8
0
100
AcDbSpline
70
1064
71
3
72
9
73
5
74
0
42
0.000000001
43
0.0000000001
44
0.0000000001
40
0
40
0
40
0
40
0
40
0.032111720916232052
40
0.062500399998847503
40
0.062500399998847503
40
0.062500399998847503
40
0.062500399998847503
10
-80.086221846246275
20
98.747577684610164
30
0
10
-80.055098753848469
20
98.643056875539514
30
0
10
-79.994522563331103
20
98.439623606043924
30
0
10
-79.842344184824498
20
98.292007305443079
30
0
10
-79.768352659844908
20
98.220233934610178
30
0
0
SPLINE
5
239
100
AcDbEntity
8
0
100
AcDbSpline
70
1064
71
3
72
9
73
5
74
0
42
0.000000001
43
0.0000000001
44
0.0000000001
40
0
40
0
40
0
40
0
40
0.030446212102588136
40
0.062779628526587611
40
0.062779628526587611
40
0.062779628526587611
40
0.062779628526587611
10
-79.768352659844908
20
98.220233934610178
30
0
10
-79.681811714418899
20
98.163851497402106
30
0
10
-79.503365594820252
20
98.047591765274532
30
0
10
-79.290551979974182
20
98.033917198318278
30
0
10
-79.180946501397642
20
98.02687438079623
30
0
0
SPLINE
5
240
100
AcDbEntity
8
0
100
AcDbSpline
70
1064
71
3
72
9
73
5
74
0
42
0.000000001
43
0.0000000001
44
0.0000000001
40
0
40
0
40
0
40
0
40
0.044089915894139714
40
0.086907311501960197
40
0.086907311501960197
40
0.086907311501960197
40
0.086907311501960197
10
-79.180946501397642
20
98.02687438079623
30
0
10
-79.030026244995426
20
98.040301429895123
30
0
10
-78.732541582820204
20
98.066767997474699
30
0
10
-78.513811608082506
20
98.269678273414641
30
0
10
-78.406047972344908
20
98.369647877900874
30
0
0
SPLINE
5
241
100
AcDbEntity
8
0
100
AcDbSpline
70
1064
71
3
72
9
73
5
74
0
42
0.000000001
43
0.0000000001
44
0.0000000001
40
0
40
0
40
0
40
0
40
0.05013151165557686
40
0.11668574036583204
40
0.11668574036583204
40
0.11668574036583204
40
0.11668574036583204
10
-78.406047972344908
20
98.369647877900874
30
0
10
-78.319747857124597
20
98.515782934118988
30
0
10
-78.118876339279183
20
98.855925823592713
30
0
10
-78.112385164999282
20
99.253330965588944
30
0
10
-78.108682783746275
20
99.479999559610164
30
0
0
SPLINE
5
242
100
AcDbEntity
8
0
100
AcDbSpline
70
1064
71
3
72
9
73
5
74
0
42
0.000000001
43
0.0000000001
44
0.0000000001
40
0
40
0
40
0
40
0
40
0.070110176630492779
40
0.12134958662948321
40
0.12134958662948321
40
0.12134958662948321
40
0.12134958662948321
10
-78.108682783746275
20
99.479999559610164
30
0
10
-78.111199341207509
20
99.718574337311864
30
0
10
-78.115555102700753
20
100.131509406737
30
0
10
-78.316713254852701
20
100.48914548802844
30
0
10
-78.401651533746275
20
100.6401559884241
30
0
0
SPLINE
5
243
100
AcDbEntity
8
0
100
AcDbSpline
70
1064
71
3
72
9
73
5
74
0
42
0.000000001
43
0.0000000001
44
0.0000000001
40
0
40
0
40
0
40
0
40
0.042513029141168932
40
0.085863744070614451
40
0.085863744070614451
40
0.085863744070614451
40
0.085863744070614451
10
-78.401651533746275
20
100.6401559884241
30
0
10
-78.507380841852694
20
100.74098329666154
30
0
10
-78.720922770889729
20
100.94462463591023
30
0
10
-79.014931663567737
20
100.97202514150115
30
0
10
-79.163370283746275
20
100.98585905381945
30
0
0
SPLINE
5
244
100
AcDbEntity
8
0
100
AcDbSpline
70
1064
71
3
72
9
73
5
74
0
42
0.000000001
43
0.0000000001
44
0.0000000001
40
0
40
0
40
0
40
0
40
0.032618991294242054
40
0.064523928053037749
40
0.064523928053037749
40
0.064523928053037749
40
0.064523928053037749
10
-79.163370283746275
20
100.98585905381945
30
0
10
-79.274104879260904
20
100.97711585061847
30
0
10
-79.493150005749243
20
100.95982083958629
30
0
10
-79.670434570621552
20
100.83021718747788
30
0
10
-79.758095892571959
20
100.76613249131945
30
0
0
SPLINE
5
245
100
AcDbEntity
8
0
100
AcDbSpline
70
1064
71
3
72
9
73
5
74
0
42
0.000000001
43
0.0000000001
44
0.0000000001
40
0
40
0
40
0
40
0
40
0.035449473374347104
40
0.078766584333753525
40
0.078766584333753525
40
0.078766584333753525
40
0.078766584333753525
10
-79.758095892571959
20
100.76613249131945
30
0
10
-79.836614331551786
20
100.67577563945953
30
0
10
-80.011077550803265
20
100.47500818328324
30
0
10
-80.078461440518097
20
100.21675211274228
30
0
10
-80.115518721246275
20
100.07472606250552
30
0
0
LINE
5
246
100
AcDbEntity
8
0
100
AcDbLine
10
-80.115518721246275
20
100.07472606250552
30
0
11
-80.956339987420591
21
100.34132750579624
31
0
0
LWPOLYLINE
5
247
100
AcDbEntity
8
0
100
AcDbPolyline
90
10
70
1
43
0.0
10
-72.975869330071959
20
97.358905690400874
10
-70.031533392571959
20
97.358905690400874
10
-70.031533392571959
20
101.65382774421481
10
-70.898718985223326
20
101.65382774421481
10
-70.898718985223326
20
99.82863219329623
10
-72.691688688897642
20
99.82863219329623
10
-72.691688688897642
20
99.102069752900874
10
-70.898718985223326
20
99.102069752900874
10
-70.898718985223326
20
98.08546813079623
10
-72.975869330071959
20
98.08546813079623
0
LINE
5
248
100
AcDbEntity
8
0
100
AcDbLine
10
-62.215123327874693
20
97.358905690400874
30
0
11
-62.215123327874693
21
99.685077684610164
31
0
0
SPLINE
5
249
100
AcDbEntity
8
0
100
AcDbSpline
70
1064
71
3
72
9
73
5
74
0
42
0.000000001
43
0.0000000001
44
0.0000000001
40
0
40
0
40
0
40
0
40
0.0456369659743006
40
0.071895975435372322
40
0.071895975435372322
40
0.071895975435372322
40
0.071895975435372322
10
-62.215123327874693
20
99.685077684610164
30
0
10
-62.214214904674954
20
99.837374750724422
30
0
10
-62.212783784733958
20
100.07730187757141
30
0
10
-62.238104654384131
20
100.31575823832637
30
0
10
-62.247352751397642
20
100.40285112211016
30
0
0
SPLINE
5
250
100
AcDbEntity
8
0
100
AcDbSpline
70
1064
71
3
72
9
73
5
74
0
42
0.000000001
43
0.0000000001
44
0.0000000001
40
0
40
0
40
0
40
0
40
0.025562619244445927
40
0.050805770396380845
40
0.050805770396380845
40
0.050805770396380845
40
0.050805770396380845
10
-62.247352751397642
20
100.40285112211016
30
0
10
-62.272092978158042
20
100.48623842070042
30
0
10
-62.32126424141255
20
100.65197088753557
30
0
10
-62.449014857925633
20
100.76836160216834
30
0
10
-62.512488516473326
20
100.82619102546481
30
0
0
SPLINE
5
251
100
AcDbEntity
8
0
100
AcDbSpline
70
1064
71
3
72
9
73
5
74
0
42
0.000000001
43
0.0000000001
44
0.0000000001
40
0
40
0
40
0
40
0
40
0.027533248896487287
40
0.060260217599665752
40
0.060260217599665752
40
0.060260217599665752
40
0.060260217599665752
10
-62.512488516473326
20
100.82619102546481
30
0
10
-62.593200318654496
20
100.87266990530814
30
0
10
-62.769848951025637
20
100.97439518384965
30
0
10
-62.974238636540989
20
100.98182432894353
30
0
10
-63.085241469049009
20
100.98585905381945
30
0
0
SPLINE
5
252
100
AcDbEntity
8
0
100
AcDbSpline
70
1064
71
3
72
9
73
5
74
0
42
0.000000001
43
0.0000000001
44
0.0000000001
40
0
40
0
40
0
40
0
40
0.0325924343277273
40
0.058486516739236882
40
0.058486516739236882
40
0.058486516739236882
40
0.058486516739236882
10
-63.085241469049009
20
100.98585905381945
30
0
10
-63.195993001901449
20
100.98301108042861
30
0
10
-63.394734566122679
20
100.97790044518973
30
0
10
-63.566039323076346
20
100.87883836889009
30
0
10
-63.641882094049009
20
100.83498002836016
30
0
0
SPLINE
5
253
100
AcDbEntity
8
0
100
AcDbSpline
70
1064
71
3
72
9
73
5
74
0
42
0.000000001
43
0.0000000001
44
0.0000000001
40
0
40
0
40
0
40
0
40
0.022538516057078285
40
0.044149483070742908
40
0.044149483070742908
40
0.044149483070742908
40
0.044149483070742908
10
-63.641882094049009
20
100.83498002836016
30
0
10
-63.698011726168886
20
100.78261824000774
30
0
10
-63.807961034134323
20
100.6800495579097
30
0
10
-63.847912787442063
20
100.53525231611097
30
0
10
-63.867468985223326
20
100.4643747384241
30
0
0
SPLINE
5
254
100
AcDbEntity
8
0
100
AcDbSpline
70
1064
71
3
72
9
73
5
74
0
42
0.000000001
43
0.0000000001
44
0.0000000001
40
0
40
0
40
0
40
0
40
0.029362871253107017
40
0.073098848649761947
40
0.073098848649761947
40
0.073098848649761947
40
0.073098848649761947
10
-63.867468985223326
20
100.4643747384241
30
0
10
-63.878474034490125
20
100.36705123404316
30
0
10
-63.905871097393259
20
100.12476443397232
30
0
10
-63.905672682951071
20
99.880830955927294
30
0
10
-63.905553969049009
20
99.734882431714809
30
0
0
LINE
5
255
100
AcDbEntity
8
0
100
AcDbLine
10
-63.905553969049009
20
99.734882431714809
30
0
11
-63.905553969049009
21
97.358905690400874
31
0
0
LINE
5
256
100
AcDbEntity
8
0
100
AcDbLine
10
-63.905553969049009
20
97.358905690400874
30
0
11
-64.772744330071959
21
97.358905690400874
31
0
0
LINE
5
257
100
AcDbEntity
8
0
100
AcDbLine
10
-64.772744330071959
20
97.358905690400874
30
0
11
-64.772744330071959
21
99.614765363424098
31
0
0
SPLINE
5
258
100
AcDbEntity
8
0
100
AcDbSpline
70
1064
71
3
72
9
73
5
74
0
42
0.000000001
43
0.0000000001
44
0.0000000001
40
0
40
0
40
0
40
0
40
0.066014637808945273
40
0.10962078282402414
40
0.10962078282402414
40
0.10962078282402414
40
0.10962078282402414
10
-64.772744330071959
20
99.614765363424098
30
0
10
-64.773132050522761
20
99.835198877333568
30
0
10
-64.773775880751089
20
100.20124033658293
30
0
10
-64.722733940012404
20
100.56345361235944
30
0
10
-64.702429922723326
20
100.70753874131945
30
0
0
SPLINE
5
259
100
AcDbEntity
8
0
100
AcDbSpline
70
1064
71
3
72
9
73
5
74
0
42
0.000000001
43
0.0000000001
44
0.0000000001
40
0
40
0
40
0
40
0
40
0.031094347145407986
40
0.060286862194845178
40
0.060286862194845178
40
0.060286862194845178
40
0.060286862194845178
10
-64.702429922723326
20
100.70753874131945
30
0
10
-64.675097466517215
20
100.80859459348551
30
0
10
-64.622104296632088
20
101.00452539097182
30
0
10
-64.501536598395788
20
101.16762423117311
30
0
10
-64.443154486321959
20
101.24660106250552
30
0
0
SPLINE
5
260
100
AcDbEntity
8
0
100
AcDbSpline
70
1064
71
3
72
9
73
5
74
0
42
0.000000001
43
0.0000000001
44
0.0000000001
40
0
40
0
40
0
40
0
40
0.029618393084331548
40
0.061912018206968622
40
0.061912018206968622
40
0.061912018206968622
40
0.061912018206968622
10
-64.443154486321959
20
101.24660106250552
30
0
10
-64.372748168553201
20
101.31696798315809
30
0
10
-64.22557619959548
20
101.46405759940451
30
0
10
-64.036438554773767
20
101.55122967580532
30
0
10
-63.937783392571959
20
101.59669907638339
30
0
0
SPLINE
5
261
100
AcDbEntity
8
0
100
AcDbSpline
70
1064
71
3
72
9
73
5
74
0
42
0.000000001
43
0.0000000001
44
0.0000000001
40
0
40
0
40
0
40
0
40
0.037762536366012935
40
0.084020082347617209
40
0.084020082347617209
40
0.084020082347617209
40
0.084020082347617209
10
-63.937783392571959
20
101.59669907638339
30
0
10
-63.81709542495004
20
101.63462290642647
30
0
10
-63.548569686115222
20
101.71900186053784
30
0
10
-63.26676119833337
20
101.72420520982635
30
0
10
-63.111610563897642
20
101.72706993171481
30
0
0
SPLINE
5
262
100
AcDbEntity
8
0
100
AcDbSpline
70
1064
71
3
72
9
73
5
74
0
42
0.000000001
43
0.0000000001
44
0.0000000001
40
0
40
0
40
0
40
0
40
0.054205589766481092
40
0.094849313800916574
40
0.094849313800916574
40
0.094849313800916574
40
0.094849313800916574
10
-63.111610563897642
20
101.72706993171481
30
0
10
-62.929618321627657
20
101.72538291054123
30
0
10
-62.611167044356023
20
101.7224309492883
30
0
10
-62.308288305995212
20
101.62621118199073
30
0
10
-62.178502234124693
20
101.5849802071741
30
0
0
SPLINE
5
263
100
AcDbEntity
8
0
100
AcDbSpline
70
1064
71
3
72
9
73
5
74
0
42
0.000000001
43
0.0000000001
44
0.0000000001
40
0
40
0
40
0
40
0
40
0.032808745279212306
40
0.062781500453158431
40
0.062781500453158431
40
0.062781500453158431
40
0.062781500453158431
10
-62.178502234124693
20
101.5849802071741
30
0
10
-62.079645405304397
20
101.53593304239266
30
0
10
-61.890476938465412
20
101.44207835298751
30
0
10
-61.745349521573402
20
101.2889466112413
30
0
10
-61.676063688897642
20
101.21583940336016
30
0
0
SPLINE
5
264
100
AcDbEntity
8
0
100
AcDbSpline
70
1064
71
3
72
9
73
5
74
0
42
0.000000001
43
0.0000000001
44
0.0000000001
40
0
40
0
40
0
40
0
40
0.027840333504071252
40
0.053806271566796807
40
0.053806271566796807
40
0.053806271566796807
40
0.053806271566796807
10
-61.676063688897642
20
101.21583940336016
30
0
10
-61.620168115900462
20
101.14078817991339
30
0
10
-61.512140229681769
20
100.99573867791628
30
0
10
-61.45869316928863
20
100.82308482567007
30
0
10
-61.432900580071959
20
100.73976518461016
30
0
0
SPLINE
5
265
100
AcDbEntity
8
0
100
AcDbSpline
70
1064
71
3
72
9
73
5
74
0
42
0.000000001
43
0.0000000001
44
0.0000000001
40
0
40
0
40
0
40
0
40
0.046145264231054799
40
0.10946213211133501
40
0.10946213211133501
40
0.10946213211133501
40
0.10946213211133501
10
-61.432900580071959
20
100.73976518461016
30
0
10
-61.408269276822637
20
100.5877137676636
30
0
10
-61.349840854853909
20
100.22702946848651
30
0
10
-61.348635155478199
20
99.861409327299214
30
0
10
-61.347937735223326
20
99.649921375005519
30
0
0
LINE
5
266
100
AcDbEntity
8
0
100
AcDbLine
10
-61.347937735223319
20
99.649921375005519
30
0
11
-61.347937735223326
21
97.358905690400874
31
0
0
LINE
5
267
100
AcDbEntity
8
0
100
AcDbLine
10
-61.347937735223326
20
97.358905690400874
30
0
11
-62.215123327874693
21
97.358905690400874
31
0
0
LWPOLYLINE
5
268
100
AcDbEntity
8
0
100
AcDbPolyline
90
8
70
1
43
0.0
10
-51.811809691094908
20
98.08546813079623
10
-53.086223753594908
20
98.08546813079623
10
-53.086223753594908
20
101.65382774421481
10
-53.953409346246275
20
101.65382774421481
10
-53.953409346246275
20
98.08546813079623
10
-55.224895628594908
20
98.08546813079623
10
-55.224895628594908
20
97.358905690400874
10
-51.811809691094908
20
97.358905690400874
0
LWPOLYLINE
5
269
100
AcDbEntity
8
0
100
AcDbPolyline
90
4
70
1
43
0.0
10
-46.954384001397642
20
97.358905690400874
10
-46.087198408746275
20
97.358905690400874
10
-46.087198408746275
20
101.65382774421481
10
-46.954384001397642
20
101.65382774421481
0
LWPOLYLINE
5
270
100
AcDbEntity
8
0
100
AcDbPolyline
90
8
70
1
43
0.0
10
-13.298132570886164
20
100.67824186631945
10
-13.673132809304743
20
101.65382774421481
10
-14.616491945886164
20
101.65382774421481
10
-12.896765621804745
20
97.358905690400874
10
-11.979773195886166
20
97.358905690400874
10
-10.30692145457223
20
101.65382774421481
10
-11.226843150758297
20
101.65382774421481
10
-11.581335219049008
20
100.67824186631945
0
SPLINE
5
271
100
AcDbEntity
8
0
100
AcDbSpline
70
1064
71
3
72
9
73
5
74
0
42
0.000000001
43
0.0000000001
44
0.0000000001
40
0
40
0
40
0
40
0
40
0.056487806480662643
40
0.10569411606442544
40
0.10569411606442544
40
0.10569411606442544
40
0.10569411606442544
10
61.957130735314436
20
109.04962845393923
30
0
10
62.016048166258919
20
109.23207822162341
30
0
10
62.126288343253499
20
109.57345927574772
30
0
10
62.383834636885709
20
109.82178705198299
30
0
10
62.503736322320051
20
109.93739702054766
30
0
0
SPLINE
5
272
100
AcDbEntity
8
0
100
AcDbSpline
70
1064
71
3
72
9
73
5
74
0
42
0.000000001
43
0.0000000001
44
0.0000000001
40
0
40
0
40
0
40
0
40
0.048514143545153543
40
0.10263576557280621
40
0.10263576557280621
40
0.10263576557280621
40
0.10263576557280621
10
62.503736322320051
20
109.93739702054766
30
0
10
62.644558827215818
20
110.02194476013244
30
0
10
62.942480722640099
20
110.2008126395923
30
0
10
63.290281379103405
20
110.21829203115101
30
0
10
63.473682706749983
20
110.2275092179468
30
0
0
SPLINE
5
273
100
AcDbEntity
8
0
100
AcDbSpline
70
1064
71
3
72
9
73
5
74
0
42
0.000000001
43
0.0000000001
44
0.0000000001
40
0
40
0
40
0
40
0
40
0.067394867685608956
40
0.13241971086954801
40
0.13241971086954801
40
0.13241971086954801
40
0.13241971086954801
10
63.473682706749983
20
110.2275092179468
30
0
10
63.703821511248435
20
110.20833152560422
30
0
10
64.15600600241342
20
110.17065054836728
30
0
10
64.500052318965459
20
109.8755948874755
30
0
10
64.668996637261458
20
109.73070748397616
30
0
0
SPLINE
5
274
100
AcDbEntity
8
0
100
AcDbSpline
70
1064
71
3
72
9
73
5
74
0
42
0.000000001
43
0.0000000001
44
0.0000000001
40
0
40
0
40
0
40
0
40
0.06848647895383346
40
0.14641205242739472
40
0.14641205242739472
40
0.14641205242739472
40
0.14641205242739472
10
64.668996637261458
20
109.73070748397616
30
0
10
64.805392562265126
20
109.54165074434795
30
0
10
65.096983072210605
20
109.13748067023944
30
0
10
65.123204287265878
20
108.63808189941345
30
0
10
65.137160127556868
20
108.37228454896716
30
0
0
SPLINE
5
275
100
AcDbEntity
8
0
100
AcDbSpline
70
1064
71
3
72
9
73
5
74
0
42
0.000000001
43
0.0000000001
44
0.0000000001
40
0
40
0
40
0
40
0
40
0.081814269350759181
40
0.15195072380249375
40
0.15195072380249375
40
0.15195072380249375
40
0.15195072380249375
10
65.137160127556868
20
108.37228454896716
30
0
10
65.124330519265143
20
108.09319239581724
30
0
10
65.100502545471585
20
107.57484449617505
30
0
10
64.803564122926701
20
107.15183593574156
30
0
10
64.666505163109846
20
106.95658631870059
30
0
0
SPLINE
5
276
100
AcDbEntity
8
0
100
AcDbSpline
70
1064
71
3
72
9
73
5
74
0
42
0.000000001
43
0.0000000001
44
0.0000000001
40
0
40
0
40
0
40
0
40
0.066315620722848759
40
0.13674400374253129
40
0.13674400374253129
40
0.13674400374253129
40
0.13674400374253129
10
64.666505163109846
20
106.95658631870059
30
0
10
64.493632161551602
20
106.80954380636949
30
0
10
64.137164920283368
20
106.50633949888741
30
0
10
63.669648711748309
20
106.47068002642671
30
0
10
63.428860013878889
20
106.45231403657702
30
0
0
SPLINE
5
277
100
AcDbEntity
8
0
100
AcDbSpline
70
1064
71
3
72
9
73
5
74
0
42
0.000000001
43
0.0000000001
44
0.0000000001
40
0
40
0
40
0
40
0
40
0.06150128950543874
40
0.11805001169913587
40
0.11805001169913587
40
0.11805001169913587
40
0.11805001169913587
10
63.428860013878889
20
106.45231403657702
30
0
10
63.219268736247344
20
106.46586144333591
30
0
10
62.81696411832138
20
106.4918653131611
30
0
10
62.494902217873822
20
106.73283230092808
30
0
10
62.3406270197993
20
106.84826113530902
30
0
0
SPLINE
5
278
100
AcDbEntity
8
0
100
AcDbSpline
70
1064
71
3
72
9
73
5
74
0
42
0.000000001
43
0.0000000001
44
0.0000000001
40
0
40
0
40
0
40
0
40
0.035885745160794347
40
0.077619648010588571
40
0.077619648010588571
40
0.077619648010588571
40
0.077619648010588571
10
62.3406270197993
20
106.84826113530902
30
0
10
62.26151753625448
20
106.93961905732196
30
0
10
62.090406410108599
20
107.13722313988599
30
0
10
62.010210792722106
20
107.38656198698467
30
0
10
61.9670918635493
20
107.52062447616366
30
0
0
LINE
5
279
100
AcDbEntity
8
0
100
AcDbLine
10
61.967091863549292
20
107.52062447616366
30
0
11
62.696731393731184
21
107.69494094201831
31
0
0
SPLINE
5
280
100
AcDbEntity
8
0
100
AcDbSpline
70
1064
71
3
72
9
73
5
74
0
42
0.000000001
43
0.0000000001
44
0.0000000001
40
0
40
0
40
0
40
0
40
0.02729510658400609
40
0.053125318797818025
40
0.053125318797818025
40
0.053125318797818025
40
0.053125318797818025
10
62.696731393731184
20
107.69494094201831
30
0
10
62.723187617803227
20
107.60609840735739
30
0
10
62.774680193356573
20
107.43318140620406
30
0
10
62.904030064347964
20
107.30770638212888
30
0
10
62.966921632683821
20
107.24669881412295
30
0
0
SPLINE
5
281
100
AcDbEntity
8
0
100
AcDbSpline
70
1064
71
3
72
9
73
5
74
0
42
0.000000001
43
0.0000000001
44
0.0000000001
40
0
40
0
40
0
40
0
40
0.025878774679249025
40
0.053362368233372606
40
0.053362368233372606
40
0.053362368233372606
40
0.053362368233372606
10
62.966921632683821
20
107.24669881412295
30
0
10
63.040479499217639
20
107.19877377960506
30
0
10
63.192156771773611
20
107.09995173832844
30
0
10
63.373047589995636
20
107.0883292103268
30
0
10
63.466213052666731
20
107.08234317847995
30
0
0
SPLINE
5
282
100
AcDbEntity
8
0
100
AcDbSpline
70
1064
71
3
72
9
73
5
74
0
42
0.000000001
43
0.0000000001
44
0.0000000001
40
0
40
0
40
0
40
0
40
0.037476664409357971
40
0.073871530519328127
40
0.073871530519328127
40
0.073871530519328127
40
0.073871530519328127
10
63.466213052666731
20
107.08234317847995
30
0
10
63.594496091582883
20
107.0937561045978
30
0
10
63.847359161809578
20
107.11625251225087
30
0
10
64.033280712283783
20
107.28872663609994
30
0
10
64.124880140221663
20
107.37370081493167
30
0
0
SPLINE
5
283
100
AcDbEntity
8
0
100
AcDbSpline
70
1064
71
3
72
9
73
5
74
0
42
0.000000001
43
0.0000000001
44
0.0000000001
40
0
40
0
40
0
40
0
40
0.042611812723464669
40
0.09918287219612365
40
0.09918287219612365
40
0.09918287219612365
40
0.09918287219612365
10
64.124880140221663
20
107.37370081493167
30
0
10
64.19823562084423
20
107.49791556277044
30
0
10
64.368977178043167
20
107.78703669309452
30
0
10
64.374493337852655
20
108.12483123712946
30
0
10
64.377639596856184
20
108.31749953576831
30
0
0
SPLINE
5
284
100
AcDbEntity
8
0
100
AcDbSpline
70
1064
71
3
72
9
73
5
74
0
42
0.000000001
43
0.0000000001
44
0.0000000001
40
0
40
0
40
0
40
0
40
0.059593657545732308
40
0.10314711835257842
40
0.10314711835257842
40
0.10314711835257842
40
0.10314711835257842
10
64.377639596856184
20
108.31749953576831
30
0
10
64.37550055514869
20
108.52028813467325
30
0
10
64.371798215046582
20
108.87128286252242
30
0
10
64.20081369389986
20
109.17527337270093
30
0
10
64.128616159356184
20
109.30363215753344
30
0
0
SPLINE
5
285
100
AcDbEntity
8
0
100
AcDbSpline
70
1064
71
3
72
9
73
5
74
0
42
0.000000001
43
0.0000000001
44
0.0000000001
40
0
40
0
40
0
40
0
40
0.036136064244526755
40
0.072984262713859299
40
0.072984262713859299
40
0.072984262713859299
40
0.072984262713859299
10
64.128616159356184
20
109.30363215753344
30
0
10
64.038746434662869
20
109.38933556564065
30
0
10
63.857235920605369
20
109.56243134083194
30
0
10
63.60732795145816
20
109.58572141437614
30
0
10
63.481154745019026
20
109.59748007604388
30
0
0
SPLINE
5
286
100
AcDbEntity
8
0
100
AcDbSpline
70
1064
71
3
72
9
73
5
74
0
42
0.000000001
43
0.0000000001
44
0.0000000001
40
0
40
0
40
0
40
0
40
0.027726377613639629
40
0.054845553443408281
40
0.054845553443408281
40
0.054845553443408281
40
0.054845553443408281
10
63.481154745019026
20
109.59748007604388
30
0
10
63.387029493496243
20
109.59004850179488
30
0
10
63.200840313477727
20
109.57534810319532
30
0
10
63.050147880917763
20
109.46518448808982
30
0
10
62.975635831749983
20
109.41071249791888
30
0
0
SPLINE
5
287
100
AcDbEntity
8
0
100
AcDbSpline
70
1064
71
3
72
9
73
5
74
0
42
0.000000001
43
0.0000000001
44
0.0000000001
40
0
40
0
40
0
40
0
40
0.030132074128547615
40
0.066951527846023456
40
0.066951527846023456
40
0.066951527846023456
40
0.066951527846023456
10
62.975635831749983
20
109.41071249791888
30
0
10
62.908894704005071
20
109.33390935975453
30
0
10
62.760600217086406
20
109.16325773379823
30
0
10
62.703326043692286
20
108.94373952728998
30
0
10
62.671828573144026
20
108.82301725694445
30
0
0
LINE
5
288
100
AcDbEntity
8
0
100
AcDbLine
10
62.671828573144019
20
108.82301725694445
30
0
11
61.957130735314436
21
109.04962845393923
31
0
0
LWPOLYLINE
5
289
100
AcDbEntity
8
0
100
AcDbPolyline
90
8
70
1
43
0.0
10
101.66942064026628
20
102.41654712208998
10
101.74013131838493
20
102.48725780020862
42
0.41421356237305829
10
101.74013131838493
20
102.77010051268323
10
95.022974030859544
20
109.48725780020858
42
0.41421356237313184
10
94.740131318384968
20
109.48725780020858
10
94.669420640266267
20
109.41654712208988
42
0.41421356237316864
10
94.669420640266267
20
109.13370440961528
10
101.38657792779165
20
102.41654712208997
42
0.41421356237313184
0
LWPOLYLINE
5
290
100
AcDbEntity
8
0
100
AcDbPolyline
90
8
70
1
43
0.0
10
-95.017227994495897
20
109.4872578002086
42
-0.41421356237316864
10
-94.734385282021293
20
109.4872578002086
10
-94.663674603902606
20
109.41654712208988
42
-0.41421356237316864
10
-94.663674603902606
20
109.13370440961528
10
-101.38083189142799
20
102.41654712208997
42
-0.41421356237313184
10
-101.66367460390262
20
102.41654712208998
10
-101.73438528202126
20
102.48725780020862
42
-0.41421356237305829
10
-101.73438528202126
20
102.77010051268323
0
SPLINE
5
291
100
AcDbEntity
8
0
100
AcDbSpline
70
1064
71
3
72
20
73
16
74
0
42
0.000000001
43
0.0000000001
44
0.0000000001
40
-1
40
-1
40
-1
40
-1
40
-0.88025976761500946
40
-0.88025976761500946
40
-0.88025976761500946
40
-0.68399104164372448
40
-0.68399104164372448
40
-0.68399104164372448
40
-0.41737145922833974
40
-0.41737145922833974
40
-0.41737145922833974
40
-0.21742796574842288
40
-0.21742796574842288
40
-0.21742796574842288
40
0
40
0
40
0
40
0
10
11.316170967695792
20
101.02306051091617
30
0
10
10.945068755249732
20
101.37362177403654
30
0
10
10.635595856550193
20
101.74263644609229
30
0
10
10.401420608939169
20
102.14560876541708
30
0
10
10.017579049697405
20
102.80612914474348
30
0
10
9.8760981974196618
20
103.58927439116022
30
0
10
9.9912204984132558
20
104.28363094314088
30
0
10
10.147607409602056
20
105.22687369880822
30
0
10
10.640811492802699
20
105.95987175304275
30
0
10
10.873144114845328
20
106.50922884971983
30
0
10
11.04737511348285
20
106.92120300436565
30
0
10
11.088930110534186
20
107.17673286567234
30
0
10
11.040163300583131
20
107.43075166118892
30
0
10
10.98713197608663
20
107.70698365558779
30
0
10
10.793152456774775
20
108.07248051510504
30
0
10
10.316170967624439
20
108.52306051098356
30
0
0
LINE
5
292
100
AcDbEntity
8
0
100
AcDbLine
10
10.316170967624437
20
108.52306051098356
30
0
11
11.00287301818183
21
109.24999950000553
31
0
0
SPLINE
5
293
100
AcDbEntity
8
0
100
AcDbSpline
70
1064
71
5
72
26
73
20
74
0
42
0.000000001
43
0.0000000001
44
0.0000000001
40
0
40
0
40
0
40
0
40
0
40
0
40
0.066666666666666666
40
0.13333333333333333
40
0.20000000000000001
40
0.26666666666666666
40
0.33333333333333331
40
0.39999999999999997
40
0.46666666666666662
40
0.53333333333333333
40
0.59999999999999998
40
0.66666666666666663
40
0.73333333333333328
40
0.79999999999999993
40
0.86666666666666659
40
0.93333333333333324
40
1
40
1
40
1
40
1
40
1
40
1
10
11.00287301818183
20
109.24999950000553
30
0
10
11.108732464568332
20
109.14999950000238
30
0
10
11.307244015100736
20
108.94999949999689
30
0
10
11.565389555917527
20
108.64999949999132
30
0
10
11.829761781639265
20
108.24999949998762
30
0
10
12.025772768873209
20
107.74999949998821
30
0
10
12.089180179946233
20
107.24999949999417
30
0
10
12.028750706342084
20
106.7499995000049
30
0
10
11.864287078282846
20
106.24999950001822
30
0
10
11.631294080413303
20
105.74999950002949
30
0
10
11.374451955959714
20
105.24999950003374
30
0
10
11.141458958086938
20
104.74999950002699
30
0
10
10.97699533002187
20
104.24999950000779
30
0
10
10.916565856410719
20
103.7499994999793
30
0
10
10.979973267477716
20
103.24999949995096
30
0
10
11.175984254708993
20
102.7499994999358
30
0
10
11.440356480433092
20
102.34999949994481
30
0
10
11.698502021254995
20
102.04999949996818
30
0
10
11.897013571792419
20
101.84999949999175
30
0
10
12.002873018181832
20
101.74999950000553
30
0
0
LINE
5
294
100
AcDbEntity
8
0
100
AcDbLine
10
12.002873018181832
20
101.74999950000553
30
0
11
11.316170967695792
21
101.02306051091617
31
0
0
LWPOLYLINE
5
295
100
AcDbEntity
8
0
100
AcDbPolyline
90
8
70
1
43
0.0
10
95.800791490164727
20
110.54791797198838
10
95.730080812046182
20
110.47720729386965
42
0.41421356237276391
10
95.730080812045998
20
110.19436458139518
10
102.44723809957144
20
103.47720729386981
42
0.41421356237305829
10
102.73008081204605
20
103.47720729386981
10
102.80079149016476
20
103.54791797198844
42
0.41421356237309503
10
102.80079149016474
20
103.83076068446303
10
96.083634202639487
20
110.54791797198838
42
0.41421356237298468
0
LWPOLYLINE
5
296
100
AcDbEntity
8
0
100
AcDbPolyline
90
8
70
1
43
0.0
10
-96.077888166275756
20
110.5479179719883
10
-102.79504545380108
20
103.83076068446303
42
0.41421356237315027
10
-102.79504545380107
20
103.54791797198845
10
-102.72433477568239
20
103.47720729386981
42
0.41421356237305829
10
-102.44149206320778
20
103.47720729386981
10
-95.724334775682252
20
110.19436458139509
42
0.41421356237280077
10
-95.724334775682422
20
110.47720729386974
10
-95.795045453801166
20
110.54791797198831
42
0.41421356237309503
0
LWPOLYLINE
5
297
100
AcDbEntity
8
0
100
AcDbPolyline
90
4
70
1
43
0.0
10
21.00287301818183
20
110.24999950000552
10
21.00287301818183
20
112.24999950000552
10
5.0028730181818304
20
112.24999950000552
10
5.0028730181818304
20
110.24999950000552
0
LWPOLYLINE
5
298
100
AcDbEntity
8
0
100
AcDbPolyline
90
6
70
1
43
0.0
10
43.829673554144307
20
112.24999950000552
10
31.176078099265077
20
112.24999950017853
42
0.57735037681453527
10
29.357425090951352
20
109.09999891113796
10
35.684219668594267
20
98.141669253930246
42
0.57735178355312744
10
39.321531134758466
20
98.141677510640818
10
45.648321285121625
20
109.09999950019262
42
0.57734937774782347
0
LWPOLYLINE
5
299
100
AcDbEntity
8
0
100
AcDbPolyline
90
12
70
1
43
0.0
10
79.60293204108531
20
106.51456989595202
10
82.309816484845229
20
106.51456989595202
10
82.309816484845229
20
110.1652533585718
10
79.533205335534163
20
110.1652533585718
10
79.533205335534163
20
109.55016531297473
10
81.572707002556868
20
109.55016531297473
10
81.572707002556868
20
108.55656184503344
10
79.739894574082442
20
108.55656184503344
10
79.739894574082442
20
107.94147409745959
10
81.572707002556868
20
107.94147409745959
10
81.572707002556868
20
107.13214792558459
10
79.60293204108531
20
107.13214792558459
0
LWPOLYLINE
5
300
100
AcDbEntity
8
0
100
AcDbPolyline
90
12
70
1
43
0.0
10
72.794630830681868
20
106.51456989595202
10
75.501516168511458
20
106.51456989595202
10
75.501516168511458
20
110.1652533585718
10
72.724905317223616
20
110.1652533585718
10
72.724905317223616
20
109.55016531297473
10
74.764406984246321
20
109.55016531297473
10
74.764406984246321
20
108.55656184503344
10
72.931593959725447
20
108.55656184503344
10
72.931593959725447
20
107.94147409745959
10
74.764406984246321
20
107.94147409745959
10
74.764406984246321
20
107.13214792558459
10
72.794630830681868
20
107.13214792558459
0
LWPOLYLINE
5
301
100
AcDbEntity
8
0
100
AcDbPolyline
90
8
70
1
43
0.0
10
69.925880735314436
20
109.3360052282503
10
69.607130592263289
20
110.1652533585718
10
68.805275266564436
20
110.1652533585718
10
70.267042224801131
20
106.51456989595202
10
71.046486204064436
20
106.51456989595202
10
72.468409841454573
20
110.1652533585718
10
71.686476772225447
20
110.1652533585718
10
71.385157411492415
20
109.3360052282503
0
LWPOLYLINE
5
302
100
AcDbEntity
8
0
100
AcDbPolyline
90
8
70
1
43
0.0
10
-18.776648195886168
20
98.08546813079623
10
-20.051062258386168
20
98.08546813079623
10
-20.051062258386168
20
101.65382774421481
10
-20.918250235223326
20
101.65382774421481
10
-20.918250235223326
20
98.08546813079623
10
-22.189734133386168
20
98.08546813079623
10
-22.189734133386168
20
97.358905690400874
10
-18.776648195886164
20
97.358905690400874
0
LWPOLYLINE
5
303
100
AcDbEntity
8
0
100
AcDbPolyline
90
6
70
1
43
0.0
10
-25.312781485223326
20
97.394062000005519
10
-24.445593508386168
20
97.394062000005519
10
-24.445593508386168
20
101.65382774421481
10
-27.469031962060484
20
101.65382774421481
10
-27.469031962060484
20
100.93019487211016
10
-25.312781485223326
20
100.93019487211016
0
SPLINE
5
304
100
AcDbEntity
8
0
100
AcDbSpline
70
1064
71
3
72
9
73
5
74
0
42
0.000000001
43
0.0000000001
44
0.0000000001
40
0
40
0
40
0
40
0
40
0.038604631525583917
40
0.070677867097225372
40
0.070677867097225372
40
0.070677867097225372
40
0.070677867097225372
10
-32.721960695886168
20
100.17433555671481
30
0
10
-32.749687086177381
20
100.3026676998565
30
0
10
-32.800448926159973
20
100.53761987525179
30
0
10
-32.959065025656855
20
100.71697055963106
30
0
10
-33.031044157647642
20
100.79835893461016
30
0
0
SPLINE
5
305
100
AcDbEntity
8
0
100
AcDbSpline
70
1064
71
3
72
9
73
5
74
0
42
0.000000001
43
0.0000000001
44
0.0000000001
40
0
40
0
40
0
40
0
40
0.031170355158825255
40
0.06700390353712761
40
0.06700390353712761
40
0.06700390353712761
40
0.06700390353712761
10
-33.031044157647642
20
100.79835893461016
30
0
10
-33.119507614272443
20
100.85638917147779
30
0
10
-33.309668967392973
20
100.98113116987665
30
0
10
-33.537576318241349
20
100.99184688358267
30
0
10
-33.659460695886168
20
100.99757762500552
30
0
0
SPLINE
5
306
100
AcDbEntity
8
0
100
AcDbSpline
70
1064
71
3
72
9
73
5
74
0
42
0.000000001
43
0.0000000001
44
0.0000000001
40
0
40
0
40
0
40
0
40
0.036997322488091622
40
0.066558814792987558
40
0.066558814792987558
40
0.066558814792987558
40
0.066558814792987558
10
-33.659460695886168
20
100.99757762500552
30
0
10
-33.785311764176001
20
100.99411520716322
30
0
10
-34.011719984622189
20
100.98788625835276
30
0
10
-34.204976609972668
20
100.87186249169976
30
0
10
-34.290809782647642
20
100.82033159086016
30
0
0
SPLINE
5
307
100
AcDbEntity
8
0
100
AcDbSpline
70
1064
71
3
72
9
73
5
74
0
42
0.000000001
43
0.0000000001
44
0.0000000001
40
0
40
0
40
0
40
0
40
0.024968228417058497
40
0.04782264903894972
40
0.04782264903894972
40
0.04782264903894972
40
0.04782264903894972
10
-34.290809782647642
20
100.82033159086016
30
0
10
-34.352724285687785
20
100.7606467436479
30
0
10
-34.471311615948139
20
100.64632996259729
30
0
10
-34.492896649435103
20
100.48356586918246
30
0
10
-34.503212126397642
20
100.4057809884241
30
0
0
SPLINE
5
308
100
AcDbEntity
8
0
100
AcDbSpline
70
1064
71
3
72
9
73
5
74
0
42
0.000000001
43
0.0000000001
44
0.0000000001
40
0
40
0
40
0
40
0
40
0.01427503877233261
40
0.027870093113789657
40
0.027870093113789657
40
0.027870093113789657
40
0.027870093113789657
10
-34.503212126397642
20
100.4057809884241
30
0
10
-34.499865396441287
20
100.3573505848575
30
0
10
-34.493331356359306
20
100.2627967361103
30
0
10
-34.439914431297531
20
100.18463219385524
30
0
10
-34.413857611321959
20
100.14650346586016
30
0
0
SPLINE
5
309
100
AcDbEntity
8
0
100
AcDbSpline
70
1064
71
3
72
9
73
5
74
0
42
0.000000001
43
0.0000000001
44
0.0000000001
40
0
40
0
40
0
40
0
40
0.015825832955155984
40
0.036623241485006008
40
0.036623241485006008
40
0.036623241485006008
40
0.036623241485006008
10
-34.413857611321959
20
100.14650346586016
30
0
10
-34.374504775446432
20
100.11069431460749
30
0
10
-34.283436683455754
20
100.02782681578981
30
0
10
-34.167615750785025
20
99.984865034862679
30
0
10
-34.101843985223326
20
99.96046813079623
30
0
0
SPLINE
5
310
100
AcDbEntity
8
0
100
AcDbSpline
70
1064
71
3
72
9
73
5
74
0
42
0.000000001
43
0.0000000001
44
0.0000000001
40
0
40
0
40
0
40
0
40
0.026027317472369676
40
0.071929983283389967
40
0.071929983283389967
40
0.071929983283389967
40
0.071929983283389967
10
-34.101843985223326
20
99.96046813079623
30
0
10
-34.018732458124262
20
99.935544188002041
30
0
10
-33.789042603945532
20
99.866663528654641
30
0
10
-33.556138807202032
20
99.809468043435587
30
0
10
-33.4075094782348
20
99.772968309610164
30
0
0
SPLINE
5
311
100
AcDbEntity
8
0
100
AcDbSpline
70
1064
71
3
72
9
73
5
74
0
42
0.000000001
43
0.0000000001
44
0.0000000001
40
0
40
0
40
0
40
0
40
0.062375272493621667
40
0.10735601031950935
40
0.10735601031950935
40
0.10735601031950935
40
0.10735601031950935
10
-33.4075094782348
20
99.772968309610164
30
0
10
-33.204038668179891
20
99.721283654140805
30
0
10
-32.853838765065902
20
99.632327595367741
30
0
10
-32.554437208584339
20
99.432069215056543
30
0
10
-32.428991945886168
20
99.348163622110164
30
0
0
SPLINE
5
312
100
AcDbEntity
8
0
100
AcDbSpline
70
1064
71
3
72
9
73
5
74
0
42
0.000000001
43
0.0000000001
44
0.0000000001
40
0
40
0
40
0
40
0
40
0.04926289075580146
40
0.097384407253127303
40
0.097384407253127303
40
0.097384407253127303
40
0.097384407253127303
10
-32.428991945886168
20
99.348163622110164
30
0
10
-32.313640081689172
20
99.224547325794362
30
0
10
-32.08560894612198
20
98.980178805010311
30
0
10
-32.050722778874501
20
98.648032324166834
30
0
10
-32.033484133386168
20
98.48390551158694
30
0
0
SPLINE
5
313
100
AcDbEntity
8
0
100
AcDbSpline
70
1064
71
3
72
9
73
5
74
0
42
0.000000001
43
0.0000000001
44
0.0000000001
40
0
40
0
40
0
40
0
40
0.032089291074635269
40
0.064836925561834735
40
0.064836925561834735
40
0.064836925561834735
40
0.064836925561834735
10
-32.033484133386168
20
98.48390551158694
30
0
10
-32.04154540435816
20
98.375827306180213
30
0
10
-32.057833331216031
20
98.157453564531778
30
0
10
-32.165260688185896
20
97.966554587539235
30
0
10
-32.219519766473326
20
97.870135920732295
30
0
0
SPLINE
5
314
100
AcDbEntity
8
0
100
AcDbSpline
70
1064
71
3
72
9
73
5
74
0
42
0.000000001
43
0.0000000001
44
0.0000000001
40
0
40
0
40
0
40
0
40
0.033889233924357061
40
0.069832857945109988
40
0.069832857945109988
40
0.069832857945109988
40
0.069832857945109988
10
-32.219519766473326
20
97.870135920732295
30
0
10
-32.289997264080739
20
97.779916174534108
30
0
10
-32.435224656642347
20
97.594007495271441
30
0
10
-32.64676976631722
20
97.489083041987158
30
0
10
-32.7556540094848
20
97.435077446191585
30
0
0
SPLINE
5
315
100
AcDbEntity
8
0
100
AcDbSpline
70
1064
71
3
72
9
73
5
74
0
42
0.000000001
43
0.0000000001
44
0.0000000001
40
0
40
0
40
0
40
0
40
0.0402273524235938
40
0.086265416584856175
40
0.086265416584856175
40
0.086265416584856175
40
0.086265416584856175
10
-32.7556540094848
20
97.435077446191585
30
0
10
-32.88330290708948
20
97.391551307311559
30
0
10
-33.157039175201575
20
97.298211818714918
30
0
10
-33.446426780985767
20
97.290029980376033
30
0
10
-33.600866945886168
20
97.285663502900874
30
0
0
SPLINE
5
316
100
AcDbEntity
8
0
100
AcDbSpline
70
1064
71
3
72
9
73
5
74
0
42
0.000000001
43
0.0000000001
44
0.0000000001
40
0
40
0
40
0
40
0
40
0.071413846108046325
40
0.12880983173828353
40
0.12880983173828353
40
0.12880983173828353
40
0.12880983173828353
10
-33.600866945886168
20
97.285663502900874
30
0
10
-33.844069443941592
20
97.292826605860654
30
0
10
-34.282736096980472
20
97.305746762626598
30
0
10
-34.653116736923302
20
97.537077571576589
30
0
10
-34.818153532647642
20
97.640155571191585
30
0
0
SPLINE
5
317
100
AcDbEntity
8
0
100
AcDbSpline
70
1064
71
3
72
9
73
5
74
0
42
0.000000001
43
0.0000000001
44
0.0000000001
40
0
40
0
40
0
40
0
40
0.051804358070829365
40
0.10633357270338575
40
0.10633357270338575
40
0.10633357270338575
40
0.10633357270338575
10
-34.818153532647642
20
97.640155571191585
30
0
10
-34.938272689620632
20
97.770621213696472
30
0
10
-35.184829149090561
20
98.038414858849251
30
0
10
-35.226158206095619
20
98.400673641840157
30
0
10
-35.247352274560484
20
98.58644457408694
30
0
0
LINE
5
318
100
AcDbEntity
8
0
100
AcDbLine
10
-35.247352274560484
20
98.586444574086954
30
0
11
-34.380164297723326
21
98.624530750005519
31
0
0
SPLINE
5
319
100
AcDbEntity
8
0
100
AcDbSpline
70
1064
71
3
72
9
73
5
74
0
42
0.000000001
43
0.0000000001
44
0.0000000001
40
0
40
0
40
0
40
0
40
0.029770252312832188
40
0.054174817772947137
40
0.054174817772947137
40
0.054174817772947137
40
0.054174817772947137
10
-34.380164297723326
20
98.624530750005519
30
0
10
-34.359871515008379
20
98.525019598943487
30
0
10
-34.322943450236316
20
98.343932840977459
30
0
10
-34.197779054404378
20
98.20916602273067
30
0
10
-34.141395243310484
20
98.148456531255519
30
0
0
SPLINE
5
320
100
AcDbEntity
8
0
100
AcDbSpline
70
1064
71
3
72
9
73
5
74
0
42
0.000000001
43
0.0000000001
44
0.0000000001
40
0
40
0
40
0
40
0
40
0.025341008169246303
40
0.057588911365762718
40
0.057588911365762718
40
0.057588911365762718
40
0.057588911365762718
10
-34.141395243310484
20
98.148456531255519
30
0
10
-34.066782345608289
20
98.106314333535721
30
0
10
-33.89722020649306
20
98.010543744100801
30
0
10
-33.701612655580874
20
98.005988005004724
30
0
10
-33.592078837060484
20
98.003436940400874
30
0
0
SPLINE
5
321
100
AcDbEntity
8
0
100
AcDbSpline
70
1064
71
3
72
9
73
5
74
0
42
0.000000001
43
0.0000000001
44
0.0000000001
40
0
40
0
40
0
40
0
40
0.033914295450969488
40
0.061937058773234466
40
0.061937058773234466
40
0.061937058773234466
40
0.061937058773234466
10
-33.592078837060484
20
98.003436940400874
30
0
10
-33.477178411569199
20
98.007056838815657
30
0
10
-33.267337861674491
20
98.013667793219597
30
0
10
-33.083470045658203
20
98.113529122322205
30
0
10
-33.000281008386168
20
98.15871031829623
30
0
0
SPLINE
5
322
100
AcDbEntity
8
0
100
AcDbSpline
70
1064
71
3
72
9
73
5
74
0
42
0.000000001
43
0.0000000001
44
0.0000000001
40
0
40
0
40
0
40
0
40
0.015564926328205117
40
0.030969099888803076
40
0.030969099888803076
40
0.030969099888803076
40
0.030969099888803076
10
-33.000281008386168
20
98.15871031829623
30
0
10
-32.960120304526455
20
98.194575260944447
30
0
10
-32.880213671934044
20
98.265934737241224
30
0
10
-32.868442274126494
20
98.37237024674495
30
0
10
-32.862587126397642
20
98.42531176158694
30
0
0
SPLINE
5
323
100
AcDbEntity
8
0
100
AcDbSpline
70
1064
71
3
72
9
73
5
74
0
42
0.000000001
43
0.0000000001
44
0.0000000001
40
0
40
0
40
0
40
0
40
0.014498454964135613
40
0.029860588302070876
40
0.029860588302070876
40
0.029860588302070876
40
0.029860588302070876
10
-32.862587126397642
20
98.42531176158694
30
0
10
-32.868553695673896
20
98.47475216837816
30
0
10
-32.880842264985219
20
98.576578165446946
30
0
10
-32.953904940662213
20
98.648865165110578
30
0
10
-32.991492899560484
20
98.68605406829623
30
0
0
SPLINE
5
324
100
AcDbEntity
8
0
100
AcDbSpline
70
1064
71
3
72
9
73
5
74
0
42
0.000000001
43
0.0000000001
44
0.0000000001
40
0
40
0
40
0
40
0
40
0.031444745917613336
40
0.085047666032350311
40
0.085047666032350311
40
0.085047666032350311
40
0.085047666032350311
10
-32.991492899560484
20
98.68605406829623
30
0
10
-33.083934970900074
20
98.736299374813555
30
0
10
-33.333960282957833
20
98.872196356127205
30
0
10
-33.612692522042316
20
98.934129091351735
30
0
10
-33.7883688532348
20
98.973163383691585
30
0
0
SPLINE
5
325
100
AcDbEntity
8
0
100
AcDbSpline
70
1064
71
3
72
9
73
5
74
0
42
0.000000001
43
0.0000000001
44
0.0000000001
40
0
40
0
40
0
40
0
40
0.057101174464504724
40
0.098740494840579701
40
0.098740494840579701
40
0.098740494840579701
40
0.098740494840579701
10
-33.7883688532348
20
98.973163383691585
30
0
10
-33.973923171059248
20
99.017705681403584
30
0
10
-34.294787414809271
20
99.094729114961027
30
0
10
-34.596970558697194
20
99.226624685301744
30
0
10
-34.724402578973326
20
99.282245653360164
30
0
0
SPLINE
5
326
100
AcDbEntity
8
0
100
AcDbSpline
70
1064
71
3
72
9
73
5
74
0
42
0.000000001
43
0.0000000001
44
0.0000000001
40
0
40
0
40
0
40
0
40
0.032977332332821858
40
0.065077566063984127
40
0.065077566063984127
40
0.065077566063984127
40
0.065077566063984127
10
-34.724402578973326
20
99.282245653360164
30
0
10
-34.819586265057026
20
99.33971407554742
30
0
10
-35.007422035300976
20
99.453122431436825
30
0
10
-35.135725698058103
20
99.631019301174206
30
0
10
-35.199012907647642
20
99.71876891204623
30
0
0
SPLINE
5
327
100
AcDbEntity
8
0
100
AcDbSpline
70
1064
71
3
72
9
73
5
74
0
42
0.000000001
43
0.0000000001
44
0.0000000001
40
0
40
0
40
0
40
0
40
0.033508384898755461
40
0.071215968179360559
40
0.071215968179360559
40
0.071215968179360559
40
0.071215968179360559
10
-35.199012907647642
20
99.71876891204623
30
0
10
-35.248954235185778
20
99.820078299864406
30
0
10
-35.355095429502882
20
100.03539294904638
30
0
10
-35.365101871111506
20
100.27564300708617
30
0
10
-35.3704001032348
20
100.40285112211016
30
0
0
SPLINE
5
328
100
AcDbEntity
8
0
100
AcDbSpline
70
1064
71
3
72
9
73
5
74
0
42
0.000000001
43
0.0000000001
44
0.0000000001
40
0
40
0
40
0
40
0
40
0.036108032924976913
40
0.072877929146397624
40
0.072877929146397624
40
0.072877929146397624
40
0.072877929146397624
10
-35.3704001032348
20
100.40285112211016
30
0
10
-35.361548958642857
20
100.52442360415941
30
0
10
-35.34368442723023
20
100.76979700213279
30
0
10
-35.225135008884159
20
100.98545099332667
30
0
10
-35.1653219782348
20
101.09425725290087
30
0
0
SPLINE
5
329
100
AcDbEntity
8
0
100
AcDbSpline
70
1064
71
3
72
9
73
5
74
0
42
0.000000001
43
0.0000000001
44
0.0000000001
40
0
40
0
40
0
40
0
40
0.037440684611353671
40
0.076147612638043816
40
0.076147612638043816
40
0.076147612638043816
40
0.076147612638043816
10
-35.1653219782348
20
101.09425725290087
30
0
10
-35.088874193741006
20
101.19519877983409
30
0
10
-34.933393161780792
20
101.40049567469035
30
0
10
-34.702572094855945
20
101.51503788371437
30
0
10
-34.585242422723326
20
101.57326133796481
30
0
0
SPLINE
5
330
100
AcDbEntity
8
0
100
AcDbSpline
70
1064
71
3
72
9
73
5
74
0
42
0.000000001
43
0.0000000001
44
0.0000000001
40
0
40
0
40
0
40
0
40
0.043724122633968132
40
0.09521615975387128
40
0.09521615975387128
40
0.09521615975387128
40
0.09521615975387128
10
-34.585242422723326
20
101.57326133796481
30
0
10
-34.445996634805063
20
101.61889618934552
30
0
10
-34.142767012601539
20
101.7182732617178
30
0
10
-33.823389210714851
20
101.7258837933848
30
0
10
-33.650672587060484
20
101.72999950000552
30
0
0
SPLINE
5
331
100
AcDbEntity
8
0
100
AcDbSpline
70
1064
71
3
72
9
73
5
74
0
42
0.000000001
43
0.0000000001
44
0.0000000001
40
0
40
0
40
0
40
0
40
0.072609714928145261
40
0.13275020366139445
40
0.13275020366139445
40
0.13275020366139445
40
0.13275020366139445
10
-33.650672587060484
20
101.72999950000552
30
0
10
-33.403492205821017
20
101.721123400247
30
0
10
-32.95157959353336
20
101.70489548843344
30
0
10
-32.571764570478258
20
101.46308389231055
30
0
10
-32.399695070886168
20
101.35353477546481
30
0
0
SPLINE
5
332
100
AcDbEntity
8
0
100
AcDbSpline
70
1064
71
3
72
9
73
5
74
0
42
0.000000001
43
0.0000000001
44
0.0000000001
40
0
40
0
40
0
40
0
40
0.057920074627476066
40
0.12369619400300691
40
0.12369619400300691
40
0.12369619400300691
40
0.12369619400300691
10
-32.399695070886168
20
101.35353477546481
30
0
10
-32.268155063501361
20
101.20687675802819
30
0
10
-31.987233493954381
20
100.89366862261721
30
0
10
-31.916059046488961
20
100.47760880350418
30
0
10
-31.878211649560484
20
100.25636674711016
30
0
0
LINE
5
333
100
AcDbEntity
8
0
100
AcDbLine
10
-31.878211649560484
20
100.25636674711016
30
0
11
-32.721960695886168
21
100.17433555671481
31
0
0
LINE
5
334
100
AcDbEntity
8
0
100
AcDbLine
10
-41.780555399560484
20
97.358905690400874
30
0
11
-43.605749758386168
21
97.358905690400874
31
0
0
SPLINE
5
335
100
AcDbEntity
8
0
100
AcDbSpline
70
1064
71
3
72
9
73
5
74
0
42
0.000000001
43
0.0000000001
44
0.0000000001
40
0
40
0
40
0
40
0
40
0.059506451626796429
40
0.10103643054363605
40
0.10103643054363605
40
0.10103643054363605
40
0.10103643054363605
10
-43.605749758386168
20
97.358905690400874
30
0
10
-43.805090773636309
20
97.359181859849059
30
0
10
-44.14355331158319
20
97.35965076993368
30
0
10
-44.471458084370383
20
97.441135111233052
30
0
10
-44.6062399469848
20
97.474628406255519
30
0
0
SPLINE
5
336
100
AcDbEntity
8
0
100
AcDbSpline
70
1064
71
3
72
9
73
5
74
0
42
0.000000001
43
0.0000000001
44
0.0000000001
40
0
40
0
40
0
40
0
40
0.032363763084623777
40
0.06563927050231419
40
0.06563927050231419
40
0.06563927050231419
40
0.06563927050231419
10
-44.6062399469848
20
97.474628406255519
30
0
10
-44.705475906566782
20
97.521379028378874
30
0
10
-44.906743477878763
20
97.616197320172745
30
0
10
-45.038803519371598
20
97.795402334247711
30
0
10
-45.105750712060484
20
97.886249440400874
30
0
0
SPLINE
5
337
100
AcDbEntity
8
0
100
AcDbSpline
70
1064
71
3
72
9
73
5
74
0
42
0.000000001
43
0.0000000001
44
0.0000000001
40
0
40
0
40
0
40
0
40
0.034691910076795458
40
0.070958008803236508
40
0.070958008803236508
40
0.070958008803236508
40
0.070958008803236508
10
-45.105750712060484
20
97.886249440400874
30
0
10
-45.160431430957829
20
97.989772878265967
30
0
10
-45.272274074510648
20
98.201517258990819
30
0
10
-45.286155529258082
20
98.44074165963535
30
0
10
-45.293250235223326
20
98.563007431714809
30
0
0
SPLINE
5
338
100
AcDbEntity
8
0
100
AcDbSpline
70
1064
71
3
72
9
73
5
74
0
42
0.000000001
43
0.0000000001
44
0.0000000001
40
0
40
0
40
0
40
0
40
0.044696641110957044
40
0.086279687211045952
40
0.086279687211045952
40
0.086279687211045952
40
0.086279687211045952
10
-45.293250235223326
20
98.563007431714809
30
0
10
-45.283214965357885
20
98.715066174762853
30
0
10
-45.263843488585863
20
99.008591156994072
30
0
10
-45.091927828298147
20
99.246625232875886
30
0
10
-45.0090719782348
20
99.361347275464809
30
0
0
SPLINE
5
339
100
AcDbEntity
8
0
100
AcDbSpline
70
1064
71
3
72
9
73
5
74
0
42
0.000000001
43
0.0000000001
44
0.0000000001
40
0
40
0
40
0
40
0
40
0.04376837777184571
40
0.095228367243918477
40
0.095228367243918477
40
0.095228367243918477
40
0.095228367243918477
10
-45.0090719782348
20
99.361347275464809
30
0
10
-44.896011017296203
20
99.457445252962458
30
0
10
-44.65002038987717
20
99.666528932971033
30
0
10
-44.331556006564263
20
99.72611853815647
30
0
10
-44.1594626032348
20
99.758319872110164
30
0
0
SPLINE
5
340
100
AcDbEntity
8
0
100
AcDbSpline
70
1064
71
3
72
9
73
5
74
0
42
0.000000001
43
0.0000000001
44
0.0000000001
40
0
40
0
40
0
40
0
40
0.030907324975421421
40
0.058933607104666809
40
0.058933607104666809
40
0.058933607104666809
40
0.058933607104666809
10
-44.1594626032348
20
99.758319872110164
30
0
10
-44.247456658391485
20
99.812593188070309
30
0
10
-44.415242355739117
20
99.91608070378399
30
0
10
-44.556596576895807
20
100.05337847550406
30
0
10
-44.623818548821959
20
100.11867137500552
30
0
0
SPLINE
5
341
100
AcDbEntity
8
0
100
AcDbSpline
70
1064
71
3
72
9
73
5
74
0
42
0.000000001
43
0.0000000001
44
0.0000000001
40
0
40
0
40
0
40
0
40
0.034705043415911289
40
0.085511143996878494
40
0.085511143996878494
40
0.085511143996878494
40
0.085511143996878494
10
-44.623818548821959
20
100.11867137500552
30
0
10
-44.697136522218585
20
100.20829315640846
30
0
10
-44.877787608158556
20
100.4291158467293
30
0
10
-45.028138569337585
20
100.6717670228789
30
0
10
-45.117468985223326
20
100.8159372384241
30
0
0
LINE
5
342
100
AcDbEntity
8
0
100
AcDbLine
10
-45.117468985223326
20
100.8159372384241
30
0
11
-45.641884955071959
21
101.65382774421481
31
0
0
LINE
5
343
100
AcDbEntity
8
0
100
AcDbLine
10
-45.641884955071959
20
101.65382774421481
30
0
11
-44.604773672723326
21
101.65382774421481
31
0
0
LINE
5
344
100
AcDbEntity
8
0
100
AcDbLine
10
-44.604773672723326
20
101.65382774421481
30
0
11
-43.977821024560484
21
100.71925731250552
31
0
0
SPLINE
5
345
100
AcDbEntity
8
0
100
AcDbSpline
70
1064
71
3
72
9
73
5
74
0
42
0.000000001
43
0.0000000001
44
0.0000000001
40
0
40
0
40
0
40
0
40
0.049581377133770713
40
0.077978214871067389
40
0.077978214871067389
40
0.077978214871067389
40
0.077978214871067389
10
-43.977821024560484
20
100.71925731250552
30
0
10
-43.886790832344374
20
100.58114346868422
30
0
10
-43.743624742600026
20
100.36392741675591
30
0
10
-43.58027525627395
20
100.16159268637595
30
0
10
-43.520789297723326
20
100.08790971586016
30
0
0
SPLINE
5
346
100
AcDbEntity
8
0
100
AcDbSpline
70
1064
71
3
72
9
73
5
74
0
42
0.000000001
43
0.0000000001
44
0.0000000001
40
0
40
0
40
0
40
0
40
0.016770453260661185
40
0.031838677623696049
40
0.031838677623696049
40
0.031838677623696049
40
0.031838677623696049
10
-43.520789297723326
20
100.08790971586016
30
0
10
-43.480525899127329
20
100.04837056166895
30
0
10
-43.404085903856632
20
99.973305543196204
30
0
10
-43.306317998928066
20
99.929792110719063
30
0
10
-43.260047587060484
20
99.90919859954623
30
0
0
SPLINE
5
347
100
AcDbEntity
8
0
100
AcDbSpline
70
1064
71
3
72
9
73
5
74
0
42
0.000000001
43
0.0000000001
44
0.0000000001
40
0
40
0
40
0
40
0
40
0.018163453332970345
40
0.04404603054738955
40
0.04404603054738955
40
0.04404603054738955
40
0.04404603054738955
10
-43.260047587060484
20
99.90919859954623
30
0
10
-43.200958691562462
20
99.895204769359509
30
0
10
-43.057669238372782
20
99.861269996022074
30
0
10
-42.910188242230369
20
99.86101108019227
30
0
10
-42.823524626397642
20
99.860858934610164
30
0
0
LINE
5
348
100
AcDbEntity
8
0
100
AcDbLine
10
-42.823524626397642
20
99.860858934610164
30
0
11
-42.647743376397642
21
99.860858934610164
31
0
0
LINE
5
349
100
AcDbEntity
8
0
100
AcDbLine
10
-42.647743376397642
20
99.860858934610164
30
0
11
-42.647743376397642
21
101.65382774421481
31
0
0
LINE
5
350
100
AcDbEntity
8
0
100
AcDbLine
10
-42.647743376397642
20
101.65382774421481
30
0
11
-41.780555399560484
21
101.65382774421481
31
0
0
LINE
5
351
100
AcDbEntity
8
0
100
AcDbLine
10
-41.780555399560484
20
101.65382774421481
30
0
11
-41.780555399560484
21
97.358905690400874
31
0
0
LINE
5
352
100
AcDbEntity
8
0
100
AcDbLine
10
69.090528791344724
20
99.437992658951003
30
0
11
66.656935518181882
21
99.437992658951003
31
0
0
SPLINE
5
353
100
AcDbEntity
8
0
100
AcDbSpline
70
1064
71
3
72
9
73
5
74
0
42
0.000000001
43
0.0000000001
44
0.0000000001
40
0
40
0
40
0
40
0
40
0.079341776503148817
40
0.13471507861146248
40
0.13471507861146248
40
0.13471507861146248
40
0.13471507861146248
10
66.656935518181882
20
99.437992658951003
30
0
10
66.391148036647593
20
99.438360926108942
30
0
10
65.939865206253529
20
99.438986210055447
30
0
10
65.502659340945854
20
99.547631742162665
30
0
10
65.322950189507566
20
99.592289414741714
30
0
0
SPLINE
5
354
100
AcDbEntity
8
0
100
AcDbSpline
70
1064
71
3
72
9
73
5
74
0
42
0.000000001
43
0.0000000001
44
0.0000000001
40
0
40
0
40
0
40
0
40
0.043151632410471062
40
0.087519068831547822
40
0.087519068831547822
40
0.087519068831547822
40
0.087519068831547822
10
65.322950189507566
20
99.592289414741714
30
0
10
65.190635969634229
20
99.654623837382687
30
0
10
64.922279555991892
20
99.781048964798416
30
0
10
64.746198577903982
20
100.01998832229572
30
0
10
64.656935041344724
20
100.141117658951
30
0
0
SPLINE
5
355
100
AcDbEntity
8
0
100
AcDbSpline
70
1064
71
3
72
9
73
5
74
0
42
0.000000001
43
0.0000000001
44
0.0000000001
40
0
40
0
40
0
40
0
40
0.046255871021050041
40
0.09461069971737382
40
0.09461069971737382
40
0.09461069971737382
40
0.09461069971737382
10
64.656935041344724
20
100.141117658951
30
0
10
64.584027540411597
20
100.27914889254754
30
0
10
64.434904206969463
20
100.56147481799555
30
0
10
64.416394342476778
20
100.88044059728242
30
0
10
64.406934087670408
20
101.04346164736958
30
0
0
SPLINE
5
356
100
AcDbEntity
8
0
100
AcDbSpline
70
1064
71
3
72
9
73
5
74
0
42
0.000000001
43
0.0000000001
44
0.0000000001
40
0
40
0
40
0
40
0
40
0.059595534113299993
40
0.11503967704802921
40
0.11503967704802921
40
0.11503967704802921
40
0.11503967704802921
10
64.406934087670408
20
101.04346164736958
30
0
10
64.420314677696112
20
101.24620668964438
30
0
10
64.446143773418996
20
101.63757366929154
30
0
10
64.67536574829586
20
101.9549521079374
30
0
10
64.785840814507566
20
102.10791477236958
30
0
0
SPLINE
5
357
100
AcDbEntity
8
0
100
AcDbSpline
70
1064
71
3
72
9
73
5
74
0
42
0.000000001
43
0.0000000001
44
0.0000000001
40
0
40
0
40
0
40
0
40
0.05835769664120409
40
0.12697117157283772
40
0.12697117157283772
40
0.12697117157283772
40
0.12697117157283772
10
64.785840814507566
20
102.10791477236958
30
0
10
64.936588225509524
20
102.2360453426125
30
0
10
65.264575388953773
20
102.5148241422294
30
0
10
65.689194815845227
20
102.59427650460567
30
0
10
65.918653314507566
20
102.63721146855565
30
0
0
SPLINE
5
358
100
AcDbEntity
8
0
100
AcDbSpline
70
1064
71
3
72
9
73
5
74
0
42
0.000000001
43
0.0000000001
44
0.0000000001
40
0
40
0
40
0
40
0
40
0.04120976663389523
40
0.078578018373269762
40
0.078578018373269762
40
0.078578018373269762
40
0.078578018373269762
10
65.918653314507566
20
102.63721146855565
30
0
10
65.801327838168632
20
102.70957581230866
30
0
10
65.577613796851267
20
102.84755880026171
30
0
10
65.389142369841053
20
103.03062283240564
30
0
10
65.299513643181882
20
103.11768003974171
30
0
0
SPLINE
5
359
100
AcDbEntity
8
0
100
AcDbSpline
70
1064
71
3
72
9
73
5
74
0
42
0.000000001
43
0.0000000001
44
0.0000000001
40
0
40
0
40
0
40
0
40
0.046273702173511386
40
0.11401509279663083
40
0.11401509279663083
40
0.11401509279663083
40
0.11401509279663083
10
65.299513643181882
20
103.11768003974171
30
0
10
65.201754521091019
20
103.23717563330275
30
0
10
64.960883035703645
20
103.53160422986423
30
0
10
64.760415615478252
20
103.85514050280494
30
0
10
64.641309087670408
20
104.047367658951
30
0
0
LINE
5
360
100
AcDbEntity
8
0
100
AcDbLine
10
64.641309087670408
20
104.047367658951
30
0
11
63.942091768181882
21
105.16455539736958
31
0
0
LINE
5
361
100
AcDbEntity
8
0
100
AcDbLine
10
63.942091768181882
20
105.16455539736958
30
0
11
65.324902837670408
21
105.16455539736958
31
0
0
LINE
5
362
100
AcDbEntity
8
0
100
AcDbLine
10
65.324902837670408
20
105.16455539736958
30
0
11
66.160841291344724
21
103.91846188578816
31
0
0
SPLINE
5
363
100
AcDbEntity
8
0
100
AcDbSpline
70
1064
71
3
72
9
73
5
74
0
42
0.000000001
43
0.0000000001
44
0.0000000001
40
0
40
0
40
0
40
0
40
0.066108412683161005
40
0.10397095239627027
40
0.10397095239627027
40
0.10397095239627027
40
0.10397095239627027
10
66.160841291344724
20
103.91846188578816
30
0
10
66.282214128592443
20
103.73430992946584
30
0
10
66.473101323905425
20
103.44468787521642
30
0
10
66.690901439132347
20
103.17490885797974
30
0
10
66.770216529763303
20
103.07666489157887
30
0
0
SPLINE
5
364
100
AcDbEntity
8
0
100
AcDbSpline
70
1064
71
3
72
9
73
5
74
0
42
0.000000001
43
0.0000000001
44
0.0000000001
40
0
40
0
40
0
40
0
40
0.022360668383831186
40
0.042451581664807468
40
0.042451581664807468
40
0.042451581664807468
40
0.042451581664807468
10
66.770216529763303
20
103.07666489157887
30
0
10
66.823901538406744
20
103.02394626453949
30
0
10
66.925822173759968
20
102.92386029829726
30
0
10
67.056179011464437
20
102.86584167595885
30
0
10
67.117872541344724
20
102.83838340316029
30
0
0
SPLINE
5
365
100
AcDbEntity
8
0
100
AcDbSpline
70
1064
71
3
72
9
73
5
74
0
42
0.000000001
43
0.0000000001
44
0.0000000001
40
0
40
0
40
0
40
0
40
0.024217857920802319
40
0.05872808041647265
40
0.05872808041647265
40
0.05872808041647265
40
0.05872808041647265
10
67.117872541344724
20
102.83838340316029
30
0
10
67.196657471993163
20
102.81972501250173
30
0
10
67.387710196716327
20
102.77447858853556
30
0
10
67.58435166225496
20
102.77413337403743
30
0
10
67.699903552926145
20
102.77393051657887
30
0
0
LINE
5
366
100
AcDbEntity
8
0
100
AcDbLine
10
67.699903552926145
20
102.77393051657889
30
0
11
67.934278552926145
21
102.77393051657887
31
0
0
LINE
5
367
100
AcDbEntity
8
0
100
AcDbLine
10
67.934278552926145
20
102.77393051657887
30
0
11
67.934278552926145
21
105.16455539736958
31
0
0
LINE
5
368
100
AcDbEntity
8
0
100
AcDbLine
10
67.934278552926145
20
105.16455539736958
30
0
11
69.090528791344724
21
105.16455539736958
31
0
0
LINE
5
369
100
AcDbEntity
8
0
100
AcDbLine
10
69.090528791344724
20
105.16455539736958
30
0
11
69.090528791344724
21
99.437992658951003
31
0
0
LWPOLYLINE
5
370
100
AcDbEntity
8
0
100
AcDbPolyline
90
12
70
1
43
0.0
10
84.836623077786527
20
99.437992658951003
10
85.992873018181882
20
99.437992658951003
10
85.992873018181882
20
105.16455539736958
10
84.836623077786527
20
105.16455539736958
10
84.836623077786527
20
102.66064920697423
10
82.570998077786527
20
102.66064920697423
10
82.570998077786527
20
105.16455539736958
10
81.414747541344724
20
105.16455539736958
10
81.414747541344724
20
99.437992658951003
10
82.570998077786527
20
99.437992658951003
10
82.570998077786527
20
101.69189908776494
10
84.836623077786527
20
101.69189908776494
0
LWPOLYLINE
5
371
100
AcDbEntity
8
0
100
AcDbPolyline
90
8
70
1
43
0.0
10
-75.917272719049009
20
100.67824186631945
10
-76.292276533746275
20
101.65382774421481
10
-77.235632094049009
20
101.65382774421481
10
-75.515909346246275
20
97.358905690400874
10
-74.598913344049009
20
97.358905690400874
10
-72.926063688897642
20
101.65382774421481
10
-73.845987471246275
20
101.65382774421481
10
-74.200477751397642
20
100.67824186631945
0
SPLINE
5
372
100
AcDbEntity
8
0
100
AcDbSpline
70
1064
71
3
72
9
73
5
74
0
42
0.000000001
43
0.0000000001
44
0.0000000001
40
0
40
0
40
0
40
0
40
0.038604631525583917
40
0.0706777230894923
40
0.0706777230894923
40
0.0706777230894923
40
0.0706777230894923
10
-57.972941549920591
20
100.17433555671481
30
0
10
-58.000668084290808
20
100.3026675853653
30
0
10
-58.051430084626183
20
100.53761907242874
30
0
10
-58.210044456166202
20
100.71697044633089
30
0
10
-58.282022627496275
20
100.79835893461016
30
0
0
SPLINE
5
373
100
AcDbEntity
8
0
100
AcDbSpline
70
1064
71
3
72
9
73
5
74
0
42
0.000000001
43
0.0000000001
44
0.0000000001
40
0
40
0
40
0
40
0
40
0.03117056440134219
40
0.067004112779644548
40
0.067004112779644548
40
0.067004112779644548
40
0.067004112779644548
10
-58.282022627496275
20
100.79835893461016
30
0
10
-58.37048689327041
20
100.85638917845904
30
0
10
-58.560649303054802
20
100.98113074404041
30
0
10
-58.788557239646678
20
100.99184674686128
30
0
10
-58.910441549920591
20
100.99757762500552
30
0
0
SPLINE
5
374
100
AcDbEntity
8
0
100
AcDbSpline
70
1064
71
3
72
9
73
5
74
0
42
0.000000001
43
0.0000000001
44
0.0000000001
40
0
40
0
40
0
40
0
40
0.036997085785731659
40
0.066558578090627596
40
0.066558578090627596
40
0.066558578090627596
40
0.066558578090627596
10
-58.910441549920591
20
100.99757762500552
30
0
10
-59.036291788766661
20
100.99411507641958
30
0
10
-59.262699160376201
20
100.98788587469848
30
0
10
-59.455955085550613
20
100.87186250060626
30
0
10
-59.541788252496275
20
100.82033159086016
30
0
0
SPLINE
5
375
100
AcDbEntity
8
0
100
AcDbSpline
70
1064
71
3
72
9
73
5
74
0
42
0.000000001
43
0.0000000001
44
0.0000000001
40
0
40
0
40
0
40
0
40
0.024968228417058497
40
0.04782264903894972
40
0.04782264903894972
40
0.04782264903894972
40
0.04782264903894972
10
-59.541788252496275
20
100.82033159086016
30
0
10
-59.603702755536418
20
100.76064674364792
30
0
10
-59.722290085796757
20
100.64632996259729
30
0
10
-59.743875119283736
20
100.48356586918246
30
0
10
-59.754190596246275
20
100.4057809884241
30
0
0
SPLINE
5
376
100
AcDbEntity
8
0
100
AcDbSpline
70
1064
71
3
72
9
73
5
74
0
42
0.000000001
43
0.0000000001
44
0.0000000001
40
0
40
0
40
0
40
0
40
0.01427503877233261
40
0.027870093113789657
40
0.027870093113789657
40
0.027870093113789657
40
0.027870093113789657
10
-59.754190596246275
20
100.4057809884241
30
0
10
-59.750843866289912
20
100.3573505848575
30
0
10
-59.744309826207939
20
100.2627967361103
30
0
10
-59.690892901146164
20
100.18463219385524
30
0
10
-59.664836081170591
20
100.14650346586016
30
0
0
SPLINE
5
377
100
AcDbEntity
8
0
100
AcDbSpline
70
1064
71
3
72
9
73
5
74
0
42
0.000000001
43
0.0000000001
44
0.0000000001
40
0
40
0
40
0
40
0
40
0.015825832955155984
40
0.036622807388629178
40
0.036622807388629178
40
0.036622807388629178
40
0.036622807388629178
10
-59.664836081170591
20
100.14650346586016
30
0
10
-59.625483218808348
20
100.11069438361329
30
0
10
-59.534416144957135
20
100.02782802671396
30
0
10
-59.418597242734457
20
99.984865333098085
30
0
10
-59.352827223443541
20
99.96046813079623
30
0
0
SPLINE
5
378
100
AcDbEntity
8
0
100
AcDbSpline
70
1064
71
3
72
9
73
5
74
0
42
0.000000001
43
0.0000000001
44
0.0000000001
40
0
40
0
40
0
40
0
40
0.026027546256400136
40
0.071930212067420424
40
0.071930212067420424
40
0.071930212067420424
40
0.071930212067420424
10
-59.352827223443541
20
99.96046813079623
30
0
10
-59.269714892249745
20
99.935544219484868
30
0
10
-59.040024104293984
20
99.866664033526632
30
0
10
-58.807119624434499
20
99.809468169244383
30
0
10
-58.658490332269224
20
99.772968309610164
30
0
0
SPLINE
5
379
100
AcDbEntity
8
0
100
AcDbSpline
70
1064
71
3
72
9
73
5
74
0
42
0.000000001
43
0.0000000001
44
0.0000000001
40
0
40
0
40
0
40
0
40
0.062375045728828994
40
0.107355987756905
40
0.107355987756905
40
0.107355987756905
40
0.107355987756905
10
-58.658490332269224
20
99.772968309610164
30
0
10
-58.455020464620262
20
99.721283356358711
30
0
10
-58.104820983962796
20
99.632326480357307
30
0
10
-57.805418885542181
20
99.432069166690781
30
0
10
-57.679972799920591
20
99.348163622110164
30
0
0
SPLINE
5
380
100
AcDbEntity
8
0
100
AcDbSpline
70
1064
71
3
72
9
73
5
74
0
42
0.000000001
43
0.0000000001
44
0.0000000001
40
0
40
0
40
0
40
0
40
0.04926289075580146
40
0.097384407253127303
40
0.097384407253127303
40
0.097384407253127303
40
0.097384407253127303
10
-57.679972799920591
20
99.348163622110164
30
0
10
-57.564620935723596
20
99.224547325794376
30
0
10
-57.336589800156403
20
98.980178805010311
30
0
10
-57.301703632908925
20
98.648032324166834
30
0
10
-57.284464987420591
20
98.48390551158694
30
0
0
SPLINE
5
381
100
AcDbEntity
8
0
100
AcDbSpline
70
1064
71
3
72
9
73
5
74
0
42
0.000000001
43
0.0000000001
44
0.0000000001
40
0
40
0
40
0
40
0
40
0.032089325630474903
40
0.064836960117674369
40
0.064836960117674369
40
0.064836960117674369
40
0.064836960117674369
10
-57.284464987420591
20
98.48390551158694
30
0
10
-57.292527233593901
20
98.375827330747526
30
0
10
-57.308817122001571
20
98.157453757511036
30
0
10
-57.416244131050874
20
97.966554618156621
30
0
10
-57.470503004693541
20
97.870135920732295
30
0
0
SPLINE
5
382
100
AcDbEntity
8
0
100
AcDbSpline
70
1064
71
3
72
9
73
5
74
0
42
0.000000001
43
0.0000000001
44
0.0000000001
40
0
40
0
40
0
40
0
40
0.033889233924357061
40
0.069832652926368186
40
0.069832652926368186
40
0.069832652926368186
40
0.069832652926368186
10
-57.470503004693541
20
97.870135920732295
30
0
10
-57.540980534389448
20
97.779916235675429
30
0
10
-57.686207566707388
20
97.594008228201247
30
0
10
-57.897751517985384
20
97.489083192348986
30
0
10
-58.006634863519224
20
97.435077446191585
30
0
0
SPLINE
5
383
100
AcDbEntity
8
0
100
AcDbSpline
70
1064
71
3
72
9
73
5
74
0
42
0.000000001
43
0.0000000001
44
0.0000000001
40
0
40
0
40
0
40
0
40
0.040227581404800539
40
0.086265407933546229
40
0.086265407933546229
40
0.086265407933546229
40
0.086265407933546229
10
-58.006634863519224
20
97.435077446191585
30
0
10
-58.13428455826844
20
97.391551299089912
30
0
10
-58.408020950206236
20
97.298212333524972
30
0
10
-58.697408465168181
20
97.290030145105504
30
0
10
-58.851847799920591
20
97.285663502900874
30
0
0
SPLINE
5
384
100
AcDbEntity
8
0
100
AcDbSpline
70
1064
71
3
72
9
73
5
74
0
42
0.000000001
43
0.0000000001
44
0.0000000001
40
0
40
0
40
0
40
0
40
0.071413846108046325
40
0.12880962044137792
40
0.12880962044137792
40
0.12880962044137792
40
0.12880962044137792
10
-58.851847799920591
20
97.285663502900874
30
0
10
-59.095050368269312
20
97.292826456623288
30
0
10
-59.533716428517209
20
97.30574632301483
30
0
10
-59.904096013631204
20
97.537077581606184
30
0
10
-60.069132002496275
20
97.640155571191585
30
0
0
SPLINE
5
385
100
AcDbEntity
8
0
100
AcDbSpline
70
1064
71
3
72
9
73
5
74
0
42
0.000000001
43
0.0000000001
44
0.0000000001
40
0
40
0
40
0
40
0
40
0.051804644929588015
40
0.10633380816515134
40
0.10633380816515134
40
0.10633380816515134
40
0.10633380816515134
10
-60.069132002496275
20
97.640155571191585
30
0
10
-60.189253315223013
20
97.770620922698029
30
0
10
-60.435813380278788
20
98.038413080681977
30
0
10
-60.47714024914174
20
98.400673426743992
30
0
10
-60.498333128594908
20
98.58644457408694
30
0
0
LINE
5
386
100
AcDbEntity
8
0
100
AcDbLine
10
-60.498333128594908
20
98.586444574086954
30
0
11
-59.631147535943541
21
98.624530750005519
31
0
0
SPLINE
5
387
100
AcDbEntity
8
0
100
AcDbSpline
70
1064
71
3
72
9
73
5
74
0
42
0.000000001
43
0.0000000001
44
0.0000000001
40
0
40
0
40
0
40
0
40
0.029770392504713292
40
0.054174810207292354
40
0.054174810207292354
40
0.054174810207292354
40
0.054174810207292354
10
-59.631147535943541
20
98.624530750005519
30
0
10
-59.61085268562244
20
98.52501980666139
30
0
10
-59.573921037369679
20
98.343934304736464
30
0
10
-59.448758663908635
20
98.209166229766055
30
0
10
-59.392376097344908
20
98.148456531255519
30
0
0
SPLINE
5
388
100
AcDbEntity
8
0
100
AcDbSpline
70
1064
71
3
72
9
73
5
74
0
42
0.000000001
43
0.0000000001
44
0.0000000001
40
0
40
0
40
0
40
0
40
0.025341008169246303
40
0.057588911365762718
40
0.057588911365762718
40
0.057588911365762718
40
0.057588911365762718
10
-59.392376097344908
20
98.148456531255519
30
0
10
-59.317763199642712
20
98.106314333535721
30
0
10
-59.148201060527484
20
98.010543744100801
30
0
10
-58.952593509615298
20
98.005988005004724
30
0
10
-58.843059691094908
20
98.003436940400874
30
0
0
SPLINE
5
389
100
AcDbEntity
8
0
100
AcDbSpline
70
1064
71
3
72
9
73
5
74
0
42
0.000000001
43
0.0000000001
44
0.0000000001
40
0
40
0
40
0
40
0
40
0.033914295450969488
40
0.061937058773234466
40
0.061937058773234466
40
0.061937058773234466
40
0.061937058773234466
10
-58.843059691094908
20
98.003436940400874
30
0
10
-58.728159265603622
20
98.007056838815657
30
0
10
-58.518318715708929
20
98.013667793219597
30
0
10
-58.334450899692627
20
98.113529122322205
30
0
10
-58.251261862420591
20
98.15871031829623
30
0
0
SPLINE
5
390
100
AcDbEntity
8
0
100
AcDbSpline
70
1064
71
3
72
9
73
5
74
0
42
0.000000001
43
0.0000000001
44
0.0000000001
40
0
40
0
40
0
40
0
40
0.015565084516464154
40
0.030969258077062113
40
0.030969258077062113
40
0.030969258077062113
40
0.030969258077062113
10
-58.251261862420591
20
98.15871031829623
30
0
10
-58.211100164727149
20
98.194575116856782
30
0
10
-58.131191958680127
20
98.265933945736194
30
0
10
-58.119420663179746
20
98.372370164418612
30
0
10
-58.113565596246275
20
98.42531176158694
30
0
0
SPLINE
5
391
100
AcDbEntity
8
0
100
AcDbSpline
70
1064
71
3
72
9
73
5
74
0
42
0.000000001
43
0.0000000001
44
0.0000000001
40
0
40
0
40
0
40
0
40
0.014498401970525114
40
0.029860835401541663
40
0.029860835401541663
40
0.029860835401541663
40
0.029860835401541663
10
-58.113565596246275
20
98.42531176158694
30
0
10
-58.119531041892444
20
98.474752352118628
30
0
10
-58.131817443586868
20
98.576579942429859
30
0
10
-58.204883587291036
20
98.648865492272066
30
0
10
-58.242473753594908
20
98.68605406829623
30
0
0
SPLINE
5
392
100
AcDbEntity
8
0
100
AcDbSpline
70
1064
71
3
72
9
73
5
74
0
42
0.000000001
43
0.0000000001
44
0.0000000001
40
0
40
0
40
0
40
0
40
0.03144453266964374
40
0.085047682127697269
40
0.085047682127697269
40
0.085047682127697269
40
0.085047682127697269
10
-58.242473753594908
20
98.68605406829623
30
0
10
-58.334915012375852
20
98.736299409885163
30
0
10
-58.584939869634304
20
98.872197433390483
30
0
10
-58.863672445449907
20
98.9341294099154
30
0
10
-59.039349707269224
20
98.973163383691585
30
0
0
SPLINE
5
393
100
AcDbEntity
8
0
100
AcDbSpline
70
1064
71
3
72
9
73
5
74
0
42
0.000000001
43
0.0000000001
44
0.0000000001
40
0
40
0
40
0
40
0
40
0.05710094464565018
40
0.098740706616956553
40
0.098740706616956553
40
0.098740706616956553
40
0.098740706616956553
10
-59.039349707269224
20
98.973163383691585
30
0
10
-59.224903103141529
20
99.01770602292703
30
0
10
-59.545767732217399
20
99.094730522258615
30
0
10
-59.847952172208053
20
99.226624771740319
30
0
10
-59.975385817193541
20
99.282245653360164
30
0
0
SPLINE
5
394
100
AcDbEntity
8
0
100
AcDbSpline
70
1064
71
3
72
9
73
5
74
0
42
0.000000001
43
0.0000000001
44
0.0000000001
40
0
40
0
40
0
40
0
40
0.032977136938299505
40
0.065077218895623484
40
0.065077218895623484
40
0.065077218895623484
40
0.065077218895623484
10
-59.975385817193541
20
99.282245653360164
30
0
10
-60.070568732264363
20
99.3397141045171
30
0
10
-60.258403091892887
20
99.453122584535535
30
0
10
-60.386704996665024
20
99.631019316102424
30
0
10
-60.449991377496275
20
99.71876891204623
30
0
0
SPLINE
5
395
100
AcDbEntity
8
0
100
AcDbSpline
70
1064
71
3
72
9
73
5
74
0
42
0.000000001
43
0.0000000001
44
0.0000000001
40
0
40
0
40
0
40
0
40
0.033508384898755461
40
0.071215995271023458
40
0.071215995271023458
40
0.071215995271023458
40
0.071215995271023458
10
-60.449991377496275
20
99.71876891204623
30
0
10
-60.499932538335059
20
99.820078319321397
30
0
10
-60.606073418740678
20
100.03539309176472
30
0
10
-60.616081732228118
20
100.275643028377
30
0
10
-60.621380957269224
20
100.40285112211016
30
0
0
SPLINE
5
396
100
AcDbEntity
8
0
100
AcDbSpline
70
1064
71
3
72
9
73
5
74
0
42
0.000000001
43
0.0000000001
44
0.0000000001
40
0
40
0
40
0
40
0
40
0.036108032924976913
40
0.072877929146397624
40
0.072877929146397624
40
0.072877929146397624
40
0.072877929146397624
10
-60.621380957269224
20
100.40285112211016
30
0
10
-60.61252981267728
20
100.52442360415941
30
0
10
-60.594665281264668
20
100.76979700213279
30
0
10
-60.476115862918583
20
100.98545099332667
30
0
10
-60.416302832269224
20
101.09425725290087
30
0
0
SPLINE
5
397
100
AcDbEntity
8
0
100
AcDbSpline
70
1064
71
3
72
9
73
5
74
0
42
0.000000001
43
0.0000000001
44
0.0000000001
40
0
40
0
40
0
40
0
40
0.037440842253735694
40
0.076147360641266107
40
0.076147360641266107
40
0.076147360641266107
40
0.076147360641266107
10
-60.416302832269224
20
101.09425725290087
30
0
10
-60.339854115275145
20
101.19519860250281
30
0
10
-60.184372355969096
20
101.40049359292171
30
0
10
-59.953553404390377
20
101.5150374629261
30
0
10
-59.836225660943541
20
101.57326133796481
30
0
0
SPLINE
5
398
100
AcDbEntity
8
0
100
AcDbSpline
70
1064
71
3
72
9
73
5
74
0
42
0.000000001
43
0.0000000001
44
0.0000000001
40
0
40
0
40
0
40
0
40
0.043724122633968132
40
0.095216397481111659
40
0.095216397481111659
40
0.095216397481111659
40
0.095216397481111659
10
-59.836225660943541
20
101.57326133796481
30
0
10
-59.696979871088629
20
101.61889618499777
30
0
10
-59.393749487590966
20
101.71827349601793
30
0
10
-59.074370871327481
20
101.72588386995716
30
0
10
-58.901653441094908
20
101.72999950000552
30
0
0
SPLINE
5
399
100
AcDbEntity
8
0
100
AcDbSpline
70
1064
71
3
72
9
73
5
74
0
42
0.000000001
43
0.0000000001
44
0.0000000001
40
0
40
0
40
0
40
0
40
0.072609714928145261
40
0.13275020366139445
40
0.13275020366139445
40
0.13275020366139445
40
0.13275020366139445
10
-58.901653441094908
20
101.72999950000552
30
0
10
-58.654473059855441
20
101.721123400247
30
0
10
-58.202560447567784
20
101.70489548843346
30
0
10
-57.822745424512689
20
101.46308389231055
30
0
10
-57.650675924920591
20
101.35353477546481
30
0
0
SPLINE
5
400
100
AcDbEntity
8
0
100
AcDbSpline
70
1064
71
3
72
9
73
5
74
0
42
0.000000001
43
0.0000000001
44
0.0000000001
40
0
40
0
40
0
40
0
40
0.057919931118950933
40
0.12369611314818532
40
0.12369611314818532
40
0.12369611314818532
40
0.12369611314818532
10
-57.650675924920591
20
101.35353477546481
30
0
10
-57.519137049383815
20
101.20687659471628
30
0
10
-57.238217384642383
20
100.89366753922342
30
0
10
-57.167040994398164
20
100.47760865939166
30
0
10
-57.129192503594908
20
100.25636674711016
30
0
0
LINE
5
401
100
AcDbEntity
8
0
100
AcDbLine
10
-57.129192503594908
20
100.25636674711016
30
0
11
-57.972941549920591
21
100.17433555671481
31
0
0
LWPOLYLINE
5
402
100
AcDbEntity
8
0
100
AcDbPolyline
90
10
70
1
43
0.0
10
-48.636026533746275
20
97.358905690400874
10
-47.792277487420591
20
97.358905690400874
10
-47.792277487420591
20
101.65382774421481
10
-48.597941549920591
20
101.65382774421481
10
-48.597941549920591
20
98.853046315400874
10
-50.329384955071959
20
101.65382774421481
10
-51.199503096246275
20
101.65382774421481
10
-51.199503096246275
20
97.358905690400874
10
-50.393839033746275
20
97.358905690400874
10
-50.393839033746275
20
100.22706987211016
0
LWPOLYLINE
5
403
100
AcDbEntity
8
0
100
AcDbPolyline
90
12
70
1
43
0.0
10
-84.887981566094908
20
97.358905690400888
10
-81.703410299920591
20
97.358905690400874
10
-81.703410299920591
20
101.65382774421481
10
-84.970011862420591
20
101.65382774421482
10
-84.970011862420591
20
100.93019487211018
10
-82.570595892571959
20
100.93019487211018
10
-82.570595892571959
20
99.761249738424112
10
-84.726848753594908
20
99.761249738424112
10
-84.726848753594908
20
99.037616568296244
10
-82.570595892571959
20
99.037616568296244
10
-82.570595892571959
20
98.085468130796244
10
-84.887981566094908
20
98.085468130796244
0
LINE
5
404
100
AcDbEntity
8
0
100
AcDbLine
10
-37.772741469049009
20
97.358905690400874
30
0
11
-39.164343031549009
21
97.358905690400874
31
0
0
SPLINE
5
405
100
AcDbEntity
8
0
100
AcDbSpline
70
1064
71
3
72
9
73
5
74
0
42
0.000000001
43
0.0000000001
44
0.0000000001
40
0
40
0
40
0
40
0
40
0.065351803565720915
40
0.10345285803938692
40
0.10345285803938692
40
0.10345285803938692
40
0.10345285803938692
10
-39.164343031549009
20
97.358905690400874
30
0
10
-39.382651249273096
20
97.357243753192577
30
0
10
-39.72823634141718
20
97.354612882356577
30
0
10
-40.069798670002335
20
97.404855007720883
30
0
10
-40.195593985223326
20
97.423358875005519
30
0
0
SPLINE
5
406
100
AcDbEntity
8
0
100
AcDbSpline
70
1064
71
3
72
9
73
5
74
0
42
0.000000001
43
0.0000000001
44
0.0000000001
40
0
40
0
40
0
40
0
40
0.037221188349992655
40
0.075839913347969592
40
0.075839913347969592
40
0.075839913347969592
40
0.075839913347969592
10
-40.195593985223326
20
97.423358875005519
30
0
10
-40.314370395698901
20
97.466010450080944
30
0
10
-40.55638289120408
20
97.552915030543531
30
0
10
-40.726917550686821
20
97.745633845731732
30
0
10
-40.813756140374693
20
97.84376891204623
30
0
0
SPLINE
5
407
100
AcDbEntity
8
0
100
AcDbSpline
70
1064
71
3
72
9
73
5
74
0
42
0.000000001
43
0.0000000001
44
0.0000000001
40
0
40
0
40
0
40
0
40
0.041533389945763659
40
0.08849330563716265
40
0.08849330563716265
40
0.08849330563716265
40
0.08849330563716265
10
-40.813756140374693
20
97.84376891204623
30
0
10
-40.88631445131935
20
97.96424282381345
30
0
10
-41.040911145577326
20
98.22093111025579
30
0
10
-41.055198069462307
20
98.520973983521117
30
0
10
-41.062779577874693
20
98.680194931714809
30
0
0
SPLINE
5
408
100
AcDbEntity
8
0
100
AcDbSpline
70
1064
71
3
72
9
73
5
74
0
42
0.000000001
43
0.0000000001
44
0.0000000001
40
0
40
0
40
0
40
0
40
0.036577854080494653
40
0.068547831201340614
40
0.068547831201340614
40
0.068547831201340614
40
0.068547831201340614
10
-41.062779577874693
20
98.680194931714809
30
0
10
-41.058580014573529
20
98.803276039238767
30
0
10
-41.050709925867572
20
99.033933173035081
30
0
10
-40.961044408057774
20
99.246223712952073
30
0
10
-40.919225367211851
20
99.34523375579623
30
0
0
SPLINE
5
409
100
AcDbEntity
8
0
100
AcDbSpline
70
1064
71
3
72
9
73
5
74
0
42
0.000000001
43
0.0000000001
44
0.0000000001
40
0
40
0
40
0
40
0
40
0.029059446701416847
40
0.056282630811522724
40
0.056282630811522724
40
0.056282630811522724
40
0.056282630811522724
10
-40.919225367211851
20
99.34523375579623
30
0
10
-40.869416794127048
20
99.429352378290261
30
0
10
-40.77294704509896
20
99.592274178655231
30
0
10
-40.625701485806374
20
99.711099620402535
30
0
10
-40.554480703973326
20
99.768573957174098
30
0
0
SPLINE
5
410
100
AcDbEntity
8
0
100
AcDbSpline
70
1064
71
3
72
9
73
5
74
0
42
0.000000001
43
0.0000000001
44
0.0000000001
40
0
40
0
40
0
40
0
40
0.025704946592502165
40
0.049607233856682031
40
0.049607233856682031
40
0.049607233856682031
40
0.049607233856682031
10
-40.554480703973326
20
99.768573957174098
30
0
10
-40.4819319028854
20
99.815173719557606
30
0
10
-40.341922067477263
20
99.905105254793639
30
0
10
-40.181884301586699
20
99.950374762355366
30
0
10
-40.104773195886168
20
99.972187000005519
30
0
0
SPLINE
5
411
100
AcDbEntity
8
0
100
AcDbSpline
70
1064
71
3
72
9
73
5
74
0
42
0.000000001
43
0.0000000001
44
0.0000000001
40
0
40
0
40
0
40
0
40
0.038291771769300285
40
0.090243304152499537
40
0.090243304152499537
40
0.090243304152499537
40
0.090243304152499537
10
-40.104773195886168
20
99.972187000005519
30
0
10
-39.978249509507194
20
99.990029209435235
30
0
10
-39.680067550699363
20
100.03207845024914
30
0
10
-39.378795414567236
20
100.03311410785878
30
0
10
-39.205358179711851
20
100.03371031829623
30
0
0
LINE
5
412
100
AcDbEntity
8
0
100
AcDbLine
10
-39.205358179711851
20
100.03371031829623
30
0
11
-38.639929445886168
21
100.03371031829623
31
0
0
LINE
5
413
100
AcDbEntity
8
0
100
AcDbLine
10
-38.639929445886168
20
100.03371031829623
30
0
11
-38.639929445886168
21
101.65382774421481
31
0
0
LINE
5
414
100
AcDbEntity
8
0
100
AcDbLine
10
-38.639929445886168
20
101.65382774421481
30
0
11
-37.772741469049009
21
101.65382774421481
31
0
0
LINE
5
415
100
AcDbEntity
8
0
100
AcDbLine
10
-37.772741469049009
20
101.65382774421481
30
0
11
-37.772741469049009
21
97.358905690400874
31
0
0
LWPOLYLINE
5
416
100
AcDbEntity
8
0
100
AcDbPolyline
90
12
70
1
43
0.0
10
60.582521264947005
20
106.51456989595202
10
61.319630449212141
20
106.51456989595202
10
61.319630449212141
20
110.1652533585718
10
60.582521264947005
20
110.1652533585718
10
60.582521264947005
20
108.56901325532702
10
59.138186281121321
20
108.56901325532702
10
59.138186281121321
20
110.1652533585718
10
58.401077096856184
20
110.1652533585718
10
58.401077096856184
20
106.51456989595202
10
59.138186281121321
20
106.51456989595202
10
59.138186281121321
20
107.95143507668284
10
60.582521264947005
20
107.95143507668284
0
SPLINE
5
417
100
AcDbEntity
8
0
100
AcDbSpline
70
1064
71
3
72
9
73
5
74
0
42
0.000000001
43
0.0000000001
44
0.0000000001
40
0
40
0
40
0
40
0
40
0.032813914058348062
40
0.060076123167503201
40
0.060076123167503201
40
0.060076123167503201
40
0.060076123167503201
10
78.375246231949873
20
108.90768505880145
30
0
10
78.351678586495012
20
109.01676718754736
30
0
10
78.308530647221573
20
109.21647610950835
30
0
10
78.173708005034371
20
109.36892469018332
30
0
10
78.112526243126936
20
109.43810500451831
30
0
0
SPLINE
5
418
100
AcDbEntity
8
0
100
AcDbSpline
70
1064
71
3
72
9
73
5
74
0
42
0.000000001
43
0.0000000001
44
0.0000000001
40
0
40
0
40
0
40
0
40
0.026494829952048705
40
0.056953391430515393
40
0.056953391430515393
40
0.056953391430515393
40
0.056953391430515393
10
78.112526243126936
20
109.43810500451831
30
0
10
78.037332229921915
20
109.48743077574471
30
0
10
77.875694881237393
20
109.59346164898881
30
0
10
77.681973358755144
20
109.6025698554128
30
0
10
77.578371470368452
20
109.60744090625552
30
0
0
SPLINE
5
419
100
AcDbEntity
8
0
100
AcDbSpline
70
1064
71
3
72
9
73
5
74
0
42
0.000000001
43
0.0000000001
44
0.0000000001
40
0
40
0
40
0
40
0
40
0.031447703121712217
40
0.05657489838785236
40
0.05657489838785236
40
0.05657489838785236
40
0.05657489838785236
10
77.578371470368452
20
109.60744090625552
30
0
10
77.471398122663871
20
109.60449779833417
30
0
10
77.278951435757307
20
109.59920310221753
30
0
10
77.114683734230354
20
109.50058278588899
30
0
10
77.041725819504805
20
109.45678152391223
30
0
0
SPLINE
5
420
100
AcDbEntity
8
0
100
AcDbSpline
70
1064
71
3
72
9
73
5
74
0
42
0.000000001
43
0.0000000001
44
0.0000000001
40
0
40
0
40
0
40
0
40
0.021222955994537655
40
0.040649249627650826
40
0.040649249627650826
40
0.040649249627650826
40
0.040649249627650826
10
77.041725819504805
20
109.45678152391223
30
0
10
76.989098600874669
20
109.40604948941825
30
0
10
76.888299402692482
20
109.30888021974653
30
0
10
76.869952120476981
20
109.17053074146949
30
0
10
76.861183946526594
20
109.10441346713809
30
0
0
SPLINE
5
421
100
AcDbEntity
8
0
100
AcDbSpline
70
1064
71
3
72
9
73
5
74
0
42
0.000000001
43
0.0000000001
44
0.0000000001
40
0
40
0
40
0
40
0
40
0.012133745168458313
40
0.023689605476038191
40
0.023689605476038191
40
0.023689605476038191
40
0.023689605476038191
10
76.861183946526594
20
109.10441346713809
30
0
10
76.864028077223082
20
109.06324761359255
30
0
10
76.869580883317695
20
108.98287648200549
30
0
10
76.914986678614014
20
108.91643723729925
30
0
10
76.937135761178084
20
108.8840279752901
30
0
0
SPLINE
5
422
100
AcDbEntity
8
0
100
AcDbSpline
70
1064
71
3
72
9
73
5
74
0
42
0.000000001
43
0.0000000001
44
0.0000000001
40
0
40
0
40
0
40
0
40
0.013451975380189796
40
0.031129623163096899
40
0.031129623163096899
40
0.031129623163096899
40
0.031129623163096899
10
76.937135761178084
20
108.8840279752901
30
0
10
76.970585814894875
20
108.85359029382238
30
0
10
77.047993596098706
20
108.78315353436741
30
0
10
77.146440673196878
20
108.74663557751597
30
0
10
77.202346032059737
20
108.72589804479388
30
0
0
SPLINE
5
423
100
AcDbEntity
8
0
100
AcDbSpline
70
1064
71
3
72
9
73
5
74
0
42
0.000000001
43
0.0000000001
44
0.0000000001
40
0
40
0
40
0
40
0
40
0.022123226980044163
40
0.061140607634867922
40
0.061140607634867922
40
0.061140607634867922
40
0.061140607634867922
10
77.202346032059737
20
108.72589804479388
30
0
10
77.272990823358157
20
108.70471258471315
30
0
10
77.468227506963103
20
108.64616362603147
30
0
10
77.666196205213623
20
108.59754765454954
30
0
10
77.792531555092879
20
108.56652297326831
30
0
0
SPLINE
5
424
100
AcDbEntity
8
0
100
AcDbSpline
70
1064
71
3
72
9
73
5
74
0
42
0.000000001
43
0.0000000001
44
0.0000000001
40
0
40
0
40
0
40
0
40
0.053018794225424819
40
0.091252444663172352
40
0.091252444663172352
40
0.091252444663172352
40
0.091252444663172352
10
77.792531555092879
20
108.56652297326831
30
0
10
77.9654810809173
20
108.52259100517767
30
0
10
78.26315037470988
20
108.44697820511871
30
0
10
78.517641163349239
20
108.27675877434133
30
0
10
78.624269669449873
20
108.20543892928866
30
0
0
SPLINE
5
425
100
AcDbEntity
8
0
100
AcDbSpline
70
1064
71
3
72
9
73
5
74
0
42
0.000000001
43
0.0000000001
44
0.0000000001
40
0
40
0
40
0
40
0
40
0.041873462020857441
40
0.082776742704193523
40
0.082776742704193523
40
0.082776742704193523
40
0.082776742704193523
10
78.624269669449873
20
108.20543892928866
30
0
10
78.722318944426888
20
108.10036517791046
30
0
10
78.916145755380825
20
107.89265216678027
30
0
10
78.94579856052323
20
107.61032755036162
30
0
10
78.960451190865584
20
107.47081972905902
30
0
0
SPLINE
5
426
100
AcDbEntity
8
0
100
AcDbSpline
70
1064
71
3
72
9
73
5
74
0
42
0.000000001
43
0.0000000001
44
0.0000000001
40
0
40
0
40
0
40
0
40
0.027275909461867726
40
0.055111351497588154
40
0.055111351497588154
40
0.055111351497588154
40
0.055111351497588154
10
78.960451190865584
20
107.47081972905902
30
0
10
78.953599049781374
20
107.37895322850335
30
0
10
78.939754204155548
20
107.19333569629774
30
0
10
78.848441267877831
20
107.03107155566735
30
0
10
78.802321260369368
20
106.94911577054766
30
0
0
SPLINE
5
427
100
AcDbEntity
8
0
100
AcDbSpline
70
1064
71
3
72
9
73
5
74
0
42
0.000000001
43
0.0000000001
44
0.0000000001
40
0
40
0
40
0
40
0
40
0.028805852950666035
40
0.059357804289514995
40
0.059357804289514995
40
0.059357804289514995
40
0.059357804289514995
10
78.802321260369368
20
106.94911577054766
30
0
10
78.742415317299475
20
106.8724290539279
30
0
10
78.618972166679669
20
106.71440717120434
30
0
10
78.439159596795079
20
106.62522093077457
30
0
10
78.346608584321089
20
106.57931603738574
30
0
0
SPLINE
5
428
100
AcDbEntity
8
0
100
AcDbSpline
70
1064
71
3
72
9
73
5
74
0
42
0.000000001
43
0.0000000001
44
0.0000000001
40
0
40
0
40
0
40
0
40
0.034193435858240501
40
0.07332576693431736
40
0.07332576693431736
40
0.07332576693431736
40
0.07332576693431736
10
78.346608584321089
20
106.57931603738574
30
0
10
78.238106384449949
20
106.54231877203466
30
0
10
78.005429941737475
20
106.46298036136469
30
0
10
77.759449963392669
20
106.45602562480713
30
0
10
77.628175919449873
20
106.45231403657702
30
0
0
SPLINE
5
429
100
AcDbEntity
8
0
100
AcDbSpline
70
1064
71
3
72
9
73
5
74
0
42
0.000000001
43
0.0000000001
44
0.0000000001
40
0
40
0
40
0
40
0
40
0.060701805325400066
40
0.1094882735805848
40
0.1094882735805848
40
0.1094882735805848
40
0.1094882735805848
10
77.628175919449873
20
106.45231403657702
30
0
10
77.421453622693576
20
106.45840257337352
30
0
10
77.048587160796288
20
106.46938451005406
30
0
10
76.733764181501499
20
106.66601614995912
30
0
10
76.593483393586226
20
106.75363250324038
30
0
0
SPLINE
5
430
100
AcDbEntity
8
0
100
AcDbSpline
70
1064
71
3
72
9
73
5
74
0
42
0.000000001
43
0.0000000001
44
0.0000000001
40
0
40
0
40
0
40
0
40
0.044033601609161449
40
0.09038347987066922
40
0.09038347987066922
40
0.09038347987066922
40
0.09038347987066922
10
76.593483393586226
20
106.75363250324038
30
0
10
76.491382888409902
20
106.86452837101601
30
0
10
76.281811138265596
20
107.09215350424503
30
0
10
76.246679967113451
20
107.40007287039573
30
0
10
76.228664224541731
20
107.55797811099795
30
0
0
LINE
5
431
100
AcDbEntity
8
0
100
AcDbLine
10
76.228664224541731
20
107.55797811099795
30
0
11
76.965773408806868
21
107.59035118171481
31
0
0
SPLINE
5
432
100
AcDbEntity
8
0
100
AcDbSpline
70
1064
71
3
72
9
73
5
74
0
42
0.000000001
43
0.0000000001
44
0.0000000001
40
0
40
0
40
0
40
0
40
0.025304723443950228
40
0.046048618489662643
40
0.046048618489662643
40
0.046048618489662643
40
0.046048618489662643
10
76.965773408806868
20
107.59035118171481
30
0
10
76.983022520101059
20
107.50576674572117
30
0
10
77.014411827596589
20
107.35184305507656
30
0
10
77.120801569490524
20
107.23729119999649
30
0
10
77.168727820313521
20
107.18568809577731
30
0
0
SPLINE
5
433
100
AcDbEntity
8
0
100
AcDbSpline
70
1064
71
3
72
9
73
5
74
0
42
0.000000001
43
0.0000000001
44
0.0000000001
40
0
40
0
40
0
40
0
40
0.021539851827344744
40
0.048950570046964605
40
0.048950570046964605
40
0.048950570046964605
40
0.048950570046964605
10
77.168727820313521
20
107.18568809577731
30
0
10
77.232148787581508
20
107.14986727903344
30
0
10
77.376276636072902
20
107.06846238297314
30
0
10
77.542543025535267
20
107.06458995247922
30
0
10
77.635646765626021
20
107.06242151805667
30
0
0
SPLINE
5
434
100
AcDbEntity
8
0
100
AcDbSpline
70
1064
71
3
72
9
73
5
74
0
42
0.000000001
43
0.0000000001
44
0.0000000001
40
0
40
0
40
0
40
0
40
0.02882710504218575
40
0.052646423201359732
40
0.052646423201359732
40
0.052646423201359732
40
0.052646423201359732
10
77.635646765626021
20
107.06242151805667
30
0
10
77.733311958306771
20
107.06549850754696
30
0
10
77.911676142236757
20
107.07111795808336
30
0
10
78.067963596618043
20
107.15599986337807
30
0
10
78.138674204743452
20
107.19440378495959
30
0
0
SPLINE
5
435
100
AcDbEntity
8
0
100
AcDbSpline
70
1064
71
3
72
9
73
5
74
0
42
0.000000001
43
0.0000000001
44
0.0000000001
40
0
40
0
40
0
40
0
40
0.01323023305773038
40
0.026323809395356043
40
0.026323809395356043
40
0.026323809395356043
40
0.026323809395356043
10
78.138674204743452
20
107.19440378495959
30
0
10
78.172811011211365
20
107.22488898953891
30
0
10
78.240732020834272
20
107.28554451323399
30
0
10
78.250738040149983
20
107.37601491293424
30
0
10
78.255715077317305
20
107.4210152799776
30
0
0
SPLINE
5
436
100
AcDbEntity
8
0
100
AcDbSpline
70
1064
71
3
72
9
73
5
74
0
42
0.000000001
43
0.0000000001
44
0.0000000001
40
0
40
0
40
0
40
0
40
0.01232366304495537
40
0.025381536350456937
40
0.025381536350456937
40
0.025381536350456937
40
0.025381536350456937
10
78.255715077317305
20
107.4210152799776
30
0
10
78.250643727525713
20
107.46303962885777
30
0
10
78.240198890742079
20
107.5495920228023
30
0
10
78.178094761040427
20
107.61103549225362
30
0
10
78.146144454873152
20
107.64264591285495
30
0
0
SPLINE
5
437
100
AcDbEntity
8
0
100
AcDbSpline
70
1064
71
3
72
9
73
5
74
0
42
0.000000001
43
0.0000000001
44
0.0000000001
40
0
40
0
40
0
40
0
40
0.026727985382751372
40
0.072290433078787311
40
0.072290433078787311
40
0.072290433078787311
40
0.072290433078787311
10
78.146144454873152
20
107.64264591285495
30
0
10
78.067568899098063
20
107.68535446746239
30
0
10
77.85504779527956
20
107.80086709830709
30
0
10
77.618125635073568
20
107.85350983151282
30
0
10
77.4688008479243
20
107.88668893524913
30
0
0
SPLINE
5
438
100
AcDbEntity
8
0
100
AcDbSpline
70
1064
71
3
72
9
73
5
74
0
42
0.000000001
43
0.0000000001
44
0.0000000001
40
0
40
0
40
0
40
0
40
0.048535920237837073
40
0.083929501409035087
40
0.083929501409035087
40
0.083929501409035087
40
0.083929501409035087
10
77.4688008479243
20
107.88668893524913
30
0
10
77.311080013136163
20
107.92455007132622
30
0
10
77.038345284697556
20
107.9900204746514
30
0
10
76.781489059597774
20
108.10213105958177
30
0
10
76.673171227372237
20
108.14940877506045
30
0
0
SPLINE
5
439
100
AcDbEntity
8
0
100
AcDbSpline
70
1064
71
3
72
9
73
5
74
0
42
0.000000001
43
0.0000000001
44
0.0000000001
40
0
40
0
40
0
40
0
40
0.028030695965529168
40
0.055315876467615724
40
0.055315876467615724
40
0.055315876467615724
40
0.055315876467615724
10
76.673171227372237
20
108.14940877506045
30
0
10
76.592265254152466
20
108.1982569605259
30
0
10
76.432605114938625
20
108.29465414581863
30
0
10
76.323547287131518
20
108.44586646557062
30
0
10
76.269753282464094
20
108.52045364925173
30
0
0
SPLINE
5
440
100
AcDbEntity
8
0
100
AcDbSpline
70
1064
71
3
72
9
73
5
74
0
42
0.000000001
43
0.0000000001
44
0.0000000001
40
0
40
0
40
0
40
0
40
0.028482078195266818
40
0.060533507320927778
40
0.060533507320927778
40
0.060533507320927778
40
0.060533507320927778
10
76.269753282464094
20
108.52045364925173
30
0
10
76.227303572442253
20
108.60656661582362
30
0
10
76.137084389180345
20
108.78958415607013
30
0
10
76.128578487717732
20
108.99379639215077
30
0
10
76.124074762261458
20
109.10192318507937
30
0
0
SPLINE
5
441
100
AcDbEntity
8
0
100
AcDbSpline
70
1064
71
3
72
9
73
5
74
0
42
0.000000001
43
0.0000000001
44
0.0000000001
40
0
40
0
40
0
40
0
40
0.030691841696656175
40
0.061946253841077881
40
0.061946253841077881
40
0.061946253841077881
40
0.061946253841077881
10
76.124074762261458
20
109.10192318507937
30
0
10
76.131598366838986
20
109.20525981051179
30
0
10
76.146783480966903
20
109.41382718464938
30
0
10
76.247550073441857
20
109.59713330728228
30
0
10
76.298390930092879
20
109.68961872407702
30
0
0
SPLINE
5
442
100
AcDbEntity
8
0
100
AcDbSpline
70
1064
71
3
72
9
73
5
74
0
42
0.000000001
43
0.0000000001
44
0.0000000001
40
0
40
0
40
0
40
0
40
0.031824600317398734
40
0.064725299574652728
40
0.064725299574652728
40
0.064725299574652728
40
0.064725299574652728
10
76.298390930092879
20
109.68961872407702
30
0
10
76.363372022778748
20
109.775418642907
30
0
10
76.495531441870725
20
109.94991967023695
30
0
10
76.691728010695613
20
110.04728151872713
30
0
10
76.791457240975447
20
110.09677179405001
30
0
0
SPLINE
5
443
100
AcDbEntity
8
0
100
AcDbSpline
70
1064
71
3
72
9
73
5
74
0
42
0.000000001
43
0.0000000001
44
0.0000000001
40
0
40
0
40
0
40
0
40
0.037165517058795755
40
0.080933758909541381
40
0.080933758909541381
40
0.080933758909541381
40
0.080933758909541381
10
76.791457240975447
20
110.09677179405001
30
0
10
76.909816149791908
20
110.13556162680953
30
0
10
77.167561289615833
20
110.22003258863508
30
0
10
77.439032535812473
20
110.22650128678755
30
0
10
77.585841720498152
20
110.22999950000552
30
0
0
SPLINE
5
444
100
AcDbEntity
8
0
100
AcDbSpline
70
1064
71
3
72
9
73
5
74
0
42
0.000000001
43
0.0000000001
44
0.0000000001
40
0
40
0
40
0
40
0
40
0.061718184062681092
40
0.11283760788092656
40
0.11283760788092656
40
0.11283760788092656
40
0.11283760788092656
10
77.585841720498152
20
110.22999950000552
30
0
10
77.79594480459194
20
110.22245487584227
30
0
10
78.180070322502061
20
110.20866125317059
30
0
10
78.50291282966009
20
110.0031213523678
30
0
10
78.649171893990584
20
109.91000451394824
30
0
0
SPLINE
5
445
100
AcDbEntity
8
0
100
AcDbSpline
70
1064
71
3
72
9
73
5
74
0
42
0.000000001
43
0.0000000001
44
0.0000000001
40
0
40
0
40
0
40
0
40
0.049232052759670443
40
0.10514181928989869
40
0.10514181928989869
40
0.10514181928989869
40
0.10514181928989869
10
78.649171893990584
20
109.91000451394824
30
0
10
78.760980896336235
20
109.78534526593077
30
0
10
78.999764397341096
20
109.51911829806801
30
0
10
79.060263180326132
20
109.16546737609336
30
0
10
79.092433755791731
20
108.97741146632937
30
0
0
LINE
5
446
100
AcDbEntity
8
0
100
AcDbLine
10
79.092433755791717
20
108.97741146632936
30
0
11
78.375246231949873
21
108.90768505880145
31
0
0
LINE
5
447
100
AcDbEntity
8
0
100
AcDbLine
10
85.992873018181868
20
106.51456989595202
30
0
11
84.4414570979243
21
106.51456989595202
31
0
0
SPLINE
5
448
100
AcDbEntity
8
0
100
AcDbSpline
70
1064
71
3
72
9
73
5
74
0
42
0.000000001
43
0.0000000001
44
0.0000000001
40
0
40
0
40
0
40
0
40
0.050580441900969546
40
0.085880820919326015
40
0.085880820919326015
40
0.085880820919326015
40
0.085880820919326015
10
84.4414570979243
20
106.51456989595202
30
0
10
84.272017373040882
20
106.51480461085845
30
0
10
83.98432469732596
20
106.51520313463736
30
0
10
83.705606115215403
20
106.58446472597326
30
0
10
83.591041868126936
20
106.61293395110873
30
0
0
SPLINE
5
449
100
AcDbEntity
8
0
100
AcDbSpline
70
1064
71
3
72
9
73
5
74
0
42
0.000000001
43
0.0000000001
44
0.0000000001
40
0
40
0
40
0
40
0
40
0.027509236322174023
40
0.055793437785265965
40
0.055793437785265965
40
0.055793437785265965
40
0.055793437785265965
10
83.591041868126936
20
106.61293395110873
30
0
10
83.506691181119947
20
106.6526720177261
30
0
10
83.335613556406855
20
106.73326761556672
30
0
10
83.223362319377898
20
106.88559196454769
30
0
10
83.166457121766157
20
106.96281202384738
30
0
0
SPLINE
5
450
100
AcDbEntity
8
0
100
AcDbSpline
70
1064
71
3
72
9
73
5
74
0
42
0.000000001
43
0.0000000001
44
0.0000000001
40
0
40
0
40
0
40
0
40
0.029488062918715384
40
0.060314261821096775
40
0.060314261821096775
40
0.060314261821096775
40
0.060314261821096775
10
83.166457121766157
20
106.96281202384738
30
0
10
83.119979194760901
20
107.05080698142808
30
0
10
83.024914223351104
20
107.23079001134388
30
0
10
83.01311337936491
20
107.43413033179473
30
0
10
83.007082050240584
20
107.53805615255145
30
0
0
SPLINE
5
451
100
AcDbEntity
8
0
100
AcDbSpline
70
1064
71
3
72
9
73
5
74
0
42
0.000000001
43
0.0000000001
44
0.0000000001
40
0
40
0
40
0
40
0
40
0.037992160202907431
40
0.073337751868222847
40
0.073337751868222847
40
0.073337751868222847
40
0.073337751868222847
10
83.007082050240584
20
107.53805615255145
30
0
10
83.015612319731048
20
107.66730610181688
30
0
10
83.032078632357667
20
107.91680233097529
30
0
10
83.178207103864224
20
108.11913121827827
30
0
10
83.248634641564436
20
108.21664490052966
30
0
0
SPLINE
5
452
100
AcDbEntity
8
0
100
AcDbSpline
70
1064
71
3
72
9
73
5
74
0
42
0.000000001
43
0.0000000001
44
0.0000000001
40
0
40
0
40
0
40
0
40
0.037203085606373129
40
0.080944120862649988
40
0.080944120862649988
40
0.080944120862649988
40
0.080944120862649988
10
83.248634641564436
20
108.21664490052966
30
0
10
83.344736367488096
20
108.29832809804488
30
0
10
83.553828425081889
20
108.476049233385
30
0
10
83.824523185757073
20
108.52670040207963
30
0
10
83.970802729523726
20
108.55407156297473
30
0
0
SPLINE
5
453
100
AcDbEntity
8
0
100
AcDbSpline
70
1064
71
3
72
9
73
5
74
0
42
0.000000001
43
0.0000000001
44
0.0000000001
40
0
40
0
40
0
40
0
40
0.026271321980167742
40
0.050093547148459469
40
0.050093547148459469
40
0.050093547148459469
40
0.050093547148459469
10
83.970802729523726
20
108.55407156297473
30
0
10
83.896007305957482
20
108.60020377774235
30
0
10
83.753389127864551
20
108.68816761440311
30
0
10
83.633238822402305
20
108.8048715030986
30
0
10
83.576100771821089
20
108.86037059375552
30
0
0
SPLINE
5
454
100
AcDbEntity
8
0
100
AcDbSpline
70
1064
71
3
72
9
73
5
74
0
42
0.000000001
43
0.0000000001
44
0.0000000001
40
0
40
0
40
0
40
0
40
0.029499443134261026
40
0.072684579735976529
40
0.072684579735976529
40
0.072684579735976529
40
0.072684579735976529
10
83.576100771821089
20
108.86037059375552
30
0
10
83.513779528050833
20
108.93654901173286
30
0
10
83.360224310365965
20
109.12424734456019
30
0
10
83.232426404601796
20
109.33050159143176
30
0
10
83.156495993531294
20
109.45304639884738
30
0
0
LINE
5
455
100
AcDbEntity
8
0
100
AcDbLine
10
83.156495993531294
20
109.45304639884738
30
0
11
82.710744147694655
21
110.1652533585718
31
0
0
LINE
5
456
100
AcDbEntity
8
0
100
AcDbLine
10
82.710744147694655
20
110.1652533585718
30
0
11
83.592287009156294
21
110.1652533585718
31
0
0
LINE
5
457
100
AcDbEntity
8
0
100
AcDbLine
10
83.592287009156294
20
110.1652533585718
30
0
11
84.125197236931868
21
109.37086858102587
31
0
0
SPLINE
5
458
100
AcDbEntity
8
0
100
AcDbSpline
70
1064
71
3
72
9
73
5
74
0
42
0.000000001
43
0.0000000001
44
0.0000000001
40
0
40
0
40
0
40
0
40
0.042144173293202566
40
0.066281474479736646
40
0.066281474479736646
40
0.066281474479736646
40
0.066281474479736646
10
84.125197236931868
20
109.37086858102587
30
0
10
84.20257277675131
20
109.25347171854443
30
0
10
84.324263735836396
20
109.06883795931917
30
0
10
84.463110755316166
20
108.8968534356067
30
0
10
84.513673787510939
20
108.83422293016223
30
0
0
SPLINE
5
459
100
AcDbEntity
8
0
100
AcDbSpline
70
1064
71
3
72
9
73
5
74
0
42
0.000000001
43
0.0000000001
44
0.0000000001
40
0
40
0
40
0
40
0
40
0.014254958744303393
40
0.027062887191525973
40
0.027062887191525973
40
0.027062887191525973
40
0.027062887191525973
10
84.513673787510939
20
108.83422293016223
30
0
10
84.547898128786045
20
108.80061480420017
30
0
10
84.612872675801356
20
108.73681013538672
30
0
10
84.695975178338742
20
108.69982329639429
30
0
10
84.735304718411513
20
108.6823187048128
30
0
0
SPLINE
5
460
100
AcDbEntity
8
0
100
AcDbSpline
70
1064
71
3
72
9
73
5
74
0
42
0.000000001
43
0.0000000001
44
0.0000000001
40
0
40
0
40
0
40
0
40
0.015438845643188823
40
0.037439162004438843
40
0.037439162004438843
40
0.037439162004438843
40
0.037439162004438843
10
84.735304718411513
20
108.6823187048128
30
0
10
84.785529983260005
20
108.67042400355768
30
0
10
84.907326124683848
20
108.64157938281485
30
0
10
85.032685095909358
20
108.64135928225957
30
0
10
85.106349592602797
20
108.64122994491366
30
0
0
LINE
5
461
100
AcDbEntity
8
0
100
AcDbLine
10
85.106349592602783
20
108.64122994491365
30
0
11
85.255763684905119
21
108.64122994491366
31
0
0
LINE
5
462
100
AcDbEntity
8
0
100
AcDbLine
10
85.255763684905119
20
108.64122994491366
30
0
11
85.255763684905119
21
110.1652533585718
31
0
0
LINE
5
463
100
AcDbEntity
8
0
100
AcDbLine
10
85.255763684905119
20
110.1652533585718
30
0
11
85.992873018181868
21
110.1652533585718
31
0
0
LINE
5
464
100
AcDbEntity
8
0
100
AcDbLine
10
85.992873018181868
20
110.1652533585718
30
0
11
85.992873018181868
21
106.51456989595202
31
0
0
LWPOLYLINE
5
465
100
AcDbEntity
8
0
100
AcDbPolyline
90
8
70
1
43
0.0
10
103.79074098382586
20
104.53786746564961
10
103.86145166194451
20
104.6085781437683
42
0.41421356237309503
10
103.86145166194451
20
104.89142085624292
10
97.144294374419204
20
111.60857814376824
42
0.41421356237316864
10
96.861451661944585
20
111.60857814376824
10
96.790740983825913
20
111.53786746564955
42
0.41421356237316864
10
96.790740983825913
20
111.25502475317495
10
103.50789827135125
20
104.53786746564964
42
0.41421356237305823
0
LINE
5
466
100
AcDbEntity
8
0
100
AcDbLine
10
77.836503962971008
20
-122.78553440592728
30
0
11
76.151921537610036
21
-121.10095198056632
31
0
0
ARC
5
467
100
AcDbEntity
8
0
100
AcDbCircle
10
81.372037868903746
20
-119.25000049999457
30
0
40
4.9999999999999716
100
AcDbArc
50
224.99999999999977
51
270
0
LINE
5
468
100
AcDbEntity
8
0
100
AcDbLine
10
102.00287301818182
20
-124.25000049999454
30
0
11
81.372037868903746
21
-124.25000049999454
31
0
0
ARC
5
469
100
AcDbEntity
8
0
100
AcDbCircle
10
102.00287301818179
20
-120.25000049999451
30
0
40
4.0000000000000213
100
AcDbArc
50
270.0000000000004
51
360
0
LINE
5
470
100
AcDbEntity
8
0
100
AcDbLine
10
106.00287301818183
20
103.74999950000559
30
0
11
106.00287301818182
21
-120.25000049999454
31
0
0
ARC
5
471
100
AcDbEntity
8
0
100
AcDbCircle
10
96.002873018181916
20
103.7499995000056
30
0
40
9.9999999999999112
100
AcDbArc
50
0
51
90.000000000000242
0
LINE
5
472
100
AcDbEntity
8
0
100
AcDbLine
10
-95.997126981818212
20
113.74999950000552
30
0
11
96.002873018181873
21
113.74999950000552
31
0
0
ARC
5
473
100
AcDbEntity
8
0
100
AcDbCircle
10
-95.997126981818184
20
103.74999950000552
30
0
40
10
100
AcDbArc
50
90.000000000000171
51
180
0
LINE
5
474
100
AcDbEntity
8
0
100
AcDbLine
10
-105.9971269818182
20
-120.2500004999945
30
0
11
-105.99712698181818
21
103.74999950000556
31
0
0
ARC
5
475
100
AcDbEntity
8
0
100
AcDbCircle
10
-101.99712698181818
20
-120.2500004999945
30
0
40
4.0000000000000213
100
AcDbArc
50
180
51
269.99999999999983
0
LINE
5
476
100
AcDbEntity
8
0
100
AcDbLine
10
-81.366291832540085
20
-124.25000049999453
30
0
11
-101.9971269818182
21
-124.25000049999453
31
0
0
ARC
5
477
100
AcDbEntity
8
0
100
AcDbCircle
10
-81.366291832540128
20
-119.25000049999447
30
0
40
5.0000000000000533
100
AcDbArc
50
270.00000000000051
51
314.99999999999955
0
LINE
5
478
100
AcDbEntity
8
0
100
AcDbLine
10
-76.146175501246404
20
-121.10095198056629
30
0
11
-77.830757926607376
21
-122.78553440592728
31
0
0
ARC
5
479
100
AcDbEntity
8
0
100
AcDbCircle
10
-74.997126981818184
20
-122.25000049999453
30
0
40
1.6250000000001195
100
AcDbArc
50
90.101339037024701
51
134.99999999999966
0
LINE
5
480
100
AcDbEntity
8
0
100
AcDbLine
10
75.002873018181816
20
-120.62500049999443
30
0
11
-75.00000111758709
21
-120.62500049999441
31
0
0
ARC
5
481
100
AcDbEntity
8
0
100
AcDbCircle
10
75.002873018181816
20
-122.25000049999453
30
0
40
1.6250000000001097
100
AcDbArc
50
44.999999999999638
51
90
0
ENDSEC
0
SECTION
2
OBJECTS
0
DICTIONARY
5
C
100
AcDbDictionary
3
ACAD_GROUP
350
D
3
ACAD_MLINESTYLE
350
17
0
DICTIONARY
5
D
100
AcDbDictionary
0
DICTIONARY
5
1A
330
C
100
AcDbDictionary
0
DICTIONARY
5
17
100
AcDbDictionary
0
ENDSEC
0
EOF
