<?xml version="1.0" encoding="UTF-8" standalone="no"?>
<!DOCTYPE svg PUBLIC "-//W3C//DTD SVG 1.1//EN" "http://www.w3.org/Graphics/SVG/1.1/DTD/svg11.dtd">
<svg width="100%" height="100%" viewBox="0 0 2600 2895" version="1.1" xmlns="http://www.w3.org/2000/svg" xmlns:xlink="http://www.w3.org/1999/xlink" xml:space="preserve" xmlns:serif="http://www.serif.com/" style="fill-rule:evenodd;clip-rule:evenodd;stroke-linecap:round;stroke-linejoin:round;stroke-miterlimit:1.5;">
    <g transform="matrix(-4.16667,-1.32996e-15,1.32996e-15,-4.16667,1381.14,4984.84)">
        <g transform="matrix(-0.0267032,8.52338e-18,-3.19234e-16,-1.00014,331.096,910.612)">
            <path d="M-14.173,350.932L638.386,350.932" style="fill:none;stroke:black;stroke-width:1px;"/>
        </g>
        <g transform="matrix(-0.0267032,8.52338e-18,-3.19234e-16,-1.00014,-275.327,910.612)">
            <path d="M-14.173,350.932L638.386,350.932" style="fill:none;stroke:black;stroke-width:1px;"/>
        </g>
        <g transform="matrix(2.80791,0,0,2.80791,7.67646,-1542.64)">
            <path d="M37.316,744.848L37.216,744.841L37.117,744.829L37.018,744.812L36.921,744.791L36.824,744.765L36.729,744.735L36.635,744.7L36.543,744.66L36.453,744.617L36.365,744.569L36.28,744.517L36.197,744.461L36.117,744.401L36.04,744.337L35.966,744.27L35.895,744.199L35.827,744.125L35.764,744.048L35.704,743.968L35.648,743.885L35.596,743.799L29.269,732.841L29.221,732.753L29.177,732.663L29.138,732.571L29.103,732.478L29.072,732.382L29.046,732.286L29.025,732.188L29.009,732.089L28.997,731.99L28.99,731.89L28.987,731.79L28.99,731.69L28.997,731.59L29.009,731.491L29.025,731.392L29.046,731.294L29.072,731.198L29.103,731.102L29.138,731.009L29.177,730.917L29.221,730.827L29.269,730.739L29.355,730.589L29.407,730.503L29.464,730.421L29.524,730.34L29.587,730.263L29.655,730.189L29.725,730.118L29.799,730.051L29.877,729.987L29.957,729.927L30.039,729.871L30.125,729.819L30.213,729.771L30.303,729.728L30.395,729.688L30.488,729.653L30.584,729.623L30.68,729.597L30.778,729.576L30.877,729.559L30.976,729.547L31.076,729.54L31.176,729.538L43.83,729.538L43.93,729.54L44.03,729.547L44.129,729.559L44.228,729.576L44.325,729.597L44.422,729.623L44.517,729.653L44.611,729.688L44.703,729.728L44.793,729.771L44.881,729.819L44.966,729.871L45.049,729.927L45.129,729.987L45.206,730.051L45.281,730.118L45.351,730.189L45.419,730.263L45.482,730.34L45.542,730.421L45.598,730.503L45.65,730.589L45.737,730.739L45.785,730.827L45.829,730.917L45.868,731.009L45.903,731.102L45.934,731.198L45.959,731.294L45.981,731.392L45.997,731.491L46.009,731.59L46.016,731.69L46.019,731.79L46.016,731.89L46.009,731.99L45.997,732.089L45.981,732.188L45.959,732.286L45.933,732.382L45.903,732.478L45.868,732.571L45.829,732.663L45.785,732.753L45.737,732.841L39.41,743.799L39.358,743.885L39.302,743.968L39.242,744.048L39.178,744.125L39.111,744.199L39.04,744.27L38.966,744.337L38.889,744.401L38.809,744.461L38.726,744.517L38.641,744.569L38.553,744.617L38.463,744.66L38.371,744.7L38.277,744.735L38.182,744.765L38.085,744.791L37.987,744.812L37.889,744.829L37.789,744.841L37.69,744.848L37.589,744.85L37.416,744.85L37.316,744.848ZM37.59,742.748L43.916,731.79L43.83,731.64L31.176,731.64L31.09,731.79L37.416,742.748L37.59,742.748Z"/>
        </g>
        <g transform="matrix(2.80791,0,0,2.80791,7.67646,-1542.64)">
            <path d="M38.247,740.094L38.254,738.423L37.914,734.807L37.142,734.804L36.777,738.417L36.77,740.088L38.247,740.094Z"/>
        </g>
        <g transform="matrix(2.80791,0,0,2.80791,7.67646,-1542.64)">
            <path d="M36.847,734.332L38.213,734.337L38.218,732.972L36.853,732.967L36.847,734.332Z"/>
        </g>
        <g transform="matrix(2.80791,0,0,2.80791,10.428,-1537.67)">
            <path d="M-103.502,737.352L-96.785,730.635L-96.785,730.352L-96.856,730.281L-97.138,730.281L-103.856,736.998L-103.856,737.281L-103.785,737.352L-103.502,737.352Z" style="stroke:black;stroke-width:0.26px;stroke-linecap:butt;stroke-miterlimit:1.41421;"/>
        </g>
        <g transform="matrix(2.80791,0,0,2.80791,7.67646,-1542.64)">
            <rect x="5.003" y="729.64" width="16" height="2"/>
        </g>
        <g transform="matrix(2.80791,0,0,2.80791,10.428,-1537.67)">
            <path d="M-96.078,731.342L-102.795,738.059L-102.795,738.342L-102.724,738.413L-102.441,738.413L-95.724,731.695L-95.724,731.413L-95.795,731.342L-96.078,731.342Z" style="stroke:black;stroke-width:0.26px;stroke-linecap:butt;stroke-miterlimit:1.41421;"/>
        </g>
        <g transform="matrix(2.80791,0,0,2.80791,28.7472,-1537.67)">
            <path d="M95.801,731.342L95.73,731.413L95.73,731.695L102.447,738.413L102.73,738.413L102.801,738.342L102.801,738.059L96.084,731.342L95.801,731.342Z" style="stroke:black;stroke-width:0.26px;stroke-linecap:butt;stroke-miterlimit:1.41421;"/>
        </g>
        <g transform="matrix(2.80791,0,0,2.80791,10.428,-1537.67)">
            <path d="M-95.017,732.403L-94.734,732.403L-94.664,732.473L-94.664,732.756L-101.381,739.473L-101.664,739.473L-101.734,739.403L-101.734,739.12L-95.017,732.403Z" style="stroke:black;stroke-width:0.26px;stroke-linecap:butt;stroke-miterlimit:1.41421;"/>
        </g>
        <g transform="matrix(2.80791,0,0,2.80791,28.7472,-1537.67)">
            <path d="M103.791,737.352L103.861,737.281L103.861,736.998L97.144,730.281L96.862,730.281L96.791,730.352L96.791,730.635L103.508,737.352L103.791,737.352Z" style="stroke:black;stroke-width:0.26px;stroke-linecap:butt;stroke-miterlimit:1.41421;"/>
        </g>
        <g transform="matrix(2.80791,0,0,2.80791,28.7472,-1537.67)">
            <path d="M101.669,739.473L101.74,739.403L101.74,739.12L95.023,732.403L94.74,732.403L94.669,732.473L94.669,732.756L101.387,739.473L101.669,739.473Z" style="stroke:black;stroke-width:0.26px;stroke-linecap:butt;stroke-miterlimit:1.41421;"/>
        </g>
        <g transform="matrix(-0.500062,1.59615e-16,-1.59615e-16,-0.500062,169.206,841.491)">
            <g transform="matrix(1,0,0,1,332.658,610.767)">
                <text x="0px" y="0px" style="font-family:'Arial-BoldMT', 'Arial', sans-serif;font-weight:700;font-size:33.699px;">NAUTILUS PRINT SURF</text>
            </g>
            <g transform="matrix(1,0,0,1,712.709,610.767)">
                <text x="0px" y="0px" style="font-family:'Arial-BoldMT', 'Arial', sans-serif;font-weight:700;font-size:33.699px;">ACE</text>
            </g>
        </g>
        <g transform="matrix(-1,3.19189e-16,-3.19189e-16,-1,319.496,1183.29)">
            <path d="M256.841,646.843C256.952,646.843 260.357,650.659 260.303,652.955C260.192,657.684 256.817,658.18 256.617,662.003C256.513,663.995 258.539,666.556 259.425,667.729" style="fill:none;stroke:black;stroke-width:3.35px;"/>
        </g>
        <g transform="matrix(-1,3.19189e-16,-3.19189e-16,-1,296.97,1183.29)">
            <path d="M256.841,646.843C256.952,646.843 260.357,650.659 260.303,652.955C260.192,657.684 256.817,658.18 256.617,662.003C256.513,663.995 258.539,666.556 259.425,667.729" style="fill:none;stroke:black;stroke-width:3.35px;"/>
        </g>
        <g transform="matrix(-1,3.19189e-16,-4.67161e-16,-1.46359,308.805,1492.84)">
            <path d="M256.841,646.843C256.952,646.843 260.357,650.659 260.303,652.955C260.192,657.684 256.817,658.18 256.617,662.003C256.513,663.995 258.539,666.556 259.425,667.729" style="fill:none;stroke:black;stroke-width:2.67px;"/>
        </g>
        <g transform="matrix(-1,3.19189e-16,-4.67161e-16,-1.46359,284.582,1492.33)">
            <path d="M256.841,646.843C256.952,646.843 260.357,650.659 260.303,652.955C260.192,657.684 256.817,658.18 256.617,662.003C256.513,663.995 258.539,666.556 259.425,667.729" style="fill:none;stroke:black;stroke-width:2.67px;"/>
        </g>
        <g id="Hydra-Logo-2" serif:id="Hydra Logo 2" transform="matrix(-0.00739537,2.36052e-18,-2.36052e-18,-0.00739537,275.102,551.34)">
            <g id="_0" serif:id="0" transform="matrix(21.6807,0,0,21.6807,-9559.71,-3425.43)">
                <g transform="matrix(0.0018,0,0,0.0018,0,-301.14)">
                    <path d="M272285,334050L272285,273250L345245,303650L330572,309763L338605,313350L361885,303650L265885,263650L265885,343650L324045,319417L315725,315950L272285,334050" style="fill-rule:nonzero;stroke:black;stroke-width:787px;stroke-miterlimit:10;"/>
                </g>
                <g transform="matrix(0.0018,0,0,0.0018,0,-240.48)">
                    <path d="M385885,301950L289885,261950L289885,290417L296285,287750L296285,271550L369245,301950L354285,308183L362605,311650L385885,301950" style="fill-rule:nonzero;stroke:black;stroke-width:787px;stroke-miterlimit:10;"/>
                </g>
                <g transform="matrix(0.0018,0,0,0.0018,0,-70.74)">
                    <path d="M320285,270050L320285,237583L313885,240250L313885,279650L388446,248583L409885,239650L313885,199650L313885,228117L320285,225450L320285,209250L393245,239650L320285,270050" style="fill-rule:nonzero;stroke:black;stroke-width:787px;stroke-miterlimit:10;"/>
                </g>
                <g transform="matrix(0.0018,0,0,0.0018,0,-117.661)">
                    <path d="M289885,273717L348045,249484L339725,246017L296285,264117L296285,231650L289885,234317L289885,273717" style="fill-rule:nonzero;stroke:black;stroke-width:787px;stroke-miterlimit:10;"/>
                </g>
            </g>
            <g transform="matrix(1,0,0,1,-117.784,-3924.36)">
                <g transform="matrix(1,0,0,1,7176.94,6980.41)">
                    <text x="0px" y="0px" style="font-family:'Arial-BoldMT', 'Arial', sans-serif;font-weight:700;font-size:2222.22px;fill:rgb(35,31,32);">HYDRA</text>
                </g>
                <g transform="matrix(1,0,0,1,8657.41,8780.41)">
                    <text x="0px" y="0px" style="font-family:'Arial-BoldMT', 'Arial', sans-serif;font-weight:700;font-size:1155.56px;fill:rgb(35,31,32);">RESEARCH</text>
                </g>
            </g>
        </g>
        <g transform="matrix(-0.243911,7.78536e-17,-7.66053e-17,-0.24,339.483,1198.19)">
            <path d="M2304.68,2879.02L1382.3,2879.02L1382.3,2785.22L2304.68,2785.22L2304.68,2879.02ZM1388.2,2791.22L1388.2,2873.02L2298.77,2873.02L2298.77,2791.22L1388.2,2791.22Z"/>
        </g>
        <g transform="matrix(-0.24,7.66053e-17,-7.66053e-17,-0.24,331.474,1196.36)">
            <text x="1791.8px" y="2845.97px" style="font-family:'ArialMT', 'Arial', sans-serif;font-size:60px;">PEI</text>
        </g>
    </g>
</svg>
