0
SECTION
2
HEADER
9
$INSUNITS
70
4
9
$ACADVER
1
AC1014
9
$HANDSEED
5
FFFF
0
ENDSEC
0
SECTION
2
TABLES
0
TABLE
2
VPORT
5
8
100
AcDbSymbolTable
0
ENDTAB
0
TABLE
2
LTYPE
5
5
100
AcDbSymbolTable
0
LTYPE
5
14
100
AcDbSymbolTableRecord
100
AcDbLinetypeTableRecord
2
BYBLOCK
70
0
0
LTYPE
5
15
100
AcDbSymbolTableRecord
100
AcDbLinetypeTableRecord
2
BYLAYER
70
0
0
ENDTAB
0
TABLE
2
LAYER
5
2
100
AcDbSymbolTable
70
2
0
LAYER
5
50
100
AcDbSymbolTableRecord
100
AcDbLayerTableRecord
2
0
70
0
6
CONTINUOUS
0
ENDTAB
0
TABLE
2
STYLE
5
3
100
AcDbSymbolTable
70
1
0
STYLE
5
11
100
AcDbSymbolTableRecord
100
AcDbTextStyleTableRecord
2
STANDARD
70
0
0
ENDTAB
0
TABLE
2
VIEW
5
6
100
AcDbSymbolTable
70
0
0
ENDTAB
0
TABLE
2
UCS
5
7
100
AcDbSymbolTable
70
0
0
ENDTAB
0
TABLE
2
APPID
5
9
100
AcDbSymbolTable
70
2
0
APPID
5
12
100
AcDbSymbolTableRecord
100
AcDbRegAppTableRecord
2
ACAD
70
0
0
ENDTAB
0
TABLE
2
DIMSTYLE
5
A
100
AcDbSymbolTable
70
1
0
ENDTAB
0
TABLE
2
BLOCK_RECORD
5
1
100
AcDbSymbolTable
70
1
0
BLOCK_RECORD
5
1F
100
AcDbSymbolTableRecord
100
AcDbBlockTableRecord
2
*MODEL_SPACE
0
BLOCK_RECORD
5
1B
100
AcDbSymbolTableRecord
100
AcDbBlockTableRecord
2
*PAPER_SPACE
0
ENDTAB
0
ENDSEC
0
SECTION
2
BLOCKS
0
BLOCK
5
20
100
AcDbEntity
100
AcDbBlockBegin
2
*MODEL_SPACE
0
ENDBLK
5
21
100
AcDbEntity
100
AcDbBlockEnd
0
BLOCK
5
1C
100
AcDbEntity
100
AcDbBlockBegin
2
*PAPER_SPACE
0
ENDBLK
5
1D
100
AcDbEntity
100
AcDbBlockEnd
0
ENDSEC
0
SECTION
2
ENTITIES
0
LWPOLYLINE
5
100
100
AcDbEntity
8
0
100
AcDbPolyline
90
8
70
1
43
0.0
10
127.60912239673651
20
-304.39851005299414
10
127.6091223967365
20
-280.39851005300477
42
0.4142135623730922
10
123.90912239673648
20
-276.69851005300478
10
103.90912239673656
20
-276.69851005300478
42
0.4142135623731007
10
100.2091223967476
20
-280.39851005299374
10
100.2091223967476
20
-304.39851005299408
42
0.41421356237309503
10
103.90912239674762
20
-308.09851005299413
10
123.90912239673652
20
-308.09851005299413
42
0.41421356237308943
0
CIRCLE
5
101
100
AcDbEntity
8
0
100
AcDbCircle
10
131.99425348182871
20
-291.89851005300926
30
0
40
1.7499999999999893
0
CIRCLE
5
102
100
AcDbEntity
8
0
100
AcDbCircle
10
95.692837304718012
20
-291.89851005298914
30
0
40
1.7499999999999893
0
LWPOLYLINE
5
103
100
AcDbEntity
8
0
100
AcDbPolyline
90
4
70
1
43
0.0
10
60.755746517841288
20
170.4048060153205
10
35.255746517841281
20
170.4048060153205
42
0.99999999999999989
10
35.255746517841281
20
166.4048060153205
10
60.755746517841288
20
166.4048060153205
42
0.99999999999999989
0
LWPOLYLINE
5
104
100
AcDbEntity
8
0
100
AcDbPolyline
90
4
70
1
43
0.0
10
-35.255746517841288
20
240.40480601532042
10
-60.755746517841288
20
240.40480601532042
42
0.99999999999999989
10
-60.755746517841288
20
236.40480601532045
10
-35.255746517841288
20
236.40480601532045
42
0.99999999999999989
0
CIRCLE
5
105
100
AcDbEntity
8
0
100
AcDbCircle
10
161.99425348215871
20
-296.89851005305832
30
0
40
2.5999999999999979
0
CIRCLE
5
106
100
AcDbEntity
8
0
100
AcDbCircle
10
-162.00135768569965
20
29.000000000000018
30
0
40
1.6000000000000014
0
LWPOLYLINE
5
107
100
AcDbEntity
8
0
100
AcDbPolyline
90
4
70
1
43
0.0
10
-83.355746517841297
20
194.40480601532047
10
-55.005746517841281
20
194.40480601532047
42
0.99999999999999989
10
-55.005746517841274
20
198.40480601532047
10
-83.355746517841297
20
198.40480601532047
42
0.99999999999999989
0
CIRCLE
5
108
100
AcDbEntity
8
0
100
AcDbCircle
10
-161.98054184125243
20
-296.89851005305832
30
0
40
2.6000000000000156
0
LWPOLYLINE
5
109
100
AcDbEntity
8
0
100
AcDbPolyline
90
4
70
1
43
0.0
10
71.755746517841288
20
177.4048060153205
10
24.255746517841281
20
177.4048060153205
42
0.99999999999999989
10
24.255746517841281
20
173.4048060153205
10
71.755746517841288
20
173.4048060153205
42
0.99999999999999989
0
LWPOLYLINE
5
110
100
AcDbEntity
8
0
100
AcDbPolyline
90
4
70
1
43
0.0
10
12.65574651784128
20
208.40480601532047
10
41.005746517841288
20
208.40480601532047
42
0.99999999999999989
10
41.005746517841281
20
212.40480601532045
10
12.655746517841283
20
212.40480601532045
42
0.99999999999999989
0
CIRCLE
5
111
100
AcDbEntity
8
0
100
AcDbCircle
10
0.0068558204545254853
20
277.90480601532045
30
0
40
2.6000000000000001
0
CIRCLE
5
112
100
AcDbEntity
8
0
100
AcDbCircle
10
-161.98054184125243
20
277.90480601532045
30
0
40
2.6000000000000156
0
CIRCLE
5
113
100
AcDbEntity
8
0
100
AcDbCircle
10
161.9956111675163
20
18
30
0
40
1.6000000000000014
0
LWPOLYLINE
5
114
100
AcDbEntity
8
0
100
AcDbPolyline
90
4
70
1
43
0.0
10
-77.755746517841274
20
222.40480601532045
10
-18.255746517841285
20
222.40480601532045
42
0.99999999999999989
10
-18.255746517841285
20
226.40480601532045
10
-77.755746517841274
20
226.40480601532045
42
0.99999999999999989
0
CIRCLE
5
115
100
AcDbEntity
8
0
100
AcDbCircle
10
161.99425348215871
20
277.90480601532045
30
0
40
2.5999999999999979
0
LWPOLYLINE
5
116
100
AcDbEntity
8
0
100
AcDbPolyline
90
4
70
1
43
0.0
10
-83.355746517841297
20
208.40480601532047
10
-55.005746517841288
20
208.40480601532047
42
0.99999999999999989
10
-55.005746517841288
20
212.40480601532045
10
-83.355746517841297
20
212.40480601532045
42
0.99999999999999989
0
LWPOLYLINE
5
117
100
AcDbEntity
8
0
100
AcDbPolyline
90
4
70
1
43
0.0
10
-62.005746517841288
20
205.40480601532045
10
-84.005746517841288
20
205.40480601532045
42
0.99999999999999989
10
-84.005746517841288
20
201.40480601532047
10
-62.005746517841288
20
201.40480601532047
42
0.99999999999999989
0
CIRCLE
5
118
100
AcDbEntity
8
0
100
AcDbCircle
10
0.016044601525684217
20
-296.89851005305832
30
0
40
2.6000000000000001
0
CIRCLE
5
119
100
AcDbEntity
8
0
100
AcDbCircle
10
-81.875746517841293
20
169.53480601532047
30
0
40
1.6499999999999915
0
CIRCLE
5
120
100
AcDbEntity
8
0
100
AcDbCircle
10
171.99425348181683
20
46.250000000000199
30
0
40
2.6000000000000156
0
CIRCLE
5
121
100
AcDbEntity
8
0
100
AcDbCircle
10
-81.875746517841293
20
237.27480601532048
30
0
40
1.6499999999999915
0
CIRCLE
5
122
100
AcDbEntity
8
0
100
AcDbCircle
10
-14.13574651784128
20
237.27480601532045
30
0
40
1.6500000000000004
0
LWPOLYLINE
5
123
100
AcDbEntity
8
0
100
AcDbPolyline
90
4
70
1
43
0.0
10
-41.005746517841281
20
208.40480601532047
10
-12.65574651784128
20
208.40480601532047
42
0.99999999999999989
10
-12.65574651784128
20
212.40480601532045
10
-41.005746517841288
20
212.40480601532045
42
0.99999999999999989
0
LWPOLYLINE
5
124
100
AcDbEntity
8
0
100
AcDbPolyline
90
4
70
1
43
0.0
10
-81.355746517841141
20
187.4048060153205
10
-14.655746517841273
20
187.4048060153205
42
0.99999999999999989
10
-14.655746517841273
20
191.40480601532047
10
-81.355746517841141
20
191.40480601532047
42
0.99999999999999989
0
LWPOLYLINE
5
125
100
AcDbEntity
8
0
100
AcDbPolyline
90
4
70
1
43
0.0
10
-71.755746517841288
20
229.40480601532045
10
-24.255746517841288
20
229.40480601532045
42
0.99999999999999989
10
-24.255746517841281
20
233.40480601532045
10
-71.755746517841288
20
233.40480601532045
42
0.99999999999999989
0
LWPOLYLINE
5
126
100
AcDbEntity
8
0
100
AcDbPolyline
90
4
70
1
43
0.0
10
77.755746517841601
20
184.40480601532047
42
-0.99999999999999989
10
77.755746517841601
20
180.4048060153205
10
18.255746517841281
20
180.4048060153205
42
-0.99999999999999989
10
18.255746517841285
20
184.40480601532047
0
LWPOLYLINE
5
127
100
AcDbEntity
8
0
100
AcDbPolyline
90
4
70
1
43
0.0
10
-77.755746517841601
20
180.4048060153205
10
-18.255746517841274
20
180.4048060153205
42
0.99999999999999989
10
-18.255746517841274
20
184.40480601532047
10
-77.755746517841601
20
184.40480601532047
42
0.99999999999999989
0
CIRCLE
5
128
100
AcDbEntity
8
0
100
AcDbCircle
10
-14.13574651784128
20
169.53480601532047
30
0
40
1.6500000000000004
0
LWPOLYLINE
5
129
100
AcDbEntity
8
0
100
AcDbPolyline
90
4
70
1
43
0.0
10
-81.355746517841283
20
215.40480601532045
10
-14.655746517841282
20
215.40480601532045
42
0.99999999999999989
10
-14.655746517841282
20
219.40480601532045
10
-81.355746517841283
20
219.40480601532045
42
0.99999999999999989
0
CIRCLE
5
130
100
AcDbEntity
8
0
100
AcDbCircle
10
145.14561116751628
20
28.999999999999986
30
0
40
1.6000000000000014
0
LWPOLYLINE
5
131
100
AcDbEntity
8
0
100
AcDbPolyline
90
4
70
1
43
0.0
10
-71.755746517841288
20
173.4048060153205
10
-24.255746517841281
20
173.4048060153205
42
0.99999999999999989
10
-24.255746517841281
20
177.4048060153205
10
-71.755746517841288
20
177.4048060153205
42
0.99999999999999989
0
CIRCLE
5
132
100
AcDbEntity
8
0
100
AcDbCircle
10
-172.00000000000017
20
46.250000000000227
30
0
40
2.6000000000000156
0
LWPOLYLINE
5
133
100
AcDbEntity
8
0
100
AcDbPolyline
90
4
70
1
43
0.0
10
-12.005746517841276
20
205.40480601532045
10
-34.005746517841288
20
205.40480601532045
42
0.99999999999999989
10
-34.005746517841274
20
201.40480601532047
10
-12.005746517841276
20
201.40480601532047
42
0.99999999999999989
0
LWPOLYLINE
5
134
100
AcDbEntity
8
0
100
AcDbPolyline
90
4
70
1
43
0.0
10
-12.65574651784128
20
198.40480601532047
10
-41.005746517841288
20
198.40480601532047
42
0.99999999999999989
10
-41.005746517841281
20
194.40480601532047
10
-12.65574651784128
20
194.40480601532047
42
0.99999999999999989
0
LWPOLYLINE
5
135
100
AcDbEntity
8
0
100
AcDbPolyline
90
4
70
1
43
0.0
10
-60.755746517841288
20
166.4048060153205
10
-35.255746517841281
20
166.4048060153205
42
0.99999999999999989
10
-35.255746517841281
20
170.4048060153205
10
-60.755746517841288
20
170.4048060153205
42
0.99999999999999989
0
CIRCLE
5
136
100
AcDbEntity
8
0
100
AcDbCircle
10
-145.15135768569959
20
18.000000000000014
30
0
40
1.6000000000000014
0
CIRCLE
5
137
100
AcDbEntity
8
0
100
AcDbCircle
10
81.875746517841293
20
169.53480601532047
30
0
40
1.6499999999999915
0
CIRCLE
5
138
100
AcDbEntity
8
0
100
AcDbCircle
10
14.13574651784128
20
169.53480601532047
30
0
40
1.6500000000000004
0
CIRCLE
5
139
100
AcDbEntity
8
0
100
AcDbCircle
10
14.13574651784128
20
237.27480601532045
30
0
40
1.6500000000000004
0
LWPOLYLINE
5
140
100
AcDbEntity
8
0
100
AcDbPolyline
90
8
70
1
43
0.0
10
-3.0000000000000004
20
238.27480601532045
10
-3.0000000000000004
20
227.27480601532045
42
0.41421356237309503
10
-1.0000000000000004
20
225.27480601532045
10
0.99999999999999978
20
225.27480601532045
42
0.41421356237309515
10
3.0000000000000004
20
227.27480601532045
10
3.0000000000000004
20
238.27480601532045
42
0.41421356237309503
10
1.0000000000000004
20
240.27480601532045
10
-0.99999999999999978
20
240.27480601532045
42
0.41421356237309515
0
CIRCLE
5
141
100
AcDbEntity
8
0
100
AcDbCircle
10
81.875746517841293
20
237.27480601532048
30
0
40
1.6499999999999915
0
LWPOLYLINE
5
142
100
AcDbEntity
8
0
100
AcDbPolyline
90
4
70
1
43
0.0
10
83.355746517841297
20
198.40480601532047
10
55.005746517841274
20
198.40480601532047
42
0.99999999999999989
10
55.005746517841274
20
194.40480601532047
10
83.355746517841297
20
194.40480601532047
42
0.99999999999999989
0
LWPOLYLINE
5
143
100
AcDbEntity
8
0
100
AcDbPolyline
90
4
70
1
43
0.0
10
81.355746517841283
20
219.40480601532045
10
14.655746517841282
20
219.40480601532045
42
0.99999999999999989
10
14.655746517841282
20
215.40480601532045
10
81.355746517841283
20
215.40480601532045
42
0.99999999999999989
0
LWPOLYLINE
5
144
100
AcDbEntity
8
0
100
AcDbPolyline
90
4
70
1
43
0.0
10
35.255746517841288
20
236.40480601532045
42
-0.99999999999999989
10
35.255746517841288
20
240.40480601532042
10
60.755746517841288
20
240.40480601532042
42
-0.99999999999999989
10
60.755746517841288
20
236.40480601532045
0
LWPOLYLINE
5
145
100
AcDbEntity
8
0
100
AcDbPolyline
90
4
70
1
43
0.0
10
12.005746517841276
20
201.40480601532047
10
34.005746517841274
20
201.40480601532047
42
0.99999999999999989
10
34.005746517841281
20
205.40480601532045
10
12.005746517841281
20
205.40480601532045
42
0.99999999999999989
0
LWPOLYLINE
5
146
100
AcDbEntity
8
0
100
AcDbPolyline
90
4
70
1
43
0.0
10
84.005746517841288
20
205.40480601532045
10
62.005746517841288
20
205.40480601532045
42
0.99999999999999989
10
62.005746517841288
20
201.40480601532047
10
84.005746517841288
20
201.40480601532047
42
0.99999999999999989
0
LWPOLYLINE
5
147
100
AcDbEntity
8
0
100
AcDbPolyline
90
4
70
1
43
0.0
10
77.755746517841274
20
226.40480601532045
42
-0.99999999999999989
10
77.755746517841274
20
222.40480601532045
10
18.255746517841285
20
222.40480601532045
42
-0.99999999999999989
10
18.255746517841285
20
226.40480601532045
0
LWPOLYLINE
5
148
100
AcDbEntity
8
0
100
AcDbPolyline
90
4
70
1
43
0.0
10
12.65574651784128
20
194.40480601532047
10
41.005746517841288
20
194.40480601532047
42
0.99999999999999989
10
41.005746517841281
20
198.40480601532047
10
12.65574651784128
20
198.40480601532047
42
0.99999999999999989
0
LWPOLYLINE
5
149
100
AcDbEntity
8
0
100
AcDbPolyline
90
4
70
1
43
0.0
10
55.005746517841288
20
208.40480601532047
42
-0.99999999999999989
10
55.005746517841288
20
212.40480601532045
10
83.355746517841297
20
212.40480601532045
42
-0.99999999999999989
10
83.355746517841297
20
208.40480601532047
0
LWPOLYLINE
5
150
100
AcDbEntity
8
0
100
AcDbPolyline
90
4
70
1
43
0.0
10
81.355746517841141
20
191.40480601532047
42
-0.99999999999999989
10
81.355746517841141
20
187.4048060153205
10
14.655746517841276
20
187.4048060153205
42
-0.99999999999999989
10
14.655746517841273
20
191.40480601532047
0
LWPOLYLINE
5
151
100
AcDbEntity
8
0
100
AcDbPolyline
90
4
70
1
43
0.0
10
24.255746517841285
20
229.40480601532045
42
-0.99999999999999989
10
24.255746517841281
20
233.40480601532045
10
71.755746517841288
20
233.40480601532045
42
-0.99999999999999989
10
71.755746517841288
20
229.40480601532045
0
LINE
5
152
100
AcDbEntity
8
0
100
AcDbLine
10
181.99425348181489
20
-316.898510053037
30
0
11
181.99425348215871
21
303.40480601532045
31
0
0
LINE
5
153
100
AcDbEntity
8
0
100
AcDbLine
10
181.99425348215871
20
303.40480601532045
30
0
11
-181.98054995363603
21
303.40480601532045
31
0
0
LINE
5
154
100
AcDbEntity
8
0
100
AcDbLine
10
-181.98054995363603
20
303.40480601532045
30
0
11
-181.980549953636
21
-316.89851005305803
31
0
0
LINE
5
155
100
AcDbEntity
8
0
100
AcDbLine
10
-181.98054184125243
20
-316.89851005305798
30
0
11
181.99425348181489
21
-316.898510053037
31
0
0
LWPOLYLINE
5
156
100
AcDbEntity
8
0
100
AcDbPolyline
90
8
70
1
43
0.0
10
127.6091223967365
20
-280.39851005300477
10
127.60912239673652
20
-304.39851005299414
42
-0.41421356237309503
10
123.90912239673652
20
-308.09851005299413
10
103.90912239674762
20
-308.09851005299413
42
-0.41421356237309503
10
100.2091223967476
20
-304.39851005299408
10
100.2091223967476
20
-280.39851005299374
42
-0.41421356237309503
10
103.90912239673656
20
-276.69851005300478
10
123.90912239673648
20
-276.69851005300478
42
-0.41421356237309503
0
CIRCLE
5
157
100
AcDbEntity
8
0
100
AcDbCircle
10
131.99425348182871
20
-291.89851005300926
30
0
40
1.7499999999999893
0
CIRCLE
5
158
100
AcDbEntity
8
0
100
AcDbCircle
10
95.692837304718012
20
-291.89851005298914
30
0
40
1.7499999999999893
0
LWPOLYLINE
5
159
100
AcDbEntity
8
0
100
AcDbPolyline
90
4
70
1
43
0.0
10
-81.355746517841141
20
191.40480601532047
10
-14.655746517841305
20
191.40480601532045
42
-0.99999999999999989
10
-14.655746517841237
20
187.40480601532045
10
-81.355746517841084
20
187.40480601532056
42
-0.99999999999999989
0
LWPOLYLINE
5
160
100
AcDbEntity
8
0
100
AcDbPolyline
90
8
70
1
43
0.0
10
3.0000000000000049
20
227.27480601532045
42
-0.41421356237309687
10
0.99999999999999978
20
225.27480601532045
10
-1
20
225.27480601532045
42
-0.4142135623730967
10
-3.0000000000000004
20
227.27480601532045
10
-3.0000000000000049
20
238.27480601532045
42
-0.41421356237309687
10
-0.99999999999999978
20
240.27480601532045
10
1
20
240.27480601532045
42
-0.4142135623730967
10
3.0000000000000004
20
238.27480601532045
0
LWPOLYLINE
5
161
100
AcDbEntity
8
0
100
AcDbPolyline
90
4
70
1
43
0.0
10
35.255746517841303
20
166.4048060153205
42
-0.99999999999999989
10
35.255746517841281
20
170.4048060153205
10
60.755746517841267
20
170.4048060153205
42
-0.99999999999999989
10
60.755746517841288
20
166.4048060153205
0
LWPOLYLINE
5
162
100
AcDbEntity
8
0
100
AcDbPolyline
90
4
70
1
43
0.0
10
24.255746517841299
20
173.40480601532053
42
-0.99999999999999989
10
24.255746517841246
20
177.40480601532053
10
71.755746517841203
20
177.4048060153205
42
-0.99999999999999989
10
71.755746517841317
20
173.40480601532045
0
LWPOLYLINE
5
163
100
AcDbEntity
8
0
100
AcDbPolyline
90
4
70
1
43
0.0
10
18.255746517841295
20
180.4048060153205
42
-0.99999999999999989
10
18.255746517841274
20
184.40480601532047
10
77.755746517841573
20
184.40480601532047
42
-0.99999999999999989
10
77.755746517841601
20
180.4048060153205
0
LWPOLYLINE
5
164
100
AcDbEntity
8
0
100
AcDbPolyline
90
4
70
1
43
0.0
10
14.655746517841335
20
187.40480601532053
42
-0.99999999999999989
10
14.655746517841237
20
191.4048060153205
10
81.355746517841041
20
191.40480601532047
42
-0.99999999999999989
10
81.355746517841183
20
187.40480601532042
0
LWPOLYLINE
5
165
100
AcDbEntity
8
0
100
AcDbPolyline
90
4
70
1
43
0.0
10
12.655746517841299
20
194.40480601532047
42
-0.99999999999999989
10
12.65574651784128
20
198.40480601532047
10
41.005746517841274
20
198.40480601532047
42
-0.99999999999999989
10
41.005746517841288
20
194.40480601532047
0
LWPOLYLINE
5
166
100
AcDbEntity
8
0
100
AcDbPolyline
90
4
70
1
43
0.0
10
12.005746517841352
20
201.40480601532047
42
-0.99999999999999989
10
12.005746517841246
20
205.40480601532053
10
34.005746517841303
20
205.40480601532039
42
-0.99999999999999989
10
34.005746517841274
20
201.40480601532047
0
LWPOLYLINE
5
167
100
AcDbEntity
8
0
100
AcDbPolyline
90
4
70
1
43
0.0
10
41.005746517841281
20
212.40480601532045
42
-0.99999999999999989
10
41.005746517841281
20
208.40480601532047
10
12.655746517841305
20
208.40480601532047
42
-0.99999999999999989
10
12.65574651784128
20
212.40480601532045
0
LWPOLYLINE
5
168
100
AcDbEntity
8
0
100
AcDbPolyline
90
4
70
1
43
0.0
10
14.655746517841305
20
215.4048060153205
42
-0.99999999999999989
10
14.655746517841246
20
219.40480601532047
10
81.355746517841183
20
219.40480601532045
42
-0.99999999999999989
10
81.355746517841325
20
215.40480601532039
0
LWPOLYLINE
5
169
100
AcDbEntity
8
0
100
AcDbPolyline
90
4
70
1
43
0.0
10
18.255746517841306
20
222.40480601532045
42
-0.99999999999999989
10
18.255746517841285
20
226.40480601532045
10
77.75574651784126
20
226.40480601532045
42
-0.99999999999999989
10
77.755746517841274
20
222.40480601532045
0
LWPOLYLINE
5
170
100
AcDbEntity
8
0
100
AcDbPolyline
90
4
70
1
43
0.0
10
24.255746517841303
20
229.40480601532047
42
-0.99999999999999989
10
24.255746517841246
20
233.40480601532047
10
71.755746517841203
20
233.40480601532045
42
-0.99999999999999989
10
71.755746517841317
20
229.40480601532039
0
LWPOLYLINE
5
171
100
AcDbEntity
8
0
100
AcDbPolyline
90
4
70
1
43
0.0
10
35.255746517841303
20
236.40480601532045
42
-0.99999999999999989
10
35.255746517841288
20
240.40480601532042
10
60.755746517841267
20
240.40480601532042
42
-0.99999999999999989
10
60.755746517841288
20
236.40480601532045
0
LWPOLYLINE
5
172
100
AcDbEntity
8
0
100
AcDbPolyline
90
4
70
1
43
0.0
10
55.00574651784131
20
208.40480601532047
42
-0.99999999999999989
10
55.005746517841288
20
212.40480601532045
10
83.355746517841268
20
212.40480601532045
42
-0.99999999999999989
10
83.355746517841297
20
208.40480601532047
0
LWPOLYLINE
5
173
100
AcDbEntity
8
0
100
AcDbPolyline
90
4
70
1
43
0.0
10
84.005746517841288
20
201.40480601532047
10
62.005746517841317
20
201.40480601532056
42
-0.99999999999999989
10
62.005746517841288
20
205.40480601532045
10
84.005746517841231
20
205.40480601532039
42
-0.99999999999999989
0
LWPOLYLINE
5
174
100
AcDbEntity
8
0
100
AcDbPolyline
90
4
70
1
43
0.0
10
55.005746517841274
20
198.40480601532047
10
83.355746517841268
20
198.40480601532047
42
-0.99999999999999989
10
83.355746517841297
20
194.40480601532047
10
55.005746517841288
20
194.40480601532047
42
-0.99999999999999989
0
LWPOLYLINE
5
175
100
AcDbEntity
8
0
100
AcDbPolyline
90
4
70
1
43
0.0
10
-35.255746517841303
20
240.40480601532042
42
-0.99999999999999989
10
-35.255746517841288
20
236.40480601532045
10
-60.755746517841267
20
236.40480601532045
42
-0.99999999999999989
10
-60.755746517841288
20
240.40480601532042
0
LWPOLYLINE
5
176
100
AcDbEntity
8
0
100
AcDbPolyline
90
4
70
1
43
0.0
10
-24.255746517841303
20
233.40480601532039
42
-0.99999999999999989
10
-24.255746517841246
20
229.40480601532042
10
-71.755746517841203
20
229.40480601532045
42
-0.99999999999999989
10
-71.755746517841317
20
233.4048060153205
0
LWPOLYLINE
5
177
100
AcDbEntity
8
0
100
AcDbPolyline
90
4
70
1
43
0.0
10
-18.255746517841306
20
226.40480601532045
42
-0.99999999999999989
10
-18.255746517841285
20
222.40480601532045
10
-77.75574651784126
20
222.40480601532045
42
-0.99999999999999989
10
-77.755746517841274
20
226.40480601532045
0
LWPOLYLINE
5
178
100
AcDbEntity
8
0
100
AcDbPolyline
90
4
70
1
43
0.0
10
-14.655746517841305
20
219.40480601532042
42
-0.99999999999999989
10
-14.655746517841246
20
215.40480601532042
10
-81.355746517841183
20
215.40480601532045
42
-0.99999999999999989
10
-81.355746517841325
20
219.4048060153205
0
LWPOLYLINE
5
179
100
AcDbEntity
8
0
100
AcDbPolyline
90
4
70
1
43
0.0
10
-12.65574651784128
20
208.40480601532047
10
-41.005746517841274
20
208.40480601532047
42
-0.99999999999999989
10
-41.005746517841288
20
212.40480601532045
10
-12.655746517841306
20
212.40480601532045
42
-0.99999999999999989
0
LWPOLYLINE
5
180
100
AcDbEntity
8
0
100
AcDbPolyline
90
4
70
1
43
0.0
10
-34.005746517841288
20
205.40480601532045
10
-12.005746517841352
20
205.40480601532045
42
-0.99999999999999989
10
-12.005746517841246
20
201.40480601532039
10
-34.005746517841295
20
201.40480601532056
42
-0.99999999999999989
0
LWPOLYLINE
5
181
100
AcDbEntity
8
0
100
AcDbPolyline
90
4
70
1
43
0.0
10
-41.005746517841288
20
198.40480601532047
10
-12.655746517841299
20
198.40480601532047
42
-0.99999999999999989
10
-12.65574651784128
20
194.40480601532047
10
-41.005746517841274
20
194.40480601532047
42
-0.99999999999999989
0
LWPOLYLINE
5
182
100
AcDbEntity
8
0
100
AcDbPolyline
90
4
70
1
43
0.0
10
-18.255746517841295
20
184.40480601532047
42
-0.99999999999999989
10
-18.255746517841274
20
180.4048060153205
10
-77.755746517841573
20
180.4048060153205
42
-0.99999999999999989
10
-77.755746517841601
20
184.40480601532047
0
LWPOLYLINE
5
183
100
AcDbEntity
8
0
100
AcDbPolyline
90
4
70
1
43
0.0
10
-24.255746517841299
20
177.40480601532045
42
-0.99999999999999989
10
-24.255746517841246
20
173.40480601532047
10
-71.755746517841203
20
173.4048060153205
42
-0.99999999999999989
10
-71.755746517841317
20
177.40480601532056
0
LWPOLYLINE
5
184
100
AcDbEntity
8
0
100
AcDbPolyline
90
4
70
1
43
0.0
10
-35.255746517841281
20
166.4048060153205
10
-60.755746517841267
20
166.4048060153205
42
-0.99999999999999989
10
-60.755746517841288
20
170.4048060153205
10
-35.255746517841303
20
170.4048060153205
42
-0.99999999999999989
0
LWPOLYLINE
5
185
100
AcDbEntity
8
0
100
AcDbPolyline
90
4
70
1
43
0.0
10
-55.005746517841281
20
194.40480601532047
10
-83.355746517841268
20
194.40480601532047
42
-0.99999999999999989
10
-83.355746517841297
20
198.40480601532047
10
-55.005746517841281
20
198.40480601532047
42
-0.99999999999999989
0
LWPOLYLINE
5
186
100
AcDbEntity
8
0
100
AcDbPolyline
90
4
70
1
43
0.0
10
-55.00574651784131
20
212.40480601532045
42
-0.99999999999999989
10
-55.005746517841288
20
208.40480601532047
10
-83.355746517841268
20
208.40480601532047
42
-0.99999999999999989
10
-83.355746517841297
20
212.40480601532045
0
LWPOLYLINE
5
187
100
AcDbEntity
8
0
100
AcDbPolyline
90
4
70
1
43
0.0
10
-62.005746517841359
20
205.40480601532045
42
-0.99999999999999989
10
-62.005746517841246
20
201.40480601532039
10
-84.005746517841189
20
201.40480601532047
42
-0.99999999999999989
10
-84.005746517841331
20
205.40480601532053
0
CIRCLE
5
188
100
AcDbEntity
8
0
100
AcDbCircle
10
81.875746517841293
20
237.27480601532048
30
0
40
1.6499999999999915
0
CIRCLE
5
189
100
AcDbEntity
8
0
100
AcDbCircle
10
14.13574651784128
20
237.27480601532045
30
0
40
1.6500000000000004
0
CIRCLE
5
190
100
AcDbEntity
8
0
100
AcDbCircle
10
14.13574651784128
20
169.53480601532047
30
0
40
1.6500000000000004
0
CIRCLE
5
191
100
AcDbEntity
8
0
100
AcDbCircle
10
81.875746517841293
20
169.53480601532047
30
0
40
1.6499999999999915
0
CIRCLE
5
192
100
AcDbEntity
8
0
100
AcDbCircle
10
-145.15135768569959
20
18.000000000000014
30
0
40
1.6000000000000014
0
CIRCLE
5
193
100
AcDbEntity
8
0
100
AcDbCircle
10
-172.00000000000017
20
46.250000000000227
30
0
40
2.6000000000000156
0
CIRCLE
5
194
100
AcDbEntity
8
0
100
AcDbCircle
10
145.14561116751628
20
28.999999999999986
30
0
40
1.6000000000000014
0
CIRCLE
5
195
100
AcDbEntity
8
0
100
AcDbCircle
10
-14.13574651784128
20
169.53480601532047
30
0
40
1.6500000000000004
0
CIRCLE
5
196
100
AcDbEntity
8
0
100
AcDbCircle
10
-14.13574651784128
20
237.27480601532045
30
0
40
1.6500000000000004
0
CIRCLE
5
197
100
AcDbEntity
8
0
100
AcDbCircle
10
-81.875746517841293
20
237.27480601532048
30
0
40
1.6499999999999915
0
CIRCLE
5
198
100
AcDbEntity
8
0
100
AcDbCircle
10
171.99425348181683
20
46.250000000000199
30
0
40
2.6000000000000156
0
CIRCLE
5
199
100
AcDbEntity
8
0
100
AcDbCircle
10
-81.875746517841293
20
169.53480601532047
30
0
40
1.6499999999999915
0
CIRCLE
5
200
100
AcDbEntity
8
0
100
AcDbCircle
10
0.016044601525684217
20
-296.89851005305832
30
0
40
2.6000000000000001
0
CIRCLE
5
201
100
AcDbEntity
8
0
100
AcDbCircle
10
161.99425348215871
20
277.90480601532045
30
0
40
2.5999999999999979
0
CIRCLE
5
202
100
AcDbEntity
8
0
100
AcDbCircle
10
161.9956111675163
20
18
30
0
40
1.6000000000000014
0
CIRCLE
5
203
100
AcDbEntity
8
0
100
AcDbCircle
10
-161.98054184125243
20
277.90480601532045
30
0
40
2.6000000000000156
0
CIRCLE
5
204
100
AcDbEntity
8
0
100
AcDbCircle
10
0.0068558204545254853
20
277.90480601532045
30
0
40
2.6000000000000001
0
CIRCLE
5
205
100
AcDbEntity
8
0
100
AcDbCircle
10
-161.98054184125243
20
-296.89851005305832
30
0
40
2.6000000000000156
0
CIRCLE
5
206
100
AcDbEntity
8
0
100
AcDbCircle
10
-162.00135768569965
20
29.000000000000018
30
0
40
1.6000000000000014
0
CIRCLE
5
207
100
AcDbEntity
8
0
100
AcDbCircle
10
161.99425348215871
20
-296.89851005305832
30
0
40
2.5999999999999979
0
LINE
5
208
100
AcDbEntity
8
0
100
AcDbLine
10
-181.98054184125243
20
-316.89851005305798
30
0
11
181.99425348215871
21
-316.89851005303973
31
0
0
LINE
5
209
100
AcDbEntity
8
0
100
AcDbLine
10
-181.98054995363603
20
303.40480601532045
30
0
11
-181.980549953636
21
-316.89851005305803
31
0
0
LINE
5
210
100
AcDbEntity
8
0
100
AcDbLine
10
181.99425348215871
20
303.40480601532045
30
0
11
-181.98054995363603
21
303.40480601532045
31
0
0
LINE
5
211
100
AcDbEntity
8
0
100
AcDbLine
10
181.99425348215871
20
303.40480601532045
30
0
11
181.99425348215871
21
-316.89851005303973
31
0
0
CIRCLE
5
212
100
AcDbEntity
8
0
100
AcDbCircle
10
140.57061116751635
20
46.250000000000036
30
0
40
4.0000000000000036
0
CIRCLE
5
213
100
AcDbEntity
8
0
100
AcDbCircle
10
-140.57635768569961
20
46.250000000000114
30
0
40
4.0000000000000036
0
CIRCLE
5
214
100
AcDbEntity
8
0
100
AcDbCircle
10
-140.57635768569961
20
46.250000000000114
30
0
40
4.0000000000000036
0
CIRCLE
5
215
100
AcDbEntity
8
0
100
AcDbCircle
10
140.57061116751635
20
46.250000000000036
30
0
40
4.0000000000000036
0
ENDSEC
0
SECTION
2
OBJECTS
0
DICTIONARY
5
C
100
AcDbDictionary
3
ACAD_GROUP
350
D
3
ACAD_MLINESTYLE
350
17
0
DICTIONARY
5
D
100
AcDbDictionary
0
DICTIONARY
5
1A
330
C
100
AcDbDictionary
0
DICTIONARY
5
17
100
AcDbDictionary
0
ENDSEC
0
EOF
