0
SECTION
2
HEADER
9
$INSUNITS
70
4
9
$ACADVER
1
AC1014
9
$HANDSEED
5
FFFF
0
ENDSEC
0
SECTION
2
TABLES
0
TABLE
2
VPORT
5
8
100
AcDbSymbolTable
0
ENDTAB
0
TABLE
2
LTYPE
5
5
100
AcDbSymbolTable
0
LTYPE
5
14
100
AcDbSymbolTableRecord
100
AcDbLinetypeTableRecord
2
BYBLOCK
70
0
0
LTYPE
5
15
100
AcDbSymbolTableRecord
100
AcDbLinetypeTableRecord
2
BYLAYER
70
0
0
ENDTAB
0
TABLE
2
LAYER
5
2
100
AcDbSymbolTable
70
2
0
LAYER
5
50
100
AcDbSymbolTableRecord
100
AcDbLayerTableRecord
2
0
70
0
6
CONTINUOUS
0
ENDTAB
0
TABLE
2
STYLE
5
3
100
AcDbSymbolTable
70
1
0
STYLE
5
11
100
AcDbSymbolTableRecord
100
AcDbTextStyleTableRecord
2
STANDARD
70
0
0
ENDTAB
0
TABLE
2
VIEW
5
6
100
AcDbSymbolTable
70
0
0
ENDTAB
0
TABLE
2
UCS
5
7
100
AcDbSymbolTable
70
0
0
ENDTAB
0
TABLE
2
APPID
5
9
100
AcDbSymbolTable
70
2
0
APPID
5
12
100
AcDbSymbolTableRecord
100
AcDbRegAppTableRecord
2
ACAD
70
0
0
ENDTAB
0
TABLE
2
DIMSTYLE
5
A
100
AcDbSymbolTable
70
1
0
ENDTAB
0
TABLE
2
BLOCK_RECORD
5
1
100
AcDbSymbolTable
70
1
0
BLOCK_RECORD
5
1F
100
AcDbSymbolTableRecord
100
AcDbBlockTableRecord
2
*MODEL_SPACE
0
BLOCK_RECORD
5
1B
100
AcDbSymbolTableRecord
100
AcDbBlockTableRecord
2
*PAPER_SPACE
0
ENDTAB
0
ENDSEC
0
SECTION
2
BLOCKS
0
BLOCK
5
20
100
AcDbEntity
100
AcDbBlockBegin
2
*MODEL_SPACE
0
ENDBLK
5
21
100
AcDbEntity
100
AcDbBlockEnd
0
BLOCK
5
1C
100
AcDbEntity
100
AcDbBlockBegin
2
*PAPER_SPACE
0
ENDBLK
5
1D
100
AcDbEntity
100
AcDbBlockEnd
0
ENDSEC
0
SECTION
2
ENTITIES
0
CIRCLE
5
100
100
AcDbEntity
8
0
100
AcDbCircle
10
0.21276967945322411
20
247.60480601532043
30
0
40
1.5999999999999972
0
CIRCLE
5
101
100
AcDbEntity
8
0
100
AcDbCircle
10
0.21276967945322411
20
267.60480601532043
30
0
40
1.6000000000000101
0
LWPOLYLINE
5
102
100
AcDbEntity
8
0
100
AcDbPolyline
90
8
70
1
43
0.0
10
-11.287230320546776
20
252.60480601532043
10
11.712769679453224
20
252.60480601532043
42
0.41421356237309503
10
12.712769679453224
20
253.60480601532046
10
12.712769679453224
20
261.60480601532043
42
0.41421356237309503
10
11.712769679453224
20
262.60480601532043
10
-11.287230320546776
20
262.60480601532043
42
0.41421356237309503
10
-12.287230320546776
20
261.60480601532043
10
-12.287230320546776
20
253.60480601532046
42
0.41421356237309503
0
LWPOLYLINE
5
103
100
AcDbEntity
8
0
100
AcDbPolyline
90
8
70
1
43
0.0
10
-163.79425348181485
20
81.150000000000091
10
-155.79425348181485
20
81.150000000000091
42
0.41421356237309503
10
-154.79425348181485
20
82.150000000000105
10
-154.79425348181488
20
105.15000000000009
42
0.41421356237309503
10
-155.79425348181488
20
106.15000000000009
10
-163.79425348181485
20
106.15000000000008
42
0.41421356237309503
10
-164.79425348181485
20
105.15000000000008
10
-164.79425348181485
20
82.150000000000091
42
0.41421356237309503
0
LWPOLYLINE
5
104
100
AcDbEntity
8
0
100
AcDbPolyline
90
8
70
1
43
0.0
10
136.80000017945326
20
81.150000000000091
10
159.80000017945324
20
81.150000000000091
42
0.41421356237309503
10
160.80000017945324
20
82.150000000000105
10
160.80000017945324
20
90.150000000000091
42
0.41421356237309503
10
159.80000017945321
20
91.150000000000091
10
136.80000017945324
20
91.150000000000077
42
0.41421356237309503
10
135.80000017945324
20
90.150000000000077
10
135.80000017945326
20
82.150000000000091
42
0.41421356237309503
0
CIRCLE
5
105
100
AcDbEntity
8
0
100
AcDbCircle
10
-171.79425348181485
20
74.150000000000091
30
0
40
2.7499999999999858
0
CIRCLE
5
106
100
AcDbEntity
8
0
100
AcDbCircle
10
171.80000017945326
20
74.150000000000091
30
0
40
2.7499999999999858
0
LINE
5
107
100
AcDbEntity
8
0
100
AcDbLine
10
-181.79425348181485
20
64.150000000000091
30
0
11
181.80000017945329
21
64.150000000000091
31
0
0
LINE
5
108
100
AcDbEntity
8
0
100
AcDbLine
10
181.80000017945326
20
64.150000000000091
30
0
11
181.80000017945326
21
297.60480601532043
31
0
0
LINE
5
109
100
AcDbEntity
8
0
100
AcDbLine
10
181.80000017945326
20
297.60480601532043
30
0
11
-181.79425348181491
21
297.60480601532043
31
0
0
LINE
5
110
100
AcDbEntity
8
0
100
AcDbLine
10
-181.79425348181485
20
297.60480601532043
30
0
11
-181.79425348181485
21
64.150000000000091
31
0
0
LWPOLYLINE
5
111
100
AcDbEntity
8
0
100
AcDbPolyline
90
8
70
1
43
0.0
10
160.80000017945324
20
82.150000000000105
42
-0.41421356237310025
10
159.80000017945321
20
81.150000000000105
10
136.80000017945326
20
81.150000000000077
42
-0.41421356237307422
10
135.80000017945324
20
82.150000000000091
10
135.80000017945321
20
90.150000000000077
42
-0.41421356237307422
10
136.80000017945324
20
91.150000000000091
10
159.80000017945321
20
91.150000000000148
42
-0.41421356237309503
10
160.80000017945324
20
90.150000000000091
0
LWPOLYLINE
5
112
100
AcDbEntity
8
0
100
AcDbPolyline
90
8
70
1
43
0.0
10
-12.287230320546755
20
261.60480601532043
42
-0.41421356237310542
10
-11.287230320546776
20
262.60480601532043
10
11.712769679453224
20
262.60480601532049
42
-0.41421356237310542
10
12.712769679453224
20
261.60480601532043
10
12.712769679453203
20
253.60480601532046
42
-0.41421356237310542
10
11.712769679453224
20
252.60480601532043
10
-11.287230320546776
20
252.60480601532041
42
-0.41421356237310542
10
-12.287230320546776
20
253.60480601532046
0
LWPOLYLINE
5
113
100
AcDbEntity
8
0
100
AcDbPolyline
90
8
70
1
43
0.0
10
-163.79425348181485
20
81.150000000000063
42
-0.41421356237308982
10
-164.79425348181482
20
82.150000000000091
10
-164.79425348181485
20
105.15000000000008
42
-0.41421356237308982
10
-163.79425348181485
20
106.15000000000009
10
-155.79425348181488
20
106.15000000000011
42
-0.41421356237307422
10
-154.79425348181485
20
105.15000000000009
10
-154.79425348181485
20
82.150000000000105
42
-0.41421356237307422
10
-155.79425348181485
20
81.150000000000091
0
CIRCLE
5
114
100
AcDbEntity
8
0
100
AcDbCircle
10
171.80000017945326
20
74.150000000000091
30
0
40
2.7499999999999858
0
CIRCLE
5
115
100
AcDbEntity
8
0
100
AcDbCircle
10
-171.79425348181485
20
74.150000000000091
30
0
40
2.7499999999999858
0
CIRCLE
5
116
100
AcDbEntity
8
0
100
AcDbCircle
10
0.21276967945322411
20
267.60480601532043
30
0
40
1.6000000000000101
0
CIRCLE
5
117
100
AcDbEntity
8
0
100
AcDbCircle
10
0.21276967945322411
20
247.60480601532043
30
0
40
1.5999999999999972
0
LINE
5
118
100
AcDbEntity
8
0
100
AcDbLine
10
181.80000017945326
20
297.60480601532043
30
0
11
181.80000017945326
21
64.150000000000091
31
0
0
LINE
5
119
100
AcDbEntity
8
0
100
AcDbLine
10
-181.79425348181485
20
297.60480601532043
30
0
11
181.80000017945329
21
297.60480601532043
31
0
0
LINE
5
120
100
AcDbEntity
8
0
100
AcDbLine
10
-181.79425348181485
20
64.150000000000091
30
0
11
-181.79425348181485
21
297.60480601532043
31
0
0
LINE
5
121
100
AcDbEntity
8
0
100
AcDbLine
10
181.80000017945326
20
64.150000000000091
30
0
11
-181.79425348181491
21
64.150000000000091
31
0
0
CIRCLE
5
122
100
AcDbEntity
8
0
100
AcDbCircle
10
-114.99712665118079
20
262.60480601532043
30
0
40
2.2499999999999964
0
CIRCLE
5
123
100
AcDbEntity
8
0
100
AcDbCircle
10
-64.997126651180764
20
112.60480601532043
30
0
40
2.2500000000000053
0
CIRCLE
5
124
100
AcDbEntity
8
0
100
AcDbCircle
10
-64.997126651180764
20
262.60480601532043
30
0
40
2.2499999999999871
0
CIRCLE
5
125
100
AcDbEntity
8
0
100
AcDbCircle
10
-114.99712665118076
20
112.60480601532043
30
0
40
2.2499999999999964
0
CIRCLE
5
126
100
AcDbEntity
8
0
100
AcDbCircle
10
-114.99712665118079
20
262.60480601532043
30
0
40
2.2499999999999964
0
CIRCLE
5
127
100
AcDbEntity
8
0
100
AcDbCircle
10
-64.997126651180764
20
112.60480601532043
30
0
40
2.2500000000000053
0
CIRCLE
5
128
100
AcDbEntity
8
0
100
AcDbCircle
10
-64.997126651180764
20
262.60480601532043
30
0
40
2.2499999999999876
0
CIRCLE
5
129
100
AcDbEntity
8
0
100
AcDbCircle
10
-114.99712665118076
20
112.60480601532043
30
0
40
2.2499999999999964
0
CIRCLE
5
130
100
AcDbEntity
8
0
100
AcDbCircle
10
-166.99425348187583
20
282.90480601532045
30
0
40
2.5999999999999801
0
CIRCLE
5
131
100
AcDbEntity
8
0
100
AcDbCircle
10
167.0000001794495
20
282.90480601532045
30
0
40
2.5999999999999801
0
CIRCLE
5
132
100
AcDbEntity
8
0
100
AcDbCircle
10
167.0000001794495
20
282.90480601532045
30
0
40
2.5999999999999801
0
CIRCLE
5
133
100
AcDbEntity
8
0
100
AcDbCircle
10
-166.99425348187583
20
282.90480601532045
30
0
40
2.5999999999999801
0
CIRCLE
5
134
100
AcDbEntity
8
0
100
AcDbCircle
10
146.80000017945326
20
227.60480601532043
30
0
40
1.5499999999999934
0
CIRCLE
5
135
100
AcDbEntity
8
0
100
AcDbCircle
10
146.80000017945326
20
227.60480601532043
30
0
40
1.5499999999999936
0
CIRCLE
5
136
100
AcDbEntity
8
0
100
AcDbCircle
10
46.800000179453249
20
97.604806015320449
30
0
40
1.5500000000000025
0
CIRCLE
5
137
100
AcDbEntity
8
0
100
AcDbCircle
10
96.800000179453249
20
130.10480601532043
30
0
40
1.5499999999999934
0
CIRCLE
5
138
100
AcDbEntity
8
0
100
AcDbCircle
10
146.80000017945326
20
97.604806015320449
30
0
40
1.5499999999999934
0
CIRCLE
5
139
100
AcDbEntity
8
0
100
AcDbCircle
10
-3.1999998205467506
20
130.10480601532043
30
0
40
1.5500000000000003
0
CIRCLE
5
140
100
AcDbEntity
8
0
100
AcDbCircle
10
46.800000179453249
20
130.10480601532043
30
0
40
1.5500000000000025
0
CIRCLE
5
141
100
AcDbEntity
8
0
100
AcDbCircle
10
-3.1999998205467506
20
97.604806015320449
30
0
40
1.5500000000000003
0
CIRCLE
5
142
100
AcDbEntity
8
0
100
AcDbCircle
10
96.800000179453249
20
97.604806015320449
30
0
40
1.5499999999999934
0
CIRCLE
5
143
100
AcDbEntity
8
0
100
AcDbCircle
10
146.80000017945326
20
130.10480601532043
30
0
40
1.5499999999999934
0
CIRCLE
5
144
100
AcDbEntity
8
0
100
AcDbCircle
10
96.800000179453249
20
195.10480601532043
30
0
40
1.5499999999999934
0
CIRCLE
5
145
100
AcDbEntity
8
0
100
AcDbCircle
10
46.800000179453249
20
195.10480601532043
30
0
40
1.5500000000000025
0
CIRCLE
5
146
100
AcDbEntity
8
0
100
AcDbCircle
10
-3.1999998205467506
20
195.10480601532043
30
0
40
1.5500000000000003
0
CIRCLE
5
147
100
AcDbEntity
8
0
100
AcDbCircle
10
146.80000017945326
20
162.60480601532043
30
0
40
1.5499999999999934
0
CIRCLE
5
148
100
AcDbEntity
8
0
100
AcDbCircle
10
96.800000179453249
20
162.60480601532043
30
0
40
1.5499999999999934
0
CIRCLE
5
149
100
AcDbEntity
8
0
100
AcDbCircle
10
46.800000179453249
20
162.60480601532043
30
0
40
1.5500000000000025
0
CIRCLE
5
150
100
AcDbEntity
8
0
100
AcDbCircle
10
-3.1999998205467506
20
162.60480601532043
30
0
40
1.5500000000000003
0
CIRCLE
5
151
100
AcDbEntity
8
0
100
AcDbCircle
10
146.80000017945326
20
195.10480601532043
30
0
40
1.5499999999999934
0
CIRCLE
5
152
100
AcDbEntity
8
0
100
AcDbCircle
10
-3.1999998205467506
20
227.60480601532043
30
0
40
1.5500000000000003
0
CIRCLE
5
153
100
AcDbEntity
8
0
100
AcDbCircle
10
96.800000179453249
20
227.60480601532043
30
0
40
1.5499999999999934
0
CIRCLE
5
154
100
AcDbEntity
8
0
100
AcDbCircle
10
46.800000179453249
20
227.60480601532043
30
0
40
1.5500000000000025
0
CIRCLE
5
155
100
AcDbEntity
8
0
100
AcDbCircle
10
46.800000179453249
20
227.60480601532043
30
0
40
1.5500000000000025
0
CIRCLE
5
156
100
AcDbEntity
8
0
100
AcDbCircle
10
96.800000179453249
20
227.60480601532043
30
0
40
1.5499999999999936
0
CIRCLE
5
157
100
AcDbEntity
8
0
100
AcDbCircle
10
-3.1999998205467506
20
227.60480601532043
30
0
40
1.5500000000000003
0
CIRCLE
5
158
100
AcDbEntity
8
0
100
AcDbCircle
10
146.80000017945326
20
195.10480601532043
30
0
40
1.5499999999999936
0
CIRCLE
5
159
100
AcDbEntity
8
0
100
AcDbCircle
10
-3.1999998205467506
20
162.60480601532043
30
0
40
1.5500000000000003
0
CIRCLE
5
160
100
AcDbEntity
8
0
100
AcDbCircle
10
46.800000179453249
20
162.60480601532043
30
0
40
1.5500000000000025
0
CIRCLE
5
161
100
AcDbEntity
8
0
100
AcDbCircle
10
96.800000179453249
20
162.60480601532043
30
0
40
1.5499999999999936
0
CIRCLE
5
162
100
AcDbEntity
8
0
100
AcDbCircle
10
146.80000017945326
20
162.60480601532043
30
0
40
1.5499999999999936
0
CIRCLE
5
163
100
AcDbEntity
8
0
100
AcDbCircle
10
-3.1999998205467506
20
195.10480601532043
30
0
40
1.5500000000000003
0
CIRCLE
5
164
100
AcDbEntity
8
0
100
AcDbCircle
10
46.800000179453249
20
195.10480601532043
30
0
40
1.5500000000000025
0
CIRCLE
5
165
100
AcDbEntity
8
0
100
AcDbCircle
10
96.800000179453249
20
195.10480601532043
30
0
40
1.5499999999999936
0
CIRCLE
5
166
100
AcDbEntity
8
0
100
AcDbCircle
10
146.80000017945326
20
130.10480601532043
30
0
40
1.5499999999999936
0
CIRCLE
5
167
100
AcDbEntity
8
0
100
AcDbCircle
10
96.800000179453249
20
97.604806015320449
30
0
40
1.5499999999999936
0
CIRCLE
5
168
100
AcDbEntity
8
0
100
AcDbCircle
10
-3.1999998205467506
20
97.604806015320449
30
0
40
1.5500000000000003
0
CIRCLE
5
169
100
AcDbEntity
8
0
100
AcDbCircle
10
46.800000179453249
20
130.10480601532043
30
0
40
1.5500000000000025
0
CIRCLE
5
170
100
AcDbEntity
8
0
100
AcDbCircle
10
-3.1999998205467506
20
130.10480601532043
30
0
40
1.5500000000000003
0
CIRCLE
5
171
100
AcDbEntity
8
0
100
AcDbCircle
10
146.80000017945326
20
97.604806015320449
30
0
40
1.5499999999999936
0
CIRCLE
5
172
100
AcDbEntity
8
0
100
AcDbCircle
10
96.800000179453249
20
130.10480601532043
30
0
40
1.5499999999999936
0
CIRCLE
5
173
100
AcDbEntity
8
0
100
AcDbCircle
10
46.800000179453249
20
97.604806015320449
30
0
40
1.5500000000000025
0
ENDSEC
0
SECTION
2
OBJECTS
0
DICTIONARY
5
C
100
AcDbDictionary
3
ACAD_GROUP
350
D
3
ACAD_MLINESTYLE
350
17
0
DICTIONARY
5
D
100
AcDbDictionary
0
DICTIONARY
5
1A
330
C
100
AcDbDictionary
0
DICTIONARY
5
17
100
AcDbDictionary
0
ENDSEC
0
EOF
