0
SECTION
2
HEADER
9
$INSUNITS
70
4
9
$ACADVER
1
AC1014
9
$HANDSEED
5
FFFF
0
ENDSEC
0
SECTION
2
TABLES
0
TABLE
2
VPORT
5
8
100
AcDbSymbolTable
0
ENDTAB
0
TABLE
2
LTYPE
5
5
100
AcDbSymbolTable
0
LTYPE
5
14
100
AcDbSymbolTableRecord
100
AcDbLinetypeTableRecord
2
BYBLOCK
70
0
0
LTYPE
5
15
100
AcDbSymbolTableRecord
100
AcDbLinetypeTableRecord
2
BYLAYER
70
0
0
ENDTAB
0
TABLE
2
LAYER
5
2
100
AcDbSymbolTable
70
2
0
LAYER
5
50
100
AcDbSymbolTableRecord
100
AcDbLayerTableRecord
2
0
70
0
6
CONTINUOUS
0
ENDTAB
0
TABLE
2
STYLE
5
3
100
AcDbSymbolTable
70
1
0
STYLE
5
11
100
AcDbSymbolTableRecord
100
AcDbTextStyleTableRecord
2
STANDARD
70
0
0
ENDTAB
0
TABLE
2
VIEW
5
6
100
AcDbSymbolTable
70
0
0
ENDTAB
0
TABLE
2
UCS
5
7
100
AcDbSymbolTable
70
0
0
ENDTAB
0
TABLE
2
APPID
5
9
100
AcDbSymbolTable
70
2
0
APPID
5
12
100
AcDbSymbolTableRecord
100
AcDbRegAppTableRecord
2
ACAD
70
0
0
ENDTAB
0
TABLE
2
DIMSTYLE
5
A
100
AcDbSymbolTable
70
1
0
ENDTAB
0
TABLE
2
BLOCK_RECORD
5
1
100
AcDbSymbolTable
70
1
0
BLOCK_RECORD
5
1F
100
AcDbSymbolTableRecord
100
AcDbBlockTableRecord
2
*MODEL_SPACE
0
BLOCK_RECORD
5
1B
100
AcDbSymbolTableRecord
100
AcDbBlockTableRecord
2
*PAPER_SPACE
0
ENDTAB
0
ENDSEC
0
SECTION
2
BLOCKS
0
BLOCK
5
20
100
AcDbEntity
100
AcDbBlockBegin
2
*MODEL_SPACE
0
ENDBLK
5
21
100
AcDbEntity
100
AcDbBlockEnd
0
BLOCK
5
1C
100
AcDbEntity
100
AcDbBlockBegin
2
*PAPER_SPACE
0
ENDBLK
5
1D
100
AcDbEntity
100
AcDbBlockEnd
0
ENDSEC
0
SECTION
2
ENTITIES
0
LINE
5
100
100
AcDbEntity
8
0
100
AcDbLine
10
-174.14983011004182
20
251.40480601532047
30
0
11
-116.15017690942733
21
251.40480601532047
31
8.4703294725430034e-21
0
ARC
5
101
100
AcDbEntity
8
0
100
AcDbCircle
10
-116.15017690942734
20
246.40480601532047
30
0
40
4.9999999999989164
100
AcDbArc
50
0
51
89.999999999999844
0
LINE
5
102
100
AcDbEntity
8
0
100
AcDbLine
10
-111.15017690942842
20
246.40480601532047
30
-5.2939559203382233e-22
11
-111.15017690942736
21
138.40480601532047
31
0
0
ARC
5
103
100
AcDbEntity
8
0
100
AcDbCircle
10
-116.15017690942736
20
138.40480601532047
30
0
40
5.0000000000010836
100
AcDbArc
50
-90
51
0
0
LINE
5
104
100
AcDbEntity
8
0
100
AcDbLine
10
-116.15017690942736
20
133.40480601531939
30
-5.8774717541139996e-38
11
-174.14983011004182
21
133.40480601532045
31
8.4703294725430034e-21
0
LINE
5
105
100
AcDbEntity
8
0
100
AcDbLine
10
-174.14983011004182
20
133.40480601532045
30
0
11
-174.14983011004182
21
-316.898510053037
31
0
0
LINE
5
106
100
AcDbEntity
8
0
100
AcDbLine
10
-174.14983011004182
20
-316.898510053037
30
0
11
182.50017047094809
21
-316.898510053037
31
-6.7762635780344027e-20
0
LINE
5
107
100
AcDbEntity
8
0
100
AcDbLine
10
182.50017047094809
20
-316.898510053037
30
-6.7762635780344027e-20
11
182.50017047094809
21
302.40480601532045
31
2.1418970554827805e-49
0
LINE
5
108
100
AcDbEntity
8
0
100
AcDbLine
10
181.50017047094855
20
303.40480601532045
30
6.0185310762099176e-36
11
-174.14983011004182
21
303.40480601532045
31
-3.5527136788005009e-14
0
LINE
5
109
100
AcDbEntity
8
0
100
AcDbLine
10
-174.14983011004182
20
303.40480601532045
30
-3.5527136788005009e-14
11
-174.14983011004182
21
251.40480601532039
31
0
0
CIRCLE
5
110
100
AcDbEntity
8
0
100
AcDbCircle
10
157.00017047095918
20
-296.898510053037
30
0
40
2.5999999999999979
0
CIRCLE
5
111
100
AcDbEntity
8
0
100
AcDbCircle
10
-154.14983011005057
20
-296.898510053037
30
0
40
2.5999999999999979
0
CIRCLE
5
112
100
AcDbEntity
8
0
100
AcDbCircle
10
157.00017047095918
20
277.90480601532045
30
0
40
2.5999999999999979
0
CIRCLE
5
113
100
AcDbEntity
8
0
100
AcDbCircle
10
-159.14983011004838
20
282.90480601532045
30
-3.5527136788005009e-14
40
2.5999999999999979
0
LWPOLYLINE
5
114
100
AcDbEntity
8
0
100
AcDbPolyline
90
4
70
1
43
0.0
10
-123.14983011006403
20
87.404806015320474
42
-0.99999999999999989
10
-123.14983011006406
20
83.404806015320489
10
-164.14983011004611
20
83.404806015320474
42
-0.99999999999999989
10
-164.1498301100462
20
87.404806015320446
0
CIRCLE
5
115
100
AcDbEntity
8
0
100
AcDbCircle
10
163.75017047095628
20
45.750000000000085
30
-3.5527136788005009e-14
40
2.6000000000000156
0
LWPOLYLINE
5
116
100
AcDbEntity
8
0
100
AcDbPolyline
90
4
70
1
43
0.0
10
-123.14983011006403
20
99.40480601532046
42
-0.99999999999999989
10
-123.14983011006406
20
95.404806015320474
10
-164.14983011004611
20
95.40480601532046
42
-0.99999999999999989
10
-164.1498301100462
20
99.404806015320446
0
CIRCLE
5
117
100
AcDbEntity
8
0
100
AcDbCircle
10
40.400162915330242
20
-286.898510053037
30
0
40
2.5999999999999979
0
CIRCLE
5
118
100
AcDbEntity
8
0
100
AcDbCircle
10
2.2501629153469671
20
25.001489946963027
30
0
40
2.6000000000000001
0
CIRCLE
5
119
100
AcDbEntity
8
0
100
AcDbCircle
10
34.500170471012567
20
277.90480601532045
30
0
40
2.5999999999999979
0
CIRCLE
5
120
100
AcDbEntity
8
0
100
AcDbCircle
10
-148.14983011005739
20
26.400000000000038
30
0
40
2.5999999999999979
0
LWPOLYLINE
5
121
100
AcDbEntity
8
0
100
AcDbPolyline
90
4
70
1
43
0.0
10
-123.14983011006403
20
105.40480601532042
42
-0.99999999999999989
10
-123.14983011006406
20
101.40480601532047
10
-164.14983011004611
20
101.40480601532046
42
-0.99999999999999989
10
-164.1498301100462
20
105.40480601532045
0
CIRCLE
5
122
100
AcDbEntity
8
0
100
AcDbCircle
10
-15.899837084645231
20
-286.898510053037
30
0
40
2.6000000000000001
0
LWPOLYLINE
5
123
100
AcDbEntity
8
0
100
AcDbPolyline
90
4
70
1
43
0.0
10
-164.14983011004611
20
89.40480601532046
42
-0.99999999999999989
10
-164.1498301100462
20
93.404806015320446
10
-123.14983011006403
20
93.404806015320432
42
-0.99999999999999989
10
-123.14983011006406
20
89.404806015320474
0
CIRCLE
5
124
100
AcDbEntity
8
0
100
AcDbCircle
10
57.250162915323003
20
25.001489946963016
30
0
40
2.5999999999999979
0
CIRCLE
5
125
100
AcDbEntity
8
0
100
AcDbCircle
10
-149.15017690942736
20
261.40480601532045
30
0
40
2.7499999999999862
0
CIRCLE
5
126
100
AcDbEntity
8
0
100
AcDbCircle
10
-149.15017690942736
20
123.40480601532047
30
0
40
2.750000000000004
0
LWPOLYLINE
5
127
100
AcDbEntity
8
0
100
AcDbPolyline
90
11
70
1
43
0.0
10
-174.14982497548891
20
-316.898510053037
10
-174.14982497548891
20
133.40480601532045
10
-116.15017691008141
20
133.40480601532047
42
0.41421356237309293
10
-111.15017691008141
20
138.40480601532047
10
-111.1501769100814
20
246.40480601532047
42
0.41421356237309398
10
-116.1501769100814
20
251.40480601532047
10
-174.14982497548894
20
251.40480601532047
10
-174.14982497548888
20
303.40480601532045
10
181.50017560550143
20
303.40480601532028
42
-0.4142135623730846
10
182.5001756055012
20
302.40480601532045
10
182.50017560550106
20
-316.898510053037
0
LWPOLYLINE
5
128
100
AcDbEntity
8
0
100
AcDbPolyline
90
4
70
1
43
0.0
10
-123.14982497551114
20
105.40480601532002
42
-0.99999999999999989
10
-123.14982497551114
20
101.40480601532089
10
-164.14982497549329
20
101.40480601532047
42
-0.99999999999999989
10
-164.14982497549329
20
105.40480601532046
0
LWPOLYLINE
5
129
100
AcDbEntity
8
0
100
AcDbPolyline
90
4
70
1
43
0.0
10
-123.14982497551114
20
99.40480601532002
42
-0.99999999999999989
10
-123.14982497551114
20
95.404806015320887
10
-164.14982497549329
20
95.404806015320474
42
-0.99999999999999989
10
-164.14982497549329
20
99.40480601532046
0
LWPOLYLINE
5
130
100
AcDbEntity
8
0
100
AcDbPolyline
90
4
70
1
43
0.0
10
-123.14982497551114
20
93.40480601532002
42
-0.99999999999999989
10
-123.14982497551114
20
89.404806015320887
10
-164.14982497549323
20
89.404806015320901
42
-0.99999999999999989
10
-164.14982497549332
20
93.404806015320048
0
LWPOLYLINE
5
131
100
AcDbEntity
8
0
100
AcDbPolyline
90
4
70
1
43
0.0
10
-123.14982497551114
20
87.40480601532002
42
-0.99999999999999989
10
-123.14982497551114
20
83.404806015320901
10
-164.14982497549329
20
83.404806015320489
42
-0.99999999999999989
10
-164.14982497549329
20
87.404806015320474
0
CIRCLE
5
132
100
AcDbEntity
8
0
100
AcDbCircle
10
157.00017560551208
20
-296.898510053037
30
-3.5527136788005009e-14
40
2.599999999998865
0
CIRCLE
5
133
100
AcDbEntity
8
0
100
AcDbCircle
10
-154.14982497549767
20
-296.898510053037
30
-3.5527136788005009e-14
40
2.599999999998865
0
CIRCLE
5
134
100
AcDbEntity
8
0
100
AcDbCircle
10
157.00017560551208
20
277.90480601532045
30
-3.5527136788005009e-14
40
2.599999999998865
0
CIRCLE
5
135
100
AcDbEntity
8
0
100
AcDbCircle
10
-159.14982497549548
20
282.90480601532045
30
-3.5527136788005009e-14
40
2.599999999998865
0
CIRCLE
5
136
100
AcDbEntity
8
0
100
AcDbCircle
10
163.75017560550918
20
45.750000000000085
30
-3.5527136788005009e-14
40
2.5999999999988828
0
CIRCLE
5
137
100
AcDbEntity
8
0
100
AcDbCircle
10
40.400168049883135
20
-286.898510053037
30
0
40
2.599999999998865
0
CIRCLE
5
138
100
AcDbEntity
8
0
100
AcDbCircle
10
2.2501680498998677
20
25.001489946963027
30
0
40
2.5999999999988672
0
CIRCLE
5
139
100
AcDbEntity
8
0
100
AcDbCircle
10
34.500175605565467
20
277.90480601532045
30
0
40
2.599999999998865
0
CIRCLE
5
140
100
AcDbEntity
8
0
100
AcDbCircle
10
-148.14982497550452
20
26.400000000000038
30
0
40
2.599999999998865
0
CIRCLE
5
141
100
AcDbEntity
8
0
100
AcDbCircle
10
-15.899831950092331
20
-286.898510053037
30
0
40
2.5999999999988672
0
CIRCLE
5
142
100
AcDbEntity
8
0
100
AcDbCircle
10
57.25016804987591
20
25.001489946963016
30
0
40
2.599999999998865
0
ARC
5
143
100
AcDbEntity
8
0
100
AcDbCircle
10
181.50017047094883
20
302.40480601532118
30
4.3173502457707998e-48
40
0.99999999999923261
100
AcDbArc
50
0
51
90.000000000016286
0
CIRCLE
5
144
100
AcDbEntity
8
0
100
AcDbCircle
10
-97.099824974834831
20
-53.285193984679573
30
0
40
2.5999999999999979
0
CIRCLE
5
145
100
AcDbEntity
8
0
100
AcDbCircle
10
-47.099824974834846
20
-53.285193984679573
30
0
40
2.6000000000000068
0
CIRCLE
5
146
100
AcDbEntity
8
0
100
AcDbCircle
10
-160.14983011004796
20
-139.19951005303699
30
0
40
2.5999999999999979
0
CIRCLE
5
147
100
AcDbEntity
8
0
100
AcDbCircle
10
-160.14982497549508
20
-139.19951005303699
30
0
40
2.599999999998865
0
CIRCLE
5
148
100
AcDbEntity
8
0
100
AcDbCircle
10
-149.15017691008143
20
261.40480601532045
30
0
40
2.7499999999999862
0
CIRCLE
5
149
100
AcDbEntity
8
0
100
AcDbCircle
10
-97.099824975488872
20
-53.285193984679573
30
0
40
2.5999999999999979
0
CIRCLE
5
150
100
AcDbEntity
8
0
100
AcDbCircle
10
-149.15017691008143
20
123.40480601532047
30
0
40
2.7500000000000044
0
CIRCLE
5
151
100
AcDbEntity
8
0
100
AcDbCircle
10
-47.099824975488893
20
-53.285193984679573
30
0
40
2.6000000000000068
0
LWPOLYLINE
5
152
100
AcDbEntity
8
0
100
AcDbPolyline
90
4
70
1
43
0.0
10
-164.1498301100462
20
77.404806015320474
10
-123.14983011006404
20
77.404806015320474
42
0.99999999999999989
10
-123.14983011006404
20
81.404806015320474
10
-164.1498301100462
20
81.404806015320474
42
0.99999999999999989
0
LWPOLYLINE
5
153
100
AcDbEntity
8
0
100
AcDbPolyline
90
4
70
1
43
0.0
10
-123.14982497551114
20
81.404806015320474
10
-164.14982497549329
20
81.404806015320474
42
0.99999999999999989
10
-164.14982497549329
20
77.404806015320474
10
-123.14982497551114
20
77.404806015320474
42
0.99999999999999989
0
ENDSEC
0
SECTION
2
OBJECTS
0
DICTIONARY
5
C
100
AcDbDictionary
3
ACAD_GROUP
350
D
3
ACAD_MLINESTYLE
350
17
0
DICTIONARY
5
D
100
AcDbDictionary
0
DICTIONARY
5
1A
330
C
100
AcDbDictionary
0
DICTIONARY
5
17
100
AcDbDictionary
0
ENDSEC
0
EOF
