0
SECTION
2
HEADER
9
$INSUNITS
70
4
9
$ACADVER
1
AC1014
9
$HANDSEED
5
FFFF
0
ENDSEC
0
SECTION
2
TABLES
0
TABLE
2
VPORT
5
8
100
AcDbSymbolTable
0
ENDTAB
0
TABLE
2
LTYPE
5
5
100
AcDbSymbolTable
0
LTYPE
5
14
100
AcDbSymbolTableRecord
100
AcDbLinetypeTableRecord
2
BYBLOCK
70
0
0
LTYPE
5
15
100
AcDbSymbolTableRecord
100
AcDbLinetypeTableRecord
2
BYLAYER
70
0
0
ENDTAB
0
TABLE
2
LAYER
5
2
100
AcDbSymbolTable
70
2
0
LAYER
5
50
100
AcDbSymbolTableRecord
100
AcDbLayerTableRecord
2
0
70
0
6
CONTINUOUS
0
ENDTAB
0
TABLE
2
STYLE
5
3
100
AcDbSymbolTable
70
1
0
STYLE
5
11
100
AcDbSymbolTableRecord
100
AcDbTextStyleTableRecord
2
STANDARD
70
0
0
ENDTAB
0
TABLE
2
VIEW
5
6
100
AcDbSymbolTable
70
0
0
ENDTAB
0
TABLE
2
UCS
5
7
100
AcDbSymbolTable
70
0
0
ENDTAB
0
TABLE
2
APPID
5
9
100
AcDbSymbolTable
70
2
0
APPID
5
12
100
AcDbSymbolTableRecord
100
AcDbRegAppTableRecord
2
ACAD
70
0
0
ENDTAB
0
TABLE
2
DIMSTYLE
5
A
100
AcDbSymbolTable
70
1
0
ENDTAB
0
TABLE
2
BLOCK_RECORD
5
1
100
AcDbSymbolTable
70
1
0
BLOCK_RECORD
5
1F
100
AcDbSymbolTableRecord
100
AcDbBlockTableRecord
2
*MODEL_SPACE
0
BLOCK_RECORD
5
1B
100
AcDbSymbolTableRecord
100
AcDbBlockTableRecord
2
*PAPER_SPACE
0
ENDTAB
0
ENDSEC
0
SECTION
2
BLOCKS
0
BLOCK
5
20
100
AcDbEntity
100
AcDbBlockBegin
2
*MODEL_SPACE
0
ENDBLK
5
21
100
AcDbEntity
100
AcDbBlockEnd
0
BLOCK
5
1C
100
AcDbEntity
100
AcDbBlockBegin
2
*PAPER_SPACE
0
ENDBLK
5
1D
100
AcDbEntity
100
AcDbBlockEnd
0
ENDSEC
0
SECTION
2
ENTITIES
0
CIRCLE
5
100
100
AcDbEntity
8
0
100
AcDbCircle
10
-161.99425348215871
20
-34.500000581145258
30
0
40
2.5999999999999979
0
CIRCLE
5
101
100
AcDbEntity
8
0
100
AcDbCircle
10
161.90000017945329
20
-156.90000058114524
30
0
40
2.6000000000000156
0
CIRCLE
5
102
100
AcDbEntity
8
0
100
AcDbCircle
10
-161.89425348215872
20
-156.90000058114524
30
0
40
2.5999999999999979
0
CIRCLE
5
103
100
AcDbEntity
8
0
100
AcDbCircle
10
162.00000017945331
20
-34.500000581145258
30
0
40
2.6000000000000156
0
CIRCLE
5
104
100
AcDbEntity
8
0
100
AcDbCircle
10
0
20
-156.90000058114524
30
0
40
2.6000000000000001
0
CIRCLE
5
105
100
AcDbEntity
8
0
100
AcDbCircle
10
-166.99425348215871
20
159.15000000000006
30
0
40
2.6000000000000156
0
CIRCLE
5
106
100
AcDbEntity
8
0
100
AcDbCircle
10
167.00000017945331
20
159.15000000000006
30
0
40
2.6000000000000156
0
LINE
5
107
100
AcDbEntity
8
0
100
AcDbLine
10
181.90000017945329
20
174.05000000000004
30
0
11
-181.89425348215872
21
174.05000000000004
31
0
0
LINE
5
108
100
AcDbEntity
8
0
100
AcDbLine
10
-181.89425348215872
20
174.05000000000004
30
0
11
-181.89425348215872
21
-176.90000058114524
31
0
0
LINE
5
109
100
AcDbEntity
8
0
100
AcDbLine
10
-181.89425348215872
20
-176.90000058114524
30
0
11
181.90000017945329
21
-176.90000058114524
31
0
0
LINE
5
110
100
AcDbEntity
8
0
100
AcDbLine
10
181.90000017945329
20
-176.90000058114524
30
0
11
181.90000017945329
21
174.05000000000004
31
0
0
CIRCLE
5
111
100
AcDbEntity
8
0
100
AcDbCircle
10
167.00000017945331
20
159.15000000000006
30
0
40
2.6000000000000156
0
CIRCLE
5
112
100
AcDbEntity
8
0
100
AcDbCircle
10
-166.99425348215871
20
159.15000000000006
30
0
40
2.6000000000000156
0
CIRCLE
5
113
100
AcDbEntity
8
0
100
AcDbCircle
10
0
20
-156.90000058114524
30
0
40
2.6000000000000001
0
CIRCLE
5
114
100
AcDbEntity
8
0
100
AcDbCircle
10
162.00000017945331
20
-34.500000581145258
30
0
40
2.6000000000000156
0
CIRCLE
5
115
100
AcDbEntity
8
0
100
AcDbCircle
10
-161.89425348215872
20
-156.90000058114524
30
0
40
2.5999999999999979
0
CIRCLE
5
116
100
AcDbEntity
8
0
100
AcDbCircle
10
161.90000017945329
20
-156.90000058114524
30
0
40
2.6000000000000156
0
CIRCLE
5
117
100
AcDbEntity
8
0
100
AcDbCircle
10
-161.99425348215871
20
-34.500000581145258
30
0
40
2.5999999999999979
0
LINE
5
118
100
AcDbEntity
8
0
100
AcDbLine
10
-181.89425348215872
20
-176.90000058114524
30
0
11
-181.89425348215872
21
174.05000000000004
31
0
0
LINE
5
119
100
AcDbEntity
8
0
100
AcDbLine
10
181.90000017945329
20
-176.90000058114524
30
0
11
-181.89425348215872
21
-176.90000058114524
31
0
0
LINE
5
120
100
AcDbEntity
8
0
100
AcDbLine
10
181.90000017945329
20
174.05000000000004
30
0
11
181.90000017945329
21
-176.90000058114524
31
0
0
LINE
5
121
100
AcDbEntity
8
0
100
AcDbLine
10
-181.89425348215872
20
174.05000000000004
30
0
11
181.90000017945329
21
174.05000000000004
31
0
0
CIRCLE
5
122
100
AcDbEntity
8
0
100
AcDbCircle
10
62
20
-136.40000058114524
30
0
40
2.5999999999999979
0
CIRCLE
5
123
100
AcDbEntity
8
0
100
AcDbCircle
10
-176
20
-136.40000058114524
30
0
40
2.6000000000000156
0
CIRCLE
5
124
100
AcDbEntity
8
0
100
AcDbCircle
10
176
20
-11.400000581145235
30
0
40
2.6000000000000156
0
CIRCLE
5
125
100
AcDbEntity
8
0
100
AcDbCircle
10
69.800000179453349
20
159.95000000000007
30
0
40
1.749999999999998
0
CIRCLE
5
126
100
AcDbEntity
8
0
100
AcDbCircle
10
109.80000017945335
20
127.95000000000007
30
0
40
1.7500000000000071
0
LWPOLYLINE
5
127
100
AcDbEntity
8
0
100
AcDbPolyline
90
4
70
1
43
0.0
10
131.80000017945335
20
163.95000000000007
42
-0.99999999999999989
10
131.80000017945335
20
159.95000000000007
10
119.80000017945332
20
159.95000000000007
42
-0.99999999999999989
10
119.80000017945332
20
163.95000000000007
0
LWPOLYLINE
5
128
100
AcDbEntity
8
0
100
AcDbPolyline
90
4
70
1
43
0.0
10
115.80000017945335
20
129.95000000000007
10
135.90000017945331
20
129.95000000000007
42
0.99999999999999989
10
135.90000017945331
20
133.95000000000007
10
115.80000017945335
20
133.95000000000007
42
0.99999999999999989
0
LWPOLYLINE
5
129
100
AcDbEntity
8
0
100
AcDbPolyline
90
4
70
1
43
0.0
10
91.800000179453349
20
127.95000000000005
42
-0.99999999999999989
10
91.800000179453349
20
123.95000000000007
10
79.800000179453349
20
123.9500000000001
42
-0.99999999999999989
10
79.800000179453349
20
127.95000000000009
0
LWPOLYLINE
5
130
100
AcDbEntity
8
0
100
AcDbPolyline
90
4
70
1
43
0.0
10
91.800000179453349
20
163.95000000000007
42
-0.99999999999999989
10
91.800000179453349
20
159.95000000000007
10
79.800000179453349
20
159.95000000000007
42
-0.99999999999999989
10
79.800000179453349
20
163.95000000000007
0
CIRCLE
5
131
100
AcDbEntity
8
0
100
AcDbCircle
10
-10.999999999999934
20
162.05000000000007
30
0
40
1.6000000000000003
0
CIRCLE
5
132
100
AcDbEntity
8
0
100
AcDbCircle
10
62
20
-11.400000581145235
30
0
40
2.5999999999999979
0
CIRCLE
5
133
100
AcDbEntity
8
0
100
AcDbCircle
10
-62
20
3.5999994188547646
30
0
40
2.5999999999999979
0
CIRCLE
5
134
100
AcDbEntity
8
0
100
AcDbCircle
10
11.000000000000041
20
162.05000000000007
30
0
40
1.6000000000000014
0
LWPOLYLINE
5
135
100
AcDbEntity
8
0
100
AcDbPolyline
90
4
70
1
43
0.0
10
67.800000179453349
20
141.9500000000001
42
-0.99999999999999989
10
67.800000179453349
20
145.9500000000001
10
89.130000179453347
20
145.95000000000005
42
-0.99999999999999989
10
89.130000179453347
20
141.95000000000007
0
LWPOLYLINE
5
136
100
AcDbEntity
8
0
100
AcDbPolyline
90
4
70
1
43
0.0
10
108.80000017945333
20
135.9500000000001
10
141.90000017945331
20
135.9500000000001
42
0.99999999999999989
10
141.90000017945329
20
139.9500000000001
10
108.80000017945333
20
139.9500000000001
42
0.99999999999999989
0
LWPOLYLINE
5
137
100
AcDbEntity
8
0
100
AcDbPolyline
90
4
70
1
43
0.0
10
131.90000017945331
20
127.95000000000005
42
-0.99999999999999989
10
131.90000017945331
20
123.95000000000007
10
119.80000017945332
20
123.9500000000001
42
-0.99999999999999989
10
119.80000017945332
20
127.95000000000009
0
CIRCLE
5
138
100
AcDbEntity
8
0
100
AcDbCircle
10
141.80000017945335
20
159.95000000000007
30
0
40
1.7500000000000071
0
CIRCLE
5
139
100
AcDbEntity
8
0
100
AcDbCircle
10
101.80000017945333
20
127.95000000000007
30
0
40
1.7500000000000071
0
CIRCLE
5
140
100
AcDbEntity
8
0
100
AcDbCircle
10
43
20
98.45000000000006
30
0
40
2.5999999999999979
0
CIRCLE
5
141
100
AcDbEntity
8
0
100
AcDbCircle
10
-176
20
3.5999994188547646
30
0
40
2.6000000000000156
0
CIRCLE
5
142
100
AcDbEntity
8
0
100
AcDbCircle
10
-62
20
-121.40000058114524
30
0
40
2.5999999999999979
0
CIRCLE
5
143
100
AcDbEntity
8
0
100
AcDbCircle
10
176
20
-121.40000058114524
30
0
40
2.6000000000000156
0
CIRCLE
5
144
100
AcDbEntity
8
0
100
AcDbCircle
10
62
20
-121.40000058114524
30
0
40
2.5999999999999979
0
CIRCLE
5
145
100
AcDbEntity
8
0
100
AcDbCircle
10
-176
20
-121.40000058114524
30
0
40
2.6000000000000156
0
CIRCLE
5
146
100
AcDbEntity
8
0
100
AcDbCircle
10
176
20
3.5999994188547646
30
0
40
2.6000000000000156
0
CIRCLE
5
147
100
AcDbEntity
8
0
100
AcDbCircle
10
69.800000179453349
20
127.95000000000007
30
0
40
1.749999999999998
0
CIRCLE
5
148
100
AcDbEntity
8
0
100
AcDbCircle
10
109.80000017945335
20
159.95000000000007
30
0
40
1.7500000000000071
0
LWPOLYLINE
5
149
100
AcDbEntity
8
0
100
AcDbPolyline
90
4
70
1
43
0.0
10
135.80000017945335
20
157.95000000000005
42
-0.99999999999999989
10
135.80000017945335
20
153.95000000000007
10
115.80000017945335
20
153.9500000000001
42
-0.99999999999999989
10
115.80000017945335
20
157.9500000000001
0
LWPOLYLINE
5
150
100
AcDbEntity
8
0
100
AcDbPolyline
90
4
70
1
43
0.0
10
143.90000017945334
20
145.95000000000005
42
-0.99999999999999989
10
143.90000017945334
20
141.95000000000007
10
122.46000017945333
20
141.9500000000001
42
-0.99999999999999989
10
122.46000017945333
20
145.9500000000001
0
LWPOLYLINE
5
151
100
AcDbEntity
8
0
100
AcDbPolyline
90
4
70
1
43
0.0
10
95.800000179453349
20
133.95000000000005
42
-0.99999999999999989
10
95.800000179453349
20
129.95000000000005
10
75.800000179453349
20
129.95000000000007
42
-0.99999999999999989
10
75.800000179453349
20
133.95000000000007
0
LWPOLYLINE
5
152
100
AcDbEntity
8
0
100
AcDbPolyline
90
4
70
1
43
0.0
10
69.800000179453349
20
147.95000000000013
42
-0.99999999999999989
10
69.800000179453349
20
151.9500000000001
10
102.80000017945333
20
151.95000000000007
42
-0.99999999999999989
10
102.80000017945333
20
147.9500000000001
0
LWPOLYLINE
5
153
100
AcDbEntity
8
0
100
AcDbPolyline
90
8
70
1
43
0.0
10
5.0000000000000586
20
149.05000000000007
10
5.00000000000004
20
170.05000000000007
42
0.41421356237309515
10
3.0000000000000404
20
172.05000000000007
10
-2.9999999999999272
20
172.05000000000007
42
0.41421356237309515
10
-4.9999999999999281
20
170.05000000000007
10
-4.9999999999999387
20
149.05000000000004
42
0.41421356237309492
10
-2.99999999999994
20
147.05000000000007
10
3.0000000000000586
20
147.05000000000007
42
0.41421356237309515
0
CIRCLE
5
154
100
AcDbEntity
8
0
100
AcDbCircle
10
62
20
3.5999994188547646
30
0
40
2.5999999999999979
0
CIRCLE
5
155
100
AcDbEntity
8
0
100
AcDbCircle
10
-62
20
-11.400000581145235
30
0
40
2.5999999999999979
0
LWPOLYLINE
5
156
100
AcDbEntity
8
0
100
AcDbPolyline
90
4
70
1
43
0.0
10
95.800000179453349
20
157.95000000000005
42
-0.99999999999999989
10
95.800000179453349
20
153.95000000000007
10
75.800000179453349
20
153.9500000000001
42
-0.99999999999999989
10
75.800000179453349
20
157.9500000000001
0
LWPOLYLINE
5
157
100
AcDbEntity
8
0
100
AcDbPolyline
90
4
70
1
43
0.0
10
69.800000179453349
20
135.95000000000013
42
-0.99999999999999989
10
69.800000179453349
20
139.9500000000001
10
102.80000017945333
20
139.95000000000007
42
-0.99999999999999989
10
102.80000017945333
20
135.9500000000001
0
LWPOLYLINE
5
158
100
AcDbEntity
8
0
100
AcDbPolyline
90
4
70
1
43
0.0
10
95.130000179453333
20
141.9500000000001
10
116.46000017945335
20
141.9500000000001
42
0.99999999999999989
10
116.46000017945333
20
145.9500000000001
10
95.130000179453333
20
145.9500000000001
42
0.99999999999999989
0
LWPOLYLINE
5
159
100
AcDbEntity
8
0
100
AcDbPolyline
90
4
70
1
43
0.0
10
141.80000017945335
20
151.95000000000007
42
-0.99999999999999989
10
141.80000017945335
20
147.9500000000001
10
108.80000017945333
20
147.95000000000013
42
-0.99999999999999989
10
108.80000017945333
20
151.9500000000001
0
CIRCLE
5
160
100
AcDbEntity
8
0
100
AcDbCircle
10
141.90000017945331
20
127.95000000000007
30
0
40
1.7500000000000071
0
CIRCLE
5
161
100
AcDbEntity
8
0
100
AcDbCircle
10
101.80000017945333
20
159.95000000000007
30
0
40
1.7500000000000071
0
CIRCLE
5
162
100
AcDbEntity
8
0
100
AcDbCircle
10
-43
20
98.45000000000006
30
0
40
2.6000000000000068
0
CIRCLE
5
163
100
AcDbEntity
8
0
100
AcDbCircle
10
-176
20
-11.400000581145235
30
0
40
2.6000000000000156
0
CIRCLE
5
164
100
AcDbEntity
8
0
100
AcDbCircle
10
-62
20
-136.40000058114524
30
0
40
2.5999999999999979
0
CIRCLE
5
165
100
AcDbEntity
8
0
100
AcDbCircle
10
175.99999999999997
20
-136.40000058114524
30
0
40
2.6000000000000156
0
LWPOLYLINE
5
166
100
AcDbEntity
8
0
100
AcDbPolyline
90
8
70
1
43
0.0
10
3.00000000000004
20
172.05000000000007
42
-0.41421356237309431
10
5.00000000000004
20
170.05000000000007
10
5.0000000000000719
20
149.05000000000007
42
-0.41421356237309531
10
3.0000000000000595
20
147.05000000000007
10
-2.9999999999999387
20
147.05000000000007
42
-0.41421356237309553
10
-4.9999999999999387
20
149.05000000000004
10
-4.999999999999913
20
170.05000000000007
42
-0.41421356237309404
10
-2.9999999999999276
20
172.05000000000007
0
LWPOLYLINE
5
167
100
AcDbEntity
8
0
100
AcDbPolyline
90
4
70
1
43
0.0
10
141.90000017945331
20
135.9500000000001
10
108.80000017945329
20
135.9500000000001
42
-0.99999999999999989
10
108.80000017945336
20
139.95000000000007
10
141.90000017945331
20
139.9500000000001
42
-0.99999999999999989
0
LWPOLYLINE
5
168
100
AcDbEntity
8
0
100
AcDbPolyline
90
4
70
1
43
0.0
10
131.90000017945331
20
127.95000000000005
42
-0.99999999999999989
10
131.90000017945329
20
123.95000000000007
10
119.80000017945332
20
123.95000000000005
42
-0.99999999999999989
10
119.80000017945332
20
127.95000000000007
0
LWPOLYLINE
5
169
100
AcDbEntity
8
0
100
AcDbPolyline
90
4
70
1
43
0.0
10
135.90000017945331
20
129.95000000000007
10
115.80000017945332
20
129.95000000000007
42
-0.99999999999999989
10
115.80000017945336
20
133.95000000000007
10
135.90000017945331
20
133.95000000000007
42
-0.99999999999999989
0
LWPOLYLINE
5
170
100
AcDbEntity
8
0
100
AcDbPolyline
90
4
70
1
43
0.0
10
116.46000017945337
20
145.9500000000001
42
-0.99999999999999989
10
116.46000017945329
20
141.9500000000001
10
95.130000179453333
20
141.9500000000001
42
-0.99999999999999989
10
95.130000179453333
20
145.9500000000001
0
LWPOLYLINE
5
171
100
AcDbEntity
8
0
100
AcDbPolyline
90
4
70
1
43
0.0
10
122.46000017945329
20
141.9500000000001
42
-0.99999999999999989
10
122.46000017945333
20
145.9500000000001
10
143.90000017945334
20
145.9500000000001
42
-0.99999999999999989
10
143.90000017945334
20
141.9500000000001
0
LWPOLYLINE
5
172
100
AcDbEntity
8
0
100
AcDbPolyline
90
4
70
1
43
0.0
10
141.80000017945335
20
151.9500000000001
42
-0.99999999999999989
10
141.80000017945332
20
147.9500000000001
10
108.80000017945333
20
147.95000000000007
42
-0.99999999999999989
10
108.80000017945333
20
151.9500000000001
0
LWPOLYLINE
5
173
100
AcDbEntity
8
0
100
AcDbPolyline
90
4
70
1
43
0.0
10
135.80000017945338
20
157.9500000000001
42
-0.99999999999999989
10
135.80000017945332
20
153.9500000000001
10
115.80000017945335
20
153.9500000000001
42
-0.99999999999999989
10
115.80000017945335
20
157.9500000000001
0
LWPOLYLINE
5
174
100
AcDbEntity
8
0
100
AcDbPolyline
90
4
70
1
43
0.0
10
131.80000017945332
20
163.95000000000007
42
-0.99999999999999989
10
131.80000017945335
20
159.95000000000007
10
119.80000017945336
20
159.95000000000007
42
-0.99999999999999989
10
119.80000017945332
20
163.95000000000007
0
LWPOLYLINE
5
175
100
AcDbEntity
8
0
100
AcDbPolyline
90
4
70
1
43
0.0
10
69.800000179453349
20
151.9500000000001
10
102.80000017945335
20
151.95000000000007
42
-0.99999999999999989
10
102.80000017945332
20
147.9500000000001
10
69.800000179453306
20
147.9500000000001
42
-0.99999999999999989
0
LWPOLYLINE
5
176
100
AcDbEntity
8
0
100
AcDbPolyline
90
4
70
1
43
0.0
10
67.800000179453349
20
145.9500000000001
10
89.130000179453376
20
145.9500000000001
42
-0.99999999999999989
10
89.130000179453305
20
141.9500000000001
10
67.800000179453363
20
141.95000000000005
42
-0.99999999999999989
0
LWPOLYLINE
5
177
100
AcDbEntity
8
0
100
AcDbPolyline
90
4
70
1
43
0.0
10
69.800000179453349
20
139.9500000000001
10
102.80000017945335
20
139.95000000000007
42
-0.99999999999999989
10
102.80000017945332
20
135.9500000000001
10
69.800000179453306
20
135.9500000000001
42
-0.99999999999999989
0
LWPOLYLINE
5
178
100
AcDbEntity
8
0
100
AcDbPolyline
90
4
70
1
43
0.0
10
95.800000179453377
20
133.95000000000007
42
-0.99999999999999989
10
95.800000179453306
20
129.95000000000007
10
75.80000017945332
20
129.95000000000005
42
-0.99999999999999989
10
75.800000179453349
20
133.95000000000007
0
LWPOLYLINE
5
179
100
AcDbEntity
8
0
100
AcDbPolyline
90
4
70
1
43
0.0
10
91.800000179453377
20
127.95000000000005
42
-0.99999999999999989
10
91.800000179453335
20
123.95000000000007
10
79.800000179453363
20
123.95000000000005
42
-0.99999999999999989
10
79.800000179453349
20
127.95000000000007
0
LWPOLYLINE
5
180
100
AcDbEntity
8
0
100
AcDbPolyline
90
4
70
1
43
0.0
10
95.800000179453349
20
153.95000000000007
10
75.800000179453306
20
153.95000000000007
42
-0.99999999999999989
10
75.800000179453363
20
157.9500000000001
10
95.800000179453349
20
157.9500000000001
42
-0.99999999999999989
0
LWPOLYLINE
5
181
100
AcDbEntity
8
0
100
AcDbPolyline
90
4
70
1
43
0.0
10
91.800000179453349
20
159.95000000000007
10
79.800000179453363
20
159.95000000000007
42
-0.99999999999999989
10
79.800000179453363
20
163.95000000000007
10
91.80000017945332
20
163.95000000000007
42
-0.99999999999999989
0
CIRCLE
5
182
100
AcDbEntity
8
0
100
AcDbCircle
10
62
20
-136.40000058114524
30
0
40
2.5999999999999979
0
CIRCLE
5
183
100
AcDbEntity
8
0
100
AcDbCircle
10
-176
20
-136.40000058114524
30
0
40
2.6000000000000156
0
CIRCLE
5
184
100
AcDbEntity
8
0
100
AcDbCircle
10
176
20
-11.400000581145235
30
0
40
2.6000000000000156
0
CIRCLE
5
185
100
AcDbEntity
8
0
100
AcDbCircle
10
69.800000179453349
20
159.95000000000007
30
0
40
1.7499999999999982
0
CIRCLE
5
186
100
AcDbEntity
8
0
100
AcDbCircle
10
109.80000017945335
20
127.95000000000007
30
0
40
1.7500000000000071
0
CIRCLE
5
187
100
AcDbEntity
8
0
100
AcDbCircle
10
-10.999999999999934
20
162.05000000000007
30
0
40
1.6000000000000003
0
CIRCLE
5
188
100
AcDbEntity
8
0
100
AcDbCircle
10
62
20
-11.400000581145235
30
0
40
2.5999999999999979
0
CIRCLE
5
189
100
AcDbEntity
8
0
100
AcDbCircle
10
-62
20
3.5999994188547646
30
0
40
2.5999999999999979
0
CIRCLE
5
190
100
AcDbEntity
8
0
100
AcDbCircle
10
11.000000000000041
20
162.05000000000007
30
0
40
1.6000000000000014
0
CIRCLE
5
191
100
AcDbEntity
8
0
100
AcDbCircle
10
141.80000017945335
20
159.95000000000007
30
0
40
1.7500000000000071
0
CIRCLE
5
192
100
AcDbEntity
8
0
100
AcDbCircle
10
101.80000017945333
20
127.95000000000007
30
0
40
1.7500000000000071
0
CIRCLE
5
193
100
AcDbEntity
8
0
100
AcDbCircle
10
43
20
98.45000000000006
30
0
40
2.5999999999999979
0
CIRCLE
5
194
100
AcDbEntity
8
0
100
AcDbCircle
10
-176
20
3.5999994188547646
30
0
40
2.6000000000000156
0
CIRCLE
5
195
100
AcDbEntity
8
0
100
AcDbCircle
10
-62
20
-121.40000058114524
30
0
40
2.5999999999999979
0
CIRCLE
5
196
100
AcDbEntity
8
0
100
AcDbCircle
10
176
20
-121.40000058114524
30
0
40
2.6000000000000156
0
CIRCLE
5
197
100
AcDbEntity
8
0
100
AcDbCircle
10
62
20
-121.40000058114524
30
0
40
2.5999999999999979
0
CIRCLE
5
198
100
AcDbEntity
8
0
100
AcDbCircle
10
-176
20
-121.40000058114524
30
0
40
2.6000000000000156
0
CIRCLE
5
199
100
AcDbEntity
8
0
100
AcDbCircle
10
176
20
3.5999994188547646
30
0
40
2.6000000000000156
0
CIRCLE
5
200
100
AcDbEntity
8
0
100
AcDbCircle
10
69.800000179453349
20
127.95000000000007
30
0
40
1.7499999999999982
0
CIRCLE
5
201
100
AcDbEntity
8
0
100
AcDbCircle
10
109.80000017945335
20
159.95000000000007
30
0
40
1.7500000000000071
0
CIRCLE
5
202
100
AcDbEntity
8
0
100
AcDbCircle
10
62
20
3.5999994188547646
30
0
40
2.5999999999999979
0
CIRCLE
5
203
100
AcDbEntity
8
0
100
AcDbCircle
10
-62
20
-11.400000581145235
30
0
40
2.5999999999999979
0
CIRCLE
5
204
100
AcDbEntity
8
0
100
AcDbCircle
10
141.90000017945331
20
127.95000000000007
30
0
40
1.7500000000000071
0
CIRCLE
5
205
100
AcDbEntity
8
0
100
AcDbCircle
10
101.80000017945333
20
159.95000000000007
30
0
40
1.7500000000000071
0
CIRCLE
5
206
100
AcDbEntity
8
0
100
AcDbCircle
10
-43
20
98.45000000000006
30
0
40
2.6000000000000068
0
CIRCLE
5
207
100
AcDbEntity
8
0
100
AcDbCircle
10
-176
20
-11.400000581145235
30
0
40
2.6000000000000156
0
CIRCLE
5
208
100
AcDbEntity
8
0
100
AcDbCircle
10
-62
20
-136.40000058114524
30
0
40
2.5999999999999979
0
CIRCLE
5
209
100
AcDbEntity
8
0
100
AcDbCircle
10
175.99999999999997
20
-136.40000058114524
30
0
40
2.6000000000000156
0
CIRCLE
5
210
100
AcDbEntity
8
0
100
AcDbCircle
10
0
20
-137.90000058114524
30
0
40
2.6000000000000001
0
CIRCLE
5
211
100
AcDbEntity
8
0
100
AcDbCircle
10
0
20
-137.90000058114524
30
0
40
2.6000000000000001
0
CIRCLE
5
212
100
AcDbEntity
8
0
100
AcDbCircle
10
-125.72727272727275
20
113.45000000000006
30
0
40
0.99999999999999645
0
CIRCLE
5
213
100
AcDbEntity
8
0
100
AcDbCircle
10
-96.63636363636364
20
122.45000000000006
30
0
40
0.99999999999999645
0
CIRCLE
5
214
100
AcDbEntity
8
0
100
AcDbCircle
10
-114.09090909090909
20
113.45000000000006
30
0
40
0.99999999999999645
0
CIRCLE
5
215
100
AcDbEntity
8
0
100
AcDbCircle
10
-119.90909090909092
20
122.45000000000006
30
0
40
0.99999999999999645
0
CIRCLE
5
216
100
AcDbEntity
8
0
100
AcDbCircle
10
-102.45454545454547
20
140.45000000000005
30
0
40
0.99999999999999645
0
CIRCLE
5
217
100
AcDbEntity
8
0
100
AcDbCircle
10
-96.63636363636364
20
131.45000000000005
30
0
40
0.99999999999999645
0
CIRCLE
5
218
100
AcDbEntity
8
0
100
AcDbCircle
10
-114.09090909090909
20
131.45000000000005
30
0
40
0.99999999999999645
0
CIRCLE
5
219
100
AcDbEntity
8
0
100
AcDbCircle
10
-102.45454545454547
20
149.45000000000005
30
0
40
0.99999999999999645
0
CIRCLE
5
220
100
AcDbEntity
8
0
100
AcDbCircle
10
-108.27272727272728
20
131.45000000000005
30
0
40
0.99999999999999645
0
CIRCLE
5
221
100
AcDbEntity
8
0
100
AcDbCircle
10
-119.90909090909092
20
149.45000000000005
30
0
40
0.99999999999999645
0
CIRCLE
5
222
100
AcDbEntity
8
0
100
AcDbCircle
10
-108.27272727272728
20
149.45000000000005
30
0
40
0.99999999999999645
0
CIRCLE
5
223
100
AcDbEntity
8
0
100
AcDbCircle
10
-125.72727272727275
20
131.45000000000005
30
0
40
0.99999999999999645
0
CIRCLE
5
224
100
AcDbEntity
8
0
100
AcDbCircle
10
-102.45454545454547
20
131.45000000000005
30
0
40
0.99999999999999645
0
CIRCLE
5
225
100
AcDbEntity
8
0
100
AcDbCircle
10
-125.72727272727275
20
140.45000000000005
30
0
40
0.99999999999999645
0
CIRCLE
5
226
100
AcDbEntity
8
0
100
AcDbCircle
10
-119.90909090909092
20
131.45000000000005
30
0
40
0.99999999999999645
0
CIRCLE
5
227
100
AcDbEntity
8
0
100
AcDbCircle
10
-96.63636363636364
20
140.45000000000005
30
0
40
0.99999999999999645
0
CIRCLE
5
228
100
AcDbEntity
8
0
100
AcDbCircle
10
-85
20
131.45000000000005
30
0
40
0.99999999999999645
0
CIRCLE
5
229
100
AcDbEntity
8
0
100
AcDbCircle
10
-108.27272727272728
20
113.45000000000006
30
0
40
0.99999999999999645
0
CIRCLE
5
230
100
AcDbEntity
8
0
100
AcDbCircle
10
-119.90909090909092
20
113.45000000000006
30
0
40
0.99999999999999645
0
CIRCLE
5
231
100
AcDbEntity
8
0
100
AcDbCircle
10
-96.63636363636364
20
113.45000000000006
30
0
40
0.99999999999999645
0
CIRCLE
5
232
100
AcDbEntity
8
0
100
AcDbCircle
10
-85
20
113.45000000000006
30
0
40
0.99999999999999645
0
CIRCLE
5
233
100
AcDbEntity
8
0
100
AcDbCircle
10
-85
20
122.45000000000006
30
0
40
0.99999999999999645
0
CIRCLE
5
234
100
AcDbEntity
8
0
100
AcDbCircle
10
-102.45454545454547
20
122.45000000000006
30
0
40
0.99999999999999645
0
CIRCLE
5
235
100
AcDbEntity
8
0
100
AcDbCircle
10
-114.09090909090909
20
122.45000000000006
30
0
40
0.99999999999999645
0
CIRCLE
5
236
100
AcDbEntity
8
0
100
AcDbCircle
10
-90.818181818181813
20
131.45000000000005
30
0
40
0.99999999999999645
0
CIRCLE
5
237
100
AcDbEntity
8
0
100
AcDbCircle
10
-119.90909090909092
20
140.45000000000005
30
0
40
0.99999999999999645
0
CIRCLE
5
238
100
AcDbEntity
8
0
100
AcDbCircle
10
-90.818181818181813
20
140.45000000000005
30
0
40
0.99999999999999645
0
CIRCLE
5
239
100
AcDbEntity
8
0
100
AcDbCircle
10
-90.818181818181813
20
149.45000000000005
30
0
40
0.99999999999999645
0
CIRCLE
5
240
100
AcDbEntity
8
0
100
AcDbCircle
10
-108.27272727272728
20
140.45000000000005
30
0
40
0.99999999999999645
0
CIRCLE
5
241
100
AcDbEntity
8
0
100
AcDbCircle
10
-114.09090909090909
20
149.45000000000005
30
0
40
0.99999999999999645
0
CIRCLE
5
242
100
AcDbEntity
8
0
100
AcDbCircle
10
-114.09090909090909
20
140.45000000000005
30
0
40
0.99999999999999645
0
CIRCLE
5
243
100
AcDbEntity
8
0
100
AcDbCircle
10
-85
20
140.45000000000005
30
0
40
0.99999999999999645
0
CIRCLE
5
244
100
AcDbEntity
8
0
100
AcDbCircle
10
-125.72727272727275
20
149.45000000000005
30
0
40
0.99999999999999645
0
CIRCLE
5
245
100
AcDbEntity
8
0
100
AcDbCircle
10
-125.72727272727275
20
122.45000000000006
30
0
40
0.99999999999999645
0
CIRCLE
5
246
100
AcDbEntity
8
0
100
AcDbCircle
10
-85
20
149.45000000000005
30
0
40
0.99999999999999645
0
CIRCLE
5
247
100
AcDbEntity
8
0
100
AcDbCircle
10
-96.63636363636364
20
149.45000000000005
30
0
40
0.99999999999999645
0
CIRCLE
5
248
100
AcDbEntity
8
0
100
AcDbCircle
10
-90.818181818181813
20
122.45000000000006
30
0
40
0.99999999999999645
0
CIRCLE
5
249
100
AcDbEntity
8
0
100
AcDbCircle
10
-102.45454545454547
20
113.45000000000006
30
0
40
0.99999999999999645
0
CIRCLE
5
250
100
AcDbEntity
8
0
100
AcDbCircle
10
-108.27272727272728
20
122.45000000000006
30
0
40
0.99999999999999645
0
CIRCLE
5
251
100
AcDbEntity
8
0
100
AcDbCircle
10
-90.818181818181813
20
113.45000000000006
30
0
40
0.99999999999999645
0
CIRCLE
5
252
100
AcDbEntity
8
0
100
AcDbCircle
10
-125.72727272727275
20
113.45000000000006
30
0
40
0.99999999999999645
0
CIRCLE
5
253
100
AcDbEntity
8
0
100
AcDbCircle
10
-96.63636363636364
20
122.45000000000006
30
0
40
0.99999999999999645
0
CIRCLE
5
254
100
AcDbEntity
8
0
100
AcDbCircle
10
-114.09090909090909
20
113.45000000000006
30
0
40
0.99999999999999645
0
CIRCLE
5
255
100
AcDbEntity
8
0
100
AcDbCircle
10
-119.90909090909092
20
122.45000000000006
30
0
40
0.99999999999999645
0
CIRCLE
5
256
100
AcDbEntity
8
0
100
AcDbCircle
10
-102.45454545454547
20
140.45000000000005
30
0
40
0.99999999999999645
0
CIRCLE
5
257
100
AcDbEntity
8
0
100
AcDbCircle
10
-96.63636363636364
20
131.45000000000005
30
0
40
0.99999999999999645
0
CIRCLE
5
258
100
AcDbEntity
8
0
100
AcDbCircle
10
-114.09090909090909
20
131.45000000000005
30
0
40
0.99999999999999645
0
CIRCLE
5
259
100
AcDbEntity
8
0
100
AcDbCircle
10
-102.45454545454547
20
149.45000000000005
30
0
40
0.99999999999999645
0
CIRCLE
5
260
100
AcDbEntity
8
0
100
AcDbCircle
10
-108.27272727272728
20
131.45000000000005
30
0
40
0.99999999999999645
0
CIRCLE
5
261
100
AcDbEntity
8
0
100
AcDbCircle
10
-119.90909090909092
20
149.45000000000005
30
0
40
0.99999999999999645
0
CIRCLE
5
262
100
AcDbEntity
8
0
100
AcDbCircle
10
-108.27272727272728
20
149.45000000000005
30
0
40
0.99999999999999645
0
CIRCLE
5
263
100
AcDbEntity
8
0
100
AcDbCircle
10
-125.72727272727275
20
131.45000000000005
30
0
40
0.99999999999999645
0
CIRCLE
5
264
100
AcDbEntity
8
0
100
AcDbCircle
10
-102.45454545454547
20
131.45000000000005
30
0
40
0.99999999999999645
0
CIRCLE
5
265
100
AcDbEntity
8
0
100
AcDbCircle
10
-125.72727272727275
20
140.45000000000005
30
0
40
0.99999999999999645
0
CIRCLE
5
266
100
AcDbEntity
8
0
100
AcDbCircle
10
-119.90909090909092
20
131.45000000000005
30
0
40
0.99999999999999645
0
CIRCLE
5
267
100
AcDbEntity
8
0
100
AcDbCircle
10
-96.63636363636364
20
140.45000000000005
30
0
40
0.99999999999999645
0
CIRCLE
5
268
100
AcDbEntity
8
0
100
AcDbCircle
10
-85
20
131.45000000000005
30
0
40
0.99999999999999645
0
CIRCLE
5
269
100
AcDbEntity
8
0
100
AcDbCircle
10
-108.27272727272728
20
113.45000000000006
30
0
40
0.99999999999999645
0
CIRCLE
5
270
100
AcDbEntity
8
0
100
AcDbCircle
10
-119.90909090909092
20
113.45000000000006
30
0
40
0.99999999999999645
0
CIRCLE
5
271
100
AcDbEntity
8
0
100
AcDbCircle
10
-96.63636363636364
20
113.45000000000006
30
0
40
0.99999999999999645
0
CIRCLE
5
272
100
AcDbEntity
8
0
100
AcDbCircle
10
-85
20
113.45000000000006
30
0
40
0.99999999999999645
0
CIRCLE
5
273
100
AcDbEntity
8
0
100
AcDbCircle
10
-85
20
122.45000000000006
30
0
40
0.99999999999999645
0
CIRCLE
5
274
100
AcDbEntity
8
0
100
AcDbCircle
10
-102.45454545454547
20
122.45000000000006
30
0
40
0.99999999999999645
0
CIRCLE
5
275
100
AcDbEntity
8
0
100
AcDbCircle
10
-114.09090909090909
20
122.45000000000006
30
0
40
0.99999999999999645
0
CIRCLE
5
276
100
AcDbEntity
8
0
100
AcDbCircle
10
-90.818181818181813
20
131.45000000000005
30
0
40
0.99999999999999645
0
CIRCLE
5
277
100
AcDbEntity
8
0
100
AcDbCircle
10
-119.90909090909092
20
140.45000000000005
30
0
40
0.99999999999999645
0
CIRCLE
5
278
100
AcDbEntity
8
0
100
AcDbCircle
10
-90.818181818181813
20
140.45000000000005
30
0
40
0.99999999999999645
0
CIRCLE
5
279
100
AcDbEntity
8
0
100
AcDbCircle
10
-90.818181818181813
20
149.45000000000005
30
0
40
0.99999999999999645
0
CIRCLE
5
280
100
AcDbEntity
8
0
100
AcDbCircle
10
-108.27272727272728
20
140.45000000000005
30
0
40
0.99999999999999645
0
CIRCLE
5
281
100
AcDbEntity
8
0
100
AcDbCircle
10
-114.09090909090909
20
149.45000000000005
30
0
40
0.99999999999999645
0
CIRCLE
5
282
100
AcDbEntity
8
0
100
AcDbCircle
10
-114.09090909090909
20
140.45000000000005
30
0
40
0.99999999999999645
0
CIRCLE
5
283
100
AcDbEntity
8
0
100
AcDbCircle
10
-85
20
140.45000000000005
30
0
40
0.99999999999999645
0
CIRCLE
5
284
100
AcDbEntity
8
0
100
AcDbCircle
10
-125.72727272727275
20
149.45000000000005
30
0
40
0.99999999999999645
0
CIRCLE
5
285
100
AcDbEntity
8
0
100
AcDbCircle
10
-125.72727272727275
20
122.45000000000006
30
0
40
0.99999999999999645
0
CIRCLE
5
286
100
AcDbEntity
8
0
100
AcDbCircle
10
-85
20
149.45000000000005
30
0
40
0.99999999999999645
0
CIRCLE
5
287
100
AcDbEntity
8
0
100
AcDbCircle
10
-96.63636363636364
20
149.45000000000005
30
0
40
0.99999999999999645
0
CIRCLE
5
288
100
AcDbEntity
8
0
100
AcDbCircle
10
-90.818181818181813
20
122.45000000000006
30
0
40
0.99999999999999645
0
CIRCLE
5
289
100
AcDbEntity
8
0
100
AcDbCircle
10
-102.45454545454547
20
113.45000000000006
30
0
40
0.99999999999999645
0
CIRCLE
5
290
100
AcDbEntity
8
0
100
AcDbCircle
10
-108.27272727272728
20
122.45000000000006
30
0
40
0.99999999999999645
0
CIRCLE
5
291
100
AcDbEntity
8
0
100
AcDbCircle
10
-90.818181818181813
20
113.45000000000006
30
0
40
0.99999999999999645
0
CIRCLE
5
292
100
AcDbEntity
8
0
100
AcDbCircle
10
-123
20
-122.90000058114524
30
0
40
2.5999999999999979
0
CIRCLE
5
293
100
AcDbEntity
8
0
100
AcDbCircle
10
123
20
-122.90000058114524
30
0
40
2.5999999999999979
0
CIRCLE
5
294
100
AcDbEntity
8
0
100
AcDbCircle
10
-123
20
-137.90000058114524
30
0
40
2.5999999999999979
0
CIRCLE
5
295
100
AcDbEntity
8
0
100
AcDbCircle
10
0
20
-122.90000058114524
30
0
40
2.6000000000000001
0
CIRCLE
5
296
100
AcDbEntity
8
0
100
AcDbCircle
10
123
20
-137.90000058114524
30
0
40
2.5999999999999979
0
CIRCLE
5
297
100
AcDbEntity
8
0
100
AcDbCircle
10
-123
20
-122.90000058114524
30
0
40
2.5999999999999979
0
CIRCLE
5
298
100
AcDbEntity
8
0
100
AcDbCircle
10
123
20
-122.90000058114524
30
0
40
2.5999999999999979
0
CIRCLE
5
299
100
AcDbEntity
8
0
100
AcDbCircle
10
-123
20
-137.90000058114524
30
0
40
2.5999999999999979
0
CIRCLE
5
300
100
AcDbEntity
8
0
100
AcDbCircle
10
0
20
-122.90000058114524
30
0
40
2.6000000000000001
0
CIRCLE
5
301
100
AcDbEntity
8
0
100
AcDbCircle
10
123
20
-137.90000058114524
30
0
40
2.5999999999999979
0
CIRCLE
5
302
100
AcDbEntity
8
0
100
AcDbCircle
10
-102.45454545454547
20
167.45000000000005
30
0
40
0.99999999999999645
0
CIRCLE
5
303
100
AcDbEntity
8
0
100
AcDbCircle
10
-114.09090909090909
20
158.45000000000005
30
0
40
0.99999999999999645
0
CIRCLE
5
304
100
AcDbEntity
8
0
100
AcDbCircle
10
-85
20
167.45000000000005
30
0
40
0.99999999999999645
0
CIRCLE
5
305
100
AcDbEntity
8
0
100
AcDbCircle
10
-119.90909090909092
20
167.45000000000005
30
0
40
0.99999999999999645
0
CIRCLE
5
306
100
AcDbEntity
8
0
100
AcDbCircle
10
-131.54545454545456
20
158.45000000000005
30
0
40
0.99999999999999645
0
CIRCLE
5
307
100
AcDbEntity
8
0
100
AcDbCircle
10
-137.36363636363637
20
167.45000000000005
30
0
40
0.99999999999999645
0
CIRCLE
5
308
100
AcDbEntity
8
0
100
AcDbCircle
10
-131.54545454545456
20
140.45000000000005
30
0
40
0.99999999999999645
0
CIRCLE
5
309
100
AcDbEntity
8
0
100
AcDbCircle
10
-143.18181818181819
20
140.45000000000005
30
0
40
0.99999999999999645
0
CIRCLE
5
310
100
AcDbEntity
8
0
100
AcDbCircle
10
-149.00000000000003
20
131.45000000000005
30
0
40
0.99999999999999645
0
CIRCLE
5
311
100
AcDbEntity
8
0
100
AcDbCircle
10
-149.00000000000003
20
113.45000000000006
30
0
40
0.99999999999999645
0
CIRCLE
5
312
100
AcDbEntity
8
0
100
AcDbCircle
10
-131.54545454545456
20
122.45000000000006
30
0
40
0.99999999999999645
0
CIRCLE
5
313
100
AcDbEntity
8
0
100
AcDbCircle
10
-137.36363636363637
20
113.45000000000006
30
0
40
0.99999999999999645
0
CIRCLE
5
314
100
AcDbEntity
8
0
100
AcDbCircle
10
-137.36363636363637
20
122.45000000000006
30
0
40
0.99999999999999645
0
CIRCLE
5
315
100
AcDbEntity
8
0
100
AcDbCircle
10
-131.54545454545456
20
131.45000000000005
30
0
40
0.99999999999999645
0
CIRCLE
5
316
100
AcDbEntity
8
0
100
AcDbCircle
10
-137.36363636363637
20
140.45000000000005
30
0
40
0.99999999999999645
0
CIRCLE
5
317
100
AcDbEntity
8
0
100
AcDbCircle
10
-149.00000000000003
20
158.45000000000005
30
0
40
0.99999999999999645
0
CIRCLE
5
318
100
AcDbEntity
8
0
100
AcDbCircle
10
-149.00000000000003
20
167.45000000000005
30
0
40
0.99999999999999645
0
CIRCLE
5
319
100
AcDbEntity
8
0
100
AcDbCircle
10
-143.18181818181819
20
158.45000000000005
30
0
40
0.99999999999999645
0
CIRCLE
5
320
100
AcDbEntity
8
0
100
AcDbCircle
10
-96.63636363636364
20
158.45000000000005
30
0
40
0.99999999999999645
0
CIRCLE
5
321
100
AcDbEntity
8
0
100
AcDbCircle
10
-114.09090909090909
20
167.45000000000005
30
0
40
0.99999999999999645
0
CIRCLE
5
322
100
AcDbEntity
8
0
100
AcDbCircle
10
-125.72727272727275
20
158.45000000000005
30
0
40
0.99999999999999645
0
CIRCLE
5
323
100
AcDbEntity
8
0
100
AcDbCircle
10
-85
20
158.45000000000005
30
0
40
0.99999999999999645
0
CIRCLE
5
324
100
AcDbEntity
8
0
100
AcDbCircle
10
-119.90909090909092
20
158.45000000000005
30
0
40
0.99999999999999645
0
CIRCLE
5
325
100
AcDbEntity
8
0
100
AcDbCircle
10
-96.63636363636364
20
167.45000000000005
30
0
40
0.99999999999999645
0
CIRCLE
5
326
100
AcDbEntity
8
0
100
AcDbCircle
10
-90.818181818181813
20
158.45000000000005
30
0
40
0.99999999999999645
0
CIRCLE
5
327
100
AcDbEntity
8
0
100
AcDbCircle
10
-102.45454545454547
20
158.45000000000005
30
0
40
0.99999999999999645
0
CIRCLE
5
328
100
AcDbEntity
8
0
100
AcDbCircle
10
-143.18181818181819
20
167.45000000000005
30
0
40
0.99999999999999645
0
CIRCLE
5
329
100
AcDbEntity
8
0
100
AcDbCircle
10
-143.18181818181819
20
149.45000000000005
30
0
40
0.99999999999999645
0
CIRCLE
5
330
100
AcDbEntity
8
0
100
AcDbCircle
10
-149.00000000000003
20
140.45000000000005
30
0
40
0.99999999999999645
0
CIRCLE
5
331
100
AcDbEntity
8
0
100
AcDbCircle
10
-137.36363636363637
20
149.45000000000005
30
0
40
0.99999999999999645
0
CIRCLE
5
332
100
AcDbEntity
8
0
100
AcDbCircle
10
-143.18181818181819
20
131.45000000000005
30
0
40
0.99999999999999645
0
CIRCLE
5
333
100
AcDbEntity
8
0
100
AcDbCircle
10
-143.18181818181819
20
122.45000000000006
30
0
40
0.99999999999999645
0
CIRCLE
5
334
100
AcDbEntity
8
0
100
AcDbCircle
10
-143.18181818181819
20
113.45000000000006
30
0
40
0.99999999999999645
0
CIRCLE
5
335
100
AcDbEntity
8
0
100
AcDbCircle
10
-131.54545454545456
20
113.45000000000006
30
0
40
0.99999999999999645
0
CIRCLE
5
336
100
AcDbEntity
8
0
100
AcDbCircle
10
-149.00000000000003
20
122.45000000000006
30
0
40
0.99999999999999645
0
CIRCLE
5
337
100
AcDbEntity
8
0
100
AcDbCircle
10
-131.54545454545456
20
149.45000000000005
30
0
40
0.99999999999999645
0
CIRCLE
5
338
100
AcDbEntity
8
0
100
AcDbCircle
10
-137.36363636363637
20
131.45000000000005
30
0
40
0.99999999999999645
0
CIRCLE
5
339
100
AcDbEntity
8
0
100
AcDbCircle
10
-137.36363636363637
20
158.45000000000005
30
0
40
0.99999999999999645
0
CIRCLE
5
340
100
AcDbEntity
8
0
100
AcDbCircle
10
-131.54545454545456
20
167.45000000000005
30
0
40
0.99999999999999645
0
CIRCLE
5
341
100
AcDbEntity
8
0
100
AcDbCircle
10
-149.00000000000003
20
149.45000000000005
30
0
40
0.99999999999999645
0
CIRCLE
5
342
100
AcDbEntity
8
0
100
AcDbCircle
10
-108.27272727272728
20
167.45000000000005
30
0
40
0.99999999999999645
0
CIRCLE
5
343
100
AcDbEntity
8
0
100
AcDbCircle
10
-90.818181818181813
20
167.45000000000005
30
0
40
0.99999999999999645
0
CIRCLE
5
344
100
AcDbEntity
8
0
100
AcDbCircle
10
-125.72727272727275
20
167.45000000000005
30
0
40
0.99999999999999645
0
CIRCLE
5
345
100
AcDbEntity
8
0
100
AcDbCircle
10
-108.27272727272728
20
158.45000000000005
30
0
40
0.99999999999999645
0
CIRCLE
5
346
100
AcDbEntity
8
0
100
AcDbCircle
10
-102.45454545454547
20
167.45000000000005
30
0
40
0.99999999999999645
0
CIRCLE
5
347
100
AcDbEntity
8
0
100
AcDbCircle
10
-114.09090909090909
20
158.45000000000005
30
0
40
0.99999999999999645
0
CIRCLE
5
348
100
AcDbEntity
8
0
100
AcDbCircle
10
-85
20
167.45000000000005
30
0
40
0.99999999999999645
0
CIRCLE
5
349
100
AcDbEntity
8
0
100
AcDbCircle
10
-119.90909090909092
20
167.45000000000005
30
0
40
0.99999999999999645
0
CIRCLE
5
350
100
AcDbEntity
8
0
100
AcDbCircle
10
-131.54545454545456
20
158.45000000000005
30
0
40
0.99999999999999645
0
CIRCLE
5
351
100
AcDbEntity
8
0
100
AcDbCircle
10
-137.36363636363637
20
167.45000000000005
30
0
40
0.99999999999999645
0
CIRCLE
5
352
100
AcDbEntity
8
0
100
AcDbCircle
10
-131.54545454545456
20
140.45000000000005
30
0
40
0.99999999999999645
0
CIRCLE
5
353
100
AcDbEntity
8
0
100
AcDbCircle
10
-143.18181818181819
20
140.45000000000005
30
0
40
0.99999999999999645
0
CIRCLE
5
354
100
AcDbEntity
8
0
100
AcDbCircle
10
-149.00000000000003
20
131.45000000000005
30
0
40
0.99999999999999645
0
CIRCLE
5
355
100
AcDbEntity
8
0
100
AcDbCircle
10
-149.00000000000003
20
113.45000000000006
30
0
40
0.99999999999999645
0
CIRCLE
5
356
100
AcDbEntity
8
0
100
AcDbCircle
10
-131.54545454545456
20
122.45000000000006
30
0
40
0.99999999999999645
0
CIRCLE
5
357
100
AcDbEntity
8
0
100
AcDbCircle
10
-137.36363636363637
20
113.45000000000006
30
0
40
0.99999999999999645
0
CIRCLE
5
358
100
AcDbEntity
8
0
100
AcDbCircle
10
-137.36363636363637
20
122.45000000000006
30
0
40
0.99999999999999645
0
CIRCLE
5
359
100
AcDbEntity
8
0
100
AcDbCircle
10
-131.54545454545456
20
131.45000000000005
30
0
40
0.99999999999999645
0
CIRCLE
5
360
100
AcDbEntity
8
0
100
AcDbCircle
10
-137.36363636363637
20
140.45000000000005
30
0
40
0.99999999999999645
0
CIRCLE
5
361
100
AcDbEntity
8
0
100
AcDbCircle
10
-149.00000000000003
20
158.45000000000005
30
0
40
0.99999999999999645
0
CIRCLE
5
362
100
AcDbEntity
8
0
100
AcDbCircle
10
-149.00000000000003
20
167.45000000000005
30
0
40
0.99999999999999645
0
CIRCLE
5
363
100
AcDbEntity
8
0
100
AcDbCircle
10
-143.18181818181819
20
158.45000000000005
30
0
40
0.99999999999999645
0
CIRCLE
5
364
100
AcDbEntity
8
0
100
AcDbCircle
10
-96.63636363636364
20
158.45000000000005
30
0
40
0.99999999999999645
0
CIRCLE
5
365
100
AcDbEntity
8
0
100
AcDbCircle
10
-114.09090909090909
20
167.45000000000005
30
0
40
0.99999999999999645
0
CIRCLE
5
366
100
AcDbEntity
8
0
100
AcDbCircle
10
-125.72727272727275
20
158.45000000000005
30
0
40
0.99999999999999645
0
CIRCLE
5
367
100
AcDbEntity
8
0
100
AcDbCircle
10
-85
20
158.45000000000005
30
0
40
0.99999999999999645
0
CIRCLE
5
368
100
AcDbEntity
8
0
100
AcDbCircle
10
-119.90909090909092
20
158.45000000000005
30
0
40
0.99999999999999645
0
CIRCLE
5
369
100
AcDbEntity
8
0
100
AcDbCircle
10
-96.63636363636364
20
167.45000000000005
30
0
40
0.99999999999999645
0
CIRCLE
5
370
100
AcDbEntity
8
0
100
AcDbCircle
10
-90.818181818181813
20
158.45000000000005
30
0
40
0.99999999999999645
0
CIRCLE
5
371
100
AcDbEntity
8
0
100
AcDbCircle
10
-102.45454545454547
20
158.45000000000005
30
0
40
0.99999999999999645
0
CIRCLE
5
372
100
AcDbEntity
8
0
100
AcDbCircle
10
-143.18181818181819
20
167.45000000000005
30
0
40
0.99999999999999645
0
CIRCLE
5
373
100
AcDbEntity
8
0
100
AcDbCircle
10
-143.18181818181819
20
149.45000000000005
30
0
40
0.99999999999999645
0
CIRCLE
5
374
100
AcDbEntity
8
0
100
AcDbCircle
10
-149.00000000000003
20
140.45000000000005
30
0
40
0.99999999999999645
0
CIRCLE
5
375
100
AcDbEntity
8
0
100
AcDbCircle
10
-137.36363636363637
20
149.45000000000005
30
0
40
0.99999999999999645
0
CIRCLE
5
376
100
AcDbEntity
8
0
100
AcDbCircle
10
-143.18181818181819
20
131.45000000000005
30
0
40
0.99999999999999645
0
CIRCLE
5
377
100
AcDbEntity
8
0
100
AcDbCircle
10
-143.18181818181819
20
122.45000000000006
30
0
40
0.99999999999999645
0
CIRCLE
5
378
100
AcDbEntity
8
0
100
AcDbCircle
10
-143.18181818181819
20
113.45000000000006
30
0
40
0.99999999999999645
0
CIRCLE
5
379
100
AcDbEntity
8
0
100
AcDbCircle
10
-131.54545454545456
20
113.45000000000006
30
0
40
0.99999999999999645
0
CIRCLE
5
380
100
AcDbEntity
8
0
100
AcDbCircle
10
-149.00000000000003
20
122.45000000000006
30
0
40
0.99999999999999645
0
CIRCLE
5
381
100
AcDbEntity
8
0
100
AcDbCircle
10
-131.54545454545456
20
149.45000000000005
30
0
40
0.99999999999999645
0
CIRCLE
5
382
100
AcDbEntity
8
0
100
AcDbCircle
10
-137.36363636363637
20
131.45000000000005
30
0
40
0.99999999999999645
0
CIRCLE
5
383
100
AcDbEntity
8
0
100
AcDbCircle
10
-137.36363636363637
20
158.45000000000005
30
0
40
0.99999999999999645
0
CIRCLE
5
384
100
AcDbEntity
8
0
100
AcDbCircle
10
-131.54545454545456
20
167.45000000000005
30
0
40
0.99999999999999645
0
CIRCLE
5
385
100
AcDbEntity
8
0
100
AcDbCircle
10
-149.00000000000003
20
149.45000000000005
30
0
40
0.99999999999999645
0
CIRCLE
5
386
100
AcDbEntity
8
0
100
AcDbCircle
10
-108.27272727272728
20
167.45000000000005
30
0
40
0.99999999999999645
0
CIRCLE
5
387
100
AcDbEntity
8
0
100
AcDbCircle
10
-90.818181818181813
20
167.45000000000005
30
0
40
0.99999999999999645
0
CIRCLE
5
388
100
AcDbEntity
8
0
100
AcDbCircle
10
-125.72727272727275
20
167.45000000000005
30
0
40
0.99999999999999645
0
CIRCLE
5
389
100
AcDbEntity
8
0
100
AcDbCircle
10
-108.27272727272728
20
158.45000000000005
30
0
40
0.99999999999999645
0
CIRCLE
5
390
100
AcDbEntity
8
0
100
AcDbCircle
10
-10
20
5.599999418854761
30
0
40
2.6000000000000001
0
CIRCLE
5
391
100
AcDbEntity
8
0
100
AcDbCircle
10
134
20
-9.4000005811452354
30
0
40
2.5999999999999979
0
CIRCLE
5
392
100
AcDbEntity
8
0
100
AcDbCircle
10
-134.00000000000003
20
-9.4000005811452354
30
0
40
2.5999999999999979
0
CIRCLE
5
393
100
AcDbEntity
8
0
100
AcDbCircle
10
-10
20
-9.4000005811452354
30
0
40
2.6000000000000001
0
CIRCLE
5
394
100
AcDbEntity
8
0
100
AcDbCircle
10
134
20
5.5999994188547646
30
0
40
2.5999999999999979
0
CIRCLE
5
395
100
AcDbEntity
8
0
100
AcDbCircle
10
-134.00000000000003
20
5.5999994188547628
30
0
40
2.5999999999999979
0
CIRCLE
5
396
100
AcDbEntity
8
0
100
AcDbCircle
10
-10
20
5.599999418854761
30
0
40
2.6000000000000001
0
CIRCLE
5
397
100
AcDbEntity
8
0
100
AcDbCircle
10
134
20
-9.4000005811452354
30
0
40
2.5999999999999979
0
CIRCLE
5
398
100
AcDbEntity
8
0
100
AcDbCircle
10
-134.00000000000003
20
-9.4000005811452354
30
0
40
2.5999999999999979
0
CIRCLE
5
399
100
AcDbEntity
8
0
100
AcDbCircle
10
-10
20
-9.4000005811452354
30
0
40
2.6000000000000001
0
CIRCLE
5
400
100
AcDbEntity
8
0
100
AcDbCircle
10
134
20
5.5999994188547646
30
0
40
2.5999999999999979
0
CIRCLE
5
401
100
AcDbEntity
8
0
100
AcDbCircle
10
-134.00000000000003
20
5.5999994188547628
30
0
40
2.5999999999999979
0
ENDSEC
0
SECTION
2
OBJECTS
0
DICTIONARY
5
C
100
AcDbDictionary
3
ACAD_GROUP
350
D
3
ACAD_MLINESTYLE
350
17
0
DICTIONARY
5
D
100
AcDbDictionary
0
DICTIONARY
5
1A
330
C
100
AcDbDictionary
0
DICTIONARY
5
17
100
AcDbDictionary
0
ENDSEC
0
EOF
