0
SECTION
2
HEADER
9
$INSUNITS
70
4
9
$ACADVER
1
AC1014
9
$HANDSEED
5
FFFF
0
ENDSEC
0
SECTION
2
TABLES
0
TABLE
2
VPORT
5
8
100
AcDbSymbolTable
0
ENDTAB
0
TABLE
2
LTYPE
5
5
100
AcDbSymbolTable
0
LTYPE
5
14
100
AcDbSymbolTableRecord
100
AcDbLinetypeTableRecord
2
BYBLOCK
70
0
0
LTYPE
5
15
100
AcDbSymbolTableRecord
100
AcDbLinetypeTableRecord
2
BYLAYER
70
0
0
ENDTAB
0
TABLE
2
LAYER
5
2
100
AcDbSymbolTable
70
2
0
LAYER
5
50
100
AcDbSymbolTableRecord
100
AcDbLayerTableRecord
2
0
70
0
6
CONTINUOUS
0
ENDTAB
0
TABLE
2
STYLE
5
3
100
AcDbSymbolTable
70
1
0
STYLE
5
11
100
AcDbSymbolTableRecord
100
AcDbTextStyleTableRecord
2
STANDARD
70
0
0
ENDTAB
0
TABLE
2
VIEW
5
6
100
AcDbSymbolTable
70
0
0
ENDTAB
0
TABLE
2
UCS
5
7
100
AcDbSymbolTable
70
0
0
ENDTAB
0
TABLE
2
APPID
5
9
100
AcDbSymbolTable
70
2
0
APPID
5
12
100
AcDbSymbolTableRecord
100
AcDbRegAppTableRecord
2
ACAD
70
0
0
ENDTAB
0
TABLE
2
DIMSTYLE
5
A
100
AcDbSymbolTable
70
1
0
ENDTAB
0
TABLE
2
BLOCK_RECORD
5
1
100
AcDbSymbolTable
70
1
0
BLOCK_RECORD
5
1F
100
AcDbSymbolTableRecord
100
AcDbBlockTableRecord
2
*MODEL_SPACE
0
BLOCK_RECORD
5
1B
100
AcDbSymbolTableRecord
100
AcDbBlockTableRecord
2
*PAPER_SPACE
0
ENDTAB
0
ENDSEC
0
SECTION
2
BLOCKS
0
BLOCK
5
20
100
AcDbEntity
100
AcDbBlockBegin
2
*MODEL_SPACE
0
ENDBLK
5
21
100
AcDbEntity
100
AcDbBlockEnd
0
BLOCK
5
1C
100
AcDbEntity
100
AcDbBlockBegin
2
*PAPER_SPACE
0
ENDBLK
5
1D
100
AcDbEntity
100
AcDbBlockEnd
0
ENDSEC
0
SECTION
2
ENTITIES
0
LWPOLYLINE
5
100
100
AcDbEntity
8
0
100
AcDbPolyline
90
4
70
1
43
0.0
10
-179.14425348181732
20
135.00000000000048
42
-0.99999999999999989
10
-171.84425348181733
20
135.00000000000054
10
-171.84425348181725
20
132.50000000000048
42
-0.99999999999999989
10
-179.14425348181723
20
132.5000000000004
0
CIRCLE
5
101
100
AcDbEntity
8
0
100
AcDbCircle
10
-147.74819269468563
20
132.40879053202039
30
0
40
4
0
LWPOLYLINE
5
102
100
AcDbEntity
8
0
100
AcDbPolyline
90
4
70
1
43
0.0
10
179.15000000000052
20
132.50000000000026
42
-0.99999999999999989
10
171.85000000000056
20
132.5000000000006
10
171.85000000000059
20
135.00000000000057
42
-0.99999999999999989
10
179.15000000000063
20
135.0000000000004
0
CIRCLE
5
103
100
AcDbEntity
8
0
100
AcDbCircle
10
175.50000000000119
20
163.50000000000051
30
0
40
2.5
0
CIRCLE
5
104
100
AcDbEntity
8
0
100
AcDbCircle
10
-147.84941180745852
20
163.27141819023586
30
0
40
4.0000000000000009
0
CIRCLE
5
105
100
AcDbEntity
8
0
100
AcDbCircle
10
-169.49425348181819
20
148.15000000000026
30
0
40
2.6000000000000023
0
CIRCLE
5
106
100
AcDbEntity
8
0
100
AcDbCircle
10
147.78007205627472
20
163.64999994039545
30
0
40
3.9999999999999858
0
CIRCLE
5
107
100
AcDbEntity
8
0
100
AcDbCircle
10
147.78007205627478
20
132.64999947845945
30
0
40
4.0000000000000213
0
LWPOLYLINE
5
108
100
AcDbEntity
8
0
100
AcDbPolyline
90
4
70
1
43
0.0
10
123.16594764969715
20
171.15000000000006
10
123.16594764969719
20
156.15000000000006
10
133.1659476496971
20
156.15000000000006
10
133.16594764969744
20
171.15000000000006
0
LWPOLYLINE
5
109
100
AcDbEntity
8
0
100
AcDbPolyline
90
4
70
1
43
0.0
10
-133.16020113151416
20
171.05000000000013
10
-133.16020113151384
20
156.05000000000004
10
-123.16020113151383
20
156.05000000000004
10
-123.16020113151383
20
171.05000000000013
0
CIRCLE
5
110
100
AcDbEntity
8
0
100
AcDbCircle
10
169.50000000000145
20
148.15000000000026
30
0
40
2.6000000000000156
0
CIRCLE
5
111
100
AcDbEntity
8
0
100
AcDbCircle
10
157.00000000000148
20
160.65000000000026
30
0
40
2.6000000000000156
0
CIRCLE
5
112
100
AcDbEntity
8
0
100
AcDbCircle
10
-156.99425348181816
20
160.65000000000026
30
0
40
2.5999999999999979
0
CIRCLE
5
113
100
AcDbEntity
8
0
100
AcDbCircle
10
-171.89425348181487
20
118.55000000000005
30
0
40
1.749999999999998
0
CIRCLE
5
114
100
AcDbEntity
8
0
100
AcDbCircle
10
171.90000017945329
20
118.55000000000005
30
0
40
1.7500000000000071
0
LINE
5
115
100
AcDbEntity
8
0
100
AcDbLine
10
181.90000017945334
20
108.55000000000004
30
0
11
181.90000017945334
21
174.05000000000007
31
0
0
LINE
5
116
100
AcDbEntity
8
0
100
AcDbLine
10
181.90000017945334
20
174.05000000000007
30
0
11
-181.8942534818149
21
174.05000000000007
31
0
0
LINE
5
117
100
AcDbEntity
8
0
100
AcDbLine
10
-181.89425348181487
20
174.05000000000007
30
0
11
-181.89425348181487
21
108.55000000000004
31
0
0
LINE
5
118
100
AcDbEntity
8
0
100
AcDbLine
10
-181.89425348181487
20
108.55000000000004
30
0
11
-175.39425348181487
21
108.55000000000004
31
0
0
CIRCLE
5
119
100
AcDbEntity
8
0
100
AcDbCircle
10
146.57635768569963
20
-169.00000058114523
30
0
40
2.6000000000000156
0
CIRCLE
5
120
100
AcDbEntity
8
0
100
AcDbCircle
10
167.00000000000145
20
-158.50000058114523
30
0
40
2.6000000000000156
0
LINE
5
121
100
AcDbEntity
8
0
100
AcDbLine
10
-181.89425348181493
20
-176.70000058114525
30
0
11
-131.57061116752396
21
-176.70000058114516
31
0
0
LINE
5
122
100
AcDbEntity
8
0
100
AcDbLine
10
-131.57061116752396
20
-176.70000058114516
30
0
11
-131.57061116752396
21
-152.50000058114523
31
0
0
ARC
5
123
100
AcDbEntity
8
0
100
AcDbCircle
10
-133.57061116752396
20
-152.50000058114523
30
0
40
1.9999999999999929
100
AcDbArc
50
0
51
90
0
LINE
5
124
100
AcDbEntity
8
0
100
AcDbLine
10
-133.57061116752396
20
-150.50000058114523
30
0
11
-154.89425348181496
21
-150.50000058114523
31
0
0
LINE
5
125
100
AcDbEntity
8
0
100
AcDbLine
10
-154.89425348181496
20
-150.50000058114523
30
0
11
-154.89425348181496
21
103.55000000000007
31
0
0
LINE
5
126
100
AcDbEntity
8
0
100
AcDbLine
10
-154.89425348181496
20
103.55000000000007
30
0
11
-149.89425348181496
21
108.55000000000005
31
0
0
LINE
5
127
100
AcDbEntity
8
0
100
AcDbLine
10
150.00000017945328
20
108.55000000000005
30
0
11
155.00000017945331
21
103.55000000000005
31
0
0
LINE
5
128
100
AcDbEntity
8
0
100
AcDbLine
10
155.00000017945331
20
103.55000000000005
30
0
11
155.00000017945328
21
-150.50000058114523
31
0
0
LINE
5
129
100
AcDbEntity
8
0
100
AcDbLine
10
155.00000017945328
20
-150.50000058114523
30
0
11
133.57635768569958
21
-150.50000058114523
31
0
0
ARC
5
130
100
AcDbEntity
8
0
100
AcDbCircle
10
133.57635768569955
20
-152.50000058114523
30
0
40
1.9999999999999929
100
AcDbArc
50
89.99999999999919
51
180
0
LINE
5
131
100
AcDbEntity
8
0
100
AcDbLine
10
131.57635768569955
20
-152.50000058114517
30
0
11
131.57635768569961
21
-176.70000058114525
31
0
0
LINE
5
132
100
AcDbEntity
8
0
100
AcDbLine
10
131.57635768569961
20
-176.70000058114525
30
0
11
181.90000017945334
21
-176.70000058114516
31
0
0
CIRCLE
5
133
100
AcDbEntity
8
0
100
AcDbCircle
10
-166.99425348182584
20
-158.50000058114523
30
0
40
2.599999999999989
0
CIRCLE
5
134
100
AcDbEntity
8
0
100
AcDbCircle
10
-146.57061116752396
20
-169.00000058114523
30
0
40
2.5999999999999845
0
LINE
5
135
100
AcDbEntity
8
0
100
AcDbLine
10
-175.39425348181487
20
108.55000000000004
30
0
11
-175.39425348181487
21
80.550000000000068
31
0
0
LINE
5
136
100
AcDbEntity
8
0
100
AcDbLine
10
-175.39425348181487
20
80.550000000000068
30
0
11
-181.89425348181487
21
80.550000000000068
31
0
0
LINE
5
137
100
AcDbEntity
8
0
100
AcDbLine
10
-181.89425348181487
20
80.550000000000068
30
0
11
-181.89425348181493
21
-176.70000058114525
31
0
0
LINE
5
138
100
AcDbEntity
8
0
100
AcDbLine
10
181.90000017945334
20
-176.70000058114516
30
0
11
181.90000017945334
21
80.550000000000068
31
0
0
LINE
5
139
100
AcDbEntity
8
0
100
AcDbLine
10
181.90000017945334
20
80.550000000000068
30
0
11
175.40000017945329
21
80.550000000000068
31
0
0
LINE
5
140
100
AcDbEntity
8
0
100
AcDbLine
10
175.40000017945329
20
80.550000000000068
30
0
11
175.40000017945329
21
108.55000000000004
31
0
0
LINE
5
141
100
AcDbEntity
8
0
100
AcDbLine
10
175.40000017945329
20
108.55000000000004
30
0
11
181.90000017945334
21
108.55000000000004
31
0
0
CIRCLE
5
142
100
AcDbEntity
8
0
100
AcDbCircle
10
-175.49425348181796
20
163.50000000000051
30
0
40
2.5
0
CIRCLE
5
143
100
AcDbEntity
8
0
100
AcDbCircle
10
147.78007205627472
20
163.64999994039545
30
0
40
3.9999999999999858
0
CIRCLE
5
144
100
AcDbEntity
8
0
100
AcDbCircle
10
-147.84941180745852
20
163.27141819023586
30
0
40
4.0000000000000009
0
CIRCLE
5
145
100
AcDbEntity
8
0
100
AcDbCircle
10
-146.57061116752396
20
-169.00000058114523
30
0
40
2.5999999999999845
0
CIRCLE
5
146
100
AcDbEntity
8
0
100
AcDbCircle
10
-156.99425348181816
20
160.65000000000026
30
0
40
2.5999999999999979
0
CIRCLE
5
147
100
AcDbEntity
8
0
100
AcDbCircle
10
146.57635768569963
20
-169.00000058114523
30
0
40
2.6000000000000156
0
LWPOLYLINE
5
148
100
AcDbEntity
8
0
100
AcDbPolyline
90
4
70
1
43
0.0
10
-179.14425348181732
20
135.00000000000048
42
-0.99999999999999989
10
-171.84425348181733
20
135.00000000000054
10
-171.84425348181725
20
132.50000000000051
42
-0.99999999999999989
10
-179.14425348181723
20
132.5000000000004
0
LWPOLYLINE
5
149
100
AcDbEntity
8
0
100
AcDbPolyline
90
4
70
1
43
0.0
10
-133.16020113151384
20
156.05000000000007
10
-133.16020113151416
20
171.05000000000007
10
-123.16020113151383
20
171.05000000000007
10
-123.16020113151383
20
156.05000000000007
0
CIRCLE
5
150
100
AcDbEntity
8
0
100
AcDbCircle
10
-171.89425348181487
20
118.55000000000005
30
0
40
1.749999999999998
0
CIRCLE
5
151
100
AcDbEntity
8
0
100
AcDbCircle
10
147.78007205627478
20
132.64999947845945
30
0
40
4.0000000000000213
0
CIRCLE
5
152
100
AcDbEntity
8
0
100
AcDbCircle
10
-175.49425348181796
20
163.50000000000051
30
0
40
2.5
0
CIRCLE
5
153
100
AcDbEntity
8
0
100
AcDbCircle
10
169.50000000000145
20
148.15000000000026
30
0
40
2.6000000000000156
0
LWPOLYLINE
5
154
100
AcDbEntity
8
0
100
AcDbPolyline
90
4
70
1
43
0.0
10
179.15000000000052
20
132.50000000000026
42
-0.99999999999999989
10
171.85000000000056
20
132.5000000000006
10
171.85000000000059
20
135.00000000000057
42
-0.99999999999999989
10
179.15000000000063
20
135.0000000000004
0
LWPOLYLINE
5
155
100
AcDbEntity
8
0
100
AcDbPolyline
90
4
70
1
43
0.0
10
123.16594764969716
20
156.15000000000006
10
123.16594764969716
20
171.15000000000006
10
133.16594764969744
20
171.15000000000006
10
133.16594764969713
20
156.15000000000006
0
CIRCLE
5
156
100
AcDbEntity
8
0
100
AcDbCircle
10
-147.74819269468563
20
132.40879053202039
30
0
40
4
0
CIRCLE
5
157
100
AcDbEntity
8
0
100
AcDbCircle
10
175.50000000000119
20
163.50000000000051
30
0
40
2.5
0
CIRCLE
5
158
100
AcDbEntity
8
0
100
AcDbCircle
10
171.90000017945329
20
118.55000000000005
30
0
40
1.7500000000000071
0
CIRCLE
5
159
100
AcDbEntity
8
0
100
AcDbCircle
10
-166.99425348182584
20
-158.50000058114523
30
0
40
2.599999999999989
0
CIRCLE
5
160
100
AcDbEntity
8
0
100
AcDbCircle
10
157.00000000000148
20
160.65000000000026
30
0
40
2.6000000000000156
0
CIRCLE
5
161
100
AcDbEntity
8
0
100
AcDbCircle
10
-169.49425348181819
20
148.15000000000026
30
0
40
2.6000000000000023
0
CIRCLE
5
162
100
AcDbEntity
8
0
100
AcDbCircle
10
167.00000000000145
20
-158.50000058114523
30
0
40
2.6000000000000156
0
LINE
5
163
100
AcDbEntity
8
0
100
AcDbLine
10
181.90000017945329
20
174.05000000000004
30
0
11
181.90000017945329
21
108.55000000000005
31
0
0
LINE
5
164
100
AcDbEntity
8
0
100
AcDbLine
10
181.90000017945329
20
108.55000000000005
30
0
11
175.40000017945331
21
108.55000000000005
31
0
0
LINE
5
165
100
AcDbEntity
8
0
100
AcDbLine
10
175.40000017945331
20
108.55000000000005
30
0
11
175.40000017945331
21
80.550000000000054
31
0
0
LINE
5
166
100
AcDbEntity
8
0
100
AcDbLine
10
175.40000017945331
20
80.550000000000054
30
0
11
181.90000017945329
21
80.550000000000054
31
0
0
LINE
5
167
100
AcDbEntity
8
0
100
AcDbLine
10
181.90000017945329
20
80.550000000000054
30
0
11
181.90000017945329
21
-176.70000058114516
31
0
0
LINE
5
168
100
AcDbEntity
8
0
100
AcDbLine
10
181.90000017945329
20
-176.70000058114516
30
0
11
131.57635768569963
21
-176.70000058114525
31
0
0
LINE
5
169
100
AcDbEntity
8
0
100
AcDbLine
10
131.57635768569963
20
-176.70000058114525
30
0
11
131.57635768569955
21
-152.50000058114517
31
0
0
ARC
5
170
100
AcDbEntity
8
0
100
AcDbCircle
10
133.57635768569955
20
-152.50000058114523
30
0
40
1.9999999999999929
100
AcDbArc
50
89.99999999999919
51
180
0
LINE
5
171
100
AcDbEntity
8
0
100
AcDbLine
10
133.57635768569958
20
-150.50000058114523
30
0
11
155.00000017945331
21
-150.50000058114523
31
0
0
LINE
5
172
100
AcDbEntity
8
0
100
AcDbLine
10
155.00000017945331
20
-150.50000058114523
30
0
11
155.00000017945331
21
103.55000000000007
31
0
0
LINE
5
173
100
AcDbEntity
8
0
100
AcDbLine
10
155.00000017945331
20
103.55000000000007
30
0
11
150.00000017945328
21
108.55000000000005
31
0
0
LINE
5
174
100
AcDbEntity
8
0
100
AcDbLine
10
150.00000017945328
20
108.55000000000005
30
0
11
-149.89425348181496
21
108.55000000000005
31
0
0
LINE
5
175
100
AcDbEntity
8
0
100
AcDbLine
10
-149.89425348181496
20
108.55000000000005
30
0
11
-154.89425348181496
21
103.55000000000007
31
0
0
LINE
5
176
100
AcDbEntity
8
0
100
AcDbLine
10
-154.89425348181496
20
103.55000000000007
30
0
11
-154.89425348181496
21
-150.50000058114523
31
0
0
LINE
5
177
100
AcDbEntity
8
0
100
AcDbLine
10
-154.89425348181496
20
-150.50000058114523
30
0
11
-133.57061116752396
21
-150.50000058114523
31
0
0
ARC
5
178
100
AcDbEntity
8
0
100
AcDbCircle
10
-133.57061116752396
20
-152.50000058114523
30
0
40
1.9999999999999929
100
AcDbArc
50
0
51
90
0
LINE
5
179
100
AcDbEntity
8
0
100
AcDbLine
10
-131.57061116752396
20
-152.50000058114523
30
0
11
-131.57061116752396
21
-176.70000058114516
31
0
0
LINE
5
180
100
AcDbEntity
8
0
100
AcDbLine
10
-131.57061116752396
20
-176.70000058114516
30
0
11
-181.89425348181493
21
-176.70000058114525
31
0
0
LINE
5
181
100
AcDbEntity
8
0
100
AcDbLine
10
-181.89425348181493
20
-176.70000058114525
30
0
11
-181.89425348181487
21
80.550000000000068
31
0
0
LINE
5
182
100
AcDbEntity
8
0
100
AcDbLine
10
-181.89425348181487
20
80.550000000000068
30
0
11
-175.39425348181487
21
80.550000000000068
31
0
0
LINE
5
183
100
AcDbEntity
8
0
100
AcDbLine
10
-175.39425348181487
20
80.550000000000068
30
0
11
-175.39425348181487
21
108.55000000000005
31
0
0
LINE
5
184
100
AcDbEntity
8
0
100
AcDbLine
10
-175.39425348181487
20
108.55000000000005
30
0
11
-181.89425348181487
21
108.55000000000005
31
0
0
LINE
5
185
100
AcDbEntity
8
0
100
AcDbLine
10
-181.89425348181487
20
108.55000000000005
30
0
11
-181.89425348181487
21
174.05000000000004
31
0
0
LINE
5
186
100
AcDbEntity
8
0
100
AcDbLine
10
-181.89425348181487
20
174.05000000000004
30
0
11
181.90000017945329
21
174.05000000000004
31
0
0
LINE
5
187
100
AcDbEntity
8
0
100
AcDbLine
10
150.00000017945328
20
108.55000000000004
30
0
11
155.00000017945328
21
103.55000000000005
31
0
0
LINE
5
188
100
AcDbEntity
8
0
100
AcDbLine
10
155.00000017945328
20
103.55000000000005
30
0
11
155.00000017945331
21
-150.50000058114523
31
0
0
LINE
5
189
100
AcDbEntity
8
0
100
AcDbLine
10
-154.89425348181493
20
103.55000000000007
30
0
11
-149.89425348181496
21
108.55000000000004
31
0
0
LINE
5
190
100
AcDbEntity
8
0
100
AcDbLine
10
-149.89425348181496
20
108.55000000000004
30
0
11
150.00000017945328
21
108.55000000000004
31
0
0
CIRCLE
5
191
100
AcDbEntity
8
0
100
AcDbCircle
10
167.00000000000145
20
-158.50000058114523
30
0
40
2.6000000000000156
0
CIRCLE
5
192
100
AcDbEntity
8
0
100
AcDbCircle
10
-169.49425348181819
20
148.15000000000026
30
0
40
2.6000000000000023
0
CIRCLE
5
193
100
AcDbEntity
8
0
100
AcDbCircle
10
157.00000000000148
20
160.65000000000026
30
0
40
2.6000000000000156
0
CIRCLE
5
194
100
AcDbEntity
8
0
100
AcDbCircle
10
-166.99425348182584
20
-158.50000058114523
30
0
40
2.599999999999989
0
CIRCLE
5
195
100
AcDbEntity
8
0
100
AcDbCircle
10
171.90000017945329
20
118.55000000000005
30
0
40
1.7500000000000071
0
CIRCLE
5
196
100
AcDbEntity
8
0
100
AcDbCircle
10
175.50000000000119
20
163.50000000000051
30
0
40
2.5
0
CIRCLE
5
197
100
AcDbEntity
8
0
100
AcDbCircle
10
-147.74819269468563
20
132.40879053202039
30
0
40
4
0
LWPOLYLINE
5
198
100
AcDbEntity
8
0
100
AcDbPolyline
90
4
70
1
43
0.0
10
123.16594764969716
20
156.15000000000006
10
133.16594764969713
20
156.15000000000006
10
133.16594764969747
20
171.15000000000006
10
123.16594764969716
20
171.15000000000006
0
LWPOLYLINE
5
199
100
AcDbEntity
8
0
100
AcDbPolyline
90
4
70
1
43
0.0
10
179.15000000000055
20
132.50000000000037
10
179.15000000000063
20
135.0000000000004
42
0.99999999999999989
10
171.85000000000059
20
135.00000000000057
10
171.85000000000059
20
132.5000000000006
42
0.99999999999999989
0
CIRCLE
5
200
100
AcDbEntity
8
0
100
AcDbCircle
10
169.50000000000145
20
148.15000000000026
30
0
40
2.6000000000000156
0
CIRCLE
5
201
100
AcDbEntity
8
0
100
AcDbCircle
10
-175.49425348181796
20
163.50000000000051
30
0
40
2.5
0
CIRCLE
5
202
100
AcDbEntity
8
0
100
AcDbCircle
10
147.78007205627478
20
132.64999947845945
30
0
40
4.0000000000000213
0
CIRCLE
5
203
100
AcDbEntity
8
0
100
AcDbCircle
10
-171.89425348181487
20
118.55000000000005
30
0
40
1.7499999999999982
0
LWPOLYLINE
5
204
100
AcDbEntity
8
0
100
AcDbPolyline
90
4
70
1
43
0.0
10
-133.16020113151384
20
156.05000000000007
10
-123.16020113151383
20
156.05000000000007
10
-123.16020113151383
20
171.05000000000007
10
-133.16020113151384
20
171.05000000000007
0
LWPOLYLINE
5
205
100
AcDbEntity
8
0
100
AcDbPolyline
90
4
70
1
43
0.0
10
-179.14425348181732
20
135.0000000000004
10
-179.14425348181723
20
132.5000000000004
42
0.99999999999999989
10
-171.84425348181725
20
132.50000000000051
10
-171.84425348181733
20
135.00000000000057
42
0.99999999999999989
0
CIRCLE
5
206
100
AcDbEntity
8
0
100
AcDbCircle
10
146.57635768569963
20
-169.00000058114523
30
0
40
2.6000000000000156
0
CIRCLE
5
207
100
AcDbEntity
8
0
100
AcDbCircle
10
-156.99425348181816
20
160.65000000000026
30
0
40
2.5999999999999979
0
CIRCLE
5
208
100
AcDbEntity
8
0
100
AcDbCircle
10
-146.57061116752396
20
-169.00000058114523
30
0
40
2.5999999999999845
0
CIRCLE
5
209
100
AcDbEntity
8
0
100
AcDbCircle
10
-147.84941180745852
20
163.27141819023586
30
0
40
4.0000000000000009
0
CIRCLE
5
210
100
AcDbEntity
8
0
100
AcDbCircle
10
147.78007205627472
20
163.64999994039545
30
0
40
3.9999999999999858
0
LINE
5
211
100
AcDbEntity
8
0
100
AcDbLine
10
181.90000017945329
20
108.55000000000005
30
0
11
175.40000017945331
21
108.55000000000005
31
0
0
LINE
5
212
100
AcDbEntity
8
0
100
AcDbLine
10
175.40000017945331
20
108.55000000000005
30
0
11
175.40000017945331
21
80.550000000000054
31
0
0
LINE
5
213
100
AcDbEntity
8
0
100
AcDbLine
10
175.40000017945331
20
80.550000000000054
30
0
11
181.90000017945329
21
80.550000000000054
31
0
0
LINE
5
214
100
AcDbEntity
8
0
100
AcDbLine
10
181.90000017945329
20
-176.70000058114516
30
0
11
181.90000017945329
21
80.550000000000054
31
0
0
LINE
5
215
100
AcDbEntity
8
0
100
AcDbLine
10
131.57635768569963
20
-176.70000058114525
30
0
11
181.90000017945329
21
-176.70000058114516
31
0
0
LINE
5
216
100
AcDbEntity
8
0
100
AcDbLine
10
131.57635768569955
20
-152.50000058114517
30
0
11
131.57635768569963
21
-176.70000058114525
31
0
0
ARC
5
217
100
AcDbEntity
8
0
100
AcDbCircle
10
133.57635768569955
20
-152.50000058114523
30
0
40
1.9999999999999929
100
AcDbArc
50
89.99999999999919
51
180
0
LINE
5
218
100
AcDbEntity
8
0
100
AcDbLine
10
155.00000017945331
20
-150.50000058114523
30
0
11
133.57635768569958
21
-150.50000058114523
31
0
0
LINE
5
219
100
AcDbEntity
8
0
100
AcDbLine
10
-154.89425348181496
20
-150.50000058114523
30
0
11
-154.89425348181493
21
103.55000000000007
31
0
0
LINE
5
220
100
AcDbEntity
8
0
100
AcDbLine
10
-133.57061116752396
20
-150.50000058114523
30
0
11
-154.89425348181496
21
-150.50000058114523
31
0
0
ARC
5
221
100
AcDbEntity
8
0
100
AcDbCircle
10
-133.57061116752396
20
-152.50000058114523
30
0
40
1.9999999999999929
100
AcDbArc
50
0
51
90
0
LINE
5
222
100
AcDbEntity
8
0
100
AcDbLine
10
-131.57061116752396
20
-176.70000058114516
30
0
11
-131.57061116752396
21
-152.50000058114523
31
0
0
LINE
5
223
100
AcDbEntity
8
0
100
AcDbLine
10
-181.89425348181493
20
-176.70000058114525
30
0
11
-131.57061116752396
21
-176.70000058114516
31
0
0
LINE
5
224
100
AcDbEntity
8
0
100
AcDbLine
10
-181.89425348181493
20
-176.70000058114525
30
0
11
-181.8942534818149
21
80.550000000000068
31
0
0
LINE
5
225
100
AcDbEntity
8
0
100
AcDbLine
10
-175.39425348181487
20
80.550000000000068
30
0
11
-181.8942534818149
21
80.550000000000068
31
0
0
LINE
5
226
100
AcDbEntity
8
0
100
AcDbLine
10
-175.39425348181487
20
108.55000000000005
30
0
11
-175.39425348181487
21
80.550000000000068
31
0
0
LINE
5
227
100
AcDbEntity
8
0
100
AcDbLine
10
-181.89425348181487
20
108.55000000000005
30
0
11
-175.39425348181487
21
108.55000000000005
31
0
0
LINE
5
228
100
AcDbEntity
8
0
100
AcDbLine
10
-181.89425348181487
20
174.05000000000004
30
0
11
-181.89425348181487
21
108.55000000000005
31
0
0
LINE
5
229
100
AcDbEntity
8
0
100
AcDbLine
10
181.90000017945329
20
174.05000000000004
30
0
11
-181.89425348181487
21
174.05000000000004
31
0
0
LINE
5
230
100
AcDbEntity
8
0
100
AcDbLine
10
181.90000017945329
20
108.55000000000005
30
0
11
181.90000017945329
21
174.05000000000007
31
0
0
CIRCLE
5
231
100
AcDbEntity
8
0
100
AcDbCircle
10
174.50000017813537
20
-2.2499930171026605
30
0
40
2.6000000000000156
0
CIRCLE
5
232
100
AcDbEntity
8
0
100
AcDbCircle
10
174.50000018077134
20
-57.249993017102661
30
0
40
2.6000000000000156
0
CIRCLE
5
233
100
AcDbEntity
8
0
100
AcDbCircle
10
-174.49425348181489
20
-57.249993025465606
30
0
40
2.599999999999989
0
CIRCLE
5
234
100
AcDbEntity
8
0
100
AcDbCircle
10
-174.49425348181489
20
-2.2499930254656064
30
0
40
2.5999999999999979
0
CIRCLE
5
235
100
AcDbEntity
8
0
100
AcDbCircle
10
174.50000017813537
20
-2.2499930171026605
30
0
40
2.6000000000000156
0
CIRCLE
5
236
100
AcDbEntity
8
0
100
AcDbCircle
10
174.50000018077134
20
-57.249993017102661
30
0
40
2.6000000000000156
0
CIRCLE
5
237
100
AcDbEntity
8
0
100
AcDbCircle
10
-174.49425348181489
20
-57.249993025465606
30
0
40
2.599999999999989
0
CIRCLE
5
238
100
AcDbEntity
8
0
100
AcDbCircle
10
-174.49425348181489
20
-2.2499930254656064
30
0
40
2.5999999999999979
0
CIRCLE
5
239
100
AcDbEntity
8
0
100
AcDbCircle
10
-174.49425348181489
20
-2.2499930254656064
30
0
40
2.5999999999999979
0
CIRCLE
5
240
100
AcDbEntity
8
0
100
AcDbCircle
10
-174.49425348181489
20
-57.249993025465606
30
0
40
2.599999999999989
0
CIRCLE
5
241
100
AcDbEntity
8
0
100
AcDbCircle
10
174.50000018077134
20
-57.249993017102661
30
0
40
2.6000000000000156
0
CIRCLE
5
242
100
AcDbEntity
8
0
100
AcDbCircle
10
174.50000017813537
20
-2.2499930171026605
30
0
40
2.6000000000000156
0
LINE
5
243
100
AcDbEntity
8
0
100
AcDbLine
10
-149.89425348181496
20
108.55000000000005
30
0
11
150.00000017945328
21
108.55000000000005
31
0
0
ENDSEC
0
SECTION
2
OBJECTS
0
DICTIONARY
5
C
100
AcDbDictionary
3
ACAD_GROUP
350
D
3
ACAD_MLINESTYLE
350
17
0
DICTIONARY
5
D
100
AcDbDictionary
0
DICTIONARY
5
1A
330
C
100
AcDbDictionary
0
DICTIONARY
5
17
100
AcDbDictionary
0
ENDSEC
0
EOF
