0
SECTION
2
HEADER
9
$INSUNITS
70
4
9
$ACADVER
1
AC1014
9
$HANDSEED
5
FFFF
0
ENDSEC
0
SECTION
2
TABLES
0
TABLE
2
VPORT
5
8
100
AcDbSymbolTable
0
ENDTAB
0
TABLE
2
LTYPE
5
5
100
AcDbSymbolTable
0
LTYPE
5
14
100
AcDbSymbolTableRecord
100
AcDbLinetypeTableRecord
2
BYBLOCK
70
0
0
LTYPE
5
15
100
AcDbSymbolTableRecord
100
AcDbLinetypeTableRecord
2
BYLAYER
70
0
0
ENDTAB
0
TABLE
2
LAYER
5
2
100
AcDbSymbolTable
70
2
0
LAYER
5
50
100
AcDbSymbolTableRecord
100
AcDbLayerTableRecord
2
0
70
0
6
CONTINUOUS
0
ENDTAB
0
TABLE
2
STYLE
5
3
100
AcDbSymbolTable
70
1
0
STYLE
5
11
100
AcDbSymbolTableRecord
100
AcDbTextStyleTableRecord
2
STANDARD
70
0
0
ENDTAB
0
TABLE
2
VIEW
5
6
100
AcDbSymbolTable
70
0
0
ENDTAB
0
TABLE
2
UCS
5
7
100
AcDbSymbolTable
70
0
0
ENDTAB
0
TABLE
2
APPID
5
9
100
AcDbSymbolTable
70
2
0
APPID
5
12
100
AcDbSymbolTableRecord
100
AcDbRegAppTableRecord
2
ACAD
70
0
0
ENDTAB
0
TABLE
2
DIMSTYLE
5
A
100
AcDbSymbolTable
70
1
0
ENDTAB
0
TABLE
2
BLOCK_RECORD
5
1
100
AcDbSymbolTable
70
1
0
BLOCK_RECORD
5
1F
100
AcDbSymbolTableRecord
100
AcDbBlockTableRecord
2
*MODEL_SPACE
0
BLOCK_RECORD
5
1B
100
AcDbSymbolTableRecord
100
AcDbBlockTableRecord
2
*PAPER_SPACE
0
ENDTAB
0
ENDSEC
0
SECTION
2
BLOCKS
0
BLOCK
5
20
100
AcDbEntity
100
AcDbBlockBegin
2
*MODEL_SPACE
0
ENDBLK
5
21
100
AcDbEntity
100
AcDbBlockEnd
0
BLOCK
5
1C
100
AcDbEntity
100
AcDbBlockBegin
2
*PAPER_SPACE
0
ENDBLK
5
1D
100
AcDbEntity
100
AcDbBlockEnd
0
ENDSEC
0
SECTION
2
ENTITIES
0
CIRCLE
5
100
100
AcDbEntity
8
0
100
AcDbCircle
10
-161.99425348215871
20
-34.500000581145258
30
0
40
2.5999999999999979
0
CIRCLE
5
101
100
AcDbEntity
8
0
100
AcDbCircle
10
161.80000017945332
20
-156.80000058114527
30
0
40
2.6000000000000156
0
CIRCLE
5
102
100
AcDbEntity
8
0
100
AcDbCircle
10
-161.79425348215872
20
-156.80000058114527
30
0
40
2.5999999999999979
0
CIRCLE
5
103
100
AcDbEntity
8
0
100
AcDbCircle
10
162.00000017945331
20
-34.500000581145258
30
0
40
2.6000000000000156
0
CIRCLE
5
104
100
AcDbEntity
8
0
100
AcDbCircle
10
0
20
-156.80000058114527
30
0
40
2.6000000000000001
0
CIRCLE
5
105
100
AcDbEntity
8
0
100
AcDbCircle
10
-166.99425348215871
20
159.15000000000006
30
0
40
2.6000000000000156
0
CIRCLE
5
106
100
AcDbEntity
8
0
100
AcDbCircle
10
167.00000017945331
20
159.15000000000006
30
0
40
2.6000000000000156
0
LINE
5
107
100
AcDbEntity
8
0
100
AcDbLine
10
181.80000017945332
20
173.95000000000007
30
0
11
-181.79425348215872
21
173.95000000000007
31
0
0
LINE
5
108
100
AcDbEntity
8
0
100
AcDbLine
10
-181.79425348215872
20
173.95000000000007
30
0
11
-181.79425348215872
21
-176.80000058114527
31
0
0
LINE
5
109
100
AcDbEntity
8
0
100
AcDbLine
10
-181.79425348215872
20
-176.80000058114527
30
0
11
181.80000017945332
21
-176.80000058114527
31
0
0
LINE
5
110
100
AcDbEntity
8
0
100
AcDbLine
10
181.80000017945332
20
-176.80000058114527
30
0
11
181.80000017945332
21
173.95000000000007
31
0
0
CIRCLE
5
111
100
AcDbEntity
8
0
100
AcDbCircle
10
167.00000017945331
20
159.15000000000006
30
0
40
2.6000000000000156
0
CIRCLE
5
112
100
AcDbEntity
8
0
100
AcDbCircle
10
-166.99425348215871
20
159.15000000000006
30
0
40
2.6000000000000156
0
CIRCLE
5
113
100
AcDbEntity
8
0
100
AcDbCircle
10
0
20
-156.80000058114527
30
0
40
2.6000000000000001
0
CIRCLE
5
114
100
AcDbEntity
8
0
100
AcDbCircle
10
162.00000017945331
20
-34.500000581145258
30
0
40
2.6000000000000156
0
CIRCLE
5
115
100
AcDbEntity
8
0
100
AcDbCircle
10
-161.79425348215872
20
-156.80000058114527
30
0
40
2.5999999999999979
0
CIRCLE
5
116
100
AcDbEntity
8
0
100
AcDbCircle
10
161.80000017945332
20
-156.80000058114527
30
0
40
2.6000000000000156
0
CIRCLE
5
117
100
AcDbEntity
8
0
100
AcDbCircle
10
-161.99425348215871
20
-34.500000581145258
30
0
40
2.5999999999999979
0
LINE
5
118
100
AcDbEntity
8
0
100
AcDbLine
10
-181.79425348215872
20
-176.80000058114527
30
0
11
-181.79425348215872
21
173.95000000000007
31
0
0
LINE
5
119
100
AcDbEntity
8
0
100
AcDbLine
10
181.80000017945332
20
-176.80000058114527
30
0
11
-181.79425348215872
21
-176.80000058114527
31
0
0
LINE
5
120
100
AcDbEntity
8
0
100
AcDbLine
10
181.80000017945332
20
173.95000000000007
30
0
11
181.80000017945332
21
-176.80000058114527
31
0
0
LINE
5
121
100
AcDbEntity
8
0
100
AcDbLine
10
-181.79425348215872
20
173.95000000000007
30
0
11
181.80000017945332
21
173.95000000000007
31
0
0
CIRCLE
5
122
100
AcDbEntity
8
0
100
AcDbCircle
10
61.502873348647299
20
-138.42500029057263
30
0
40
2.7499999999999947
0
CIRCLE
5
123
100
AcDbEntity
8
0
100
AcDbCircle
10
-166.99712665135274
20
-138.38894165079336
30
0
40
2.7500000000000213
0
CIRCLE
5
124
100
AcDbEntity
8
0
100
AcDbCircle
10
167.00287334864731
20
-13.425000290572582
30
0
40
2.7499999999999858
0
CIRCLE
5
125
100
AcDbEntity
8
0
100
AcDbCircle
10
69.800000179453349
20
159.95000000000007
30
0
40
1.749999999999998
0
CIRCLE
5
126
100
AcDbEntity
8
0
100
AcDbCircle
10
109.80000017945335
20
127.95000000000007
30
0
40
1.7500000000000071
0
LWPOLYLINE
5
127
100
AcDbEntity
8
0
100
AcDbPolyline
90
4
70
1
43
0.0
10
131.80000017945335
20
163.95000000000007
42
-0.99999999999999989
10
131.80000017945335
20
159.95000000000007
10
119.80000017945332
20
159.95000000000007
42
-0.99999999999999989
10
119.80000017945332
20
163.95000000000007
0
LWPOLYLINE
5
128
100
AcDbEntity
8
0
100
AcDbPolyline
90
4
70
1
43
0.0
10
115.80000017945335
20
129.95000000000007
10
135.80000017945335
20
129.95000000000007
42
0.99999999999999989
10
135.80000017945335
20
133.95000000000007
10
115.80000017945335
20
133.95000000000007
42
0.99999999999999989
0
LWPOLYLINE
5
129
100
AcDbEntity
8
0
100
AcDbPolyline
90
4
70
1
43
0.0
10
91.800000179453349
20
127.95000000000005
42
-0.99999999999999989
10
91.800000179453349
20
123.95000000000007
10
79.800000179453349
20
123.9500000000001
42
-0.99999999999999989
10
79.800000179453349
20
127.95000000000009
0
LWPOLYLINE
5
130
100
AcDbEntity
8
0
100
AcDbPolyline
90
4
70
1
43
0.0
10
91.800000179453349
20
163.95000000000007
42
-0.99999999999999989
10
91.800000179453349
20
159.95000000000007
10
79.800000179453349
20
159.95000000000007
42
-0.99999999999999989
10
79.800000179453349
20
163.95000000000007
0
CIRCLE
5
131
100
AcDbEntity
8
0
100
AcDbCircle
10
-10.999999999999934
20
161.95000000000007
30
0
40
1.6000000000000003
0
CIRCLE
5
132
100
AcDbEntity
8
0
100
AcDbCircle
10
61.502873348647299
20
-13.425000290572605
30
0
40
2.7500000000000036
0
CIRCLE
5
133
100
AcDbEntity
8
0
100
AcDbCircle
10
-61.497126651352701
20
6.5749997094274022
30
0
40
2.7500000000000036
0
CIRCLE
5
134
100
AcDbEntity
8
0
100
AcDbCircle
10
11.000000000000023
20
161.95000000000007
30
0
40
1.6000000000000014
0
LWPOLYLINE
5
135
100
AcDbEntity
8
0
100
AcDbPolyline
90
4
70
1
43
0.0
10
67.800000179453349
20
141.9500000000001
42
-0.99999999999999989
10
67.800000179453349
20
145.9500000000001
10
89.130000179453347
20
145.95000000000005
42
-0.99999999999999989
10
89.130000179453347
20
141.95000000000007
0
LWPOLYLINE
5
136
100
AcDbEntity
8
0
100
AcDbPolyline
90
4
70
1
43
0.0
10
108.80000017945333
20
135.9500000000001
10
141.80000017945335
20
135.9500000000001
42
0.99999999999999989
10
141.80000017945332
20
139.9500000000001
10
108.80000017945333
20
139.9500000000001
42
0.99999999999999989
0
LWPOLYLINE
5
137
100
AcDbEntity
8
0
100
AcDbPolyline
90
4
70
1
43
0.0
10
131.80000017945335
20
127.95000000000005
42
-0.99999999999999989
10
131.80000017945335
20
123.95000000000007
10
119.80000017945332
20
123.9500000000001
42
-0.99999999999999989
10
119.80000017945332
20
127.95000000000009
0
CIRCLE
5
138
100
AcDbEntity
8
0
100
AcDbCircle
10
141.80000017945335
20
159.95000000000007
30
0
40
1.7500000000000071
0
CIRCLE
5
139
100
AcDbEntity
8
0
100
AcDbCircle
10
101.80000017945333
20
127.95000000000007
30
0
40
1.7500000000000071
0
CIRCLE
5
140
100
AcDbEntity
8
0
100
AcDbCircle
10
43
20
98.45000000000006
30
0
40
2.5999999999999979
0
CIRCLE
5
141
100
AcDbEntity
8
0
100
AcDbCircle
10
-166.99712665135274
20
6.6110583492066777
30
0
40
2.7499999999999858
0
CIRCLE
5
142
100
AcDbEntity
8
0
100
AcDbCircle
10
-61.497126651352701
20
-118.42500029057263
30
0
40
2.7499999999999947
0
CIRCLE
5
143
100
AcDbEntity
8
0
100
AcDbCircle
10
167.00287334864731
20
-118.42500029057263
30
0
40
2.7499999999999858
0
CIRCLE
5
144
100
AcDbEntity
8
0
100
AcDbCircle
10
61.502873348647299
20
-118.42500029057263
30
0
40
2.7500000000000036
0
CIRCLE
5
145
100
AcDbEntity
8
0
100
AcDbCircle
10
-166.99712665135274
20
-118.38894165079336
30
0
40
2.7499999999999858
0
CIRCLE
5
146
100
AcDbEntity
8
0
100
AcDbCircle
10
167.00287334864731
20
6.5749997094274164
30
0
40
2.7499999999999858
0
CIRCLE
5
147
100
AcDbEntity
8
0
100
AcDbCircle
10
69.800000179453349
20
127.95000000000007
30
0
40
1.749999999999998
0
CIRCLE
5
148
100
AcDbEntity
8
0
100
AcDbCircle
10
109.80000017945335
20
159.95000000000007
30
0
40
1.7500000000000071
0
LWPOLYLINE
5
149
100
AcDbEntity
8
0
100
AcDbPolyline
90
4
70
1
43
0.0
10
135.80000017945335
20
157.95000000000005
42
-0.99999999999999989
10
135.80000017945335
20
153.95000000000007
10
115.80000017945335
20
153.9500000000001
42
-0.99999999999999989
10
115.80000017945335
20
157.9500000000001
0
LWPOLYLINE
5
150
100
AcDbEntity
8
0
100
AcDbPolyline
90
4
70
1
43
0.0
10
143.80000017945335
20
145.95000000000005
42
-0.99999999999999989
10
143.80000017945335
20
141.95000000000007
10
122.46000017945333
20
141.9500000000001
42
-0.99999999999999989
10
122.46000017945333
20
145.9500000000001
0
LWPOLYLINE
5
151
100
AcDbEntity
8
0
100
AcDbPolyline
90
4
70
1
43
0.0
10
95.800000179453349
20
133.95000000000005
42
-0.99999999999999989
10
95.800000179453349
20
129.95000000000005
10
75.800000179453349
20
129.95000000000007
42
-0.99999999999999989
10
75.800000179453349
20
133.95000000000007
0
LWPOLYLINE
5
152
100
AcDbEntity
8
0
100
AcDbPolyline
90
4
70
1
43
0.0
10
69.800000179453349
20
147.95000000000013
42
-0.99999999999999989
10
69.800000179453349
20
151.9500000000001
10
102.80000017945333
20
151.95000000000007
42
-0.99999999999999989
10
102.80000017945333
20
147.9500000000001
0
LWPOLYLINE
5
153
100
AcDbEntity
8
0
100
AcDbPolyline
90
8
70
1
43
0.0
10
5.0000000000000639
20
148.95000000000007
10
5.0000000000000453
20
169.95000000000007
42
0.41421356237309515
10
3.0000000000000462
20
171.95000000000007
10
-2.9999999999999281
20
171.95000000000005
42
0.41421356237309515
10
-4.9999999999999289
20
169.95000000000005
10
-4.9999999999999396
20
148.95000000000007
42
0.41421356237309503
10
-2.9999999999999387
20
146.95000000000007
10
3.0000000000000644
20
146.9500000000001
42
0.41421356237309515
0
CIRCLE
5
154
100
AcDbEntity
8
0
100
AcDbCircle
10
61.502873348647299
20
6.5749997094273933
30
0
40
2.7500000000000036
0
CIRCLE
5
155
100
AcDbEntity
8
0
100
AcDbCircle
10
-61.497126651352701
20
-13.425000290572594
30
0
40
2.7500000000000036
0
LWPOLYLINE
5
156
100
AcDbEntity
8
0
100
AcDbPolyline
90
4
70
1
43
0.0
10
95.800000179453349
20
157.95000000000005
42
-0.99999999999999989
10
95.800000179453349
20
153.95000000000007
10
75.800000179453349
20
153.9500000000001
42
-0.99999999999999989
10
75.800000179453349
20
157.9500000000001
0
LWPOLYLINE
5
157
100
AcDbEntity
8
0
100
AcDbPolyline
90
4
70
1
43
0.0
10
69.800000179453349
20
135.95000000000013
42
-0.99999999999999989
10
69.800000179453349
20
139.9500000000001
10
102.80000017945333
20
139.95000000000007
42
-0.99999999999999989
10
102.80000017945333
20
135.9500000000001
0
LWPOLYLINE
5
158
100
AcDbEntity
8
0
100
AcDbPolyline
90
4
70
1
43
0.0
10
95.130000179453333
20
141.9500000000001
10
116.46000017945335
20
141.9500000000001
42
0.99999999999999989
10
116.46000017945333
20
145.9500000000001
10
95.130000179453333
20
145.9500000000001
42
0.99999999999999989
0
LWPOLYLINE
5
159
100
AcDbEntity
8
0
100
AcDbPolyline
90
4
70
1
43
0.0
10
141.80000017945335
20
151.95000000000007
42
-0.99999999999999989
10
141.80000017945335
20
147.9500000000001
10
108.80000017945333
20
147.95000000000013
42
-0.99999999999999989
10
108.80000017945333
20
151.9500000000001
0
CIRCLE
5
160
100
AcDbEntity
8
0
100
AcDbCircle
10
141.80000017945335
20
127.95000000000007
30
0
40
1.7500000000000071
0
CIRCLE
5
161
100
AcDbEntity
8
0
100
AcDbCircle
10
101.80000017945333
20
159.95000000000007
30
0
40
1.7500000000000071
0
CIRCLE
5
162
100
AcDbEntity
8
0
100
AcDbCircle
10
-43
20
98.45000000000006
30
0
40
2.6000000000000068
0
CIRCLE
5
163
100
AcDbEntity
8
0
100
AcDbCircle
10
-166.99712665135274
20
-13.388941650793321
30
0
40
2.7500000000000213
0
CIRCLE
5
164
100
AcDbEntity
8
0
100
AcDbCircle
10
-61.497126651352701
20
-138.42500029057263
30
0
40
2.7500000000000036
0
CIRCLE
5
165
100
AcDbEntity
8
0
100
AcDbCircle
10
167.00287334864731
20
-138.42500029057263
30
0
40
2.7500000000000213
0
LWPOLYLINE
5
166
100
AcDbEntity
8
0
100
AcDbPolyline
90
8
70
1
43
0.0
10
3.0000000000000431
20
171.95000000000007
42
-0.41421356237309459
10
5.0000000000000453
20
169.95000000000007
10
5.0000000000000782
20
148.95000000000007
42
-0.41421356237309537
10
3.0000000000000648
20
146.95000000000007
10
-2.9999999999999383
20
146.95000000000007
42
-0.41421356237309559
10
-4.9999999999999387
20
148.95000000000007
10
-4.9999999999999698
20
169.95000000000005
42
-0.41421356237309692
10
-2.9999999999999281
20
171.95000000000007
0
LWPOLYLINE
5
167
100
AcDbEntity
8
0
100
AcDbPolyline
90
4
70
1
43
0.0
10
141.80000017945335
20
135.9500000000001
10
108.80000017945329
20
135.9500000000001
42
-0.99999999999999989
10
108.80000017945336
20
139.95000000000007
10
141.80000017945335
20
139.9500000000001
42
-0.99999999999999989
0
LWPOLYLINE
5
168
100
AcDbEntity
8
0
100
AcDbPolyline
90
4
70
1
43
0.0
10
131.80000017945338
20
127.95000000000005
42
-0.99999999999999989
10
131.80000017945335
20
123.95000000000007
10
119.80000017945332
20
123.95000000000005
42
-0.99999999999999989
10
119.80000017945332
20
127.95000000000007
0
LWPOLYLINE
5
169
100
AcDbEntity
8
0
100
AcDbPolyline
90
4
70
1
43
0.0
10
135.80000017945335
20
129.95000000000007
10
115.80000017945332
20
129.95000000000007
42
-0.99999999999999989
10
115.80000017945336
20
133.95000000000007
10
135.80000017945335
20
133.95000000000007
42
-0.99999999999999989
0
LWPOLYLINE
5
170
100
AcDbEntity
8
0
100
AcDbPolyline
90
4
70
1
43
0.0
10
116.46000017945337
20
145.9500000000001
42
-0.99999999999999989
10
116.46000017945329
20
141.9500000000001
10
95.130000179453333
20
141.9500000000001
42
-0.99999999999999989
10
95.130000179453333
20
145.9500000000001
0
LWPOLYLINE
5
171
100
AcDbEntity
8
0
100
AcDbPolyline
90
4
70
1
43
0.0
10
122.46000017945329
20
141.9500000000001
42
-0.99999999999999989
10
122.46000017945333
20
145.9500000000001
10
143.80000017945335
20
145.9500000000001
42
-0.99999999999999989
10
143.80000017945335
20
141.9500000000001
0
LWPOLYLINE
5
172
100
AcDbEntity
8
0
100
AcDbPolyline
90
4
70
1
43
0.0
10
141.80000017945335
20
151.9500000000001
42
-0.99999999999999989
10
141.80000017945332
20
147.9500000000001
10
108.80000017945333
20
147.95000000000007
42
-0.99999999999999989
10
108.80000017945333
20
151.9500000000001
0
LWPOLYLINE
5
173
100
AcDbEntity
8
0
100
AcDbPolyline
90
4
70
1
43
0.0
10
135.80000017945338
20
157.9500000000001
42
-0.99999999999999989
10
135.80000017945332
20
153.9500000000001
10
115.80000017945335
20
153.9500000000001
42
-0.99999999999999989
10
115.80000017945335
20
157.9500000000001
0
LWPOLYLINE
5
174
100
AcDbEntity
8
0
100
AcDbPolyline
90
4
70
1
43
0.0
10
131.80000017945332
20
163.95000000000007
42
-0.99999999999999989
10
131.80000017945335
20
159.95000000000007
10
119.80000017945336
20
159.95000000000007
42
-0.99999999999999989
10
119.80000017945332
20
163.95000000000007
0
LWPOLYLINE
5
175
100
AcDbEntity
8
0
100
AcDbPolyline
90
4
70
1
43
0.0
10
69.800000179453349
20
151.9500000000001
10
102.80000017945335
20
151.95000000000007
42
-0.99999999999999989
10
102.80000017945332
20
147.9500000000001
10
69.800000179453306
20
147.9500000000001
42
-0.99999999999999989
0
LWPOLYLINE
5
176
100
AcDbEntity
8
0
100
AcDbPolyline
90
4
70
1
43
0.0
10
67.800000179453349
20
145.9500000000001
10
89.130000179453376
20
145.9500000000001
42
-0.99999999999999989
10
89.130000179453305
20
141.9500000000001
10
67.800000179453363
20
141.95000000000005
42
-0.99999999999999989
0
LWPOLYLINE
5
177
100
AcDbEntity
8
0
100
AcDbPolyline
90
4
70
1
43
0.0
10
69.800000179453349
20
139.9500000000001
10
102.80000017945335
20
139.95000000000007
42
-0.99999999999999989
10
102.80000017945332
20
135.9500000000001
10
69.800000179453306
20
135.9500000000001
42
-0.99999999999999989
0
LWPOLYLINE
5
178
100
AcDbEntity
8
0
100
AcDbPolyline
90
4
70
1
43
0.0
10
95.800000179453377
20
133.95000000000007
42
-0.99999999999999989
10
95.800000179453306
20
129.95000000000007
10
75.80000017945332
20
129.95000000000005
42
-0.99999999999999989
10
75.800000179453349
20
133.95000000000007
0
LWPOLYLINE
5
179
100
AcDbEntity
8
0
100
AcDbPolyline
90
4
70
1
43
0.0
10
91.800000179453377
20
127.95000000000005
42
-0.99999999999999989
10
91.800000179453335
20
123.95000000000007
10
79.800000179453363
20
123.95000000000005
42
-0.99999999999999989
10
79.800000179453349
20
127.95000000000007
0
LWPOLYLINE
5
180
100
AcDbEntity
8
0
100
AcDbPolyline
90
4
70
1
43
0.0
10
95.800000179453349
20
153.95000000000007
10
75.800000179453306
20
153.95000000000007
42
-0.99999999999999989
10
75.800000179453363
20
157.9500000000001
10
95.800000179453349
20
157.9500000000001
42
-0.99999999999999989
0
LWPOLYLINE
5
181
100
AcDbEntity
8
0
100
AcDbPolyline
90
4
70
1
43
0.0
10
91.800000179453349
20
159.95000000000007
10
79.800000179453363
20
159.95000000000007
42
-0.99999999999999989
10
79.800000179453363
20
163.95000000000007
10
91.80000017945332
20
163.95000000000007
42
-0.99999999999999989
0
CIRCLE
5
182
100
AcDbEntity
8
0
100
AcDbCircle
10
61.502873348647299
20
-138.42500029057263
30
0
40
2.7499999999999947
0
CIRCLE
5
183
100
AcDbEntity
8
0
100
AcDbCircle
10
-166.99712665135274
20
-138.38894165079336
30
0
40
2.7500000000000213
0
CIRCLE
5
184
100
AcDbEntity
8
0
100
AcDbCircle
10
167.00287334864731
20
-13.425000290572582
30
0
40
2.7499999999999858
0
CIRCLE
5
185
100
AcDbEntity
8
0
100
AcDbCircle
10
69.800000179453349
20
159.95000000000007
30
0
40
1.7499999999999982
0
CIRCLE
5
186
100
AcDbEntity
8
0
100
AcDbCircle
10
109.80000017945335
20
127.95000000000007
30
0
40
1.7500000000000071
0
CIRCLE
5
187
100
AcDbEntity
8
0
100
AcDbCircle
10
-10.999999999999934
20
161.95000000000007
30
0
40
1.6000000000000003
0
CIRCLE
5
188
100
AcDbEntity
8
0
100
AcDbCircle
10
61.502873348647299
20
-13.425000290572605
30
0
40
2.7500000000000036
0
CIRCLE
5
189
100
AcDbEntity
8
0
100
AcDbCircle
10
-61.497126651352701
20
6.5749997094274022
30
0
40
2.7500000000000036
0
CIRCLE
5
190
100
AcDbEntity
8
0
100
AcDbCircle
10
11.000000000000023
20
161.95000000000007
30
0
40
1.6000000000000014
0
CIRCLE
5
191
100
AcDbEntity
8
0
100
AcDbCircle
10
141.80000017945335
20
159.95000000000007
30
0
40
1.7500000000000071
0
CIRCLE
5
192
100
AcDbEntity
8
0
100
AcDbCircle
10
101.80000017945333
20
127.95000000000007
30
0
40
1.7500000000000071
0
CIRCLE
5
193
100
AcDbEntity
8
0
100
AcDbCircle
10
43
20
98.45000000000006
30
0
40
2.5999999999999979
0
CIRCLE
5
194
100
AcDbEntity
8
0
100
AcDbCircle
10
-166.99712665135274
20
6.6110583492066777
30
0
40
2.7499999999999858
0
CIRCLE
5
195
100
AcDbEntity
8
0
100
AcDbCircle
10
-61.497126651352701
20
-118.42500029057263
30
0
40
2.7499999999999947
0
CIRCLE
5
196
100
AcDbEntity
8
0
100
AcDbCircle
10
167.00287334864731
20
-118.42500029057263
30
0
40
2.7499999999999858
0
CIRCLE
5
197
100
AcDbEntity
8
0
100
AcDbCircle
10
61.502873348647299
20
-118.42500029057263
30
0
40
2.7500000000000036
0
CIRCLE
5
198
100
AcDbEntity
8
0
100
AcDbCircle
10
-166.99712665135274
20
-118.38894165079336
30
0
40
2.7499999999999858
0
CIRCLE
5
199
100
AcDbEntity
8
0
100
AcDbCircle
10
167.00287334864731
20
6.5749997094274164
30
0
40
2.7499999999999858
0
CIRCLE
5
200
100
AcDbEntity
8
0
100
AcDbCircle
10
69.800000179453349
20
127.95000000000007
30
0
40
1.7499999999999982
0
CIRCLE
5
201
100
AcDbEntity
8
0
100
AcDbCircle
10
109.80000017945335
20
159.95000000000007
30
0
40
1.7500000000000071
0
CIRCLE
5
202
100
AcDbEntity
8
0
100
AcDbCircle
10
61.502873348647299
20
6.5749997094273933
30
0
40
2.7500000000000036
0
CIRCLE
5
203
100
AcDbEntity
8
0
100
AcDbCircle
10
-61.497126651352701
20
-13.425000290572594
30
0
40
2.7500000000000036
0
CIRCLE
5
204
100
AcDbEntity
8
0
100
AcDbCircle
10
141.80000017945335
20
127.95000000000007
30
0
40
1.7500000000000071
0
CIRCLE
5
205
100
AcDbEntity
8
0
100
AcDbCircle
10
101.80000017945333
20
159.95000000000007
30
0
40
1.7500000000000071
0
CIRCLE
5
206
100
AcDbEntity
8
0
100
AcDbCircle
10
-43
20
98.45000000000006
30
0
40
2.6000000000000068
0
CIRCLE
5
207
100
AcDbEntity
8
0
100
AcDbCircle
10
-166.99712665135274
20
-13.388941650793321
30
0
40
2.7500000000000213
0
CIRCLE
5
208
100
AcDbEntity
8
0
100
AcDbCircle
10
-61.497126651352701
20
-138.42500029057263
30
0
40
2.7500000000000036
0
CIRCLE
5
209
100
AcDbEntity
8
0
100
AcDbCircle
10
167.00287334864731
20
-138.42500029057263
30
0
40
2.7500000000000213
0
CIRCLE
5
210
100
AcDbEntity
8
0
100
AcDbCircle
10
0
20
-138.42500058114527
30
0
40
2.6000000000000001
0
CIRCLE
5
211
100
AcDbEntity
8
0
100
AcDbCircle
10
0
20
-138.42500058114527
30
0
40
2.6000000000000001
0
CIRCLE
5
212
100
AcDbEntity
8
0
100
AcDbCircle
10
-124
20
113.45000000000006
30
0
40
0.99999999999999645
0
CIRCLE
5
213
100
AcDbEntity
8
0
100
AcDbCircle
10
-78.285714285714292
20
123.45000000000006
30
0
40
0.99999999999999645
0
CIRCLE
5
214
100
AcDbEntity
8
0
100
AcDbCircle
10
-105.71428571428572
20
113.45000000000006
30
0
40
0.99999999999999645
0
CIRCLE
5
215
100
AcDbEntity
8
0
100
AcDbCircle
10
-114.85714285714286
20
123.45000000000006
30
0
40
0.99999999999999645
0
CIRCLE
5
216
100
AcDbEntity
8
0
100
AcDbCircle
10
-87.428571428571445
20
143.45000000000005
30
0
40
0.99999999999999645
0
CIRCLE
5
217
100
AcDbEntity
8
0
100
AcDbCircle
10
-78.285714285714292
20
133.45000000000005
30
0
40
0.99999999999999645
0
CIRCLE
5
218
100
AcDbEntity
8
0
100
AcDbCircle
10
-105.71428571428572
20
133.45000000000005
30
0
40
0.99999999999999645
0
CIRCLE
5
219
100
AcDbEntity
8
0
100
AcDbCircle
10
-87.428571428571445
20
153.45000000000005
30
0
40
0.99999999999999645
0
CIRCLE
5
220
100
AcDbEntity
8
0
100
AcDbCircle
10
-96.571428571428584
20
133.45000000000005
30
0
40
0.99999999999999645
0
CIRCLE
5
221
100
AcDbEntity
8
0
100
AcDbCircle
10
-114.85714285714286
20
153.45000000000005
30
0
40
0.99999999999999645
0
CIRCLE
5
222
100
AcDbEntity
8
0
100
AcDbCircle
10
-96.571428571428584
20
153.45000000000005
30
0
40
0.99999999999999645
0
CIRCLE
5
223
100
AcDbEntity
8
0
100
AcDbCircle
10
-124
20
133.45000000000005
30
0
40
0.99999999999999645
0
CIRCLE
5
224
100
AcDbEntity
8
0
100
AcDbCircle
10
-87.428571428571445
20
133.45000000000005
30
0
40
0.99999999999999645
0
CIRCLE
5
225
100
AcDbEntity
8
0
100
AcDbCircle
10
-124
20
143.45000000000005
30
0
40
0.99999999999999645
0
CIRCLE
5
226
100
AcDbEntity
8
0
100
AcDbCircle
10
-114.85714285714286
20
133.45000000000005
30
0
40
0.99999999999999645
0
CIRCLE
5
227
100
AcDbEntity
8
0
100
AcDbCircle
10
-78.285714285714292
20
143.45000000000005
30
0
40
0.99999999999999645
0
CIRCLE
5
228
100
AcDbEntity
8
0
100
AcDbCircle
10
-60
20
133.45000000000005
30
0
40
0.99999999999999645
0
CIRCLE
5
229
100
AcDbEntity
8
0
100
AcDbCircle
10
-96.571428571428584
20
113.45000000000006
30
0
40
0.99999999999999645
0
CIRCLE
5
230
100
AcDbEntity
8
0
100
AcDbCircle
10
-114.85714285714286
20
113.45000000000006
30
0
40
0.99999999999999645
0
CIRCLE
5
231
100
AcDbEntity
8
0
100
AcDbCircle
10
-78.285714285714292
20
113.45000000000006
30
0
40
0.99999999999999645
0
CIRCLE
5
232
100
AcDbEntity
8
0
100
AcDbCircle
10
-60
20
113.45000000000006
30
0
40
0.99999999999999645
0
CIRCLE
5
233
100
AcDbEntity
8
0
100
AcDbCircle
10
-60
20
123.45000000000006
30
0
40
0.99999999999999645
0
CIRCLE
5
234
100
AcDbEntity
8
0
100
AcDbCircle
10
-87.428571428571445
20
123.45000000000006
30
0
40
0.99999999999999645
0
CIRCLE
5
235
100
AcDbEntity
8
0
100
AcDbCircle
10
-105.71428571428572
20
123.45000000000006
30
0
40
0.99999999999999645
0
CIRCLE
5
236
100
AcDbEntity
8
0
100
AcDbCircle
10
-69.142857142857139
20
133.45000000000005
30
0
40
0.99999999999999645
0
CIRCLE
5
237
100
AcDbEntity
8
0
100
AcDbCircle
10
-114.85714285714286
20
143.45000000000005
30
0
40
0.99999999999999645
0
CIRCLE
5
238
100
AcDbEntity
8
0
100
AcDbCircle
10
-69.142857142857139
20
143.45000000000005
30
0
40
0.99999999999999645
0
CIRCLE
5
239
100
AcDbEntity
8
0
100
AcDbCircle
10
-69.142857142857139
20
153.45000000000005
30
0
40
0.99999999999999645
0
CIRCLE
5
240
100
AcDbEntity
8
0
100
AcDbCircle
10
-96.571428571428584
20
143.45000000000005
30
0
40
0.99999999999999645
0
CIRCLE
5
241
100
AcDbEntity
8
0
100
AcDbCircle
10
-105.71428571428572
20
153.45000000000005
30
0
40
0.99999999999999645
0
CIRCLE
5
242
100
AcDbEntity
8
0
100
AcDbCircle
10
-105.71428571428572
20
143.45000000000005
30
0
40
0.99999999999999645
0
CIRCLE
5
243
100
AcDbEntity
8
0
100
AcDbCircle
10
-60
20
143.45000000000005
30
0
40
0.99999999999999645
0
CIRCLE
5
244
100
AcDbEntity
8
0
100
AcDbCircle
10
-124
20
153.45000000000005
30
0
40
0.99999999999999645
0
CIRCLE
5
245
100
AcDbEntity
8
0
100
AcDbCircle
10
-124
20
123.45000000000006
30
0
40
0.99999999999999645
0
CIRCLE
5
246
100
AcDbEntity
8
0
100
AcDbCircle
10
-60
20
153.45000000000005
30
0
40
0.99999999999999645
0
CIRCLE
5
247
100
AcDbEntity
8
0
100
AcDbCircle
10
-78.285714285714292
20
153.45000000000005
30
0
40
0.99999999999999645
0
CIRCLE
5
248
100
AcDbEntity
8
0
100
AcDbCircle
10
-69.142857142857139
20
123.45000000000006
30
0
40
0.99999999999999645
0
CIRCLE
5
249
100
AcDbEntity
8
0
100
AcDbCircle
10
-87.428571428571445
20
113.45000000000006
30
0
40
0.99999999999999645
0
CIRCLE
5
250
100
AcDbEntity
8
0
100
AcDbCircle
10
-96.571428571428584
20
123.45000000000006
30
0
40
0.99999999999999645
0
CIRCLE
5
251
100
AcDbEntity
8
0
100
AcDbCircle
10
-69.142857142857139
20
113.45000000000006
30
0
40
0.99999999999999645
0
CIRCLE
5
252
100
AcDbEntity
8
0
100
AcDbCircle
10
-124
20
113.45000000000006
30
0
40
0.99999999999999645
0
CIRCLE
5
253
100
AcDbEntity
8
0
100
AcDbCircle
10
-78.285714285714292
20
123.45000000000006
30
0
40
0.99999999999999645
0
CIRCLE
5
254
100
AcDbEntity
8
0
100
AcDbCircle
10
-105.71428571428572
20
113.45000000000006
30
0
40
0.99999999999999645
0
CIRCLE
5
255
100
AcDbEntity
8
0
100
AcDbCircle
10
-114.85714285714286
20
123.45000000000006
30
0
40
0.99999999999999645
0
CIRCLE
5
256
100
AcDbEntity
8
0
100
AcDbCircle
10
-87.428571428571445
20
143.45000000000005
30
0
40
0.99999999999999645
0
CIRCLE
5
257
100
AcDbEntity
8
0
100
AcDbCircle
10
-78.285714285714292
20
133.45000000000005
30
0
40
0.99999999999999645
0
CIRCLE
5
258
100
AcDbEntity
8
0
100
AcDbCircle
10
-105.71428571428572
20
133.45000000000005
30
0
40
0.99999999999999645
0
CIRCLE
5
259
100
AcDbEntity
8
0
100
AcDbCircle
10
-87.428571428571445
20
153.45000000000005
30
0
40
0.99999999999999645
0
CIRCLE
5
260
100
AcDbEntity
8
0
100
AcDbCircle
10
-96.571428571428584
20
133.45000000000005
30
0
40
0.99999999999999645
0
CIRCLE
5
261
100
AcDbEntity
8
0
100
AcDbCircle
10
-114.85714285714286
20
153.45000000000005
30
0
40
0.99999999999999645
0
CIRCLE
5
262
100
AcDbEntity
8
0
100
AcDbCircle
10
-96.571428571428584
20
153.45000000000005
30
0
40
0.99999999999999645
0
CIRCLE
5
263
100
AcDbEntity
8
0
100
AcDbCircle
10
-124
20
133.45000000000005
30
0
40
0.99999999999999645
0
CIRCLE
5
264
100
AcDbEntity
8
0
100
AcDbCircle
10
-87.428571428571445
20
133.45000000000005
30
0
40
0.99999999999999645
0
CIRCLE
5
265
100
AcDbEntity
8
0
100
AcDbCircle
10
-124
20
143.45000000000005
30
0
40
0.99999999999999645
0
CIRCLE
5
266
100
AcDbEntity
8
0
100
AcDbCircle
10
-114.85714285714286
20
133.45000000000005
30
0
40
0.99999999999999645
0
CIRCLE
5
267
100
AcDbEntity
8
0
100
AcDbCircle
10
-78.285714285714292
20
143.45000000000005
30
0
40
0.99999999999999645
0
CIRCLE
5
268
100
AcDbEntity
8
0
100
AcDbCircle
10
-60
20
133.45000000000005
30
0
40
0.99999999999999645
0
CIRCLE
5
269
100
AcDbEntity
8
0
100
AcDbCircle
10
-96.571428571428584
20
113.45000000000006
30
0
40
0.99999999999999645
0
CIRCLE
5
270
100
AcDbEntity
8
0
100
AcDbCircle
10
-114.85714285714286
20
113.45000000000006
30
0
40
0.99999999999999645
0
CIRCLE
5
271
100
AcDbEntity
8
0
100
AcDbCircle
10
-78.285714285714292
20
113.45000000000006
30
0
40
0.99999999999999645
0
CIRCLE
5
272
100
AcDbEntity
8
0
100
AcDbCircle
10
-60
20
113.45000000000006
30
0
40
0.99999999999999645
0
CIRCLE
5
273
100
AcDbEntity
8
0
100
AcDbCircle
10
-60
20
123.45000000000006
30
0
40
0.99999999999999645
0
CIRCLE
5
274
100
AcDbEntity
8
0
100
AcDbCircle
10
-87.428571428571445
20
123.45000000000006
30
0
40
0.99999999999999645
0
CIRCLE
5
275
100
AcDbEntity
8
0
100
AcDbCircle
10
-105.71428571428572
20
123.45000000000006
30
0
40
0.99999999999999645
0
CIRCLE
5
276
100
AcDbEntity
8
0
100
AcDbCircle
10
-69.142857142857139
20
133.45000000000005
30
0
40
0.99999999999999645
0
CIRCLE
5
277
100
AcDbEntity
8
0
100
AcDbCircle
10
-114.85714285714286
20
143.45000000000005
30
0
40
0.99999999999999645
0
CIRCLE
5
278
100
AcDbEntity
8
0
100
AcDbCircle
10
-69.142857142857139
20
143.45000000000005
30
0
40
0.99999999999999645
0
CIRCLE
5
279
100
AcDbEntity
8
0
100
AcDbCircle
10
-69.142857142857139
20
153.45000000000005
30
0
40
0.99999999999999645
0
CIRCLE
5
280
100
AcDbEntity
8
0
100
AcDbCircle
10
-96.571428571428584
20
143.45000000000005
30
0
40
0.99999999999999645
0
CIRCLE
5
281
100
AcDbEntity
8
0
100
AcDbCircle
10
-105.71428571428572
20
153.45000000000005
30
0
40
0.99999999999999645
0
CIRCLE
5
282
100
AcDbEntity
8
0
100
AcDbCircle
10
-105.71428571428572
20
143.45000000000005
30
0
40
0.99999999999999645
0
CIRCLE
5
283
100
AcDbEntity
8
0
100
AcDbCircle
10
-60
20
143.45000000000005
30
0
40
0.99999999999999645
0
CIRCLE
5
284
100
AcDbEntity
8
0
100
AcDbCircle
10
-124
20
153.45000000000005
30
0
40
0.99999999999999645
0
CIRCLE
5
285
100
AcDbEntity
8
0
100
AcDbCircle
10
-124
20
123.45000000000006
30
0
40
0.99999999999999645
0
CIRCLE
5
286
100
AcDbEntity
8
0
100
AcDbCircle
10
-60
20
153.45000000000005
30
0
40
0.99999999999999645
0
CIRCLE
5
287
100
AcDbEntity
8
0
100
AcDbCircle
10
-78.285714285714292
20
153.45000000000005
30
0
40
0.99999999999999645
0
CIRCLE
5
288
100
AcDbEntity
8
0
100
AcDbCircle
10
-69.142857142857139
20
123.45000000000006
30
0
40
0.99999999999999645
0
CIRCLE
5
289
100
AcDbEntity
8
0
100
AcDbCircle
10
-87.428571428571445
20
113.45000000000006
30
0
40
0.99999999999999645
0
CIRCLE
5
290
100
AcDbEntity
8
0
100
AcDbCircle
10
-96.571428571428584
20
123.45000000000006
30
0
40
0.99999999999999645
0
CIRCLE
5
291
100
AcDbEntity
8
0
100
AcDbCircle
10
-69.142857142857139
20
113.45000000000006
30
0
40
0.99999999999999645
0
CIRCLE
5
292
100
AcDbEntity
8
0
100
AcDbCircle
10
-123
20
-123.42500058114526
30
0
40
2.5999999999999979
0
CIRCLE
5
293
100
AcDbEntity
8
0
100
AcDbCircle
10
123
20
-123.42500058114526
30
0
40
2.5999999999999979
0
CIRCLE
5
294
100
AcDbEntity
8
0
100
AcDbCircle
10
-123
20
-138.42500058114527
30
0
40
2.5999999999999979
0
CIRCLE
5
295
100
AcDbEntity
8
0
100
AcDbCircle
10
0
20
-123.42500058114526
30
0
40
2.6000000000000001
0
CIRCLE
5
296
100
AcDbEntity
8
0
100
AcDbCircle
10
123
20
-138.42500058114527
30
0
40
2.5999999999999979
0
CIRCLE
5
297
100
AcDbEntity
8
0
100
AcDbCircle
10
-123
20
-123.42500058114526
30
0
40
2.5999999999999979
0
CIRCLE
5
298
100
AcDbEntity
8
0
100
AcDbCircle
10
123
20
-123.42500058114526
30
0
40
2.5999999999999979
0
CIRCLE
5
299
100
AcDbEntity
8
0
100
AcDbCircle
10
-123
20
-138.42500058114527
30
0
40
2.5999999999999979
0
CIRCLE
5
300
100
AcDbEntity
8
0
100
AcDbCircle
10
0
20
-123.42500058114526
30
0
40
2.6000000000000001
0
CIRCLE
5
301
100
AcDbEntity
8
0
100
AcDbCircle
10
123
20
-138.42500058114527
30
0
40
2.5999999999999979
0
ENDSEC
0
SECTION
2
OBJECTS
0
DICTIONARY
5
C
100
AcDbDictionary
3
ACAD_GROUP
350
D
3
ACAD_MLINESTYLE
350
17
0
DICTIONARY
5
D
100
AcDbDictionary
0
DICTIONARY
5
1A
330
C
100
AcDbDictionary
0
DICTIONARY
5
17
100
AcDbDictionary
0
ENDSEC
0
EOF
